<?xml version="1.0" encoding="UTF-8" standalone="no"?><svg xmlns="http://www.w3.org/2000/svg" xmlns:xlink="http://www.w3.org/1999/xlink" contentScriptType="application/ecmascript" contentStyleType="text/css" height="318px" preserveAspectRatio="none" style="width:771px;height:318px;" version="1.1" viewBox="0 0 771 318" width="771px" zoomAndPan="magnify"><defs><filter height="300%" id="ffccaonjxjhj0" width="300%" x="-1" y="-1"><feGaussianBlur result="blurOut" stdDeviation="2.0"/><feColorMatrix in="blurOut" result="blurOut2" type="matrix" values="0 0 0 0 0 0 0 0 0 0 0 0 0 0 0 0 0 0 .4 0"/><feOffset dx="4.0" dy="4.0" in="blurOut2" result="blurOut3"/><feBlend in="SourceGraphic" in2="blurOut3" mode="normal"/></filter></defs><g><!--MD5=[ff7c735d557c79654407fd450f884ba7]
class EnergyConsuptionUI--><rect codeLine="4" fill="#FEFECE" filter="url(#ffccaonjxjhj0)" height="48" id="EnergyConsuptionUI" style="stroke:#A80036;stroke-width:1.5;" width="146" x="7" y="111"/><ellipse cx="22" cy="127" fill="#ADD1B2" rx="11" ry="11" style="stroke:#A80036;stroke-width:1.0;"/><path d="M24,123.5 Q24.2031,123 24.4375,122.75 Q24.6719,122.5 24.9375,122.5 Q25.4063,122.5 25.7031,122.7813 Q26,123.0625 26,123.7188 L26,125.2813 Q26,125.9375 25.7188,126.2188 Q25.4375,126.5 25,126.5 Q24.6094,126.5 24.3594,126.3281 Q24.1094,126.1563 24,125.7031 Q23.9531,125.3906 23.7813,125.2188 Q23.4688,124.8906 22.9063,124.7031 Q22.3438,124.5 21.7813,124.5 Q21.0781,124.5 20.4844,124.7813 Q19.9063,125.0625 19.4531,125.6875 Q19,126.3125 19,127.1719 L19,128.0938 Q19,129.125 19.8438,129.8125 Q20.6875,130.5 22.1875,130.5 Q23.0781,130.5 23.7031,130.2969 Q24.0625,130.1875 24.4688,129.8281 Q24.7344,129.625 24.875,129.5625 Q25.0156,129.5 25.1875,129.5 Q25.5156,129.5 25.75,129.7656 Q26,130.0156 26,130.375 Q26,130.7188 25.6563,131.125 Q25.1563,131.7188 24.3594,132.0469 Q23.3125,132.5 22.0313,132.5 Q20.5313,132.5 19.3281,131.9063 Q18.3594,131.4375 17.6719,130.4219 Q17,129.4063 17,128.2031 L17,127.1094 Q17,125.8594 17.5938,124.7656 Q18.2031,123.6719 19.25,123.0938 Q20.3125,122.5 21.5,122.5 Q22.2188,122.5 22.8438,122.75 Q23.4688,123 24,123.5 Z " fill="#000000"/><text fill="#000000" font-family="sans-serif" font-size="12" lengthAdjust="spacingAndGlyphs" textLength="114" x="36" y="131.9102">EnergyConsuptionUI</text><line style="stroke:#A80036;stroke-width:1.5;" x1="8" x2="152" y1="143" y2="143"/><line style="stroke:#A80036;stroke-width:1.5;" x1="8" x2="152" y1="151" y2="151"/><!--MD5=[12ebe5537eec11f519123bb7345a3e8b]
class EnergyConsuptionController--><rect codeLine="8" fill="#FEFECE" filter="url(#ffccaonjxjhj0)" height="61.8359" id="EnergyConsuptionController" style="stroke:#A80036;stroke-width:1.5;" width="188" x="213" y="104"/><ellipse cx="228" cy="120" fill="#ADD1B2" rx="11" ry="11" style="stroke:#A80036;stroke-width:1.0;"/><path d="M230,116.5 Q230.2031,116 230.4375,115.75 Q230.6719,115.5 230.9375,115.5 Q231.4063,115.5 231.7031,115.7813 Q232,116.0625 232,116.7188 L232,118.2813 Q232,118.9375 231.7188,119.2188 Q231.4375,119.5 231,119.5 Q230.6094,119.5 230.3594,119.3281 Q230.1094,119.1563 230,118.7031 Q229.9531,118.3906 229.7813,118.2188 Q229.4688,117.8906 228.9063,117.7031 Q228.3438,117.5 227.7813,117.5 Q227.0781,117.5 226.4844,117.7813 Q225.9063,118.0625 225.4531,118.6875 Q225,119.3125 225,120.1719 L225,121.0938 Q225,122.125 225.8438,122.8125 Q226.6875,123.5 228.1875,123.5 Q229.0781,123.5 229.7031,123.2969 Q230.0625,123.1875 230.4688,122.8281 Q230.7344,122.625 230.875,122.5625 Q231.0156,122.5 231.1875,122.5 Q231.5156,122.5 231.75,122.7656 Q232,123.0156 232,123.375 Q232,123.7188 231.6563,124.125 Q231.1563,124.7188 230.3594,125.0469 Q229.3125,125.5 228.0313,125.5 Q226.5313,125.5 225.3281,124.9063 Q224.3594,124.4375 223.6719,123.4219 Q223,122.4063 223,121.2031 L223,120.1094 Q223,118.8594 223.5938,117.7656 Q224.2031,116.6719 225.25,116.0938 Q226.3125,115.5 227.5,115.5 Q228.2188,115.5 228.8438,115.75 Q229.4688,116 230,116.5 Z " fill="#000000"/><text fill="#000000" font-family="sans-serif" font-size="12" lengthAdjust="spacingAndGlyphs" textLength="156" x="242" y="124.9102">EnergyConsuptionController</text><line style="stroke:#A80036;stroke-width:1.5;" x1="214" x2="400" y1="136" y2="136"/><line style="stroke:#A80036;stroke-width:1.5;" x1="214" x2="400" y1="144" y2="144"/><ellipse cx="224" cy="155" fill="#84BE84" rx="3" ry="3" style="stroke:#038048;stroke-width:1.0;"/><text fill="#000000" font-family="sans-serif" font-size="11" lengthAdjust="spacingAndGlyphs" textLength="126" x="233" y="159.4189">CheckEnergyConsuption()</text><!--MD5=[0b4e4b4980470ea387cc45de9bd14b5b]
class Application--><rect codeLine="13" fill="#FEFECE" filter="url(#ffccaonjxjhj0)" height="61.8359" id="Application" style="stroke:#A80036;stroke-width:1.5;" width="92" x="487.5" y="7"/><ellipse cx="502.5" cy="23" fill="#ADD1B2" rx="11" ry="11" style="stroke:#A80036;stroke-width:1.0;"/><path d="M504.5,19.5 Q504.7031,19 504.9375,18.75 Q505.1719,18.5 505.4375,18.5 Q505.9063,18.5 506.2031,18.7813 Q506.5,19.0625 506.5,19.7188 L506.5,21.2813 Q506.5,21.9375 506.2188,22.2188 Q505.9375,22.5 505.5,22.5 Q505.1094,22.5 504.8594,22.3281 Q504.6094,22.1563 504.5,21.7031 Q504.4531,21.3906 504.2813,21.2188 Q503.9688,20.8906 503.4063,20.7031 Q502.8438,20.5 502.2813,20.5 Q501.5781,20.5 500.9844,20.7813 Q500.4063,21.0625 499.9531,21.6875 Q499.5,22.3125 499.5,23.1719 L499.5,24.0938 Q499.5,25.125 500.3438,25.8125 Q501.1875,26.5 502.6875,26.5 Q503.5781,26.5 504.2031,26.2969 Q504.5625,26.1875 504.9688,25.8281 Q505.2344,25.625 505.375,25.5625 Q505.5156,25.5 505.6875,25.5 Q506.0156,25.5 506.25,25.7656 Q506.5,26.0156 506.5,26.375 Q506.5,26.7188 506.1563,27.125 Q505.6563,27.7188 504.8594,28.0469 Q503.8125,28.5 502.5313,28.5 Q501.0313,28.5 499.8281,27.9063 Q498.8594,27.4375 498.1719,26.4219 Q497.5,25.4063 497.5,24.2031 L497.5,23.1094 Q497.5,21.8594 498.0938,20.7656 Q498.7031,19.6719 499.75,19.0938 Q500.8125,18.5 502,18.5 Q502.7188,18.5 503.3438,18.75 Q503.9688,19 504.5,19.5 Z " fill="#000000"/><text fill="#000000" font-family="sans-serif" font-size="12" lengthAdjust="spacingAndGlyphs" textLength="60" x="516.5" y="27.9102">Application</text><line style="stroke:#A80036;stroke-width:1.5;" x1="488.5" x2="578.5" y1="39" y2="39"/><line style="stroke:#A80036;stroke-width:1.5;" x1="488.5" x2="578.5" y1="47" y2="47"/><ellipse cx="498.5" cy="58" fill="#84BE84" rx="3" ry="3" style="stroke:#038048;stroke-width:1.0;"/><text fill="#000000" font-family="sans-serif" font-size="11" lengthAdjust="spacingAndGlyphs" textLength="46" x="507.5" y="62.4189">getUser()</text><!--MD5=[3fd616f346a44cd59a91eb10b19e157c]
class User--><rect codeLine="16" fill="#FEFECE" filter="url(#ffccaonjxjhj0)" height="61.8359" id="User" style="stroke:#A80036;stroke-width:1.5;" width="106" x="480.5" y="104"/><ellipse cx="516.65" cy="120" fill="#ADD1B2" rx="11" ry="11" style="stroke:#A80036;stroke-width:1.0;"/><path d="M518.65,116.5 Q518.8531,116 519.0875,115.75 Q519.3219,115.5 519.5875,115.5 Q520.0563,115.5 520.3531,115.7813 Q520.65,116.0625 520.65,116.7188 L520.65,118.2813 Q520.65,118.9375 520.3688,119.2188 Q520.0875,119.5 519.65,119.5 Q519.2594,119.5 519.0094,119.3281 Q518.7594,119.1563 518.65,118.7031 Q518.6031,118.3906 518.4313,118.2188 Q518.1188,117.8906 517.5563,117.7031 Q516.9938,117.5 516.4313,117.5 Q515.7281,117.5 515.1344,117.7813 Q514.5563,118.0625 514.1031,118.6875 Q513.65,119.3125 513.65,120.1719 L513.65,121.0938 Q513.65,122.125 514.4938,122.8125 Q515.3375,123.5 516.8375,123.5 Q517.7281,123.5 518.3531,123.2969 Q518.7125,123.1875 519.1188,122.8281 Q519.3844,122.625 519.525,122.5625 Q519.6656,122.5 519.8375,122.5 Q520.1656,122.5 520.4,122.7656 Q520.65,123.0156 520.65,123.375 Q520.65,123.7188 520.3063,124.125 Q519.8063,124.7188 519.0094,125.0469 Q517.9625,125.5 516.6813,125.5 Q515.1813,125.5 513.9781,124.9063 Q513.0094,124.4375 512.3219,123.4219 Q511.65,122.4063 511.65,121.2031 L511.65,120.1094 Q511.65,118.8594 512.2438,117.7656 Q512.8531,116.6719 513.9,116.0938 Q514.9625,115.5 516.15,115.5 Q516.8688,115.5 517.4938,115.75 Q518.1188,116 518.65,116.5 Z " fill="#000000"/><text fill="#000000" font-family="sans-serif" font-size="12" lengthAdjust="spacingAndGlyphs" textLength="27" x="535.35" y="124.9102">User</text><line style="stroke:#A80036;stroke-width:1.5;" x1="481.5" x2="585.5" y1="136" y2="136"/><line style="stroke:#A80036;stroke-width:1.5;" x1="481.5" x2="585.5" y1="144" y2="144"/><ellipse cx="491.5" cy="155" fill="#84BE84" rx="3" ry="3" style="stroke:#038048;stroke-width:1.0;"/><text fill="#000000" font-family="sans-serif" font-size="11" lengthAdjust="spacingAndGlyphs" textLength="80" x="500.5" y="159.4189">getCourier(user)</text><!--MD5=[f4402668d5d5bb8485350c0fdb60ac8e]
class Scooter--><rect codeLine="23" fill="#FEFECE" filter="url(#ffccaonjxjhj0)" height="103.3438" id="Scooter" style="stroke:#A80036;stroke-width:1.5;" width="145" x="461" y="201.5"/><ellipse cx="508.25" cy="217.5" fill="#ADD1B2" rx="11" ry="11" style="stroke:#A80036;stroke-width:1.0;"/><path d="M510.25,214 Q510.4531,213.5 510.6875,213.25 Q510.9219,213 511.1875,213 Q511.6563,213 511.9531,213.2813 Q512.25,213.5625 512.25,214.2188 L512.25,215.7813 Q512.25,216.4375 511.9688,216.7188 Q511.6875,217 511.25,217 Q510.8594,217 510.6094,216.8281 Q510.3594,216.6563 510.25,216.2031 Q510.2031,215.8906 510.0313,215.7188 Q509.7188,215.3906 509.1563,215.2031 Q508.5938,215 508.0313,215 Q507.3281,215 506.7344,215.2813 Q506.1563,215.5625 505.7031,216.1875 Q505.25,216.8125 505.25,217.6719 L505.25,218.5938 Q505.25,219.625 506.0938,220.3125 Q506.9375,221 508.4375,221 Q509.3281,221 509.9531,220.7969 Q510.3125,220.6875 510.7188,220.3281 Q510.9844,220.125 511.125,220.0625 Q511.2656,220 511.4375,220 Q511.7656,220 512,220.2656 Q512.25,220.5156 512.25,220.875 Q512.25,221.2188 511.9063,221.625 Q511.4063,222.2188 510.6094,222.5469 Q509.5625,223 508.2813,223 Q506.7813,223 505.5781,222.4063 Q504.6094,221.9375 503.9219,220.9219 Q503.25,219.9063 503.25,218.7031 L503.25,217.6094 Q503.25,216.3594 503.8438,215.2656 Q504.4531,214.1719 505.5,213.5938 Q506.5625,213 507.75,213 Q508.4688,213 509.0938,213.25 Q509.7188,213.5 510.25,214 Z " fill="#000000"/><text fill="#000000" font-family="sans-serif" font-size="12" lengthAdjust="spacingAndGlyphs" textLength="42" x="528.75" y="222.4102">Scooter</text><line style="stroke:#A80036;stroke-width:1.5;" x1="462" x2="605" y1="233.5" y2="233.5"/><line style="stroke:#A80036;stroke-width:1.5;" x1="462" x2="605" y1="241.5" y2="241.5"/><ellipse cx="472" cy="252.5" fill="#84BE84" rx="3" ry="3" style="stroke:#038048;stroke-width:1.0;"/><text fill="#000000" font-family="sans-serif" font-size="11" lengthAdjust="spacingAndGlyphs" textLength="78" x="481" y="256.9189">getbatterySize()</text><ellipse cx="472" cy="266.3359" fill="#84BE84" rx="3" ry="3" style="stroke:#038048;stroke-width:1.0;"/><text fill="#000000" font-family="sans-serif" font-size="11" lengthAdjust="spacingAndGlyphs" textLength="119" x="481" y="270.7549">getbatteryConsumption()</text><ellipse cx="472" cy="280.1719" fill="#84BE84" rx="3" ry="3" style="stroke:#038048;stroke-width:1.0;"/><text fill="#000000" font-family="sans-serif" font-size="11" lengthAdjust="spacingAndGlyphs" textLength="93" x="481" y="284.5908">getcurrentBattery()</text><ellipse cx="472" cy="294.0078" fill="#84BE84" rx="3" ry="3" style="stroke:#038048;stroke-width:1.0;"/><text fill="#000000" font-family="sans-serif" font-size="11" lengthAdjust="spacingAndGlyphs" textLength="111" x="481" y="298.4268">getEnergyConsuption()</text><!--MD5=[48d7298b3bd1f8b3e8f77915e881d788]
class ScooterDB--><rect codeLine="31" fill="#FEFECE" filter="url(#ffccaonjxjhj0)" height="61.8359" id="ScooterDB" style="stroke:#A80036;stroke-width:1.5;" width="91" x="666" y="222"/><ellipse cx="681" cy="238" fill="#ADD1B2" rx="11" ry="11" style="stroke:#A80036;stroke-width:1.0;"/><path d="M683,234.5 Q683.2031,234 683.4375,233.75 Q683.6719,233.5 683.9375,233.5 Q684.4063,233.5 684.7031,233.7813 Q685,234.0625 685,234.7188 L685,236.2813 Q685,236.9375 684.7188,237.2188 Q684.4375,237.5 684,237.5 Q683.6094,237.5 683.3594,237.3281 Q683.1094,237.1563 683,236.7031 Q682.9531,236.3906 682.7813,236.2188 Q682.4688,235.8906 681.9063,235.7031 Q681.3438,235.5 680.7813,235.5 Q680.0781,235.5 679.4844,235.7813 Q678.9063,236.0625 678.4531,236.6875 Q678,237.3125 678,238.1719 L678,239.0938 Q678,240.125 678.8438,240.8125 Q679.6875,241.5 681.1875,241.5 Q682.0781,241.5 682.7031,241.2969 Q683.0625,241.1875 683.4688,240.8281 Q683.7344,240.625 683.875,240.5625 Q684.0156,240.5 684.1875,240.5 Q684.5156,240.5 684.75,240.7656 Q685,241.0156 685,241.375 Q685,241.7188 684.6563,242.125 Q684.1563,242.7188 683.3594,243.0469 Q682.3125,243.5 681.0313,243.5 Q679.5313,243.5 678.3281,242.9063 Q677.3594,242.4375 676.6719,241.4219 Q676,240.4063 676,239.2031 L676,238.1094 Q676,236.8594 676.5938,235.7656 Q677.2031,234.6719 678.25,234.0938 Q679.3125,233.5 680.5,233.5 Q681.2188,233.5 681.8438,233.75 Q682.4688,234 683,234.5 Z " fill="#000000"/><text fill="#000000" font-family="sans-serif" font-size="12" lengthAdjust="spacingAndGlyphs" textLength="59" x="695" y="242.9102">ScooterDB</text><line style="stroke:#A80036;stroke-width:1.5;" x1="667" x2="756" y1="254" y2="254"/><line style="stroke:#A80036;stroke-width:1.5;" x1="667" x2="756" y1="262" y2="262"/><ellipse cx="677" cy="273" fill="#84BE84" rx="3" ry="3" style="stroke:#038048;stroke-width:1.0;"/><text fill="#000000" font-family="sans-serif" font-size="11" lengthAdjust="spacingAndGlyphs" textLength="61" x="686" y="277.4189">getScooter()</text><!--MD5=[9ef068fb34f448acb61dc2804dc28143]
link EnergyConsuptionUI to EnergyConsuptionController--><path codeLine="39" d="M153.12,135 C170.51,135 189.38,135 207.74,135 " fill="none" id="EnergyConsuptionUI-to-EnergyConsuptionController" style="stroke:#A80036;stroke-width:1.0;stroke-dasharray:7.0,7.0;"/><polygon fill="#A80036" points="212.9,135,203.9,131,207.9,135,203.9,139,212.9,135" style="stroke:#A80036;stroke-width:1.0;"/><!--MD5=[c2dc29ce5044bb06646ca412d5beffc7]
link EnergyConsuptionController to Scooter--><path codeLine="40" d="M366.98,166 C394.24,180.33 426.94,197.52 456.06,212.82 " fill="none" id="EnergyConsuptionController-to-Scooter" style="stroke:#A80036;stroke-width:1.0;stroke-dasharray:7.0,7.0;"/><polygon fill="#A80036" points="460.7,215.26,454.6059,207.5229,456.2776,212.9271,450.8734,214.5988,460.7,215.26" style="stroke:#A80036;stroke-width:1.0;"/><!--MD5=[64d787338c3a4dd0ed7703b6f35b126a]
link EnergyConsuptionController to User--><path codeLine="41" d="M401.26,135 C426.35,135 452.74,135 475.22,135 " fill="none" id="EnergyConsuptionController-to-User" style="stroke:#A80036;stroke-width:1.0;stroke-dasharray:7.0,7.0;"/><polygon fill="#A80036" points="480.25,135,471.25,131,475.25,135,471.25,139,480.25,135" style="stroke:#A80036;stroke-width:1.0;"/><!--MD5=[45d80cbfe644a577ea0c7e860582fa7f]
link EnergyConsuptionController to Application--><path codeLine="42" d="M379.96,103.91 C413.44,89.44 452.43,72.6 482.61,59.56 " fill="none" id="EnergyConsuptionController-to-Application" style="stroke:#A80036;stroke-width:1.0;stroke-dasharray:7.0,7.0;"/><polygon fill="#A80036" points="487.38,57.5,477.5317,57.3945,482.7895,59.4816,480.7023,64.7394,487.38,57.5" style="stroke:#A80036;stroke-width:1.0;"/><!--MD5=[49bff876dcab90bc5ce1b627ce018eb3]
link Scooter to ScooterDB--><path codeLine="43" d="M606.09,253 C624.37,253 643.63,253 660.57,253 " fill="none" id="Scooter-to-ScooterDB" style="stroke:#A80036;stroke-width:1.0;stroke-dasharray:7.0,7.0;"/><polygon fill="#A80036" points="665.75,253,656.75,249,660.75,253,656.75,257,665.75,253" style="stroke:#A80036;stroke-width:1.0;"/><!--MD5=[aff28b569ff31d37a6bb9706beffc970]
@startuml

left to right direction

class EnergyConsuptionUI {

}

class EnergyConsuptionController {
    +CheckEnergyConsuption()

}

class Application {
    +getUser()
}
Class User{
    +getCourier(user)
}




class Scooter {
  +getbatterySize()
    +getbatteryConsumption()
    +getcurrentBattery()
    +getEnergyConsuption()

}

class ScooterDB {
    +getScooter()


}



EnergyConsuptionUI ..> EnergyConsuptionController
EnergyConsuptionController ..> Scooter
EnergyConsuptionController ..> User
EnergyConsuptionController ..> Application
Scooter..> ScooterDB

@enduml

PlantUML version 1.2020.23(Sun Dec 13 19:14:58 GMT 2020)
(GPL source distribution)
Java Runtime: OpenJDK Runtime Environment
JVM: OpenJDK 64-Bit Server VM
Default Encoding: Cp1252
Language: pt
Country: PT
--></g></svg>