<?xml version="1.0" encoding="UTF-8" standalone="no"?><svg xmlns="http://www.w3.org/2000/svg" xmlns:xlink="http://www.w3.org/1999/xlink" contentScriptType="application/ecmascript" contentStyleType="text/css" height="799px" preserveAspectRatio="none" style="width:1136px;height:799px;" version="1.1" viewBox="0 0 1136 799" width="1136px" zoomAndPan="magnify"><defs><filter height="300%" id="f1eimoa15ljucf" width="300%" x="-1" y="-1"><feGaussianBlur result="blurOut" stdDeviation="2.0"/><feColorMatrix in="blurOut" result="blurOut2" type="matrix" values="0 0 0 0 0 0 0 0 0 0 0 0 0 0 0 0 0 0 .4 0"/><feOffset dx="4.0" dy="4.0" in="blurOut2" result="blurOut3"/><feBlend in="SourceGraphic" in2="blurOut3" mode="normal"/></filter></defs><g><rect fill="#FFFFFF" filter="url(#f1eimoa15ljucf)" height="596.5703" style="stroke:#A80036;stroke-width:1.0;" width="10" x="26.5" y="99.6094"/><rect fill="#FFFFFF" filter="url(#f1eimoa15ljucf)" height="513.5156" style="stroke:#A80036;stroke-width:1.0;" width="10" x="438.5" y="121.9609"/><rect fill="#FFFFFF" filter="url(#f1eimoa15ljucf)" height="30.3516" style="stroke:#A80036;stroke-width:1.0;" width="10" x="438.5" y="665.8281"/><rect fill="#FFFFFF" filter="url(#f1eimoa15ljucf)" height="452.8125" style="stroke:#A80036;stroke-width:1.0;" width="10" x="629.5" y="152.3125"/><rect fill="#FFFFFF" filter="url(#f1eimoa15ljucf)" height="30" style="stroke:#A80036;stroke-width:1.0;" width="10" x="785.5" y="182.6641"/><rect fill="#FFFFFF" filter="url(#f1eimoa15ljucf)" height="30" style="stroke:#A80036;stroke-width:1.0;" width="10" x="880.5" y="243.0156"/><rect fill="#FFFFFF" filter="url(#f1eimoa15ljucf)" height="60.3516" style="stroke:#A80036;stroke-width:1.0;" width="10" x="965.5" y="303.3672"/><rect fill="#FFFFFF" filter="url(#f1eimoa15ljucf)" height="30" style="stroke:#A80036;stroke-width:1.0;" width="10" x="965.5" y="394.0703"/><rect fill="#FFFFFF" filter="url(#f1eimoa15ljucf)" height="30" style="stroke:#A80036;stroke-width:1.0;" width="10" x="965.5" y="454.4219"/><rect fill="#FFFFFF" filter="url(#f1eimoa15ljucf)" height="30" style="stroke:#A80036;stroke-width:1.0;" width="10" x="965.5" y="514.7734"/><rect fill="#FFFFFF" filter="url(#f1eimoa15ljucf)" height="30" style="stroke:#A80036;stroke-width:1.0;" width="10" x="965.5" y="575.125"/><rect fill="#FFFFFF" filter="url(#f1eimoa15ljucf)" height="30" style="stroke:#A80036;stroke-width:1.0;" width="10" x="1076.5" y="333.7188"/><line style="stroke:#A80036;stroke-width:1.0;stroke-dasharray:5.0,5.0;" x1="31" x2="31" y1="89.6094" y2="714.1797"/><line style="stroke:#A80036;stroke-width:1.0;stroke-dasharray:5.0,5.0;" x1="443" x2="443" y1="89.6094" y2="714.1797"/><line style="stroke:#A80036;stroke-width:1.0;stroke-dasharray:5.0,5.0;" x1="634" x2="634" y1="89.6094" y2="714.1797"/><line style="stroke:#A80036;stroke-width:1.0;stroke-dasharray:5.0,5.0;" x1="790" x2="790" y1="89.6094" y2="714.1797"/><line style="stroke:#A80036;stroke-width:1.0;stroke-dasharray:5.0,5.0;" x1="885" x2="885" y1="89.6094" y2="714.1797"/><line style="stroke:#A80036;stroke-width:1.0;stroke-dasharray:5.0,5.0;" x1="970" x2="970" y1="89.6094" y2="714.1797"/><line style="stroke:#A80036;stroke-width:1.0;stroke-dasharray:5.0,5.0;" x1="1081.5" x2="1081.5" y1="89.6094" y2="714.1797"/><text fill="#000000" font-family="sans-serif" font-size="14" lengthAdjust="spacingAndGlyphs" textLength="47" x="5" y="86.5332">Courier</text><ellipse cx="31.5" cy="15" fill="#FEFECE" filter="url(#f1eimoa15ljucf)" rx="8" ry="8" style="stroke:#A80036;stroke-width:2.0;"/><path d="M31.5,23 L31.5,50 M18.5,31 L44.5,31 M31.5,50 L18.5,65 M31.5,50 L44.5,65 " fill="none" filter="url(#f1eimoa15ljucf)" style="stroke:#A80036;stroke-width:2.0;"/><text fill="#000000" font-family="sans-serif" font-size="14" lengthAdjust="spacingAndGlyphs" textLength="47" x="5" y="727.7129">Courier</text><ellipse cx="31.5" cy="740.7891" fill="#FEFECE" filter="url(#f1eimoa15ljucf)" rx="8" ry="8" style="stroke:#A80036;stroke-width:2.0;"/><path d="M31.5,748.7891 L31.5,775.7891 M18.5,756.7891 L44.5,756.7891 M31.5,775.7891 L18.5,790.7891 M31.5,775.7891 L44.5,790.7891 " fill="none" filter="url(#f1eimoa15ljucf)" style="stroke:#A80036;stroke-width:2.0;"/><rect fill="#FEFECE" filter="url(#f1eimoa15ljucf)" height="31.6094" style="stroke:#A80036;stroke-width:1.5;" width="147" x="368" y="53"/><text fill="#000000" font-family="sans-serif" font-size="14" lengthAdjust="spacingAndGlyphs" textLength="133" x="375" y="74.5332">:EnergyConsuptionUI</text><rect fill="#FEFECE" filter="url(#f1eimoa15ljucf)" height="31.6094" style="stroke:#A80036;stroke-width:1.5;" width="147" x="368" y="713.1797"/><text fill="#000000" font-family="sans-serif" font-size="14" lengthAdjust="spacingAndGlyphs" textLength="133" x="375" y="734.7129">:EnergyConsuptionUI</text><rect fill="#FEFECE" filter="url(#f1eimoa15ljucf)" height="31.6094" style="stroke:#A80036;stroke-width:1.5;" width="197" x="534" y="53"/><text fill="#000000" font-family="sans-serif" font-size="14" lengthAdjust="spacingAndGlyphs" textLength="183" x="541" y="74.5332">:EnergyConsuptionController</text><rect fill="#FEFECE" filter="url(#f1eimoa15ljucf)" height="31.6094" style="stroke:#A80036;stroke-width:1.5;" width="197" x="534" y="713.1797"/><text fill="#000000" font-family="sans-serif" font-size="14" lengthAdjust="spacingAndGlyphs" textLength="183" x="541" y="734.7129">:EnergyConsuptionController</text><rect fill="#FEFECE" filter="url(#f1eimoa15ljucf)" height="31.6094" style="stroke:#A80036;stroke-width:1.5;" width="87" x="745" y="53"/><text fill="#000000" font-family="sans-serif" font-size="14" lengthAdjust="spacingAndGlyphs" textLength="73" x="752" y="74.5332">:Application</text><rect fill="#FEFECE" filter="url(#f1eimoa15ljucf)" height="31.6094" style="stroke:#A80036;stroke-width:1.5;" width="87" x="745" y="713.1797"/><text fill="#000000" font-family="sans-serif" font-size="14" lengthAdjust="spacingAndGlyphs" textLength="73" x="752" y="734.7129">:Application</text><rect fill="#FEFECE" filter="url(#f1eimoa15ljucf)" height="31.6094" style="stroke:#A80036;stroke-width:1.5;" width="75" x="846" y="53"/><text fill="#000000" font-family="sans-serif" font-size="14" lengthAdjust="spacingAndGlyphs" textLength="61" x="853" y="74.5332">user:User</text><rect fill="#FEFECE" filter="url(#f1eimoa15ljucf)" height="31.6094" style="stroke:#A80036;stroke-width:1.5;" width="75" x="846" y="713.1797"/><text fill="#000000" font-family="sans-serif" font-size="14" lengthAdjust="spacingAndGlyphs" textLength="61" x="853" y="734.7129">user:User</text><rect fill="#FEFECE" filter="url(#f1eimoa15ljucf)" height="31.6094" style="stroke:#A80036;stroke-width:1.5;" width="67" x="935" y="53"/><text fill="#000000" font-family="sans-serif" font-size="14" lengthAdjust="spacingAndGlyphs" textLength="53" x="942" y="74.5332">:Scooter</text><rect fill="#FEFECE" filter="url(#f1eimoa15ljucf)" height="31.6094" style="stroke:#A80036;stroke-width:1.5;" width="67" x="935" y="713.1797"/><text fill="#000000" font-family="sans-serif" font-size="14" lengthAdjust="spacingAndGlyphs" textLength="53" x="942" y="734.7129">:Scooter</text><rect fill="#FEFECE" filter="url(#f1eimoa15ljucf)" height="31.6094" style="stroke:#A80036;stroke-width:1.5;" width="86" x="1036.5" y="53"/><text fill="#000000" font-family="sans-serif" font-size="14" lengthAdjust="spacingAndGlyphs" textLength="72" x="1043.5" y="74.5332">:ScooterDB</text><rect fill="#FEFECE" filter="url(#f1eimoa15ljucf)" height="31.6094" style="stroke:#A80036;stroke-width:1.5;" width="86" x="1036.5" y="713.1797"/><text fill="#000000" font-family="sans-serif" font-size="14" lengthAdjust="spacingAndGlyphs" textLength="72" x="1043.5" y="734.7129">:ScooterDB</text><rect fill="#FFFFFF" filter="url(#f1eimoa15ljucf)" height="596.5703" style="stroke:#A80036;stroke-width:1.0;" width="10" x="26.5" y="99.6094"/><rect fill="#FFFFFF" filter="url(#f1eimoa15ljucf)" height="513.5156" style="stroke:#A80036;stroke-width:1.0;" width="10" x="438.5" y="121.9609"/><rect fill="#FFFFFF" filter="url(#f1eimoa15ljucf)" height="30.3516" style="stroke:#A80036;stroke-width:1.0;" width="10" x="438.5" y="665.8281"/><rect fill="#FFFFFF" filter="url(#f1eimoa15ljucf)" height="452.8125" style="stroke:#A80036;stroke-width:1.0;" width="10" x="629.5" y="152.3125"/><rect fill="#FFFFFF" filter="url(#f1eimoa15ljucf)" height="30" style="stroke:#A80036;stroke-width:1.0;" width="10" x="785.5" y="182.6641"/><rect fill="#FFFFFF" filter="url(#f1eimoa15ljucf)" height="30" style="stroke:#A80036;stroke-width:1.0;" width="10" x="880.5" y="243.0156"/><rect fill="#FFFFFF" filter="url(#f1eimoa15ljucf)" height="60.3516" style="stroke:#A80036;stroke-width:1.0;" width="10" x="965.5" y="303.3672"/><rect fill="#FFFFFF" filter="url(#f1eimoa15ljucf)" height="30" style="stroke:#A80036;stroke-width:1.0;" width="10" x="965.5" y="394.0703"/><rect fill="#FFFFFF" filter="url(#f1eimoa15ljucf)" height="30" style="stroke:#A80036;stroke-width:1.0;" width="10" x="965.5" y="454.4219"/><rect fill="#FFFFFF" filter="url(#f1eimoa15ljucf)" height="30" style="stroke:#A80036;stroke-width:1.0;" width="10" x="965.5" y="514.7734"/><rect fill="#FFFFFF" filter="url(#f1eimoa15ljucf)" height="30" style="stroke:#A80036;stroke-width:1.0;" width="10" x="965.5" y="575.125"/><rect fill="#FFFFFF" filter="url(#f1eimoa15ljucf)" height="30" style="stroke:#A80036;stroke-width:1.0;" width="10" x="1076.5" y="333.7188"/><polygon fill="#A80036" points="426.5,117.9609,436.5,121.9609,426.5,125.9609,430.5,121.9609" style="stroke:#A80036;stroke-width:1.0;"/><line style="stroke:#A80036;stroke-width:1.0;" x1="36.5" x2="432.5" y1="121.9609" y2="121.9609"/><text fill="#000000" font-family="sans-serif" font-size="13" font-weight="bold" lengthAdjust="spacingAndGlyphs" textLength="7" x="43.5" y="117.1045">1</text><text fill="#000000" font-family="sans-serif" font-size="13" lengthAdjust="spacingAndGlyphs" textLength="372" x="54.5" y="117.1045">Start the process to obtain the consuption of energy for each run</text><polygon fill="#A80036" points="617.5,148.3125,627.5,152.3125,617.5,156.3125,621.5,152.3125" style="stroke:#A80036;stroke-width:1.0;"/><line style="stroke:#A80036;stroke-width:1.0;" x1="448.5" x2="623.5" y1="152.3125" y2="152.3125"/><text fill="#000000" font-family="sans-serif" font-size="13" font-weight="bold" lengthAdjust="spacingAndGlyphs" textLength="7" x="455.5" y="147.4561">2</text><text fill="#000000" font-family="sans-serif" font-size="13" lengthAdjust="spacingAndGlyphs" textLength="151" x="466.5" y="147.4561">CheckEnergyConsuption()</text><polygon fill="#A80036" points="773.5,178.6641,783.5,182.6641,773.5,186.6641,777.5,182.6641" style="stroke:#A80036;stroke-width:1.0;"/><line style="stroke:#A80036;stroke-width:1.0;" x1="639.5" x2="779.5" y1="182.6641" y2="182.6641"/><text fill="#000000" font-family="sans-serif" font-size="13" font-weight="bold" lengthAdjust="spacingAndGlyphs" textLength="7" x="646.5" y="177.8076">3</text><text fill="#000000" font-family="sans-serif" font-size="13" lengthAdjust="spacingAndGlyphs" textLength="94" x="657.5" y="177.8076">user = getUser()</text><polygon fill="#A80036" points="868.5,239.0156,878.5,243.0156,868.5,247.0156,872.5,243.0156" style="stroke:#A80036;stroke-width:1.0;"/><line style="stroke:#A80036;stroke-width:1.0;" x1="639.5" x2="874.5" y1="243.0156" y2="243.0156"/><text fill="#000000" font-family="sans-serif" font-size="13" font-weight="bold" lengthAdjust="spacingAndGlyphs" textLength="7" x="646.5" y="238.1592">4</text><text fill="#000000" font-family="sans-serif" font-size="13" lengthAdjust="spacingAndGlyphs" textLength="147" x="657.5" y="238.1592">courier = getCourier(user)</text><polygon fill="#A80036" points="953.5,299.3672,963.5,303.3672,953.5,307.3672,957.5,303.3672" style="stroke:#A80036;stroke-width:1.0;"/><line style="stroke:#A80036;stroke-width:1.0;" x1="639.5" x2="959.5" y1="303.3672" y2="303.3672"/><text fill="#000000" font-family="sans-serif" font-size="13" font-weight="bold" lengthAdjust="spacingAndGlyphs" textLength="7" x="646.5" y="298.5107">5</text><text fill="#000000" font-family="sans-serif" font-size="13" lengthAdjust="spacingAndGlyphs" textLength="36" x="657.5" y="298.5107">getId()</text><polygon fill="#A80036" points="1064.5,329.7188,1074.5,333.7188,1064.5,337.7188,1068.5,333.7188" style="stroke:#A80036;stroke-width:1.0;"/><line style="stroke:#A80036;stroke-width:1.0;" x1="975.5" x2="1070.5" y1="333.7188" y2="333.7188"/><text fill="#000000" font-family="sans-serif" font-size="13" font-weight="bold" lengthAdjust="spacingAndGlyphs" textLength="7" x="982.5" y="328.8623">6</text><text fill="#000000" font-family="sans-serif" font-size="13" lengthAdjust="spacingAndGlyphs" textLength="71" x="993.5" y="328.8623">getScooter()</text><polygon fill="#A80036" points="953.5,390.0703,963.5,394.0703,953.5,398.0703,957.5,394.0703" style="stroke:#A80036;stroke-width:1.0;"/><line style="stroke:#A80036;stroke-width:1.0;" x1="639.5" x2="959.5" y1="394.0703" y2="394.0703"/><text fill="#000000" font-family="sans-serif" font-size="13" font-weight="bold" lengthAdjust="spacingAndGlyphs" textLength="7" x="646.5" y="389.2139">7</text><text fill="#000000" font-family="sans-serif" font-size="13" lengthAdjust="spacingAndGlyphs" textLength="92" x="657.5" y="389.2139">getbatterySize()</text><polygon fill="#A80036" points="953.5,450.4219,963.5,454.4219,953.5,458.4219,957.5,454.4219" style="stroke:#A80036;stroke-width:1.0;"/><line style="stroke:#A80036;stroke-width:1.0;" x1="639.5" x2="959.5" y1="454.4219" y2="454.4219"/><text fill="#000000" font-family="sans-serif" font-size="13" font-weight="bold" lengthAdjust="spacingAndGlyphs" textLength="7" x="646.5" y="449.5654">8</text><text fill="#000000" font-family="sans-serif" font-size="13" lengthAdjust="spacingAndGlyphs" textLength="142" x="657.5" y="449.5654">getbatteryConsumption()</text><polygon fill="#A80036" points="953.5,510.7734,963.5,514.7734,953.5,518.7734,957.5,514.7734" style="stroke:#A80036;stroke-width:1.0;"/><line style="stroke:#A80036;stroke-width:1.0;" x1="639.5" x2="959.5" y1="514.7734" y2="514.7734"/><text fill="#000000" font-family="sans-serif" font-size="13" font-weight="bold" lengthAdjust="spacingAndGlyphs" textLength="7" x="646.5" y="509.917">9</text><text fill="#000000" font-family="sans-serif" font-size="13" lengthAdjust="spacingAndGlyphs" textLength="108" x="657.5" y="509.917">getcurrentBattery()</text><polygon fill="#A80036" points="953.5,571.125,963.5,575.125,953.5,579.125,957.5,575.125" style="stroke:#A80036;stroke-width:1.0;"/><line style="stroke:#A80036;stroke-width:1.0;" x1="639.5" x2="959.5" y1="575.125" y2="575.125"/><text fill="#000000" font-family="sans-serif" font-size="13" font-weight="bold" lengthAdjust="spacingAndGlyphs" textLength="14" x="646.5" y="570.2686">10</text><text fill="#000000" font-family="sans-serif" font-size="13" lengthAdjust="spacingAndGlyphs" textLength="132" x="664.5" y="570.2686">getEnergyConsuption()</text><polygon fill="#A80036" points="47.5,631.4766,37.5,635.4766,47.5,639.4766,43.5,635.4766" style="stroke:#A80036;stroke-width:1.0;"/><line style="stroke:#A80036;stroke-width:1.0;stroke-dasharray:2.0,2.0;" x1="41.5" x2="442.5" y1="635.4766" y2="635.4766"/><text fill="#000000" font-family="sans-serif" font-size="13" font-weight="bold" lengthAdjust="spacingAndGlyphs" textLength="14" x="53.5" y="630.6201">11</text><text fill="#000000" font-family="sans-serif" font-size="13" lengthAdjust="spacingAndGlyphs" textLength="271" x="71.5" y="630.6201">calculates and returns the energy consumption</text><polygon fill="#A80036" points="426.5,661.8281,436.5,665.8281,426.5,669.8281,430.5,665.8281" style="stroke:#A80036;stroke-width:1.0;"/><line style="stroke:#A80036;stroke-width:1.0;" x1="36.5" x2="432.5" y1="665.8281" y2="665.8281"/><text fill="#000000" font-family="sans-serif" font-size="13" font-weight="bold" lengthAdjust="spacingAndGlyphs" textLength="14" x="43.5" y="660.9717">12</text><text fill="#000000" font-family="sans-serif" font-size="13" lengthAdjust="spacingAndGlyphs" textLength="51" x="61.5" y="660.9717">Confirms</text><polygon fill="#A80036" points="42.5,692.1797,32.5,696.1797,42.5,700.1797,38.5,696.1797" style="stroke:#A80036;stroke-width:1.0;"/><line style="stroke:#A80036;stroke-width:1.0;stroke-dasharray:2.0,2.0;" x1="36.5" x2="442.5" y1="696.1797" y2="696.1797"/><text fill="#000000" font-family="sans-serif" font-size="13" font-weight="bold" lengthAdjust="spacingAndGlyphs" textLength="14" x="48.5" y="691.3232">13</text><text fill="#000000" font-family="sans-serif" font-size="13" lengthAdjust="spacingAndGlyphs" textLength="188" x="66.5" y="691.3232">Returns the energy consumption</text><!--MD5=[9b8639798302d62d9b6aa79e151e30ba]
@startuml
autonumber

actor "Courier" as Admin
participant ":EnergyConsuptionUI" as UI
participant ":EnergyConsuptionController" as CTRL
participant ":Application" as SYST
participant "user:User" as USER

participant ":Scooter" as SCOOT
participant ":ScooterDB" as SCOOTDB


activate Admin
Admin -> UI : Start the process to obtain the consuption of energy for each run
activate UI
UI -> CTRL:CheckEnergyConsuption()
activate CTRL
CTRL -> SYST :user = getUser()
activate SYST
deactivate SYST
CTRL -> USER :courier = getCourier(user)
activate USER
deactivate USER
CTRL->SCOOT:getId()
activate SCOOT
SCOOT ->SCOOTDB:getScooter()
activate SCOOTDB
deactivate SCOOTDB
deactivate SCOOT

CTRL->SCOOT:getbatterySize()
activate SCOOT
deactivate SCOOT
CTRL->SCOOT:getbatteryConsumption()
activate SCOOT
deactivate SCOOT
CTRL->SCOOT:getcurrentBattery()
activate SCOOT
deactivate SCOOT
CTRL->SCOOT:getEnergyConsuption()
activate SCOOT
deactivate SCOOT


deactivate CTRL

UI - -> Admin : calculates and returns the energy consumption
deactivate UI

Admin -> UI : Confirms
activate UI


UI - -> Admin : Returns the energy consumption
deactivate UI




deactivate CTRL
deactivate UI

deactivate Admin
@enduml

PlantUML version 1.2020.23(Sun Dec 13 19:14:58 GMT 2020)
(GPL source distribution)
Java Runtime: OpenJDK Runtime Environment
JVM: OpenJDK 64-Bit Server VM
Default Encoding: Cp1252
Language: pt
Country: PT
--></g></svg>