<?xml version="1.0" encoding="UTF-8" standalone="no"?><svg xmlns="http://www.w3.org/2000/svg" xmlns:xlink="http://www.w3.org/1999/xlink" contentScriptType="application/ecmascript" contentStyleType="text/css" height="269px" preserveAspectRatio="none" style="width:816px;height:269px;" version="1.1" viewBox="0 0 816 269" width="816px" zoomAndPan="magnify"><defs><filter height="300%" id="f17y81hxy2kncv" width="300%" x="-1" y="-1"><feGaussianBlur result="blurOut" stdDeviation="2.0"/><feColorMatrix in="blurOut" result="blurOut2" type="matrix" values="0 0 0 0 0 0 0 0 0 0 0 0 0 0 0 0 0 0 .4 0"/><feOffset dx="4.0" dy="4.0" in="blurOut2" result="blurOut3"/><feBlend in="SourceGraphic" in2="blurOut3" mode="normal"/></filter></defs><g><!--MD5=[0b4e4b4980470ea387cc45de9bd14b5b]
class Application--><rect codeLine="5" fill="#FEFECE" filter="url(#f17y81hxy2kncv)" height="40" id="Application" style="stroke:#A80036;stroke-width:1.5;" width="92" x="7" y="107.5"/><ellipse cx="22" cy="123.5" fill="#ADD1B2" rx="11" ry="11" style="stroke:#A80036;stroke-width:1.0;"/><path d="M24,120 Q24.2031,119.5 24.4375,119.25 Q24.6719,119 24.9375,119 Q25.4063,119 25.7031,119.2813 Q26,119.5625 26,120.2188 L26,121.7813 Q26,122.4375 25.7188,122.7188 Q25.4375,123 25,123 Q24.6094,123 24.3594,122.8281 Q24.1094,122.6563 24,122.2031 Q23.9531,121.8906 23.7813,121.7188 Q23.4688,121.3906 22.9063,121.2031 Q22.3438,121 21.7813,121 Q21.0781,121 20.4844,121.2813 Q19.9063,121.5625 19.4531,122.1875 Q19,122.8125 19,123.6719 L19,124.5938 Q19,125.625 19.8438,126.3125 Q20.6875,127 22.1875,127 Q23.0781,127 23.7031,126.7969 Q24.0625,126.6875 24.4688,126.3281 Q24.7344,126.125 24.875,126.0625 Q25.0156,126 25.1875,126 Q25.5156,126 25.75,126.2656 Q26,126.5156 26,126.875 Q26,127.2188 25.6563,127.625 Q25.1563,128.2188 24.3594,128.5469 Q23.3125,129 22.0313,129 Q20.5313,129 19.3281,128.4063 Q18.3594,127.9375 17.6719,126.9219 Q17,125.9063 17,124.7031 L17,123.6094 Q17,122.3594 17.5938,121.2656 Q18.2031,120.1719 19.25,119.5938 Q20.3125,119 21.5,119 Q22.2188,119 22.8438,119.25 Q23.4688,119.5 24,120 Z " fill="#000000"/><text fill="#000000" font-family="sans-serif" font-size="12" lengthAdjust="spacingAndGlyphs" textLength="60" x="36" y="128.4102">Application</text><line style="stroke:#A80036;stroke-width:1.5;" x1="8" x2="98" y1="139.5" y2="139.5"/><!--MD5=[3fd616f346a44cd59a91eb10b19e157c]
class User--><rect codeLine="8" fill="#FEFECE" filter="url(#f17y81hxy2kncv)" height="95.3438" id="User" style="stroke:#A80036;stroke-width:1.5;" width="123" x="661.5" y="151"/><ellipse cx="705.3" cy="167" fill="#ADD1B2" rx="11" ry="11" style="stroke:#A80036;stroke-width:1.0;"/><path d="M707.3,163.5 Q707.5031,163 707.7375,162.75 Q707.9719,162.5 708.2375,162.5 Q708.7063,162.5 709.0031,162.7813 Q709.3,163.0625 709.3,163.7188 L709.3,165.2813 Q709.3,165.9375 709.0188,166.2188 Q708.7375,166.5 708.3,166.5 Q707.9094,166.5 707.6594,166.3281 Q707.4094,166.1563 707.3,165.7031 Q707.2531,165.3906 707.0813,165.2188 Q706.7688,164.8906 706.2063,164.7031 Q705.6438,164.5 705.0813,164.5 Q704.3781,164.5 703.7844,164.7813 Q703.2063,165.0625 702.7531,165.6875 Q702.3,166.3125 702.3,167.1719 L702.3,168.0938 Q702.3,169.125 703.1438,169.8125 Q703.9875,170.5 705.4875,170.5 Q706.3781,170.5 707.0031,170.2969 Q707.3625,170.1875 707.7688,169.8281 Q708.0344,169.625 708.175,169.5625 Q708.3156,169.5 708.4875,169.5 Q708.8156,169.5 709.05,169.7656 Q709.3,170.0156 709.3,170.375 Q709.3,170.7188 708.9563,171.125 Q708.4563,171.7188 707.6594,172.0469 Q706.6125,172.5 705.3313,172.5 Q703.8313,172.5 702.6281,171.9063 Q701.6594,171.4375 700.9719,170.4219 Q700.3,169.4063 700.3,168.2031 L700.3,167.1094 Q700.3,165.8594 700.8938,164.7656 Q701.5031,163.6719 702.55,163.0938 Q703.6125,162.5 704.8,162.5 Q705.5188,162.5 706.1438,162.75 Q706.7688,163 707.3,163.5 Z " fill="#000000"/><text fill="#000000" font-family="sans-serif" font-size="12" lengthAdjust="spacingAndGlyphs" textLength="27" x="725.7" y="171.9102">User</text><line style="stroke:#A80036;stroke-width:1.5;" x1="662.5" x2="783.5" y1="183" y2="183"/><rect fill="none" height="6" style="stroke:#C82930;stroke-width:1.0;" width="6" x="669.5" y="191"/><text fill="#000000" font-family="sans-serif" font-size="11" lengthAdjust="spacingAndGlyphs" textLength="44" x="681.5" y="198.4189">Integer id</text><rect fill="none" height="6" style="stroke:#C82930;stroke-width:1.0;" width="6" x="669.5" y="204.8359"/><text fill="#000000" font-family="sans-serif" font-size="11" lengthAdjust="spacingAndGlyphs" textLength="57" x="681.5" y="212.2549">String name</text><rect fill="none" height="6" style="stroke:#C82930;stroke-width:1.0;" width="6" x="669.5" y="218.6719"/><text fill="#000000" font-family="sans-serif" font-size="11" lengthAdjust="spacingAndGlyphs" textLength="97" x="681.5" y="226.0908">String emailAddress</text><rect fill="none" height="6" style="stroke:#C82930;stroke-width:1.0;" width="6" x="669.5" y="232.5078"/><text fill="#000000" font-family="sans-serif" font-size="11" lengthAdjust="spacingAndGlyphs" textLength="81" x="681.5" y="239.9268">String password</text><!--MD5=[f4402668d5d5bb8485350c0fdb60ac8e]
class Scooter--><rect codeLine="14" fill="#FEFECE" filter="url(#f17y81hxy2kncv)" height="109.1797" id="Scooter" style="stroke:#A80036;stroke-width:1.5;" width="158" x="644" y="7"/><ellipse cx="697.75" cy="23" fill="#ADD1B2" rx="11" ry="11" style="stroke:#A80036;stroke-width:1.0;"/><path d="M699.75,19.5 Q699.9531,19 700.1875,18.75 Q700.4219,18.5 700.6875,18.5 Q701.1563,18.5 701.4531,18.7813 Q701.75,19.0625 701.75,19.7188 L701.75,21.2813 Q701.75,21.9375 701.4688,22.2188 Q701.1875,22.5 700.75,22.5 Q700.3594,22.5 700.1094,22.3281 Q699.8594,22.1563 699.75,21.7031 Q699.7031,21.3906 699.5313,21.2188 Q699.2188,20.8906 698.6563,20.7031 Q698.0938,20.5 697.5313,20.5 Q696.8281,20.5 696.2344,20.7813 Q695.6563,21.0625 695.2031,21.6875 Q694.75,22.3125 694.75,23.1719 L694.75,24.0938 Q694.75,25.125 695.5938,25.8125 Q696.4375,26.5 697.9375,26.5 Q698.8281,26.5 699.4531,26.2969 Q699.8125,26.1875 700.2188,25.8281 Q700.4844,25.625 700.625,25.5625 Q700.7656,25.5 700.9375,25.5 Q701.2656,25.5 701.5,25.7656 Q701.75,26.0156 701.75,26.375 Q701.75,26.7188 701.4063,27.125 Q700.9063,27.7188 700.1094,28.0469 Q699.0625,28.5 697.7813,28.5 Q696.2813,28.5 695.0781,27.9063 Q694.1094,27.4375 693.4219,26.4219 Q692.75,25.4063 692.75,24.2031 L692.75,23.1094 Q692.75,21.8594 693.3438,20.7656 Q693.9531,19.6719 695,19.0938 Q696.0625,18.5 697.25,18.5 Q697.9688,18.5 698.5938,18.75 Q699.2188,19 699.75,19.5 Z " fill="#000000"/><text fill="#000000" font-family="sans-serif" font-size="12" lengthAdjust="spacingAndGlyphs" textLength="42" x="718.25" y="27.9102">Scooter</text><line style="stroke:#A80036;stroke-width:1.5;" x1="645" x2="801" y1="39" y2="39"/><rect fill="none" height="6" style="stroke:#C82930;stroke-width:1.0;" width="6" x="652" y="47"/><text fill="#000000" font-family="sans-serif" font-size="11" lengthAdjust="spacingAndGlyphs" textLength="44" x="664" y="54.4189">Integer id</text><rect fill="none" height="6" style="stroke:#C82930;stroke-width:1.0;" width="6" x="652" y="60.8359"/><text fill="#000000" font-family="sans-serif" font-size="11" lengthAdjust="spacingAndGlyphs" textLength="91" x="664" y="68.2549">Double batterySize</text><rect fill="none" height="6" style="stroke:#C82930;stroke-width:1.0;" width="6" x="652" y="74.6719"/><text fill="#000000" font-family="sans-serif" font-size="11" lengthAdjust="spacingAndGlyphs" textLength="106" x="664" y="82.0908">Double currentBattery</text><rect fill="none" height="6" style="stroke:#C82930;stroke-width:1.0;" width="6" x="652" y="88.5078"/><text fill="#000000" font-family="sans-serif" font-size="11" lengthAdjust="spacingAndGlyphs" textLength="132" x="664" y="95.9268">Double batteryConsumption</text><rect fill="none" height="6" style="stroke:#C82930;stroke-width:1.0;" width="6" x="652" y="102.3438"/><text fill="#000000" font-family="sans-serif" font-size="11" lengthAdjust="spacingAndGlyphs" textLength="71" x="664" y="109.7627">String QRCode</text><!--MD5=[c6a2171c11447acbe08a3dfeee0e1710]
class Courier--><rect codeLine="22" fill="#FEFECE" filter="url(#f17y81hxy2kncv)" height="123.0156" id="Courier" style="stroke:#A80036;stroke-width:1.5;" width="123" x="403" y="132"/><ellipse cx="440.5" cy="148" fill="#ADD1B2" rx="11" ry="11" style="stroke:#A80036;stroke-width:1.0;"/><path d="M442.5,144.5 Q442.7031,144 442.9375,143.75 Q443.1719,143.5 443.4375,143.5 Q443.9063,143.5 444.2031,143.7813 Q444.5,144.0625 444.5,144.7188 L444.5,146.2813 Q444.5,146.9375 444.2188,147.2188 Q443.9375,147.5 443.5,147.5 Q443.1094,147.5 442.8594,147.3281 Q442.6094,147.1563 442.5,146.7031 Q442.4531,146.3906 442.2813,146.2188 Q441.9688,145.8906 441.4063,145.7031 Q440.8438,145.5 440.2813,145.5 Q439.5781,145.5 438.9844,145.7813 Q438.4063,146.0625 437.9531,146.6875 Q437.5,147.3125 437.5,148.1719 L437.5,149.0938 Q437.5,150.125 438.3438,150.8125 Q439.1875,151.5 440.6875,151.5 Q441.5781,151.5 442.2031,151.2969 Q442.5625,151.1875 442.9688,150.8281 Q443.2344,150.625 443.375,150.5625 Q443.5156,150.5 443.6875,150.5 Q444.0156,150.5 444.25,150.7656 Q444.5,151.0156 444.5,151.375 Q444.5,151.7188 444.1563,152.125 Q443.6563,152.7188 442.8594,153.0469 Q441.8125,153.5 440.5313,153.5 Q439.0313,153.5 437.8281,152.9063 Q436.8594,152.4375 436.1719,151.4219 Q435.5,150.4063 435.5,149.2031 L435.5,148.1094 Q435.5,146.8594 436.0938,145.7656 Q436.7031,144.6719 437.75,144.0938 Q438.8125,143.5 440,143.5 Q440.7188,143.5 441.3438,143.75 Q441.9688,144 442.5,144.5 Z " fill="#000000"/><text fill="#000000" font-family="sans-serif" font-size="12" lengthAdjust="spacingAndGlyphs" textLength="41" x="459.5" y="152.9102">Courier</text><line style="stroke:#A80036;stroke-width:1.5;" x1="404" x2="525" y1="164" y2="164"/><rect fill="none" height="6" style="stroke:#C82930;stroke-width:1.0;" width="6" x="411" y="172"/><text fill="#000000" font-family="sans-serif" font-size="11" lengthAdjust="spacingAndGlyphs" textLength="44" x="423" y="179.4189">Integer id</text><rect fill="none" height="6" style="stroke:#C82930;stroke-width:1.0;" width="6" x="411" y="185.8359"/><text fill="#000000" font-family="sans-serif" font-size="11" lengthAdjust="spacingAndGlyphs" textLength="57" x="423" y="193.2549">String name</text><rect fill="none" height="6" style="stroke:#C82930;stroke-width:1.0;" width="6" x="411" y="199.6719"/><text fill="#000000" font-family="sans-serif" font-size="11" lengthAdjust="spacingAndGlyphs" textLength="97" x="423" y="207.0908">String emailAddress</text><rect fill="none" height="6" style="stroke:#C82930;stroke-width:1.0;" width="6" x="411" y="213.5078"/><text fill="#000000" font-family="sans-serif" font-size="11" lengthAdjust="spacingAndGlyphs" textLength="81" x="423" y="220.9268">String password</text><rect fill="none" height="6" style="stroke:#C82930;stroke-width:1.0;" width="6" x="411" y="227.3438"/><text fill="#000000" font-family="sans-serif" font-size="11" lengthAdjust="spacingAndGlyphs" textLength="51" x="423" y="234.7627">String iban</text><rect fill="none" height="6" style="stroke:#C82930;stroke-width:1.0;" width="6" x="411" y="241.1797"/><text fill="#000000" font-family="sans-serif" font-size="11" lengthAdjust="spacingAndGlyphs" textLength="48" x="423" y="248.5986">Integer nif</text><!--MD5=[7f2a9fafcebe4f099f71398fd3e2ed00]
class Pharmacy--><rect codeLine="31" fill="#FEFECE" filter="url(#f17y81hxy2kncv)" height="81.5078" id="Pharmacy" style="stroke:#A80036;stroke-width:1.5;" width="112" x="195" y="86.5"/><ellipse cx="221.25" cy="102.5" fill="#ADD1B2" rx="11" ry="11" style="stroke:#A80036;stroke-width:1.0;"/><path d="M223.25,99 Q223.4531,98.5 223.6875,98.25 Q223.9219,98 224.1875,98 Q224.6563,98 224.9531,98.2813 Q225.25,98.5625 225.25,99.2188 L225.25,100.7813 Q225.25,101.4375 224.9688,101.7188 Q224.6875,102 224.25,102 Q223.8594,102 223.6094,101.8281 Q223.3594,101.6563 223.25,101.2031 Q223.2031,100.8906 223.0313,100.7188 Q222.7188,100.3906 222.1563,100.2031 Q221.5938,100 221.0313,100 Q220.3281,100 219.7344,100.2813 Q219.1563,100.5625 218.7031,101.1875 Q218.25,101.8125 218.25,102.6719 L218.25,103.5938 Q218.25,104.625 219.0938,105.3125 Q219.9375,106 221.4375,106 Q222.3281,106 222.9531,105.7969 Q223.3125,105.6875 223.7188,105.3281 Q223.9844,105.125 224.125,105.0625 Q224.2656,105 224.4375,105 Q224.7656,105 225,105.2656 Q225.25,105.5156 225.25,105.875 Q225.25,106.2188 224.9063,106.625 Q224.4063,107.2188 223.6094,107.5469 Q222.5625,108 221.2813,108 Q219.7813,108 218.5781,107.4063 Q217.6094,106.9375 216.9219,105.9219 Q216.25,104.9063 216.25,103.7031 L216.25,102.6094 Q216.25,101.3594 216.8438,100.2656 Q217.4531,99.1719 218.5,98.5938 Q219.5625,98 220.75,98 Q221.4688,98 222.0938,98.25 Q222.7188,98.5 223.25,99 Z " fill="#000000"/><text fill="#000000" font-family="sans-serif" font-size="12" lengthAdjust="spacingAndGlyphs" textLength="55" x="237.75" y="107.4102">Pharmacy</text><line style="stroke:#A80036;stroke-width:1.5;" x1="196" x2="306" y1="118.5" y2="118.5"/><rect fill="none" height="6" style="stroke:#C82930;stroke-width:1.0;" width="6" x="203" y="126.5"/><text fill="#000000" font-family="sans-serif" font-size="11" lengthAdjust="spacingAndGlyphs" textLength="44" x="215" y="133.9189">Integer id</text><rect fill="none" height="6" style="stroke:#C82930;stroke-width:1.0;" width="6" x="203" y="140.3359"/><text fill="#000000" font-family="sans-serif" font-size="11" lengthAdjust="spacingAndGlyphs" textLength="86" x="215" y="147.7549">String designation</text><rect fill="none" height="6" style="stroke:#C82930;stroke-width:1.0;" width="6" x="203" y="154.1719"/><text fill="#000000" font-family="sans-serif" font-size="11" lengthAdjust="spacingAndGlyphs" textLength="43" x="215" y="161.5908">String nif</text><!--MD5=[8c7e2cb836a61414bf9f02282664f603]
link Application to Pharmacy--><path codeLine="38" d="M99.46,127.5 C127.84,127.5 164.58,127.5 194.65,127.5 " fill="none" id="Application-Pharmacy" style="stroke:#A80036;stroke-width:1.0;"/><polygon fill="#000000" points="139,118.6758,129.9549,115.7369,129.9549,121.6147,139,118.6758" style="stroke:#000000;stroke-width:1.0;"/><text fill="#000000" font-family="sans-serif" font-size="13" lengthAdjust="spacingAndGlyphs" textLength="21" x="143" y="123.9951">has</text><text fill="#000000" font-family="sans-serif" font-size="13" lengthAdjust="spacingAndGlyphs" textLength="7" x="107.1101" y="142.247">1</text><text fill="#000000" font-family="sans-serif" font-size="13" lengthAdjust="spacingAndGlyphs" textLength="7" x="179.9817" y="142.0742">1</text><!--MD5=[0643aaab1f96e564b90d0ad5c3af18e6]
link Pharmacy to Courier--><path codeLine="39" d="M307.02,144.67 C336.39,153.84 372.61,165.14 402.8,174.56 " fill="none" id="Pharmacy-Courier" style="stroke:#A80036;stroke-width:1.0;"/><polygon fill="#000000" points="346.773,147.1653,339.0141,141.6653,337.2631,147.2762,346.773,147.1653" style="stroke:#000000;stroke-width:1.0;"/><text fill="#000000" font-family="sans-serif" font-size="13" lengthAdjust="spacingAndGlyphs" textLength="21" x="351" y="150.9951">has</text><text fill="#000000" font-family="sans-serif" font-size="13" lengthAdjust="spacingAndGlyphs" textLength="7" x="315.018" y="161.604">1</text><text fill="#000000" font-family="sans-serif" font-size="13" lengthAdjust="spacingAndGlyphs" textLength="20" x="374.9578" y="186.8769">0..*</text><!--MD5=[cf4f95b832970cfa6e3a3c87e0aa2b32]
link Pharmacy to Scooter--><path codeLine="40" d="M307.3,119.73 C390.65,108.03 548.82,85.82 643.9,72.47 " fill="none" id="Pharmacy-Scooter" style="stroke:#A80036;stroke-width:1.0;"/><polygon fill="#000000" points="456.4514,80.9806,447.0856,79.3278,447.9028,85.1486,456.4514,80.9806" style="stroke:#000000;stroke-width:1.0;"/><text fill="#000000" font-family="sans-serif" font-size="13" lengthAdjust="spacingAndGlyphs" textLength="21" x="460.5" y="86.9951">has</text><text fill="#000000" font-family="sans-serif" font-size="13" lengthAdjust="spacingAndGlyphs" textLength="7" x="314.9619" y="133.3086">1</text><text fill="#000000" font-family="sans-serif" font-size="13" lengthAdjust="spacingAndGlyphs" textLength="20" x="615.9645" y="87.6623">0..*</text><!--MD5=[771c3993b003aea4e1f6128d90cd4122]
link Courier to User--><path codeLine="41" d="M526.29,194.68 C567.03,195.48 620.46,196.52 661.21,197.31 " fill="none" id="Courier-User" style="stroke:#A80036;stroke-width:1.0;"/><polygon fill="#000000" points="565.9991,185.7732,557.013,182.6586,556.8984,188.5353,565.9991,185.7732" style="stroke:#000000;stroke-width:1.0;"/><text fill="#000000" font-family="sans-serif" font-size="13" lengthAdjust="spacingAndGlyphs" textLength="43" x="570" y="190.9951">acts as</text><text fill="#000000" font-family="sans-serif" font-size="13" lengthAdjust="spacingAndGlyphs" textLength="7" x="533.8392" y="209.256">1</text><text fill="#000000" font-family="sans-serif" font-size="13" lengthAdjust="spacingAndGlyphs" textLength="7" x="646.6608" y="211.593">1</text><!--MD5=[a6555772697f24f0ba1eb2fefc99ef48]
link Courier to Scooter--><path codeLine="42" d="M526.29,162.22 C561.4,144.15 605.94,121.23 643.66,101.82 " fill="none" id="Courier-Scooter" style="stroke:#A80036;stroke-width:1.0;"/><polygon fill="#000000" points="572.9458,109.3879,563.5584,110.9135,566.248,116.1399,572.9458,109.3879" style="stroke:#000000;stroke-width:1.0;"/><text fill="#000000" font-family="sans-serif" font-size="13" lengthAdjust="spacingAndGlyphs" textLength="28" x="577.5" y="116.9951">uses</text><text fill="#000000" font-family="sans-serif" font-size="13" lengthAdjust="spacingAndGlyphs" textLength="7" x="533.8392" y="173.0428">1</text><text fill="#000000" font-family="sans-serif" font-size="13" lengthAdjust="spacingAndGlyphs" textLength="7" x="629.0232" y="119.7775">1</text><!--MD5=[cad54eb75ae8b6ca2fee67c81f5b62c6]
@startuml
hide methods
left to right direction


class Application {

}
class User {
    -Integer id
    -String name
    -String emailAddress
    -String password
}
class Scooter {
    -Integer id
    -Double batterySize
    -Double currentBattery
    -Double batteryConsumption
    -String QRCode
}

class Courier {
    -Integer id
    -String name
    -String emailAddress
    -String password
    -String iban
    -Integer nif
}

class Pharmacy {
    -Integer id
    -String designation
    -String nif
}


Application "1" - - "1" Pharmacy: has >
Pharmacy "1" - - "0..*" Courier: has >
Pharmacy "1" - - "0..*" Scooter: has >
Courier "1" - - "1" User: acts as >
Courier "1" - - "1" Scooter: uses >
@enduml

PlantUML version 1.2020.23(Sun Dec 13 19:14:58 GMT 2020)
(GPL source distribution)
Java Runtime: OpenJDK Runtime Environment
JVM: OpenJDK 64-Bit Server VM
Default Encoding: Cp1252
Language: pt
Country: PT
--></g></svg>