<?xml version="1.0" encoding="UTF-8" standalone="no"?><svg xmlns="http://www.w3.org/2000/svg" xmlns:xlink="http://www.w3.org/1999/xlink" contentScriptType="application/ecmascript" contentStyleType="text/css" height="202px" preserveAspectRatio="none" style="width:469px;height:202px;" version="1.1" viewBox="0 0 469 202" width="469px" zoomAndPan="magnify">
    <defs>
        <filter height="300%" id="fz5ri2limh7" width="300%" x="-1" y="-1">
            <feGaussianBlur result="blurOut" stdDeviation="2.0" />
            <feColorMatrix in="blurOut" result="blurOut2" type="matrix" values="0 0 0 0 0 0 0 0 0 0 0 0 0 0 0 0 0 0 .4 0" />
            <feOffset dx="4.0" dy="4.0" in="blurOut2" result="blurOut3" />
            <feBlend in="SourceGraphic" in2="blurOut3" mode="normal" />
        </filter>
    </defs>
    <g>
        <!--MD5=[db6d18d8099558415abc41d00477ab92]
class Admin-->
        <rect codeLine="4" fill="#FEFECE" filter="url(#fz5ri2limh7)" height="40" id="Admin" style="stroke:#A80036;stroke-width:1.5;" width="67" x="10" y="7" />
        <ellipse cx="25" cy="23" fill="#ADD1B2" rx="11" ry="11" style="stroke:#A80036;stroke-width:1.0;" />
        <path d="M27.7656,18.875 Q27.9219,18.6563 28.1094,18.5469 Q28.2969,18.4375 28.5156,18.4375 Q28.8906,18.4375 29.125,18.6953 Q29.3594,18.9531 29.3594,19.5625 L29.3594,21.0156 Q29.3594,21.625 29.125,21.8906 Q28.8906,22.1563 28.5156,22.1563 Q28.1719,22.1563 27.9688,21.9531 Q27.7656,21.7656 27.6563,21.25 Q27.6094,20.8906 27.4219,20.7031 Q27.0938,20.3281 26.4844,20.1094 Q25.875,19.8906 25.25,19.8906 Q24.4844,19.8906 23.8516,20.2188 Q23.2188,20.5469 22.7266,21.2969 Q22.2344,22.0469 22.2344,23.0781 L22.2344,24.1719 Q22.2344,25.4063 23.125,26.2266 Q24.0156,27.0469 25.6094,27.0469 Q26.5469,27.0469 27.2031,26.7969 Q27.5938,26.6406 28.0156,26.2031 Q28.2813,25.9375 28.4297,25.8594 Q28.5781,25.7813 28.7813,25.7813 Q29.1094,25.7813 29.3672,26.0391 Q29.625,26.2969 29.625,26.6406 Q29.625,26.9844 29.2813,27.3906 Q28.7813,27.9688 27.9844,28.2969 Q26.9063,28.75 25.6094,28.75 Q24.0938,28.75 22.8906,28.125 Q21.9063,27.625 21.2188,26.5547 Q20.5313,25.4844 20.5313,24.2031 L20.5313,23.0469 Q20.5313,21.7188 21.1484,20.5703 Q21.7656,19.4219 22.8594,18.8047 Q23.9531,18.1875 25.1875,18.1875 Q25.9219,18.1875 26.5703,18.3516 Q27.2188,18.5156 27.7656,18.875 Z " fill="#000000" /><text fill="#000000" font-family="sans-serif" font-size="12" lengthAdjust="spacingAndGlyphs" textLength="35" x="39" y="27.9102">Admin</text>
        <line style="stroke:#A80036;stroke-width:1.5;" x1="11" x2="76" y1="39" y2="39" />
        <!--MD5=[f4402668d5d5bb8485350c0fdb60ac8e]
class Scooter-->
        <rect codeLine="8" fill="#FEFECE" filter="url(#fz5ri2limh7)" height="40" id="Scooter" style="stroke:#A80036;stroke-width:1.5;" width="74" x="381" y="66" />
        <ellipse cx="396" cy="82" fill="#ADD1B2" rx="11" ry="11" style="stroke:#A80036;stroke-width:1.0;" />
        <path d="M398.7656,77.875 Q398.9219,77.6563 399.1094,77.5469 Q399.2969,77.4375 399.5156,77.4375 Q399.8906,77.4375 400.125,77.6953 Q400.3594,77.9531 400.3594,78.5625 L400.3594,80.0156 Q400.3594,80.625 400.125,80.8906 Q399.8906,81.1563 399.5156,81.1563 Q399.1719,81.1563 398.9688,80.9531 Q398.7656,80.7656 398.6563,80.25 Q398.6094,79.8906 398.4219,79.7031 Q398.0938,79.3281 397.4844,79.1094 Q396.875,78.8906 396.25,78.8906 Q395.4844,78.8906 394.8516,79.2188 Q394.2188,79.5469 393.7266,80.2969 Q393.2344,81.0469 393.2344,82.0781 L393.2344,83.1719 Q393.2344,84.4063 394.125,85.2266 Q395.0156,86.0469 396.6094,86.0469 Q397.5469,86.0469 398.2031,85.7969 Q398.5938,85.6406 399.0156,85.2031 Q399.2813,84.9375 399.4297,84.8594 Q399.5781,84.7813 399.7813,84.7813 Q400.1094,84.7813 400.3672,85.0391 Q400.625,85.2969 400.625,85.6406 Q400.625,85.9844 400.2813,86.3906 Q399.7813,86.9688 398.9844,87.2969 Q397.9063,87.75 396.6094,87.75 Q395.0938,87.75 393.8906,87.125 Q392.9063,86.625 392.2188,85.5547 Q391.5313,84.4844 391.5313,83.2031 L391.5313,82.0469 Q391.5313,80.7188 392.1484,79.5703 Q392.7656,78.4219 393.8594,77.8047 Q394.9531,77.1875 396.1875,77.1875 Q396.9219,77.1875 397.5703,77.3516 Q398.2188,77.5156 398.7656,77.875 Z " fill="#000000" /><text fill="#000000" font-family="sans-serif" font-size="12" lengthAdjust="spacingAndGlyphs" textLength="42" x="410" y="86.9102">Scooter</text>
        <line style="stroke:#A80036;stroke-width:1.5;" x1="382" x2="454" y1="98" y2="98" />
        <!--MD5=[f8e092794d52bf9a252466252ae7bd1c]
class System-->
        <rect codeLine="12" fill="#FEFECE" filter="url(#fz5ri2limh7)" height="40" id="System" style="stroke:#A80036;stroke-width:1.5;" width="73" x="7" y="102" />
        <ellipse cx="22" cy="118" fill="#ADD1B2" rx="11" ry="11" style="stroke:#A80036;stroke-width:1.0;" />
        <path d="M24.7656,113.875 Q24.9219,113.6563 25.1094,113.5469 Q25.2969,113.4375 25.5156,113.4375 Q25.8906,113.4375 26.125,113.6953 Q26.3594,113.9531 26.3594,114.5625 L26.3594,116.0156 Q26.3594,116.625 26.125,116.8906 Q25.8906,117.1563 25.5156,117.1563 Q25.1719,117.1563 24.9688,116.9531 Q24.7656,116.7656 24.6563,116.25 Q24.6094,115.8906 24.4219,115.7031 Q24.0938,115.3281 23.4844,115.1094 Q22.875,114.8906 22.25,114.8906 Q21.4844,114.8906 20.8516,115.2188 Q20.2188,115.5469 19.7266,116.2969 Q19.2344,117.0469 19.2344,118.0781 L19.2344,119.1719 Q19.2344,120.4063 20.125,121.2266 Q21.0156,122.0469 22.6094,122.0469 Q23.5469,122.0469 24.2031,121.7969 Q24.5938,121.6406 25.0156,121.2031 Q25.2813,120.9375 25.4297,120.8594 Q25.5781,120.7813 25.7813,120.7813 Q26.1094,120.7813 26.3672,121.0391 Q26.625,121.2969 26.625,121.6406 Q26.625,121.9844 26.2813,122.3906 Q25.7813,122.9688 24.9844,123.2969 Q23.9063,123.75 22.6094,123.75 Q21.0938,123.75 19.8906,123.125 Q18.9063,122.625 18.2188,121.5547 Q17.5313,120.4844 17.5313,119.2031 L17.5313,118.0469 Q17.5313,116.7188 18.1484,115.5703 Q18.7656,114.4219 19.8594,113.8047 Q20.9531,113.1875 22.1875,113.1875 Q22.9219,113.1875 23.5703,113.3516 Q24.2188,113.5156 24.7656,113.875 Z " fill="#000000" /><text fill="#000000" font-family="sans-serif" font-size="12" lengthAdjust="spacingAndGlyphs" textLength="41" x="36" y="122.9102">System</text>
        <line style="stroke:#A80036;stroke-width:1.5;" x1="8" x2="79" y1="134" y2="134" />
        <!--MD5=[3fd616f346a44cd59a91eb10b19e157c]
class User-->
        <rect codeLine="16" fill="#FEFECE" filter="url(#fz5ri2limh7)" height="40" id="User" style="stroke:#A80036;stroke-width:1.5;" width="59" x="212" y="73" />
        <ellipse cx="227" cy="89" fill="#ADD1B2" rx="11" ry="11" style="stroke:#A80036;stroke-width:1.0;" />
        <path d="M229.7656,84.875 Q229.9219,84.6563 230.1094,84.5469 Q230.2969,84.4375 230.5156,84.4375 Q230.8906,84.4375 231.125,84.6953 Q231.3594,84.9531 231.3594,85.5625 L231.3594,87.0156 Q231.3594,87.625 231.125,87.8906 Q230.8906,88.1563 230.5156,88.1563 Q230.1719,88.1563 229.9688,87.9531 Q229.7656,87.7656 229.6563,87.25 Q229.6094,86.8906 229.4219,86.7031 Q229.0938,86.3281 228.4844,86.1094 Q227.875,85.8906 227.25,85.8906 Q226.4844,85.8906 225.8516,86.2188 Q225.2188,86.5469 224.7266,87.2969 Q224.2344,88.0469 224.2344,89.0781 L224.2344,90.1719 Q224.2344,91.4063 225.125,92.2266 Q226.0156,93.0469 227.6094,93.0469 Q228.5469,93.0469 229.2031,92.7969 Q229.5938,92.6406 230.0156,92.2031 Q230.2813,91.9375 230.4297,91.8594 Q230.5781,91.7813 230.7813,91.7813 Q231.1094,91.7813 231.3672,92.0391 Q231.625,92.2969 231.625,92.6406 Q231.625,92.9844 231.2813,93.3906 Q230.7813,93.9688 229.9844,94.2969 Q228.9063,94.75 227.6094,94.75 Q226.0938,94.75 224.8906,94.125 Q223.9063,93.625 223.2188,92.5547 Q222.5313,91.4844 222.5313,90.2031 L222.5313,89.0469 Q222.5313,87.7188 223.1484,86.5703 Q223.7656,85.4219 224.8594,84.8047 Q225.9531,84.1875 227.1875,84.1875 Q227.9219,84.1875 228.5703,84.3516 Q229.2188,84.5156 229.7656,84.875 Z " fill="#000000" /><text fill="#000000" font-family="sans-serif" font-size="12" lengthAdjust="spacingAndGlyphs" textLength="27" x="241" y="93.9102">User</text>
        <line style="stroke:#A80036;stroke-width:1.5;" x1="213" x2="270" y1="105" y2="105" />
        <!--MD5=[7f2a9fafcebe4f099f71398fd3e2ed00]
class Pharmacy-->
        <rect codeLine="20" fill="#FEFECE" filter="url(#fz5ri2limh7)" height="40" id="Pharmacy" style="stroke:#A80036;stroke-width:1.5;" width="87" x="198" y="148" />
        <ellipse cx="213" cy="164" fill="#ADD1B2" rx="11" ry="11" style="stroke:#A80036;stroke-width:1.0;" />
        <path d="M215.7656,159.875 Q215.9219,159.6563 216.1094,159.5469 Q216.2969,159.4375 216.5156,159.4375 Q216.8906,159.4375 217.125,159.6953 Q217.3594,159.9531 217.3594,160.5625 L217.3594,162.0156 Q217.3594,162.625 217.125,162.8906 Q216.8906,163.1563 216.5156,163.1563 Q216.1719,163.1563 215.9688,162.9531 Q215.7656,162.7656 215.6563,162.25 Q215.6094,161.8906 215.4219,161.7031 Q215.0938,161.3281 214.4844,161.1094 Q213.875,160.8906 213.25,160.8906 Q212.4844,160.8906 211.8516,161.2188 Q211.2188,161.5469 210.7266,162.2969 Q210.2344,163.0469 210.2344,164.0781 L210.2344,165.1719 Q210.2344,166.4063 211.125,167.2266 Q212.0156,168.0469 213.6094,168.0469 Q214.5469,168.0469 215.2031,167.7969 Q215.5938,167.6406 216.0156,167.2031 Q216.2813,166.9375 216.4297,166.8594 Q216.5781,166.7813 216.7813,166.7813 Q217.1094,166.7813 217.3672,167.0391 Q217.625,167.2969 217.625,167.6406 Q217.625,167.9844 217.2813,168.3906 Q216.7813,168.9688 215.9844,169.2969 Q214.9063,169.75 213.6094,169.75 Q212.0938,169.75 210.8906,169.125 Q209.9063,168.625 209.2188,167.5547 Q208.5313,166.4844 208.5313,165.2031 L208.5313,164.0469 Q208.5313,162.7188 209.1484,161.5703 Q209.7656,160.4219 210.8594,159.8047 Q211.9531,159.1875 213.1875,159.1875 Q213.9219,159.1875 214.5703,159.3516 Q215.2188,159.5156 215.7656,159.875 Z " fill="#000000" /><text fill="#000000" font-family="sans-serif" font-size="12" lengthAdjust="spacingAndGlyphs" textLength="55" x="227" y="168.9102">Pharmacy</text>
        <line style="stroke:#A80036;stroke-width:1.5;" x1="199" x2="284" y1="180" y2="180" />
        <!--MD5=[6f58ed239bf608ef85b2906a2b60d625]
link Admin to Scooter-->
        <path codeLine="25" d="M77.15,25.81 C87.64,25.48 99.31,25.16 110,25 C135.77,24.61 142.41,21.91 168,25 C245.11,34.31 332.79,59.27 380.8,74.22 " fill="none" id="Admin-Scooter" style="stroke:#A80036;stroke-width:1.0;" />
        <polygon fill="#000000" points="219.9376,21.963,211.4681,17.6367,210.5427,23.4412,219.9376,21.963" style="stroke:#000000;stroke-width:1.0;" /><text fill="#000000" font-family="sans-serif" font-size="13" lengthAdjust="spacingAndGlyphs" textLength="48" x="224" y="26.4951">removes</text><text fill="#000000" font-family="sans-serif" font-size="13" lengthAdjust="spacingAndGlyphs" textLength="7" x="84.8122" y="21.4459">1</text><text fill="#000000" font-family="sans-serif" font-size="13" lengthAdjust="spacingAndGlyphs" textLength="20" x="352.9825" y="87.1182">0..*</text>
        <!--MD5=[478425156ee10c55cac736d5b0b47b37]
link Admin to User-->
        <path codeLine="26" d="M77.31,38.05 C114.9,50.71 175.93,71.26 211.74,83.32 " fill="none" id="Admin-User" style="stroke:#A80036;stroke-width:1.0;" />
        <polygon fill="#000000" points="119.7385,43.7715,112.1044,38.0996,110.2285,43.6701,119.7385,43.7715" style="stroke:#000000;stroke-width:1.0;" /><text fill="#000000" font-family="sans-serif" font-size="13" lengthAdjust="spacingAndGlyphs" textLength="43" x="124" y="47.4951">acts as</text><text fill="#000000" font-family="sans-serif" font-size="13" lengthAdjust="spacingAndGlyphs" textLength="7" x="85.0052" y="55.5104">1</text><text fill="#000000" font-family="sans-serif" font-size="13" lengthAdjust="spacingAndGlyphs" textLength="7" x="197.0486" y="96.4673">1</text>
        <!--MD5=[cf4f95b832970cfa6e3a3c87e0aa2b32]
link Pharmacy to Scooter-->
        <path codeLine="28" d="M285.19,147.94 C314.55,134.14 353.11,116.02 380.94,102.95 " fill="none" id="Pharmacy-Scooter" style="stroke:#A80036;stroke-width:1.0;" />
        <polygon fill="#000000" points="324.5253,107.0495,315.0891,108.2361,317.5887,113.5559,324.5253,107.0495" style="stroke:#000000;stroke-width:1.0;" /><text fill="#000000" font-family="sans-serif" font-size="13" lengthAdjust="spacingAndGlyphs" textLength="21" x="329" y="114.4951">has</text><text fill="#000000" font-family="sans-serif" font-size="13" lengthAdjust="spacingAndGlyphs" textLength="7" x="293.0058" y="159.4668">1</text><text fill="#000000" font-family="sans-serif" font-size="13" lengthAdjust="spacingAndGlyphs" textLength="20" x="353.1457" y="120.6066">1..*</text>
        <!--MD5=[4ad6cf97acca416edaf696371dce2f13]
link System to User-->
        <path codeLine="30" d="M80.23,117.84 C104.93,114.84 138.51,110.55 168,106 C182.53,103.76 198.64,100.91 211.97,98.45 " fill="none" id="System-User" style="stroke:#A80036;stroke-width:1.0;" />
        <polygon fill="#000000" points="130.9467,96.4477,121.5701,94.8572,122.426,100.6724,130.9467,96.4477" style="stroke:#000000;stroke-width:1.0;" /><text fill="#000000" font-family="sans-serif" font-size="13" lengthAdjust="spacingAndGlyphs" textLength="21" x="135" y="102.4951">has</text><text fill="#000000" font-family="sans-serif" font-size="13" lengthAdjust="spacingAndGlyphs" textLength="7" x="87.8988" y="132.1006">1</text><text fill="#000000" font-family="sans-serif" font-size="13" lengthAdjust="spacingAndGlyphs" textLength="20" x="183.8169" y="114.7554">1..*</text>
        <!--MD5=[584fcb2b536d8b81076cef265649c6be]
link System to Pharmacy-->
        <path codeLine="31" d="M80.06,132.86 C89.73,135.67 100.23,138.58 110,141 C139.19,148.24 172.39,155.09 197.99,160.08 " fill="none" id="System-Pharmacy" style="stroke:#A80036;stroke-width:1.0;" />
        <polygon fill="#000000" points="130.8719,133.3003,122.7195,128.4024,121.3976,134.1297,130.8719,133.3003" style="stroke:#000000;stroke-width:1.0;" /><text fill="#000000" font-family="sans-serif" font-size="13" lengthAdjust="spacingAndGlyphs" textLength="21" x="135" y="137.4951">has</text><text fill="#000000" font-family="sans-serif" font-size="13" lengthAdjust="spacingAndGlyphs" textLength="7" x="87.9468" y="150.1028">1</text><text fill="#000000" font-family="sans-serif" font-size="13" lengthAdjust="spacingAndGlyphs" textLength="7" x="182.9102" y="173.6191">1</text>
        <!--MD5=[0ef9600e70d71e9c5c6b93d461d8e28a]
@startuml
hide methods
left to right direction

class Admin {

}

class Scooter {

}

class System {

}

class User {

}

class Pharmacy {

}


Admin "1" - - "0..*" Scooter: removes >
Admin "1" - - "1" User: acts as >

Pharmacy "1" - - "1..*" Scooter: has >

System "1" - - "1..*" User: has >
System "1" - - "1" Pharmacy: has >

@enduml

PlantUML version 1.2020.26(Mon Dec 21 17:45:07 GMT 2020)
(GPL source distribution)
Java Runtime: Java(TM) SE Runtime Environment
JVM: Java HotSpot(TM) 64-Bit Server VM
Default Encoding: Cp1252
Language: pt
Country: PT
-->
    </g>
</svg>