<?xml version="1.0" encoding="UTF-8" standalone="no"?><svg xmlns="http://www.w3.org/2000/svg" xmlns:xlink="http://www.w3.org/1999/xlink" contentScriptType="application/ecmascript" contentStyleType="text/css" height="195px" preserveAspectRatio="none" style="width:1310px;height:195px;" version="1.1" viewBox="0 0 1310 195" width="1310px" zoomAndPan="magnify">
    <defs>
        <filter height="300%" id="f1er9v8upwbrx2" width="300%" x="-1" y="-1">
            <feGaussianBlur result="blurOut" stdDeviation="2.0" />
            <feColorMatrix in="blurOut" result="blurOut2" type="matrix" values="0 0 0 0 0 0 0 0 0 0 0 0 0 0 0 0 0 0 .4 0" />
            <feOffset dx="4.0" dy="4.0" in="blurOut2" result="blurOut3" />
            <feBlend in="SourceGraphic" in2="blurOut3" mode="normal" />
        </filter>
    </defs>
    <g>
        <!--MD5=[6e833f4d304e2534fd2d5c5fc5d919d8]
class RemoveScooterUI-->
        <rect codeLine="4" fill="#FEFECE" filter="url(#f1er9v8upwbrx2)" height="48" id="RemoveScooterUI" style="stroke:#A80036;stroke-width:1.5;" width="132" x="7" y="72" />
        <ellipse cx="22" cy="88" fill="#ADD1B2" rx="11" ry="11" style="stroke:#A80036;stroke-width:1.0;" />
        <path d="M24.7656,83.875 Q24.9219,83.6563 25.1094,83.5469 Q25.2969,83.4375 25.5156,83.4375 Q25.8906,83.4375 26.125,83.6953 Q26.3594,83.9531 26.3594,84.5625 L26.3594,86.0156 Q26.3594,86.625 26.125,86.8906 Q25.8906,87.1563 25.5156,87.1563 Q25.1719,87.1563 24.9688,86.9531 Q24.7656,86.7656 24.6563,86.25 Q24.6094,85.8906 24.4219,85.7031 Q24.0938,85.3281 23.4844,85.1094 Q22.875,84.8906 22.25,84.8906 Q21.4844,84.8906 20.8516,85.2188 Q20.2188,85.5469 19.7266,86.2969 Q19.2344,87.0469 19.2344,88.0781 L19.2344,89.1719 Q19.2344,90.4063 20.125,91.2266 Q21.0156,92.0469 22.6094,92.0469 Q23.5469,92.0469 24.2031,91.7969 Q24.5938,91.6406 25.0156,91.2031 Q25.2813,90.9375 25.4297,90.8594 Q25.5781,90.7813 25.7813,90.7813 Q26.1094,90.7813 26.3672,91.0391 Q26.625,91.2969 26.625,91.6406 Q26.625,91.9844 26.2813,92.3906 Q25.7813,92.9688 24.9844,93.2969 Q23.9063,93.75 22.6094,93.75 Q21.0938,93.75 19.8906,93.125 Q18.9063,92.625 18.2188,91.5547 Q17.5313,90.4844 17.5313,89.2031 L17.5313,88.0469 Q17.5313,86.7188 18.1484,85.5703 Q18.7656,84.4219 19.8594,83.8047 Q20.9531,83.1875 22.1875,83.1875 Q22.9219,83.1875 23.5703,83.3516 Q24.2188,83.5156 24.7656,83.875 Z " fill="#000000" /><text fill="#000000" font-family="sans-serif" font-size="12" lengthAdjust="spacingAndGlyphs" textLength="100" x="36" y="92.9102">RemoveScooterUI</text>
        <line style="stroke:#A80036;stroke-width:1.5;" x1="8" x2="138" y1="104" y2="104" />
        <line style="stroke:#A80036;stroke-width:1.5;" x1="8" x2="138" y1="112" y2="112" />
        <!--MD5=[bac027668d924653165cf48795e5a572]
class RemoveScooterController-->
        <rect codeLine="7" fill="#FEFECE" filter="url(#f1er9v8upwbrx2)" height="103.3438" id="RemoveScooterController" style="stroke:#A80036;stroke-width:1.5;" width="174" x="200" y="44.5" />
        <ellipse cx="215" cy="60.5" fill="#ADD1B2" rx="11" ry="11" style="stroke:#A80036;stroke-width:1.0;" />
        <path d="M217.7656,56.375 Q217.9219,56.1563 218.1094,56.0469 Q218.2969,55.9375 218.5156,55.9375 Q218.8906,55.9375 219.125,56.1953 Q219.3594,56.4531 219.3594,57.0625 L219.3594,58.5156 Q219.3594,59.125 219.125,59.3906 Q218.8906,59.6563 218.5156,59.6563 Q218.1719,59.6563 217.9688,59.4531 Q217.7656,59.2656 217.6563,58.75 Q217.6094,58.3906 217.4219,58.2031 Q217.0938,57.8281 216.4844,57.6094 Q215.875,57.3906 215.25,57.3906 Q214.4844,57.3906 213.8516,57.7188 Q213.2188,58.0469 212.7266,58.7969 Q212.2344,59.5469 212.2344,60.5781 L212.2344,61.6719 Q212.2344,62.9063 213.125,63.7266 Q214.0156,64.5469 215.6094,64.5469 Q216.5469,64.5469 217.2031,64.2969 Q217.5938,64.1406 218.0156,63.7031 Q218.2813,63.4375 218.4297,63.3594 Q218.5781,63.2813 218.7813,63.2813 Q219.1094,63.2813 219.3672,63.5391 Q219.625,63.7969 219.625,64.1406 Q219.625,64.4844 219.2813,64.8906 Q218.7813,65.4688 217.9844,65.7969 Q216.9063,66.25 215.6094,66.25 Q214.0938,66.25 212.8906,65.625 Q211.9063,65.125 211.2188,64.0547 Q210.5313,62.9844 210.5313,61.7031 L210.5313,60.5469 Q210.5313,59.2188 211.1484,58.0703 Q211.7656,56.9219 212.8594,56.3047 Q213.9531,55.6875 215.1875,55.6875 Q215.9219,55.6875 216.5703,55.8516 Q217.2188,56.0156 217.7656,56.375 Z " fill="#000000" /><text fill="#000000" font-family="sans-serif" font-size="12" lengthAdjust="spacingAndGlyphs" textLength="142" x="229" y="65.4102">RemoveScooterController</text>
        <line style="stroke:#A80036;stroke-width:1.5;" x1="201" x2="373" y1="76.5" y2="76.5" />
        <line style="stroke:#A80036;stroke-width:1.5;" x1="201" x2="373" y1="84.5" y2="84.5" /><text fill="#000000" font-family="sans-serif" font-size="11" lengthAdjust="spacingAndGlyphs" textLength="76" x="206" y="99.9189">getSCooterDB()</text><text fill="#000000" font-family="sans-serif" font-size="11" lengthAdjust="spacingAndGlyphs" textLength="69" x="206" y="113.7549">getScooter(id)</text><text fill="#000000" font-family="sans-serif" font-size="11" lengthAdjust="spacingAndGlyphs" textLength="119" x="206" y="127.5908">removeScooter(scooter)</text><text fill="#000000" font-family="sans-serif" font-size="11" lengthAdjust="spacingAndGlyphs" textLength="158" x="206" y="141.4268">getPharmacyOfScooter(scooter)</text>
        <!--MD5=[f8e092794d52bf9a252466252ae7bd1c]
class System-->
        <rect codeLine="14" fill="#FEFECE" filter="url(#f1er9v8upwbrx2)" height="61.8359" id="System" style="stroke:#A80036;stroke-width:1.5;" width="88" x="435" y="65" />
        <ellipse cx="456.75" cy="81" fill="#ADD1B2" rx="11" ry="11" style="stroke:#A80036;stroke-width:1.0;" />
        <path d="M459.5156,76.875 Q459.6719,76.6563 459.8594,76.5469 Q460.0469,76.4375 460.2656,76.4375 Q460.6406,76.4375 460.875,76.6953 Q461.1094,76.9531 461.1094,77.5625 L461.1094,79.0156 Q461.1094,79.625 460.875,79.8906 Q460.6406,80.1563 460.2656,80.1563 Q459.9219,80.1563 459.7188,79.9531 Q459.5156,79.7656 459.4063,79.25 Q459.3594,78.8906 459.1719,78.7031 Q458.8438,78.3281 458.2344,78.1094 Q457.625,77.8906 457,77.8906 Q456.2344,77.8906 455.6016,78.2188 Q454.9688,78.5469 454.4766,79.2969 Q453.9844,80.0469 453.9844,81.0781 L453.9844,82.1719 Q453.9844,83.4063 454.875,84.2266 Q455.7656,85.0469 457.3594,85.0469 Q458.2969,85.0469 458.9531,84.7969 Q459.3438,84.6406 459.7656,84.2031 Q460.0313,83.9375 460.1797,83.8594 Q460.3281,83.7813 460.5313,83.7813 Q460.8594,83.7813 461.1172,84.0391 Q461.375,84.2969 461.375,84.6406 Q461.375,84.9844 461.0313,85.3906 Q460.5313,85.9688 459.7344,86.2969 Q458.6563,86.75 457.3594,86.75 Q455.8438,86.75 454.6406,86.125 Q453.6563,85.625 452.9688,84.5547 Q452.2813,83.4844 452.2813,82.2031 L452.2813,81.0469 Q452.2813,79.7188 452.8984,78.5703 Q453.5156,77.4219 454.6094,76.8047 Q455.7031,76.1875 456.9375,76.1875 Q457.6719,76.1875 458.3203,76.3516 Q458.9688,76.5156 459.5156,76.875 Z " fill="#000000" /><text fill="#000000" font-family="sans-serif" font-size="12" lengthAdjust="spacingAndGlyphs" textLength="41" x="472.25" y="85.9102">System</text>
        <line style="stroke:#A80036;stroke-width:1.5;" x1="436" x2="522" y1="97" y2="97" />
        <line style="stroke:#A80036;stroke-width:1.5;" x1="436" x2="522" y1="105" y2="105" /><text fill="#000000" font-family="sans-serif" font-size="11" lengthAdjust="spacingAndGlyphs" textLength="76" x="441" y="120.4189">getSCooterDB()</text>
        <!--MD5=[f4402668d5d5bb8485350c0fdb60ac8e]
class Scooter-->
        <rect codeLine="18" fill="#FEFECE" filter="url(#f1er9v8upwbrx2)" height="61.8359" id="Scooter" style="stroke:#A80036;stroke-width:1.5;" width="74" x="1222" y="70" />
        <ellipse cx="1237" cy="86" fill="#ADD1B2" rx="11" ry="11" style="stroke:#A80036;stroke-width:1.0;" />
        <path d="M1239.7656,81.875 Q1239.9219,81.6563 1240.1094,81.5469 Q1240.2969,81.4375 1240.5156,81.4375 Q1240.8906,81.4375 1241.125,81.6953 Q1241.3594,81.9531 1241.3594,82.5625 L1241.3594,84.0156 Q1241.3594,84.625 1241.125,84.8906 Q1240.8906,85.1563 1240.5156,85.1563 Q1240.1719,85.1563 1239.9688,84.9531 Q1239.7656,84.7656 1239.6563,84.25 Q1239.6094,83.8906 1239.4219,83.7031 Q1239.0938,83.3281 1238.4844,83.1094 Q1237.875,82.8906 1237.25,82.8906 Q1236.4844,82.8906 1235.8516,83.2188 Q1235.2188,83.5469 1234.7266,84.2969 Q1234.2344,85.0469 1234.2344,86.0781 L1234.2344,87.1719 Q1234.2344,88.4063 1235.125,89.2266 Q1236.0156,90.0469 1237.6094,90.0469 Q1238.5469,90.0469 1239.2031,89.7969 Q1239.5938,89.6406 1240.0156,89.2031 Q1240.2813,88.9375 1240.4297,88.8594 Q1240.5781,88.7813 1240.7813,88.7813 Q1241.1094,88.7813 1241.3672,89.0391 Q1241.625,89.2969 1241.625,89.6406 Q1241.625,89.9844 1241.2813,90.3906 Q1240.7813,90.9688 1239.9844,91.2969 Q1238.9063,91.75 1237.6094,91.75 Q1236.0938,91.75 1234.8906,91.125 Q1233.9063,90.625 1233.2188,89.5547 Q1232.5313,88.4844 1232.5313,87.2031 L1232.5313,86.0469 Q1232.5313,84.7188 1233.1484,83.5703 Q1233.7656,82.4219 1234.8594,81.8047 Q1235.9531,81.1875 1237.1875,81.1875 Q1237.9219,81.1875 1238.5703,81.3516 Q1239.2188,81.5156 1239.7656,81.875 Z " fill="#000000" /><text fill="#000000" font-family="sans-serif" font-size="12" lengthAdjust="spacingAndGlyphs" textLength="42" x="1251" y="90.9102">Scooter</text>
        <line style="stroke:#A80036;stroke-width:1.5;" x1="1223" x2="1295" y1="102" y2="102" />
        <line style="stroke:#A80036;stroke-width:1.5;" x1="1223" x2="1295" y1="110" y2="110" /><text fill="#000000" font-family="sans-serif" font-size="11" lengthAdjust="spacingAndGlyphs" textLength="55" x="1228" y="125.4189">getDetails()</text>
        <!--MD5=[48d7298b3bd1f8b3e8f77915e881d788]
class ScooterDB-->
        <rect codeLine="22" fill="#FEFECE" filter="url(#f1er9v8upwbrx2)" height="89.5078" id="ScooterDB" style="stroke:#A80036;stroke-width:1.5;" width="131" x="806" y="7" />
        <ellipse cx="839" cy="23" fill="#ADD1B2" rx="11" ry="11" style="stroke:#A80036;stroke-width:1.0;" />
        <path d="M841.7656,18.875 Q841.9219,18.6563 842.1094,18.5469 Q842.2969,18.4375 842.5156,18.4375 Q842.8906,18.4375 843.125,18.6953 Q843.3594,18.9531 843.3594,19.5625 L843.3594,21.0156 Q843.3594,21.625 843.125,21.8906 Q842.8906,22.1563 842.5156,22.1563 Q842.1719,22.1563 841.9688,21.9531 Q841.7656,21.7656 841.6563,21.25 Q841.6094,20.8906 841.4219,20.7031 Q841.0938,20.3281 840.4844,20.1094 Q839.875,19.8906 839.25,19.8906 Q838.4844,19.8906 837.8516,20.2188 Q837.2188,20.5469 836.7266,21.2969 Q836.2344,22.0469 836.2344,23.0781 L836.2344,24.1719 Q836.2344,25.4063 837.125,26.2266 Q838.0156,27.0469 839.6094,27.0469 Q840.5469,27.0469 841.2031,26.7969 Q841.5938,26.6406 842.0156,26.2031 Q842.2813,25.9375 842.4297,25.8594 Q842.5781,25.7813 842.7813,25.7813 Q843.1094,25.7813 843.3672,26.0391 Q843.625,26.2969 843.625,26.6406 Q843.625,26.9844 843.2813,27.3906 Q842.7813,27.9688 841.9844,28.2969 Q840.9063,28.75 839.6094,28.75 Q838.0938,28.75 836.8906,28.125 Q835.9063,27.625 835.2188,26.5547 Q834.5313,25.4844 834.5313,24.2031 L834.5313,23.0469 Q834.5313,21.7188 835.1484,20.5703 Q835.7656,19.4219 836.8594,18.8047 Q837.9531,18.1875 839.1875,18.1875 Q839.9219,18.1875 840.5703,18.3516 Q841.2188,18.5156 841.7656,18.875 Z " fill="#000000" /><text fill="#000000" font-family="sans-serif" font-size="12" lengthAdjust="spacingAndGlyphs" textLength="59" x="857" y="27.9102">ScooterDB</text>
        <line style="stroke:#A80036;stroke-width:1.5;" x1="807" x2="936" y1="39" y2="39" />
        <line style="stroke:#A80036;stroke-width:1.5;" x1="807" x2="936" y1="47" y2="47" /><text fill="#000000" font-family="sans-serif" font-size="11" lengthAdjust="spacingAndGlyphs" textLength="84" x="812" y="62.4189">printScooterList()</text><text fill="#000000" font-family="sans-serif" font-size="11" lengthAdjust="spacingAndGlyphs" textLength="69" x="812" y="76.2549">getScooter(id)</text><text fill="#000000" font-family="sans-serif" font-size="11" lengthAdjust="spacingAndGlyphs" textLength="119" x="812" y="90.0908">removeScooter(scooter)</text>
        <!--MD5=[7f2a9fafcebe4f099f71398fd3e2ed00]
class Pharmacy-->
        <rect codeLine="28" fill="#FEFECE" filter="url(#f1er9v8upwbrx2)" height="61.8359" id="Pharmacy" style="stroke:#A80036;stroke-width:1.5;" width="172" x="967" y="120" />
        <ellipse cx="1021.25" cy="136" fill="#ADD1B2" rx="11" ry="11" style="stroke:#A80036;stroke-width:1.0;" />
        <path d="M1024.0156,131.875 Q1024.1719,131.6563 1024.3594,131.5469 Q1024.5469,131.4375 1024.7656,131.4375 Q1025.1406,131.4375 1025.375,131.6953 Q1025.6094,131.9531 1025.6094,132.5625 L1025.6094,134.0156 Q1025.6094,134.625 1025.375,134.8906 Q1025.1406,135.1563 1024.7656,135.1563 Q1024.4219,135.1563 1024.2188,134.9531 Q1024.0156,134.7656 1023.9063,134.25 Q1023.8594,133.8906 1023.6719,133.7031 Q1023.3438,133.3281 1022.7344,133.1094 Q1022.125,132.8906 1021.5,132.8906 Q1020.7344,132.8906 1020.1016,133.2188 Q1019.4688,133.5469 1018.9766,134.2969 Q1018.4844,135.0469 1018.4844,136.0781 L1018.4844,137.1719 Q1018.4844,138.4063 1019.375,139.2266 Q1020.2656,140.0469 1021.8594,140.0469 Q1022.7969,140.0469 1023.4531,139.7969 Q1023.8438,139.6406 1024.2656,139.2031 Q1024.5313,138.9375 1024.6797,138.8594 Q1024.8281,138.7813 1025.0313,138.7813 Q1025.3594,138.7813 1025.6172,139.0391 Q1025.875,139.2969 1025.875,139.6406 Q1025.875,139.9844 1025.5313,140.3906 Q1025.0313,140.9688 1024.2344,141.2969 Q1023.1563,141.75 1021.8594,141.75 Q1020.3438,141.75 1019.1406,141.125 Q1018.1563,140.625 1017.4688,139.5547 Q1016.7813,138.4844 1016.7813,137.2031 L1016.7813,136.0469 Q1016.7813,134.7188 1017.3984,133.5703 Q1018.0156,132.4219 1019.1094,131.8047 Q1020.2031,131.1875 1021.4375,131.1875 Q1022.1719,131.1875 1022.8203,131.3516 Q1023.4688,131.5156 1024.0156,131.875 Z " fill="#000000" /><text fill="#000000" font-family="sans-serif" font-size="12" lengthAdjust="spacingAndGlyphs" textLength="55" x="1041.75" y="140.9102">Pharmacy</text>
        <line style="stroke:#A80036;stroke-width:1.5;" x1="968" x2="1138" y1="152" y2="152" />
        <line style="stroke:#A80036;stroke-width:1.5;" x1="968" x2="1138" y1="160" y2="160" /><text fill="#000000" font-family="sans-serif" font-size="11" lengthAdjust="spacingAndGlyphs" textLength="160" x="973" y="175.4189">removeScooterFromList(scooter)</text>
        <!--MD5=[b860ecc58d0ca70e482845cb1f7b4615]
class PharmacyDB-->
        <rect codeLine="32" fill="#FEFECE" filter="url(#f1er9v8upwbrx2)" height="61.8359" id="PharmacyDB" style="stroke:#A80036;stroke-width:1.5;" width="170" x="606" y="108" />
        <ellipse cx="650.75" cy="124" fill="#ADD1B2" rx="11" ry="11" style="stroke:#A80036;stroke-width:1.0;" />
        <path d="M653.5156,119.875 Q653.6719,119.6563 653.8594,119.5469 Q654.0469,119.4375 654.2656,119.4375 Q654.6406,119.4375 654.875,119.6953 Q655.1094,119.9531 655.1094,120.5625 L655.1094,122.0156 Q655.1094,122.625 654.875,122.8906 Q654.6406,123.1563 654.2656,123.1563 Q653.9219,123.1563 653.7188,122.9531 Q653.5156,122.7656 653.4063,122.25 Q653.3594,121.8906 653.1719,121.7031 Q652.8438,121.3281 652.2344,121.1094 Q651.625,120.8906 651,120.8906 Q650.2344,120.8906 649.6016,121.2188 Q648.9688,121.5469 648.4766,122.2969 Q647.9844,123.0469 647.9844,124.0781 L647.9844,125.1719 Q647.9844,126.4063 648.875,127.2266 Q649.7656,128.0469 651.3594,128.0469 Q652.2969,128.0469 652.9531,127.7969 Q653.3438,127.6406 653.7656,127.2031 Q654.0313,126.9375 654.1797,126.8594 Q654.3281,126.7813 654.5313,126.7813 Q654.8594,126.7813 655.1172,127.0391 Q655.375,127.2969 655.375,127.6406 Q655.375,127.9844 655.0313,128.3906 Q654.5313,128.9688 653.7344,129.2969 Q652.6563,129.75 651.3594,129.75 Q649.8438,129.75 648.6406,129.125 Q647.6563,128.625 646.9688,127.5547 Q646.2813,126.4844 646.2813,125.2031 L646.2813,124.0469 Q646.2813,122.7188 646.8984,121.5703 Q647.5156,120.4219 648.6094,119.8047 Q649.7031,119.1875 650.9375,119.1875 Q651.6719,119.1875 652.3203,119.3516 Q652.9688,119.5156 653.5156,119.875 Z " fill="#000000" /><text fill="#000000" font-family="sans-serif" font-size="12" lengthAdjust="spacingAndGlyphs" textLength="72" x="671.25" y="128.9102">PharmacyDB</text>
        <line style="stroke:#A80036;stroke-width:1.5;" x1="607" x2="775" y1="140" y2="140" />
        <line style="stroke:#A80036;stroke-width:1.5;" x1="607" x2="775" y1="148" y2="148" /><text fill="#000000" font-family="sans-serif" font-size="11" lengthAdjust="spacingAndGlyphs" textLength="158" x="612" y="163.4189">getPharmacyOfScooter(scooter)</text>
        <!--MD5=[d51a3d7ceb60387716e9812879733fde]
link RemoveScooterUI to RemoveScooterController-->
        <path codeLine="37" d="M139.05,96 C156.63,96 175.98,96 194.71,96 " fill="none" id="RemoveScooterUI-to-RemoveScooterController" style="stroke:#A80036;stroke-width:1.0;stroke-dasharray:7.0,7.0;" />
        <polygon fill="#A80036" points="199.97,96,190.97,92,194.97,96,190.97,100,199.97,96" style="stroke:#A80036;stroke-width:1.0;" />
        <!--MD5=[d7cb4468855bb4f109abfb40c3cc7b11]
link RemoveScooterController to System-->
        <path codeLine="38" d="M374.11,96 C393.24,96 412.85,96 429.81,96 " fill="none" id="RemoveScooterController-to-System" style="stroke:#A80036;stroke-width:1.0;stroke-dasharray:7.0,7.0;" />
        <polygon fill="#A80036" points="434.99,96,425.99,92,429.99,96,425.99,100,434.99,96" style="stroke:#A80036;stroke-width:1.0;" />
        <!--MD5=[fe3c750c6ee067a4ea25df1b0b72ff01]
link System to ScooterDB-->
        <path codeLine="39" d="M523.28,91.12 C590.42,83.56 720.28,68.93 800.76,59.86 " fill="none" id="System-to-ScooterDB" style="stroke:#A80036;stroke-width:1.0;" />
        <polygon fill="#A80036" points="805.99,59.27,796.6005,56.2972,801.0211,59.8269,797.4915,64.2475,805.99,59.27" style="stroke:#A80036;stroke-width:1.0;" /><text fill="#000000" font-family="sans-serif" font-size="13" lengthAdjust="spacingAndGlyphs" textLength="21" x="554" y="82.4951">has</text><text fill="#000000" font-family="sans-serif" font-size="13" lengthAdjust="spacingAndGlyphs" textLength="7" x="530.8949" y="105.1535">1</text><text fill="#000000" font-family="sans-serif" font-size="13" lengthAdjust="spacingAndGlyphs" textLength="7" x="791.0107" y="74.5795">1</text>
        <!--MD5=[8d41a7de4e749fd7e15568a66b12efc6]
link System to PharmacyDB-->
        <path codeLine="40" d="M523.09,107.84 C532.89,110.35 543.27,112.89 553,115 C568.4,118.35 584.84,121.55 600.81,124.46 " fill="none" id="System-to-PharmacyDB" style="stroke:#A80036;stroke-width:1.0;" />
        <polygon fill="#A80036" points="605.74,125.35,597.6078,119.7941,600.8218,124.4493,596.1667,127.6633,605.74,125.35" style="stroke:#A80036;stroke-width:1.0;" /><text fill="#000000" font-family="sans-serif" font-size="13" lengthAdjust="spacingAndGlyphs" textLength="21" x="554" y="111.4951">has</text><text fill="#000000" font-family="sans-serif" font-size="13" lengthAdjust="spacingAndGlyphs" textLength="7" x="530.9721" y="124.6638">1</text><text fill="#000000" font-family="sans-serif" font-size="13" lengthAdjust="spacingAndGlyphs" textLength="7" x="591.1122" y="138.3817">1</text>
        <!--MD5=[44650545f701211ba2acbe8172184bfb]
link ScooterDB to Scooter-->
        <path codeLine="41" d="M937.02,60.2 C1016.61,70.32 1149.59,87.22 1216.65,95.74 " fill="none" id="ScooterDB-to-Scooter" style="stroke:#A80036;stroke-width:1.0;" />
        <polygon fill="#A80036" points="1221.75,96.39,1213.3247,91.2896,1216.7897,95.761,1212.3183,99.2261,1221.75,96.39" style="stroke:#A80036;stroke-width:1.0;" /><text fill="#000000" font-family="sans-serif" font-size="13" lengthAdjust="spacingAndGlyphs" textLength="82" x="1012" y="61.4951">has registered</text><text fill="#000000" font-family="sans-serif" font-size="13" lengthAdjust="spacingAndGlyphs" textLength="7" x="945.0004" y="75.617">1</text><text fill="#000000" font-family="sans-serif" font-size="13" lengthAdjust="spacingAndGlyphs" textLength="5" x="1208.9242" y="110.6033">*</text>
        <!--MD5=[b3922b8b1f1c918d378b3c148704b394]
link PharmacyDB to Pharmacy-->
        <path codeLine="42" d="M776.4,141.81 C832.08,143.67 904.95,146.1 961.78,147.99 " fill="none" id="PharmacyDB-to-Pharmacy" style="stroke:#A80036;stroke-width:1.0;" />
        <polygon fill="#A80036" points="966.88,148.16,958.0228,143.8531,961.883,147.9882,957.7479,151.8484,966.88,148.16" style="stroke:#A80036;stroke-width:1.0;" /><text fill="#000000" font-family="sans-serif" font-size="13" lengthAdjust="spacingAndGlyphs" textLength="82" x="830.5" y="138.4951">has registered</text><text fill="#000000" font-family="sans-serif" font-size="13" lengthAdjust="spacingAndGlyphs" textLength="7" x="784.0398" y="156.2563">1</text><text fill="#000000" font-family="sans-serif" font-size="13" lengthAdjust="spacingAndGlyphs" textLength="5" x="953.9873" y="162.1376">*</text>
        <!--MD5=[cf4f95b832970cfa6e3a3c87e0aa2b32]
link Pharmacy to Scooter-->
        <path codeLine="43" d="M1139.04,130.16 C1165.97,123.56 1194.53,116.56 1216.91,111.07 " fill="none" id="Pharmacy-to-Scooter" style="stroke:#A80036;stroke-width:1.0;" />
        <polygon fill="#A80036" points="1221.88,109.85,1212.1881,108.0985,1217.0226,111.0358,1214.0854,115.8703,1221.88,109.85" style="stroke:#A80036;stroke-width:1.0;" /><text fill="#000000" font-family="sans-serif" font-size="13" lengthAdjust="spacingAndGlyphs" textLength="21" x="1170" y="115.4951">has</text><text fill="#000000" font-family="sans-serif" font-size="13" lengthAdjust="spacingAndGlyphs" textLength="7" x="1147.0147" y="142.5345">1</text><text fill="#000000" font-family="sans-serif" font-size="13" lengthAdjust="spacingAndGlyphs" textLength="5" x="1209.0798" y="126.7132">*</text>
        <!--MD5=[bd87795d5c2b6dff56a0ad06f827cd9e]
@startuml

left to right direction

class RemoveScooterUI {
}

class RemoveScooterController {
  getSCooterDB()
  getScooter(id)
  removeScooter(scooter)
  getPharmacyOfScooter(scooter)
}

class System {
  getSCooterDB()
}

class Scooter {
  getDetails()
}

class ScooterDB {
  printScooterList()
  getScooter(id)
  removeScooter(scooter)
}

class Pharmacy {
  removeScooterFromList(scooter)
}

class PharmacyDB {
  getPharmacyOfScooter(scooter)
}


RemoveScooterUI ..> RemoveScooterController
RemoveScooterController ..> System
System "1" - -> "1" ScooterDB: has
System "1" - -> "1" PharmacyDB: has
ScooterDB "1" - -> "*" Scooter: has registered
PharmacyDB "1" - -> "*" Pharmacy: has registered
Pharmacy "1" - -> "*" Scooter: has

@enduml

PlantUML version 1.2020.26(Mon Dec 21 17:45:07 GMT 2020)
(GPL source distribution)
Java Runtime: Java(TM) SE Runtime Environment
JVM: Java HotSpot(TM) 64-Bit Server VM
Default Encoding: Cp1252
Language: pt
Country: PT
-->
    </g>
</svg>