<?xml version="1.0" encoding="UTF-8" standalone="no"?><svg xmlns="http://www.w3.org/2000/svg" xmlns:xlink="http://www.w3.org/1999/xlink" contentScriptType="application/ecmascript" contentStyleType="text/css" height="100px" preserveAspectRatio="none" style="width:522px;height:100px;" version="1.1" viewBox="0 0 522 100" width="522px" zoomAndPan="magnify">
    <defs>
        <filter height="300%" id="fdfgtzfqapkxq" width="300%" x="-1" y="-1">
            <feGaussianBlur result="blurOut" stdDeviation="2.0" />
            <feColorMatrix in="blurOut" result="blurOut2" type="matrix" values="0 0 0 0 0 0 0 0 0 0 0 0 0 0 0 0 0 0 .4 0" />
            <feOffset dx="4.0" dy="4.0" in="blurOut2" result="blurOut3" />
            <feBlend in="SourceGraphic" in2="blurOut3" mode="normal" />
        </filter>
    </defs>
    <g>
        <!--class Administrator-->
        <rect fill="#FEFECE" filter="url(#fdfgtzfqapkxq)" height="40" id="Administrator" style="stroke: #A80036; stroke-width: 1.5;" width="105" x="175" y="29" />
        <ellipse cx="190" cy="45" fill="#ADD1B2" rx="11" ry="11" style="stroke: #A80036; stroke-width: 1.0;" />
        <path d="M192.7656,40.875 Q192.9219,40.6563 193.1094,40.5469 Q193.2969,40.4375 193.5156,40.4375 Q193.8906,40.4375 194.125,40.6953 Q194.3594,40.9531 194.3594,41.5625 L194.3594,43.0156 Q194.3594,43.625 194.125,43.8906 Q193.8906,44.1563 193.5156,44.1563 Q193.1719,44.1563 192.9688,43.9531 Q192.7656,43.7656 192.6563,43.25 Q192.6094,42.8906 192.4219,42.7031 Q192.0938,42.3281 191.4844,42.1094 Q190.875,41.8906 190.25,41.8906 Q189.4844,41.8906 188.8516,42.2188 Q188.2188,42.5469 187.7266,43.2969 Q187.2344,44.0469 187.2344,45.0781 L187.2344,46.1719 Q187.2344,47.4063 188.125,48.2266 Q189.0156,49.0469 190.6094,49.0469 Q191.5469,49.0469 192.2031,48.7969 Q192.5938,48.6406 193.0156,48.2031 Q193.2813,47.9375 193.4297,47.8594 Q193.5781,47.7813 193.7813,47.7813 Q194.1094,47.7813 194.3672,48.0391 Q194.625,48.2969 194.625,48.6406 Q194.625,48.9844 194.2813,49.3906 Q193.7813,49.9688 192.9844,50.2969 Q191.9063,50.75 190.6094,50.75 Q189.0938,50.75 187.8906,50.125 Q186.9063,49.625 186.2188,48.5547 Q185.5313,47.4844 185.5313,46.2031 L185.5313,45.0469 Q185.5313,43.7188 186.1484,42.5703 Q186.7656,41.4219 187.8594,40.8047 Q188.9531,40.1875 190.1875,40.1875 Q190.9219,40.1875 191.5703,40.3516 Q192.2188,40.5156 192.7656,40.875 Z " /><text fill="#000000" font-family="sans-serif" font-size="12" lengthAdjust="spacingAndGlyphs" textLength="73" x="204" y="49.9102">Administrator</text>
        <line style="stroke: #A80036; stroke-width: 1.5;" x1="176" x2="279" y1="61" y2="61" />
        <!--class User-->
        <rect fill="#FEFECE" filter="url(#fdfgtzfqapkxq)" height="81.5078" id="User" style="stroke: #A80036; stroke-width: 1.5;" width="113" x="398" y="8" />
        <ellipse cx="437.3" cy="24" fill="#ADD1B2" rx="11" ry="11" style="stroke: #A80036; stroke-width: 1.0;" />
        <path d="M440.0656,19.875 Q440.2219,19.6563 440.4094,19.5469 Q440.5969,19.4375 440.8156,19.4375 Q441.1906,19.4375 441.425,19.6953 Q441.6594,19.9531 441.6594,20.5625 L441.6594,22.0156 Q441.6594,22.625 441.425,22.8906 Q441.1906,23.1563 440.8156,23.1563 Q440.4719,23.1563 440.2688,22.9531 Q440.0656,22.7656 439.9563,22.25 Q439.9094,21.8906 439.7219,21.7031 Q439.3938,21.3281 438.7844,21.1094 Q438.175,20.8906 437.55,20.8906 Q436.7844,20.8906 436.1516,21.2188 Q435.5188,21.5469 435.0266,22.2969 Q434.5344,23.0469 434.5344,24.0781 L434.5344,25.1719 Q434.5344,26.4063 435.425,27.2266 Q436.3156,28.0469 437.9094,28.0469 Q438.8469,28.0469 439.5031,27.7969 Q439.8938,27.6406 440.3156,27.2031 Q440.5813,26.9375 440.7297,26.8594 Q440.8781,26.7813 441.0813,26.7813 Q441.4094,26.7813 441.6672,27.0391 Q441.925,27.2969 441.925,27.6406 Q441.925,27.9844 441.5813,28.3906 Q441.0813,28.9688 440.2844,29.2969 Q439.2063,29.75 437.9094,29.75 Q436.3938,29.75 435.1906,29.125 Q434.2063,28.625 433.5188,27.5547 Q432.8313,26.4844 432.8313,25.2031 L432.8313,24.0469 Q432.8313,22.7188 433.4484,21.5703 Q434.0656,20.4219 435.1594,19.8047 Q436.2531,19.1875 437.4875,19.1875 Q438.2219,19.1875 438.8703,19.3516 Q439.5188,19.5156 440.0656,19.875 Z " /><text fill="#000000" font-family="sans-serif" font-size="12" lengthAdjust="spacingAndGlyphs" textLength="27" x="456.7" y="28.9102">User</text>
        <line style="stroke: #A80036; stroke-width: 1.5;" x1="399" x2="510" y1="40" y2="40" />
        <rect fill="none" height="6" style="stroke: #C82930; stroke-width: 1.0;" width="6" x="406" y="49.418" /><text fill="#000000" font-family="sans-serif" font-size="11" lengthAdjust="spacingAndGlyphs" textLength="57" x="418" y="55.4189">name String</text>
        <rect fill="none" height="6" style="stroke: #C82930; stroke-width: 1.0;" width="6" x="406" y="63.2539" /><text fill="#000000" font-family="sans-serif" font-size="11" lengthAdjust="spacingAndGlyphs" textLength="55" x="418" y="69.2549">email String</text>
        <rect fill="none" height="6" style="stroke: #C82930; stroke-width: 1.0;" width="6" x="406" y="77.0898" /><text fill="#000000" font-family="sans-serif" font-size="11" lengthAdjust="spacingAndGlyphs" textLength="87" x="418" y="83.0908">passsword String</text>
        <!--class System-->
        <rect fill="#FEFECE" filter="url(#fdfgtzfqapkxq)" height="40" id="System" style="stroke: #A80036; stroke-width: 1.5;" width="73" x="6" y="29" />
        <ellipse cx="21" cy="45" fill="#ADD1B2" rx="11" ry="11" style="stroke: #A80036; stroke-width: 1.0;" />
        <path d="M23.7656,40.875 Q23.9219,40.6563 24.1094,40.5469 Q24.2969,40.4375 24.5156,40.4375 Q24.8906,40.4375 25.125,40.6953 Q25.3594,40.9531 25.3594,41.5625 L25.3594,43.0156 Q25.3594,43.625 25.125,43.8906 Q24.8906,44.1563 24.5156,44.1563 Q24.1719,44.1563 23.9688,43.9531 Q23.7656,43.7656 23.6563,43.25 Q23.6094,42.8906 23.4219,42.7031 Q23.0938,42.3281 22.4844,42.1094 Q21.875,41.8906 21.25,41.8906 Q20.4844,41.8906 19.8516,42.2188 Q19.2188,42.5469 18.7266,43.2969 Q18.2344,44.0469 18.2344,45.0781 L18.2344,46.1719 Q18.2344,47.4063 19.125,48.2266 Q20.0156,49.0469 21.6094,49.0469 Q22.5469,49.0469 23.2031,48.7969 Q23.5938,48.6406 24.0156,48.2031 Q24.2813,47.9375 24.4297,47.8594 Q24.5781,47.7813 24.7813,47.7813 Q25.1094,47.7813 25.3672,48.0391 Q25.625,48.2969 25.625,48.6406 Q25.625,48.9844 25.2813,49.3906 Q24.7813,49.9688 23.9844,50.2969 Q22.9063,50.75 21.6094,50.75 Q20.0938,50.75 18.8906,50.125 Q17.9063,49.625 17.2188,48.5547 Q16.5313,47.4844 16.5313,46.2031 L16.5313,45.0469 Q16.5313,43.7188 17.1484,42.5703 Q17.7656,41.4219 18.8594,40.8047 Q19.9531,40.1875 21.1875,40.1875 Q21.9219,40.1875 22.5703,40.3516 Q23.2188,40.5156 23.7656,40.875 Z " /><text fill="#000000" font-family="sans-serif" font-size="12" lengthAdjust="spacingAndGlyphs" textLength="41" x="35" y="49.9102">System</text>
        <line style="stroke: #A80036; stroke-width: 1.5;" x1="7" x2="78" y1="61" y2="61" />
        <!--link System to Administrator-->
        <path d="M79.22,49 C106.47,49 144.4,49 174.94,49 " fill="none" id="System-Administrator" style="stroke: #A80036; stroke-width: 1.0;" /><text fill="#000000" font-family="sans-serif" font-size="13" lengthAdjust="spacingAndGlyphs" textLength="21" x="110" y="45.4951">has</text>
        <polygon fill="#000000" points="134,38.6758,140,41.6758,134,44.6758,134,38.6758" style="stroke: #000000; stroke-width: 1.0;" /><text fill="#000000" font-family="sans-serif" font-size="13" lengthAdjust="spacingAndGlyphs" textLength="7" x="86.8869" y="64.0536">1</text><text fill="#000000" font-family="sans-serif" font-size="13" lengthAdjust="spacingAndGlyphs" textLength="20" x="146.9245" y="63.5426">1..*</text>
        <!--link Administrator to User-->
        <path d="M280.12,49 C315.28,49 361.79,49 397.79,49 " fill="none" id="Administrator-User" style="stroke: #A80036; stroke-width: 1.0;" /><text fill="#000000" font-family="sans-serif" font-size="13" lengthAdjust="spacingAndGlyphs" textLength="43" x="311" y="45.4951">acts as</text>
        <polygon fill="#000000" points="357,38.6758,363,41.6758,357,44.6758,357,38.6758" style="stroke: #000000; stroke-width: 1.0;" /><text fill="#000000" font-family="sans-serif" font-size="13" lengthAdjust="spacingAndGlyphs" textLength="7" x="288.0119" y="63.6448">1</text><text fill="#000000" font-family="sans-serif" font-size="13" lengthAdjust="spacingAndGlyphs" textLength="7" x="383.0756" y="63.5742">1</text>
        <!--
@startuml
hide methods
left to right direction

class Administrator {

}

class User {
    -name String
    -email String
    -passsword String
}

class System {

}

System "1" - - "1..*" Administrator: has >
Administrator "1" - - "1" User: acts as >

@enduml

PlantUML version 1.2018.14(Fri Dec 21 16:33:16 GMT 2018)
(GPL source distribution)
Java Runtime: Java(TM) SE Runtime Environment
JVM: Java HotSpot(TM) 64-Bit Server VM
Java Version: 1.8.0_271-b09
Operating System: Windows 10
OS Version: 10.0
Default Encoding: Cp1252
Language: en
Country: US
-->
    </g>
</svg>