<?xml version="1.0" encoding="UTF-8" standalone="no"?><svg xmlns="http://www.w3.org/2000/svg" xmlns:xlink="http://www.w3.org/1999/xlink" contentScriptType="application/ecmascript" contentStyleType="text/css" height="76.25px" preserveAspectRatio="none" style="width:536px;height:76px;" version="1.1" viewBox="0 0 536 76" width="536.25px" zoomAndPan="magnify"><defs><filter height="300%" id="f1fqo4v0mkn2w1" width="300%" x="-1" y="-1"><feGaussianBlur result="blurOut" stdDeviation="2.5"/><feColorMatrix in="blurOut" result="blurOut2" type="matrix" values="0 0 0 0 0 0 0 0 0 0 0 0 0 0 0 0 0 0 .4 0"/><feOffset dx="5.0" dy="5.0" in="blurOut2" result="blurOut3"/><feBlend in="SourceGraphic" in2="blurOut3" mode="normal"/></filter></defs><g><!--MD5=[99b8db98afdc2c8404e39242ef4c1e65]
class Platform--><rect codeLine="4" fill="#FEFECE" filter="url(#f1fqo4v0mkn2w1)" height="50" id="Platform" style="stroke:#A80036;stroke-width:1.875;" width="97.5" x="8.75" y="8.75"/><ellipse cx="27.5" cy="28.75" fill="#ADD1B2" rx="13.75" ry="13.75" style="stroke:#A80036;stroke-width:1.25;"/><path d="M30,24.375 Q30.2539,23.75 30.5469,23.4375 Q30.8398,23.125 31.1719,23.125 Q31.7578,23.125 32.1289,23.4766 Q32.5,23.8281 32.5,24.6484 L32.5,26.6016 Q32.5,27.4219 32.1484,27.7734 Q31.7969,28.125 31.25,28.125 Q30.7617,28.125 30.4492,27.9102 Q30.1367,27.6953 30,27.1289 Q29.9414,26.7383 29.7266,26.5234 Q29.3359,26.1133 28.6328,25.8789 Q27.9297,25.625 27.2266,25.625 Q26.3477,25.625 25.6055,25.9766 Q24.8828,26.3281 24.3164,27.1094 Q23.75,27.8906 23.75,28.9648 L23.75,30.1172 Q23.75,31.4063 24.8047,32.2656 Q25.8594,33.125 27.7344,33.125 Q28.8477,33.125 29.6289,32.8711 Q30.0781,32.7344 30.5859,32.2852 Q30.918,32.0313 31.0938,31.9531 Q31.2695,31.875 31.4844,31.875 Q31.8945,31.875 32.1875,32.207 Q32.5,32.5195 32.5,32.9688 Q32.5,33.3984 32.0703,33.9063 Q31.4453,34.6484 30.4492,35.0586 Q29.1406,35.625 27.5391,35.625 Q25.6641,35.625 24.1602,34.8828 Q22.9492,34.2969 22.0898,33.0273 Q21.25,31.7578 21.25,30.2539 L21.25,28.8867 Q21.25,27.3242 21.9922,25.957 Q22.7539,24.5898 24.0625,23.8672 Q25.3906,23.125 26.875,23.125 Q27.7734,23.125 28.5547,23.4375 Q29.3359,23.75 30,24.375 Z " fill="#000000"/><text fill="#000000" font-family="sans-serif" font-size="15" lengthAdjust="spacingAndGlyphs" textLength="57.5" x="45" y="34.8877">Platform</text><line style="stroke:#A80036;stroke-width:1.875;" x1="10" x2="105" y1="48.75" y2="48.75"/><!--MD5=[ed6624c6556d5e7b1bd23032162d20b7]
class Client--><rect codeLine="8" fill="#FEFECE" filter="url(#f1fqo4v0mkn2w1)" height="50" id="Client" style="stroke:#A80036;stroke-width:1.875;" width="80" x="226.25" y="8.75"/><ellipse cx="245" cy="28.75" fill="#ADD1B2" rx="13.75" ry="13.75" style="stroke:#A80036;stroke-width:1.25;"/><path d="M247.5,24.375 Q247.7539,23.75 248.0469,23.4375 Q248.3398,23.125 248.6719,23.125 Q249.2578,23.125 249.6289,23.4766 Q250,23.8281 250,24.6484 L250,26.6016 Q250,27.4219 249.6484,27.7734 Q249.2969,28.125 248.75,28.125 Q248.2617,28.125 247.9492,27.9102 Q247.6367,27.6953 247.5,27.1289 Q247.4414,26.7383 247.2266,26.5234 Q246.8359,26.1133 246.1328,25.8789 Q245.4297,25.625 244.7266,25.625 Q243.8477,25.625 243.1055,25.9766 Q242.3828,26.3281 241.8164,27.1094 Q241.25,27.8906 241.25,28.9648 L241.25,30.1172 Q241.25,31.4063 242.3047,32.2656 Q243.3594,33.125 245.2344,33.125 Q246.3477,33.125 247.1289,32.8711 Q247.5781,32.7344 248.0859,32.2852 Q248.418,32.0313 248.5938,31.9531 Q248.7695,31.875 248.9844,31.875 Q249.3945,31.875 249.6875,32.207 Q250,32.5195 250,32.9688 Q250,33.3984 249.5703,33.9063 Q248.9453,34.6484 247.9492,35.0586 Q246.6406,35.625 245.0391,35.625 Q243.1641,35.625 241.6602,34.8828 Q240.4492,34.2969 239.5898,33.0273 Q238.75,31.7578 238.75,30.2539 L238.75,28.8867 Q238.75,27.3242 239.4922,25.957 Q240.2539,24.5898 241.5625,23.8672 Q242.8906,23.125 244.375,23.125 Q245.2734,23.125 246.0547,23.4375 Q246.8359,23.75 247.5,24.375 Z " fill="#000000"/><text fill="#000000" font-family="sans-serif" font-size="15" lengthAdjust="spacingAndGlyphs" textLength="40" x="262.5" y="34.8877">Client</text><line style="stroke:#A80036;stroke-width:1.875;" x1="227.5" x2="305" y1="48.75" y2="48.75"/><!--MD5=[3fd616f346a44cd59a91eb10b19e157c]
class User--><rect codeLine="12" fill="#FEFECE" filter="url(#f1fqo4v0mkn2w1)" height="50" id="User" style="stroke:#A80036;stroke-width:1.875;" width="73.75" x="445" y="8.75"/><ellipse cx="463.75" cy="28.75" fill="#ADD1B2" rx="13.75" ry="13.75" style="stroke:#A80036;stroke-width:1.25;"/><path d="M466.25,24.375 Q466.5039,23.75 466.7969,23.4375 Q467.0898,23.125 467.4219,23.125 Q468.0078,23.125 468.3789,23.4766 Q468.75,23.8281 468.75,24.6484 L468.75,26.6016 Q468.75,27.4219 468.3984,27.7734 Q468.0469,28.125 467.5,28.125 Q467.0117,28.125 466.6992,27.9102 Q466.3867,27.6953 466.25,27.1289 Q466.1914,26.7383 465.9766,26.5234 Q465.5859,26.1133 464.8828,25.8789 Q464.1797,25.625 463.4766,25.625 Q462.5977,25.625 461.8555,25.9766 Q461.1328,26.3281 460.5664,27.1094 Q460,27.8906 460,28.9648 L460,30.1172 Q460,31.4063 461.0547,32.2656 Q462.1094,33.125 463.9844,33.125 Q465.0977,33.125 465.8789,32.8711 Q466.3281,32.7344 466.8359,32.2852 Q467.168,32.0313 467.3438,31.9531 Q467.5195,31.875 467.7344,31.875 Q468.1445,31.875 468.4375,32.207 Q468.75,32.5195 468.75,32.9688 Q468.75,33.3984 468.3203,33.9063 Q467.6953,34.6484 466.6992,35.0586 Q465.3906,35.625 463.7891,35.625 Q461.9141,35.625 460.4102,34.8828 Q459.1992,34.2969 458.3398,33.0273 Q457.5,31.7578 457.5,30.2539 L457.5,28.8867 Q457.5,27.3242 458.2422,25.957 Q459.0039,24.5898 460.3125,23.8672 Q461.6406,23.125 463.125,23.125 Q464.0234,23.125 464.8047,23.4375 Q465.5859,23.75 466.25,24.375 Z " fill="#000000"/><text fill="#000000" font-family="sans-serif" font-size="15" lengthAdjust="spacingAndGlyphs" textLength="33.75" x="481.25" y="34.8877">User</text><line style="stroke:#A80036;stroke-width:1.875;" x1="446.25" x2="517.5" y1="48.75" y2="48.75"/><!--MD5=[6f4f5a959b7eecf0b4982552d890dec0]
link Platform to Client--><path codeLine="14" d="M106.5875,33.75 C142.8875,33.75 192.15,33.75 226.05,33.75 " fill="none" id="Platform-Client" style="stroke:#A80036;stroke-width:1.25;"/><polygon fill="#000000" points="156.25,22.7197,144.9436,19.0461,144.9436,26.3934,156.25,22.7197" style="stroke:#000000;stroke-width:1.25;"/><text fill="#000000" font-family="sans-serif" font-size="16.25" lengthAdjust="spacingAndGlyphs" textLength="26.25" x="161.25" y="29.3689">has</text><text fill="#000000" font-family="sans-serif" font-size="16.25" lengthAdjust="spacingAndGlyphs" textLength="8.75" x="116.1105" y="52.4393">1</text><text fill="#000000" font-family="sans-serif" font-size="16.25" lengthAdjust="spacingAndGlyphs" textLength="25" x="191.3334" y="52.5032">0..*</text><!--MD5=[9a8dc34b38f85b9f3fcdb440f4bffc6a]
link Client to User--><path codeLine="15" d="M306.5875,33.75 C346.125,33.75 406.7125,33.75 444.975,33.75 " fill="none" id="Client-User" style="stroke:#A80036;stroke-width:1.25;"/><polygon fill="#000000" points="356.25,22.7197,344.9436,19.0461,344.9436,26.3934,356.25,22.7197" style="stroke:#000000;stroke-width:1.25;"/><text fill="#000000" font-family="sans-serif" font-size="16.25" lengthAdjust="spacingAndGlyphs" textLength="45" x="361.25" y="29.3689">act as</text><text fill="#000000" font-family="sans-serif" font-size="16.25" lengthAdjust="spacingAndGlyphs" textLength="8.75" x="316.3684" y="52.8545">1</text><text fill="#000000" font-family="sans-serif" font-size="16.25" lengthAdjust="spacingAndGlyphs" textLength="8.75" x="426.1642" y="53.11">1</text><!--MD5=[0074eda64dc9312ec437a05fa35f8703]
@startuml
hide methods
left to right direction

class Platform {

}

class Client {

}

class User {}

Platform "1" - - "0..*" Client: has >
Client "1" - - "1" User: act as >

@enduml

PlantUML version 1.2020.23(Sun Dec 13 19:14:58 GMT 2020)
(GPL source distribution)
Java Runtime: OpenJDK Runtime Environment
JVM: OpenJDK 64-Bit Server VM
Default Encoding: Cp1252
Language: pt
Country: PT
--></g></svg>