<?xml version="1.0" encoding="UTF-8" standalone="no"?><svg xmlns="http://www.w3.org/2000/svg" xmlns:xlink="http://www.w3.org/1999/xlink" contentScriptType="application/ecmascript" contentStyleType="text/css" height="558px" preserveAspectRatio="none" style="width:1656px;height:558px;" version="1.1" viewBox="0 0 1656 558" width="1656px" zoomAndPan="magnify"><defs><filter height="300%" id="flm91h1jdp9in" width="300%" x="-1" y="-1"><feGaussianBlur result="blurOut" stdDeviation="2.0"/><feColorMatrix in="blurOut" result="blurOut2" type="matrix" values="0 0 0 0 0 0 0 0 0 0 0 0 0 0 0 0 0 0 .4 0"/><feOffset dx="4.0" dy="4.0" in="blurOut2" result="blurOut3"/><feBlend in="SourceGraphic" in2="blurOut3" mode="normal"/></filter></defs><g><rect fill="#FFFFFF" filter="url(#flm91h1jdp9in)" height="355.5156" style="stroke:#A80036;stroke-width:1.0;" width="10" x="21" y="99.6094"/><rect fill="#FFFFFF" filter="url(#flm91h1jdp9in)" height="121.0547" style="stroke:#A80036;stroke-width:1.0;" width="10" x="336" y="121.9609"/><rect fill="#FFFFFF" filter="url(#flm91h1jdp9in)" height="181.7578" style="stroke:#A80036;stroke-width:1.0;" width="10" x="336" y="273.3672"/><rect fill="#FFFFFF" filter="url(#flm91h1jdp9in)" height="60.3516" style="stroke:#A80036;stroke-width:1.0;" width="10" x="667" y="152.3125"/><rect fill="#FFFFFF" filter="url(#flm91h1jdp9in)" height="121.0547" style="stroke:#A80036;stroke-width:1.0;" width="10" x="667" y="303.7188"/><rect fill="#FFFFFF" filter="url(#flm91h1jdp9in)" height="30" style="stroke:#A80036;stroke-width:1.0;" width="10" x="829.5" y="182.6641"/><rect fill="#FFFFFF" filter="url(#flm91h1jdp9in)" height="30.3516" style="stroke:#A80036;stroke-width:1.0;" width="10" x="1028" y="334.0703"/><rect fill="#FFFFFF" filter="url(#flm91h1jdp9in)" height="60.3516" style="stroke:#A80036;stroke-width:1.0;" width="10" x="1305" y="364.4219"/><rect fill="#FFFFFF" filter="url(#flm91h1jdp9in)" height="30" style="stroke:#A80036;stroke-width:1.0;" width="10" x="1582" y="394.7734"/><line style="stroke:#A80036;stroke-width:1.0;stroke-dasharray:5.0,5.0;" x1="26" x2="26" y1="89.6094" y2="473.125"/><line style="stroke:#A80036;stroke-width:1.0;stroke-dasharray:5.0,5.0;" x1="341" x2="341" y1="89.6094" y2="473.125"/><line style="stroke:#A80036;stroke-width:1.0;stroke-dasharray:5.0,5.0;" x1="672" x2="672" y1="89.6094" y2="473.125"/><line style="stroke:#A80036;stroke-width:1.0;stroke-dasharray:5.0,5.0;" x1="834" x2="834" y1="89.6094" y2="473.125"/><line style="stroke:#A80036;stroke-width:1.0;stroke-dasharray:5.0,5.0;" x1="925" x2="925" y1="89.6094" y2="473.125"/><line style="stroke:#A80036;stroke-width:1.0;stroke-dasharray:5.0,5.0;" x1="1033" x2="1033" y1="89.6094" y2="473.125"/><line style="stroke:#A80036;stroke-width:1.0;stroke-dasharray:5.0,5.0;" x1="1309.5" x2="1309.5" y1="89.6094" y2="473.125"/><line style="stroke:#A80036;stroke-width:1.0;stroke-dasharray:5.0,5.0;" x1="1586.5" x2="1586.5" y1="89.6094" y2="473.125"/><text fill="#000000" font-family="sans-serif" font-size="14" lengthAdjust="spacing" textLength="36" x="5" y="86.5332">Client</text><ellipse cx="26" cy="15" fill="#FEFECE" filter="url(#flm91h1jdp9in)" rx="8" ry="8" style="stroke:#A80036;stroke-width:2.0;"/><path d="M26,23 L26,50 M13,31 L39,31 M26,50 L13,65 M26,50 L39,65 " fill="none" filter="url(#flm91h1jdp9in)" style="stroke:#A80036;stroke-width:2.0;"/><text fill="#000000" font-family="sans-serif" font-size="14" lengthAdjust="spacing" textLength="36" x="5" y="486.6582">Client</text><ellipse cx="26" cy="499.7344" fill="#FEFECE" filter="url(#flm91h1jdp9in)" rx="8" ry="8" style="stroke:#A80036;stroke-width:2.0;"/><path d="M26,507.7344 L26,534.7344 M13,515.7344 L39,515.7344 M26,534.7344 L13,549.7344 M26,534.7344 L39,549.7344 " fill="none" filter="url(#flm91h1jdp9in)" style="stroke:#A80036;stroke-width:2.0;"/><rect fill="#FEFECE" filter="url(#flm91h1jdp9in)" height="31.6094" style="stroke:#A80036;stroke-width:1.5;" width="160" x="259" y="53"/><text fill="#000000" font-family="sans-serif" font-size="14" lengthAdjust="spacing" textLength="146" x="266" y="74.5332">:CheckScooterBateryUI</text><rect fill="#FEFECE" filter="url(#flm91h1jdp9in)" height="31.6094" style="stroke:#A80036;stroke-width:1.5;" width="160" x="259" y="472.125"/><text fill="#000000" font-family="sans-serif" font-size="14" lengthAdjust="spacing" textLength="146" x="266" y="493.6582">:CheckScooterBateryUI</text><rect fill="#FEFECE" filter="url(#flm91h1jdp9in)" height="31.6094" style="stroke:#A80036;stroke-width:1.5;" width="210" x="565" y="53"/><text fill="#000000" font-family="sans-serif" font-size="14" lengthAdjust="spacing" textLength="196" x="572" y="74.5332">:CheckScooterBateryController</text><rect fill="#FEFECE" filter="url(#flm91h1jdp9in)" height="31.6094" style="stroke:#A80036;stroke-width:1.5;" width="210" x="565" y="472.125"/><text fill="#000000" font-family="sans-serif" font-size="14" lengthAdjust="spacing" textLength="196" x="572" y="493.6582">:CheckScooterBateryController</text><rect fill="#FEFECE" filter="url(#flm91h1jdp9in)" height="31.6094" style="stroke:#A80036;stroke-width:1.5;" width="87" x="789" y="53"/><text fill="#000000" font-family="sans-serif" font-size="14" lengthAdjust="spacing" textLength="73" x="796" y="74.5332">:Application</text><rect fill="#FEFECE" filter="url(#flm91h1jdp9in)" height="31.6094" style="stroke:#A80036;stroke-width:1.5;" width="87" x="789" y="472.125"/><text fill="#000000" font-family="sans-serif" font-size="14" lengthAdjust="spacing" textLength="73" x="796" y="493.6582">:Application</text><rect fill="#FEFECE" filter="url(#flm91h1jdp9in)" height="31.6094" style="stroke:#A80036;stroke-width:1.5;" width="67" x="890" y="53"/><text fill="#000000" font-family="sans-serif" font-size="14" lengthAdjust="spacing" textLength="53" x="897" y="74.5332">:Scooter</text><rect fill="#FEFECE" filter="url(#flm91h1jdp9in)" height="31.6094" style="stroke:#A80036;stroke-width:1.5;" width="67" x="890" y="472.125"/><text fill="#000000" font-family="sans-serif" font-size="14" lengthAdjust="spacing" textLength="53" x="897" y="493.6582">:Scooter</text><rect fill="#FEFECE" filter="url(#flm91h1jdp9in)" height="31.6094" style="stroke:#A80036;stroke-width:1.5;" width="120" x="971" y="53"/><text fill="#000000" font-family="sans-serif" font-size="14" lengthAdjust="spacing" textLength="106" x="978" y="74.5332">:ScooterRegister</text><rect fill="#FEFECE" filter="url(#flm91h1jdp9in)" height="31.6094" style="stroke:#A80036;stroke-width:1.5;" width="120" x="971" y="472.125"/><text fill="#000000" font-family="sans-serif" font-size="14" lengthAdjust="spacing" textLength="106" x="978" y="493.6582">:ScooterRegister</text><rect fill="#FEFECE" filter="url(#flm91h1jdp9in)" height="31.6094" style="stroke:#A80036;stroke-width:1.5;" width="149" x="1233.5" y="53"/><text fill="#000000" font-family="sans-serif" font-size="14" lengthAdjust="spacing" textLength="135" x="1240.5" y="74.5332">:ScooterParkRegister</text><rect fill="#FEFECE" filter="url(#flm91h1jdp9in)" height="31.6094" style="stroke:#A80036;stroke-width:1.5;" width="149" x="1233.5" y="472.125"/><text fill="#000000" font-family="sans-serif" font-size="14" lengthAdjust="spacing" textLength="135" x="1240.5" y="493.6582">:ScooterParkRegister</text><rect fill="#FEFECE" filter="url(#flm91h1jdp9in)" height="31.6094" style="stroke:#A80036;stroke-width:1.5;" width="115" x="1527.5" y="53"/><text fill="#000000" font-family="sans-serif" font-size="14" lengthAdjust="spacing" textLength="101" x="1534.5" y="74.5332">:ScooterParkDB</text><rect fill="#FEFECE" filter="url(#flm91h1jdp9in)" height="31.6094" style="stroke:#A80036;stroke-width:1.5;" width="115" x="1527.5" y="472.125"/><text fill="#000000" font-family="sans-serif" font-size="14" lengthAdjust="spacing" textLength="101" x="1534.5" y="493.6582">:ScooterParkDB</text><rect fill="#FFFFFF" filter="url(#flm91h1jdp9in)" height="355.5156" style="stroke:#A80036;stroke-width:1.0;" width="10" x="21" y="99.6094"/><rect fill="#FFFFFF" filter="url(#flm91h1jdp9in)" height="121.0547" style="stroke:#A80036;stroke-width:1.0;" width="10" x="336" y="121.9609"/><rect fill="#FFFFFF" filter="url(#flm91h1jdp9in)" height="181.7578" style="stroke:#A80036;stroke-width:1.0;" width="10" x="336" y="273.3672"/><rect fill="#FFFFFF" filter="url(#flm91h1jdp9in)" height="60.3516" style="stroke:#A80036;stroke-width:1.0;" width="10" x="667" y="152.3125"/><rect fill="#FFFFFF" filter="url(#flm91h1jdp9in)" height="121.0547" style="stroke:#A80036;stroke-width:1.0;" width="10" x="667" y="303.7188"/><rect fill="#FFFFFF" filter="url(#flm91h1jdp9in)" height="30" style="stroke:#A80036;stroke-width:1.0;" width="10" x="829.5" y="182.6641"/><rect fill="#FFFFFF" filter="url(#flm91h1jdp9in)" height="30.3516" style="stroke:#A80036;stroke-width:1.0;" width="10" x="1028" y="334.0703"/><rect fill="#FFFFFF" filter="url(#flm91h1jdp9in)" height="60.3516" style="stroke:#A80036;stroke-width:1.0;" width="10" x="1305" y="364.4219"/><rect fill="#FFFFFF" filter="url(#flm91h1jdp9in)" height="30" style="stroke:#A80036;stroke-width:1.0;" width="10" x="1582" y="394.7734"/><polygon fill="#A80036" points="324,117.9609,334,121.9609,324,125.9609,328,121.9609" style="stroke:#A80036;stroke-width:1.0;"/><line style="stroke:#A80036;stroke-width:1.0;" x1="31" x2="330" y1="121.9609" y2="121.9609"/><text fill="#000000" font-family="sans-serif" font-size="13" font-weight="bold" lengthAdjust="spacing" textLength="7" x="38" y="117.1045">1</text><text fill="#000000" font-family="sans-serif" font-size="13" lengthAdjust="spacing" textLength="160" x="49" y="117.1045">Access the ScooterParkDB</text><polygon fill="#A80036" points="655,148.3125,665,152.3125,655,156.3125,659,152.3125" style="stroke:#A80036;stroke-width:1.0;"/><line style="stroke:#A80036;stroke-width:1.0;" x1="346" x2="661" y1="152.3125" y2="152.3125"/><text fill="#000000" font-family="sans-serif" font-size="13" font-weight="bold" lengthAdjust="spacing" textLength="7" x="353" y="147.4561">2</text><text fill="#000000" font-family="sans-serif" font-size="13" lengthAdjust="spacing" textLength="116" x="364" y="147.4561">getScooterParkDB()</text><polygon fill="#A80036" points="817.5,178.6641,827.5,182.6641,817.5,186.6641,821.5,182.6641" style="stroke:#A80036;stroke-width:1.0;"/><line style="stroke:#A80036;stroke-width:1.0;" x1="677" x2="823.5" y1="182.6641" y2="182.6641"/><text fill="#000000" font-family="sans-serif" font-size="13" font-weight="bold" lengthAdjust="spacing" textLength="7" x="684" y="177.8076">3</text><text fill="#000000" font-family="sans-serif" font-size="13" lengthAdjust="spacing" textLength="116" x="695" y="177.8076">getScooterParkDB()</text><polygon fill="#A80036" points="42,239.0156,32,243.0156,42,247.0156,38,243.0156" style="stroke:#A80036;stroke-width:1.0;"/><line style="stroke:#A80036;stroke-width:1.0;stroke-dasharray:2.0,2.0;" x1="36" x2="340" y1="243.0156" y2="243.0156"/><text fill="#000000" font-family="sans-serif" font-size="13" font-weight="bold" lengthAdjust="spacing" textLength="7" x="48" y="238.1592">4</text><text fill="#000000" font-family="sans-serif" font-size="13" lengthAdjust="spacing" textLength="115" x="59" y="238.1592">Shows the scooters</text><polygon fill="#A80036" points="324,269.3672,334,273.3672,324,277.3672,328,273.3672" style="stroke:#A80036;stroke-width:1.0;"/><line style="stroke:#A80036;stroke-width:1.0;" x1="31" x2="330" y1="273.3672" y2="273.3672"/><text fill="#000000" font-family="sans-serif" font-size="13" font-weight="bold" lengthAdjust="spacing" textLength="7" x="38" y="268.5107">5</text><text fill="#000000" font-family="sans-serif" font-size="13" lengthAdjust="spacing" textLength="275" x="49" y="268.5107">Choose the scooter in order to know her battery</text><polygon fill="#A80036" points="655,299.7188,665,303.7188,655,307.7188,659,303.7188" style="stroke:#A80036;stroke-width:1.0;"/><line style="stroke:#A80036;stroke-width:1.0;stroke-dasharray:2.0,2.0;" x1="346" x2="661" y1="303.7188" y2="303.7188"/><text fill="#000000" font-family="sans-serif" font-size="13" font-weight="bold" lengthAdjust="spacing" textLength="7" x="353" y="298.8623">6</text><text fill="#000000" font-family="sans-serif" font-size="13" lengthAdjust="spacing" textLength="291" x="364" y="298.8623">checkScootersParkedBatterys(scooterId, pharNIF)</text><polygon fill="#A80036" points="1016,330.0703,1026,334.0703,1016,338.0703,1020,334.0703" style="stroke:#A80036;stroke-width:1.0;"/><line style="stroke:#A80036;stroke-width:1.0;stroke-dasharray:2.0,2.0;" x1="677" x2="1022" y1="334.0703" y2="334.0703"/><text fill="#000000" font-family="sans-serif" font-size="13" font-weight="bold" lengthAdjust="spacing" textLength="7" x="684" y="329.2139">7</text><text fill="#000000" font-family="sans-serif" font-size="13" lengthAdjust="spacing" textLength="291" x="695" y="329.2139">checkScootersParkedBatterys(scooterId, pharNIF)</text><polygon fill="#A80036" points="1293,360.4219,1303,364.4219,1293,368.4219,1297,364.4219" style="stroke:#A80036;stroke-width:1.0;"/><line style="stroke:#A80036;stroke-width:1.0;stroke-dasharray:2.0,2.0;" x1="1033" x2="1299" y1="364.4219" y2="364.4219"/><text fill="#000000" font-family="sans-serif" font-size="13" font-weight="bold" lengthAdjust="spacing" textLength="7" x="1040" y="359.5654">8</text><text fill="#000000" font-family="sans-serif" font-size="13" lengthAdjust="spacing" textLength="237" x="1051" y="359.5654">getScootertParkedOnPharmacy(pharNIF)</text><polygon fill="#A80036" points="1570,390.7734,1580,394.7734,1570,398.7734,1574,394.7734" style="stroke:#A80036;stroke-width:1.0;"/><line style="stroke:#A80036;stroke-width:1.0;stroke-dasharray:2.0,2.0;" x1="1315" x2="1576" y1="394.7734" y2="394.7734"/><text fill="#000000" font-family="sans-serif" font-size="13" font-weight="bold" lengthAdjust="spacing" textLength="7" x="1322" y="389.917">9</text><text fill="#000000" font-family="sans-serif" font-size="13" lengthAdjust="spacing" textLength="237" x="1333" y="389.917">getScootertParkedOnPharmacy(pharNIF)</text><polygon fill="#A80036" points="37,451.125,27,455.125,37,459.125,33,455.125" style="stroke:#A80036;stroke-width:1.0;"/><line style="stroke:#A80036;stroke-width:1.0;stroke-dasharray:2.0,2.0;" x1="31" x2="340" y1="455.125" y2="455.125"/><text fill="#000000" font-family="sans-serif" font-size="13" font-weight="bold" lengthAdjust="spacing" textLength="14" x="43" y="450.2686">10</text><text fill="#000000" font-family="sans-serif" font-size="13" lengthAdjust="spacing" textLength="163" x="61" y="450.2686">presents the scooter battery</text><!--MD5=[de6db95a691e25a6be096a5902d6f3be]
@startuml
autonumber

actor "Client" as CLI
participant ":CheckScooterBateryUI" as UI
participant ":CheckScooterBateryController" as CTRL
participant ":Application" as SYS
participant ":Scooter" as S
participant ":ScooterParkRegister" as SPR
participant ":ScooterRegister" as SR
participant ":ScooterParkRegister" as SPR
participant ":ScooterParkDB" as SPDB

activate CLI
CLI -> UI : Access the ScooterParkDB
activate UI

UI -> CTRL : getScooterParkDB()
activate CTRL
CTRL-> SYS:getScooterParkDB()
activate SYS
deactivate SYS


deactivate CTRL


UI - -> CLI :Shows the scooters

deactivate UI

CLI -> UI : Choose the scooter in order to know her battery
activate UI

UI - ->CTRL :checkScootersParkedBatterys(scooterId, pharNIF)
activate  CTRL

CTRL - -> SR: checkScootersParkedBatterys(scooterId, pharNIF)
activate SR

SR- ->SPR:getScootertParkedOnPharmacy(pharNIF)
deactivate SR

activate SPR

SPR- ->SPDB:getScootertParkedOnPharmacy(pharNIF)
activate SPDB
deactivate CTRL
deactivate SPR
deactivate SPDB

UI - -> CLI : presents the scooter battery

deactivate UI


deactivate CTRL

deactivate UI

deactivate CLI
@enduml

PlantUML version 1.2021.00(Sun Jan 10 10:25:05 GMT 2021)
(GPL source distribution)
Java Runtime: OpenJDK Runtime Environment
JVM: OpenJDK 64-Bit Server VM
Default Encoding: Cp1252
Language: pt
Country: PT
--></g></svg>