<?xml version="1.0" encoding="UTF-8" standalone="no"?><svg xmlns="http://www.w3.org/2000/svg" xmlns:xlink="http://www.w3.org/1999/xlink" contentScriptType="application/ecmascript" contentStyleType="text/css" height="316px" preserveAspectRatio="none" style="width:398px;height:316px;" version="1.1" viewBox="0 0 398 316" width="398px" zoomAndPan="magnify"><defs><filter height="300%" id="f84m3g5459czf" width="300%" x="-1" y="-1"><feGaussianBlur result="blurOut" stdDeviation="2.0"/><feColorMatrix in="blurOut" result="blurOut2" type="matrix" values="0 0 0 0 0 0 0 0 0 0 0 0 0 0 0 0 0 0 .4 0"/><feOffset dx="4.0" dy="4.0" in="blurOut2" result="blurOut3"/><feBlend in="SourceGraphic" in2="blurOut3" mode="normal"/></filter></defs><g><rect fill="#FFFFFF" filter="url(#f84m3g5459czf)" height="113.4063" style="stroke:#A80036;stroke-width:1.0;" width="10" x="34.5" y="99.6094"/><rect fill="#FFFFFF" filter="url(#f84m3g5459czf)" height="30.3516" style="stroke:#A80036;stroke-width:1.0;" width="10" x="349.5" y="121.9609"/><rect fill="#FFFFFF" filter="url(#f84m3g5459czf)" height="30.3516" style="stroke:#A80036;stroke-width:1.0;" width="10" x="349.5" y="182.6641"/><line style="stroke:#A80036;stroke-width:1.0;stroke-dasharray:5.0,5.0;" x1="39" x2="39" y1="89.6094" y2="231.0156"/><line style="stroke:#A80036;stroke-width:1.0;stroke-dasharray:5.0,5.0;" x1="354.5" x2="354.5" y1="89.6094" y2="231.0156"/><text fill="#000000" font-family="sans-serif" font-size="14" lengthAdjust="spacing" textLength="63" x="5" y="86.5332">Pharmacy</text><ellipse cx="39.5" cy="15" fill="#FEFECE" filter="url(#f84m3g5459czf)" rx="8" ry="8" style="stroke:#A80036;stroke-width:2.0;"/><path d="M39.5,23 L39.5,50 M26.5,31 L52.5,31 M39.5,50 L26.5,65 M39.5,50 L52.5,65 " fill="none" filter="url(#f84m3g5459czf)" style="stroke:#A80036;stroke-width:2.0;"/><text fill="#000000" font-family="sans-serif" font-size="14" lengthAdjust="spacing" textLength="63" x="5" y="244.5488">Pharmacy</text><ellipse cx="39.5" cy="257.625" fill="#FEFECE" filter="url(#f84m3g5459czf)" rx="8" ry="8" style="stroke:#A80036;stroke-width:2.0;"/><path d="M39.5,265.625 L39.5,292.625 M26.5,273.625 L52.5,273.625 M39.5,292.625 L26.5,307.625 M39.5,292.625 L52.5,307.625 " fill="none" filter="url(#f84m3g5459czf)" style="stroke:#A80036;stroke-width:2.0;"/><rect fill="#FEFECE" filter="url(#f84m3g5459czf)" height="31.6094" style="stroke:#A80036;stroke-width:1.5;" width="64" x="320.5" y="53"/><text fill="#000000" font-family="sans-serif" font-size="14" lengthAdjust="spacing" textLength="50" x="327.5" y="74.5332">:System</text><rect fill="#FEFECE" filter="url(#f84m3g5459czf)" height="31.6094" style="stroke:#A80036;stroke-width:1.5;" width="64" x="320.5" y="230.0156"/><text fill="#000000" font-family="sans-serif" font-size="14" lengthAdjust="spacing" textLength="50" x="327.5" y="251.5488">:System</text><rect fill="#FFFFFF" filter="url(#f84m3g5459czf)" height="113.4063" style="stroke:#A80036;stroke-width:1.0;" width="10" x="34.5" y="99.6094"/><rect fill="#FFFFFF" filter="url(#f84m3g5459czf)" height="30.3516" style="stroke:#A80036;stroke-width:1.0;" width="10" x="349.5" y="121.9609"/><rect fill="#FFFFFF" filter="url(#f84m3g5459czf)" height="30.3516" style="stroke:#A80036;stroke-width:1.0;" width="10" x="349.5" y="182.6641"/><polygon fill="#A80036" points="337.5,117.9609,347.5,121.9609,337.5,125.9609,341.5,121.9609" style="stroke:#A80036;stroke-width:1.0;"/><line style="stroke:#A80036;stroke-width:1.0;" x1="44.5" x2="343.5" y1="121.9609" y2="121.9609"/><text fill="#000000" font-family="sans-serif" font-size="13" font-weight="bold" lengthAdjust="spacing" textLength="7" x="51.5" y="117.1045">1</text><text fill="#000000" font-family="sans-serif" font-size="13" lengthAdjust="spacing" textLength="160" x="62.5" y="117.1045">Access the ScooterParkDB</text><polygon fill="#A80036" points="55.5,148.3125,45.5,152.3125,55.5,156.3125,51.5,152.3125" style="stroke:#A80036;stroke-width:1.0;"/><line style="stroke:#A80036;stroke-width:1.0;stroke-dasharray:2.0,2.0;" x1="49.5" x2="353.5" y1="152.3125" y2="152.3125"/><text fill="#000000" font-family="sans-serif" font-size="13" font-weight="bold" lengthAdjust="spacing" textLength="7" x="61.5" y="147.4561">2</text><text fill="#000000" font-family="sans-serif" font-size="13" lengthAdjust="spacing" textLength="115" x="72.5" y="147.4561">Shows the scooters</text><polygon fill="#A80036" points="337.5,178.6641,347.5,182.6641,337.5,186.6641,341.5,182.6641" style="stroke:#A80036;stroke-width:1.0;"/><line style="stroke:#A80036;stroke-width:1.0;" x1="44.5" x2="343.5" y1="182.6641" y2="182.6641"/><text fill="#000000" font-family="sans-serif" font-size="13" font-weight="bold" lengthAdjust="spacing" textLength="7" x="51.5" y="177.8076">3</text><text fill="#000000" font-family="sans-serif" font-size="13" lengthAdjust="spacing" textLength="275" x="62.5" y="177.8076">Choose the scooter in order to know her battery</text><polygon fill="#A80036" points="50.5,209.0156,40.5,213.0156,50.5,217.0156,46.5,213.0156" style="stroke:#A80036;stroke-width:1.0;"/><line style="stroke:#A80036;stroke-width:1.0;stroke-dasharray:2.0,2.0;" x1="44.5" x2="353.5" y1="213.0156" y2="213.0156"/><text fill="#000000" font-family="sans-serif" font-size="13" font-weight="bold" lengthAdjust="spacing" textLength="7" x="56.5" y="208.1592">4</text><text fill="#000000" font-family="sans-serif" font-size="13" lengthAdjust="spacing" textLength="163" x="67.5" y="208.1592">presents the scooter battery</text><!--MD5=[287a8f9ee9622edc2528ef392306920e]
@startuml
autonumber
actor "Pharmacy" as Pharmacy
participant ":System" as STM
activate Pharmacy

Pharmacy-> STM :Access the ScooterParkDB
activate STM
STM - -> Pharmacy :Shows the scooters
deactivate STM

Pharmacy-> STM :Choose the scooter in order to know her battery
activate STM
STM - -> Pharmacy :presents the scooter battery
deactivate STM
deactivate Pharmacy
@enduml

PlantUML version 1.2021.00(Sun Jan 10 10:25:05 GMT 2021)
(GPL source distribution)
Java Runtime: OpenJDK Runtime Environment
JVM: OpenJDK 64-Bit Server VM
Default Encoding: Cp1252
Language: pt
Country: PT
--></g></svg>