<?xml version="1.0" encoding="UTF-8" standalone="no"?><svg xmlns="http://www.w3.org/2000/svg" xmlns:xlink="http://www.w3.org/1999/xlink" contentScriptType="application/ecmascript" contentStyleType="text/css" height="570px" preserveAspectRatio="none" style="width:447px;height:570px;" version="1.1" viewBox="0 0 447 570" width="447px" zoomAndPan="magnify"><defs><filter height="300%" id="f1hbzv6d7gaf06" width="300%" x="-1" y="-1"><feGaussianBlur result="blurOut" stdDeviation="2.0"/><feColorMatrix in="blurOut" result="blurOut2" type="matrix" values="0 0 0 0 0 0 0 0 0 0 0 0 0 0 0 0 0 0 .4 0"/><feOffset dx="4.0" dy="4.0" in="blurOut2" result="blurOut3"/><feBlend in="SourceGraphic" in2="blurOut3" mode="normal"/></filter></defs><g><!--MD5=[63a7df61aeebc91233ad6342c4d84e25]
class CheckScooterBateryUI--><rect codeLine="3" fill="#FEFECE" filter="url(#f1hbzv6d7gaf06)" height="48" id="CheckScooterBateryUI" style="stroke:#A80036;stroke-width:1.5;" width="155" x="105.5" y="7"/><ellipse cx="120.5" cy="23" fill="#ADD1B2" rx="11" ry="11" style="stroke:#A80036;stroke-width:1.0;"/><path d="M122.5,19.5 Q122.7031,19 122.9375,18.75 Q123.1719,18.5 123.4375,18.5 Q123.9063,18.5 124.2031,18.7813 Q124.5,19.0625 124.5,19.7188 L124.5,21.2813 Q124.5,21.9375 124.2188,22.2188 Q123.9375,22.5 123.5,22.5 Q123.1094,22.5 122.8594,22.3281 Q122.6094,22.1563 122.5,21.7031 Q122.4531,21.3906 122.2813,21.2188 Q121.9688,20.8906 121.4063,20.7031 Q120.8438,20.5 120.2813,20.5 Q119.5781,20.5 118.9844,20.7813 Q118.4063,21.0625 117.9531,21.6875 Q117.5,22.3125 117.5,23.1719 L117.5,24.0938 Q117.5,25.125 118.3438,25.8125 Q119.1875,26.5 120.6875,26.5 Q121.5781,26.5 122.2031,26.2969 Q122.5625,26.1875 122.9688,25.8281 Q123.2344,25.625 123.375,25.5625 Q123.5156,25.5 123.6875,25.5 Q124.0156,25.5 124.25,25.7656 Q124.5,26.0156 124.5,26.375 Q124.5,26.7188 124.1563,27.125 Q123.6563,27.7188 122.8594,28.0469 Q121.8125,28.5 120.5313,28.5 Q119.0313,28.5 117.8281,27.9063 Q116.8594,27.4375 116.1719,26.4219 Q115.5,25.4063 115.5,24.2031 L115.5,23.1094 Q115.5,21.8594 116.0938,20.7656 Q116.7031,19.6719 117.75,19.0938 Q118.8125,18.5 120,18.5 Q120.7188,18.5 121.3438,18.75 Q121.9688,19 122.5,19.5 Z " fill="#000000"/><text fill="#000000" font-family="sans-serif" font-size="12" lengthAdjust="spacing" textLength="123" x="134.5" y="27.9102">CheckScooterBateryUI</text><line style="stroke:#A80036;stroke-width:1.5;" x1="106.5" x2="259.5" y1="39" y2="39"/><line style="stroke:#A80036;stroke-width:1.5;" x1="106.5" x2="259.5" y1="47" y2="47"/><!--MD5=[76259b89fd1ff82cff0c7f30c7595260]
class CheckScooterBateryController--><rect codeLine="6" fill="#FEFECE" filter="url(#f1hbzv6d7gaf06)" height="75.6719" id="CheckScooterBateryController" style="stroke:#A80036;stroke-width:1.5;" width="269" x="48.5" y="115"/><ellipse cx="96.25" cy="131" fill="#ADD1B2" rx="11" ry="11" style="stroke:#A80036;stroke-width:1.0;"/><path d="M98.25,127.5 Q98.4531,127 98.6875,126.75 Q98.9219,126.5 99.1875,126.5 Q99.6563,126.5 99.9531,126.7813 Q100.25,127.0625 100.25,127.7188 L100.25,129.2813 Q100.25,129.9375 99.9688,130.2188 Q99.6875,130.5 99.25,130.5 Q98.8594,130.5 98.6094,130.3281 Q98.3594,130.1563 98.25,129.7031 Q98.2031,129.3906 98.0313,129.2188 Q97.7188,128.8906 97.1563,128.7031 Q96.5938,128.5 96.0313,128.5 Q95.3281,128.5 94.7344,128.7813 Q94.1563,129.0625 93.7031,129.6875 Q93.25,130.3125 93.25,131.1719 L93.25,132.0938 Q93.25,133.125 94.0938,133.8125 Q94.9375,134.5 96.4375,134.5 Q97.3281,134.5 97.9531,134.2969 Q98.3125,134.1875 98.7188,133.8281 Q98.9844,133.625 99.125,133.5625 Q99.2656,133.5 99.4375,133.5 Q99.7656,133.5 100,133.7656 Q100.25,134.0156 100.25,134.375 Q100.25,134.7188 99.9063,135.125 Q99.4063,135.7188 98.6094,136.0469 Q97.5625,136.5 96.2813,136.5 Q94.7813,136.5 93.5781,135.9063 Q92.6094,135.4375 91.9219,134.4219 Q91.25,133.4063 91.25,132.2031 L91.25,131.1094 Q91.25,129.8594 91.8438,128.7656 Q92.4531,127.6719 93.5,127.0938 Q94.5625,126.5 95.75,126.5 Q96.4688,126.5 97.0938,126.75 Q97.7188,127 98.25,127.5 Z " fill="#000000"/><text fill="#000000" font-family="sans-serif" font-size="12" lengthAdjust="spacing" textLength="165" x="116.75" y="135.9102">CheckScooterBateryController</text><line style="stroke:#A80036;stroke-width:1.5;" x1="49.5" x2="316.5" y1="147" y2="147"/><line style="stroke:#A80036;stroke-width:1.5;" x1="49.5" x2="316.5" y1="155" y2="155"/><ellipse cx="59.5" cy="166" fill="#84BE84" rx="3" ry="3" style="stroke:#038048;stroke-width:1.0;"/><text fill="#000000" font-family="sans-serif" font-size="11" lengthAdjust="spacing" textLength="96" x="68.5" y="170.4189">getScooterParkDB()</text><ellipse cx="59.5" cy="179.8359" fill="#84BE84" rx="3" ry="3" style="stroke:#038048;stroke-width:1.0;"/><text fill="#000000" font-family="sans-serif" font-size="11" lengthAdjust="spacing" textLength="243" x="68.5" y="184.2549">checkScootersParkedBatterys(scooterId, pharNIF)</text><!--MD5=[0b4e4b4980470ea387cc45de9bd14b5b]
class Application--><rect codeLine="12" fill="#FEFECE" filter="url(#f1hbzv6d7gaf06)" height="61.8359" id="Application" style="stroke:#A80036;stroke-width:1.5;" width="122" x="7" y="251"/><ellipse cx="35.5" cy="267" fill="#ADD1B2" rx="11" ry="11" style="stroke:#A80036;stroke-width:1.0;"/><path d="M37.5,263.5 Q37.7031,263 37.9375,262.75 Q38.1719,262.5 38.4375,262.5 Q38.9063,262.5 39.2031,262.7813 Q39.5,263.0625 39.5,263.7188 L39.5,265.2813 Q39.5,265.9375 39.2188,266.2188 Q38.9375,266.5 38.5,266.5 Q38.1094,266.5 37.8594,266.3281 Q37.6094,266.1563 37.5,265.7031 Q37.4531,265.3906 37.2813,265.2188 Q36.9688,264.8906 36.4063,264.7031 Q35.8438,264.5 35.2813,264.5 Q34.5781,264.5 33.9844,264.7813 Q33.4063,265.0625 32.9531,265.6875 Q32.5,266.3125 32.5,267.1719 L32.5,268.0938 Q32.5,269.125 33.3438,269.8125 Q34.1875,270.5 35.6875,270.5 Q36.5781,270.5 37.2031,270.2969 Q37.5625,270.1875 37.9688,269.8281 Q38.2344,269.625 38.375,269.5625 Q38.5156,269.5 38.6875,269.5 Q39.0156,269.5 39.25,269.7656 Q39.5,270.0156 39.5,270.375 Q39.5,270.7188 39.1563,271.125 Q38.6563,271.7188 37.8594,272.0469 Q36.8125,272.5 35.5313,272.5 Q34.0313,272.5 32.8281,271.9063 Q31.8594,271.4375 31.1719,270.4219 Q30.5,269.4063 30.5,268.2031 L30.5,267.1094 Q30.5,265.8594 31.0938,264.7656 Q31.7031,263.6719 32.75,263.0938 Q33.8125,262.5 35,262.5 Q35.7188,262.5 36.3438,262.75 Q36.9688,263 37.5,263.5 Z " fill="#000000"/><text fill="#000000" font-family="sans-serif" font-size="12" lengthAdjust="spacing" textLength="60" x="52.5" y="271.9102">Application</text><line style="stroke:#A80036;stroke-width:1.5;" x1="8" x2="128" y1="283" y2="283"/><line style="stroke:#A80036;stroke-width:1.5;" x1="8" x2="128" y1="291" y2="291"/><ellipse cx="18" cy="302" fill="#84BE84" rx="3" ry="3" style="stroke:#038048;stroke-width:1.0;"/><text fill="#000000" font-family="sans-serif" font-size="11" lengthAdjust="spacing" textLength="96" x="27" y="306.4189">getScooterParkDB()</text><!--MD5=[d64bb5e0c3d209373558050b41496173]
class ScooterParkRegister--><rect codeLine="26" fill="#FEFECE" filter="url(#f1hbzv6d7gaf06)" height="61.8359" id="ScooterParkRegister" style="stroke:#A80036;stroke-width:1.5;" width="222" x="188" y="373"/><ellipse cx="237.75" cy="389" fill="#ADD1B2" rx="11" ry="11" style="stroke:#A80036;stroke-width:1.0;"/><path d="M239.75,385.5 Q239.9531,385 240.1875,384.75 Q240.4219,384.5 240.6875,384.5 Q241.1563,384.5 241.4531,384.7813 Q241.75,385.0625 241.75,385.7188 L241.75,387.2813 Q241.75,387.9375 241.4688,388.2188 Q241.1875,388.5 240.75,388.5 Q240.3594,388.5 240.1094,388.3281 Q239.8594,388.1563 239.75,387.7031 Q239.7031,387.3906 239.5313,387.2188 Q239.2188,386.8906 238.6563,386.7031 Q238.0938,386.5 237.5313,386.5 Q236.8281,386.5 236.2344,386.7813 Q235.6563,387.0625 235.2031,387.6875 Q234.75,388.3125 234.75,389.1719 L234.75,390.0938 Q234.75,391.125 235.5938,391.8125 Q236.4375,392.5 237.9375,392.5 Q238.8281,392.5 239.4531,392.2969 Q239.8125,392.1875 240.2188,391.8281 Q240.4844,391.625 240.625,391.5625 Q240.7656,391.5 240.9375,391.5 Q241.2656,391.5 241.5,391.7656 Q241.75,392.0156 241.75,392.375 Q241.75,392.7188 241.4063,393.125 Q240.9063,393.7188 240.1094,394.0469 Q239.0625,394.5 237.7813,394.5 Q236.2813,394.5 235.0781,393.9063 Q234.1094,393.4375 233.4219,392.4219 Q232.75,391.4063 232.75,390.2031 L232.75,389.1094 Q232.75,387.8594 233.3438,386.7656 Q233.9531,385.6719 235,385.0938 Q236.0625,384.5 237.25,384.5 Q237.9688,384.5 238.5938,384.75 Q239.2188,385 239.75,385.5 Z " fill="#000000"/><text fill="#000000" font-family="sans-serif" font-size="12" lengthAdjust="spacing" textLength="114" x="258.25" y="393.9102">ScooterParkRegister</text><line style="stroke:#A80036;stroke-width:1.5;" x1="189" x2="409" y1="405" y2="405"/><line style="stroke:#A80036;stroke-width:1.5;" x1="189" x2="409" y1="413" y2="413"/><ellipse cx="199" cy="424" fill="#84BE84" rx="3" ry="3" style="stroke:#038048;stroke-width:1.0;"/><text fill="#000000" font-family="sans-serif" font-size="11" lengthAdjust="spacing" textLength="196" x="208" y="428.4189">getScootertParkedOnPharmacy(pharNIF)</text><!--MD5=[8a0a4b0fede60572e02e517e85bd7039]
class ScooterRegister--><rect codeLine="21" fill="#FEFECE" filter="url(#f1hbzv6d7gaf06)" height="61.8359" id="ScooterRegister" style="stroke:#A80036;stroke-width:1.5;" width="269" x="164.5" y="251"/><ellipse cx="250.25" cy="267" fill="#ADD1B2" rx="11" ry="11" style="stroke:#A80036;stroke-width:1.0;"/><path d="M252.25,263.5 Q252.4531,263 252.6875,262.75 Q252.9219,262.5 253.1875,262.5 Q253.6563,262.5 253.9531,262.7813 Q254.25,263.0625 254.25,263.7188 L254.25,265.2813 Q254.25,265.9375 253.9688,266.2188 Q253.6875,266.5 253.25,266.5 Q252.8594,266.5 252.6094,266.3281 Q252.3594,266.1563 252.25,265.7031 Q252.2031,265.3906 252.0313,265.2188 Q251.7188,264.8906 251.1563,264.7031 Q250.5938,264.5 250.0313,264.5 Q249.3281,264.5 248.7344,264.7813 Q248.1563,265.0625 247.7031,265.6875 Q247.25,266.3125 247.25,267.1719 L247.25,268.0938 Q247.25,269.125 248.0938,269.8125 Q248.9375,270.5 250.4375,270.5 Q251.3281,270.5 251.9531,270.2969 Q252.3125,270.1875 252.7188,269.8281 Q252.9844,269.625 253.125,269.5625 Q253.2656,269.5 253.4375,269.5 Q253.7656,269.5 254,269.7656 Q254.25,270.0156 254.25,270.375 Q254.25,270.7188 253.9063,271.125 Q253.4063,271.7188 252.6094,272.0469 Q251.5625,272.5 250.2813,272.5 Q248.7813,272.5 247.5781,271.9063 Q246.6094,271.4375 245.9219,270.4219 Q245.25,269.4063 245.25,268.2031 L245.25,267.1094 Q245.25,265.8594 245.8438,264.7656 Q246.4531,263.6719 247.5,263.0938 Q248.5625,262.5 249.75,262.5 Q250.4688,262.5 251.0938,262.75 Q251.7188,263 252.25,263.5 Z " fill="#000000"/><text fill="#000000" font-family="sans-serif" font-size="12" lengthAdjust="spacing" textLength="89" x="270.75" y="271.9102">ScooterRegister</text><line style="stroke:#A80036;stroke-width:1.5;" x1="165.5" x2="432.5" y1="283" y2="283"/><line style="stroke:#A80036;stroke-width:1.5;" x1="165.5" x2="432.5" y1="291" y2="291"/><ellipse cx="175.5" cy="302" fill="#84BE84" rx="3" ry="3" style="stroke:#038048;stroke-width:1.0;"/><text fill="#000000" font-family="sans-serif" font-size="11" lengthAdjust="spacing" textLength="243" x="184.5" y="306.4189">checkScootersParkedBatterys(scooterId, pharNIF)</text><!--MD5=[76dee2f697a3e82546b7b86b1a60e0e8]
class ScooterParkDB--><rect codeLine="30" fill="#FEFECE" filter="url(#f1hbzv6d7gaf06)" height="61.8359" id="ScooterParkDB" style="stroke:#A80036;stroke-width:1.5;" width="222" x="188" y="495"/><ellipse cx="252.75" cy="511" fill="#ADD1B2" rx="11" ry="11" style="stroke:#A80036;stroke-width:1.0;"/><path d="M254.75,507.5 Q254.9531,507 255.1875,506.75 Q255.4219,506.5 255.6875,506.5 Q256.1563,506.5 256.4531,506.7813 Q256.75,507.0625 256.75,507.7188 L256.75,509.2813 Q256.75,509.9375 256.4688,510.2188 Q256.1875,510.5 255.75,510.5 Q255.3594,510.5 255.1094,510.3281 Q254.8594,510.1563 254.75,509.7031 Q254.7031,509.3906 254.5313,509.2188 Q254.2188,508.8906 253.6563,508.7031 Q253.0938,508.5 252.5313,508.5 Q251.8281,508.5 251.2344,508.7813 Q250.6563,509.0625 250.2031,509.6875 Q249.75,510.3125 249.75,511.1719 L249.75,512.0938 Q249.75,513.125 250.5938,513.8125 Q251.4375,514.5 252.9375,514.5 Q253.8281,514.5 254.4531,514.2969 Q254.8125,514.1875 255.2188,513.8281 Q255.4844,513.625 255.625,513.5625 Q255.7656,513.5 255.9375,513.5 Q256.2656,513.5 256.5,513.7656 Q256.75,514.0156 256.75,514.375 Q256.75,514.7188 256.4063,515.125 Q255.9063,515.7188 255.1094,516.0469 Q254.0625,516.5 252.7813,516.5 Q251.2813,516.5 250.0781,515.9063 Q249.1094,515.4375 248.4219,514.4219 Q247.75,513.4063 247.75,512.2031 L247.75,511.1094 Q247.75,509.8594 248.3438,508.7656 Q248.9531,507.6719 250,507.0938 Q251.0625,506.5 252.25,506.5 Q252.9688,506.5 253.5938,506.75 Q254.2188,507 254.75,507.5 Z " fill="#000000"/><text fill="#000000" font-family="sans-serif" font-size="12" lengthAdjust="spacing" textLength="84" x="273.25" y="515.9102">ScooterParkDB</text><line style="stroke:#A80036;stroke-width:1.5;" x1="189" x2="409" y1="527" y2="527"/><line style="stroke:#A80036;stroke-width:1.5;" x1="189" x2="409" y1="535" y2="535"/><ellipse cx="199" cy="546" fill="#84BE84" rx="3" ry="3" style="stroke:#038048;stroke-width:1.0;"/><text fill="#000000" font-family="sans-serif" font-size="11" lengthAdjust="spacing" textLength="196" x="208" y="550.4189">getScootertParkedOnPharmacy(pharNIF)</text><!--MD5=[b1d622c31d04e225229813a860ad9eda]
link CheckScooterBateryUI to CheckScooterBateryController--><path codeLine="34" d="M183,55.14 C183,70.58 183,91.33 183,109.67 " fill="none" id="CheckScooterBateryUI-to-CheckScooterBateryController" style="stroke:#A80036;stroke-width:1.0;stroke-dasharray:7.0,7.0;"/><polygon fill="#A80036" points="183,114.77,187,105.77,183,109.77,179,105.77,183,114.77" style="stroke:#A80036;stroke-width:1.0;"/><!--MD5=[a17f2cd490fabd3504403321cf2e115a]
link CheckScooterBateryController to Application--><path codeLine="35" d="M149.43,191.08 C133.4,208.77 114.36,229.8 98.72,247.07 " fill="none" id="CheckScooterBateryController-to-Application" style="stroke:#A80036;stroke-width:1.0;stroke-dasharray:7.0,7.0;"/><polygon fill="#A80036" points="95.23,250.93,104.2324,246.9353,98.5827,247.2206,98.2974,241.571,95.23,250.93" style="stroke:#A80036;stroke-width:1.0;"/><!--MD5=[3023e54902ba77397a456390a3a40b99]
link CheckScooterBateryController to ScooterRegister--><path codeLine="36" d="M216.86,191.08 C233.03,208.77 252.24,229.8 268.01,247.07 " fill="none" id="CheckScooterBateryController-to-ScooterRegister" style="stroke:#A80036;stroke-width:1.0;stroke-dasharray:7.0,7.0;"/><polygon fill="#A80036" points="271.53,250.93,268.4069,241.5894,268.1553,247.2407,262.504,246.989,271.53,250.93" style="stroke:#A80036;stroke-width:1.0;"/><!--MD5=[766f41e68500a2bbe1c2d043a731f38c]
link ScooterRegister to ScooterParkRegister--><path codeLine="37" d="M299,313.28 C299,329.77 299,350.26 299,367.49 " fill="none" id="ScooterRegister-to-ScooterParkRegister" style="stroke:#A80036;stroke-width:1.0;stroke-dasharray:7.0,7.0;"/><polygon fill="#A80036" points="299,372.73,303,363.73,299,367.73,295,363.73,299,372.73" style="stroke:#A80036;stroke-width:1.0;"/><!--MD5=[0a24f8e4ff4d2b3705556e501faed2dc]
link ScooterParkRegister to ScooterParkDB--><path codeLine="38" d="M299,435.28 C299,451.77 299,472.26 299,489.49 " fill="none" id="ScooterParkRegister-to-ScooterParkDB" style="stroke:#A80036;stroke-width:1.0;stroke-dasharray:7.0,7.0;"/><polygon fill="#A80036" points="299,494.73,303,485.73,299,489.73,295,485.73,299,494.73" style="stroke:#A80036;stroke-width:1.0;"/><!--MD5=[4cecaf66c098a0d55141577ec256726c]
@startuml


class CheckScooterBateryUI {
}

class CheckScooterBateryController {
+getScooterParkDB()
+checkScootersParkedBatterys(scooterId, pharNIF)
}


class Application {
+getScooterParkDB()
}


class ScooterParkRegister {

}

class ScooterRegister {
+checkScootersParkedBatterys(scooterId, pharNIF)

}

class ScooterParkRegister {
+getScootertParkedOnPharmacy(pharNIF)
}

class ScooterParkDB {
+getScootertParkedOnPharmacy(pharNIF)
}

CheckScooterBateryUI ..> CheckScooterBateryController
CheckScooterBateryController ..> Application
CheckScooterBateryController ..> ScooterRegister
ScooterRegister ..>ScooterParkRegister
ScooterParkRegister ..> ScooterParkDB


@enduml

PlantUML version 1.2021.00(Sun Jan 10 10:25:05 GMT 2021)
(GPL source distribution)
Java Runtime: OpenJDK Runtime Environment
JVM: OpenJDK 64-Bit Server VM
Default Encoding: Cp1252
Language: pt
Country: PT
--></g></svg>