<?xml version="1.0" encoding="UTF-8" standalone="no"?><svg xmlns="http://www.w3.org/2000/svg" xmlns:xlink="http://www.w3.org/1999/xlink" contentScriptType="application/ecmascript" contentStyleType="text/css" height="130px" preserveAspectRatio="none" style="width:575px;height:130px;" version="1.1" viewBox="0 0 575 130" width="575px" zoomAndPan="magnify"><defs><filter height="300%" id="f1uexjcmbzu5x5" width="300%" x="-1" y="-1"><feGaussianBlur result="blurOut" stdDeviation="2.0"/><feColorMatrix in="blurOut" result="blurOut2" type="matrix" values="0 0 0 0 0 0 0 0 0 0 0 0 0 0 0 0 0 0 .4 0"/><feOffset dx="4.0" dy="4.0" in="blurOut2" result="blurOut3"/><feBlend in="SourceGraphic" in2="blurOut3" mode="normal"/></filter></defs><g><!--MD5=[0b4e4b4980470ea387cc45de9bd14b5b]
class Application--><rect codeLine="9" fill="#FEFECE" filter="url(#f1uexjcmbzu5x5)" height="40" id="Application" style="stroke:#A80036;stroke-width:1.5;" width="92" x="7" y="41.5"/><ellipse cx="22" cy="57.5" fill="#ADD1B2" rx="11" ry="11" style="stroke:#A80036;stroke-width:1.0;"/><path d="M24,54 Q24.2031,53.5 24.4375,53.25 Q24.6719,53 24.9375,53 Q25.4063,53 25.7031,53.2813 Q26,53.5625 26,54.2188 L26,55.7813 Q26,56.4375 25.7188,56.7188 Q25.4375,57 25,57 Q24.6094,57 24.3594,56.8281 Q24.1094,56.6563 24,56.2031 Q23.9531,55.8906 23.7813,55.7188 Q23.4688,55.3906 22.9063,55.2031 Q22.3438,55 21.7813,55 Q21.0781,55 20.4844,55.2813 Q19.9063,55.5625 19.4531,56.1875 Q19,56.8125 19,57.6719 L19,58.5938 Q19,59.625 19.8438,60.3125 Q20.6875,61 22.1875,61 Q23.0781,61 23.7031,60.7969 Q24.0625,60.6875 24.4688,60.3281 Q24.7344,60.125 24.875,60.0625 Q25.0156,60 25.1875,60 Q25.5156,60 25.75,60.2656 Q26,60.5156 26,60.875 Q26,61.2188 25.6563,61.625 Q25.1563,62.2188 24.3594,62.5469 Q23.3125,63 22.0313,63 Q20.5313,63 19.3281,62.4063 Q18.3594,61.9375 17.6719,60.9219 Q17,59.9063 17,58.7031 L17,57.6094 Q17,56.3594 17.5938,55.2656 Q18.2031,54.1719 19.25,53.5938 Q20.3125,53 21.5,53 Q22.2188,53 22.8438,53.25 Q23.4688,53.5 24,54 Z " fill="#000000"/><text fill="#000000" font-family="sans-serif" font-size="12" lengthAdjust="spacing" textLength="60" x="36" y="62.4102">Application</text><line style="stroke:#A80036;stroke-width:1.5;" x1="8" x2="98" y1="73.5" y2="73.5"/><!--MD5=[7f2a9fafcebe4f099f71398fd3e2ed00]
class Pharmacy--><rect codeLine="15" fill="#FEFECE" filter="url(#f1uexjcmbzu5x5)" height="81.5078" id="Pharmacy" style="stroke:#A80036;stroke-width:1.5;" width="112" x="195" y="20.5"/><ellipse cx="221.25" cy="36.5" fill="#ADD1B2" rx="11" ry="11" style="stroke:#A80036;stroke-width:1.0;"/><path d="M223.25,33 Q223.4531,32.5 223.6875,32.25 Q223.9219,32 224.1875,32 Q224.6563,32 224.9531,32.2813 Q225.25,32.5625 225.25,33.2188 L225.25,34.7813 Q225.25,35.4375 224.9688,35.7188 Q224.6875,36 224.25,36 Q223.8594,36 223.6094,35.8281 Q223.3594,35.6563 223.25,35.2031 Q223.2031,34.8906 223.0313,34.7188 Q222.7188,34.3906 222.1563,34.2031 Q221.5938,34 221.0313,34 Q220.3281,34 219.7344,34.2813 Q219.1563,34.5625 218.7031,35.1875 Q218.25,35.8125 218.25,36.6719 L218.25,37.5938 Q218.25,38.625 219.0938,39.3125 Q219.9375,40 221.4375,40 Q222.3281,40 222.9531,39.7969 Q223.3125,39.6875 223.7188,39.3281 Q223.9844,39.125 224.125,39.0625 Q224.2656,39 224.4375,39 Q224.7656,39 225,39.2656 Q225.25,39.5156 225.25,39.875 Q225.25,40.2188 224.9063,40.625 Q224.4063,41.2188 223.6094,41.5469 Q222.5625,42 221.2813,42 Q219.7813,42 218.5781,41.4063 Q217.6094,40.9375 216.9219,39.9219 Q216.25,38.9063 216.25,37.7031 L216.25,36.6094 Q216.25,35.3594 216.8438,34.2656 Q217.4531,33.1719 218.5,32.5938 Q219.5625,32 220.75,32 Q221.4688,32 222.0938,32.25 Q222.7188,32.5 223.25,33 Z " fill="#000000"/><text fill="#000000" font-family="sans-serif" font-size="12" lengthAdjust="spacing" textLength="55" x="237.75" y="41.4102">Pharmacy</text><line style="stroke:#A80036;stroke-width:1.5;" x1="196" x2="306" y1="52.5" y2="52.5"/><rect fill="none" height="6" style="stroke:#C82930;stroke-width:1.0;" width="6" x="203" y="60.5"/><text fill="#000000" font-family="sans-serif" font-size="11" lengthAdjust="spacing" textLength="44" x="215" y="67.9189">Integer id</text><rect fill="none" height="6" style="stroke:#C82930;stroke-width:1.0;" width="6" x="203" y="74.3359"/><text fill="#000000" font-family="sans-serif" font-size="11" lengthAdjust="spacing" textLength="86" x="215" y="81.7549">String designation</text><rect fill="none" height="6" style="stroke:#C82930;stroke-width:1.0;" width="6" x="203" y="88.1719"/><text fill="#000000" font-family="sans-serif" font-size="11" lengthAdjust="spacing" textLength="43" x="215" y="95.5908">String nif</text><!--MD5=[f4402668d5d5bb8485350c0fdb60ac8e]
class Scooter--><rect codeLine="22" fill="#FEFECE" filter="url(#f1uexjcmbzu5x5)" height="109.1797" id="Scooter" style="stroke:#A80036;stroke-width:1.5;" width="158" x="403" y="7"/><ellipse cx="456.75" cy="23" fill="#ADD1B2" rx="11" ry="11" style="stroke:#A80036;stroke-width:1.0;"/><path d="M458.75,19.5 Q458.9531,19 459.1875,18.75 Q459.4219,18.5 459.6875,18.5 Q460.1563,18.5 460.4531,18.7813 Q460.75,19.0625 460.75,19.7188 L460.75,21.2813 Q460.75,21.9375 460.4688,22.2188 Q460.1875,22.5 459.75,22.5 Q459.3594,22.5 459.1094,22.3281 Q458.8594,22.1563 458.75,21.7031 Q458.7031,21.3906 458.5313,21.2188 Q458.2188,20.8906 457.6563,20.7031 Q457.0938,20.5 456.5313,20.5 Q455.8281,20.5 455.2344,20.7813 Q454.6563,21.0625 454.2031,21.6875 Q453.75,22.3125 453.75,23.1719 L453.75,24.0938 Q453.75,25.125 454.5938,25.8125 Q455.4375,26.5 456.9375,26.5 Q457.8281,26.5 458.4531,26.2969 Q458.8125,26.1875 459.2188,25.8281 Q459.4844,25.625 459.625,25.5625 Q459.7656,25.5 459.9375,25.5 Q460.2656,25.5 460.5,25.7656 Q460.75,26.0156 460.75,26.375 Q460.75,26.7188 460.4063,27.125 Q459.9063,27.7188 459.1094,28.0469 Q458.0625,28.5 456.7813,28.5 Q455.2813,28.5 454.0781,27.9063 Q453.1094,27.4375 452.4219,26.4219 Q451.75,25.4063 451.75,24.2031 L451.75,23.1094 Q451.75,21.8594 452.3438,20.7656 Q452.9531,19.6719 454,19.0938 Q455.0625,18.5 456.25,18.5 Q456.9688,18.5 457.5938,18.75 Q458.2188,19 458.75,19.5 Z " fill="#000000"/><text fill="#000000" font-family="sans-serif" font-size="12" lengthAdjust="spacing" textLength="42" x="477.25" y="27.9102">Scooter</text><line style="stroke:#A80036;stroke-width:1.5;" x1="404" x2="560" y1="39" y2="39"/><rect fill="none" height="6" style="stroke:#C82930;stroke-width:1.0;" width="6" x="411" y="47"/><text fill="#000000" font-family="sans-serif" font-size="11" lengthAdjust="spacing" textLength="44" x="423" y="54.4189">Integer id</text><rect fill="none" height="6" style="stroke:#C82930;stroke-width:1.0;" width="6" x="411" y="60.8359"/><text fill="#000000" font-family="sans-serif" font-size="11" lengthAdjust="spacing" textLength="91" x="423" y="68.2549">Double batterySize</text><rect fill="none" height="6" style="stroke:#C82930;stroke-width:1.0;" width="6" x="411" y="74.6719"/><text fill="#000000" font-family="sans-serif" font-size="11" lengthAdjust="spacing" textLength="106" x="423" y="82.0908">Double currentBattery</text><rect fill="none" height="6" style="stroke:#C82930;stroke-width:1.0;" width="6" x="411" y="88.5078"/><text fill="#000000" font-family="sans-serif" font-size="11" lengthAdjust="spacing" textLength="132" x="423" y="95.9268">Double batteryConsumption</text><rect fill="none" height="6" style="stroke:#C82930;stroke-width:1.0;" width="6" x="411" y="102.3438"/><text fill="#000000" font-family="sans-serif" font-size="11" lengthAdjust="spacing" textLength="71" x="423" y="109.7627">String QRCode</text><!--MD5=[8c7e2cb836a61414bf9f02282664f603]
link Application to Pharmacy--><path codeLine="30" d="M99.46,61.5 C127.84,61.5 164.58,61.5 194.65,61.5 " fill="none" id="Application-Pharmacy" style="stroke:#A80036;stroke-width:1.0;"/><polygon fill="#000000" points="139,52.6758,129.9549,49.7369,129.9549,55.6147,139,52.6758" style="stroke:#000000;stroke-width:1.0;"/><text fill="#000000" font-family="sans-serif" font-size="13" lengthAdjust="spacing" textLength="21" x="143" y="57.9951">has</text><text fill="#000000" font-family="sans-serif" font-size="13" lengthAdjust="spacing" textLength="7" x="107.1101" y="76.247">1</text><text fill="#000000" font-family="sans-serif" font-size="13" lengthAdjust="spacing" textLength="7" x="179.9817" y="76.0742">1</text><!--MD5=[cf4f95b832970cfa6e3a3c87e0aa2b32]
link Pharmacy to Scooter--><path codeLine="31" d="M307.14,61.5 C335.86,61.5 371.47,61.5 402.96,61.5 " fill="none" id="Pharmacy-Scooter" style="stroke:#A80036;stroke-width:1.0;"/><polygon fill="#000000" points="347,52.6758,337.9549,49.7369,337.9549,55.6147,347,52.6758" style="stroke:#000000;stroke-width:1.0;"/><text fill="#000000" font-family="sans-serif" font-size="13" lengthAdjust="spacing" textLength="21" x="351" y="57.9951">has</text><text fill="#000000" font-family="sans-serif" font-size="13" lengthAdjust="spacing" textLength="7" x="315.1541" y="76.1268">1</text><text fill="#000000" font-family="sans-serif" font-size="13" lengthAdjust="spacing" textLength="20" x="375.0299" y="75.7153">0..*</text><!--MD5=[44735c74ccbfb065ed03e3c104d8fcaf]
@startuml
hide methods
left to right direction






class Application {

}



class Pharmacy {
    -Integer id
    -String designation
    -String nif
}


class Scooter {
    -Integer id
    -Double batterySize
    -Double currentBattery
    -Double batteryConsumption
    -String QRCode
}

Application "1" - - "1" Pharmacy: has >
Pharmacy "1" - - "0..*" Scooter: has >

@enduml

PlantUML version 1.2021.00(Sun Jan 10 10:25:05 GMT 2021)
(GPL source distribution)
Java Runtime: OpenJDK Runtime Environment
JVM: OpenJDK 64-Bit Server VM
Default Encoding: Cp1252
Language: pt
Country: PT
--></g></svg>