<?xml version="1.0" encoding="UTF-8" standalone="no"?><svg xmlns="http://www.w3.org/2000/svg" xmlns:xlink="http://www.w3.org/1999/xlink" contentScriptType="application/ecmascript" contentStyleType="text/css" height="274px" preserveAspectRatio="none" style="width:540px;height:274px;" version="1.1" viewBox="0 0 540 274" width="540px" zoomAndPan="magnify">
    <defs>
        <filter height="300%" id="foi56d504h6re" width="300%" x="-1" y="-1">
            <feGaussianBlur result="blurOut" stdDeviation="2.0" />
            <feColorMatrix in="blurOut" result="blurOut2" type="matrix" values="0 0 0 0 0 0 0 0 0 0 0 0 0 0 0 0 0 0 .4 0" />
            <feOffset dx="4.0" dy="4.0" in="blurOut2" result="blurOut3" />
            <feBlend in="SourceGraphic" in2="blurOut3" mode="normal" />
        </filter>
    </defs>
    <g>
        <!--class CheckCreditsUI-->
        <rect fill="#FEFECE" filter="url(#foi56d504h6re)" height="48" id="CheckCreditsUI" style="stroke: #A80036; stroke-width: 1.5;" width="119" x="6" y="112" />
        <ellipse cx="21" cy="128" fill="#ADD1B2" rx="11" ry="11" style="stroke: #A80036; stroke-width: 1.0;" />
        <path d="M23.7656,123.875 Q23.9219,123.6563 24.1094,123.5469 Q24.2969,123.4375 24.5156,123.4375 Q24.8906,123.4375 25.125,123.6953 Q25.3594,123.9531 25.3594,124.5625 L25.3594,126.0156 Q25.3594,126.625 25.125,126.8906 Q24.8906,127.1563 24.5156,127.1563 Q24.1719,127.1563 23.9688,126.9531 Q23.7656,126.7656 23.6563,126.25 Q23.6094,125.8906 23.4219,125.7031 Q23.0938,125.3281 22.4844,125.1094 Q21.875,124.8906 21.25,124.8906 Q20.4844,124.8906 19.8516,125.2188 Q19.2188,125.5469 18.7266,126.2969 Q18.2344,127.0469 18.2344,128.0781 L18.2344,129.1719 Q18.2344,130.4063 19.125,131.2266 Q20.0156,132.0469 21.6094,132.0469 Q22.5469,132.0469 23.2031,131.7969 Q23.5938,131.6406 24.0156,131.2031 Q24.2813,130.9375 24.4297,130.8594 Q24.5781,130.7813 24.7813,130.7813 Q25.1094,130.7813 25.3672,131.0391 Q25.625,131.2969 25.625,131.6406 Q25.625,131.9844 25.2813,132.3906 Q24.7813,132.9688 23.9844,133.2969 Q22.9063,133.75 21.6094,133.75 Q20.0938,133.75 18.8906,133.125 Q17.9063,132.625 17.2188,131.5547 Q16.5313,130.4844 16.5313,129.2031 L16.5313,128.0469 Q16.5313,126.7188 17.1484,125.5703 Q17.7656,124.4219 18.8594,123.8047 Q19.9531,123.1875 21.1875,123.1875 Q21.9219,123.1875 22.5703,123.3516 Q23.2188,123.5156 23.7656,123.875 Z " /><text fill="#000000" font-family="sans-serif" font-size="12" lengthAdjust="spacingAndGlyphs" textLength="87" x="35" y="132.9102">CheckCreditsUI</text>
        <line style="stroke: #A80036; stroke-width: 1.5;" x1="7" x2="124" y1="144" y2="144" />
        <line style="stroke: #A80036; stroke-width: 1.5;" x1="7" x2="124" y1="152" y2="152" />
        <!--class CheckCreditsController-->
        <rect fill="#FEFECE" filter="url(#foi56d504h6re)" height="61.8359" id="CheckCreditsController" style="stroke: #A80036; stroke-width: 1.5;" width="161" x="185" y="105" />
        <ellipse cx="200" cy="121" fill="#ADD1B2" rx="11" ry="11" style="stroke: #A80036; stroke-width: 1.0;" />
        <path d="M202.7656,116.875 Q202.9219,116.6563 203.1094,116.5469 Q203.2969,116.4375 203.5156,116.4375 Q203.8906,116.4375 204.125,116.6953 Q204.3594,116.9531 204.3594,117.5625 L204.3594,119.0156 Q204.3594,119.625 204.125,119.8906 Q203.8906,120.1563 203.5156,120.1563 Q203.1719,120.1563 202.9688,119.9531 Q202.7656,119.7656 202.6563,119.25 Q202.6094,118.8906 202.4219,118.7031 Q202.0938,118.3281 201.4844,118.1094 Q200.875,117.8906 200.25,117.8906 Q199.4844,117.8906 198.8516,118.2188 Q198.2188,118.5469 197.7266,119.2969 Q197.2344,120.0469 197.2344,121.0781 L197.2344,122.1719 Q197.2344,123.4063 198.125,124.2266 Q199.0156,125.0469 200.6094,125.0469 Q201.5469,125.0469 202.2031,124.7969 Q202.5938,124.6406 203.0156,124.2031 Q203.2813,123.9375 203.4297,123.8594 Q203.5781,123.7813 203.7813,123.7813 Q204.1094,123.7813 204.3672,124.0391 Q204.625,124.2969 204.625,124.6406 Q204.625,124.9844 204.2813,125.3906 Q203.7813,125.9688 202.9844,126.2969 Q201.9063,126.75 200.6094,126.75 Q199.0938,126.75 197.8906,126.125 Q196.9063,125.625 196.2188,124.5547 Q195.5313,123.4844 195.5313,122.2031 L195.5313,121.0469 Q195.5313,119.7188 196.1484,118.5703 Q196.7656,117.4219 197.8594,116.8047 Q198.9531,116.1875 200.1875,116.1875 Q200.9219,116.1875 201.5703,116.3516 Q202.2188,116.5156 202.7656,116.875 Z " /><text fill="#000000" font-family="sans-serif" font-size="12" lengthAdjust="spacingAndGlyphs" textLength="129" x="214" y="125.9102">CheckCreditsController</text>
        <line style="stroke: #A80036; stroke-width: 1.5;" x1="186" x2="345" y1="137" y2="137" />
        <line style="stroke: #A80036; stroke-width: 1.5;" x1="186" x2="345" y1="145" y2="145" />
        <ellipse cx="196" cy="157.418" fill="#84BE84" rx="3" ry="3" style="stroke: #038048; stroke-width: 1.0;" /><text fill="#000000" font-family="sans-serif" font-size="11" lengthAdjust="spacingAndGlyphs" textLength="71" x="205" y="160.4189">checkCredits()</text>
        <!--class System-->
        <rect fill="#FEFECE" filter="url(#foi56d504h6re)" height="61.8359" id="System" style="stroke: #A80036; stroke-width: 1.5;" width="73" x="431" y="8" />
        <ellipse cx="446" cy="24" fill="#ADD1B2" rx="11" ry="11" style="stroke: #A80036; stroke-width: 1.0;" />
        <path d="M448.7656,19.875 Q448.9219,19.6563 449.1094,19.5469 Q449.2969,19.4375 449.5156,19.4375 Q449.8906,19.4375 450.125,19.6953 Q450.3594,19.9531 450.3594,20.5625 L450.3594,22.0156 Q450.3594,22.625 450.125,22.8906 Q449.8906,23.1563 449.5156,23.1563 Q449.1719,23.1563 448.9688,22.9531 Q448.7656,22.7656 448.6563,22.25 Q448.6094,21.8906 448.4219,21.7031 Q448.0938,21.3281 447.4844,21.1094 Q446.875,20.8906 446.25,20.8906 Q445.4844,20.8906 444.8516,21.2188 Q444.2188,21.5469 443.7266,22.2969 Q443.2344,23.0469 443.2344,24.0781 L443.2344,25.1719 Q443.2344,26.4063 444.125,27.2266 Q445.0156,28.0469 446.6094,28.0469 Q447.5469,28.0469 448.2031,27.7969 Q448.5938,27.6406 449.0156,27.2031 Q449.2813,26.9375 449.4297,26.8594 Q449.5781,26.7813 449.7813,26.7813 Q450.1094,26.7813 450.3672,27.0391 Q450.625,27.2969 450.625,27.6406 Q450.625,27.9844 450.2813,28.3906 Q449.7813,28.9688 448.9844,29.2969 Q447.9063,29.75 446.6094,29.75 Q445.0938,29.75 443.8906,29.125 Q442.9063,28.625 442.2188,27.5547 Q441.5313,26.4844 441.5313,25.2031 L441.5313,24.0469 Q441.5313,22.7188 442.1484,21.5703 Q442.7656,20.4219 443.8594,19.8047 Q444.9531,19.1875 446.1875,19.1875 Q446.9219,19.1875 447.5703,19.3516 Q448.2188,19.5156 448.7656,19.875 Z " /><text fill="#000000" font-family="sans-serif" font-size="12" lengthAdjust="spacingAndGlyphs" textLength="41" x="460" y="28.9102">System</text>
        <line style="stroke: #A80036; stroke-width: 1.5;" x1="432" x2="503" y1="40" y2="40" />
        <line style="stroke: #A80036; stroke-width: 1.5;" x1="432" x2="503" y1="48" y2="48" />
        <ellipse cx="442" cy="60.418" fill="#84BE84" rx="3" ry="3" style="stroke: #038048; stroke-width: 1.0;" /><text fill="#000000" font-family="sans-serif" font-size="11" lengthAdjust="spacingAndGlyphs" textLength="46" x="451" y="63.4189">getUser()</text>
        <!--class User-->
        <rect fill="#FEFECE" filter="url(#foi56d504h6re)" height="61.8359" id="User" style="stroke: #A80036; stroke-width: 1.5;" width="123" x="406" y="105" />
        <ellipse cx="449.8" cy="121" fill="#ADD1B2" rx="11" ry="11" style="stroke: #A80036; stroke-width: 1.0;" />
        <path d="M452.5656,116.875 Q452.7219,116.6563 452.9094,116.5469 Q453.0969,116.4375 453.3156,116.4375 Q453.6906,116.4375 453.925,116.6953 Q454.1594,116.9531 454.1594,117.5625 L454.1594,119.0156 Q454.1594,119.625 453.925,119.8906 Q453.6906,120.1563 453.3156,120.1563 Q452.9719,120.1563 452.7688,119.9531 Q452.5656,119.7656 452.4563,119.25 Q452.4094,118.8906 452.2219,118.7031 Q451.8938,118.3281 451.2844,118.1094 Q450.675,117.8906 450.05,117.8906 Q449.2844,117.8906 448.6516,118.2188 Q448.0188,118.5469 447.5266,119.2969 Q447.0344,120.0469 447.0344,121.0781 L447.0344,122.1719 Q447.0344,123.4063 447.925,124.2266 Q448.8156,125.0469 450.4094,125.0469 Q451.3469,125.0469 452.0031,124.7969 Q452.3938,124.6406 452.8156,124.2031 Q453.0813,123.9375 453.2297,123.8594 Q453.3781,123.7813 453.5813,123.7813 Q453.9094,123.7813 454.1672,124.0391 Q454.425,124.2969 454.425,124.6406 Q454.425,124.9844 454.0813,125.3906 Q453.5813,125.9688 452.7844,126.2969 Q451.7063,126.75 450.4094,126.75 Q448.8938,126.75 447.6906,126.125 Q446.7063,125.625 446.0188,124.5547 Q445.3313,123.4844 445.3313,122.2031 L445.3313,121.0469 Q445.3313,119.7188 445.9484,118.5703 Q446.5656,117.4219 447.6594,116.8047 Q448.7531,116.1875 449.9875,116.1875 Q450.7219,116.1875 451.3703,116.3516 Q452.0188,116.5156 452.5656,116.875 Z " /><text fill="#000000" font-family="sans-serif" font-size="12" lengthAdjust="spacingAndGlyphs" textLength="27" x="470.2" y="125.9102">User</text>
        <line style="stroke: #A80036; stroke-width: 1.5;" x1="407" x2="528" y1="137" y2="137" />
        <line style="stroke: #A80036; stroke-width: 1.5;" x1="407" x2="528" y1="145" y2="145" />
        <ellipse cx="417" cy="157.418" fill="#84BE84" rx="3" ry="3" style="stroke: #038048; stroke-width: 1.0;" /><text fill="#000000" font-family="sans-serif" font-size="11" lengthAdjust="spacingAndGlyphs" textLength="97" x="426" y="160.4189">getClient(User user)</text>
        <!--class Client-->
        <rect fill="#FEFECE" filter="url(#foi56d504h6re)" height="61.8359" id="Client" style="stroke: #A80036; stroke-width: 1.5;" width="83" x="426" y="202" />
        <ellipse cx="449.55" cy="218" fill="#ADD1B2" rx="11" ry="11" style="stroke: #A80036; stroke-width: 1.0;" />
        <path d="M452.3156,213.875 Q452.4719,213.6563 452.6594,213.5469 Q452.8469,213.4375 453.0656,213.4375 Q453.4406,213.4375 453.675,213.6953 Q453.9094,213.9531 453.9094,214.5625 L453.9094,216.0156 Q453.9094,216.625 453.675,216.8906 Q453.4406,217.1563 453.0656,217.1563 Q452.7219,217.1563 452.5188,216.9531 Q452.3156,216.7656 452.2063,216.25 Q452.1594,215.8906 451.9719,215.7031 Q451.6438,215.3281 451.0344,215.1094 Q450.425,214.8906 449.8,214.8906 Q449.0344,214.8906 448.4016,215.2188 Q447.7688,215.5469 447.2766,216.2969 Q446.7844,217.0469 446.7844,218.0781 L446.7844,219.1719 Q446.7844,220.4063 447.675,221.2266 Q448.5656,222.0469 450.1594,222.0469 Q451.0969,222.0469 451.7531,221.7969 Q452.1438,221.6406 452.5656,221.2031 Q452.8313,220.9375 452.9797,220.8594 Q453.1281,220.7813 453.3313,220.7813 Q453.6594,220.7813 453.9172,221.0391 Q454.175,221.2969 454.175,221.6406 Q454.175,221.9844 453.8313,222.3906 Q453.3313,222.9688 452.5344,223.2969 Q451.4563,223.75 450.1594,223.75 Q448.6438,223.75 447.4406,223.125 Q446.4563,222.625 445.7688,221.5547 Q445.0813,220.4844 445.0813,219.2031 L445.0813,218.0469 Q445.0813,216.7188 445.6984,215.5703 Q446.3156,214.4219 447.4094,213.8047 Q448.5031,213.1875 449.7375,213.1875 Q450.4719,213.1875 451.1203,213.3516 Q451.7688,213.5156 452.3156,213.875 Z " /><text fill="#000000" font-family="sans-serif" font-size="12" lengthAdjust="spacingAndGlyphs" textLength="32" x="465.45" y="222.9102">Client</text>
        <line style="stroke: #A80036; stroke-width: 1.5;" x1="427" x2="508" y1="234" y2="234" />
        <line style="stroke: #A80036; stroke-width: 1.5;" x1="427" x2="508" y1="242" y2="242" />
        <ellipse cx="437" cy="254.418" fill="#84BE84" rx="3" ry="3" style="stroke: #038048; stroke-width: 1.0;" /><text fill="#000000" font-family="sans-serif" font-size="11" lengthAdjust="spacingAndGlyphs" textLength="57" x="446" y="257.4189">getCredits()</text>
        <!--link CheckCreditsUI to CheckCreditsController-->
        <path d="M125.1,136 C142.2,136 161.23,136 179.6,136 " fill="none" id="CheckCreditsUI-CheckCreditsController" style="stroke: #A80036; stroke-width: 1.0; stroke-dasharray: 7.0,7.0;" />
        <polygon fill="#A80036" points="184.77,136,175.77,132,179.77,136,175.77,140,184.77,136" style="stroke: #A80036; stroke-width: 1.0;" />
        <!--link CheckCreditsController to System-->
        <path d="M330.61,104.91 C362.04,89.66 398.92,71.78 426.33,58.48 " fill="none" id="CheckCreditsController-System" style="stroke: #A80036; stroke-width: 1.0; stroke-dasharray: 7.0,7.0;" />
        <polygon fill="#A80036" points="430.98,56.22,421.1368,56.5541,426.4825,58.4045,424.632,63.7502,430.98,56.22" style="stroke: #A80036; stroke-width: 1.0;" />
        <!--link CheckCreditsController to User-->
        <path d="M346.12,136 C364.19,136 383.18,136 400.6,136 " fill="none" id="CheckCreditsController-User" style="stroke: #A80036; stroke-width: 1.0; stroke-dasharray: 7.0,7.0;" />
        <polygon fill="#A80036" points="405.96,136,396.96,132,400.96,136,396.96,140,405.96,136" style="stroke: #A80036; stroke-width: 1.0;" />
        <!--link CheckCreditsController to Client-->
        <path d="M330.61,167.09 C360.09,181.39 394.38,198.02 421.14,211 " fill="none" id="CheckCreditsController-Client" style="stroke: #A80036; stroke-width: 1.0; stroke-dasharray: 7.0,7.0;" />
        <polygon fill="#A80036" points="425.7,213.21,419.352,205.6798,421.2025,211.0255,415.8568,212.8759,425.7,213.21" style="stroke: #A80036; stroke-width: 1.0;" />
        <!--
@startuml

left to right direction

class CheckCreditsUI {
}

class CheckCreditsController {
    +checkCredits()
}

class System {
    +getUser()
}

class User {
    +getClient(User user)
}

class Client {
    +getCredits()
}

CheckCreditsUI ..> CheckCreditsController
CheckCreditsController ..> System
CheckCreditsController ..> User
CheckCreditsController ..> Client

@enduml

PlantUML version 1.2018.14(Fri Dec 21 16:33:16 GMT 2018)
(GPL source distribution)
Java Runtime: Java(TM) SE Runtime Environment
JVM: Java HotSpot(TM) 64-Bit Server VM
Java Version: 1.8.0_271-b09
Operating System: Windows 10
OS Version: 10.0
Default Encoding: Cp1252
Language: en
Country: US
-->
    </g>
</svg>