<?xml version="1.0" encoding="UTF-8" standalone="no"?><svg xmlns="http://www.w3.org/2000/svg" xmlns:xlink="http://www.w3.org/1999/xlink" contentScriptType="application/ecmascript" contentStyleType="text/css" height="207px" preserveAspectRatio="none" style="width:962px;height:207px;" version="1.1" viewBox="0 0 962 207" width="962px" zoomAndPan="magnify"><defs><filter height="300%" id="fa35fren4q6zm" width="300%" x="-1" y="-1"><feGaussianBlur result="blurOut" stdDeviation="2.0"/><feColorMatrix in="blurOut" result="blurOut2" type="matrix" values="0 0 0 0 0 0 0 0 0 0 0 0 0 0 0 0 0 0 .4 0"/><feOffset dx="4.0" dy="4.0" in="blurOut2" result="blurOut3"/><feBlend in="SourceGraphic" in2="blurOut3" mode="normal"/></filter></defs><g><!--MD5=[659bff158b6e5b18f7e6a2c6c1922666]
class AddDroneUI--><rect codeLine="4" fill="#FEFECE" filter="url(#fa35fren4q6zm)" height="48" id="AddDroneUI" style="stroke:#A80036;stroke-width:1.5;" width="99" x="7" y="70"/><ellipse cx="22" cy="86" fill="#ADD1B2" rx="11" ry="11" style="stroke:#A80036;stroke-width:1.0;"/><path d="M24,82.5 Q24.2031,82 24.4375,81.75 Q24.6719,81.5 24.9375,81.5 Q25.4063,81.5 25.7031,81.7813 Q26,82.0625 26,82.7188 L26,84.2813 Q26,84.9375 25.7188,85.2188 Q25.4375,85.5 25,85.5 Q24.6094,85.5 24.3594,85.3281 Q24.1094,85.1563 24,84.7031 Q23.9531,84.3906 23.7813,84.2188 Q23.4688,83.8906 22.9063,83.7031 Q22.3438,83.5 21.7813,83.5 Q21.0781,83.5 20.4844,83.7813 Q19.9063,84.0625 19.4531,84.6875 Q19,85.3125 19,86.1719 L19,87.0938 Q19,88.125 19.8438,88.8125 Q20.6875,89.5 22.1875,89.5 Q23.0781,89.5 23.7031,89.2969 Q24.0625,89.1875 24.4688,88.8281 Q24.7344,88.625 24.875,88.5625 Q25.0156,88.5 25.1875,88.5 Q25.5156,88.5 25.75,88.7656 Q26,89.0156 26,89.375 Q26,89.7188 25.6563,90.125 Q25.1563,90.7188 24.3594,91.0469 Q23.3125,91.5 22.0313,91.5 Q20.5313,91.5 19.3281,90.9063 Q18.3594,90.4375 17.6719,89.4219 Q17,88.4063 17,87.2031 L17,86.1094 Q17,84.8594 17.5938,83.7656 Q18.2031,82.6719 19.25,82.0938 Q20.3125,81.5 21.5,81.5 Q22.2188,81.5 22.8438,81.75 Q23.4688,82 24,82.5 Z " fill="#000000"/><text fill="#000000" font-family="sans-serif" font-size="12" lengthAdjust="spacing" textLength="67" x="36" y="90.9102">AddDroneUI</text><line style="stroke:#A80036;stroke-width:1.5;" x1="8" x2="105" y1="102" y2="102"/><line style="stroke:#A80036;stroke-width:1.5;" x1="8" x2="105" y1="110" y2="110"/><!--MD5=[c02d6ac108ddd3e3271cd6aabbe43841]
class AddDroneController--><rect codeLine="7" fill="#FEFECE" filter="url(#fa35fren4q6zm)" height="117.1797" id="AddDroneController" style="stroke:#A80036;stroke-width:1.5;" width="264" x="167" y="35.5"/><ellipse cx="240.25" cy="51.5" fill="#ADD1B2" rx="11" ry="11" style="stroke:#A80036;stroke-width:1.0;"/><path d="M242.25,48 Q242.4531,47.5 242.6875,47.25 Q242.9219,47 243.1875,47 Q243.6563,47 243.9531,47.2813 Q244.25,47.5625 244.25,48.2188 L244.25,49.7813 Q244.25,50.4375 243.9688,50.7188 Q243.6875,51 243.25,51 Q242.8594,51 242.6094,50.8281 Q242.3594,50.6563 242.25,50.2031 Q242.2031,49.8906 242.0313,49.7188 Q241.7188,49.3906 241.1563,49.2031 Q240.5938,49 240.0313,49 Q239.3281,49 238.7344,49.2813 Q238.1563,49.5625 237.7031,50.1875 Q237.25,50.8125 237.25,51.6719 L237.25,52.5938 Q237.25,53.625 238.0938,54.3125 Q238.9375,55 240.4375,55 Q241.3281,55 241.9531,54.7969 Q242.3125,54.6875 242.7188,54.3281 Q242.9844,54.125 243.125,54.0625 Q243.2656,54 243.4375,54 Q243.7656,54 244,54.2656 Q244.25,54.5156 244.25,54.875 Q244.25,55.2188 243.9063,55.625 Q243.4063,56.2188 242.6094,56.5469 Q241.5625,57 240.2813,57 Q238.7813,57 237.5781,56.4063 Q236.6094,55.9375 235.9219,54.9219 Q235.25,53.9063 235.25,52.7031 L235.25,51.6094 Q235.25,50.3594 235.8438,49.2656 Q236.4531,48.1719 237.5,47.5938 Q238.5625,47 239.75,47 Q240.4688,47 241.0938,47.25 Q241.7188,47.5 242.25,48 Z " fill="#000000"/><text fill="#000000" font-family="sans-serif" font-size="12" lengthAdjust="spacing" textLength="109" x="260.75" y="56.4102">AddDroneController</text><line style="stroke:#A80036;stroke-width:1.5;" x1="168" x2="430" y1="67.5" y2="67.5"/><line style="stroke:#A80036;stroke-width:1.5;" x1="168" x2="430" y1="75.5" y2="75.5"/><ellipse cx="178" cy="86.5" fill="#84BE84" rx="3" ry="3" style="stroke:#038048;stroke-width:1.0;"/><text fill="#000000" font-family="sans-serif" font-size="11" lengthAdjust="spacing" textLength="66" x="187" y="90.9189">getDroneDB()</text><ellipse cx="178" cy="100.3359" fill="#84BE84" rx="3" ry="3" style="stroke:#038048;stroke-width:1.0;"/><text fill="#000000" font-family="sans-serif" font-size="11" lengthAdjust="spacing" textLength="225" x="187" y="104.7549">addDrone(id, batterySize, batteryConsumption,</text><text fill="#000000" font-family="sans-serif" font-size="11" lengthAdjust="spacing" textLength="200" x="190" y="118.5908">batteryEfficiency, currentBattery, weight,</text><text fill="#000000" font-family="sans-serif" font-size="11" lengthAdjust="spacing" textLength="235" x="190" y="132.4268">frontalArea, motorPower, pharmacyNif, payload)</text><ellipse cx="178" cy="141.8438" fill="#84BE84" rx="3" ry="3" style="stroke:#038048;stroke-width:1.0;"/><text fill="#000000" font-family="sans-serif" font-size="11" lengthAdjust="spacing" textLength="83" x="187" y="146.2627">addDrone(drone)</text><!--MD5=[0b4e4b4980470ea387cc45de9bd14b5b]
class Application--><rect codeLine="13" fill="#FEFECE" filter="url(#fa35fren4q6zm)" height="61.8359" id="Application" style="stroke:#A80036;stroke-width:1.5;" width="92" x="578" y="7"/><ellipse cx="593" cy="23" fill="#ADD1B2" rx="11" ry="11" style="stroke:#A80036;stroke-width:1.0;"/><path d="M595,19.5 Q595.2031,19 595.4375,18.75 Q595.6719,18.5 595.9375,18.5 Q596.4063,18.5 596.7031,18.7813 Q597,19.0625 597,19.7188 L597,21.2813 Q597,21.9375 596.7188,22.2188 Q596.4375,22.5 596,22.5 Q595.6094,22.5 595.3594,22.3281 Q595.1094,22.1563 595,21.7031 Q594.9531,21.3906 594.7813,21.2188 Q594.4688,20.8906 593.9063,20.7031 Q593.3438,20.5 592.7813,20.5 Q592.0781,20.5 591.4844,20.7813 Q590.9063,21.0625 590.4531,21.6875 Q590,22.3125 590,23.1719 L590,24.0938 Q590,25.125 590.8438,25.8125 Q591.6875,26.5 593.1875,26.5 Q594.0781,26.5 594.7031,26.2969 Q595.0625,26.1875 595.4688,25.8281 Q595.7344,25.625 595.875,25.5625 Q596.0156,25.5 596.1875,25.5 Q596.5156,25.5 596.75,25.7656 Q597,26.0156 597,26.375 Q597,26.7188 596.6563,27.125 Q596.1563,27.7188 595.3594,28.0469 Q594.3125,28.5 593.0313,28.5 Q591.5313,28.5 590.3281,27.9063 Q589.3594,27.4375 588.6719,26.4219 Q588,25.4063 588,24.2031 L588,23.1094 Q588,21.8594 588.5938,20.7656 Q589.2031,19.6719 590.25,19.0938 Q591.3125,18.5 592.5,18.5 Q593.2188,18.5 593.8438,18.75 Q594.4688,19 595,19.5 Z " fill="#000000"/><text fill="#000000" font-family="sans-serif" font-size="12" lengthAdjust="spacing" textLength="60" x="607" y="27.9102">Application</text><line style="stroke:#A80036;stroke-width:1.5;" x1="579" x2="669" y1="39" y2="39"/><line style="stroke:#A80036;stroke-width:1.5;" x1="579" x2="669" y1="47" y2="47"/><ellipse cx="589" cy="58" fill="#84BE84" rx="3" ry="3" style="stroke:#038048;stroke-width:1.0;"/><text fill="#000000" font-family="sans-serif" font-size="11" lengthAdjust="spacing" textLength="66" x="598" y="62.4189">getDroneDB()</text><!--MD5=[a4eae41eab29d4dd77d4cf581c75c18f]
class DroneRegister--><rect codeLine="17" fill="#FEFECE" filter="url(#fa35fren4q6zm)" height="89.5078" id="DroneRegister" style="stroke:#A80036;stroke-width:1.5;" width="264" x="492" y="104"/><ellipse cx="579.25" cy="120" fill="#ADD1B2" rx="11" ry="11" style="stroke:#A80036;stroke-width:1.0;"/><path d="M581.25,116.5 Q581.4531,116 581.6875,115.75 Q581.9219,115.5 582.1875,115.5 Q582.6563,115.5 582.9531,115.7813 Q583.25,116.0625 583.25,116.7188 L583.25,118.2813 Q583.25,118.9375 582.9688,119.2188 Q582.6875,119.5 582.25,119.5 Q581.8594,119.5 581.6094,119.3281 Q581.3594,119.1563 581.25,118.7031 Q581.2031,118.3906 581.0313,118.2188 Q580.7188,117.8906 580.1563,117.7031 Q579.5938,117.5 579.0313,117.5 Q578.3281,117.5 577.7344,117.7813 Q577.1563,118.0625 576.7031,118.6875 Q576.25,119.3125 576.25,120.1719 L576.25,121.0938 Q576.25,122.125 577.0938,122.8125 Q577.9375,123.5 579.4375,123.5 Q580.3281,123.5 580.9531,123.2969 Q581.3125,123.1875 581.7188,122.8281 Q581.9844,122.625 582.125,122.5625 Q582.2656,122.5 582.4375,122.5 Q582.7656,122.5 583,122.7656 Q583.25,123.0156 583.25,123.375 Q583.25,123.7188 582.9063,124.125 Q582.4063,124.7188 581.6094,125.0469 Q580.5625,125.5 579.2813,125.5 Q577.7813,125.5 576.5781,124.9063 Q575.6094,124.4375 574.9219,123.4219 Q574.25,122.4063 574.25,121.2031 L574.25,120.1094 Q574.25,118.8594 574.8438,117.7656 Q575.4531,116.6719 576.5,116.0938 Q577.5625,115.5 578.75,115.5 Q579.4688,115.5 580.0938,115.75 Q580.7188,116 581.25,116.5 Z " fill="#000000"/><text fill="#000000" font-family="sans-serif" font-size="12" lengthAdjust="spacing" textLength="81" x="599.75" y="124.9102">DroneRegister</text><line style="stroke:#A80036;stroke-width:1.5;" x1="493" x2="755" y1="136" y2="136"/><line style="stroke:#A80036;stroke-width:1.5;" x1="493" x2="755" y1="144" y2="144"/><ellipse cx="503" cy="155" fill="#84BE84" rx="3" ry="3" style="stroke:#038048;stroke-width:1.0;"/><text fill="#000000" font-family="sans-serif" font-size="11" lengthAdjust="spacing" textLength="225" x="512" y="159.4189">addDrone(id, batterySize, batteryConsumption,</text><text fill="#000000" font-family="sans-serif" font-size="11" lengthAdjust="spacing" textLength="200" x="515" y="173.2549">batteryEfficiency, currentBattery, weight,</text><text fill="#000000" font-family="sans-serif" font-size="11" lengthAdjust="spacing" textLength="235" x="515" y="187.0908">frontalArea, motorPower, pharmacyNif, payload)</text><!--MD5=[e5e4874ffcb9901dc5acd0f1e94e7c33]
class DroneDB--><rect codeLine="21" fill="#FEFECE" filter="url(#fa35fren4q6zm)" height="61.8359" id="DroneDB" style="stroke:#A80036;stroke-width:1.5;" width="109" x="839" y="63"/><ellipse cx="865.7" cy="79" fill="#ADD1B2" rx="11" ry="11" style="stroke:#A80036;stroke-width:1.0;"/><path d="M867.7,75.5 Q867.9031,75 868.1375,74.75 Q868.3719,74.5 868.6375,74.5 Q869.1063,74.5 869.4031,74.7813 Q869.7,75.0625 869.7,75.7188 L869.7,77.2813 Q869.7,77.9375 869.4188,78.2188 Q869.1375,78.5 868.7,78.5 Q868.3094,78.5 868.0594,78.3281 Q867.8094,78.1563 867.7,77.7031 Q867.6531,77.3906 867.4813,77.2188 Q867.1688,76.8906 866.6063,76.7031 Q866.0438,76.5 865.4813,76.5 Q864.7781,76.5 864.1844,76.7813 Q863.6063,77.0625 863.1531,77.6875 Q862.7,78.3125 862.7,79.1719 L862.7,80.0938 Q862.7,81.125 863.5438,81.8125 Q864.3875,82.5 865.8875,82.5 Q866.7781,82.5 867.4031,82.2969 Q867.7625,82.1875 868.1688,81.8281 Q868.4344,81.625 868.575,81.5625 Q868.7156,81.5 868.8875,81.5 Q869.2156,81.5 869.45,81.7656 Q869.7,82.0156 869.7,82.375 Q869.7,82.7188 869.3563,83.125 Q868.8563,83.7188 868.0594,84.0469 Q867.0125,84.5 865.7313,84.5 Q864.2313,84.5 863.0281,83.9063 Q862.0594,83.4375 861.3719,82.4219 Q860.7,81.4063 860.7,80.2031 L860.7,79.1094 Q860.7,77.8594 861.2938,76.7656 Q861.9031,75.6719 862.95,75.0938 Q864.0125,74.5 865.2,74.5 Q865.9188,74.5 866.5438,74.75 Q867.1688,75 867.7,75.5 Z " fill="#000000"/><text fill="#000000" font-family="sans-serif" font-size="12" lengthAdjust="spacing" textLength="51" x="882.3" y="83.9102">DroneDB</text><line style="stroke:#A80036;stroke-width:1.5;" x1="840" x2="947" y1="95" y2="95"/><line style="stroke:#A80036;stroke-width:1.5;" x1="840" x2="947" y1="103" y2="103"/><ellipse cx="850" cy="114" fill="#84BE84" rx="3" ry="3" style="stroke:#038048;stroke-width:1.0;"/><text fill="#000000" font-family="sans-serif" font-size="11" lengthAdjust="spacing" textLength="83" x="859" y="118.4189">addDrone(drone)</text><!--MD5=[0b023420a167078655aadff7429a9184]
link AddDroneUI to AddDroneController--><path codeLine="26" d="M106.17,94 C122.62,94 141.88,94 161.73,94 " fill="none" id="AddDroneUI-to-AddDroneController" style="stroke:#A80036;stroke-width:1.0;stroke-dasharray:7.0,7.0;"/><polygon fill="#A80036" points="166.79,94,157.79,90,161.79,94,157.79,98,166.79,94" style="stroke:#A80036;stroke-width:1.0;"/><!--MD5=[15a33daaeef5e7b359ac9b81e5f2b377]
link AddDroneController to Application--><path codeLine="27" d="M431.38,71.22 C481.19,62.59 534.96,53.26 572.83,46.7 " fill="none" id="AddDroneController-to-Application" style="stroke:#A80036;stroke-width:1.0;stroke-dasharray:7.0,7.0;"/><polygon fill="#A80036" points="577.83,45.83,568.2777,43.4312,572.9039,46.6867,569.6485,51.3129,577.83,45.83" style="stroke:#A80036;stroke-width:1.0;"/><!--MD5=[b553c8dbeab18fc09b87387fe829f1e2]
link AddDroneController to DroneRegister--><path codeLine="28" d="M431.38,116.37 C449.58,119.47 468.31,122.66 486.59,125.77 " fill="none" id="AddDroneController-to-DroneRegister" style="stroke:#A80036;stroke-width:1.0;stroke-dasharray:7.0,7.0;"/><polygon fill="#A80036" points="491.74,126.65,483.5277,121.2133,486.8092,125.8211,482.2014,129.1025,491.74,126.65" style="stroke:#A80036;stroke-width:1.0;"/><!--MD5=[1db786c054b6c5d88709f160cb19416e]
link Application to DroneDB--><path codeLine="29" d="M670.08,47.44 C715.13,56.87 784.63,71.42 833.93,81.74 " fill="none" id="Application-to-DroneDB" style="stroke:#A80036;stroke-width:1.0;"/><polygon fill="#A80036" points="838.94,82.79,830.9376,77.0487,834.0438,81.7765,829.316,84.8827,838.94,82.79" style="stroke:#A80036;stroke-width:1.0;"/><text fill="#000000" font-family="sans-serif" font-size="13" lengthAdjust="spacing" textLength="21" x="787" y="69.4951">has</text><text fill="#000000" font-family="sans-serif" font-size="13" lengthAdjust="spacing" textLength="7" x="677.9818" y="63.7557">1</text><text fill="#000000" font-family="sans-serif" font-size="13" lengthAdjust="spacing" textLength="7" x="824.1382" y="95.8884">1</text><!--MD5=[1abcb01d066c61dca501cbd76264f350]
link DroneRegister to DroneDB--><path codeLine="30" d="M756.01,122.06 C783.21,116.47 810.55,110.85 833.55,106.12 " fill="none" id="DroneRegister-to-DroneDB" style="stroke:#A80036;stroke-width:1.0;stroke-dasharray:7.0,7.0;"/><polygon fill="#A80036" points="838.7,105.06,829.0807,102.9459,833.8016,106.0626,830.6849,110.7834,838.7,105.06" style="stroke:#A80036;stroke-width:1.0;"/><!--MD5=[66792b299f229333afdb5c083481d897]
@startuml

left to right direction

class AddDroneUI {
}

class AddDroneController {
  +getDroneDB()
    +addDrone(id, batterySize, batteryConsumption,\n batteryEfficiency, currentBattery, weight,\n frontalArea, motorPower, pharmacyNif, payload)
  +addDrone(drone)
}

class Application {
  +getDroneDB()
}

class DroneRegister {
    +addDrone(id, batterySize, batteryConsumption,\n batteryEfficiency, currentBattery, weight,\n frontalArea, motorPower, pharmacyNif, payload)
}

class DroneDB {
  +addDrone(drone)
}


AddDroneUI ..> AddDroneController
AddDroneController ..> Application
AddDroneController ..> DroneRegister
Application "1" - -> "1" DroneDB: has
DroneRegister..>DroneDB
@enduml

PlantUML version 1.2021.00(Sun Jan 10 10:25:05 GMT 2021)
(GPL source distribution)
Java Runtime: OpenJDK Runtime Environment
JVM: OpenJDK 64-Bit Server VM
Default Encoding: Cp1252
Language: pt
Country: PT
--></g></svg>