<?xml version="1.0" encoding="UTF-8" standalone="no"?><svg xmlns="http://www.w3.org/2000/svg" xmlns:xlink="http://www.w3.org/1999/xlink" contentScriptType="application/ecmascript" contentStyleType="text/css" height="172.2px" preserveAspectRatio="none" style="width:383px;height:172px;" version="1.1" viewBox="0 0 383 172" width="383.4px" zoomAndPan="magnify"><defs><filter height="300%" id="flkdhcw6156rb" width="300%" x="-1" y="-1"><feGaussianBlur result="blurOut" stdDeviation="1.2"/><feColorMatrix in="blurOut" result="blurOut2" type="matrix" values="0 0 0 0 0 0 0 0 0 0 0 0 0 0 0 0 0 0 .4 0"/><feOffset dx="2.4" dy="2.4" in="blurOut2" result="blurOut3"/><feBlend in="SourceGraphic" in2="blurOut3" mode="normal"/></filter></defs><g><!--MD5=[da547346deef918ea16944ba046651ef]
class Administrator--><rect codeLine="4" fill="#FEFECE" filter="url(#flkdhcw6156rb)" height="57.2063" id="Administrator" style="stroke:#A80036;stroke-width:0.8999999999999999;" width="73.8" x="4.2" y="4.2"/><ellipse cx="18.06" cy="13.8" fill="#ADD1B2" rx="6.6" ry="6.6" style="stroke:#A80036;stroke-width:0.6;"/><path d="M19.26,11.7 Q19.3819,11.4 19.5225,11.25 Q19.6631,11.1 19.8225,11.1 Q20.1038,11.1 20.2819,11.2687 Q20.46,11.4375 20.46,11.8312 L20.46,12.7687 Q20.46,13.1625 20.2913,13.3312 Q20.1225,13.5 19.86,13.5 Q19.6256,13.5 19.4756,13.3969 Q19.3256,13.2938 19.26,13.0219 Q19.2319,12.8344 19.1288,12.7313 Q18.9413,12.5344 18.6038,12.4219 Q18.2663,12.3 17.9288,12.3 Q17.5069,12.3 17.1506,12.4688 Q16.8038,12.6375 16.5319,13.0125 Q16.26,13.3875 16.26,13.9031 L16.26,14.4562 Q16.26,15.075 16.7663,15.4875 Q17.2725,15.9 18.1725,15.9 Q18.7069,15.9 19.0819,15.7781 Q19.2975,15.7125 19.5413,15.4969 Q19.7006,15.375 19.785,15.3375 Q19.8694,15.3 19.9725,15.3 Q20.1694,15.3 20.31,15.4594 Q20.46,15.6094 20.46,15.825 Q20.46,16.0313 20.2538,16.275 Q19.9538,16.6312 19.4756,16.8281 Q18.8475,17.1 18.0788,17.1 Q17.1788,17.1 16.4569,16.7438 Q15.8756,16.4625 15.4631,15.8531 Q15.06,15.2437 15.06,14.5219 L15.06,13.8656 Q15.06,13.1156 15.4163,12.4594 Q15.7819,11.8031 16.41,11.4562 Q17.0475,11.1 17.76,11.1 Q18.1913,11.1 18.5663,11.25 Q18.9413,11.4 19.26,11.7 Z " fill="#000000"/><text fill="#000000" font-family="sans-serif" font-size="7.2" lengthAdjust="spacingAndGlyphs" textLength="43.8" x="27.54" y="16.7461">Administrator</text><line style="stroke:#A80036;stroke-width:0.8999999999999999;" x1="4.8" x2="77.4" y1="23.4" y2="23.4"/><rect fill="none" height="3.6" style="stroke:#C82930;stroke-width:0.6;" width="3.6" x="9" y="28.2"/><text fill="#000000" font-family="sans-serif" font-size="6.6" lengthAdjust="spacingAndGlyphs" textLength="26.4" x="16.2" y="32.6514">Integer id</text><rect fill="none" height="3.6" style="stroke:#C82930;stroke-width:0.6;" width="3.6" x="9" y="36.5016"/><text fill="#000000" font-family="sans-serif" font-size="6.6" lengthAdjust="spacingAndGlyphs" textLength="34.2" x="16.2" y="40.9529">String name</text><rect fill="none" height="3.6" style="stroke:#C82930;stroke-width:0.6;" width="3.6" x="9" y="44.8031"/><text fill="#000000" font-family="sans-serif" font-size="6.6" lengthAdjust="spacingAndGlyphs" textLength="58.2" x="16.2" y="49.2545">String emailAddress</text><rect fill="none" height="3.6" style="stroke:#C82930;stroke-width:0.6;" width="3.6" x="9" y="53.1047"/><text fill="#000000" font-family="sans-serif" font-size="6.6" lengthAdjust="spacingAndGlyphs" textLength="48.6" x="16.2" y="57.5561">String password</text><!--MD5=[2e3f1e60e74253ff42e47f8bfdb04ee2]
class Drone--><rect codeLine="11" fill="#FEFECE" filter="url(#flkdhcw6156rb)" height="65.5078" id="Drone" style="stroke:#A80036;stroke-width:0.8999999999999999;" width="94.8" x="280.2" y="34.2"/><ellipse cx="314.85" cy="43.8" fill="#ADD1B2" rx="6.6" ry="6.6" style="stroke:#A80036;stroke-width:0.6;"/><path d="M316.05,41.7 Q316.1719,41.4 316.3125,41.25 Q316.4531,41.1 316.6125,41.1 Q316.8938,41.1 317.0719,41.2688 Q317.25,41.4375 317.25,41.8313 L317.25,42.7688 Q317.25,43.1625 317.0813,43.3313 Q316.9125,43.5 316.65,43.5 Q316.4156,43.5 316.2656,43.3969 Q316.1156,43.2937 316.05,43.0219 Q316.0219,42.8344 315.9188,42.7312 Q315.7313,42.5344 315.3938,42.4219 Q315.0563,42.3 314.7188,42.3 Q314.2969,42.3 313.9406,42.4688 Q313.5938,42.6375 313.3219,43.0125 Q313.05,43.3875 313.05,43.9031 L313.05,44.4563 Q313.05,45.075 313.5563,45.4875 Q314.0625,45.9 314.9625,45.9 Q315.4969,45.9 315.8719,45.7781 Q316.0875,45.7125 316.3313,45.4969 Q316.4906,45.375 316.575,45.3375 Q316.6594,45.3 316.7625,45.3 Q316.9594,45.3 317.1,45.4594 Q317.25,45.6094 317.25,45.825 Q317.25,46.0313 317.0438,46.275 Q316.7438,46.6313 316.2656,46.8281 Q315.6375,47.1 314.8688,47.1 Q313.9688,47.1 313.2469,46.7438 Q312.6656,46.4625 312.2531,45.8531 Q311.85,45.2438 311.85,44.5219 L311.85,43.8656 Q311.85,43.1156 312.2063,42.4594 Q312.5719,41.8031 313.2,41.4563 Q313.8375,41.1 314.55,41.1 Q314.9813,41.1 315.3563,41.25 Q315.7313,41.4 316.05,41.7 Z " fill="#000000"/><text fill="#000000" font-family="sans-serif" font-size="7.2" lengthAdjust="spacingAndGlyphs" textLength="20.4" x="327.15" y="46.7461">Drone</text><line style="stroke:#A80036;stroke-width:0.8999999999999999;" x1="280.8" x2="374.4" y1="53.4" y2="53.4"/><rect fill="none" height="3.6" style="stroke:#C82930;stroke-width:0.6;" width="3.6" x="285" y="58.2"/><text fill="#000000" font-family="sans-serif" font-size="6.6" lengthAdjust="spacingAndGlyphs" textLength="26.4" x="292.2" y="62.6514">Integer id</text><rect fill="none" height="3.6" style="stroke:#C82930;stroke-width:0.6;" width="3.6" x="285" y="66.5016"/><text fill="#000000" font-family="sans-serif" font-size="6.6" lengthAdjust="spacingAndGlyphs" textLength="54.6" x="292.2" y="70.9529">Double batterySize</text><rect fill="none" height="3.6" style="stroke:#C82930;stroke-width:0.6;" width="3.6" x="285" y="74.8031"/><text fill="#000000" font-family="sans-serif" font-size="6.6" lengthAdjust="spacingAndGlyphs" textLength="63.6" x="292.2" y="79.2545">Double currentBattery</text><rect fill="none" height="3.6" style="stroke:#C82930;stroke-width:0.6;" width="3.6" x="285" y="83.1047"/><text fill="#000000" font-family="sans-serif" font-size="6.6" lengthAdjust="spacingAndGlyphs" textLength="79.2" x="292.2" y="87.5561">Double batteryConsumption</text><rect fill="none" height="3.6" style="stroke:#C82930;stroke-width:0.6;" width="3.6" x="285" y="91.4063"/><text fill="#000000" font-family="sans-serif" font-size="6.6" lengthAdjust="spacingAndGlyphs" textLength="31.2" x="292.2" y="95.8576">int payload</text><!--MD5=[0b4e4b4980470ea387cc45de9bd14b5b]
class Application--><rect codeLine="19" fill="#FEFECE" filter="url(#flkdhcw6156rb)" height="24" id="Application" style="stroke:#A80036;stroke-width:0.8999999999999999;" width="55.2" x="13.5" y="86.1"/><ellipse cx="22.5" cy="95.7" fill="#ADD1B2" rx="6.6" ry="6.6" style="stroke:#A80036;stroke-width:0.6;"/><path d="M23.7,93.6 Q23.8219,93.3 23.9625,93.15 Q24.1031,93 24.2625,93 Q24.5438,93 24.7219,93.1688 Q24.9,93.3375 24.9,93.7313 L24.9,94.6688 Q24.9,95.0625 24.7313,95.2313 Q24.5625,95.4 24.3,95.4 Q24.0656,95.4 23.9156,95.2969 Q23.7656,95.1938 23.7,94.9219 Q23.6719,94.7344 23.5687,94.6313 Q23.3812,94.4344 23.0438,94.3219 Q22.7063,94.2 22.3688,94.2 Q21.9469,94.2 21.5906,94.3687 Q21.2438,94.5375 20.9719,94.9125 Q20.7,95.2875 20.7,95.8031 L20.7,96.3563 Q20.7,96.975 21.2063,97.3875 Q21.7125,97.8 22.6125,97.8 Q23.1469,97.8 23.5219,97.6781 Q23.7375,97.6125 23.9813,97.3969 Q24.1406,97.275 24.225,97.2375 Q24.3094,97.2 24.4125,97.2 Q24.6094,97.2 24.75,97.3594 Q24.9,97.5094 24.9,97.725 Q24.9,97.9312 24.6937,98.175 Q24.3938,98.5313 23.9156,98.7281 Q23.2875,99 22.5188,99 Q21.6188,99 20.8969,98.6438 Q20.3156,98.3625 19.9031,97.7531 Q19.5,97.1438 19.5,96.4219 L19.5,95.7656 Q19.5,95.0156 19.8563,94.3594 Q20.2219,93.7031 20.85,93.3563 Q21.4875,93 22.2,93 Q22.6312,93 23.0062,93.15 Q23.3812,93.3 23.7,93.6 Z " fill="#000000"/><text fill="#000000" font-family="sans-serif" font-size="7.2" lengthAdjust="spacingAndGlyphs" textLength="36" x="30.9" y="98.6461">Application</text><line style="stroke:#A80036;stroke-width:0.8999999999999999;" x1="14.1" x2="68.1" y1="105.3" y2="105.3"/><!--MD5=[3fd616f346a44cd59a91eb10b19e157c]
class User--><rect codeLine="21" fill="#FEFECE" filter="url(#flkdhcw6156rb)" height="57.2063" id="User" style="stroke:#A80036;stroke-width:0.8999999999999999;" width="73.8" x="148.8" y="36.6"/><ellipse cx="175.08" cy="46.2" fill="#ADD1B2" rx="6.6" ry="6.6" style="stroke:#A80036;stroke-width:0.6;"/><path d="M176.28,44.1 Q176.4019,43.8 176.5425,43.65 Q176.6831,43.5 176.8425,43.5 Q177.1238,43.5 177.3019,43.6687 Q177.48,43.8375 177.48,44.2312 L177.48,45.1687 Q177.48,45.5625 177.3113,45.7312 Q177.1425,45.9 176.88,45.9 Q176.6456,45.9 176.4956,45.7969 Q176.3456,45.6938 176.28,45.4219 Q176.2519,45.2344 176.1488,45.1313 Q175.9613,44.9344 175.6238,44.8219 Q175.2863,44.7 174.9488,44.7 Q174.5269,44.7 174.1706,44.8688 Q173.8238,45.0375 173.5519,45.4125 Q173.28,45.7875 173.28,46.3031 L173.28,46.8562 Q173.28,47.475 173.7863,47.8875 Q174.2925,48.3 175.1925,48.3 Q175.7269,48.3 176.1019,48.1781 Q176.3175,48.1125 176.5613,47.8969 Q176.7206,47.775 176.805,47.7375 Q176.8894,47.7 176.9925,47.7 Q177.1894,47.7 177.33,47.8594 Q177.48,48.0094 177.48,48.225 Q177.48,48.4313 177.2738,48.675 Q176.9738,49.0313 176.4956,49.2281 Q175.8675,49.5 175.0988,49.5 Q174.1988,49.5 173.4769,49.1438 Q172.8956,48.8625 172.4831,48.2531 Q172.08,47.6438 172.08,46.9219 L172.08,46.2656 Q172.08,45.5156 172.4363,44.8594 Q172.8019,44.2031 173.43,43.8562 Q174.0675,43.5 174.78,43.5 Q175.2113,43.5 175.5863,43.65 Q175.9613,43.8 176.28,44.1 Z " fill="#000000"/><text fill="#000000" font-family="sans-serif" font-size="7.2" lengthAdjust="spacingAndGlyphs" textLength="16.2" x="187.32" y="49.1461">User</text><line style="stroke:#A80036;stroke-width:0.8999999999999999;" x1="149.4" x2="222" y1="55.8" y2="55.8"/><rect fill="none" height="3.6" style="stroke:#C82930;stroke-width:0.6;" width="3.6" x="153.6" y="60.6"/><text fill="#000000" font-family="sans-serif" font-size="6.6" lengthAdjust="spacingAndGlyphs" textLength="26.4" x="160.8" y="65.0514">Integer id</text><rect fill="none" height="3.6" style="stroke:#C82930;stroke-width:0.6;" width="3.6" x="153.6" y="68.9016"/><text fill="#000000" font-family="sans-serif" font-size="6.6" lengthAdjust="spacingAndGlyphs" textLength="34.2" x="160.8" y="73.3529">String name</text><rect fill="none" height="3.6" style="stroke:#C82930;stroke-width:0.6;" width="3.6" x="153.6" y="77.2031"/><text fill="#000000" font-family="sans-serif" font-size="6.6" lengthAdjust="spacingAndGlyphs" textLength="58.2" x="160.8" y="81.6545">String emailAddress</text><rect fill="none" height="3.6" style="stroke:#C82930;stroke-width:0.6;" width="3.6" x="153.6" y="85.5047"/><text fill="#000000" font-family="sans-serif" font-size="6.6" lengthAdjust="spacingAndGlyphs" textLength="48.6" x="160.8" y="89.9561">String password</text><!--MD5=[7f2a9fafcebe4f099f71398fd3e2ed00]
class Pharmacy--><rect codeLine="28" fill="#FEFECE" filter="url(#flkdhcw6156rb)" height="48.9047" id="Pharmacy" style="stroke:#A80036;stroke-width:0.8999999999999999;" width="67.2" x="152.1" y="114.9"/><ellipse cx="167.85" cy="124.5" fill="#ADD1B2" rx="6.6" ry="6.6" style="stroke:#A80036;stroke-width:0.6;"/><path d="M169.05,122.4 Q169.1719,122.1 169.3125,121.95 Q169.4531,121.8 169.6125,121.8 Q169.8937,121.8 170.0719,121.9688 Q170.25,122.1375 170.25,122.5313 L170.25,123.4688 Q170.25,123.8625 170.0812,124.0313 Q169.9125,124.2 169.65,124.2 Q169.4156,124.2 169.2656,124.0969 Q169.1156,123.9937 169.05,123.7219 Q169.0219,123.5344 168.9188,123.4312 Q168.7313,123.2344 168.3937,123.1219 Q168.0563,123 167.7188,123 Q167.2969,123 166.9406,123.1687 Q166.5938,123.3375 166.3219,123.7125 Q166.05,124.0875 166.05,124.6031 L166.05,125.1563 Q166.05,125.775 166.5563,126.1875 Q167.0625,126.6 167.9625,126.6 Q168.4969,126.6 168.8719,126.4781 Q169.0875,126.4125 169.3312,126.1969 Q169.4906,126.075 169.575,126.0375 Q169.6594,126 169.7625,126 Q169.9594,126 170.1,126.1594 Q170.25,126.3094 170.25,126.525 Q170.25,126.7312 170.0438,126.975 Q169.7438,127.3313 169.2656,127.5281 Q168.6375,127.8 167.8688,127.8 Q166.9688,127.8 166.2469,127.4438 Q165.6656,127.1625 165.2531,126.5531 Q164.85,125.9438 164.85,125.2219 L164.85,124.5656 Q164.85,123.8156 165.2062,123.1594 Q165.5719,122.5031 166.2,122.1563 Q166.8375,121.8 167.55,121.8 Q167.9813,121.8 168.3563,121.95 Q168.7313,122.1 169.05,122.4 Z " fill="#000000"/><text fill="#000000" font-family="sans-serif" font-size="7.2" lengthAdjust="spacingAndGlyphs" textLength="33" x="177.75" y="127.4461">Pharmacy</text><line style="stroke:#A80036;stroke-width:0.8999999999999999;" x1="152.7" x2="218.7" y1="134.1" y2="134.1"/><rect fill="none" height="3.6" style="stroke:#C82930;stroke-width:0.6;" width="3.6" x="156.9" y="138.9"/><text fill="#000000" font-family="sans-serif" font-size="6.6" lengthAdjust="spacingAndGlyphs" textLength="26.4" x="164.1" y="143.3514">Integer id</text><rect fill="none" height="3.6" style="stroke:#C82930;stroke-width:0.6;" width="3.6" x="156.9" y="147.2016"/><text fill="#000000" font-family="sans-serif" font-size="6.6" lengthAdjust="spacingAndGlyphs" textLength="51.6" x="164.1" y="151.6529">String designation</text><rect fill="none" height="3.6" style="stroke:#C82930;stroke-width:0.6;" width="3.6" x="156.9" y="155.5031"/><text fill="#000000" font-family="sans-serif" font-size="6.6" lengthAdjust="spacingAndGlyphs" textLength="25.8" x="164.1" y="159.9545">String nif</text><!--MD5=[7e5f2900cc75c5dbfbca355ecc60e139]
link Administrator to Drone--><path codeLine="35" d="M78.09,26.682 C114.876,21.696 173.184,16.788 222.6,26.1 C242.01,29.76 262.44,36.93 280.032,44.25 " fill="none" id="Administrator-Drone" style="stroke:#A80036;stroke-width:0.6;"/><polygon fill="#000000" points="174.2887,16.2655,169.0349,14.0384,168.7293,17.5518,174.2887,16.2655" style="stroke:#000000;stroke-width:0.6;"/><text fill="#000000" font-family="sans-serif" font-size="7.8" lengthAdjust="spacingAndGlyphs" textLength="25.8" x="176.7" y="19.1971">creates</text><text fill="#000000" font-family="sans-serif" font-size="7.8" lengthAdjust="spacingAndGlyphs" textLength="4.2" x="82.8541" y="34.6309">1</text><text fill="#000000" font-family="sans-serif" font-size="7.8" lengthAdjust="spacingAndGlyphs" textLength="12" x="263.4285" y="50.8175">0..*</text><!--MD5=[edc107c0a572352bcd12c9afaba4390b]
link Administrator to User--><path codeLine="36" d="M78.072,40.92 C99.726,45.81 127.116,52.002 148.77,56.892 " fill="none" id="Administrator-User" style="stroke:#A80036;stroke-width:0.6;"/><polygon fill="#000000" points="101.9263,40.6666,97.0212,37.7506,96.244,41.1906,101.9263,40.6666" style="stroke:#000000;stroke-width:0.6;"/><text fill="#000000" font-family="sans-serif" font-size="7.8" lengthAdjust="spacingAndGlyphs" textLength="25.8" x="104.4" y="43.1971">acts as</text><text fill="#000000" font-family="sans-serif" font-size="7.8" lengthAdjust="spacingAndGlyphs" textLength="4.2" x="82.8339" y="50.6042">1</text><text fill="#000000" font-family="sans-serif" font-size="7.8" lengthAdjust="spacingAndGlyphs" textLength="4.2" x="139.8132" y="64.574">1</text><!--MD5=[f8ebe161610107101fe1df9bed99a2fd]
link Pharmacy to Drone--><path codeLine="38" d="M219.468,122.388 C237.504,113.082 260.112,101.412 279.942,91.182 " fill="none" id="Pharmacy-Drone" style="stroke:#A80036;stroke-width:0.6;"/><polygon fill="#000000" points="246.266,93.8298,240.6346,94.7514,242.2518,97.8855,246.266,93.8298" style="stroke:#000000;stroke-width:0.6;"/><text fill="#000000" font-family="sans-serif" font-size="7.8" lengthAdjust="spacingAndGlyphs" textLength="12.6" x="249" y="98.3971">has</text><text fill="#000000" font-family="sans-serif" font-size="7.8" lengthAdjust="spacingAndGlyphs" textLength="4.2" x="224.0636" y="128.94">1</text><text fill="#000000" font-family="sans-serif" font-size="7.8" lengthAdjust="spacingAndGlyphs" textLength="12" x="263.3308" y="101.7827">1..*</text><!--MD5=[fae869a5e026c729d21735d7cae014a7]
link Application to User--><path codeLine="40" d="M68.844,91.854 C91.416,86.658 123.75,79.218 148.59,73.5 " fill="none" id="Application-User" style="stroke:#A80036;stroke-width:0.6;"/><polygon fill="#000000" points="108.5236,71.7326,102.8393,71.2314,103.6303,74.6683,108.5236,71.7326" style="stroke:#000000;stroke-width:0.6;"/><text fill="#000000" font-family="sans-serif" font-size="7.8" lengthAdjust="spacingAndGlyphs" textLength="12.6" x="111" y="75.5971">has</text><text fill="#000000" font-family="sans-serif" font-size="7.8" lengthAdjust="spacingAndGlyphs" textLength="4.2" x="73.4139" y="99.7458">1</text><text fill="#000000" font-family="sans-serif" font-size="7.8" lengthAdjust="spacingAndGlyphs" textLength="12" x="131.8748" y="83.0411">1..*</text><!--MD5=[8c7e2cb836a61414bf9f02282664f603]
link Application to Pharmacy--><path codeLine="41" d="M68.844,105.936 C92.472,112.758 126.792,122.67 152.022,129.948 " fill="none" id="Application-Pharmacy" style="stroke:#A80036;stroke-width:0.6;"/><polygon fill="#000000" points="108.4823,109.2375,103.7572,106.0381,102.7791,109.4265,108.4823,109.2375" style="stroke:#000000;stroke-width:0.6;"/><text fill="#000000" font-family="sans-serif" font-size="7.8" lengthAdjust="spacingAndGlyphs" textLength="12.6" x="111" y="111.5971">has</text><text fill="#000000" font-family="sans-serif" font-size="7.8" lengthAdjust="spacingAndGlyphs" textLength="4.2" x="73.4139" y="115.9841">1</text><text fill="#000000" font-family="sans-serif" font-size="7.8" lengthAdjust="spacingAndGlyphs" textLength="4.2" x="143.0143" y="137.4405">1</text><!--MD5=[ecd764eba0bfe232b7c6e58a564c3ab6]
@startuml
hide methods
left to right direction

class Administrator {
    -Integer id
    -String name
    -String emailAddress
    -String password
}

class Drone {
    -Integer id
    -Double batterySize
    -Double currentBattery
    -Double batteryConsumption
    -int payload
}

class Application {}

class User {
    -Integer id
    -String name
    -String emailAddress
    -String password
}

class Pharmacy {
    -Integer id
    -String designation
    -String nif
}


Administrator "1" - - "0..*" Drone: creates >
Administrator "1" - - "1" User: acts as >

Pharmacy "1" - - "1..*" Drone: has >

Application "1" - - "1..*" User: has >
Application "1" - - "1" Pharmacy: has >

@enduml

PlantUML version 1.2020.23(Sun Dec 13 19:14:58 GMT 2020)
(GPL source distribution)
Java Runtime: OpenJDK Runtime Environment
JVM: OpenJDK 64-Bit Server VM
Default Encoding: Cp1252
Language: pt
Country: PT
--></g></svg>