<?xml version="1.0" encoding="UTF-8" standalone="no"?><svg xmlns="http://www.w3.org/2000/svg" xmlns:xlink="http://www.w3.org/1999/xlink" contentScriptType="application/ecmascript" contentStyleType="text/css" height="59px" preserveAspectRatio="none" style="width:583px;height:59px;" version="1.1" viewBox="0 0 583 59" width="583px" zoomAndPan="magnify">
    <defs>
        <filter height="300%" id="f5zw95bzyuhdv" width="300%" x="-1" y="-1">
            <feGaussianBlur result="blurOut" stdDeviation="2.0" />
            <feColorMatrix in="blurOut" result="blurOut2" type="matrix" values="0 0 0 0 0 0 0 0 0 0 0 0 0 0 0 0 0 0 .4 0" />
            <feOffset dx="4.0" dy="4.0" in="blurOut2" result="blurOut3" />
            <feBlend in="SourceGraphic" in2="blurOut3" mode="normal" />
        </filter>
    </defs>
    <g>
        <!--class Pharmacy-->
        <rect fill="#FEFECE" filter="url(#f5zw95bzyuhdv)" height="40" id="Pharmacy" style="stroke: #A80036; stroke-width: 1.5;" width="87" x="175" y="8" />
        <ellipse cx="190" cy="24" fill="#ADD1B2" rx="11" ry="11" style="stroke: #A80036; stroke-width: 1.0;" />
        <path d="M192.7656,19.875 Q192.9219,19.6563 193.1094,19.5469 Q193.2969,19.4375 193.5156,19.4375 Q193.8906,19.4375 194.125,19.6953 Q194.3594,19.9531 194.3594,20.5625 L194.3594,22.0156 Q194.3594,22.625 194.125,22.8906 Q193.8906,23.1563 193.5156,23.1563 Q193.1719,23.1563 192.9688,22.9531 Q192.7656,22.7656 192.6563,22.25 Q192.6094,21.8906 192.4219,21.7031 Q192.0938,21.3281 191.4844,21.1094 Q190.875,20.8906 190.25,20.8906 Q189.4844,20.8906 188.8516,21.2188 Q188.2188,21.5469 187.7266,22.2969 Q187.2344,23.0469 187.2344,24.0781 L187.2344,25.1719 Q187.2344,26.4063 188.125,27.2266 Q189.0156,28.0469 190.6094,28.0469 Q191.5469,28.0469 192.2031,27.7969 Q192.5938,27.6406 193.0156,27.2031 Q193.2813,26.9375 193.4297,26.8594 Q193.5781,26.7813 193.7813,26.7813 Q194.1094,26.7813 194.3672,27.0391 Q194.625,27.2969 194.625,27.6406 Q194.625,27.9844 194.2813,28.3906 Q193.7813,28.9688 192.9844,29.2969 Q191.9063,29.75 190.6094,29.75 Q189.0938,29.75 187.8906,29.125 Q186.9063,28.625 186.2188,27.5547 Q185.5313,26.4844 185.5313,25.2031 L185.5313,24.0469 Q185.5313,22.7188 186.1484,21.5703 Q186.7656,20.4219 187.8594,19.8047 Q188.9531,19.1875 190.1875,19.1875 Q190.9219,19.1875 191.5703,19.3516 Q192.2188,19.5156 192.7656,19.875 Z " /><text fill="#000000" font-family="sans-serif" font-size="12" lengthAdjust="spacingAndGlyphs" textLength="55" x="204" y="28.9102">Pharmacy</text>
        <line style="stroke: #A80036; stroke-width: 1.5;" x1="176" x2="261" y1="40" y2="40" />
        <!--class System-->
        <rect fill="#FEFECE" filter="url(#f5zw95bzyuhdv)" height="40" id="System" style="stroke: #A80036; stroke-width: 1.5;" width="73" x="6" y="8" />
        <ellipse cx="21" cy="24" fill="#ADD1B2" rx="11" ry="11" style="stroke: #A80036; stroke-width: 1.0;" />
        <path d="M23.7656,19.875 Q23.9219,19.6563 24.1094,19.5469 Q24.2969,19.4375 24.5156,19.4375 Q24.8906,19.4375 25.125,19.6953 Q25.3594,19.9531 25.3594,20.5625 L25.3594,22.0156 Q25.3594,22.625 25.125,22.8906 Q24.8906,23.1563 24.5156,23.1563 Q24.1719,23.1563 23.9688,22.9531 Q23.7656,22.7656 23.6563,22.25 Q23.6094,21.8906 23.4219,21.7031 Q23.0938,21.3281 22.4844,21.1094 Q21.875,20.8906 21.25,20.8906 Q20.4844,20.8906 19.8516,21.2188 Q19.2188,21.5469 18.7266,22.2969 Q18.2344,23.0469 18.2344,24.0781 L18.2344,25.1719 Q18.2344,26.4063 19.125,27.2266 Q20.0156,28.0469 21.6094,28.0469 Q22.5469,28.0469 23.2031,27.7969 Q23.5938,27.6406 24.0156,27.2031 Q24.2813,26.9375 24.4297,26.8594 Q24.5781,26.7813 24.7813,26.7813 Q25.1094,26.7813 25.3672,27.0391 Q25.625,27.2969 25.625,27.6406 Q25.625,27.9844 25.2813,28.3906 Q24.7813,28.9688 23.9844,29.2969 Q22.9063,29.75 21.6094,29.75 Q20.0938,29.75 18.8906,29.125 Q17.9063,28.625 17.2188,27.5547 Q16.5313,26.4844 16.5313,25.2031 L16.5313,24.0469 Q16.5313,22.7188 17.1484,21.5703 Q17.7656,20.4219 18.8594,19.8047 Q19.9531,19.1875 21.1875,19.1875 Q21.9219,19.1875 22.5703,19.3516 Q23.2188,19.5156 23.7656,19.875 Z " /><text fill="#000000" font-family="sans-serif" font-size="12" lengthAdjust="spacingAndGlyphs" textLength="41" x="35" y="28.9102">System</text>
        <line style="stroke: #A80036; stroke-width: 1.5;" x1="7" x2="78" y1="40" y2="40" />
        <!--class Stock-->
        <rect fill="#FEFECE" filter="url(#f5zw95bzyuhdv)" height="40" id="Stock" style="stroke: #A80036; stroke-width: 1.5;" width="62" x="358" y="8" />
        <ellipse cx="373" cy="24" fill="#ADD1B2" rx="11" ry="11" style="stroke: #A80036; stroke-width: 1.0;" />
        <path d="M375.7656,19.875 Q375.9219,19.6563 376.1094,19.5469 Q376.2969,19.4375 376.5156,19.4375 Q376.8906,19.4375 377.125,19.6953 Q377.3594,19.9531 377.3594,20.5625 L377.3594,22.0156 Q377.3594,22.625 377.125,22.8906 Q376.8906,23.1563 376.5156,23.1563 Q376.1719,23.1563 375.9688,22.9531 Q375.7656,22.7656 375.6563,22.25 Q375.6094,21.8906 375.4219,21.7031 Q375.0938,21.3281 374.4844,21.1094 Q373.875,20.8906 373.25,20.8906 Q372.4844,20.8906 371.8516,21.2188 Q371.2188,21.5469 370.7266,22.2969 Q370.2344,23.0469 370.2344,24.0781 L370.2344,25.1719 Q370.2344,26.4063 371.125,27.2266 Q372.0156,28.0469 373.6094,28.0469 Q374.5469,28.0469 375.2031,27.7969 Q375.5938,27.6406 376.0156,27.2031 Q376.2813,26.9375 376.4297,26.8594 Q376.5781,26.7813 376.7813,26.7813 Q377.1094,26.7813 377.3672,27.0391 Q377.625,27.2969 377.625,27.6406 Q377.625,27.9844 377.2813,28.3906 Q376.7813,28.9688 375.9844,29.2969 Q374.9063,29.75 373.6094,29.75 Q372.0938,29.75 370.8906,29.125 Q369.9063,28.625 369.2188,27.5547 Q368.5313,26.4844 368.5313,25.2031 L368.5313,24.0469 Q368.5313,22.7188 369.1484,21.5703 Q369.7656,20.4219 370.8594,19.8047 Q371.9531,19.1875 373.1875,19.1875 Q373.9219,19.1875 374.5703,19.3516 Q375.2188,19.5156 375.7656,19.875 Z " /><text fill="#000000" font-family="sans-serif" font-size="12" lengthAdjust="spacingAndGlyphs" textLength="30" x="387" y="28.9102">Stock</text>
        <line style="stroke: #A80036; stroke-width: 1.5;" x1="359" x2="419" y1="40" y2="40" />
        <!--class Item-->
        <rect fill="#FEFECE" filter="url(#f5zw95bzyuhdv)" height="40" id="Item" style="stroke: #A80036; stroke-width: 1.5;" width="56" x="516" y="8" />
        <ellipse cx="531" cy="24" fill="#ADD1B2" rx="11" ry="11" style="stroke: #A80036; stroke-width: 1.0;" />
        <path d="M533.7656,19.875 Q533.9219,19.6563 534.1094,19.5469 Q534.2969,19.4375 534.5156,19.4375 Q534.8906,19.4375 535.125,19.6953 Q535.3594,19.9531 535.3594,20.5625 L535.3594,22.0156 Q535.3594,22.625 535.125,22.8906 Q534.8906,23.1563 534.5156,23.1563 Q534.1719,23.1563 533.9688,22.9531 Q533.7656,22.7656 533.6563,22.25 Q533.6094,21.8906 533.4219,21.7031 Q533.0938,21.3281 532.4844,21.1094 Q531.875,20.8906 531.25,20.8906 Q530.4844,20.8906 529.8516,21.2188 Q529.2188,21.5469 528.7266,22.2969 Q528.2344,23.0469 528.2344,24.0781 L528.2344,25.1719 Q528.2344,26.4063 529.125,27.2266 Q530.0156,28.0469 531.6094,28.0469 Q532.5469,28.0469 533.2031,27.7969 Q533.5938,27.6406 534.0156,27.2031 Q534.2813,26.9375 534.4297,26.8594 Q534.5781,26.7813 534.7813,26.7813 Q535.1094,26.7813 535.3672,27.0391 Q535.625,27.2969 535.625,27.6406 Q535.625,27.9844 535.2813,28.3906 Q534.7813,28.9688 533.9844,29.2969 Q532.9063,29.75 531.6094,29.75 Q530.0938,29.75 528.8906,29.125 Q527.9063,28.625 527.2188,27.5547 Q526.5313,26.4844 526.5313,25.2031 L526.5313,24.0469 Q526.5313,22.7188 527.1484,21.5703 Q527.7656,20.4219 528.8594,19.8047 Q529.9531,19.1875 531.1875,19.1875 Q531.9219,19.1875 532.5703,19.3516 Q533.2188,19.5156 533.7656,19.875 Z " /><text fill="#000000" font-family="sans-serif" font-size="12" lengthAdjust="spacingAndGlyphs" textLength="24" x="545" y="28.9102">Item</text>
        <line style="stroke: #A80036; stroke-width: 1.5;" x1="517" x2="571" y1="40" y2="40" />
        <!--link System to Pharmacy-->
        <path d="M79.13,28 C106.87,28 145.47,28 174.85,28 " fill="none" id="System-Pharmacy" style="stroke: #A80036; stroke-width: 1.0;" /><text fill="#000000" font-family="sans-serif" font-size="13" lengthAdjust="spacingAndGlyphs" textLength="21" x="110" y="24.4951">has</text>
        <polygon fill="#000000" points="134,17.6758,140,20.6758,134,23.6758,134,17.6758" style="stroke: #000000; stroke-width: 1.0;" /><text fill="#000000" font-family="sans-serif" font-size="13" lengthAdjust="spacingAndGlyphs" textLength="7" x="87.0306" y="43.1047">1</text><text fill="#000000" font-family="sans-serif" font-size="13" lengthAdjust="spacingAndGlyphs" textLength="20" x="146.9702" y="42.6959">1..*</text>
        <!--link Pharmacy to Stock-->
        <path d="M262.02,28 C291.95,28 331.28,28 357.98,28 " fill="none" id="Pharmacy-Stock" style="stroke: #A80036; stroke-width: 1.0;" /><text fill="#000000" font-family="sans-serif" font-size="13" lengthAdjust="spacingAndGlyphs" textLength="21" x="293" y="24.4951">has</text>
        <polygon fill="#000000" points="317,17.6758,323,20.6758,317,23.6758,317,17.6758" style="stroke: #000000; stroke-width: 1.0;" /><text fill="#000000" font-family="sans-serif" font-size="13" lengthAdjust="spacingAndGlyphs" textLength="7" x="270.1016" y="42.9003">1</text><text fill="#000000" font-family="sans-serif" font-size="13" lengthAdjust="spacingAndGlyphs" textLength="7" x="342.9973" y="43.3858">1</text>
        <!--link Stock to Item-->
        <path d="M420.23,28 C448.1,28 489.09,28 515.91,28 " fill="none" id="Stock-Item" style="stroke: #A80036; stroke-width: 1.0;" /><text fill="#000000" font-family="sans-serif" font-size="13" lengthAdjust="spacingAndGlyphs" textLength="21" x="451" y="24.4951">has</text>
        <polygon fill="#000000" points="475,17.6758,481,20.6758,475,23.6758,475,17.6758" style="stroke: #000000; stroke-width: 1.0;" /><text fill="#000000" font-family="sans-serif" font-size="13" lengthAdjust="spacingAndGlyphs" textLength="7" x="427.8272" y="43.2836">1</text><text fill="#000000" font-family="sans-serif" font-size="13" lengthAdjust="spacingAndGlyphs" textLength="20" x="488.0539" y="43.1814">0..*</text>
        <!--
@startuml
hide methods
left to right direction

class Pharmacy {

}
class System {

}

class Stock {

}

class Item {

}

System "1" - - "1..*" Pharmacy: has >
Pharmacy "1" - - "1" Stock: has >
Stock "1" - - "0..*" Item: has >

@enduml

PlantUML version 1.2018.14(Fri Dec 21 16:33:16 GMT 2018)
(GPL source distribution)
Java Runtime: Java(TM) SE Runtime Environment
JVM: Java HotSpot(TM) 64-Bit Server VM
Java Version: 1.8.0_271-b09
Operating System: Windows 10
OS Version: 10.0
Default Encoding: Cp1252
Language: en
Country: US
-->
    </g>
</svg>