<?xml version="1.0" encoding="UTF-8" standalone="no"?><svg xmlns="http://www.w3.org/2000/svg" xmlns:xlink="http://www.w3.org/1999/xlink" contentScriptType="application/ecmascript" contentStyleType="text/css" height="260px" preserveAspectRatio="none" style="width:626px;height:260px;" version="1.1" viewBox="0 0 626 260" width="626px" zoomAndPan="magnify">
    <defs>
        <filter height="300%" id="fzilt6w6ik66b" width="300%" x="-1" y="-1">
            <feGaussianBlur result="blurOut" stdDeviation="2.0" />
            <feColorMatrix in="blurOut" result="blurOut2" type="matrix" values="0 0 0 0 0 0 0 0 0 0 0 0 0 0 0 0 0 0 .4 0" />
            <feOffset dx="4.0" dy="4.0" in="blurOut2" result="blurOut3" />
            <feBlend in="SourceGraphic" in2="blurOut3" mode="normal" />
        </filter>
    </defs>
    <g>
        <!--class CheckStockUI-->
        <rect fill="#FEFECE" filter="url(#fzilt6w6ik66b)" height="48" id="CheckStockUI" style="stroke: #A80036; stroke-width: 1.5;" width="109" x="6" y="98" />
        <ellipse cx="21" cy="114" fill="#ADD1B2" rx="11" ry="11" style="stroke: #A80036; stroke-width: 1.0;" />
        <path d="M23.7656,109.875 Q23.9219,109.6563 24.1094,109.5469 Q24.2969,109.4375 24.5156,109.4375 Q24.8906,109.4375 25.125,109.6953 Q25.3594,109.9531 25.3594,110.5625 L25.3594,112.0156 Q25.3594,112.625 25.125,112.8906 Q24.8906,113.1563 24.5156,113.1563 Q24.1719,113.1563 23.9688,112.9531 Q23.7656,112.7656 23.6563,112.25 Q23.6094,111.8906 23.4219,111.7031 Q23.0938,111.3281 22.4844,111.1094 Q21.875,110.8906 21.25,110.8906 Q20.4844,110.8906 19.8516,111.2188 Q19.2188,111.5469 18.7266,112.2969 Q18.2344,113.0469 18.2344,114.0781 L18.2344,115.1719 Q18.2344,116.4063 19.125,117.2266 Q20.0156,118.0469 21.6094,118.0469 Q22.5469,118.0469 23.2031,117.7969 Q23.5938,117.6406 24.0156,117.2031 Q24.2813,116.9375 24.4297,116.8594 Q24.5781,116.7813 24.7813,116.7813 Q25.1094,116.7813 25.3672,117.0391 Q25.625,117.2969 25.625,117.6406 Q25.625,117.9844 25.2813,118.3906 Q24.7813,118.9688 23.9844,119.2969 Q22.9063,119.75 21.6094,119.75 Q20.0938,119.75 18.8906,119.125 Q17.9063,118.625 17.2188,117.5547 Q16.5313,116.4844 16.5313,115.2031 L16.5313,114.0469 Q16.5313,112.7188 17.1484,111.5703 Q17.7656,110.4219 18.8594,109.8047 Q19.9531,109.1875 21.1875,109.1875 Q21.9219,109.1875 22.5703,109.3516 Q23.2188,109.5156 23.7656,109.875 Z " /><text fill="#000000" font-family="sans-serif" font-size="12" lengthAdjust="spacingAndGlyphs" textLength="77" x="35" y="118.9102">CheckStockUI</text>
        <line style="stroke: #A80036; stroke-width: 1.5;" x1="7" x2="114" y1="130" y2="130" />
        <line style="stroke: #A80036; stroke-width: 1.5;" x1="7" x2="114" y1="138" y2="138" />
        <!--class CheckStockController-->
        <rect fill="#FEFECE" filter="url(#fzilt6w6ik66b)" height="61.8359" id="CheckStockController" style="stroke: #A80036; stroke-width: 1.5;" width="151" x="175" y="91" />
        <ellipse cx="190" cy="107" fill="#ADD1B2" rx="11" ry="11" style="stroke: #A80036; stroke-width: 1.0;" />
        <path d="M192.7656,102.875 Q192.9219,102.6563 193.1094,102.5469 Q193.2969,102.4375 193.5156,102.4375 Q193.8906,102.4375 194.125,102.6953 Q194.3594,102.9531 194.3594,103.5625 L194.3594,105.0156 Q194.3594,105.625 194.125,105.8906 Q193.8906,106.1563 193.5156,106.1563 Q193.1719,106.1563 192.9688,105.9531 Q192.7656,105.7656 192.6563,105.25 Q192.6094,104.8906 192.4219,104.7031 Q192.0938,104.3281 191.4844,104.1094 Q190.875,103.8906 190.25,103.8906 Q189.4844,103.8906 188.8516,104.2188 Q188.2188,104.5469 187.7266,105.2969 Q187.2344,106.0469 187.2344,107.0781 L187.2344,108.1719 Q187.2344,109.4063 188.125,110.2266 Q189.0156,111.0469 190.6094,111.0469 Q191.5469,111.0469 192.2031,110.7969 Q192.5938,110.6406 193.0156,110.2031 Q193.2813,109.9375 193.4297,109.8594 Q193.5781,109.7813 193.7813,109.7813 Q194.1094,109.7813 194.3672,110.0391 Q194.625,110.2969 194.625,110.6406 Q194.625,110.9844 194.2813,111.3906 Q193.7813,111.9688 192.9844,112.2969 Q191.9063,112.75 190.6094,112.75 Q189.0938,112.75 187.8906,112.125 Q186.9063,111.625 186.2188,110.5547 Q185.5313,109.4844 185.5313,108.2031 L185.5313,107.0469 Q185.5313,105.7188 186.1484,104.5703 Q186.7656,103.4219 187.8594,102.8047 Q188.9531,102.1875 190.1875,102.1875 Q190.9219,102.1875 191.5703,102.3516 Q192.2188,102.5156 192.7656,102.875 Z " /><text fill="#000000" font-family="sans-serif" font-size="12" lengthAdjust="spacingAndGlyphs" textLength="119" x="204" y="111.9102">CheckStockController</text>
        <line style="stroke: #A80036; stroke-width: 1.5;" x1="176" x2="325" y1="123" y2="123" />
        <line style="stroke: #A80036; stroke-width: 1.5;" x1="176" x2="325" y1="131" y2="131" />
        <ellipse cx="186" cy="143.418" fill="#84BE84" rx="3" ry="3" style="stroke: #038048; stroke-width: 1.0;" /><text fill="#000000" font-family="sans-serif" font-size="11" lengthAdjust="spacingAndGlyphs" textLength="64" x="195" y="146.4189">checkStock()</text>
        <!--class System-->
        <rect fill="#FEFECE" filter="url(#fzilt6w6ik66b)" height="48" id="System" style="stroke: #A80036; stroke-width: 1.5;" width="73" x="406" y="8" />
        <ellipse cx="421" cy="24" fill="#ADD1B2" rx="11" ry="11" style="stroke: #A80036; stroke-width: 1.0;" />
        <path d="M423.7656,19.875 Q423.9219,19.6563 424.1094,19.5469 Q424.2969,19.4375 424.5156,19.4375 Q424.8906,19.4375 425.125,19.6953 Q425.3594,19.9531 425.3594,20.5625 L425.3594,22.0156 Q425.3594,22.625 425.125,22.8906 Q424.8906,23.1563 424.5156,23.1563 Q424.1719,23.1563 423.9688,22.9531 Q423.7656,22.7656 423.6563,22.25 Q423.6094,21.8906 423.4219,21.7031 Q423.0938,21.3281 422.4844,21.1094 Q421.875,20.8906 421.25,20.8906 Q420.4844,20.8906 419.8516,21.2188 Q419.2188,21.5469 418.7266,22.2969 Q418.2344,23.0469 418.2344,24.0781 L418.2344,25.1719 Q418.2344,26.4063 419.125,27.2266 Q420.0156,28.0469 421.6094,28.0469 Q422.5469,28.0469 423.2031,27.7969 Q423.5938,27.6406 424.0156,27.2031 Q424.2813,26.9375 424.4297,26.8594 Q424.5781,26.7813 424.7813,26.7813 Q425.1094,26.7813 425.3672,27.0391 Q425.625,27.2969 425.625,27.6406 Q425.625,27.9844 425.2813,28.3906 Q424.7813,28.9688 423.9844,29.2969 Q422.9063,29.75 421.6094,29.75 Q420.0938,29.75 418.8906,29.125 Q417.9063,28.625 417.2188,27.5547 Q416.5313,26.4844 416.5313,25.2031 L416.5313,24.0469 Q416.5313,22.7188 417.1484,21.5703 Q417.7656,20.4219 418.8594,19.8047 Q419.9531,19.1875 421.1875,19.1875 Q421.9219,19.1875 422.5703,19.3516 Q423.2188,19.5156 423.7656,19.875 Z " /><text fill="#000000" font-family="sans-serif" font-size="12" lengthAdjust="spacingAndGlyphs" textLength="41" x="435" y="28.9102">System</text>
        <line style="stroke: #A80036; stroke-width: 1.5;" x1="407" x2="478" y1="40" y2="40" />
        <line style="stroke: #A80036; stroke-width: 1.5;" x1="407" x2="478" y1="48" y2="48" />
        <!--class Pharmacy-->
        <rect fill="#FEFECE" filter="url(#fzilt6w6ik66b)" height="61.8359" id="Pharmacy" style="stroke: #A80036; stroke-width: 1.5;" width="87" x="399" y="91" />
        <ellipse cx="414" cy="107" fill="#ADD1B2" rx="11" ry="11" style="stroke: #A80036; stroke-width: 1.0;" />
        <path d="M416.7656,102.875 Q416.9219,102.6563 417.1094,102.5469 Q417.2969,102.4375 417.5156,102.4375 Q417.8906,102.4375 418.125,102.6953 Q418.3594,102.9531 418.3594,103.5625 L418.3594,105.0156 Q418.3594,105.625 418.125,105.8906 Q417.8906,106.1563 417.5156,106.1563 Q417.1719,106.1563 416.9688,105.9531 Q416.7656,105.7656 416.6563,105.25 Q416.6094,104.8906 416.4219,104.7031 Q416.0938,104.3281 415.4844,104.1094 Q414.875,103.8906 414.25,103.8906 Q413.4844,103.8906 412.8516,104.2188 Q412.2188,104.5469 411.7266,105.2969 Q411.2344,106.0469 411.2344,107.0781 L411.2344,108.1719 Q411.2344,109.4063 412.125,110.2266 Q413.0156,111.0469 414.6094,111.0469 Q415.5469,111.0469 416.2031,110.7969 Q416.5938,110.6406 417.0156,110.2031 Q417.2813,109.9375 417.4297,109.8594 Q417.5781,109.7813 417.7813,109.7813 Q418.1094,109.7813 418.3672,110.0391 Q418.625,110.2969 418.625,110.6406 Q418.625,110.9844 418.2813,111.3906 Q417.7813,111.9688 416.9844,112.2969 Q415.9063,112.75 414.6094,112.75 Q413.0938,112.75 411.8906,112.125 Q410.9063,111.625 410.2188,110.5547 Q409.5313,109.4844 409.5313,108.2031 L409.5313,107.0469 Q409.5313,105.7188 410.1484,104.5703 Q410.7656,103.4219 411.8594,102.8047 Q412.9531,102.1875 414.1875,102.1875 Q414.9219,102.1875 415.5703,102.3516 Q416.2188,102.5156 416.7656,102.875 Z " /><text fill="#000000" font-family="sans-serif" font-size="12" lengthAdjust="spacingAndGlyphs" textLength="55" x="428" y="111.9102">Pharmacy</text>
        <line style="stroke: #A80036; stroke-width: 1.5;" x1="400" x2="485" y1="123" y2="123" />
        <line style="stroke: #A80036; stroke-width: 1.5;" x1="400" x2="485" y1="131" y2="131" /><text fill="#000000" font-family="sans-serif" font-size="11" lengthAdjust="spacingAndGlyphs" textLength="50" x="405" y="146.4189">getStock()</text>
        <!--class Stock-->
        <rect fill="#FEFECE" filter="url(#fzilt6w6ik66b)" height="61.8359" id="Stock" style="stroke: #A80036; stroke-width: 1.5;" width="113" x="386" y="188" />
        <ellipse cx="423.95" cy="204" fill="#ADD1B2" rx="11" ry="11" style="stroke: #A80036; stroke-width: 1.0;" />
        <path d="M426.7156,199.875 Q426.8719,199.6563 427.0594,199.5469 Q427.2469,199.4375 427.4656,199.4375 Q427.8406,199.4375 428.075,199.6953 Q428.3094,199.9531 428.3094,200.5625 L428.3094,202.0156 Q428.3094,202.625 428.075,202.8906 Q427.8406,203.1563 427.4656,203.1563 Q427.1219,203.1563 426.9188,202.9531 Q426.7156,202.7656 426.6063,202.25 Q426.5594,201.8906 426.3719,201.7031 Q426.0438,201.3281 425.4344,201.1094 Q424.825,200.8906 424.2,200.8906 Q423.4344,200.8906 422.8016,201.2188 Q422.1688,201.5469 421.6766,202.2969 Q421.1844,203.0469 421.1844,204.0781 L421.1844,205.1719 Q421.1844,206.4063 422.075,207.2266 Q422.9656,208.0469 424.5594,208.0469 Q425.4969,208.0469 426.1531,207.7969 Q426.5438,207.6406 426.9656,207.2031 Q427.2313,206.9375 427.3797,206.8594 Q427.5281,206.7813 427.7313,206.7813 Q428.0594,206.7813 428.3172,207.0391 Q428.575,207.2969 428.575,207.6406 Q428.575,207.9844 428.2313,208.3906 Q427.7313,208.9688 426.9344,209.2969 Q425.8563,209.75 424.5594,209.75 Q423.0438,209.75 421.8406,209.125 Q420.8563,208.625 420.1688,207.5547 Q419.4813,206.4844 419.4813,205.2031 L419.4813,204.0469 Q419.4813,202.7188 420.0984,201.5703 Q420.7156,200.4219 421.8094,199.8047 Q422.9031,199.1875 424.1375,199.1875 Q424.8719,199.1875 425.5203,199.3516 Q426.1688,199.5156 426.7156,199.875 Z " /><text fill="#000000" font-family="sans-serif" font-size="12" lengthAdjust="spacingAndGlyphs" textLength="30" x="443.05" y="208.9102">Stock</text>
        <line style="stroke: #A80036; stroke-width: 1.5;" x1="387" x2="498" y1="220" y2="220" />
        <line style="stroke: #A80036; stroke-width: 1.5;" x1="387" x2="498" y1="228" y2="228" />
        <ellipse cx="397" cy="240.418" fill="#84BE84" rx="3" ry="3" style="stroke: #038048; stroke-width: 1.0;" /><text fill="#000000" font-family="sans-serif" font-size="11" lengthAdjust="spacingAndGlyphs" textLength="87" x="406" y="243.4189">getItemsOfStock()</text>
        <!--class Item-->
        <rect fill="#FEFECE" filter="url(#fzilt6w6ik66b)" height="48" id="Item" style="stroke: #A80036; stroke-width: 1.5;" width="56" x="559" y="195" />
        <ellipse cx="574" cy="211" fill="#ADD1B2" rx="11" ry="11" style="stroke: #A80036; stroke-width: 1.0;" />
        <path d="M576.7656,206.875 Q576.9219,206.6563 577.1094,206.5469 Q577.2969,206.4375 577.5156,206.4375 Q577.8906,206.4375 578.125,206.6953 Q578.3594,206.9531 578.3594,207.5625 L578.3594,209.0156 Q578.3594,209.625 578.125,209.8906 Q577.8906,210.1563 577.5156,210.1563 Q577.1719,210.1563 576.9688,209.9531 Q576.7656,209.7656 576.6563,209.25 Q576.6094,208.8906 576.4219,208.7031 Q576.0938,208.3281 575.4844,208.1094 Q574.875,207.8906 574.25,207.8906 Q573.4844,207.8906 572.8516,208.2188 Q572.2188,208.5469 571.7266,209.2969 Q571.2344,210.0469 571.2344,211.0781 L571.2344,212.1719 Q571.2344,213.4063 572.125,214.2266 Q573.0156,215.0469 574.6094,215.0469 Q575.5469,215.0469 576.2031,214.7969 Q576.5938,214.6406 577.0156,214.2031 Q577.2813,213.9375 577.4297,213.8594 Q577.5781,213.7813 577.7813,213.7813 Q578.1094,213.7813 578.3672,214.0391 Q578.625,214.2969 578.625,214.6406 Q578.625,214.9844 578.2813,215.3906 Q577.7813,215.9688 576.9844,216.2969 Q575.9063,216.75 574.6094,216.75 Q573.0938,216.75 571.8906,216.125 Q570.9063,215.625 570.2188,214.5547 Q569.5313,213.4844 569.5313,212.2031 L569.5313,211.0469 Q569.5313,209.7188 570.1484,208.5703 Q570.7656,207.4219 571.8594,206.8047 Q572.9531,206.1875 574.1875,206.1875 Q574.9219,206.1875 575.5703,206.3516 Q576.2188,206.5156 576.7656,206.875 Z " /><text fill="#000000" font-family="sans-serif" font-size="12" lengthAdjust="spacingAndGlyphs" textLength="24" x="588" y="215.9102">Item</text>
        <line style="stroke: #A80036; stroke-width: 1.5;" x1="560" x2="614" y1="227" y2="227" />
        <line style="stroke: #A80036; stroke-width: 1.5;" x1="560" x2="614" y1="235" y2="235" />
        <!--link CheckStockUI to CheckStockController-->
        <path d="M115.12,122 C132.09,122 151.22,122 169.61,122 " fill="none" id="CheckStockUI-CheckStockController" style="stroke: #A80036; stroke-width: 1.0; stroke-dasharray: 7.0,7.0;" />
        <polygon fill="#A80036" points="174.77,122,165.77,118,169.77,122,165.77,126,174.77,122" style="stroke: #A80036; stroke-width: 1.0;" />
        <!--link CheckStockController to System-->
        <path d="M317.15,90.9 C345.01,77.71 376.6,62.74 400.96,51.2 " fill="none" id="CheckStockController-System" style="stroke: #A80036; stroke-width: 1.0; stroke-dasharray: 7.0,7.0;" />
        <polygon fill="#A80036" points="405.74,48.94,395.8942,49.1859,401.2231,51.0841,399.3248,56.413,405.74,48.94" style="stroke: #A80036; stroke-width: 1.0;" />
        <!--link CheckStockController to Pharmacy-->
        <path d="M326.05,122 C348.86,122 373.32,122 393.83,122 " fill="none" id="CheckStockController-Pharmacy" style="stroke: #A80036; stroke-width: 1.0; stroke-dasharray: 7.0,7.0;" />
        <polygon fill="#A80036" points="398.95,122,389.95,118,393.95,122,389.95,126,398.95,122" style="stroke: #A80036; stroke-width: 1.0;" />
        <!--link CheckStockController to Stock-->
        <path d="M312.4,153.09 C334.39,164.32 359.19,176.98 381.13,188.18 " fill="none" id="CheckStockController-Stock" style="stroke: #A80036; stroke-width: 1.0; stroke-dasharray: 7.0,7.0;" />
        <polygon fill="#A80036" points="385.77,190.55,379.5774,182.8916,381.3181,188.2739,375.9357,190.0146,385.77,190.55" style="stroke: #A80036; stroke-width: 1.0;" />
        <!--link Stock to Item-->
        <path d="M499,219 C517.4,219 537.27,219 553.37,219 " fill="none" id="Stock-Item" style="stroke: #A80036; stroke-width: 1.0; stroke-dasharray: 7.0,7.0;" />
        <polygon fill="#A80036" points="558.67,219,549.67,215,553.67,219,549.67,223,558.67,219" style="stroke: #A80036; stroke-width: 1.0;" />
        <!--
@startuml

left to right direction

class CheckStockUI {
}

class CheckStockController {
    +checkStock()
}

class System {

}

class Pharmacy {
    getStock()
}

class Stock {
    +getItemsOfStock()
}

class Item {

}

CheckStockUI ..> CheckStockController
CheckStockController ..> System
CheckStockController ..> Pharmacy
CheckStockController ..> Stock
Stock ..> Item

@enduml

PlantUML version 1.2018.14(Fri Dec 21 16:33:16 GMT 2018)
(GPL source distribution)
Java Runtime: Java(TM) SE Runtime Environment
JVM: Java HotSpot(TM) 64-Bit Server VM
Java Version: 1.8.0_271-b09
Operating System: Windows 10
OS Version: 10.0
Default Encoding: Cp1252
Language: en
Country: US
-->
    </g>
</svg>