<?xml version="1.0" encoding="UTF-8" standalone="no"?><svg xmlns="http://www.w3.org/2000/svg" xmlns:xlink="http://www.w3.org/1999/xlink" contentScriptType="application/ecmascript" contentStyleType="text/css" height="255px" preserveAspectRatio="none" style="width:421px;height:255px;" version="1.1" viewBox="0 0 421 255" width="421px" zoomAndPan="magnify"><defs><filter height="300%" id="fuhoxh4vpizay" width="300%" x="-1" y="-1"><feGaussianBlur result="blurOut" stdDeviation="2.0"/><feColorMatrix in="blurOut" result="blurOut2" type="matrix" values="0 0 0 0 0 0 0 0 0 0 0 0 0 0 0 0 0 0 .4 0"/><feOffset dx="4.0" dy="4.0" in="blurOut2" result="blurOut3"/><feBlend in="SourceGraphic" in2="blurOut3" mode="normal"/></filter></defs><g><rect fill="#FFFFFF" filter="url(#fuhoxh4vpizay)" height="52.7031" style="stroke:#A80036;stroke-width:1.0;" width="10" x="28" y="99.6094"/><rect fill="#FFFFFF" filter="url(#fuhoxh4vpizay)" height="30.3516" style="stroke:#A80036;stroke-width:1.0;" width="10" x="366" y="121.9609"/><line style="stroke:#A80036;stroke-width:1.0;stroke-dasharray:5.0,5.0;" x1="33" x2="33" y1="89.6094" y2="170.3125"/><line style="stroke:#A80036;stroke-width:1.0;stroke-dasharray:5.0,5.0;" x1="370.5" x2="370.5" y1="89.6094" y2="170.3125"/><text fill="#000000" font-family="sans-serif" font-size="14" lengthAdjust="spacing" textLength="50" x="5" y="86.5332">:System</text><ellipse cx="33" cy="15" fill="#FEFECE" filter="url(#fuhoxh4vpizay)" rx="8" ry="8" style="stroke:#A80036;stroke-width:2.0;"/><path d="M33,23 L33,50 M20,31 L46,31 M33,50 L20,65 M33,50 L46,65 " fill="none" filter="url(#fuhoxh4vpizay)" style="stroke:#A80036;stroke-width:2.0;"/><text fill="#000000" font-family="sans-serif" font-size="14" lengthAdjust="spacing" textLength="50" x="5" y="183.8457">:System</text><ellipse cx="33" cy="196.9219" fill="#FEFECE" filter="url(#fuhoxh4vpizay)" rx="8" ry="8" style="stroke:#A80036;stroke-width:2.0;"/><path d="M33,204.9219 L33,231.9219 M20,212.9219 L46,212.9219 M33,231.9219 L20,246.9219 M33,231.9219 L46,246.9219 " fill="none" filter="url(#fuhoxh4vpizay)" style="stroke:#A80036;stroke-width:2.0;"/><rect fill="#FEFECE" filter="url(#fuhoxh4vpizay)" height="31.6094" style="stroke:#A80036;stroke-width:1.5;" width="77" x="330.5" y="53"/><text fill="#000000" font-family="sans-serif" font-size="14" lengthAdjust="spacing" textLength="63" x="337.5" y="74.5332">Pharmacy</text><rect fill="#FEFECE" filter="url(#fuhoxh4vpizay)" height="31.6094" style="stroke:#A80036;stroke-width:1.5;" width="77" x="330.5" y="169.3125"/><text fill="#000000" font-family="sans-serif" font-size="14" lengthAdjust="spacing" textLength="63" x="337.5" y="190.8457">Pharmacy</text><rect fill="#FFFFFF" filter="url(#fuhoxh4vpizay)" height="52.7031" style="stroke:#A80036;stroke-width:1.0;" width="10" x="28" y="99.6094"/><rect fill="#FFFFFF" filter="url(#fuhoxh4vpizay)" height="30.3516" style="stroke:#A80036;stroke-width:1.0;" width="10" x="366" y="121.9609"/><polygon fill="#A80036" points="354,117.9609,364,121.9609,354,125.9609,358,121.9609" style="stroke:#A80036;stroke-width:1.0;"/><line style="stroke:#A80036;stroke-width:1.0;" x1="38" x2="360" y1="121.9609" y2="121.9609"/><text fill="#000000" font-family="sans-serif" font-size="13" font-weight="bold" lengthAdjust="spacing" textLength="7" x="45" y="117.1045">1</text><text fill="#000000" font-family="sans-serif" font-size="13" lengthAdjust="spacing" textLength="298" x="56" y="117.1045">sent a note with request items from other pharmacy</text><polygon fill="#A80036" points="44,148.3125,34,152.3125,44,156.3125,40,152.3125" style="stroke:#A80036;stroke-width:1.0;"/><line style="stroke:#A80036;stroke-width:1.0;stroke-dasharray:2.0,2.0;" x1="38" x2="370" y1="152.3125" y2="152.3125"/><text fill="#000000" font-family="sans-serif" font-size="13" font-weight="bold" lengthAdjust="spacing" textLength="7" x="50" y="147.4561">2</text><text fill="#000000" font-family="sans-serif" font-size="13" lengthAdjust="spacing" textLength="262" x="61" y="147.4561">sent the items and a note with the items sent</text><!--MD5=[d8f0886efcaa4b16a9db9ff79f29bd43]
@startuml
autonumber
actor ":System" as STM
participant "Pharmacy" as PHA
activate STM
STM -> PHA :sent a note with request items from other pharmacy
activate PHA
PHA - -> STM :sent the items and a note with the items sent
deactivate PHA
deactivate STM
@enduml

PlantUML version 1.2021.00(Sun Jan 10 10:25:05 GMT 2021)
(GPL source distribution)
Java Runtime: OpenJDK Runtime Environment
JVM: OpenJDK 64-Bit Server VM
Default Encoding: Cp1252
Language: en
Country: US
--></g></svg>