<?xml version="1.0" encoding="UTF-8" standalone="no"?><svg xmlns="http://www.w3.org/2000/svg" xmlns:xlink="http://www.w3.org/1999/xlink" contentScriptType="application/ecmascript" contentStyleType="text/css" height="181px" preserveAspectRatio="none" style="width:1371px;height:181px;" version="1.1" viewBox="0 0 1371 181" width="1371px" zoomAndPan="magnify">
    <defs>
        <filter height="300%" id="fldke52u3ck8k" width="300%" x="-1" y="-1">
            <feGaussianBlur result="blurOut" stdDeviation="2.0" />
            <feColorMatrix in="blurOut" result="blurOut2" type="matrix" values="0 0 0 0 0 0 0 0 0 0 0 0 0 0 0 0 0 0 .4 0" />
            <feOffset dx="4.0" dy="4.0" in="blurOut2" result="blurOut3" />
            <feBlend in="SourceGraphic" in2="blurOut3" mode="normal" />
        </filter>
    </defs>
    <g>
        <!--MD5=[4a2e20469690effa44697b1b766d2b36]
class AddScooterUI-->
        <rect codeLine="4" fill="#FEFECE" filter="url(#fldke52u3ck8k)" height="48" id="AddScooterUI" style="stroke:#A80036;stroke-width:1.5;" width="107" x="7" y="58" />
        <ellipse cx="22" cy="74" fill="#ADD1B2" rx="11" ry="11" style="stroke:#A80036;stroke-width:1.0;" />
        <path d="M24.7656,69.875 Q24.9219,69.6563 25.1094,69.5469 Q25.2969,69.4375 25.5156,69.4375 Q25.8906,69.4375 26.125,69.6953 Q26.3594,69.9531 26.3594,70.5625 L26.3594,72.0156 Q26.3594,72.625 26.125,72.8906 Q25.8906,73.1563 25.5156,73.1563 Q25.1719,73.1563 24.9688,72.9531 Q24.7656,72.7656 24.6563,72.25 Q24.6094,71.8906 24.4219,71.7031 Q24.0938,71.3281 23.4844,71.1094 Q22.875,70.8906 22.25,70.8906 Q21.4844,70.8906 20.8516,71.2188 Q20.2188,71.5469 19.7266,72.2969 Q19.2344,73.0469 19.2344,74.0781 L19.2344,75.1719 Q19.2344,76.4063 20.125,77.2266 Q21.0156,78.0469 22.6094,78.0469 Q23.5469,78.0469 24.2031,77.7969 Q24.5938,77.6406 25.0156,77.2031 Q25.2813,76.9375 25.4297,76.8594 Q25.5781,76.7813 25.7813,76.7813 Q26.1094,76.7813 26.3672,77.0391 Q26.625,77.2969 26.625,77.6406 Q26.625,77.9844 26.2813,78.3906 Q25.7813,78.9688 24.9844,79.2969 Q23.9063,79.75 22.6094,79.75 Q21.0938,79.75 19.8906,79.125 Q18.9063,78.625 18.2188,77.5547 Q17.5313,76.4844 17.5313,75.2031 L17.5313,74.0469 Q17.5313,72.7188 18.1484,71.5703 Q18.7656,70.4219 19.8594,69.8047 Q20.9531,69.1875 22.1875,69.1875 Q22.9219,69.1875 23.5703,69.3516 Q24.2188,69.5156 24.7656,69.875 Z " fill="#000000" /><text fill="#000000" font-family="sans-serif" font-size="12" lengthAdjust="spacingAndGlyphs" textLength="75" x="36" y="78.9102">AddScooterUI</text>
        <line style="stroke:#A80036;stroke-width:1.5;" x1="8" x2="113" y1="90" y2="90" />
        <line style="stroke:#A80036;stroke-width:1.5;" x1="8" x2="113" y1="98" y2="98" />
        <!--MD5=[83f9a42a3c5740e41305507a025d3000]
class AddScooterController-->
        <rect codeLine="7" fill="#FEFECE" filter="url(#fldke52u3ck8k)" height="117.1797" id="AddScooterController" style="stroke:#A80036;stroke-width:1.5;" width="250" x="175" y="23.5" />
        <ellipse cx="237.25" cy="39.5" fill="#ADD1B2" rx="11" ry="11" style="stroke:#A80036;stroke-width:1.0;" />
        <path d="M240.0156,35.375 Q240.1719,35.1563 240.3594,35.0469 Q240.5469,34.9375 240.7656,34.9375 Q241.1406,34.9375 241.375,35.1953 Q241.6094,35.4531 241.6094,36.0625 L241.6094,37.5156 Q241.6094,38.125 241.375,38.3906 Q241.1406,38.6563 240.7656,38.6563 Q240.4219,38.6563 240.2188,38.4531 Q240.0156,38.2656 239.9063,37.75 Q239.8594,37.3906 239.6719,37.2031 Q239.3438,36.8281 238.7344,36.6094 Q238.125,36.3906 237.5,36.3906 Q236.7344,36.3906 236.1016,36.7188 Q235.4688,37.0469 234.9766,37.7969 Q234.4844,38.5469 234.4844,39.5781 L234.4844,40.6719 Q234.4844,41.9063 235.375,42.7266 Q236.2656,43.5469 237.8594,43.5469 Q238.7969,43.5469 239.4531,43.2969 Q239.8438,43.1406 240.2656,42.7031 Q240.5313,42.4375 240.6797,42.3594 Q240.8281,42.2813 241.0313,42.2813 Q241.3594,42.2813 241.6172,42.5391 Q241.875,42.7969 241.875,43.1406 Q241.875,43.4844 241.5313,43.8906 Q241.0313,44.4688 240.2344,44.7969 Q239.1563,45.25 237.8594,45.25 Q236.3438,45.25 235.1406,44.625 Q234.1563,44.125 233.4688,43.0547 Q232.7813,41.9844 232.7813,40.7031 L232.7813,39.5469 Q232.7813,38.2188 233.3984,37.0703 Q234.0156,35.9219 235.1094,35.3047 Q236.2031,34.6875 237.4375,34.6875 Q238.1719,34.6875 238.8203,34.8516 Q239.4688,35.0156 240.0156,35.375 Z " fill="#000000" /><text fill="#000000" font-family="sans-serif" font-size="12" lengthAdjust="spacingAndGlyphs" textLength="117" x="257.75" y="44.4102">AddScooterController</text>
        <line style="stroke:#A80036;stroke-width:1.5;" x1="176" x2="424" y1="55.5" y2="55.5" />
        <line style="stroke:#A80036;stroke-width:1.5;" x1="176" x2="424" y1="63.5" y2="63.5" /><text fill="#000000" font-family="sans-serif" font-size="11" lengthAdjust="spacingAndGlyphs" textLength="76" x="181" y="78.9189">getSCooterDB()</text><text fill="#000000" font-family="sans-serif" font-size="11" lengthAdjust="spacingAndGlyphs" textLength="235" x="181" y="92.7549">addScooter(pharmacyId, id, qrCode, batterySize,</text><text fill="#000000" font-family="sans-serif" font-size="11" lengthAdjust="spacingAndGlyphs" textLength="173" x="181" y="106.5908">batteryConsumption,currentBattery)</text><text fill="#000000" font-family="sans-serif" font-size="11" lengthAdjust="spacingAndGlyphs" textLength="107" x="181" y="120.4268">saveScooter(scooter)</text><text fill="#000000" font-family="sans-serif" font-size="11" lengthAdjust="spacingAndGlyphs" textLength="79" x="181" y="134.2627">getPharmacy(id)</text>
        <!--MD5=[f8e092794d52bf9a252466252ae7bd1c]
class System-->
        <rect codeLine="14" fill="#FEFECE" filter="url(#fldke52u3ck8k)" height="61.8359" id="System" style="stroke:#A80036;stroke-width:1.5;" width="88" x="486" y="51" />
        <ellipse cx="507.75" cy="67" fill="#ADD1B2" rx="11" ry="11" style="stroke:#A80036;stroke-width:1.0;" />
        <path d="M510.5156,62.875 Q510.6719,62.6563 510.8594,62.5469 Q511.0469,62.4375 511.2656,62.4375 Q511.6406,62.4375 511.875,62.6953 Q512.1094,62.9531 512.1094,63.5625 L512.1094,65.0156 Q512.1094,65.625 511.875,65.8906 Q511.6406,66.1563 511.2656,66.1563 Q510.9219,66.1563 510.7188,65.9531 Q510.5156,65.7656 510.4063,65.25 Q510.3594,64.8906 510.1719,64.7031 Q509.8438,64.3281 509.2344,64.1094 Q508.625,63.8906 508,63.8906 Q507.2344,63.8906 506.6016,64.2188 Q505.9688,64.5469 505.4766,65.2969 Q504.9844,66.0469 504.9844,67.0781 L504.9844,68.1719 Q504.9844,69.4063 505.875,70.2266 Q506.7656,71.0469 508.3594,71.0469 Q509.2969,71.0469 509.9531,70.7969 Q510.3438,70.6406 510.7656,70.2031 Q511.0313,69.9375 511.1797,69.8594 Q511.3281,69.7813 511.5313,69.7813 Q511.8594,69.7813 512.1172,70.0391 Q512.375,70.2969 512.375,70.6406 Q512.375,70.9844 512.0313,71.3906 Q511.5313,71.9688 510.7344,72.2969 Q509.6563,72.75 508.3594,72.75 Q506.8438,72.75 505.6406,72.125 Q504.6563,71.625 503.9688,70.5547 Q503.2813,69.4844 503.2813,68.2031 L503.2813,67.0469 Q503.2813,65.7188 503.8984,64.5703 Q504.5156,63.4219 505.6094,62.8047 Q506.7031,62.1875 507.9375,62.1875 Q508.6719,62.1875 509.3203,62.3516 Q509.9688,62.5156 510.5156,62.875 Z " fill="#000000" /><text fill="#000000" font-family="sans-serif" font-size="12" lengthAdjust="spacingAndGlyphs" textLength="41" x="523.25" y="71.9102">System</text>
        <line style="stroke:#A80036;stroke-width:1.5;" x1="487" x2="573" y1="83" y2="83" />
        <line style="stroke:#A80036;stroke-width:1.5;" x1="487" x2="573" y1="91" y2="91" /><text fill="#000000" font-family="sans-serif" font-size="11" lengthAdjust="spacingAndGlyphs" textLength="76" x="492" y="106.4189">getSCooterDB()</text>
        <!--MD5=[f4402668d5d5bb8485350c0fdb60ac8e]
class Scooter-->
        <rect codeLine="18" fill="#FEFECE" filter="url(#fldke52u3ck8k)" height="89.5078" id="Scooter" style="stroke:#A80036;stroke-width:1.5;" width="192" x="1165" y="42" />
        <ellipse cx="1235.75" cy="58" fill="#ADD1B2" rx="11" ry="11" style="stroke:#A80036;stroke-width:1.0;" />
        <path d="M1238.5156,53.875 Q1238.6719,53.6563 1238.8594,53.5469 Q1239.0469,53.4375 1239.2656,53.4375 Q1239.6406,53.4375 1239.875,53.6953 Q1240.1094,53.9531 1240.1094,54.5625 L1240.1094,56.0156 Q1240.1094,56.625 1239.875,56.8906 Q1239.6406,57.1563 1239.2656,57.1563 Q1238.9219,57.1563 1238.7188,56.9531 Q1238.5156,56.7656 1238.4063,56.25 Q1238.3594,55.8906 1238.1719,55.7031 Q1237.8438,55.3281 1237.2344,55.1094 Q1236.625,54.8906 1236,54.8906 Q1235.2344,54.8906 1234.6016,55.2188 Q1233.9688,55.5469 1233.4766,56.2969 Q1232.9844,57.0469 1232.9844,58.0781 L1232.9844,59.1719 Q1232.9844,60.4063 1233.875,61.2266 Q1234.7656,62.0469 1236.3594,62.0469 Q1237.2969,62.0469 1237.9531,61.7969 Q1238.3438,61.6406 1238.7656,61.2031 Q1239.0313,60.9375 1239.1797,60.8594 Q1239.3281,60.7813 1239.5313,60.7813 Q1239.8594,60.7813 1240.1172,61.0391 Q1240.375,61.2969 1240.375,61.6406 Q1240.375,61.9844 1240.0313,62.3906 Q1239.5313,62.9688 1238.7344,63.2969 Q1237.6563,63.75 1236.3594,63.75 Q1234.8438,63.75 1233.6406,63.125 Q1232.6563,62.625 1231.9688,61.5547 Q1231.2813,60.4844 1231.2813,59.2031 L1231.2813,58.0469 Q1231.2813,56.7188 1231.8984,55.5703 Q1232.5156,54.4219 1233.6094,53.8047 Q1234.7031,53.1875 1235.9375,53.1875 Q1236.6719,53.1875 1237.3203,53.3516 Q1237.9688,53.5156 1238.5156,53.875 Z " fill="#000000" /><text fill="#000000" font-family="sans-serif" font-size="12" lengthAdjust="spacingAndGlyphs" textLength="42" x="1256.25" y="62.9102">Scooter</text>
        <line style="stroke:#A80036;stroke-width:1.5;" x1="1166" x2="1356" y1="74" y2="74" />
        <line style="stroke:#A80036;stroke-width:1.5;" x1="1166" x2="1356" y1="82" y2="82" /><text fill="#000000" font-family="sans-serif" font-size="11" lengthAdjust="spacingAndGlyphs" textLength="177" x="1171" y="97.4189">newScooter(id, qrCode, batterySize,</text><text fill="#000000" font-family="sans-serif" font-size="11" lengthAdjust="spacingAndGlyphs" textLength="173" x="1171" y="111.2549">batteryConsumption,currentBattery)</text><text fill="#000000" font-family="sans-serif" font-size="11" lengthAdjust="spacingAndGlyphs" textLength="55" x="1171" y="125.0908">getDetails()</text>
        <!--MD5=[48d7298b3bd1f8b3e8f77915e881d788]
class ScooterDB-->
        <rect codeLine="23" fill="#FEFECE" filter="url(#fldke52u3ck8k)" height="61.8359" id="ScooterDB" style="stroke:#A80036;stroke-width:1.5;" width="119" x="791" y="7" />
        <ellipse cx="818.6" cy="23" fill="#ADD1B2" rx="11" ry="11" style="stroke:#A80036;stroke-width:1.0;" />
        <path d="M821.3656,18.875 Q821.5219,18.6563 821.7094,18.5469 Q821.8969,18.4375 822.1156,18.4375 Q822.4906,18.4375 822.725,18.6953 Q822.9594,18.9531 822.9594,19.5625 L822.9594,21.0156 Q822.9594,21.625 822.725,21.8906 Q822.4906,22.1563 822.1156,22.1563 Q821.7719,22.1563 821.5688,21.9531 Q821.3656,21.7656 821.2563,21.25 Q821.2094,20.8906 821.0219,20.7031 Q820.6938,20.3281 820.0844,20.1094 Q819.475,19.8906 818.85,19.8906 Q818.0844,19.8906 817.4516,20.2188 Q816.8188,20.5469 816.3266,21.2969 Q815.8344,22.0469 815.8344,23.0781 L815.8344,24.1719 Q815.8344,25.4063 816.725,26.2266 Q817.6156,27.0469 819.2094,27.0469 Q820.1469,27.0469 820.8031,26.7969 Q821.1938,26.6406 821.6156,26.2031 Q821.8813,25.9375 822.0297,25.8594 Q822.1781,25.7813 822.3813,25.7813 Q822.7094,25.7813 822.9672,26.0391 Q823.225,26.2969 823.225,26.6406 Q823.225,26.9844 822.8813,27.3906 Q822.3813,27.9688 821.5844,28.2969 Q820.5063,28.75 819.2094,28.75 Q817.6938,28.75 816.4906,28.125 Q815.5063,27.625 814.8188,26.5547 Q814.1313,25.4844 814.1313,24.2031 L814.1313,23.0469 Q814.1313,21.7188 814.7484,20.5703 Q815.3656,19.4219 816.4594,18.8047 Q817.5531,18.1875 818.7875,18.1875 Q819.5219,18.1875 820.1703,18.3516 Q820.8188,18.5156 821.3656,18.875 Z " fill="#000000" /><text fill="#000000" font-family="sans-serif" font-size="12" lengthAdjust="spacingAndGlyphs" textLength="59" x="835.4" y="27.9102">ScooterDB</text>
        <line style="stroke:#A80036;stroke-width:1.5;" x1="792" x2="909" y1="39" y2="39" />
        <line style="stroke:#A80036;stroke-width:1.5;" x1="792" x2="909" y1="47" y2="47" /><text fill="#000000" font-family="sans-serif" font-size="11" lengthAdjust="spacingAndGlyphs" textLength="107" x="797" y="62.4189">saveScooter(scooter)</text>
        <!--MD5=[7f2a9fafcebe4f099f71398fd3e2ed00]
class Pharmacy-->
        <rect codeLine="27" fill="#FEFECE" filter="url(#fldke52u3ck8k)" height="61.8359" id="Pharmacy" style="stroke:#A80036;stroke-width:1.5;" width="142" x="940" y="106" />
        <ellipse cx="979.75" cy="122" fill="#ADD1B2" rx="11" ry="11" style="stroke:#A80036;stroke-width:1.0;" />
        <path d="M982.5156,117.875 Q982.6719,117.6563 982.8594,117.5469 Q983.0469,117.4375 983.2656,117.4375 Q983.6406,117.4375 983.875,117.6953 Q984.1094,117.9531 984.1094,118.5625 L984.1094,120.0156 Q984.1094,120.625 983.875,120.8906 Q983.6406,121.1563 983.2656,121.1563 Q982.9219,121.1563 982.7188,120.9531 Q982.5156,120.7656 982.4063,120.25 Q982.3594,119.8906 982.1719,119.7031 Q981.8438,119.3281 981.2344,119.1094 Q980.625,118.8906 980,118.8906 Q979.2344,118.8906 978.6016,119.2188 Q977.9688,119.5469 977.4766,120.2969 Q976.9844,121.0469 976.9844,122.0781 L976.9844,123.1719 Q976.9844,124.4063 977.875,125.2266 Q978.7656,126.0469 980.3594,126.0469 Q981.2969,126.0469 981.9531,125.7969 Q982.3438,125.6406 982.7656,125.2031 Q983.0313,124.9375 983.1797,124.8594 Q983.3281,124.7813 983.5313,124.7813 Q983.8594,124.7813 984.1172,125.0391 Q984.375,125.2969 984.375,125.6406 Q984.375,125.9844 984.0313,126.3906 Q983.5313,126.9688 982.7344,127.2969 Q981.6563,127.75 980.3594,127.75 Q978.8438,127.75 977.6406,127.125 Q976.6563,126.625 975.9688,125.5547 Q975.2813,124.4844 975.2813,123.2031 L975.2813,122.0469 Q975.2813,120.7188 975.8984,119.5703 Q976.5156,118.4219 977.6094,117.8047 Q978.7031,117.1875 979.9375,117.1875 Q980.6719,117.1875 981.3203,117.3516 Q981.9688,117.5156 982.5156,117.875 Z " fill="#000000" /><text fill="#000000" font-family="sans-serif" font-size="12" lengthAdjust="spacingAndGlyphs" textLength="55" x="999.25" y="126.9102">Pharmacy</text>
        <line style="stroke:#A80036;stroke-width:1.5;" x1="941" x2="1081" y1="138" y2="138" />
        <line style="stroke:#A80036;stroke-width:1.5;" x1="941" x2="1081" y1="146" y2="146" /><text fill="#000000" font-family="sans-serif" font-size="11" lengthAdjust="spacingAndGlyphs" textLength="130" x="946" y="161.4189">addScooterToList(scooter)</text>
        <!--MD5=[b860ecc58d0ca70e482845cb1f7b4615]
class PharmacyDB-->
        <rect codeLine="31" fill="#FEFECE" filter="url(#fldke52u3ck8k)" height="61.8359" id="PharmacyDB" style="stroke:#A80036;stroke-width:1.5;" width="104" x="657" y="94" />
        <ellipse cx="672" cy="110" fill="#ADD1B2" rx="11" ry="11" style="stroke:#A80036;stroke-width:1.0;" />
        <path d="M674.7656,105.875 Q674.9219,105.6563 675.1094,105.5469 Q675.2969,105.4375 675.5156,105.4375 Q675.8906,105.4375 676.125,105.6953 Q676.3594,105.9531 676.3594,106.5625 L676.3594,108.0156 Q676.3594,108.625 676.125,108.8906 Q675.8906,109.1563 675.5156,109.1563 Q675.1719,109.1563 674.9688,108.9531 Q674.7656,108.7656 674.6563,108.25 Q674.6094,107.8906 674.4219,107.7031 Q674.0938,107.3281 673.4844,107.1094 Q672.875,106.8906 672.25,106.8906 Q671.4844,106.8906 670.8516,107.2188 Q670.2188,107.5469 669.7266,108.2969 Q669.2344,109.0469 669.2344,110.0781 L669.2344,111.1719 Q669.2344,112.4063 670.125,113.2266 Q671.0156,114.0469 672.6094,114.0469 Q673.5469,114.0469 674.2031,113.7969 Q674.5938,113.6406 675.0156,113.2031 Q675.2813,112.9375 675.4297,112.8594 Q675.5781,112.7813 675.7813,112.7813 Q676.1094,112.7813 676.3672,113.0391 Q676.625,113.2969 676.625,113.6406 Q676.625,113.9844 676.2813,114.3906 Q675.7813,114.9688 674.9844,115.2969 Q673.9063,115.75 672.6094,115.75 Q671.0938,115.75 669.8906,115.125 Q668.9063,114.625 668.2188,113.5547 Q667.5313,112.4844 667.5313,111.2031 L667.5313,110.0469 Q667.5313,108.7188 668.1484,107.5703 Q668.7656,106.4219 669.8594,105.8047 Q670.9531,105.1875 672.1875,105.1875 Q672.9219,105.1875 673.5703,105.3516 Q674.2188,105.5156 674.7656,105.875 Z " fill="#000000" /><text fill="#000000" font-family="sans-serif" font-size="12" lengthAdjust="spacingAndGlyphs" textLength="72" x="686" y="114.9102">PharmacyDB</text>
        <line style="stroke:#A80036;stroke-width:1.5;" x1="658" x2="760" y1="126" y2="126" />
        <line style="stroke:#A80036;stroke-width:1.5;" x1="658" x2="760" y1="134" y2="134" /><text fill="#000000" font-family="sans-serif" font-size="11" lengthAdjust="spacingAndGlyphs" textLength="79" x="663" y="149.4189">getPharmacy(id)</text>
        <!--MD5=[8ce84a6c1b75cf9d0a0a09affc8d940a]
link AddScooterUI to AddScooterController-->
        <path codeLine="36" d="M114.21,82 C130.7,82 149.68,82 169.06,82 " fill="none" id="AddScooterUI-to-AddScooterController" style="stroke:#A80036;stroke-width:1.0;stroke-dasharray:7.0,7.0;" />
        <polygon fill="#A80036" points="174.53,82,165.53,78,169.53,82,165.53,86,174.53,82" style="stroke:#A80036;stroke-width:1.0;" />
        <!--MD5=[ff7ec999d391f9848d8a3089a6d8c5c7]
link AddScooterController to System-->
        <path codeLine="37" d="M425.01,82 C444.79,82 464.17,82 480.73,82 " fill="none" id="AddScooterController-to-System" style="stroke:#A80036;stroke-width:1.0;stroke-dasharray:7.0,7.0;" />
        <polygon fill="#A80036" points="485.78,82,476.78,78,480.78,82,476.78,86,485.78,82" style="stroke:#A80036;stroke-width:1.0;" />
        <!--MD5=[fe3c750c6ee067a4ea25df1b0b72ff01]
link System to ScooterDB-->
        <path codeLine="38" d="M574.29,76.02 C628.8,68.49 722.9,55.49 785.67,46.82 " fill="none" id="System-to-ScooterDB" style="stroke:#A80036;stroke-width:1.0;" />
        <polygon fill="#A80036" points="790.89,46.1,781.4335,43.3478,785.9355,46.773,782.5103,51.275,790.89,46.1" style="stroke:#A80036;stroke-width:1.0;" /><text fill="#000000" font-family="sans-serif" font-size="13" lengthAdjust="spacingAndGlyphs" textLength="21" x="605" y="66.4951">has</text><text fill="#000000" font-family="sans-serif" font-size="13" lengthAdjust="spacingAndGlyphs" textLength="7" x="581.9065" y="89.8781">1</text><text fill="#000000" font-family="sans-serif" font-size="13" lengthAdjust="spacingAndGlyphs" textLength="7" x="775.804" y="61.691">1</text>
        <!--MD5=[8d41a7de4e749fd7e15568a66b12efc6]
link System to PharmacyDB-->
        <path codeLine="39" d="M574.18,93.45 C583.97,95.99 594.33,98.63 604,101 C619.44,104.79 636.21,108.74 651.69,112.31 " fill="none" id="System-to-PharmacyDB" style="stroke:#A80036;stroke-width:1.0;" />
        <polygon fill="#A80036" points="656.89,113.5,649.025,107.572,652.019,112.3715,647.2194,115.3655,656.89,113.5" style="stroke:#A80036;stroke-width:1.0;" /><text fill="#000000" font-family="sans-serif" font-size="13" lengthAdjust="spacingAndGlyphs" textLength="21" x="605" y="97.4951">has</text><text fill="#000000" font-family="sans-serif" font-size="13" lengthAdjust="spacingAndGlyphs" textLength="7" x="582.077" y="110.2092">1</text><text fill="#000000" font-family="sans-serif" font-size="13" lengthAdjust="spacingAndGlyphs" textLength="7" x="642.0698" y="126.5392">1</text>
        <!--MD5=[44650545f701211ba2acbe8172184bfb]
link ScooterDB to Scooter-->
        <path codeLine="40" d="M910.03,45.02 C975.11,52.83 1081.39,65.58 1159.78,74.98 " fill="none" id="ScooterDB-to-Scooter" style="stroke:#A80036;stroke-width:1.0;" />
        <polygon fill="#A80036" points="1164.9,75.59,1156.4441,70.5404,1159.936,74.9909,1155.4856,78.4828,1164.9,75.59" style="stroke:#A80036;stroke-width:1.0;" /><text fill="#000000" font-family="sans-serif" font-size="13" lengthAdjust="spacingAndGlyphs" textLength="82" x="970" y="46.4951">has registered</text><text fill="#000000" font-family="sans-serif" font-size="13" lengthAdjust="spacingAndGlyphs" textLength="7" x="918.1057" y="60.4726">1</text><text fill="#000000" font-family="sans-serif" font-size="13" lengthAdjust="spacingAndGlyphs" textLength="5" x="1152.0428" y="88.847">*</text>
        <!--MD5=[b3922b8b1f1c918d378b3c148704b394]
link PharmacyDB to Pharmacy-->
        <path codeLine="41" d="M761.23,127.05 C808.89,128.96 880.51,131.82 934.68,133.99 " fill="none" id="PharmacyDB-to-Pharmacy" style="stroke:#A80036;stroke-width:1.0;" />
        <polygon fill="#A80036" points="939.87,134.19,931.0376,129.8325,934.874,133.9896,930.7169,137.826,939.87,134.19" style="stroke:#A80036;stroke-width:1.0;" /><text fill="#000000" font-family="sans-serif" font-size="13" lengthAdjust="spacingAndGlyphs" textLength="82" x="809.5" y="124.4951">has registered</text><text fill="#000000" font-family="sans-serif" font-size="13" lengthAdjust="spacingAndGlyphs" textLength="7" x="769.067" y="141.9947">1</text><text fill="#000000" font-family="sans-serif" font-size="13" lengthAdjust="spacingAndGlyphs" textLength="5" x="926.8167" y="148.281">*</text>
        <!--MD5=[cf4f95b832970cfa6e3a3c87e0aa2b32]
link Pharmacy to Scooter-->
        <path codeLine="42" d="M1082.07,122.87 C1106.11,118.03 1133.5,112.5 1159.47,107.27 " fill="none" id="Pharmacy-to-Scooter" style="stroke:#A80036;stroke-width:1.0;" />
        <polygon fill="#A80036" points="1164.65,106.22,1155.0379,104.0735,1159.7482,107.2061,1156.6156,111.9164,1164.65,106.22" style="stroke:#A80036;stroke-width:1.0;" /><text fill="#000000" font-family="sans-serif" font-size="13" lengthAdjust="spacingAndGlyphs" textLength="21" x="1113" y="110.4951">has</text><text fill="#000000" font-family="sans-serif" font-size="13" lengthAdjust="spacingAndGlyphs" textLength="7" x="1090.2261" y="135.7228">1</text><text fill="#000000" font-family="sans-serif" font-size="13" lengthAdjust="spacingAndGlyphs" textLength="5" x="1152.0818" y="121.8314">*</text>
        <!--MD5=[0c2fd70d8f155b6736d67e344f23bdb9]
@startuml

left to right direction

class AddScooterUI {
}

class AddScooterController {
  getSCooterDB()
  addScooter(pharmacyId, id, qrCode, batterySize, \nbatteryConsumption,currentBattery)
  saveScooter(scooter)
  getPharmacy(id)
}

class System {
  getSCooterDB()
}

class Scooter {
  newScooter(id, qrCode, batterySize, \nbatteryConsumption,currentBattery)
  getDetails()
}

class ScooterDB {
  saveScooter(scooter)
}

class Pharmacy {
  addScooterToList(scooter)
}

class PharmacyDB {
  getPharmacy(id)
}


AddScooterUI ..> AddScooterController
AddScooterController ..> System
System "1" - -> "1" ScooterDB: has
System "1" - -> "1" PharmacyDB: has
ScooterDB "1" - -> "*" Scooter: has registered
PharmacyDB "1" - -> "*" Pharmacy: has registered
Pharmacy "1" - -> "*" Scooter: has

@enduml

PlantUML version 1.2020.26(Mon Dec 21 17:45:07 GMT 2020)
(GPL source distribution)
Java Runtime: Java(TM) SE Runtime Environment
JVM: Java HotSpot(TM) 64-Bit Server VM
Default Encoding: Cp1252
Language: pt
Country: PT
-->
    </g>
</svg>