<?xml version="1.0" encoding="UTF-8" standalone="no"?><svg xmlns="http://www.w3.org/2000/svg" xmlns:xlink="http://www.w3.org/1999/xlink" contentScriptType="application/ecmascript" contentStyleType="text/css" height="114px" preserveAspectRatio="none" style="width:760px;height:114px;" version="1.1" viewBox="0 0 760 114" width="760px" zoomAndPan="magnify">
    <defs>
        <filter height="300%" id="fz5gxk5hnziau" width="300%" x="-1" y="-1">
            <feGaussianBlur result="blurOut" stdDeviation="2.0" />
            <feColorMatrix in="blurOut" result="blurOut2" type="matrix" values="0 0 0 0 0 0 0 0 0 0 0 0 0 0 0 0 0 0 .4 0" />
            <feOffset dx="4.0" dy="4.0" in="blurOut2" result="blurOut3" />
            <feBlend in="SourceGraphic" in2="blurOut3" mode="normal" />
        </filter>
    </defs>
    <g>
        <!--class System-->
        <rect fill="#FEFECE" filter="url(#fz5gxk5hnziau)" height="40" id="System" style="stroke: #A80036; stroke-width: 1.5;" width="73" x="6" y="35.5" />
        <ellipse cx="21" cy="51.5" fill="#ADD1B2" rx="11" ry="11" style="stroke: #A80036; stroke-width: 1.0;" />
        <path d="M23.7656,47.375 Q23.9219,47.1563 24.1094,47.0469 Q24.2969,46.9375 24.5156,46.9375 Q24.8906,46.9375 25.125,47.1953 Q25.3594,47.4531 25.3594,48.0625 L25.3594,49.5156 Q25.3594,50.125 25.125,50.3906 Q24.8906,50.6563 24.5156,50.6563 Q24.1719,50.6563 23.9688,50.4531 Q23.7656,50.2656 23.6563,49.75 Q23.6094,49.3906 23.4219,49.2031 Q23.0938,48.8281 22.4844,48.6094 Q21.875,48.3906 21.25,48.3906 Q20.4844,48.3906 19.8516,48.7188 Q19.2188,49.0469 18.7266,49.7969 Q18.2344,50.5469 18.2344,51.5781 L18.2344,52.6719 Q18.2344,53.9063 19.125,54.7266 Q20.0156,55.5469 21.6094,55.5469 Q22.5469,55.5469 23.2031,55.2969 Q23.5938,55.1406 24.0156,54.7031 Q24.2813,54.4375 24.4297,54.3594 Q24.5781,54.2813 24.7813,54.2813 Q25.1094,54.2813 25.3672,54.5391 Q25.625,54.7969 25.625,55.1406 Q25.625,55.4844 25.2813,55.8906 Q24.7813,56.4688 23.9844,56.7969 Q22.9063,57.25 21.6094,57.25 Q20.0938,57.25 18.8906,56.625 Q17.9063,56.125 17.2188,55.0547 Q16.5313,53.9844 16.5313,52.7031 L16.5313,51.5469 Q16.5313,50.2188 17.1484,49.0703 Q17.7656,47.9219 18.8594,47.3047 Q19.9531,46.6875 21.1875,46.6875 Q21.9219,46.6875 22.5703,46.8516 Q23.2188,47.0156 23.7656,47.375 Z " /><text fill="#000000" font-family="sans-serif" font-size="12" lengthAdjust="spacingAndGlyphs" textLength="41" x="35" y="56.4102">System</text>
        <line style="stroke: #A80036; stroke-width: 1.5;" x1="7" x2="78" y1="67.5" y2="67.5" />
        <!--class User-->
        <rect fill="#FEFECE" filter="url(#fz5gxk5hnziau)" height="81.5078" id="User" style="stroke: #A80036; stroke-width: 1.5;" width="123" x="626" y="14.5" />
        <ellipse cx="669.8" cy="30.5" fill="#ADD1B2" rx="11" ry="11" style="stroke: #A80036; stroke-width: 1.0;" />
        <path d="M672.5656,26.375 Q672.7219,26.1563 672.9094,26.0469 Q673.0969,25.9375 673.3156,25.9375 Q673.6906,25.9375 673.925,26.1953 Q674.1594,26.4531 674.1594,27.0625 L674.1594,28.5156 Q674.1594,29.125 673.925,29.3906 Q673.6906,29.6563 673.3156,29.6563 Q672.9719,29.6563 672.7688,29.4531 Q672.5656,29.2656 672.4563,28.75 Q672.4094,28.3906 672.2219,28.2031 Q671.8938,27.8281 671.2844,27.6094 Q670.675,27.3906 670.05,27.3906 Q669.2844,27.3906 668.6516,27.7188 Q668.0188,28.0469 667.5266,28.7969 Q667.0344,29.5469 667.0344,30.5781 L667.0344,31.6719 Q667.0344,32.9063 667.925,33.7266 Q668.8156,34.5469 670.4094,34.5469 Q671.3469,34.5469 672.0031,34.2969 Q672.3938,34.1406 672.8156,33.7031 Q673.0813,33.4375 673.2297,33.3594 Q673.3781,33.2813 673.5813,33.2813 Q673.9094,33.2813 674.1672,33.5391 Q674.425,33.7969 674.425,34.1406 Q674.425,34.4844 674.0813,34.8906 Q673.5813,35.4688 672.7844,35.7969 Q671.7063,36.25 670.4094,36.25 Q668.8938,36.25 667.6906,35.625 Q666.7063,35.125 666.0188,34.0547 Q665.3313,32.9844 665.3313,31.7031 L665.3313,30.5469 Q665.3313,29.2188 665.9484,28.0703 Q666.5656,26.9219 667.6594,26.3047 Q668.7531,25.6875 669.9875,25.6875 Q670.7219,25.6875 671.3703,25.8516 Q672.0188,26.0156 672.5656,26.375 Z " /><text fill="#000000" font-family="sans-serif" font-size="12" lengthAdjust="spacingAndGlyphs" textLength="27" x="690.2" y="35.4102">User</text>
        <line style="stroke: #A80036; stroke-width: 1.5;" x1="627" x2="748" y1="46.5" y2="46.5" />
        <rect fill="none" height="6" style="stroke: #C82930; stroke-width: 1.0;" width="6" x="634" y="55.918" /><text fill="#000000" font-family="sans-serif" font-size="11" lengthAdjust="spacingAndGlyphs" textLength="57" x="646" y="61.9189">name String</text>
        <rect fill="none" height="6" style="stroke: #C82930; stroke-width: 1.0;" width="6" x="634" y="69.7539" /><text fill="#000000" font-family="sans-serif" font-size="11" lengthAdjust="spacingAndGlyphs" textLength="97" x="646" y="75.7549">emailAddress String</text>
        <rect fill="none" height="6" style="stroke: #C82930; stroke-width: 1.0;" width="6" x="634" y="83.5898" /><text fill="#000000" font-family="sans-serif" font-size="11" lengthAdjust="spacingAndGlyphs" textLength="81" x="646" y="89.5908">password String</text>
        <!--class Courier-->
        <rect fill="#FEFECE" filter="url(#fz5gxk5hnziau)" height="95.3438" id="Courier" style="stroke: #A80036; stroke-width: 1.5;" width="103" x="405" y="8" />
        <ellipse cx="433.5" cy="24" fill="#ADD1B2" rx="11" ry="11" style="stroke: #A80036; stroke-width: 1.0;" />
        <path d="M436.2656,19.875 Q436.4219,19.6563 436.6094,19.5469 Q436.7969,19.4375 437.0156,19.4375 Q437.3906,19.4375 437.625,19.6953 Q437.8594,19.9531 437.8594,20.5625 L437.8594,22.0156 Q437.8594,22.625 437.625,22.8906 Q437.3906,23.1563 437.0156,23.1563 Q436.6719,23.1563 436.4688,22.9531 Q436.2656,22.7656 436.1563,22.25 Q436.1094,21.8906 435.9219,21.7031 Q435.5938,21.3281 434.9844,21.1094 Q434.375,20.8906 433.75,20.8906 Q432.9844,20.8906 432.3516,21.2188 Q431.7188,21.5469 431.2266,22.2969 Q430.7344,23.0469 430.7344,24.0781 L430.7344,25.1719 Q430.7344,26.4063 431.625,27.2266 Q432.5156,28.0469 434.1094,28.0469 Q435.0469,28.0469 435.7031,27.7969 Q436.0938,27.6406 436.5156,27.2031 Q436.7813,26.9375 436.9297,26.8594 Q437.0781,26.7813 437.2813,26.7813 Q437.6094,26.7813 437.8672,27.0391 Q438.125,27.2969 438.125,27.6406 Q438.125,27.9844 437.7813,28.3906 Q437.2813,28.9688 436.4844,29.2969 Q435.4063,29.75 434.1094,29.75 Q432.5938,29.75 431.3906,29.125 Q430.4063,28.625 429.7188,27.5547 Q429.0313,26.4844 429.0313,25.2031 L429.0313,24.0469 Q429.0313,22.7188 429.6484,21.5703 Q430.2656,20.4219 431.3594,19.8047 Q432.4531,19.1875 433.6875,19.1875 Q434.4219,19.1875 435.0703,19.3516 Q435.7188,19.5156 436.2656,19.875 Z " /><text fill="#000000" font-family="sans-serif" font-size="12" lengthAdjust="spacingAndGlyphs" textLength="41" x="450.5" y="28.9102">Courier</text>
        <line style="stroke: #A80036; stroke-width: 1.5;" x1="406" x2="507" y1="40" y2="40" />
        <rect fill="none" height="6" style="stroke: #C82930; stroke-width: 1.0;" width="6" x="413" y="49.418" /><text fill="#000000" font-family="sans-serif" font-size="11" lengthAdjust="spacingAndGlyphs" textLength="57" x="425" y="55.4189">name String</text>
        <rect fill="none" height="6" style="stroke: #C82930; stroke-width: 1.0;" width="6" x="413" y="63.2539" /><text fill="#000000" font-family="sans-serif" font-size="11" lengthAdjust="spacingAndGlyphs" textLength="43" x="425" y="69.2549">nif String</text>
        <rect fill="none" height="6" style="stroke: #C82930; stroke-width: 1.0;" width="6" x="413" y="77.0898" /><text fill="#000000" font-family="sans-serif" font-size="11" lengthAdjust="spacingAndGlyphs" textLength="61" x="425" y="83.0908">emailn String</text>
        <rect fill="none" height="6" style="stroke: #C82930; stroke-width: 1.0;" width="6" x="413" y="90.9258" /><text fill="#000000" font-family="sans-serif" font-size="11" lengthAdjust="spacingAndGlyphs" textLength="77" x="425" y="96.9268">cellphone String</text>
        <!--class Administrator-->
        <rect fill="#FEFECE" filter="url(#fz5gxk5hnziau)" height="40" id="Administrator" style="stroke: #A80036; stroke-width: 1.5;" width="105" x="175" y="35.5" />
        <ellipse cx="190" cy="51.5" fill="#ADD1B2" rx="11" ry="11" style="stroke: #A80036; stroke-width: 1.0;" />
        <path d="M192.7656,47.375 Q192.9219,47.1563 193.1094,47.0469 Q193.2969,46.9375 193.5156,46.9375 Q193.8906,46.9375 194.125,47.1953 Q194.3594,47.4531 194.3594,48.0625 L194.3594,49.5156 Q194.3594,50.125 194.125,50.3906 Q193.8906,50.6563 193.5156,50.6563 Q193.1719,50.6563 192.9688,50.4531 Q192.7656,50.2656 192.6563,49.75 Q192.6094,49.3906 192.4219,49.2031 Q192.0938,48.8281 191.4844,48.6094 Q190.875,48.3906 190.25,48.3906 Q189.4844,48.3906 188.8516,48.7188 Q188.2188,49.0469 187.7266,49.7969 Q187.2344,50.5469 187.2344,51.5781 L187.2344,52.6719 Q187.2344,53.9063 188.125,54.7266 Q189.0156,55.5469 190.6094,55.5469 Q191.5469,55.5469 192.2031,55.2969 Q192.5938,55.1406 193.0156,54.7031 Q193.2813,54.4375 193.4297,54.3594 Q193.5781,54.2813 193.7813,54.2813 Q194.1094,54.2813 194.3672,54.5391 Q194.625,54.7969 194.625,55.1406 Q194.625,55.4844 194.2813,55.8906 Q193.7813,56.4688 192.9844,56.7969 Q191.9063,57.25 190.6094,57.25 Q189.0938,57.25 187.8906,56.625 Q186.9063,56.125 186.2188,55.0547 Q185.5313,53.9844 185.5313,52.7031 L185.5313,51.5469 Q185.5313,50.2188 186.1484,49.0703 Q186.7656,47.9219 187.8594,47.3047 Q188.9531,46.6875 190.1875,46.6875 Q190.9219,46.6875 191.5703,46.8516 Q192.2188,47.0156 192.7656,47.375 Z " /><text fill="#000000" font-family="sans-serif" font-size="12" lengthAdjust="spacingAndGlyphs" textLength="73" x="204" y="56.4102">Administrator</text>
        <line style="stroke: #A80036; stroke-width: 1.5;" x1="176" x2="279" y1="67.5" y2="67.5" />
        <!--link System to Administrator-->
        <path d="M79.22,55.5 C106.47,55.5 144.4,55.5 174.94,55.5 " fill="none" id="System-Administrator" style="stroke: #A80036; stroke-width: 1.0;" /><text fill="#000000" font-family="sans-serif" font-size="13" lengthAdjust="spacingAndGlyphs" textLength="21" x="110" y="51.9951">has</text>
        <polygon fill="#000000" points="134,45.1758,140,48.1758,134,51.1758,134,45.1758" style="stroke: #000000; stroke-width: 1.0;" /><text fill="#000000" font-family="sans-serif" font-size="13" lengthAdjust="spacingAndGlyphs" textLength="7" x="86.8869" y="70.5536">1</text><text fill="#000000" font-family="sans-serif" font-size="13" lengthAdjust="spacingAndGlyphs" textLength="20" x="146.9245" y="70.0426">1..*</text>
        <!--link Administrator to Courier-->
        <path d="M280.01,55.5 C317.42,55.5 367.79,55.5 404.98,55.5 " fill="none" id="Administrator-Courier" style="stroke: #A80036; stroke-width: 1.0;" /><text fill="#000000" font-family="sans-serif" font-size="13" lengthAdjust="spacingAndGlyphs" textLength="50" x="311" y="51.9951">registers</text>
        <polygon fill="#000000" points="364,45.1758,370,48.1758,364,51.1758,364,45.1758" style="stroke: #000000; stroke-width: 1.0;" /><text fill="#000000" font-family="sans-serif" font-size="13" lengthAdjust="spacingAndGlyphs" textLength="7" x="287.8864" y="70.1448">1</text><text fill="#000000" font-family="sans-serif" font-size="13" lengthAdjust="spacingAndGlyphs" textLength="20" x="377.0978" y="70.0206">0..*</text>
        <!--link Courier to User-->
        <path d="M508.04,55.5 C542.81,55.5 589.17,55.5 625.93,55.5 " fill="none" id="Courier-User" style="stroke: #A80036; stroke-width: 1.0;" /><text fill="#000000" font-family="sans-serif" font-size="13" lengthAdjust="spacingAndGlyphs" textLength="43" x="539" y="51.9951">acts as</text>
        <polygon fill="#000000" points="585,45.1758,591,48.1758,585,51.1758,585,45.1758" style="stroke: #000000; stroke-width: 1.0;" /><text fill="#000000" font-family="sans-serif" font-size="13" lengthAdjust="spacingAndGlyphs" textLength="7" x="516.124" y="70.1707">1</text><text fill="#000000" font-family="sans-serif" font-size="13" lengthAdjust="spacingAndGlyphs" textLength="7" x="610.9996" y="70.0215">1</text>
        <!--
@startuml
hide methods
left to right direction


class System {

}

class User {
    -name String
    -emailAddress String
    -password String
}

class Courier {
    -name String
    -nif String
    -emailn String
    -cellphone String
}

class Administrator {

}



System "1" - - "1..*" Administrator: has >
Administrator"1" - - "0..*" Courier: registers >
Courier "1" - - "1" User: acts as >

@enduml

PlantUML version 1.2018.14(Fri Dec 21 16:33:16 GMT 2018)
(GPL source distribution)
Java Runtime: Java(TM) SE Runtime Environment
JVM: Java HotSpot(TM) 64-Bit Server VM
Java Version: 1.8.0_271-b09
Operating System: Windows 10
OS Version: 10.0
Default Encoding: Cp1252
Language: en
Country: US
-->
    </g>
</svg>