<?xml version="1.0" encoding="UTF-8" standalone="no"?><svg xmlns="http://www.w3.org/2000/svg" xmlns:xlink="http://www.w3.org/1999/xlink" contentScriptType="application/ecmascript" contentStyleType="text/css" height="289px" preserveAspectRatio="none" style="width:1375px;height:289px;" version="1.1" viewBox="0 0 1375 289" width="1375px" zoomAndPan="magnify">
    <defs>
        <filter height="300%" id="f1glrebkf79ym" width="300%" x="-1" y="-1">
            <feGaussianBlur result="blurOut" stdDeviation="2.0" />
            <feColorMatrix in="blurOut" result="blurOut2" type="matrix" values="0 0 0 0 0 0 0 0 0 0 0 0 0 0 0 0 0 0 .4 0" />
            <feOffset dx="4.0" dy="4.0" in="blurOut2" result="blurOut3" />
            <feBlend in="SourceGraphic" in2="blurOut3" mode="normal" />
        </filter>
    </defs>
    <g>
        <!--class RegisterCourierUI-->
        <rect fill="#FEFECE" filter="url(#f1glrebkf79ym)" height="48" id="RegisterCourierUI" style="stroke: #A80036; stroke-width: 1.5;" width="132" x="6" y="133.5" />
        <ellipse cx="21" cy="149.5" fill="#ADD1B2" rx="11" ry="11" style="stroke: #A80036; stroke-width: 1.0;" />
        <path d="M23.7656,145.375 Q23.9219,145.1563 24.1094,145.0469 Q24.2969,144.9375 24.5156,144.9375 Q24.8906,144.9375 25.125,145.1953 Q25.3594,145.4531 25.3594,146.0625 L25.3594,147.5156 Q25.3594,148.125 25.125,148.3906 Q24.8906,148.6563 24.5156,148.6563 Q24.1719,148.6563 23.9688,148.4531 Q23.7656,148.2656 23.6563,147.75 Q23.6094,147.3906 23.4219,147.2031 Q23.0938,146.8281 22.4844,146.6094 Q21.875,146.3906 21.25,146.3906 Q20.4844,146.3906 19.8516,146.7188 Q19.2188,147.0469 18.7266,147.7969 Q18.2344,148.5469 18.2344,149.5781 L18.2344,150.6719 Q18.2344,151.9063 19.125,152.7266 Q20.0156,153.5469 21.6094,153.5469 Q22.5469,153.5469 23.2031,153.2969 Q23.5938,153.1406 24.0156,152.7031 Q24.2813,152.4375 24.4297,152.3594 Q24.5781,152.2813 24.7813,152.2813 Q25.1094,152.2813 25.3672,152.5391 Q25.625,152.7969 25.625,153.1406 Q25.625,153.4844 25.2813,153.8906 Q24.7813,154.4688 23.9844,154.7969 Q22.9063,155.25 21.6094,155.25 Q20.0938,155.25 18.8906,154.625 Q17.9063,154.125 17.2188,153.0547 Q16.5313,151.9844 16.5313,150.7031 L16.5313,149.5469 Q16.5313,148.2188 17.1484,147.0703 Q17.7656,145.9219 18.8594,145.3047 Q19.9531,144.6875 21.1875,144.6875 Q21.9219,144.6875 22.5703,144.8516 Q23.2188,145.0156 23.7656,145.375 Z " /><text fill="#000000" font-family="sans-serif" font-size="12" lengthAdjust="spacingAndGlyphs" textLength="100" x="35" y="154.4102">RegisterCourierUI</text>
        <line style="stroke: #A80036; stroke-width: 1.5;" x1="7" x2="137" y1="165.5" y2="165.5" />
        <line style="stroke: #A80036; stroke-width: 1.5;" x1="7" x2="137" y1="173.5" y2="173.5" />
        <!--class RegistrationController-->
        <rect fill="#FEFECE" filter="url(#f1glrebkf79ym)" height="75.6719" id="RegisterCourierController" style="stroke: #A80036; stroke-width: 1.5;" width="220" x="199" y="119.5" />
        <ellipse cx="234.7" cy="135.5" fill="#ADD1B2" rx="11" ry="11" style="stroke: #A80036; stroke-width: 1.0;" />
        <path d="M237.4656,131.375 Q237.6219,131.1563 237.8094,131.0469 Q237.9969,130.9375 238.2156,130.9375 Q238.5906,130.9375 238.825,131.1953 Q239.0594,131.4531 239.0594,132.0625 L239.0594,133.5156 Q239.0594,134.125 238.825,134.3906 Q238.5906,134.6563 238.2156,134.6563 Q237.8719,134.6563 237.6688,134.4531 Q237.4656,134.2656 237.3563,133.75 Q237.3094,133.3906 237.1219,133.2031 Q236.7938,132.8281 236.1844,132.6094 Q235.575,132.3906 234.95,132.3906 Q234.1844,132.3906 233.5516,132.7188 Q232.9188,133.0469 232.4266,133.7969 Q231.9344,134.5469 231.9344,135.5781 L231.9344,136.6719 Q231.9344,137.9063 232.825,138.7266 Q233.7156,139.5469 235.3094,139.5469 Q236.2469,139.5469 236.9031,139.2969 Q237.2938,139.1406 237.7156,138.7031 Q237.9813,138.4375 238.1297,138.3594 Q238.2781,138.2813 238.4813,138.2813 Q238.8094,138.2813 239.0672,138.5391 Q239.325,138.7969 239.325,139.1406 Q239.325,139.4844 238.9813,139.8906 Q238.4813,140.4688 237.6844,140.7969 Q236.6063,141.25 235.3094,141.25 Q233.7938,141.25 232.5906,140.625 Q231.6063,140.125 230.9188,139.0547 Q230.2313,137.9844 230.2313,136.7031 L230.2313,135.5469 Q230.2313,134.2188 230.8484,133.0703 Q231.4656,131.9219 232.5594,131.3047 Q233.6531,130.6875 234.8875,130.6875 Q235.6219,130.6875 236.2703,130.8516 Q236.9188,131.0156 237.4656,131.375 Z " /><text fill="#000000" font-family="sans-serif" font-size="12" lengthAdjust="spacingAndGlyphs" textLength="142" x="253.3" y="140.4102">RegisterCourierController</text>
        <line style="stroke: #A80036; stroke-width: 1.5;" x1="200" x2="418" y1="151.5" y2="151.5" />
        <line style="stroke: #A80036; stroke-width: 1.5;" x1="200" x2="418" y1="159.5" y2="159.5" />
        <ellipse cx="210" cy="171.918" fill="#84BE84" rx="3" ry="3" style="stroke: #038048; stroke-width: 1.0;" /><text fill="#000000" font-family="sans-serif" font-size="11" lengthAdjust="spacingAndGlyphs" textLength="194" x="219" y="174.9189">newCourier(name, NIF, email, cellphone)</text>
        <ellipse cx="210" cy="185.7539" fill="#84BE84" rx="3" ry="3" style="stroke: #038048; stroke-width: 1.0;" /><text fill="#000000" font-family="sans-serif" font-size="11" lengthAdjust="spacingAndGlyphs" textLength="80" x="219" y="188.7549">registerCourier()</text>
        <!--class ApplicationEM-->
        <rect fill="#FEFECE" filter="url(#f1glrebkf79ym)" height="75.6719" id="ApplicationEM" style="stroke: #A80036; stroke-width: 1.5;" width="160" x="501" y="8.5" />
        <ellipse cx="538.95" cy="24.5" fill="#ADD1B2" rx="11" ry="11" style="stroke: #A80036; stroke-width: 1.0;" />
        <path d="M541.7156,20.375 Q541.8719,20.1563 542.0594,20.0469 Q542.2469,19.9375 542.4656,19.9375 Q542.8406,19.9375 543.075,20.1953 Q543.3094,20.4531 543.3094,21.0625 L543.3094,22.5156 Q543.3094,23.125 543.075,23.3906 Q542.8406,23.6563 542.4656,23.6563 Q542.1219,23.6563 541.9188,23.4531 Q541.7156,23.2656 541.6063,22.75 Q541.5594,22.3906 541.3719,22.2031 Q541.0438,21.8281 540.4344,21.6094 Q539.825,21.3906 539.2,21.3906 Q538.4344,21.3906 537.8016,21.7188 Q537.1688,22.0469 536.6766,22.7969 Q536.1844,23.5469 536.1844,24.5781 L536.1844,25.6719 Q536.1844,26.9063 537.075,27.7266 Q537.9656,28.5469 539.5594,28.5469 Q540.4969,28.5469 541.1531,28.2969 Q541.5438,28.1406 541.9656,27.7031 Q542.2313,27.4375 542.3797,27.3594 Q542.5281,27.2813 542.7313,27.2813 Q543.0594,27.2813 543.3172,27.5391 Q543.575,27.7969 543.575,28.1406 Q543.575,28.4844 543.2313,28.8906 Q542.7313,29.4688 541.9344,29.7969 Q540.8563,30.25 539.5594,30.25 Q538.0438,30.25 536.8406,29.625 Q535.8563,29.125 535.1688,28.0547 Q534.4813,26.9844 534.4813,25.7031 L534.4813,24.5469 Q534.4813,23.2188 535.0984,22.0703 Q535.7156,20.9219 536.8094,20.3047 Q537.9031,19.6875 539.1375,19.6875 Q539.8719,19.6875 540.5203,19.8516 Q541.1688,20.0156 541.7156,20.375 Z " /><text fill="#000000" font-family="sans-serif" font-size="12" lengthAdjust="spacingAndGlyphs" textLength="77" x="558.05" y="29.4102">ApplicationEM</text>
        <line style="stroke: #A80036; stroke-width: 1.5;" x1="502" x2="660" y1="40.5" y2="40.5" />
        <line style="stroke: #A80036; stroke-width: 1.5;" x1="502" x2="660" y1="48.5" y2="48.5" />
        <ellipse cx="512" cy="60.918" fill="#84BE84" rx="3" ry="3" style="stroke: #038048; stroke-width: 1.0;" /><text fill="#000000" font-family="sans-serif" font-size="11" lengthAdjust="spacingAndGlyphs" text-decoration="underline" textLength="134" x="521" y="63.9189">ApplicationEM getInstance()</text>
        <line style="stroke: #000000; stroke-width: 1.0;" x1="521" x2="655" y1="65.9189" y2="65.9189" />
        <ellipse cx="512" cy="74.7539" fill="#84BE84" rx="3" ry="3" style="stroke: #038048; stroke-width: 1.0;" /><text fill="#000000" font-family="sans-serif" font-size="11" lengthAdjust="spacingAndGlyphs" textLength="104" x="521" y="77.7549">Platform getPlatform()</text>
        <!--class Platform-->
        <rect fill="#FEFECE" filter="url(#f1glrebkf79ym)" height="75.6719" id="Platform" style="stroke: #A80036; stroke-width: 1.5;" width="202" x="480" y="119.5" />
        <ellipse cx="553.75" cy="135.5" fill="#ADD1B2" rx="11" ry="11" style="stroke: #A80036; stroke-width: 1.0;" />
        <path d="M556.5156,131.375 Q556.6719,131.1563 556.8594,131.0469 Q557.0469,130.9375 557.2656,130.9375 Q557.6406,130.9375 557.875,131.1953 Q558.1094,131.4531 558.1094,132.0625 L558.1094,133.5156 Q558.1094,134.125 557.875,134.3906 Q557.6406,134.6563 557.2656,134.6563 Q556.9219,134.6563 556.7188,134.4531 Q556.5156,134.2656 556.4063,133.75 Q556.3594,133.3906 556.1719,133.2031 Q555.8438,132.8281 555.2344,132.6094 Q554.625,132.3906 554,132.3906 Q553.2344,132.3906 552.6016,132.7188 Q551.9688,133.0469 551.4766,133.7969 Q550.9844,134.5469 550.9844,135.5781 L550.9844,136.6719 Q550.9844,137.9063 551.875,138.7266 Q552.7656,139.5469 554.3594,139.5469 Q555.2969,139.5469 555.9531,139.2969 Q556.3438,139.1406 556.7656,138.7031 Q557.0313,138.4375 557.1797,138.3594 Q557.3281,138.2813 557.5313,138.2813 Q557.8594,138.2813 558.1172,138.5391 Q558.375,138.7969 558.375,139.1406 Q558.375,139.4844 558.0313,139.8906 Q557.5313,140.4688 556.7344,140.7969 Q555.6563,141.25 554.3594,141.25 Q552.8438,141.25 551.6406,140.625 Q550.6563,140.125 549.9688,139.0547 Q549.2813,137.9844 549.2813,136.7031 L549.2813,135.5469 Q549.2813,134.2188 549.8984,133.0703 Q550.5156,131.9219 551.6094,131.3047 Q552.7031,130.6875 553.9375,130.6875 Q554.6719,130.6875 555.3203,130.8516 Q555.9688,131.0156 556.5156,131.375 Z " /><text fill="#000000" font-family="sans-serif" font-size="12" lengthAdjust="spacingAndGlyphs" textLength="46" x="574.25" y="140.4102">Platform</text>
        <line style="stroke: #A80036; stroke-width: 1.5;" x1="481" x2="681" y1="151.5" y2="151.5" />
        <rect fill="none" height="6" style="stroke: #C82930; stroke-width: 1.0;" width="6" x="488" y="160.918" /><text fill="#000000" font-family="sans-serif" font-size="11" lengthAdjust="spacingAndGlyphs" textLength="86" x="500" y="166.9189">String designation</text>
        <line style="stroke: #A80036; stroke-width: 1.5;" x1="481" x2="681" y1="173.3359" y2="173.3359" />
        <ellipse cx="491" cy="185.7539" fill="#84BE84" rx="3" ry="3" style="stroke: #038048; stroke-width: 1.0;" /><text fill="#000000" font-family="sans-serif" font-size="11" lengthAdjust="spacingAndGlyphs" textLength="176" x="500" y="188.7549">CourierRegister getCourierRegister()</text>
        <!--class Courier-->
        <rect fill="#FEFECE" filter="url(#f1glrebkf79ym)" height="117.1797" id="Courier" style="stroke: #A80036; stroke-width: 1.5;" width="226" x="1138" y="161" />
        <ellipse cx="1226.25" cy="177" fill="#ADD1B2" rx="11" ry="11" style="stroke: #A80036; stroke-width: 1.0;" />
        <path d="M1229.0156,172.875 Q1229.1719,172.6563 1229.3594,172.5469 Q1229.5469,172.4375 1229.7656,172.4375 Q1230.1406,172.4375 1230.375,172.6953 Q1230.6094,172.9531 1230.6094,173.5625 L1230.6094,175.0156 Q1230.6094,175.625 1230.375,175.8906 Q1230.1406,176.1563 1229.7656,176.1563 Q1229.4219,176.1563 1229.2188,175.9531 Q1229.0156,175.7656 1228.9063,175.25 Q1228.8594,174.8906 1228.6719,174.7031 Q1228.3438,174.3281 1227.7344,174.1094 Q1227.125,173.8906 1226.5,173.8906 Q1225.7344,173.8906 1225.1016,174.2188 Q1224.4688,174.5469 1223.9766,175.2969 Q1223.4844,176.0469 1223.4844,177.0781 L1223.4844,178.1719 Q1223.4844,179.4063 1224.375,180.2266 Q1225.2656,181.0469 1226.8594,181.0469 Q1227.7969,181.0469 1228.4531,180.7969 Q1228.8438,180.6406 1229.2656,180.2031 Q1229.5313,179.9375 1229.6797,179.8594 Q1229.8281,179.7813 1230.0313,179.7813 Q1230.3594,179.7813 1230.6172,180.0391 Q1230.875,180.2969 1230.875,180.6406 Q1230.875,180.9844 1230.5313,181.3906 Q1230.0313,181.9688 1229.2344,182.2969 Q1228.1563,182.75 1226.8594,182.75 Q1225.3438,182.75 1224.1406,182.125 Q1223.1563,181.625 1222.4688,180.5547 Q1221.7813,179.4844 1221.7813,178.2031 L1221.7813,177.0469 Q1221.7813,175.7188 1222.3984,174.5703 Q1223.0156,173.4219 1224.1094,172.8047 Q1225.2031,172.1875 1226.4375,172.1875 Q1227.1719,172.1875 1227.8203,172.3516 Q1228.4688,172.5156 1229.0156,172.875 Z " /><text fill="#000000" font-family="sans-serif" font-size="12" lengthAdjust="spacingAndGlyphs" textLength="41" x="1246.75" y="181.9102">Courier</text>
        <line style="stroke: #A80036; stroke-width: 1.5;" x1="1139" x2="1363" y1="193" y2="193" />
        <rect fill="none" height="6" style="stroke: #C82930; stroke-width: 1.0;" width="6" x="1146" y="202.418" /><text fill="#000000" font-family="sans-serif" font-size="11" lengthAdjust="spacingAndGlyphs" textLength="57" x="1158" y="208.4189">String name</text>
        <rect fill="none" height="6" style="stroke: #C82930; stroke-width: 1.0;" width="6" x="1146" y="216.2539" /><text fill="#000000" font-family="sans-serif" font-size="11" lengthAdjust="spacingAndGlyphs" textLength="46" x="1158" y="222.2549">String NIF</text>
        <rect fill="none" height="6" style="stroke: #C82930; stroke-width: 1.0;" width="6" x="1146" y="230.0898" /><text fill="#000000" font-family="sans-serif" font-size="11" lengthAdjust="spacingAndGlyphs" textLength="77" x="1158" y="236.0908">String cellphone</text>
        <rect fill="none" height="6" style="stroke: #C82930; stroke-width: 1.0;" width="6" x="1146" y="243.9258" /><text fill="#000000" font-family="sans-serif" font-size="11" lengthAdjust="spacingAndGlyphs" textLength="55" x="1158" y="249.9268">String email</text>
        <line style="stroke: #A80036; stroke-width: 1.5;" x1="1139" x2="1363" y1="256.3438" y2="256.3438" />
        <ellipse cx="1149" cy="268.7617" fill="#84BE84" rx="3" ry="3" style="stroke: #038048; stroke-width: 1.0;" /><text fill="#000000" font-family="sans-serif" font-size="11" lengthAdjust="spacingAndGlyphs" textLength="200" x="1158" y="271.7627">createCourier(name, NIF,cellphone, email)</text>
        <!--class CourierRegister-->
        <rect fill="#FEFECE" filter="url(#f1glrebkf79ym)" height="117.1797" id="CourierRegister" style="stroke: #A80036; stroke-width: 1.5;" width="229" x="765" y="161" />
        <ellipse cx="831.25" cy="177" fill="#ADD1B2" rx="11" ry="11" style="stroke: #A80036; stroke-width: 1.0;" />
        <path d="M834.0156,172.875 Q834.1719,172.6563 834.3594,172.5469 Q834.5469,172.4375 834.7656,172.4375 Q835.1406,172.4375 835.375,172.6953 Q835.6094,172.9531 835.6094,173.5625 L835.6094,175.0156 Q835.6094,175.625 835.375,175.8906 Q835.1406,176.1563 834.7656,176.1563 Q834.4219,176.1563 834.2188,175.9531 Q834.0156,175.7656 833.9063,175.25 Q833.8594,174.8906 833.6719,174.7031 Q833.3438,174.3281 832.7344,174.1094 Q832.125,173.8906 831.5,173.8906 Q830.7344,173.8906 830.1016,174.2188 Q829.4688,174.5469 828.9766,175.2969 Q828.4844,176.0469 828.4844,177.0781 L828.4844,178.1719 Q828.4844,179.4063 829.375,180.2266 Q830.2656,181.0469 831.8594,181.0469 Q832.7969,181.0469 833.4531,180.7969 Q833.8438,180.6406 834.2656,180.2031 Q834.5313,179.9375 834.6797,179.8594 Q834.8281,179.7813 835.0313,179.7813 Q835.3594,179.7813 835.6172,180.0391 Q835.875,180.2969 835.875,180.6406 Q835.875,180.9844 835.5313,181.3906 Q835.0313,181.9688 834.2344,182.2969 Q833.1563,182.75 831.8594,182.75 Q830.3438,182.75 829.1406,182.125 Q828.1563,181.625 827.4688,180.5547 Q826.7813,179.4844 826.7813,178.2031 L826.7813,177.0469 Q826.7813,175.7188 827.3984,174.5703 Q828.0156,173.4219 829.1094,172.8047 Q830.2031,172.1875 831.4375,172.1875 Q832.1719,172.1875 832.8203,172.3516 Q833.4688,172.5156 834.0156,172.875 Z " /><text fill="#000000" font-family="sans-serif" font-size="12" lengthAdjust="spacingAndGlyphs" textLength="88" x="851.75" y="181.9102">CourierRegister</text>
        <line style="stroke: #A80036; stroke-width: 1.5;" x1="766" x2="993" y1="193" y2="193" />
        <rect fill="none" height="6" style="stroke: #C82930; stroke-width: 1.0;" width="6" x="773" y="202.418" /><text fill="#000000" font-family="sans-serif" font-size="11" lengthAdjust="spacingAndGlyphs" textLength="146" x="785" y="208.4189">list&lt;Organization&gt; lst_couriers</text>
        <line style="stroke: #A80036; stroke-width: 1.5;" x1="766" x2="993" y1="214.8359" y2="214.8359" />
        <ellipse cx="776" cy="227.2539" fill="#84BE84" rx="3" ry="3" style="stroke: #038048; stroke-width: 1.0;" /><text fill="#000000" font-family="sans-serif" font-size="11" lengthAdjust="spacingAndGlyphs" textLength="203" x="785" y="230.2549">createCourier(name, NIF, cellphone, email)</text>
        <ellipse cx="776" cy="241.0898" fill="#84BE84" rx="3" ry="3" style="stroke: #038048; stroke-width: 1.0;" /><text fill="#000000" font-family="sans-serif" font-size="11" lengthAdjust="spacingAndGlyphs" textLength="142" x="785" y="244.0908">registerCourier(courier, pwd)</text>
        <rect fill="#F24D5C" height="6" style="stroke: #C82930; stroke-width: 1.0;" width="6" x="773" y="251.9258" /><text fill="#000000" font-family="sans-serif" font-size="11" lengthAdjust="spacingAndGlyphs" textLength="142" x="785" y="257.9268">validateCourier(courier, pwd)</text>
        <rect fill="#F24D5C" height="6" style="stroke: #C82930; stroke-width: 1.0;" width="6" x="773" y="265.7617" /><text fill="#000000" font-family="sans-serif" font-size="11" lengthAdjust="spacingAndGlyphs" textLength="95" x="785" y="271.7627">addCourier(courier)</text>
        <!--link RegisterCourierUI to RegistrationController-->
        <path d="M138.15,157.5 C155.41,157.5 174.56,157.5 193.6,157.5 " fill="none" id="RegisterCourierUI-RegisterCourierController" style="stroke: #A80036; stroke-width: 1.0; stroke-dasharray: 7.0,7.0;" />
        <polygon fill="#A80036" points="198.97,157.5,189.97,153.5,193.97,157.5,189.97,161.5,198.97,157.5" style="stroke: #A80036; stroke-width: 1.0;" />
        <!--link RegistrationController to ApplicationEM-->
        <path d="M402.54,119.46 C432.83,107 466.28,93.25 495.91,81.07 " fill="none" id="RegisterCourierController-ApplicationEM" style="stroke: #A80036; stroke-width: 1.0; stroke-dasharray: 7.0,7.0;" />
        <polygon fill="#A80036" points="500.63,79.13,490.7852,78.8473,496.0045,81.0287,493.8232,86.2481,500.63,79.13" style="stroke: #A80036; stroke-width: 1.0;" />
        <!--link RegistrationController to Platform-->
        <path d="M419.04,157.5 C437.37,157.5 456.36,157.5 474.59,157.5 " fill="none" id="RegisterCourierController-Platform" style="stroke: #A80036; stroke-width: 1.0; stroke-dasharray: 7.0,7.0;" />
        <polygon fill="#A80036" points="479.72,157.5,470.72,153.5,474.72,157.5,470.72,161.5,479.72,157.5" style="stroke: #A80036; stroke-width: 1.0;" />
        <!--link RegistrationController to CourierRegister-->
        <path d="M410.81,195.51 C433.28,202.45 457.2,208.7 480,212.5 C573,228.01 679.89,228.99 759.55,226.52 " fill="none" id="RegisterCourierController-CourierRegister" style="stroke: #A80036; stroke-width: 1.0; stroke-dasharray: 7.0,7.0;" />
        <polygon fill="#A80036" points="764.75,226.35,755.6288,222.6347,759.7525,226.5071,755.8801,230.6307,764.75,226.35" style="stroke: #A80036; stroke-width: 1.0;" />
        <!--link CourierRegister to Courier-->
        <path d="M994.13,219.5 C1038.14,219.5 1088.5,219.5 1132.84,219.5 " fill="none" id="CourierRegister-Courier" style="stroke: #A80036; stroke-width: 1.0;" />
        <polygon fill="#A80036" points="1137.94,219.5,1128.94,215.5,1132.94,219.5,1128.94,223.5,1137.94,219.5" style="stroke: #A80036; stroke-width: 1.0;" /><text fill="#000000" font-family="sans-serif" font-size="13" lengthAdjust="spacingAndGlyphs" textLength="82" x="1025" y="215.9951">has registered</text><text fill="#000000" font-family="sans-serif" font-size="13" lengthAdjust="spacingAndGlyphs" textLength="7" x="1002.0669" y="233.5384">1</text><text fill="#000000" font-family="sans-serif" font-size="13" lengthAdjust="spacingAndGlyphs" textLength="5" x="1125.1758" y="233.5384">*</text>
        <!--link Platform to CourierRegister-->
        <path d="M682.38,178.49 C707.27,183.69 734.17,189.32 759.84,194.69 " fill="none" id="Platform-CourierRegister" style="stroke: #A80036; stroke-width: 1.0; stroke-dasharray: 7.0,7.0;" />
        <polygon fill="#A80036" points="764.95,195.76,756.9637,189.9964,760.0566,194.7328,755.3202,197.8258,764.95,195.76" style="stroke: #A80036; stroke-width: 1.0;" /><text fill="#000000" font-family="sans-serif" font-size="13" lengthAdjust="spacingAndGlyphs" textLength="21" x="713" y="181.9951">has</text><text fill="#000000" font-family="sans-serif" font-size="13" lengthAdjust="spacingAndGlyphs" textLength="7" x="690.0821" y="194.139">1</text><text fill="#000000" font-family="sans-serif" font-size="13" lengthAdjust="spacingAndGlyphs" textLength="7" x="750.0185" y="208.2034">1</text>
        <!--
@startuml

left to right direction

class RegisterCourierUI {
}

class RegistrationController {
    +newCourier(name, NIF, email, cellphone)
    +registerCourier()
}

class ApplicationEM {
+{static} ApplicationEM getInstance()
+Platform getPlatform()
}

class Platform {
  -String designation
 +CourierRegister getCourierRegister()
}

class Courier{
  -String name
  -String NIF
  -String cellphone
  -String email
  +createCourier(name, NIF,cellphone, email)
}


class CourierRegister {
    -list<Organization> lst_couriers
    +createCourier(name, NIF, cellphone, email)
    +registerCourier(courier, pwd)
    -validateCourier(courier, pwd)
    -addCourier(courier)
}


RegisterCourierUI ..> RegistrationController
RegistrationController ..> ApplicationEM
RegistrationController ..> Platform
RegistrationController ..> CourierRegister
CourierRegister "1" - -> "*" Courier: has registered
Platform "1" ..> "1" CourierRegister: has

@enduml

PlantUML version 1.2018.14(Fri Dec 21 16:33:16 GMT 2018)
(GPL source distribution)
Java Runtime: Java(TM) SE Runtime Environment
JVM: Java HotSpot(TM) 64-Bit Server VM
Java Version: 1.8.0_271-b09
Operating System: Windows 10
OS Version: 10.0
Default Encoding: Cp1252
Language: en
Country: US
-->
    </g>
</svg>