<?xml version="1.0" encoding="UTF-8" standalone="no"?><svg xmlns="http://www.w3.org/2000/svg" xmlns:xlink="http://www.w3.org/1999/xlink" contentScriptType="application/ecmascript" contentStyleType="text/css" height="881.4px" preserveAspectRatio="none" style="width:1018px;height:881px;" version="1.1" viewBox="0 0 1018 881" width="1018.8px" zoomAndPan="magnify"><defs><filter height="300%" id="fwj01dulby71x" width="300%" x="-1" y="-1"><feGaussianBlur result="blurOut" stdDeviation="1.2"/><feColorMatrix in="blurOut" result="blurOut2" type="matrix" values="0 0 0 0 0 0 0 0 0 0 0 0 0 0 0 0 0 0 .4 0"/><feOffset dx="2.4" dy="2.4" in="blurOut2" result="blurOut3"/><feBlend in="SourceGraphic" in2="blurOut3" mode="normal"/></filter></defs><g><!--MD5=[0b4e4b4980470ea387cc45de9bd14b5b]
class Application--><rect codeLine="4" fill="#FEFECE" filter="url(#fwj01dulby71x)" height="24" id="Application" style="stroke:#A80036;stroke-width:0.8999999999999999;" width="55.2" x="4.2" y="436.326"/><ellipse cx="13.2" cy="445.926" fill="#ADD1B2" rx="6.6" ry="6.6" style="stroke:#A80036;stroke-width:0.6;"/><path d="M14.4,443.826 Q14.5219,443.526 14.6625,443.376 Q14.8031,443.226 14.9625,443.226 Q15.2437,443.226 15.4219,443.3948 Q15.6,443.5635 15.6,443.9573 L15.6,444.8948 Q15.6,445.2885 15.4312,445.4573 Q15.2625,445.626 15,445.626 Q14.7656,445.626 14.6156,445.5229 Q14.4656,445.4198 14.4,445.1479 Q14.3719,444.9604 14.2687,444.8573 Q14.0812,444.6604 13.7438,444.5479 Q13.4063,444.426 13.0688,444.426 Q12.6469,444.426 12.2906,444.5948 Q11.9438,444.7635 11.6719,445.1385 Q11.4,445.5135 11.4,446.0291 L11.4,446.5823 Q11.4,447.201 11.9063,447.6135 Q12.4125,448.026 13.3125,448.026 Q13.8469,448.026 14.2219,447.9041 Q14.4375,447.8385 14.6812,447.6229 Q14.8406,447.501 14.925,447.4635 Q15.0094,447.426 15.1125,447.426 Q15.3094,447.426 15.45,447.5854 Q15.6,447.7354 15.6,447.951 Q15.6,448.1573 15.3937,448.401 Q15.0938,448.7573 14.6156,448.9541 Q13.9875,449.226 13.2188,449.226 Q12.3188,449.226 11.5969,448.8698 Q11.0156,448.5885 10.6031,447.9791 Q10.2,447.3698 10.2,446.6479 L10.2,445.9916 Q10.2,445.2416 10.5563,444.5854 Q10.9219,443.9291 11.55,443.5823 Q12.1875,443.226 12.9,443.226 Q13.3312,443.226 13.7062,443.376 Q14.0812,443.526 14.4,443.826 Z " fill="#000000"/><text fill="#000000" font-family="sans-serif" font-size="7.2" lengthAdjust="spacingAndGlyphs" textLength="36" x="21.6" y="448.8721">Application</text><line style="stroke:#A80036;stroke-width:0.8999999999999999;" x1="4.8" x2="58.8" y1="455.526" y2="455.526"/><!--MD5=[da547346deef918ea16944ba046651ef]
class Administrator--><rect codeLine="6" fill="#FEFECE" filter="url(#fwj01dulby71x)" height="57.2063" id="Administrator" style="stroke:#A80036;stroke-width:0.8999999999999999;" width="73.8" x="117" y="605.826"/><ellipse cx="130.86" cy="615.426" fill="#ADD1B2" rx="6.6" ry="6.6" style="stroke:#A80036;stroke-width:0.6;"/><path d="M132.06,613.326 Q132.1819,613.026 132.3225,612.876 Q132.4631,612.726 132.6225,612.726 Q132.9038,612.726 133.0819,612.8948 Q133.26,613.0635 133.26,613.4573 L133.26,614.3948 Q133.26,614.7885 133.0913,614.9573 Q132.9225,615.126 132.66,615.126 Q132.4256,615.126 132.2756,615.0229 Q132.1256,614.9198 132.06,614.6479 Q132.0319,614.4604 131.9287,614.3573 Q131.7412,614.1604 131.4038,614.0479 Q131.0663,613.926 130.7288,613.926 Q130.3069,613.926 129.9506,614.0948 Q129.6038,614.2635 129.3319,614.6385 Q129.06,615.0135 129.06,615.5291 L129.06,616.0823 Q129.06,616.701 129.5663,617.1135 Q130.0725,617.526 130.9725,617.526 Q131.5069,617.526 131.8819,617.4041 Q132.0975,617.3385 132.3413,617.1229 Q132.5006,617.001 132.585,616.9635 Q132.6694,616.926 132.7725,616.926 Q132.9694,616.926 133.11,617.0854 Q133.26,617.2354 133.26,617.451 Q133.26,617.6573 133.0537,617.901 Q132.7538,618.2573 132.2756,618.4541 Q131.6475,618.726 130.8788,618.726 Q129.9788,618.726 129.2569,618.3698 Q128.6756,618.0885 128.2631,617.4791 Q127.86,616.8698 127.86,616.1479 L127.86,615.4916 Q127.86,614.7416 128.2163,614.0854 Q128.5819,613.4291 129.21,613.0823 Q129.8475,612.726 130.56,612.726 Q130.9912,612.726 131.3662,612.876 Q131.7412,613.026 132.06,613.326 Z " fill="#000000"/><text fill="#000000" font-family="sans-serif" font-size="7.2" lengthAdjust="spacingAndGlyphs" textLength="43.8" x="140.34" y="618.3721">Administrator</text><line style="stroke:#A80036;stroke-width:0.8999999999999999;" x1="117.6" x2="190.2" y1="625.026" y2="625.026"/><rect fill="none" height="3.6" style="stroke:#C82930;stroke-width:0.6;" width="3.6" x="121.8" y="629.826"/><text fill="#000000" font-family="sans-serif" font-size="6.6" lengthAdjust="spacingAndGlyphs" textLength="26.4" x="129" y="634.2774">Integer id</text><rect fill="none" height="3.6" style="stroke:#C82930;stroke-width:0.6;" width="3.6" x="121.8" y="638.1276"/><text fill="#000000" font-family="sans-serif" font-size="6.6" lengthAdjust="spacingAndGlyphs" textLength="34.2" x="129" y="642.5789">String name</text><rect fill="none" height="3.6" style="stroke:#C82930;stroke-width:0.6;" width="3.6" x="121.8" y="646.4291"/><text fill="#000000" font-family="sans-serif" font-size="6.6" lengthAdjust="spacingAndGlyphs" textLength="58.2" x="129" y="650.8805">String emailAddress</text><rect fill="none" height="3.6" style="stroke:#C82930;stroke-width:0.6;" width="3.6" x="121.8" y="654.7307"/><text fill="#000000" font-family="sans-serif" font-size="6.6" lengthAdjust="spacingAndGlyphs" textLength="48.6" x="129" y="659.1821">String password</text><!--MD5=[3fd616f346a44cd59a91eb10b19e157c]
class User--><rect codeLine="13" fill="#FEFECE" filter="url(#fwj01dulby71x)" height="57.2063" id="User" style="stroke:#A80036;stroke-width:0.8999999999999999;" width="73.8" x="596.4" y="512.226"/><ellipse cx="622.68" cy="521.826" fill="#ADD1B2" rx="6.6" ry="6.6" style="stroke:#A80036;stroke-width:0.6;"/><path d="M623.88,519.726 Q624.0019,519.426 624.1425,519.276 Q624.2831,519.126 624.4425,519.126 Q624.7238,519.126 624.9019,519.2948 Q625.08,519.4635 625.08,519.8573 L625.08,520.7948 Q625.08,521.1885 624.9113,521.3573 Q624.7425,521.526 624.48,521.526 Q624.2456,521.526 624.0956,521.4229 Q623.9456,521.3198 623.88,521.0479 Q623.8519,520.8604 623.7488,520.7573 Q623.5613,520.5604 623.2238,520.4479 Q622.8862,520.326 622.5487,520.326 Q622.1269,520.326 621.7706,520.4948 Q621.4237,520.6635 621.1519,521.0385 Q620.88,521.4135 620.88,521.9291 L620.88,522.4823 Q620.88,523.101 621.3862,523.5135 Q621.8925,523.926 622.7925,523.926 Q623.3269,523.926 623.7019,523.8041 Q623.9175,523.7385 624.1613,523.5229 Q624.3206,523.401 624.405,523.3635 Q624.4894,523.326 624.5925,523.326 Q624.7894,523.326 624.93,523.4854 Q625.08,523.6354 625.08,523.851 Q625.08,524.0573 624.8738,524.301 Q624.5737,524.6573 624.0956,524.8541 Q623.4675,525.126 622.6987,525.126 Q621.7987,525.126 621.0769,524.7698 Q620.4956,524.4885 620.0831,523.8791 Q619.68,523.2698 619.68,522.5479 L619.68,521.8916 Q619.68,521.1416 620.0363,520.4854 Q620.4019,519.8291 621.03,519.4823 Q621.6675,519.126 622.38,519.126 Q622.8113,519.126 623.1863,519.276 Q623.5613,519.426 623.88,519.726 Z " fill="#000000"/><text fill="#000000" font-family="sans-serif" font-size="7.2" lengthAdjust="spacingAndGlyphs" textLength="16.2" x="634.92" y="524.7721">User</text><line style="stroke:#A80036;stroke-width:0.8999999999999999;" x1="597" x2="669.6" y1="531.426" y2="531.426"/><rect fill="none" height="3.6" style="stroke:#C82930;stroke-width:0.6;" width="3.6" x="601.2" y="536.226"/><text fill="#000000" font-family="sans-serif" font-size="6.6" lengthAdjust="spacingAndGlyphs" textLength="26.4" x="608.4" y="540.6774">Integer id</text><rect fill="none" height="3.6" style="stroke:#C82930;stroke-width:0.6;" width="3.6" x="601.2" y="544.5276"/><text fill="#000000" font-family="sans-serif" font-size="6.6" lengthAdjust="spacingAndGlyphs" textLength="34.2" x="608.4" y="548.9789">String name</text><rect fill="none" height="3.6" style="stroke:#C82930;stroke-width:0.6;" width="3.6" x="601.2" y="552.8291"/><text fill="#000000" font-family="sans-serif" font-size="6.6" lengthAdjust="spacingAndGlyphs" textLength="58.2" x="608.4" y="557.2805">String emailAddress</text><rect fill="none" height="3.6" style="stroke:#C82930;stroke-width:0.6;" width="3.6" x="601.2" y="561.1307"/><text fill="#000000" font-family="sans-serif" font-size="6.6" lengthAdjust="spacingAndGlyphs" textLength="48.6" x="608.4" y="565.5821">String password</text><!--MD5=[ed6624c6556d5e7b1bd23032162d20b7]
class Client--><rect codeLine="20" fill="#FEFECE" filter="url(#fwj01dulby71x)" height="82.1109" id="Client" style="stroke:#A80036;stroke-width:0.8999999999999999;" width="86.4" x="425.1" y="268.626"/><ellipse cx="456.15" cy="278.226" fill="#ADD1B2" rx="6.6" ry="6.6" style="stroke:#A80036;stroke-width:0.6;"/><path d="M457.35,276.126 Q457.4719,275.826 457.6125,275.676 Q457.7531,275.526 457.9125,275.526 Q458.1937,275.526 458.3719,275.6948 Q458.55,275.8635 458.55,276.2573 L458.55,277.1948 Q458.55,277.5885 458.3812,277.7573 Q458.2125,277.926 457.95,277.926 Q457.7156,277.926 457.5656,277.8229 Q457.4156,277.7198 457.35,277.4479 Q457.3219,277.2604 457.2188,277.1573 Q457.0313,276.9604 456.6937,276.8479 Q456.3563,276.726 456.0188,276.726 Q455.5969,276.726 455.2406,276.8948 Q454.8938,277.0635 454.6219,277.4385 Q454.35,277.8135 454.35,278.3291 L454.35,278.8823 Q454.35,279.501 454.8563,279.9135 Q455.3625,280.326 456.2625,280.326 Q456.7969,280.326 457.1719,280.2041 Q457.3875,280.1385 457.6312,279.9229 Q457.7906,279.801 457.875,279.7635 Q457.9594,279.726 458.0625,279.726 Q458.2594,279.726 458.4,279.8854 Q458.55,280.0354 458.55,280.251 Q458.55,280.4573 458.3438,280.701 Q458.0438,281.0573 457.5656,281.2541 Q456.9375,281.526 456.1688,281.526 Q455.2688,281.526 454.5469,281.1698 Q453.9656,280.8885 453.5531,280.2791 Q453.15,279.6698 453.15,278.9479 L453.15,278.2916 Q453.15,277.5416 453.5062,276.8854 Q453.8719,276.2291 454.5,275.8823 Q455.1375,275.526 455.85,275.526 Q456.2813,275.526 456.6563,275.676 Q457.0313,275.826 457.35,276.126 Z " fill="#000000"/><text fill="#000000" font-family="sans-serif" font-size="7.2" lengthAdjust="spacingAndGlyphs" textLength="19.2" x="468.45" y="281.1721">Client</text><line style="stroke:#A80036;stroke-width:0.8999999999999999;" x1="425.7" x2="510.9" y1="287.826" y2="287.826"/><rect fill="none" height="3.6" style="stroke:#C82930;stroke-width:0.6;" width="3.6" x="429.9" y="292.626"/><text fill="#000000" font-family="sans-serif" font-size="6.6" lengthAdjust="spacingAndGlyphs" textLength="26.4" x="437.1" y="297.0774">Integer id</text><rect fill="none" height="3.6" style="stroke:#C82930;stroke-width:0.6;" width="3.6" x="429.9" y="300.9276"/><text fill="#000000" font-family="sans-serif" font-size="6.6" lengthAdjust="spacingAndGlyphs" textLength="34.2" x="437.1" y="305.3789">String name</text><rect fill="none" height="3.6" style="stroke:#C82930;stroke-width:0.6;" width="3.6" x="429.9" y="309.2291"/><text fill="#000000" font-family="sans-serif" font-size="6.6" lengthAdjust="spacingAndGlyphs" textLength="58.2" x="437.1" y="313.6805">String emailAddress</text><rect fill="none" height="3.6" style="stroke:#C82930;stroke-width:0.6;" width="3.6" x="429.9" y="317.5307"/><text fill="#000000" font-family="sans-serif" font-size="6.6" lengthAdjust="spacingAndGlyphs" textLength="48.6" x="437.1" y="321.9821">String password</text><rect fill="none" height="3.6" style="stroke:#C82930;stroke-width:0.6;" width="3.6" x="429.9" y="325.8323"/><text fill="#000000" font-family="sans-serif" font-size="6.6" lengthAdjust="spacingAndGlyphs" textLength="46.2" x="437.1" y="330.2836">String cellphone</text><rect fill="none" height="3.6" style="stroke:#C82930;stroke-width:0.6;" width="3.6" x="429.9" y="334.1338"/><text fill="#000000" font-family="sans-serif" font-size="6.6" lengthAdjust="spacingAndGlyphs" textLength="28.8" x="437.1" y="338.5852">Integer nif</text><rect fill="none" height="3.6" style="stroke:#C82930;stroke-width:0.6;" width="3.6" x="429.9" y="342.4354"/><text fill="#000000" font-family="sans-serif" font-size="6.6" lengthAdjust="spacingAndGlyphs" textLength="70.8" x="437.1" y="346.8867">Integer numberOfCredits</text><!--MD5=[91d4151b6d4c9a3d01b6d84b2458eece]
class CreditCard--><rect codeLine="30" fill="#FEFECE" filter="url(#fwj01dulby71x)" height="57.2063" id="CreditCard" style="stroke:#A80036;stroke-width:0.8999999999999999;" width="69.6" x="598.5" y="269.226"/><ellipse cx="613.98" cy="278.826" fill="#ADD1B2" rx="6.6" ry="6.6" style="stroke:#A80036;stroke-width:0.6;"/><path d="M615.18,276.726 Q615.3019,276.426 615.4425,276.276 Q615.5831,276.126 615.7425,276.126 Q616.0238,276.126 616.2019,276.2948 Q616.38,276.4635 616.38,276.8573 L616.38,277.7948 Q616.38,278.1885 616.2113,278.3573 Q616.0425,278.526 615.78,278.526 Q615.5456,278.526 615.3956,278.4229 Q615.2456,278.3198 615.18,278.0479 Q615.1519,277.8604 615.0487,277.7573 Q614.8612,277.5604 614.5238,277.4479 Q614.1863,277.326 613.8488,277.326 Q613.4269,277.326 613.0706,277.4948 Q612.7238,277.6635 612.4519,278.0385 Q612.18,278.4135 612.18,278.9291 L612.18,279.4823 Q612.18,280.101 612.6863,280.5135 Q613.1925,280.926 614.0925,280.926 Q614.6269,280.926 615.0019,280.8041 Q615.2175,280.7385 615.4613,280.5229 Q615.6206,280.401 615.705,280.3635 Q615.7894,280.326 615.8925,280.326 Q616.0894,280.326 616.23,280.4854 Q616.38,280.6354 616.38,280.851 Q616.38,281.0573 616.1737,281.301 Q615.8738,281.6573 615.3956,281.8541 Q614.7675,282.126 613.9988,282.126 Q613.0988,282.126 612.3769,281.7698 Q611.7956,281.4885 611.3831,280.8791 Q610.98,280.2698 610.98,279.5479 L610.98,278.8916 Q610.98,278.1416 611.3363,277.4854 Q611.7019,276.8291 612.33,276.4823 Q612.9675,276.126 613.68,276.126 Q614.1112,276.126 614.4862,276.276 Q614.8612,276.426 615.18,276.726 Z " fill="#000000"/><text fill="#000000" font-family="sans-serif" font-size="7.2" lengthAdjust="spacingAndGlyphs" textLength="36" x="623.82" y="281.7721">CreditCard</text><line style="stroke:#A80036;stroke-width:0.8999999999999999;" x1="599.1" x2="667.5" y1="288.426" y2="288.426"/><rect fill="none" height="3.6" style="stroke:#C82930;stroke-width:0.6;" width="3.6" x="603.3" y="293.226"/><text fill="#000000" font-family="sans-serif" font-size="6.6" lengthAdjust="spacingAndGlyphs" textLength="54" x="610.5" y="297.6774">String cardNumber</text><rect fill="none" height="3.6" style="stroke:#C82930;stroke-width:0.6;" width="3.6" x="603.3" y="301.5276"/><text fill="#000000" font-family="sans-serif" font-size="6.6" lengthAdjust="spacingAndGlyphs" textLength="54" x="610.5" y="305.9789">String ownerName</text><rect fill="none" height="3.6" style="stroke:#C82930;stroke-width:0.6;" width="3.6" x="603.3" y="309.8291"/><text fill="#000000" font-family="sans-serif" font-size="6.6" lengthAdjust="spacingAndGlyphs" textLength="29.4" x="610.5" y="314.2805">String csv</text><rect fill="none" height="3.6" style="stroke:#C82930;stroke-width:0.6;" width="3.6" x="603.3" y="318.1307"/><text fill="#000000" font-family="sans-serif" font-size="6.6" lengthAdjust="spacingAndGlyphs" textLength="46.2" x="610.5" y="322.5821">Date expireDate</text><!--MD5=[53bbdc0f6cbae1c7bb2b6e39cd4e62f5]
class Credits--><rect codeLine="37" fill="#FEFECE" filter="url(#fwj01dulby71x)" height="48.9047" id="Credits" style="stroke:#A80036;stroke-width:0.8999999999999999;" width="87" x="752.7" y="346.326"/><ellipse cx="781.65" cy="355.926" fill="#ADD1B2" rx="6.6" ry="6.6" style="stroke:#A80036;stroke-width:0.6;"/><path d="M782.85,353.826 Q782.9719,353.526 783.1125,353.376 Q783.2531,353.226 783.4125,353.226 Q783.6938,353.226 783.8719,353.3948 Q784.05,353.5635 784.05,353.9573 L784.05,354.8948 Q784.05,355.2885 783.8813,355.4573 Q783.7125,355.626 783.45,355.626 Q783.2156,355.626 783.0656,355.5229 Q782.9156,355.4198 782.85,355.1479 Q782.8219,354.9604 782.7188,354.8573 Q782.5313,354.6604 782.1938,354.5479 Q781.8562,354.426 781.5188,354.426 Q781.0969,354.426 780.7406,354.5948 Q780.3938,354.7635 780.1219,355.1385 Q779.85,355.5135 779.85,356.0291 L779.85,356.5823 Q779.85,357.201 780.3562,357.6135 Q780.8625,358.026 781.7625,358.026 Q782.2969,358.026 782.6719,357.9041 Q782.8875,357.8385 783.1313,357.6229 Q783.2906,357.501 783.375,357.4635 Q783.4594,357.426 783.5625,357.426 Q783.7594,357.426 783.9,357.5854 Q784.05,357.7354 784.05,357.951 Q784.05,358.1573 783.8438,358.401 Q783.5437,358.7573 783.0656,358.9541 Q782.4375,359.226 781.6687,359.226 Q780.7688,359.226 780.0469,358.8698 Q779.4656,358.5885 779.0531,357.9791 Q778.65,357.3698 778.65,356.6479 L778.65,355.9916 Q778.65,355.2416 779.0063,354.5854 Q779.3719,353.9291 780,353.5823 Q780.6375,353.226 781.35,353.226 Q781.7813,353.226 782.1563,353.376 Q782.5313,353.526 782.85,353.826 Z " fill="#000000"/><text fill="#000000" font-family="sans-serif" font-size="7.2" lengthAdjust="spacingAndGlyphs" textLength="24" x="793.95" y="358.8721">Credits</text><line style="stroke:#A80036;stroke-width:0.8999999999999999;" x1="753.3" x2="839.1" y1="365.526" y2="365.526"/><rect fill="none" height="3.6" style="stroke:#C82930;stroke-width:0.6;" width="3.6" x="757.5" y="370.326"/><text fill="#000000" font-family="sans-serif" font-size="6.6" lengthAdjust="spacingAndGlyphs" textLength="26.4" x="764.7" y="374.7774">Integer id</text><rect fill="none" height="3.6" style="stroke:#C82930;stroke-width:0.6;" width="3.6" x="757.5" y="378.6276"/><text fill="#000000" font-family="sans-serif" font-size="6.6" lengthAdjust="spacingAndGlyphs" textLength="70.8" x="764.7" y="383.0789">Integer numberOfCredits</text><rect fill="none" height="3.6" style="stroke:#C82930;stroke-width:0.6;" width="3.6" x="757.5" y="386.9291"/><text fill="#000000" font-family="sans-serif" font-size="6.6" lengthAdjust="spacingAndGlyphs" textLength="71.4" x="764.7" y="391.3805">Double ratioEuroToCredit</text><!--MD5=[cf4d6237fcae255cd2e1656cf84a30e2]
class Order--><rect codeLine="43" fill="#FEFECE" filter="url(#fwj01dulby71x)" height="32.3016" id="Order" style="stroke:#A80036;stroke-width:0.8999999999999999;" width="42" x="612.3" y="442.926"/><ellipse cx="623.19" cy="452.526" fill="#ADD1B2" rx="6.6" ry="6.6" style="stroke:#A80036;stroke-width:0.6;"/><path d="M624.39,450.426 Q624.5119,450.126 624.6525,449.976 Q624.7931,449.826 624.9525,449.826 Q625.2338,449.826 625.4119,449.9948 Q625.59,450.1635 625.59,450.5573 L625.59,451.4948 Q625.59,451.8885 625.4213,452.0573 Q625.2525,452.226 624.99,452.226 Q624.7556,452.226 624.6056,452.1229 Q624.4556,452.0198 624.39,451.7479 Q624.3619,451.5604 624.2588,451.4573 Q624.0713,451.2604 623.7338,451.1479 Q623.3963,451.026 623.0588,451.026 Q622.6369,451.026 622.2806,451.1948 Q621.9338,451.3635 621.6619,451.7385 Q621.39,452.1135 621.39,452.6291 L621.39,453.1823 Q621.39,453.801 621.8963,454.2135 Q622.4025,454.626 623.3025,454.626 Q623.8369,454.626 624.2119,454.5041 Q624.4275,454.4385 624.6713,454.2229 Q624.8306,454.101 624.915,454.0635 Q624.9994,454.026 625.1025,454.026 Q625.2994,454.026 625.44,454.1854 Q625.59,454.3354 625.59,454.551 Q625.59,454.7573 625.3838,455.001 Q625.0838,455.3573 624.6056,455.5541 Q623.9775,455.826 623.2088,455.826 Q622.3088,455.826 621.5869,455.4698 Q621.0056,455.1885 620.5931,454.5791 Q620.19,453.9698 620.19,453.2479 L620.19,452.5916 Q620.19,451.8416 620.5463,451.1854 Q620.9119,450.5291 621.54,450.1823 Q622.1775,449.826 622.89,449.826 Q623.3213,449.826 623.6963,449.976 Q624.0713,450.126 624.39,450.426 Z " fill="#000000"/><text fill="#000000" font-family="sans-serif" font-size="7.2" lengthAdjust="spacingAndGlyphs" textLength="18.6" x="632.01" y="455.4721">Order</text><line style="stroke:#A80036;stroke-width:0.8999999999999999;" x1="612.9" x2="653.7" y1="462.126" y2="462.126"/><rect fill="none" height="3.6" style="stroke:#C82930;stroke-width:0.6;" width="3.6" x="617.1" y="466.926"/><text fill="#000000" font-family="sans-serif" font-size="6.6" lengthAdjust="spacingAndGlyphs" textLength="26.4" x="624.3" y="471.3774">Integer id</text><!--MD5=[fff5db4abcb6eec6574b9ea9c3ee0eae]
class Delivery--><rect codeLine="47" fill="#FEFECE" filter="url(#fwj01dulby71x)" height="32.3016" id="Delivery" style="stroke:#A80036;stroke-width:0.8999999999999999;" width="45" x="773.7" y="543.126"/><ellipse cx="782.7" cy="552.726" fill="#ADD1B2" rx="6.6" ry="6.6" style="stroke:#A80036;stroke-width:0.6;"/><path d="M783.9,550.626 Q784.0219,550.326 784.1625,550.176 Q784.3031,550.026 784.4625,550.026 Q784.7438,550.026 784.9219,550.1948 Q785.1,550.3635 785.1,550.7573 L785.1,551.6948 Q785.1,552.0885 784.9313,552.2573 Q784.7625,552.426 784.5,552.426 Q784.2656,552.426 784.1156,552.3229 Q783.9656,552.2198 783.9,551.9479 Q783.8719,551.7604 783.7688,551.6573 Q783.5813,551.4604 783.2438,551.3479 Q782.9063,551.226 782.5688,551.226 Q782.1469,551.226 781.7906,551.3948 Q781.4438,551.5635 781.1719,551.9385 Q780.9,552.3135 780.9,552.8291 L780.9,553.3823 Q780.9,554.001 781.4063,554.4135 Q781.9125,554.826 782.8125,554.826 Q783.3469,554.826 783.7219,554.7041 Q783.9375,554.6385 784.1813,554.4229 Q784.3406,554.301 784.425,554.2635 Q784.5094,554.226 784.6125,554.226 Q784.8094,554.226 784.95,554.3854 Q785.1,554.5354 785.1,554.751 Q785.1,554.9573 784.8938,555.201 Q784.5938,555.5573 784.1156,555.7541 Q783.4875,556.026 782.7188,556.026 Q781.8188,556.026 781.0969,555.6698 Q780.5156,555.3885 780.1031,554.7791 Q779.7,554.1698 779.7,553.4479 L779.7,552.7916 Q779.7,552.0416 780.0563,551.3854 Q780.4219,550.7291 781.05,550.3823 Q781.6875,550.026 782.4,550.026 Q782.8313,550.026 783.2063,550.176 Q783.5813,550.326 783.9,550.626 Z " fill="#000000"/><text fill="#000000" font-family="sans-serif" font-size="7.2" lengthAdjust="spacingAndGlyphs" textLength="25.8" x="791.1" y="555.6721">Delivery</text><line style="stroke:#A80036;stroke-width:0.8999999999999999;" x1="774.3" x2="818.1" y1="562.326" y2="562.326"/><rect fill="none" height="3.6" style="stroke:#C82930;stroke-width:0.6;" width="3.6" x="778.5" y="567.126"/><text fill="#000000" font-family="sans-serif" font-size="6.6" lengthAdjust="spacingAndGlyphs" textLength="26.4" x="785.7" y="571.5774">Integer id</text><!--MD5=[2e3f1e60e74253ff42e47f8bfdb04ee2]
class Drone--><rect codeLine="51" fill="#FEFECE" filter="url(#fwj01dulby71x)" height="65.5078" id="Drone" style="stroke:#A80036;stroke-width:0.8999999999999999;" width="94.8" x="915.6" y="650.226"/><ellipse cx="950.25" cy="659.826" fill="#ADD1B2" rx="6.6" ry="6.6" style="stroke:#A80036;stroke-width:0.6;"/><path d="M951.45,657.726 Q951.5719,657.426 951.7125,657.276 Q951.8531,657.126 952.0125,657.126 Q952.2937,657.126 952.4719,657.2948 Q952.65,657.4635 952.65,657.8573 L952.65,658.7948 Q952.65,659.1885 952.4812,659.3573 Q952.3125,659.526 952.05,659.526 Q951.8156,659.526 951.6656,659.4229 Q951.5156,659.3198 951.45,659.0479 Q951.4219,658.8604 951.3187,658.7573 Q951.1312,658.5604 950.7937,658.4479 Q950.4563,658.326 950.1188,658.326 Q949.6969,658.326 949.3406,658.4948 Q948.9938,658.6635 948.7219,659.0385 Q948.45,659.4135 948.45,659.9291 L948.45,660.4823 Q948.45,661.101 948.9563,661.5135 Q949.4625,661.926 950.3625,661.926 Q950.8969,661.926 951.2719,661.8041 Q951.4875,661.7385 951.7312,661.5229 Q951.8906,661.401 951.975,661.3635 Q952.0594,661.326 952.1625,661.326 Q952.3594,661.326 952.5,661.4854 Q952.65,661.6354 952.65,661.851 Q952.65,662.0573 952.4437,662.301 Q952.1438,662.6573 951.6656,662.8541 Q951.0375,663.126 950.2688,663.126 Q949.3688,663.126 948.6469,662.7698 Q948.0656,662.4885 947.6531,661.8791 Q947.25,661.2698 947.25,660.5479 L947.25,659.8916 Q947.25,659.1416 947.6062,658.4854 Q947.9719,657.8291 948.6,657.4823 Q949.2375,657.126 949.95,657.126 Q950.3812,657.126 950.7562,657.276 Q951.1312,657.426 951.45,657.726 Z " fill="#000000"/><text fill="#000000" font-family="sans-serif" font-size="7.2" lengthAdjust="spacingAndGlyphs" textLength="20.4" x="962.55" y="662.7721">Drone</text><line style="stroke:#A80036;stroke-width:0.8999999999999999;" x1="916.2" x2="1009.8" y1="669.426" y2="669.426"/><rect fill="none" height="3.6" style="stroke:#C82930;stroke-width:0.6;" width="3.6" x="920.4" y="674.226"/><text fill="#000000" font-family="sans-serif" font-size="6.6" lengthAdjust="spacingAndGlyphs" textLength="26.4" x="927.6" y="678.6774">Integer id</text><rect fill="none" height="3.6" style="stroke:#C82930;stroke-width:0.6;" width="3.6" x="920.4" y="682.5276"/><text fill="#000000" font-family="sans-serif" font-size="6.6" lengthAdjust="spacingAndGlyphs" textLength="54.6" x="927.6" y="686.9789">Double batterySize</text><rect fill="none" height="3.6" style="stroke:#C82930;stroke-width:0.6;" width="3.6" x="920.4" y="690.8291"/><text fill="#000000" font-family="sans-serif" font-size="6.6" lengthAdjust="spacingAndGlyphs" textLength="63.6" x="927.6" y="695.2805">Double currentBattery</text><rect fill="none" height="3.6" style="stroke:#C82930;stroke-width:0.6;" width="3.6" x="920.4" y="699.1307"/><text fill="#000000" font-family="sans-serif" font-size="6.6" lengthAdjust="spacingAndGlyphs" textLength="79.2" x="927.6" y="703.5821">Double batteryConsumption</text><rect fill="none" height="3.6" style="stroke:#C82930;stroke-width:0.6;" width="3.6" x="920.4" y="707.4323"/><text fill="#000000" font-family="sans-serif" font-size="6.6" lengthAdjust="spacingAndGlyphs" textLength="31.2" x="927.6" y="711.8836">int payload</text><!--MD5=[a77781830b4eef1927aef37ad01ad2c2]
class Catalogue--><rect codeLine="59" fill="#FEFECE" filter="url(#fwj01dulby71x)" height="24" id="Catalogue" style="stroke:#A80036;stroke-width:0.8999999999999999;" width="53.4" x="208.8" y="114.726"/><ellipse cx="217.8" cy="124.326" fill="#ADD1B2" rx="6.6" ry="6.6" style="stroke:#A80036;stroke-width:0.6;"/><path d="M219,122.226 Q219.1219,121.926 219.2625,121.776 Q219.4031,121.626 219.5625,121.626 Q219.8438,121.626 220.0219,121.7948 Q220.2,121.9635 220.2,122.3573 L220.2,123.2948 Q220.2,123.6885 220.0313,123.8573 Q219.8625,124.026 219.6,124.026 Q219.3656,124.026 219.2156,123.9229 Q219.0656,123.8198 219,123.5479 Q218.9719,123.3604 218.8688,123.2573 Q218.6813,123.0604 218.3438,122.9479 Q218.0063,122.826 217.6688,122.826 Q217.2469,122.826 216.8906,122.9948 Q216.5438,123.1635 216.2719,123.5385 Q216,123.9135 216,124.4291 L216,124.9823 Q216,125.601 216.5063,126.0135 Q217.0125,126.426 217.9125,126.426 Q218.4469,126.426 218.8219,126.3041 Q219.0375,126.2385 219.2813,126.0229 Q219.4406,125.901 219.525,125.8635 Q219.6094,125.826 219.7125,125.826 Q219.9094,125.826 220.05,125.9854 Q220.2,126.1354 220.2,126.351 Q220.2,126.5573 219.9938,126.801 Q219.6938,127.1573 219.2156,127.3541 Q218.5875,127.626 217.8188,127.626 Q216.9188,127.626 216.1969,127.2698 Q215.6156,126.9885 215.2031,126.3791 Q214.8,125.7698 214.8,125.0479 L214.8,124.3916 Q214.8,123.6416 215.1563,122.9854 Q215.5219,122.3291 216.15,121.9823 Q216.7875,121.626 217.5,121.626 Q217.9313,121.626 218.3063,121.776 Q218.6813,121.926 219,122.226 Z " fill="#000000"/><text fill="#000000" font-family="sans-serif" font-size="7.2" lengthAdjust="spacingAndGlyphs" textLength="34.2" x="226.2" y="127.2721">Catalogue</text><line style="stroke:#A80036;stroke-width:0.8999999999999999;" x1="209.4" x2="261.6" y1="133.926" y2="133.926"/><!--MD5=[9e1ff69c5e4d619d80a29d55e5d1e948]
class Pharmacy_Administrator--><rect codeLine="61" fill="#FEFECE" filter="url(#fwj01dulby71x)" height="57.2063" id="Pharmacy_Administrator" style="stroke:#A80036;stroke-width:0.8999999999999999;" width="100.2" x="418.2" y="476.826"/><ellipse cx="427.2" cy="486.426" fill="#ADD1B2" rx="6.6" ry="6.6" style="stroke:#A80036;stroke-width:0.6;"/><path d="M428.4,484.326 Q428.5219,484.026 428.6625,483.876 Q428.8031,483.726 428.9625,483.726 Q429.2438,483.726 429.4219,483.8948 Q429.6,484.0635 429.6,484.4573 L429.6,485.3948 Q429.6,485.7885 429.4313,485.9573 Q429.2625,486.126 429,486.126 Q428.7656,486.126 428.6156,486.0229 Q428.4656,485.9198 428.4,485.6479 Q428.3719,485.4604 428.2688,485.3573 Q428.0813,485.1604 427.7438,485.0479 Q427.4063,484.926 427.0687,484.926 Q426.6469,484.926 426.2906,485.0948 Q425.9437,485.2635 425.6719,485.6385 Q425.4,486.0135 425.4,486.5291 L425.4,487.0823 Q425.4,487.701 425.9063,488.1135 Q426.4125,488.526 427.3125,488.526 Q427.8469,488.526 428.2219,488.4041 Q428.4375,488.3385 428.6813,488.1229 Q428.8406,488.001 428.925,487.9635 Q429.0094,487.926 429.1125,487.926 Q429.3094,487.926 429.45,488.0854 Q429.6,488.2354 429.6,488.451 Q429.6,488.6573 429.3938,488.901 Q429.0938,489.2573 428.6156,489.4541 Q427.9875,489.726 427.2188,489.726 Q426.3187,489.726 425.5969,489.3698 Q425.0156,489.0885 424.6031,488.4791 Q424.2,487.8698 424.2,487.1479 L424.2,486.4916 Q424.2,485.7416 424.5563,485.0854 Q424.9219,484.4291 425.55,484.0823 Q426.1875,483.726 426.9,483.726 Q427.3313,483.726 427.7063,483.876 Q428.0813,484.026 428.4,484.326 Z " fill="#000000"/><text fill="#000000" font-family="sans-serif" font-size="7.2" lengthAdjust="spacingAndGlyphs" textLength="81" x="435.6" y="489.3721">Pharmacy_Administrator</text><line style="stroke:#A80036;stroke-width:0.8999999999999999;" x1="418.8" x2="517.8" y1="496.026" y2="496.026"/><rect fill="none" height="3.6" style="stroke:#C82930;stroke-width:0.6;" width="3.6" x="423" y="500.826"/><text fill="#000000" font-family="sans-serif" font-size="6.6" lengthAdjust="spacingAndGlyphs" textLength="26.4" x="430.2" y="505.2774">Integer id</text><rect fill="none" height="3.6" style="stroke:#C82930;stroke-width:0.6;" width="3.6" x="423" y="509.1276"/><text fill="#000000" font-family="sans-serif" font-size="6.6" lengthAdjust="spacingAndGlyphs" textLength="34.2" x="430.2" y="513.5789">String name</text><rect fill="none" height="3.6" style="stroke:#C82930;stroke-width:0.6;" width="3.6" x="423" y="517.4291"/><text fill="#000000" font-family="sans-serif" font-size="6.6" lengthAdjust="spacingAndGlyphs" textLength="58.2" x="430.2" y="521.8805">String emailAddress</text><rect fill="none" height="3.6" style="stroke:#C82930;stroke-width:0.6;" width="3.6" x="423" y="525.7307"/><text fill="#000000" font-family="sans-serif" font-size="6.6" lengthAdjust="spacingAndGlyphs" textLength="48.6" x="430.2" y="530.1821">String password</text><!--MD5=[7f2a9fafcebe4f099f71398fd3e2ed00]
class Pharmacy--><rect codeLine="68" fill="#FEFECE" filter="url(#fwj01dulby71x)" height="48.9047" id="Pharmacy" style="stroke:#A80036;stroke-width:0.8999999999999999;" width="67.2" x="280.2" y="423.726"/><ellipse cx="295.95" cy="433.326" fill="#ADD1B2" rx="6.6" ry="6.6" style="stroke:#A80036;stroke-width:0.6;"/><path d="M297.15,431.226 Q297.2719,430.926 297.4125,430.776 Q297.5531,430.626 297.7125,430.626 Q297.9938,430.626 298.1719,430.7948 Q298.35,430.9635 298.35,431.3573 L298.35,432.2948 Q298.35,432.6885 298.1813,432.8573 Q298.0125,433.026 297.75,433.026 Q297.5156,433.026 297.3656,432.9229 Q297.2156,432.8198 297.15,432.5479 Q297.1219,432.3604 297.0188,432.2573 Q296.8313,432.0604 296.4938,431.9479 Q296.1563,431.826 295.8187,431.826 Q295.3969,431.826 295.0406,431.9948 Q294.6937,432.1635 294.4219,432.5385 Q294.15,432.9135 294.15,433.4291 L294.15,433.9823 Q294.15,434.601 294.6563,435.0135 Q295.1625,435.426 296.0625,435.426 Q296.5969,435.426 296.9719,435.3041 Q297.1875,435.2385 297.4313,435.0229 Q297.5906,434.901 297.675,434.8635 Q297.7594,434.826 297.8625,434.826 Q298.0594,434.826 298.2,434.9854 Q298.35,435.1354 298.35,435.351 Q298.35,435.5573 298.1438,435.801 Q297.8438,436.1573 297.3656,436.3541 Q296.7375,436.626 295.9688,436.626 Q295.0687,436.626 294.3469,436.2698 Q293.7656,435.9885 293.3531,435.3791 Q292.95,434.7698 292.95,434.0479 L292.95,433.3916 Q292.95,432.6416 293.3063,431.9854 Q293.6719,431.3291 294.3,430.9823 Q294.9375,430.626 295.65,430.626 Q296.0813,430.626 296.4563,430.776 Q296.8313,430.926 297.15,431.226 Z " fill="#000000"/><text fill="#000000" font-family="sans-serif" font-size="7.2" lengthAdjust="spacingAndGlyphs" textLength="33" x="305.85" y="436.2721">Pharmacy</text><line style="stroke:#A80036;stroke-width:0.8999999999999999;" x1="280.8" x2="346.8" y1="442.926" y2="442.926"/><rect fill="none" height="3.6" style="stroke:#C82930;stroke-width:0.6;" width="3.6" x="285" y="447.726"/><text fill="#000000" font-family="sans-serif" font-size="6.6" lengthAdjust="spacingAndGlyphs" textLength="26.4" x="292.2" y="452.1774">Integer id</text><rect fill="none" height="3.6" style="stroke:#C82930;stroke-width:0.6;" width="3.6" x="285" y="456.0276"/><text fill="#000000" font-family="sans-serif" font-size="6.6" lengthAdjust="spacingAndGlyphs" textLength="51.6" x="292.2" y="460.4789">String designation</text><rect fill="none" height="3.6" style="stroke:#C82930;stroke-width:0.6;" width="3.6" x="285" y="464.3291"/><text fill="#000000" font-family="sans-serif" font-size="6.6" lengthAdjust="spacingAndGlyphs" textLength="25.8" x="292.2" y="468.7805">String nif</text><!--MD5=[c6a2171c11447acbe08a3dfeee0e1710]
class Courier--><rect codeLine="74" fill="#FEFECE" filter="url(#fwj01dulby71x)" height="73.8094" id="Courier" style="stroke:#A80036;stroke-width:0.8999999999999999;" width="73.8" x="431.4" y="554.826"/><ellipse cx="453.9" cy="564.426" fill="#ADD1B2" rx="6.6" ry="6.6" style="stroke:#A80036;stroke-width:0.6;"/><path d="M455.1,562.326 Q455.2219,562.026 455.3625,561.876 Q455.5031,561.726 455.6625,561.726 Q455.9437,561.726 456.1219,561.8948 Q456.3,562.0635 456.3,562.4573 L456.3,563.3948 Q456.3,563.7885 456.1312,563.9573 Q455.9625,564.126 455.7,564.126 Q455.4656,564.126 455.3156,564.0229 Q455.1656,563.9198 455.1,563.6479 Q455.0719,563.4604 454.9688,563.3573 Q454.7813,563.1604 454.4437,563.0479 Q454.1063,562.926 453.7688,562.926 Q453.3469,562.926 452.9906,563.0948 Q452.6438,563.2635 452.3719,563.6385 Q452.1,564.0135 452.1,564.5291 L452.1,565.0823 Q452.1,565.701 452.6063,566.1135 Q453.1125,566.526 454.0125,566.526 Q454.5469,566.526 454.9219,566.4041 Q455.1375,566.3385 455.3812,566.1229 Q455.5406,566.001 455.625,565.9635 Q455.7094,565.926 455.8125,565.926 Q456.0094,565.926 456.15,566.0854 Q456.3,566.2354 456.3,566.451 Q456.3,566.6573 456.0938,566.901 Q455.7938,567.2573 455.3156,567.4541 Q454.6875,567.726 453.9188,567.726 Q453.0188,567.726 452.2969,567.3698 Q451.7156,567.0885 451.3031,566.4791 Q450.9,565.8698 450.9,565.1479 L450.9,564.4916 Q450.9,563.7416 451.2562,563.0854 Q451.6219,562.4291 452.25,562.0823 Q452.8875,561.726 453.6,561.726 Q454.0313,561.726 454.4063,561.876 Q454.7813,562.026 455.1,562.326 Z " fill="#000000"/><text fill="#000000" font-family="sans-serif" font-size="7.2" lengthAdjust="spacingAndGlyphs" textLength="24.6" x="465.3" y="567.3721">Courier</text><line style="stroke:#A80036;stroke-width:0.8999999999999999;" x1="432" x2="504.6" y1="574.026" y2="574.026"/><rect fill="none" height="3.6" style="stroke:#C82930;stroke-width:0.6;" width="3.6" x="436.2" y="578.826"/><text fill="#000000" font-family="sans-serif" font-size="6.6" lengthAdjust="spacingAndGlyphs" textLength="26.4" x="443.4" y="583.2774">Integer id</text><rect fill="none" height="3.6" style="stroke:#C82930;stroke-width:0.6;" width="3.6" x="436.2" y="587.1276"/><text fill="#000000" font-family="sans-serif" font-size="6.6" lengthAdjust="spacingAndGlyphs" textLength="34.2" x="443.4" y="591.5789">String name</text><rect fill="none" height="3.6" style="stroke:#C82930;stroke-width:0.6;" width="3.6" x="436.2" y="595.4291"/><text fill="#000000" font-family="sans-serif" font-size="6.6" lengthAdjust="spacingAndGlyphs" textLength="58.2" x="443.4" y="599.8805">String emailAddress</text><rect fill="none" height="3.6" style="stroke:#C82930;stroke-width:0.6;" width="3.6" x="436.2" y="603.7307"/><text fill="#000000" font-family="sans-serif" font-size="6.6" lengthAdjust="spacingAndGlyphs" textLength="48.6" x="443.4" y="608.1821">String password</text><rect fill="none" height="3.6" style="stroke:#C82930;stroke-width:0.6;" width="3.6" x="436.2" y="612.0323"/><text fill="#000000" font-family="sans-serif" font-size="6.6" lengthAdjust="spacingAndGlyphs" textLength="30.6" x="443.4" y="616.4836">String iban</text><rect fill="none" height="3.6" style="stroke:#C82930;stroke-width:0.6;" width="3.6" x="436.2" y="620.3338"/><text fill="#000000" font-family="sans-serif" font-size="6.6" lengthAdjust="spacingAndGlyphs" textLength="28.8" x="443.4" y="624.7852">Integer nif</text><!--MD5=[d1eeb527b96f439f56c6bd12ac0dd707]
class Park--><rect codeLine="83" fill="#FEFECE" filter="url(#fwj01dulby71x)" height="57.2063" id="Park" style="stroke:#A80036;stroke-width:0.8999999999999999;" width="94.8" x="420.9" y="692.826"/><ellipse cx="458.25" cy="702.426" fill="#ADD1B2" rx="6.6" ry="6.6" style="stroke:#A80036;stroke-width:0.6;"/><path d="M459.45,700.326 Q459.5719,700.026 459.7125,699.876 Q459.8531,699.726 460.0125,699.726 Q460.2938,699.726 460.4719,699.8948 Q460.65,700.0635 460.65,700.4573 L460.65,701.3948 Q460.65,701.7885 460.4813,701.9573 Q460.3125,702.126 460.05,702.126 Q459.8156,702.126 459.6656,702.0229 Q459.5156,701.9198 459.45,701.6479 Q459.4219,701.4604 459.3187,701.3573 Q459.1312,701.1604 458.7938,701.0479 Q458.4563,700.926 458.1188,700.926 Q457.6969,700.926 457.3406,701.0948 Q456.9938,701.2635 456.7219,701.6385 Q456.45,702.0135 456.45,702.5291 L456.45,703.0823 Q456.45,703.701 456.9563,704.1135 Q457.4625,704.526 458.3625,704.526 Q458.8969,704.526 459.2719,704.4041 Q459.4875,704.3385 459.7313,704.1229 Q459.8906,704.001 459.975,703.9635 Q460.0594,703.926 460.1625,703.926 Q460.3594,703.926 460.5,704.0854 Q460.65,704.2354 460.65,704.451 Q460.65,704.6573 460.4437,704.901 Q460.1438,705.2573 459.6656,705.4541 Q459.0375,705.726 458.2688,705.726 Q457.3688,705.726 456.6469,705.3698 Q456.0656,705.0885 455.6531,704.4791 Q455.25,703.8698 455.25,703.1479 L455.25,702.4916 Q455.25,701.7416 455.6063,701.0854 Q455.9719,700.4291 456.6,700.0823 Q457.2375,699.726 457.95,699.726 Q458.3812,699.726 458.7562,699.876 Q459.1312,700.026 459.45,700.326 Z " fill="#000000"/><text fill="#000000" font-family="sans-serif" font-size="7.2" lengthAdjust="spacingAndGlyphs" textLength="15" x="470.55" y="705.3721">Park</text><line style="stroke:#A80036;stroke-width:0.8999999999999999;" x1="421.5" x2="515.1" y1="712.026" y2="712.026"/><rect fill="none" height="3.6" style="stroke:#C82930;stroke-width:0.6;" width="3.6" x="425.7" y="716.826"/><text fill="#000000" font-family="sans-serif" font-size="6.6" lengthAdjust="spacingAndGlyphs" textLength="26.4" x="432.9" y="721.2774">Integer id</text><rect fill="none" height="3.6" style="stroke:#C82930;stroke-width:0.6;" width="3.6" x="425.7" y="725.1276"/><text fill="#000000" font-family="sans-serif" font-size="6.6" lengthAdjust="spacingAndGlyphs" textLength="34.2" x="432.9" y="729.5789">String name</text><rect fill="none" height="3.6" style="stroke:#C82930;stroke-width:0.6;" width="3.6" x="425.7" y="733.4291"/><text fill="#000000" font-family="sans-serif" font-size="6.6" lengthAdjust="spacingAndGlyphs" textLength="64.8" x="432.9" y="737.8805">Integer numberOfSlots</text><rect fill="none" height="3.6" style="stroke:#C82930;stroke-width:0.6;" width="3.6" x="425.7" y="741.7307"/><text fill="#000000" font-family="sans-serif" font-size="6.6" lengthAdjust="spacingAndGlyphs" textLength="79.2" x="432.9" y="746.1821">Double maxEnergyCapacity</text><!--MD5=[a826e54414f7e911baeb24af93ddd40a]
class Park_Slot--><rect codeLine="90" fill="#FEFECE" filter="url(#fwj01dulby71x)" height="40.6031" id="Park_Slot" style="stroke:#A80036;stroke-width:0.8999999999999999;" width="55.2" x="605.7" y="700.926"/><ellipse cx="616.59" cy="710.526" fill="#ADD1B2" rx="6.6" ry="6.6" style="stroke:#A80036;stroke-width:0.6;"/><path d="M617.79,708.426 Q617.9119,708.126 618.0525,707.976 Q618.1931,707.826 618.3525,707.826 Q618.6338,707.826 618.8119,707.9948 Q618.99,708.1635 618.99,708.5573 L618.99,709.4948 Q618.99,709.8885 618.8213,710.0573 Q618.6525,710.226 618.39,710.226 Q618.1556,710.226 618.0056,710.1229 Q617.8556,710.0198 617.79,709.7479 Q617.7619,709.5604 617.6588,709.4573 Q617.4713,709.2604 617.1338,709.1479 Q616.7963,709.026 616.4588,709.026 Q616.0369,709.026 615.6806,709.1948 Q615.3338,709.3635 615.0619,709.7385 Q614.79,710.1135 614.79,710.6291 L614.79,711.1823 Q614.79,711.801 615.2963,712.2135 Q615.8025,712.626 616.7025,712.626 Q617.2369,712.626 617.6119,712.5041 Q617.8275,712.4385 618.0713,712.2229 Q618.2306,712.101 618.315,712.0635 Q618.3994,712.026 618.5025,712.026 Q618.6994,712.026 618.84,712.1854 Q618.99,712.3354 618.99,712.551 Q618.99,712.7573 618.7838,713.001 Q618.4838,713.3573 618.0056,713.5541 Q617.3775,713.826 616.6088,713.826 Q615.7088,713.826 614.9869,713.4698 Q614.4056,713.1885 613.9931,712.5791 Q613.59,711.9698 613.59,711.2479 L613.59,710.5916 Q613.59,709.8416 613.9463,709.1854 Q614.3119,708.5291 614.94,708.1823 Q615.5775,707.826 616.29,707.826 Q616.7213,707.826 617.0963,707.976 Q617.4713,708.126 617.79,708.426 Z " fill="#000000"/><text fill="#000000" font-family="sans-serif" font-size="7.2" lengthAdjust="spacingAndGlyphs" textLength="31.8" x="625.41" y="713.4721">Park_Slot</text><line style="stroke:#A80036;stroke-width:0.8999999999999999;" x1="606.3" x2="660.3" y1="720.126" y2="720.126"/><rect fill="none" height="3.6" style="stroke:#C82930;stroke-width:0.6;" width="3.6" x="610.5" y="724.926"/><text fill="#000000" font-family="sans-serif" font-size="6.6" lengthAdjust="spacingAndGlyphs" textLength="26.4" x="617.7" y="729.3774">Integer id</text><rect fill="none" height="3.6" style="stroke:#C82930;stroke-width:0.6;" width="3.6" x="610.5" y="733.2276"/><text fill="#000000" font-family="sans-serif" font-size="6.6" lengthAdjust="spacingAndGlyphs" textLength="39.6" x="617.7" y="737.6789">Boolean used</text><!--MD5=[f4402668d5d5bb8485350c0fdb60ac8e]
class Scooter--><rect codeLine="95" fill="#FEFECE" filter="url(#fwj01dulby71x)" height="65.5078" id="Scooter" style="stroke:#A80036;stroke-width:0.8999999999999999;" width="94.8" x="915.6" y="774.426"/><ellipse cx="947.85" cy="784.026" fill="#ADD1B2" rx="6.6" ry="6.6" style="stroke:#A80036;stroke-width:0.6;"/><path d="M949.05,781.926 Q949.1719,781.626 949.3125,781.476 Q949.4531,781.326 949.6125,781.326 Q949.8938,781.326 950.0719,781.4948 Q950.25,781.6635 950.25,782.0573 L950.25,782.9948 Q950.25,783.3885 950.0813,783.5573 Q949.9125,783.726 949.65,783.726 Q949.4156,783.726 949.2656,783.6229 Q949.1156,783.5198 949.05,783.2479 Q949.0219,783.0604 948.9187,782.9573 Q948.7312,782.7604 948.3938,782.6479 Q948.0563,782.526 947.7188,782.526 Q947.2969,782.526 946.9406,782.6948 Q946.5938,782.8635 946.3219,783.2385 Q946.05,783.6135 946.05,784.1291 L946.05,784.6823 Q946.05,785.301 946.5563,785.7135 Q947.0625,786.126 947.9625,786.126 Q948.4969,786.126 948.8719,786.0041 Q949.0875,785.9385 949.3313,785.7229 Q949.4906,785.601 949.575,785.5635 Q949.6594,785.526 949.7625,785.526 Q949.9594,785.526 950.1,785.6854 Q950.25,785.8354 950.25,786.051 Q950.25,786.2573 950.0437,786.501 Q949.7438,786.8573 949.2656,787.0541 Q948.6375,787.326 947.8688,787.326 Q946.9688,787.326 946.2469,786.9698 Q945.6656,786.6885 945.2531,786.0791 Q944.85,785.4698 944.85,784.7479 L944.85,784.0916 Q944.85,783.3416 945.2063,782.6854 Q945.5719,782.0291 946.2,781.6823 Q946.8375,781.326 947.55,781.326 Q947.9812,781.326 948.3562,781.476 Q948.7312,781.626 949.05,781.926 Z " fill="#000000"/><text fill="#000000" font-family="sans-serif" font-size="7.2" lengthAdjust="spacingAndGlyphs" textLength="25.2" x="960.15" y="786.9721">Scooter</text><line style="stroke:#A80036;stroke-width:0.8999999999999999;" x1="916.2" x2="1009.8" y1="793.626" y2="793.626"/><rect fill="none" height="3.6" style="stroke:#C82930;stroke-width:0.6;" width="3.6" x="920.4" y="798.426"/><text fill="#000000" font-family="sans-serif" font-size="6.6" lengthAdjust="spacingAndGlyphs" textLength="26.4" x="927.6" y="802.8774">Integer id</text><rect fill="none" height="3.6" style="stroke:#C82930;stroke-width:0.6;" width="3.6" x="920.4" y="806.7276"/><text fill="#000000" font-family="sans-serif" font-size="6.6" lengthAdjust="spacingAndGlyphs" textLength="54.6" x="927.6" y="811.1789">Double batterySize</text><rect fill="none" height="3.6" style="stroke:#C82930;stroke-width:0.6;" width="3.6" x="920.4" y="815.0291"/><text fill="#000000" font-family="sans-serif" font-size="6.6" lengthAdjust="spacingAndGlyphs" textLength="63.6" x="927.6" y="819.4805">Double currentBattery</text><rect fill="none" height="3.6" style="stroke:#C82930;stroke-width:0.6;" width="3.6" x="920.4" y="823.3307"/><text fill="#000000" font-family="sans-serif" font-size="6.6" lengthAdjust="spacingAndGlyphs" textLength="79.2" x="927.6" y="827.7821">Double batteryConsumption</text><rect fill="none" height="3.6" style="stroke:#C82930;stroke-width:0.6;" width="3.6" x="920.4" y="831.6323"/><text fill="#000000" font-family="sans-serif" font-size="6.6" lengthAdjust="spacingAndGlyphs" textLength="42.6" x="927.6" y="836.0836">String QRCode</text><!--MD5=[e889cb1306632ec210f27caead7e7a7d]
class Charging_Station--><rect codeLine="103" fill="#FEFECE" filter="url(#fwj01dulby71x)" height="48.9047" id="Charging_Station" style="stroke:#A80036;stroke-width:0.8999999999999999;" width="76.8" x="757.8" y="658.326"/><ellipse cx="766.8" cy="667.926" fill="#ADD1B2" rx="6.6" ry="6.6" style="stroke:#A80036;stroke-width:0.6;"/><path d="M768,665.826 Q768.1219,665.526 768.2625,665.376 Q768.4031,665.226 768.5625,665.226 Q768.8438,665.226 769.0219,665.3948 Q769.2,665.5635 769.2,665.9573 L769.2,666.8948 Q769.2,667.2885 769.0313,667.4573 Q768.8625,667.626 768.6,667.626 Q768.3656,667.626 768.2156,667.5229 Q768.0656,667.4198 768,667.1479 Q767.9719,666.9604 767.8688,666.8573 Q767.6813,666.6604 767.3438,666.5479 Q767.0063,666.426 766.6687,666.426 Q766.2469,666.426 765.8906,666.5948 Q765.5437,666.7635 765.2719,667.1385 Q765,667.5135 765,668.0291 L765,668.5823 Q765,669.201 765.5063,669.6135 Q766.0125,670.026 766.9125,670.026 Q767.4469,670.026 767.8219,669.9041 Q768.0375,669.8385 768.2813,669.6229 Q768.4406,669.501 768.525,669.4635 Q768.6094,669.426 768.7125,669.426 Q768.9094,669.426 769.05,669.5854 Q769.2,669.7354 769.2,669.951 Q769.2,670.1573 768.9938,670.401 Q768.6938,670.7573 768.2156,670.9541 Q767.5875,671.226 766.8188,671.226 Q765.9187,671.226 765.1969,670.8698 Q764.6156,670.5885 764.2031,669.9791 Q763.8,669.3698 763.8,668.6479 L763.8,667.9916 Q763.8,667.2416 764.1563,666.5854 Q764.5219,665.9291 765.15,665.5823 Q765.7875,665.226 766.5,665.226 Q766.9313,665.226 767.3063,665.376 Q767.6813,665.526 768,665.826 Z " fill="#000000"/><text fill="#000000" font-family="sans-serif" font-size="7.2" lengthAdjust="spacingAndGlyphs" textLength="57.6" x="775.2" y="670.8721">Charging_Station</text><line style="stroke:#A80036;stroke-width:0.8999999999999999;" x1="758.4" x2="834" y1="677.526" y2="677.526"/><rect fill="none" height="3.6" style="stroke:#C82930;stroke-width:0.6;" width="3.6" x="762.6" y="682.326"/><text fill="#000000" font-family="sans-serif" font-size="6.6" lengthAdjust="spacingAndGlyphs" textLength="26.4" x="769.8" y="686.7774">Integer id</text><rect fill="none" height="3.6" style="stroke:#C82930;stroke-width:0.6;" width="3.6" x="762.6" y="690.6276"/><text fill="#000000" font-family="sans-serif" font-size="6.6" lengthAdjust="spacingAndGlyphs" textLength="46.2" x="769.8" y="695.0789">Double capacity</text><rect fill="none" height="3.6" style="stroke:#C82930;stroke-width:0.6;" width="3.6" x="762.6" y="698.9291"/><text fill="#000000" font-family="sans-serif" font-size="6.6" lengthAdjust="spacingAndGlyphs" textLength="40.8" x="769.8" y="703.3805">Double power</text><!--MD5=[c70876b204a2e0c24c89b8dde9d4901d]
class Geographical_location--><rect codeLine="109" fill="#FEFECE" filter="url(#fwj01dulby71x)" height="40.6031" id="Geographical_location" style="stroke:#A80036;stroke-width:0.8999999999999999;" width="93.6" x="749.4" y="141.126"/><ellipse cx="758.4" cy="150.726" fill="#ADD1B2" rx="6.6" ry="6.6" style="stroke:#A80036;stroke-width:0.6;"/><path d="M759.6,148.626 Q759.7219,148.326 759.8625,148.176 Q760.0031,148.026 760.1625,148.026 Q760.4438,148.026 760.6219,148.1948 Q760.8,148.3635 760.8,148.7573 L760.8,149.6948 Q760.8,150.0885 760.6313,150.2573 Q760.4625,150.426 760.2,150.426 Q759.9656,150.426 759.8156,150.3229 Q759.6656,150.2198 759.6,149.9479 Q759.5719,149.7604 759.4688,149.6573 Q759.2813,149.4604 758.9438,149.3479 Q758.6062,149.226 758.2688,149.226 Q757.8469,149.226 757.4906,149.3948 Q757.1438,149.5635 756.8719,149.9385 Q756.6,150.3135 756.6,150.8291 L756.6,151.3823 Q756.6,152.001 757.1062,152.4135 Q757.6125,152.826 758.5125,152.826 Q759.0469,152.826 759.4219,152.7041 Q759.6375,152.6385 759.8813,152.4229 Q760.0406,152.301 760.125,152.2635 Q760.2094,152.226 760.3125,152.226 Q760.5094,152.226 760.65,152.3854 Q760.8,152.5354 760.8,152.751 Q760.8,152.9573 760.5938,153.201 Q760.2937,153.5573 759.8156,153.7541 Q759.1875,154.026 758.4187,154.026 Q757.5188,154.026 756.7969,153.6698 Q756.2156,153.3885 755.8031,152.7791 Q755.4,152.1698 755.4,151.4479 L755.4,150.7916 Q755.4,150.0416 755.7563,149.3854 Q756.1219,148.7291 756.75,148.3823 Q757.3875,148.026 758.1,148.026 Q758.5313,148.026 758.9063,148.176 Q759.2813,148.326 759.6,148.626 Z " fill="#000000"/><text fill="#000000" font-family="sans-serif" font-size="7.2" lengthAdjust="spacingAndGlyphs" textLength="74.4" x="766.8" y="153.6721">Geographical_location</text><line style="stroke:#A80036;stroke-width:0.8999999999999999;" x1="750" x2="842.4" y1="160.326" y2="160.326"/><rect fill="none" height="3.6" style="stroke:#C82930;stroke-width:0.6;" width="3.6" x="754.2" y="165.126"/><text fill="#000000" font-family="sans-serif" font-size="6.6" lengthAdjust="spacingAndGlyphs" textLength="47.4" x="761.4" y="169.5774">Double longitude</text><rect fill="none" height="3.6" style="stroke:#C82930;stroke-width:0.6;" width="3.6" x="754.2" y="173.4276"/><text fill="#000000" font-family="sans-serif" font-size="6.6" lengthAdjust="spacingAndGlyphs" textLength="42" x="761.4" y="177.8789">Double latitude</text><!--MD5=[0f39e4cb6f03951afbf6d14bd2505654]
class Address--><rect codeLine="114" fill="#FEFECE" filter="url(#fwj01dulby71x)" height="65.5078" id="Address" style="stroke:#A80036;stroke-width:0.8999999999999999;" width="72.6" x="597" y="129.426"/><ellipse cx="617.61" cy="139.026" fill="#ADD1B2" rx="6.6" ry="6.6" style="stroke:#A80036;stroke-width:0.6;"/><path d="M618.81,136.926 Q618.9319,136.626 619.0725,136.476 Q619.2131,136.326 619.3725,136.326 Q619.6538,136.326 619.8319,136.4948 Q620.01,136.6635 620.01,137.0573 L620.01,137.9948 Q620.01,138.3885 619.8413,138.5573 Q619.6725,138.726 619.41,138.726 Q619.1756,138.726 619.0256,138.6229 Q618.8756,138.5198 618.81,138.2479 Q618.7819,138.0604 618.6787,137.9573 Q618.4912,137.7604 618.1538,137.6479 Q617.8163,137.526 617.4787,137.526 Q617.0569,137.526 616.7006,137.6948 Q616.3537,137.8635 616.0819,138.2385 Q615.81,138.6135 615.81,139.1291 L615.81,139.6823 Q615.81,140.301 616.3163,140.7135 Q616.8225,141.126 617.7225,141.126 Q618.2569,141.126 618.6319,141.0041 Q618.8475,140.9385 619.0913,140.7229 Q619.2506,140.601 619.335,140.5635 Q619.4194,140.526 619.5225,140.526 Q619.7194,140.526 619.86,140.6854 Q620.01,140.8354 620.01,141.051 Q620.01,141.2573 619.8037,141.501 Q619.5038,141.8573 619.0256,142.0541 Q618.3975,142.326 617.6288,142.326 Q616.7287,142.326 616.0069,141.9698 Q615.4256,141.6885 615.0131,141.0791 Q614.61,140.4698 614.61,139.7479 L614.61,139.0916 Q614.61,138.3416 614.9663,137.6854 Q615.3319,137.0291 615.96,136.6823 Q616.5975,136.326 617.31,136.326 Q617.7412,136.326 618.1162,136.476 Q618.4912,136.626 618.81,136.926 Z " fill="#000000"/><text fill="#000000" font-family="sans-serif" font-size="7.2" lengthAdjust="spacingAndGlyphs" textLength="27.6" x="628.59" y="141.9721">Address</text><line style="stroke:#A80036;stroke-width:0.8999999999999999;" x1="597.6" x2="669" y1="148.626" y2="148.626"/><rect fill="none" height="3.6" style="stroke:#C82930;stroke-width:0.6;" width="3.6" x="601.8" y="153.426"/><text fill="#000000" font-family="sans-serif" font-size="6.6" lengthAdjust="spacingAndGlyphs" textLength="26.4" x="609" y="157.8774">Integer id</text><rect fill="none" height="3.6" style="stroke:#C82930;stroke-width:0.6;" width="3.6" x="601.8" y="161.7276"/><text fill="#000000" font-family="sans-serif" font-size="6.6" lengthAdjust="spacingAndGlyphs" textLength="35.4" x="609" y="166.1789">String street</text><rect fill="none" height="3.6" style="stroke:#C82930;stroke-width:0.6;" width="3.6" x="601.8" y="170.0291"/><text fill="#000000" font-family="sans-serif" font-size="6.6" lengthAdjust="spacingAndGlyphs" textLength="57" x="609" y="174.4805">Integer doorNumber</text><rect fill="none" height="3.6" style="stroke:#C82930;stroke-width:0.6;" width="3.6" x="601.8" y="178.3307"/><text fill="#000000" font-family="sans-serif" font-size="6.6" lengthAdjust="spacingAndGlyphs" textLength="28.8" x="609" y="182.7821">String city</text><rect fill="none" height="3.6" style="stroke:#C82930;stroke-width:0.6;" width="3.6" x="601.8" y="186.6323"/><text fill="#000000" font-family="sans-serif" font-size="6.6" lengthAdjust="spacingAndGlyphs" textLength="40.8" x="609" y="191.0836">String country</text><!--MD5=[44a1b4afaef76c16e6c9ec4990ad0c8d]
class Item--><rect codeLine="122" fill="#FEFECE" filter="url(#fwj01dulby71x)" height="48.9047" id="Item" style="stroke:#A80036;stroke-width:0.8999999999999999;" width="51.6" x="770.4" y="202.926"/><ellipse cx="787.5" cy="212.526" fill="#ADD1B2" rx="6.6" ry="6.6" style="stroke:#A80036;stroke-width:0.6;"/><path d="M788.7,210.426 Q788.8219,210.126 788.9625,209.976 Q789.1031,209.826 789.2625,209.826 Q789.5437,209.826 789.7219,209.9948 Q789.9,210.1635 789.9,210.5573 L789.9,211.4948 Q789.9,211.8885 789.7312,212.0573 Q789.5625,212.226 789.3,212.226 Q789.0656,212.226 788.9156,212.1229 Q788.7656,212.0198 788.7,211.7479 Q788.6719,211.5604 788.5688,211.4573 Q788.3813,211.2604 788.0437,211.1479 Q787.7063,211.026 787.3688,211.026 Q786.9469,211.026 786.5906,211.1948 Q786.2438,211.3635 785.9719,211.7385 Q785.7,212.1135 785.7,212.6291 L785.7,213.1823 Q785.7,213.801 786.2063,214.2135 Q786.7125,214.626 787.6125,214.626 Q788.1469,214.626 788.5219,214.5041 Q788.7375,214.4385 788.9812,214.2229 Q789.1406,214.101 789.225,214.0635 Q789.3094,214.026 789.4125,214.026 Q789.6094,214.026 789.75,214.1854 Q789.9,214.3354 789.9,214.551 Q789.9,214.7573 789.6938,215.001 Q789.3938,215.3573 788.9156,215.5541 Q788.2875,215.826 787.5188,215.826 Q786.6188,215.826 785.8969,215.4698 Q785.3156,215.1885 784.9031,214.5791 Q784.5,213.9698 784.5,213.2479 L784.5,212.5916 Q784.5,211.8416 784.8562,211.1854 Q785.2219,210.5291 785.85,210.1823 Q786.4875,209.826 787.2,209.826 Q787.6313,209.826 788.0063,209.976 Q788.3813,210.126 788.7,210.426 Z " fill="#000000"/><text fill="#000000" font-family="sans-serif" font-size="7.2" lengthAdjust="spacingAndGlyphs" textLength="14.4" x="797.7" y="215.4721">Item</text><line style="stroke:#A80036;stroke-width:0.8999999999999999;" x1="771" x2="821.4" y1="222.126" y2="222.126"/><rect fill="none" height="3.6" style="stroke:#C82930;stroke-width:0.6;" width="3.6" x="775.2" y="226.926"/><text fill="#000000" font-family="sans-serif" font-size="6.6" lengthAdjust="spacingAndGlyphs" textLength="26.4" x="782.4" y="231.3774">Integer id</text><rect fill="none" height="3.6" style="stroke:#C82930;stroke-width:0.6;" width="3.6" x="775.2" y="235.2276"/><text fill="#000000" font-family="sans-serif" font-size="6.6" lengthAdjust="spacingAndGlyphs" textLength="34.2" x="782.4" y="239.6789">String name</text><rect fill="none" height="3.6" style="stroke:#C82930;stroke-width:0.6;" width="3.6" x="775.2" y="243.5291"/><text fill="#000000" font-family="sans-serif" font-size="6.6" lengthAdjust="spacingAndGlyphs" textLength="36" x="782.4" y="247.9805">Double price</text><!--MD5=[a4cb0f987c11031dc931233a0e7767af]
class Stock--><rect codeLine="128" fill="#FEFECE" filter="url(#fwj01dulby71x)" height="32.3016" id="Stock" style="stroke:#A80036;stroke-width:0.8999999999999999;" width="42" x="536.4" y="213.726"/><ellipse cx="547.56" cy="223.326" fill="#ADD1B2" rx="6.6" ry="6.6" style="stroke:#A80036;stroke-width:0.6;"/><path d="M548.76,221.226 Q548.8819,220.926 549.0225,220.776 Q549.1631,220.626 549.3225,220.626 Q549.6038,220.626 549.7819,220.7948 Q549.96,220.9635 549.96,221.3573 L549.96,222.2948 Q549.96,222.6885 549.7913,222.8573 Q549.6225,223.026 549.36,223.026 Q549.1256,223.026 548.9756,222.9229 Q548.8256,222.8198 548.76,222.5479 Q548.7319,222.3604 548.6288,222.2573 Q548.4413,222.0604 548.1038,221.9479 Q547.7663,221.826 547.4288,221.826 Q547.0069,221.826 546.6506,221.9948 Q546.3038,222.1635 546.0319,222.5385 Q545.76,222.9135 545.76,223.4291 L545.76,223.9823 Q545.76,224.601 546.2663,225.0135 Q546.7725,225.426 547.6725,225.426 Q548.2069,225.426 548.5819,225.3041 Q548.7975,225.2385 549.0413,225.0229 Q549.2006,224.901 549.285,224.8635 Q549.3694,224.826 549.4725,224.826 Q549.6694,224.826 549.81,224.9854 Q549.96,225.1354 549.96,225.351 Q549.96,225.5573 549.7538,225.801 Q549.4538,226.1573 548.9756,226.3541 Q548.3475,226.626 547.5788,226.626 Q546.6788,226.626 545.9569,226.2698 Q545.3756,225.9885 544.9631,225.3791 Q544.56,224.7698 544.56,224.0479 L544.56,223.3916 Q544.56,222.6416 544.9163,221.9854 Q545.2819,221.3291 545.91,220.9823 Q546.5475,220.626 547.26,220.626 Q547.6913,220.626 548.0663,220.776 Q548.4413,220.926 548.76,221.226 Z " fill="#000000"/><text fill="#000000" font-family="sans-serif" font-size="7.2" lengthAdjust="spacingAndGlyphs" textLength="18" x="556.44" y="226.2721">Stock</text><line style="stroke:#A80036;stroke-width:0.8999999999999999;" x1="537" x2="577.8" y1="232.926" y2="232.926"/><rect fill="none" height="3.6" style="stroke:#C82930;stroke-width:0.6;" width="3.6" x="541.2" y="237.726"/><text fill="#000000" font-family="sans-serif" font-size="6.6" lengthAdjust="spacingAndGlyphs" textLength="26.4" x="548.4" y="242.1774">Integer id</text><!--MD5=[34b75dd4d6d4601c280a5b76e9c1a953]
class Receipt--><rect codeLine="132" fill="#FEFECE" filter="url(#fwj01dulby71x)" height="40.6031" id="Receipt" style="stroke:#A80036;stroke-width:0.8999999999999999;" width="66" x="763.2" y="431.526"/><ellipse cx="781.92" cy="441.126" fill="#ADD1B2" rx="6.6" ry="6.6" style="stroke:#A80036;stroke-width:0.6;"/><path d="M783.12,439.026 Q783.2419,438.726 783.3825,438.576 Q783.5231,438.426 783.6825,438.426 Q783.9638,438.426 784.1419,438.5948 Q784.32,438.7635 784.32,439.1573 L784.32,440.0948 Q784.32,440.4885 784.1513,440.6573 Q783.9825,440.826 783.72,440.826 Q783.4856,440.826 783.3356,440.7229 Q783.1856,440.6198 783.12,440.3479 Q783.0919,440.1604 782.9888,440.0573 Q782.8013,439.8604 782.4638,439.7479 Q782.1263,439.626 781.7888,439.626 Q781.3669,439.626 781.0106,439.7948 Q780.6638,439.9635 780.3919,440.3385 Q780.12,440.7135 780.12,441.2291 L780.12,441.7823 Q780.12,442.401 780.6263,442.8135 Q781.1325,443.226 782.0325,443.226 Q782.5669,443.226 782.9419,443.1041 Q783.1575,443.0385 783.4013,442.8229 Q783.5606,442.701 783.645,442.6635 Q783.7294,442.626 783.8325,442.626 Q784.0294,442.626 784.17,442.7854 Q784.32,442.9354 784.32,443.151 Q784.32,443.3573 784.1138,443.601 Q783.8138,443.9573 783.3356,444.1541 Q782.7075,444.426 781.9388,444.426 Q781.0388,444.426 780.3169,444.0698 Q779.7356,443.7885 779.3231,443.1791 Q778.92,442.5698 778.92,441.8479 L778.92,441.1916 Q778.92,440.4416 779.2763,439.7854 Q779.6419,439.1291 780.27,438.7823 Q780.9075,438.426 781.62,438.426 Q782.0513,438.426 782.4263,438.576 Q782.8013,438.726 783.12,439.026 Z " fill="#000000"/><text fill="#000000" font-family="sans-serif" font-size="7.2" lengthAdjust="spacingAndGlyphs" textLength="25.2" x="792.48" y="444.0721">Receipt</text><line style="stroke:#A80036;stroke-width:0.8999999999999999;" x1="763.8" x2="828.6" y1="450.726" y2="450.726"/><rect fill="none" height="3.6" style="stroke:#C82930;stroke-width:0.6;" width="3.6" x="768" y="455.526"/><text fill="#000000" font-family="sans-serif" font-size="6.6" lengthAdjust="spacingAndGlyphs" textLength="26.4" x="775.2" y="459.9774">Integer id</text><rect fill="none" height="3.6" style="stroke:#C82930;stroke-width:0.6;" width="3.6" x="768" y="463.8276"/><text fill="#000000" font-family="sans-serif" font-size="6.6" lengthAdjust="spacingAndGlyphs" textLength="50.4" x="775.2" y="468.2789">Double totalValue</text><!--MD5=[edc107c0a572352bcd12c9afaba4390b]
link Administrator to User--><path codeLine="137" d="M190.944,642.09 C257.706,654.732 403.332,674.97 518.4,639.126 C549.33,629.49 554.766,619.884 578.4,597.726 C587.82,588.894 587.676,584.442 596.4,574.926 C598.098,573.072 599.874,571.206 601.692,569.34 " fill="none" id="Administrator-User" style="stroke:#A80036;stroke-width:0.6;"/><polygon fill="#000000" points="371.354,653.1083,365.7026,652.3184,366.3177,655.7911,371.354,653.1083" style="stroke:#000000;stroke-width:0.6;"/><text fill="#000000" font-family="sans-serif" font-size="7.8" lengthAdjust="spacingAndGlyphs" textLength="25.8" x="373.8" y="656.8231">acts as</text><text fill="#000000" font-family="sans-serif" font-size="7.8" lengthAdjust="spacingAndGlyphs" textLength="4.2" x="195.7147" y="651.7186">1</text><text fill="#000000" font-family="sans-serif" font-size="7.8" lengthAdjust="spacingAndGlyphs" textLength="4.2" x="592.5411" y="582.3451">1</text><!--MD5=[ee27bb4a35795612dd183df45031e556]
link Administrator to Courier--><path codeLine="138" d="M190.89,629.376 C251.172,621.174 371.088,604.866 431.352,596.67 " fill="none" id="Administrator-Courier" style="stroke:#A80036;stroke-width:0.6;"/><polygon fill="#000000" points="300.2726,602.8272,294.6574,601.8113,295.1327,605.3058,300.2726,602.8272" style="stroke:#000000;stroke-width:0.6;"/><text fill="#000000" font-family="sans-serif" font-size="7.8" lengthAdjust="spacingAndGlyphs" textLength="30" x="302.7" y="606.4231">registers</text><text fill="#000000" font-family="sans-serif" font-size="7.8" lengthAdjust="spacingAndGlyphs" textLength="4.2" x="195.6541" y="637.4551">1</text><text fill="#000000" font-family="sans-serif" font-size="7.8" lengthAdjust="spacingAndGlyphs" textLength="12" x="414.6546" y="605.8438">0..*</text><!--MD5=[b89ea4b32c229b5fbd9fe2aca6748544]
link Administrator to Scooter--><path codeLine="139" d="M159.258,662.916 C171.75,727.152 211.794,877.326 313.2,877.326 C313.2,877.326 313.2,877.326 796.8,877.326 C839.346,877.326 883.512,857.442 915.522,838.836 " fill="none" id="Administrator-Scooter" style="stroke:#A80036;stroke-width:0.6;"/><polygon fill="#000000" points="545.922,872.7112,541.0356,869.7641,540.2365,873.1991,545.922,872.7112" style="stroke:#000000;stroke-width:0.6;"/><text fill="#000000" font-family="sans-serif" font-size="7.8" lengthAdjust="spacingAndGlyphs" textLength="25.8" x="548.4" y="875.2231">creates</text><text fill="#000000" font-family="sans-serif" font-size="7.8" lengthAdjust="spacingAndGlyphs" textLength="4.2" x="155.5365" y="675.9176">1</text><text fill="#000000" font-family="sans-serif" font-size="7.8" lengthAdjust="spacingAndGlyphs" textLength="12" x="898.7591" y="850.1893">0..*</text><!--MD5=[8aaadde0a51a6974a75b41b6a40c57cb]
link Administrator to Pharmacy--><path codeLine="140" d="M178.95,605.67 C209.904,569.394 262.716,507.492 292.026,473.142 " fill="none" id="Administrator-Pharmacy" style="stroke:#A80036;stroke-width:0.6;"/><polygon fill="#000000" points="223.0472,501.3493,218.1832,504.3333,220.8661,506.6223,223.0472,501.3493" style="stroke:#000000;stroke-width:0.6;"/><text fill="#000000" font-family="sans-serif" font-size="7.8" lengthAdjust="spacingAndGlyphs" textLength="25.8" x="226.5" y="506.8231">creates</text><text fill="#000000" font-family="sans-serif" font-size="7.8" lengthAdjust="spacingAndGlyphs" textLength="4.2" x="178.1208" y="599.2536">1</text><text fill="#000000" font-family="sans-serif" font-size="7.8" lengthAdjust="spacingAndGlyphs" textLength="13.2" x="274.8359" y="485.4394">0..1</text><!--MD5=[7e5f2900cc75c5dbfbca355ecc60e139]
link Administrator to Drone--><path codeLine="141" d="M190.986,658.29 C240.174,689.028 331.602,740.7 418.2,760.326 C455.898,768.87 654.744,769.338 731.4,756.726 C796.932,745.944 869.418,720.426 915.402,702.426 " fill="none" id="Administrator-Drone" style="stroke:#A80036;stroke-width:0.6;"/><polygon fill="#000000" points="545.9944,760.6139,540.6847,758.5238,540.4702,762.044,545.9944,760.6139" style="stroke:#000000;stroke-width:0.6;"/><text fill="#000000" font-family="sans-serif" font-size="7.8" lengthAdjust="spacingAndGlyphs" textLength="25.8" x="548.4" y="763.6231">creates</text><text fill="#000000" font-family="sans-serif" font-size="7.8" lengthAdjust="spacingAndGlyphs" textLength="4.2" x="195.5169" y="669.7132">1</text><text fill="#000000" font-family="sans-serif" font-size="7.8" lengthAdjust="spacingAndGlyphs" textLength="12" x="898.7959" y="712.6158">0..*</text><!--MD5=[8c7e2cb836a61414bf9f02282664f603]
link Application to Pharmacy--><path codeLine="145" d="M59.58,448.326 C111.33,448.326 223.854,448.326 279.978,448.326 " fill="none" id="Application-Pharmacy" style="stroke:#A80036;stroke-width:0.6;"/><polygon fill="#000000" points="149.1,443.0315,143.6729,441.2681,143.6729,444.7948,149.1,443.0315" style="stroke:#000000;stroke-width:0.6;"/><text fill="#000000" font-family="sans-serif" font-size="7.8" lengthAdjust="spacingAndGlyphs" textLength="12.6" x="151.5" y="446.2231">has</text><text fill="#000000" font-family="sans-serif" font-size="7.8" lengthAdjust="spacingAndGlyphs" textLength="4.2" x="64.1554" y="457.1742">1</text><text fill="#000000" font-family="sans-serif" font-size="7.8" lengthAdjust="spacingAndGlyphs" textLength="4.2" x="271.1755" y="457.0705">1</text><!--MD5=[bed42e1c40ea954d078550fc6c995a7a]
link Application to Catalogue--><path codeLine="146" d="M39.966,436.308 C71.886,385.62 195.306,189.606 227.292,138.804 " fill="none" id="Application-Catalogue" style="stroke:#A80036;stroke-width:0.6;"/><polygon fill="#000000" points="81.9985,340.8928,77.6146,344.5457,80.599,346.4249,81.9985,340.8928" style="stroke:#000000;stroke-width:0.6;"/><text fill="#000000" font-family="sans-serif" font-size="7.8" lengthAdjust="spacingAndGlyphs" textLength="12.6" x="85.8" y="346.6231">has</text><text fill="#000000" font-family="sans-serif" font-size="7.8" lengthAdjust="spacingAndGlyphs" textLength="4.2" x="37.5479" y="429.8958">1</text><text fill="#000000" font-family="sans-serif" font-size="7.8" lengthAdjust="spacingAndGlyphs" textLength="4.2" x="220.1929" y="151.6777">1</text><!--MD5=[0658fd5ad669893c41ffb24ab482bbe6]
link Application to Administrator--><path codeLine="147" d="M40.332,460.53 C59.322,489.744 107.814,564.348 134.676,605.676 " fill="none" id="Application-Administrator" style="stroke:#A80036;stroke-width:0.6;"/><polygon fill="#000000" points="82.035,516.9468,80.5558,511.4355,77.5988,513.3575,82.035,516.9468" style="stroke:#000000;stroke-width:0.6;"/><text fill="#000000" font-family="sans-serif" font-size="7.8" lengthAdjust="spacingAndGlyphs" textLength="12.6" x="85.8" y="517.6231">has</text><text fill="#000000" font-family="sans-serif" font-size="7.8" lengthAdjust="spacingAndGlyphs" textLength="4.2" x="37.8606" y="473.2252">1</text><text fill="#000000" font-family="sans-serif" font-size="7.8" lengthAdjust="spacingAndGlyphs" textLength="4.2" x="127.344" y="599.2604">1</text><!--MD5=[87abe4982b7c193a4084a229bf1bb342]
link Address to Geographical_location--><path codeLine="149" d="M669.786,161.994 C693.234,161.904 724.08,161.79 749.358,161.7 " fill="none" id="Address-Geographical_location" style="stroke:#A80036;stroke-width:0.6;"/><polygon fill="#000000" points="705,156.8204,699.5665,155.0771,699.5795,158.6038,705,156.8204" style="stroke:#000000;stroke-width:0.6;"/><text fill="#000000" font-family="sans-serif" font-size="7.8" lengthAdjust="spacingAndGlyphs" textLength="12.6" x="707.4" y="160.0231">has</text><text fill="#000000" font-family="sans-serif" font-size="7.8" lengthAdjust="spacingAndGlyphs" textLength="4.2" x="674.4887" y="170.6663">1</text><text fill="#000000" font-family="sans-serif" font-size="7.8" lengthAdjust="spacingAndGlyphs" textLength="4.2" x="740.3403" y="170.3068">1</text><!--MD5=[79c58ca32092b929e8b4bee94f331b1e]
link Catalogue to Item--><path codeLine="152" d="M260.61,114.714 C329.142,82.938 527.1,3.6 670.2,71.526 C709.068,89.976 709.644,109.41 731.4,146.526 C742.416,165.324 736.278,174.732 749.4,192.126 C755.124,199.71 762.87,206.496 770.388,212.046 " fill="none" id="Catalogue-Item" style="stroke:#A80036;stroke-width:0.6;"/><polygon fill="#000000" points="463.4468,40.9941,458.4467,38.2442,457.7853,41.7084,463.4468,40.9941" style="stroke:#000000;stroke-width:0.6;"/><text fill="#000000" font-family="sans-serif" font-size="7.8" lengthAdjust="spacingAndGlyphs" textLength="12.6" x="465.9" y="43.6231">has</text><text fill="#000000" font-family="sans-serif" font-size="7.8" lengthAdjust="spacingAndGlyphs" textLength="4.2" x="263.1692" y="108.3035">1</text><text fill="#000000" font-family="sans-serif" font-size="7.8" lengthAdjust="spacingAndGlyphs" textLength="3" x="762.5231" y="218.2858">*</text><!--MD5=[771c3993b003aea4e1f6128d90cd4122]
link Courier to User--><path codeLine="154" d="M505.326,594.15 C527.208,594.354 555.21,592.344 578.4,583.326 C586.89,580.026 595.122,574.932 602.502,569.394 " fill="none" id="Courier-User" style="stroke:#A80036;stroke-width:0.6;"/><polygon fill="#000000" points="545.9071,577.2909,540.2128,576.9219,541.0834,580.3394,545.9071,577.2909" style="stroke:#000000;stroke-width:0.6;"/><text fill="#000000" font-family="sans-serif" font-size="7.8" lengthAdjust="spacingAndGlyphs" textLength="25.8" x="548.4" y="581.2231">acts as</text><text fill="#000000" font-family="sans-serif" font-size="7.8" lengthAdjust="spacingAndGlyphs" textLength="4.2" x="510.0945" y="603.1398">1</text><text fill="#000000" font-family="sans-serif" font-size="7.8" lengthAdjust="spacingAndGlyphs" textLength="4.2" x="598.287" y="582.407">1</text><!--MD5=[7471b15d97b16c1e8744ea00ac81bc31]
link Courier to Delivery--><path codeLine="155" d="M505.296,595.554 C515.358,596.454 526.29,597.276 536.4,597.726 C595.896,600.366 611.418,600.078 670.2,590.526 C706.962,584.556 748.776,573.21 773.628,565.968 " fill="none" id="Courier-Delivery" style="stroke:#A80036;stroke-width:0.6;"/><polygon fill="#000000" points="621.8819,584.9027,616.2943,583.7447,616.6808,587.2502,621.8819,584.9027" style="stroke:#000000;stroke-width:0.6;"/><text fill="#000000" font-family="sans-serif" font-size="7.8" lengthAdjust="spacingAndGlyphs" textLength="25.8" x="624.3" y="588.4231">acts as</text><text fill="#000000" font-family="sans-serif" font-size="7.8" lengthAdjust="spacingAndGlyphs" textLength="4.2" x="510.0608" y="596.6374">1</text><text fill="#000000" font-family="sans-serif" font-size="7.8" lengthAdjust="spacingAndGlyphs" textLength="4.2" x="764.7249" y="576.2757">1</text><!--MD5=[42412c6d1ec7cdf26c030834d47a2bbe]
link Courier to Order--><path codeLine="156" d="M505.44,579.246 C532.932,569.256 567.642,555.174 578.4,544.326 C592.872,529.728 585.606,519.222 596.4,501.726 C602.166,492.384 609.912,482.988 616.77,475.404 " fill="none" id="Courier-Order" style="stroke:#A80036;stroke-width:0.6;"/><polygon fill="#000000" points="551.7938,536.9852,546.6224,539.3974,549.0279,541.9764,551.7938,536.9852" style="stroke:#000000;stroke-width:0.6;"/><text fill="#000000" font-family="sans-serif" font-size="7.8" lengthAdjust="spacingAndGlyphs" textLength="12.6" x="555" y="542.2231">has</text><text fill="#000000" font-family="sans-serif" font-size="7.8" lengthAdjust="spacingAndGlyphs" textLength="4.2" x="509.9771" y="586.4667">1</text><text fill="#000000" font-family="sans-serif" font-size="7.8" lengthAdjust="spacingAndGlyphs" textLength="12" x="599.8416" y="488.1457">0..*</text><!--MD5=[a6555772697f24f0ba1eb2fefc99ef48]
link Courier to Scooter--><path codeLine="157" d="M505.284,601.92 C549.006,615.738 622.44,644.106 670.2,690.126 C682.398,701.88 675.102,712.98 688.2,723.726 C754.65,778.248 856.278,797.166 915.348,803.7 " fill="none" id="Courier-Scooter" style="stroke:#A80036;stroke-width:0.6;"/><polygon fill="#000000" points="702.5918,719.756,698.5009,715.7777,696.9438,718.9421,702.5918,719.756" style="stroke:#000000;stroke-width:0.6;"/><text fill="#000000" font-family="sans-serif" font-size="7.8" lengthAdjust="spacingAndGlyphs" textLength="16.8" x="705.3" y="721.6231">uses</text><text fill="#000000" font-family="sans-serif" font-size="7.8" lengthAdjust="spacingAndGlyphs" textLength="4.2" x="510.0474" y="611.8567">1</text><text fill="#000000" font-family="sans-serif" font-size="7.8" lengthAdjust="spacingAndGlyphs" textLength="4.2" x="906.5615" y="811.9285">1</text><!--MD5=[e851f94bc71457f9038687d54ae4bfa1]
link Order to Delivery--><path codeLine="159" d="M654.378,471.816 C684.888,490.722 742.044,526.14 773.478,545.616 " fill="none" id="Order-Delivery" style="stroke:#A80036;stroke-width:0.6;"/><polygon fill="#000000" points="704.5501,490.8116,700.8657,486.4542,699.0081,489.452,704.5501,490.8116" style="stroke:#000000;stroke-width:0.6;"/><text fill="#000000" font-family="sans-serif" font-size="7.8" lengthAdjust="spacingAndGlyphs" textLength="12.6" x="707.4" y="492.4231">has</text><text fill="#000000" font-family="sans-serif" font-size="7.8" lengthAdjust="spacingAndGlyphs" textLength="12" x="659.032" y="482.9458">1..*</text><text fill="#000000" font-family="sans-serif" font-size="7.8" lengthAdjust="spacingAndGlyphs" textLength="4.2" x="764.7014" y="552.0988">1</text><!--MD5=[c1d53365aa981b4855aab454c64fdd90]
link Order to Item--><path codeLine="160" d="M645.27,442.842 C673.164,402.888 745.11,299.838 778.326,252.264 " fill="none" id="Order-Item" style="stroke:#A80036;stroke-width:0.6;"/><polygon fill="#000000" points="703.7174,315.1717,699.1648,318.6121,702.0565,320.6309,703.7174,315.1717" style="stroke:#000000;stroke-width:0.6;"/><text fill="#000000" font-family="sans-serif" font-size="7.8" lengthAdjust="spacingAndGlyphs" textLength="12.6" x="707.4" y="320.8231">has</text><text fill="#000000" font-family="sans-serif" font-size="7.8" lengthAdjust="spacingAndGlyphs" textLength="4.2" x="643.3524" y="436.4992">1</text><text fill="#000000" font-family="sans-serif" font-size="7.8" lengthAdjust="spacingAndGlyphs" textLength="12" x="762.8195" y="264.7366">1..*</text><!--MD5=[3719c9bf6f78ec9c1d7893b20902bcf8]
link Order to Receipt--><path codeLine="161" d="M654.378,458.214 C681.786,456.996 730.698,454.818 763.146,453.372 " fill="none" id="Order-Receipt" style="stroke:#A80036;stroke-width:0.6;"/><polygon fill="#000000" points="694.197,449.4981,688.6969,447.9778,688.8538,451.501,694.197,449.4981" style="stroke:#000000;stroke-width:0.6;"/><text fill="#000000" font-family="sans-serif" font-size="7.8" lengthAdjust="spacingAndGlyphs" textLength="34.2" x="696.6" y="452.8231">generates</text><text fill="#000000" font-family="sans-serif" font-size="7.8" lengthAdjust="spacingAndGlyphs" textLength="4.2" x="659.1585" y="467.1449">1</text><text fill="#000000" font-family="sans-serif" font-size="7.8" lengthAdjust="spacingAndGlyphs" textLength="4.2" x="754.2222" y="462.3358">1</text><!--MD5=[9da2d030199657ada640fbe1c7f5f6ad]
link Order to Credits--><path codeLine="162" d="M654.378,447.954 C678.942,434.562 720.768,411.744 752.544,394.41 " fill="none" id="Order-Credits" style="stroke:#A80036;stroke-width:0.6;"/><polygon fill="#000000" points="693.8337,400.7949,688.2249,401.8456,689.9137,404.9417,693.8337,400.7949" style="stroke:#000000;stroke-width:0.6;"/><text fill="#000000" font-family="sans-serif" font-size="7.8" lengthAdjust="spacingAndGlyphs" textLength="34.2" x="696.6" y="405.4231">generates</text><text fill="#000000" font-family="sans-serif" font-size="7.8" lengthAdjust="spacingAndGlyphs" textLength="4.2" x="659.1585" y="454.7687">1</text><text fill="#000000" font-family="sans-serif" font-size="7.8" lengthAdjust="spacingAndGlyphs" textLength="12" x="735.9663" y="405.1378">0..*</text><!--MD5=[4aa95f80be23a2d4fa77749a03bf17ff]
link Pharmacy to Pharmacy_Administrator--><path codeLine="164" d="M347.478,460.626 C368.07,468.282 394.956,478.278 418.074,486.876 " fill="none" id="Pharmacy-Pharmacy_Administrator" style="stroke:#A80036;stroke-width:0.6;"/><polygon fill="#000000" points="377.8119,464.477,373.3397,460.9328,372.1106,464.2384,377.8119,464.477" style="stroke:#000000;stroke-width:0.6;"/><text fill="#000000" font-family="sans-serif" font-size="7.8" lengthAdjust="spacingAndGlyphs" textLength="12.6" x="380.4" y="466.6231">has</text><text fill="#000000" font-family="sans-serif" font-size="7.8" lengthAdjust="spacingAndGlyphs" textLength="4.2" x="352.2857" y="471.0549">1</text><text fill="#000000" font-family="sans-serif" font-size="7.8" lengthAdjust="spacingAndGlyphs" textLength="4.2" x="409.2137" y="493.7576">1</text><!--MD5=[0643aaab1f96e564b90d0ad5c3af18e6]
link Pharmacy to Courier--><path codeLine="165" d="M340.752,472.98 C365.748,496.362 403.524,531.696 431.376,557.748 " fill="none" id="Pharmacy-Courier" style="stroke:#A80036;stroke-width:0.6;"/><polygon fill="#000000" points="377.1909,496.0808,374.4321,491.0857,372.0229,493.6613,377.1909,496.0808" style="stroke:#000000;stroke-width:0.6;"/><text fill="#000000" font-family="sans-serif" font-size="7.8" lengthAdjust="spacingAndGlyphs" textLength="12.6" x="380.4" y="497.2231">has</text><text fill="#000000" font-family="sans-serif" font-size="7.8" lengthAdjust="spacingAndGlyphs" textLength="4.2" x="340.2021" y="485.4403">1</text><text fill="#000000" font-family="sans-serif" font-size="7.8" lengthAdjust="spacingAndGlyphs" textLength="12" x="414.6812" y="562.6647">0..*</text><!--MD5=[0b87aa6ace50be10beee1b6515045c69]
link Pharmacy to Order--><path codeLine="166" d="M347.562,449.454 C413.322,451.68 558.522,456.612 612.216,458.43 " fill="none" id="Pharmacy-Order" style="stroke:#A80036;stroke-width:0.6;"/><polygon fill="#000000" points="463.4983,447.3332,458.1341,445.3869,458.0146,448.9115,463.4983,447.3332" style="stroke:#000000;stroke-width:0.6;"/><text fill="#000000" font-family="sans-serif" font-size="7.8" lengthAdjust="spacingAndGlyphs" textLength="12.6" x="465.9" y="450.4231">has</text><text fill="#000000" font-family="sans-serif" font-size="7.8" lengthAdjust="spacingAndGlyphs" textLength="4.2" x="352.1568" y="458.343">1</text><text fill="#000000" font-family="sans-serif" font-size="7.8" lengthAdjust="spacingAndGlyphs" textLength="12" x="595.5609" y="467.259">0..*</text><!--MD5=[0ae4e3be80761dbc176b3d01b8ab98e4]
link Pharmacy to Park--><path codeLine="167" d="M325.044,473.07 C334.098,492.486 348.33,519.582 365.4,540.126 C378.228,555.57 389.448,551.97 400.2,568.926 C417.45,596.124 405.762,609.414 418.2,639.126 C426.048,657.87 437.658,677.418 447.66,692.748 " fill="none" id="Pharmacy-Park" style="stroke:#A80036;stroke-width:0.6;"/><polygon fill="#000000" points="376.4621,537.451,375.3568,531.8528,372.2774,533.5716,376.4621,537.451" style="stroke:#000000;stroke-width:0.6;"/><text fill="#000000" font-family="sans-serif" font-size="7.8" lengthAdjust="spacingAndGlyphs" textLength="12.6" x="380.4" y="538.0231">has</text><text fill="#000000" font-family="sans-serif" font-size="7.8" lengthAdjust="spacingAndGlyphs" textLength="4.2" x="322.187" y="485.5435">1</text><text fill="#000000" font-family="sans-serif" font-size="7.8" lengthAdjust="spacingAndGlyphs" textLength="12" x="431.7473" y="686.343">0..*</text><!--MD5=[cf4f95b832970cfa6e3a3c87e0aa2b32]
link Pharmacy to Scooter--><path codeLine="168" d="M324.318,472.968 C334.356,497.676 350.484,536.742 365.4,570.126 C380.094,603.018 389.616,608.892 400.2,643.326 C415.656,693.618 386.574,718.278 418.2,760.326 C459.006,814.584 488.91,824.526 556.8,824.526 C556.8,824.526 556.8,824.526 796.8,824.526 C836.982,824.526 882.348,819.396 915.426,814.71 " fill="none" id="Pharmacy-Scooter" style="stroke:#A80036;stroke-width:0.6;"/><polygon fill="#000000" points="628.0972,820.733,624.2814,816.4901,622.5162,819.5433,628.0972,820.733" style="stroke:#000000;stroke-width:0.6;"/><text fill="#000000" font-family="sans-serif" font-size="7.8" lengthAdjust="spacingAndGlyphs" textLength="12.6" x="630.9" y="822.4231">has</text><text fill="#000000" font-family="sans-serif" font-size="7.8" lengthAdjust="spacingAndGlyphs" textLength="4.2" x="326.2501" y="485.6121">1</text><text fill="#000000" font-family="sans-serif" font-size="7.8" lengthAdjust="spacingAndGlyphs" textLength="12" x="898.822" y="823.8758">0..*</text><!--MD5=[f8ebe161610107101fe1df9bed99a2fd]
link Pharmacy to Drone--><path codeLine="169" d="M314.202,423.636 C315.264,365.034 327.276,218.16 418.2,160.326 C577.896,58.74 699.702,6.678 843,130.326 C922.836,199.218 952.77,541.776 960.33,650.058 " fill="none" id="Pharmacy-Drone" style="stroke:#A80036;stroke-width:0.6;"/><polygon fill="#000000" points="628.3312,54.0236,623.7927,50.5647,622.6264,53.893,628.3312,54.0236" style="stroke:#000000;stroke-width:0.6;"/><text fill="#000000" font-family="sans-serif" font-size="7.8" lengthAdjust="spacingAndGlyphs" textLength="12.6" x="630.9" y="56.2231">has</text><text fill="#000000" font-family="sans-serif" font-size="7.8" lengthAdjust="spacingAndGlyphs" textLength="4.2" x="309.7208" y="417.2907">1</text><text fill="#000000" font-family="sans-serif" font-size="7.8" lengthAdjust="spacingAndGlyphs" textLength="12" x="947.2192" y="643.7355">0..*</text><!--MD5=[921945e580d55b2e45f5d1658e43b0b1]
link Pharmacy to Stock--><path codeLine="170" d="M320.574,423.594 C332.226,382.356 361.53,299.964 418.2,258.126 C453.558,232.02 507.234,228.636 536.322,228.96 " fill="none" id="Pharmacy-Stock" style="stroke:#A80036;stroke-width:0.6;"/><polygon fill="#000000" points="377.2275,267.6219,372.0167,269.9479,374.3791,272.5665,377.2275,267.6219" style="stroke:#000000;stroke-width:0.6;"/><text fill="#000000" font-family="sans-serif" font-size="7.8" lengthAdjust="spacingAndGlyphs" textLength="12.6" x="380.4" y="272.8231">has</text><text fill="#000000" font-family="sans-serif" font-size="7.8" lengthAdjust="spacingAndGlyphs" textLength="4.2" x="322.0438" y="417.2418">1</text><text fill="#000000" font-family="sans-serif" font-size="7.8" lengthAdjust="spacingAndGlyphs" textLength="4.2" x="527.3415" y="237.8797">1</text><!--MD5=[89baec1bfb4a213750f7c61516e0a0f1]
link Pharmacy to Address--><path codeLine="171" d="M315.246,423.696 C317.754,384.96 327.54,309.096 365.4,259.326 C421.23,185.934 537.852,167.892 596.862,163.506 " fill="none" id="Pharmacy-Address" style="stroke:#A80036;stroke-width:0.6;"/><polygon fill="#000000" points="462.7035,168.5956,457.5207,170.9833,459.914,173.5737,462.7035,168.5956" style="stroke:#000000;stroke-width:0.6;"/><text fill="#000000" font-family="sans-serif" font-size="7.8" lengthAdjust="spacingAndGlyphs" textLength="12.6" x="465.9" y="173.8231">has</text><text fill="#000000" font-family="sans-serif" font-size="7.8" lengthAdjust="spacingAndGlyphs" textLength="4.2" x="315.8555" y="417.1783">1</text><text fill="#000000" font-family="sans-serif" font-size="7.8" lengthAdjust="spacingAndGlyphs" textLength="4.2" x="587.9652" y="172.3625">1</text><!--MD5=[168fe7c44663a873e383733a7f3766cf]
link Pharmacy to Receipt--><path codeLine="172" d="M347.586,437.388 C397.47,422.238 494.85,397.65 578.4,406.326 C644.892,413.232 721.02,431.724 763.182,442.92 " fill="none" id="Pharmacy-Receipt" style="stroke:#A80036;stroke-width:0.6;"/><polygon fill="#000000" points="552.5997,399.2714,547.1966,397.436,547.1497,400.9624,552.5997,399.2714" style="stroke:#000000;stroke-width:0.6;"/><text fill="#000000" font-family="sans-serif" font-size="7.8" lengthAdjust="spacingAndGlyphs" textLength="12.6" x="555" y="402.4231">has</text><text fill="#000000" font-family="sans-serif" font-size="7.8" lengthAdjust="spacingAndGlyphs" textLength="4.2" x="352.1839" y="444.7311">1</text><text fill="#000000" font-family="sans-serif" font-size="7.8" lengthAdjust="spacingAndGlyphs" textLength="13.2" x="745.1536" y="450.5293">0..1</text><!--MD5=[eb5852dbc47d71c866826fa2c15b0146]
link Pharmacy_Administrator to User--><path codeLine="173" d="M518.49,516.042 C543.534,521.454 573.384,527.91 596.286,532.854 " fill="none" id="Pharmacy_Administrator-User" style="stroke:#A80036;stroke-width:0.6;"/><polygon fill="#000000" points="548.0323,516.2652,543.1002,513.3952,542.3552,516.8424,548.0323,516.2652" style="stroke:#000000;stroke-width:0.6;"/><text fill="#000000" font-family="sans-serif" font-size="7.8" lengthAdjust="spacingAndGlyphs" textLength="21.6" x="550.5" y="518.8231">act as</text><text fill="#000000" font-family="sans-serif" font-size="7.8" lengthAdjust="spacingAndGlyphs" textLength="4.2" x="523.1471" y="525.5212">1</text><text fill="#000000" font-family="sans-serif" font-size="7.8" lengthAdjust="spacingAndGlyphs" textLength="4.2" x="587.319" y="540.577">1</text><!--MD5=[f7d34aaa58596d2a9433f1713c741419]
link Park to Park_Slot--><path codeLine="175" d="M515.838,721.326 C544.956,721.326 581.328,721.326 605.694,721.326 " fill="none" id="Park-Park_Slot" style="stroke:#A80036;stroke-width:0.6;"/><polygon fill="#000000" points="552.6,716.0315,547.1729,714.2681,547.1729,717.7948,552.6,716.0315" style="stroke:#000000;stroke-width:0.6;"/><text fill="#000000" font-family="sans-serif" font-size="7.8" lengthAdjust="spacingAndGlyphs" textLength="12.6" x="555" y="719.2231">has</text><text fill="#000000" font-family="sans-serif" font-size="7.8" lengthAdjust="spacingAndGlyphs" textLength="4.2" x="520.5691" y="729.8808">1</text><text fill="#000000" font-family="sans-serif" font-size="7.8" lengthAdjust="spacingAndGlyphs" textLength="12" x="588.9682" y="730.1267">1..*</text><!--MD5=[3f74902070b257033900cca3b57849c1]
link Park_Slot to Charging_Station--><path codeLine="177" d="M660.966,714.9 C687.444,708.612 728.004,698.976 757.686,691.932 " fill="none" id="Park_Slot-Charging_Station" style="stroke:#A80036;stroke-width:0.6;"/><polygon fill="#000000" points="704.9188,693.1383,699.2312,692.6766,700.046,696.1079,704.9188,693.1383" style="stroke:#000000;stroke-width:0.6;"/><text fill="#000000" font-family="sans-serif" font-size="7.8" lengthAdjust="spacingAndGlyphs" textLength="12.6" x="707.4" y="697.0231">has</text><text fill="#000000" font-family="sans-serif" font-size="7.8" lengthAdjust="spacingAndGlyphs" textLength="4.2" x="665.71" y="722.7704">1</text><text fill="#000000" font-family="sans-serif" font-size="7.8" lengthAdjust="spacingAndGlyphs" textLength="13.2" x="739.8336" y="701.4789">0..1</text><!--MD5=[05aa856e8ee5c6c142b8146a0597f534]
link Charging_Station to Scooter--><path codeLine="179" d="M829.716,707.61 C855.228,726.75 890.82,753.444 918.72,774.366 " fill="none" id="Charging_Station-Scooter" style="stroke:#A80036;stroke-width:0.6;"/><polygon fill="#000000" points="866.4,730.4315,863.1164,725.7645,861.0003,728.5859,866.4,730.4315" style="stroke:#000000;stroke-width:0.6;"/><text fill="#000000" font-family="sans-serif" font-size="7.8" lengthAdjust="spacingAndGlyphs" textLength="27.6" x="869.4" y="731.8231">charges</text><text fill="#000000" font-family="sans-serif" font-size="7.8" lengthAdjust="spacingAndGlyphs" textLength="4.2" x="830.1302" y="720.0747">1</text><text fill="#000000" font-family="sans-serif" font-size="7.8" lengthAdjust="spacingAndGlyphs" textLength="13.2" x="898.683" y="767.8229">0..1</text><!--MD5=[8052fc8ba9463fe92ec95da66bc4b2c2]
link Charging_Station to Drone--><path codeLine="180" d="M834.792,682.926 C858.81,682.926 890.022,682.926 915.564,682.926 " fill="none" id="Charging_Station-Drone" style="stroke:#A80036;stroke-width:0.6;"/><polygon fill="#000000" points="867,677.6315,861.5729,675.8681,861.5729,679.3948,867,677.6315" style="stroke:#000000;stroke-width:0.6;"/><text fill="#000000" font-family="sans-serif" font-size="7.8" lengthAdjust="spacingAndGlyphs" textLength="27.6" x="869.4" y="680.8231">charges</text><text fill="#000000" font-family="sans-serif" font-size="7.8" lengthAdjust="spacingAndGlyphs" textLength="4.2" x="839.497" y="691.6073">1</text><text fill="#000000" font-family="sans-serif" font-size="7.8" lengthAdjust="spacingAndGlyphs" textLength="13.2" x="897.5514" y="691.4552">0..1</text><!--MD5=[7befd493512dd3e445cc0ad97e4cc76f]
link Stock to Item--><path codeLine="181" d="M578.466,229.722 C621.858,229.278 723,228.258 770.334,227.784 " fill="none" id="Stock-Item" style="stroke:#A80036;stroke-width:0.6;"/><polygon fill="#000000" points="628.4998,224.0012,623.0553,222.2927,623.0909,225.8192,628.4998,224.0012" style="stroke:#000000;stroke-width:0.6;"/><text fill="#000000" font-family="sans-serif" font-size="7.8" lengthAdjust="spacingAndGlyphs" textLength="12.6" x="630.9" y="227.2231">has</text><text fill="#000000" font-family="sans-serif" font-size="7.8" lengthAdjust="spacingAndGlyphs" textLength="4.2" x="583.244" y="238.7989">1</text><text fill="#000000" font-family="sans-serif" font-size="7.8" lengthAdjust="spacingAndGlyphs" textLength="12" x="753.6537" y="236.6611">0..*</text><!--MD5=[879bec428a80d843af24dc47845bf14c]
link Client to Order--><path codeLine="183" d="M486.42,350.976 C497.838,373.734 514.668,401.04 536.4,419.526 C548.244,429.6 587.64,444.012 612.222,452.388 " fill="none" id="Client-Order" style="stroke:#A80036;stroke-width:0.6;"/><polygon fill="#000000" points="545.3356,416.1143,542.2171,411.3354,540.0038,414.0811,545.3356,416.1143" style="stroke:#000000;stroke-width:0.6;"/><text fill="#000000" font-family="sans-serif" font-size="7.8" lengthAdjust="spacingAndGlyphs" textLength="25.8" x="548.4" y="417.4231">creates</text><text fill="#000000" font-family="sans-serif" font-size="7.8" lengthAdjust="spacingAndGlyphs" textLength="4.2" x="488.4104" y="363.6209">1</text><text fill="#000000" font-family="sans-serif" font-size="7.8" lengthAdjust="spacingAndGlyphs" textLength="12" x="595.568" y="448.9286">0..*</text><!--MD5=[bd708f2371c655af07b49ddbdb30848a]
link Client to Address--><path codeLine="184" d="M511.59,294.612 C540.162,284.166 573.414,271.23 578.4,265.926 C595.896,247.308 584.67,234.024 596.4,211.326 C599.226,205.854 602.634,200.34 606.216,195.078 " fill="none" id="Client-Address" style="stroke:#A80036;stroke-width:0.6;"/><polygon fill="#000000" points="551.667,258.4572,546.6497,261.1755,549.2057,263.6054,551.667,258.4572" style="stroke:#000000;stroke-width:0.6;"/><text fill="#000000" font-family="sans-serif" font-size="7.8" lengthAdjust="spacingAndGlyphs" textLength="12.6" x="555" y="263.8231">has</text><text fill="#000000" font-family="sans-serif" font-size="7.8" lengthAdjust="spacingAndGlyphs" textLength="4.2" x="516.2708" y="301.6609">1</text><text fill="#000000" font-family="sans-serif" font-size="7.8" lengthAdjust="spacingAndGlyphs" textLength="4.2" x="598.4592" y="207.7824">1</text><!--MD5=[cd8f6db8a4cebbe1419048cb2df8098f]
link Client to Credits--><path codeLine="185" d="M511.518,324.354 C536.076,332.28 567.678,341.628 596.4,347.526 C649.608,358.452 711.942,364.752 752.52,368.004 " fill="none" id="Client-Credits" style="stroke:#A80036;stroke-width:0.6;"/><polygon fill="#000000" points="628.452,342.7661,623.4261,340.0638,622.7975,343.534,628.452,342.7661" style="stroke:#000000;stroke-width:0.6;"/><text fill="#000000" font-family="sans-serif" font-size="7.8" lengthAdjust="spacingAndGlyphs" textLength="12.6" x="630.9" y="345.4231">has</text><text fill="#000000" font-family="sans-serif" font-size="7.8" lengthAdjust="spacingAndGlyphs" textLength="4.2" x="516.1914" y="334.4701">1</text><text fill="#000000" font-family="sans-serif" font-size="7.8" lengthAdjust="spacingAndGlyphs" textLength="12" x="735.9401" y="376.2975">0..*</text><!--MD5=[9a8dc34b38f85b9f3fcdb440f4bffc6a]
link Client to User--><path codeLine="186" d="M487.68,351 C507.048,393.48 534.672,453.81 536.4,456.126 C553.17,478.602 576.756,499.446 596.394,514.824 " fill="none" id="Client-User" style="stroke:#A80036;stroke-width:0.6;"/><polygon fill="#000000" points="544.6588,453.3311,543.1273,447.8342,540.1887,449.7842,544.6588,453.3311" style="stroke:#000000;stroke-width:0.6;"/><text fill="#000000" font-family="sans-serif" font-size="7.8" lengthAdjust="spacingAndGlyphs" textLength="25.8" x="548.4" y="454.0231">acts as</text><text fill="#000000" font-family="sans-serif" font-size="7.8" lengthAdjust="spacingAndGlyphs" textLength="4.2" x="485.181" y="363.6472">1</text><text fill="#000000" font-family="sans-serif" font-size="7.8" lengthAdjust="spacingAndGlyphs" textLength="4.2" x="587.4401" y="520.3495">1</text><!--MD5=[0748050afd2139cbb3c9faec3f892ae9]
link Client to CreditCard--><path codeLine="187" d="M511.506,306.606 C538.524,304.626 573.018,302.1 598.29,300.246 " fill="none" id="Client-CreditCard" style="stroke:#A80036;stroke-width:0.6;"/><polygon fill="#000000" points="552.592,297.0122,547.0506,295.6502,547.3083,299.1675,552.592,297.0122" style="stroke:#000000;stroke-width:0.6;"/><text fill="#000000" font-family="sans-serif" font-size="7.8" lengthAdjust="spacingAndGlyphs" textLength="12.6" x="555" y="300.4231">has</text><text fill="#000000" font-family="sans-serif" font-size="7.8" lengthAdjust="spacingAndGlyphs" textLength="4.2" x="516.1782" y="314.8918">1</text><text fill="#000000" font-family="sans-serif" font-size="7.8" lengthAdjust="spacingAndGlyphs" textLength="4.2" x="589.5672" y="309.2355">1</text><!--MD5=[c527779f5283000ef9e8920c947669ac]
@startuml
hide methods
left to right direction

class Application {}

class Administrator {
    -Integer id
    -String name
    -String emailAddress
    -String password
}

class User {
    -Integer id
    -String name
    -String emailAddress
    -String password
}

class Client {
    -Integer id
    -String name
    -String emailAddress
    -String password
    -String cellphone
    -Integer nif
    -Integer numberOfCredits
}

class CreditCard {
    -String cardNumber
    -String ownerName
    -String csv
    -Date expireDate
}

class Credits {
    -Integer id
    -Integer numberOfCredits
    -Double ratioEuroToCredit
}

class Order {
    -Integer id
}

class Delivery {
    -Integer id
}

class Drone {
    -Integer id
    -Double batterySize
    -Double currentBattery
    -Double batteryConsumption
    -int payload
}

class Catalogue {}

class Pharmacy_Administrator {
    -Integer id
    -String name
    -String emailAddress
    -String password
}

class Pharmacy {
    -Integer id
    -String designation
    -String nif
}

class Courier {
    -Integer id
    -String name
    -String emailAddress
    -String password
    -String iban
    -Integer nif
}

class Park {
    -Integer id
    -String name
    -Integer numberOfSlots
    -Double maxEnergyCapacity
}

class Park_Slot {
    -Integer id
    -Boolean used
}

class Scooter {
    -Integer id
    -Double batterySize
    -Double currentBattery
    -Double batteryConsumption
    -String QRCode
}

class Charging_Station {
    -Integer id
    -Double capacity
    -Double power
}

class Geographical_location {
    -Double longitude
    -Double latitude
}

class Address {
    -Integer id
    -String street
    -Integer doorNumber
    -String city
    -String country
}

class Item {
    -Integer id
    -String name
    -Double price
}

class Stock {
    -Integer id
}

class Receipt {
    -Integer id
    -Double totalValue
}

Administrator "1" - - "1" User: acts as >
Administrator "1" - - "0..*" Courier: registers >
Administrator "1" - - "0..*" Scooter: creates >
Administrator "1" - - "0..1" Pharmacy: creates >
Administrator "1" - - "0..*" Drone: creates >



Application "1" - - "1" Pharmacy: has >
Application "1" - - "1" Catalogue: has >
Application "1" - - "1" Administrator: has >

Address "1" - - "1" Geographical_location: has >


Catalogue "1" - - "*" Item: has >

Courier "1" - - "1" User: acts as >
Courier "1" - - "1" Delivery: acts as >
Courier "1" - - "0..*" Order: has >
Courier "1" - - "1" Scooter: uses >

Order "1..*" - - "1" Delivery: has >
Order "1" - - "1..*" Item: has >
Order "1" - - "1" Receipt: generates >
Order "1" - - "0..*" Credits: generates >

Pharmacy "1" - - "1" Pharmacy_Administrator: has >
Pharmacy "1" - - "0..*" Courier: has >
Pharmacy "1" - - "0..*" Order: has >
Pharmacy "1" - - "0..*" Park: has >
Pharmacy "1" - - "0..*" Scooter: has >
Pharmacy "1" - - "0..*" Drone: has >
Pharmacy "1" - - "1" Stock: has >
Pharmacy "1" - - "1" Address: has >
Pharmacy "1" - - "0..1" Receipt: has >
Pharmacy_Administrator "1" - - "1" User: act as >

Park "1" - - "1..*" Park_Slot: has >

Park_Slot "1" - - "0..1" Charging_Station: has >

Charging_Station "1" - - "0..1" Scooter: charges >
Charging_Station "1" - - "0..1" Drone: charges >
Stock "1" - - "0..*" Item: has >

Client "1" - - "0..*" Order: creates >
Client "1" - - "1" Address: has >
Client "1" - - "0..*" Credits: has >
Client "1" - - "1" User: acts as >
Client "1" - - "1" CreditCard: has >

@enduml

PlantUML version 1.2020.23(Sun Dec 13 19:14:58 GMT 2020)
(GPL source distribution)
Java Runtime: OpenJDK Runtime Environment
JVM: OpenJDK 64-Bit Server VM
Default Encoding: Cp1252
Language: pt
Country: PT
--></g></svg>