<?xml version="1.0" encoding="UTF-8" standalone="no"?><svg xmlns="http://www.w3.org/2000/svg" xmlns:xlink="http://www.w3.org/1999/xlink" contentScriptType="application/ecmascript" contentStyleType="text/css" height="786px" preserveAspectRatio="none" style="width:909px;height:786px;" version="1.1" viewBox="0 0 909 786" width="909px" zoomAndPan="magnify"><defs><filter height="300%" id="f181dvsx876plr" width="300%" x="-1" y="-1"><feGaussianBlur result="blurOut" stdDeviation="2.0"/><feColorMatrix in="blurOut" result="blurOut2" type="matrix" values="0 0 0 0 0 0 0 0 0 0 0 0 0 0 0 0 0 0 .4 0"/><feOffset dx="4.0" dy="4.0" in="blurOut2" result="blurOut3"/><feBlend in="SourceGraphic" in2="blurOut3" mode="normal"/></filter></defs><g><rect fill="#FFFFFF" filter="url(#f181dvsx876plr)" height="583.2734" style="stroke:#A80036;stroke-width:1.0;" width="10" x="21" y="99.6094"/><rect fill="#FFFFFF" filter="url(#f181dvsx876plr)" height="332.4609" style="stroke:#A80036;stroke-width:1.0;" width="10" x="323" y="121.9609"/><rect fill="#FFFFFF" filter="url(#f181dvsx876plr)" height="121.0547" style="stroke:#A80036;stroke-width:1.0;" width="10" x="323" y="501.125"/><rect fill="#FFFFFF" filter="url(#f181dvsx876plr)" height="30.3516" style="stroke:#A80036;stroke-width:1.0;" width="10" x="323" y="652.5313"/><rect fill="#FFFFFF" filter="url(#f181dvsx876plr)" height="271.7578" style="stroke:#A80036;stroke-width:1.0;" width="10" x="481" y="152.3125"/><rect fill="#FFFFFF" filter="url(#f181dvsx876plr)" height="90.7031" style="stroke:#A80036;stroke-width:1.0;" width="10" x="481" y="501.125"/><rect fill="#FFFFFF" filter="url(#f181dvsx876plr)" height="30" style="stroke:#A80036;stroke-width:1.0;" width="10" x="617" y="243.0156"/><rect fill="#FFFFFF" filter="url(#f181dvsx876plr)" height="30" style="stroke:#A80036;stroke-width:1.0;" width="10" x="617" y="303.3672"/><rect fill="#FFFFFF" filter="url(#f181dvsx876plr)" height="60.3516" style="stroke:#A80036;stroke-width:1.0;" width="10" x="617" y="363.7188"/><rect fill="#FFFFFF" filter="url(#f181dvsx876plr)" height="30" style="stroke:#A80036;stroke-width:1.0;" width="10" x="705.5" y="561.8281"/><rect fill="#FFFFFF" filter="url(#f181dvsx876plr)" height="30" style="stroke:#A80036;stroke-width:1.0;" width="10" x="800" y="182.6641"/><rect fill="#FFFFFF" filter="url(#f181dvsx876plr)" height="30" style="stroke:#A80036;stroke-width:1.0;" width="10" x="871.5" y="394.0703"/><line style="stroke:#A80036;stroke-width:1.0;stroke-dasharray:5.0,5.0;" x1="26" x2="26" y1="89.6094" y2="700.8828"/><line style="stroke:#A80036;stroke-width:1.0;stroke-dasharray:5.0,5.0;" x1="328" x2="328" y1="89.6094" y2="700.8828"/><line style="stroke:#A80036;stroke-width:1.0;stroke-dasharray:5.0,5.0;" x1="486" x2="486" y1="89.6094" y2="700.8828"/><line style="stroke:#A80036;stroke-width:1.0;stroke-dasharray:5.0,5.0;" x1="622" x2="622" y1="89.6094" y2="700.8828"/><line style="stroke:#A80036;stroke-width:1.0;stroke-dasharray:5.0,5.0;" x1="710" x2="710" y1="89.6094" y2="700.8828"/><line style="stroke:#A80036;stroke-width:1.0;stroke-dasharray:5.0,5.0;" x1="805" x2="805" y1="89.6094" y2="700.8828"/><line style="stroke:#A80036;stroke-width:1.0;stroke-dasharray:5.0,5.0;" x1="876" x2="876" y1="89.6094" y2="700.8828"/><text fill="#000000" font-family="sans-serif" font-size="14" lengthAdjust="spacingAndGlyphs" textLength="36" x="5" y="86.5332">Client</text><ellipse cx="26" cy="15" fill="#FEFECE" filter="url(#f181dvsx876plr)" rx="8" ry="8" style="stroke:#A80036;stroke-width:2.0;"/><path d="M26,23 L26,50 M13,31 L39,31 M26,50 L13,65 M26,50 L39,65 " fill="none" filter="url(#f181dvsx876plr)" style="stroke:#A80036;stroke-width:2.0;"/><text fill="#000000" font-family="sans-serif" font-size="14" lengthAdjust="spacingAndGlyphs" textLength="36" x="5" y="714.416">Client</text><ellipse cx="26" cy="727.4922" fill="#FEFECE" filter="url(#f181dvsx876plr)" rx="8" ry="8" style="stroke:#A80036;stroke-width:2.0;"/><path d="M26,735.4922 L26,762.4922 M13,743.4922 L39,743.4922 M26,762.4922 L13,777.4922 M26,762.4922 L39,777.4922 " fill="none" filter="url(#f181dvsx876plr)" style="stroke:#A80036;stroke-width:2.0;"/><rect fill="#FEFECE" filter="url(#f181dvsx876plr)" height="31.6094" style="stroke:#A80036;stroke-width:1.5;" width="116" x="268" y="53"/><text fill="#000000" font-family="sans-serif" font-size="14" lengthAdjust="spacingAndGlyphs" textLength="102" x="275" y="74.5332">:AssignOrdersUI</text><rect fill="#FEFECE" filter="url(#f181dvsx876plr)" height="31.6094" style="stroke:#A80036;stroke-width:1.5;" width="116" x="268" y="699.8828"/><text fill="#000000" font-family="sans-serif" font-size="14" lengthAdjust="spacingAndGlyphs" textLength="102" x="275" y="721.416">:AssignOrdersUI</text><rect fill="#FEFECE" filter="url(#f181dvsx876plr)" height="31.6094" style="stroke:#A80036;stroke-width:1.5;" width="166" x="401" y="53"/><text fill="#000000" font-family="sans-serif" font-size="14" lengthAdjust="spacingAndGlyphs" textLength="152" x="408" y="74.5332">:AssignOrdersController</text><rect fill="#FEFECE" filter="url(#f181dvsx876plr)" height="31.6094" style="stroke:#A80036;stroke-width:1.5;" width="166" x="401" y="699.8828"/><text fill="#000000" font-family="sans-serif" font-size="14" lengthAdjust="spacingAndGlyphs" textLength="152" x="408" y="721.416">:AssignOrdersController</text><rect fill="#FEFECE" filter="url(#f181dvsx876plr)" height="31.6094" style="stroke:#A80036;stroke-width:1.5;" width="62" x="589" y="53"/><text fill="#000000" font-family="sans-serif" font-size="14" lengthAdjust="spacingAndGlyphs" textLength="48" x="596" y="74.5332">:Orders</text><rect fill="#FEFECE" filter="url(#f181dvsx876plr)" height="31.6094" style="stroke:#A80036;stroke-width:1.5;" width="62" x="589" y="699.8828"/><text fill="#000000" font-family="sans-serif" font-size="14" lengthAdjust="spacingAndGlyphs" textLength="48" x="596" y="721.416">:Orders</text><rect fill="#FEFECE" filter="url(#f181dvsx876plr)" height="31.6094" style="stroke:#A80036;stroke-width:1.5;" width="87" x="665" y="53"/><text fill="#000000" font-family="sans-serif" font-size="14" lengthAdjust="spacingAndGlyphs" textLength="73" x="672" y="74.5332">:Application</text><rect fill="#FEFECE" filter="url(#f181dvsx876plr)" height="31.6094" style="stroke:#A80036;stroke-width:1.5;" width="87" x="665" y="699.8828"/><text fill="#000000" font-family="sans-serif" font-size="14" lengthAdjust="spacingAndGlyphs" textLength="73" x="672" y="721.416">:Application</text><rect fill="#FEFECE" filter="url(#f181dvsx876plr)" height="31.6094" style="stroke:#A80036;stroke-width:1.5;" width="74" x="766" y="53"/><text fill="#000000" font-family="sans-serif" font-size="14" lengthAdjust="spacingAndGlyphs" textLength="60" x="773" y="74.5332">:OrderDB</text><rect fill="#FEFECE" filter="url(#f181dvsx876plr)" height="31.6094" style="stroke:#A80036;stroke-width:1.5;" width="74" x="766" y="699.8828"/><text fill="#000000" font-family="sans-serif" font-size="14" lengthAdjust="spacingAndGlyphs" textLength="60" x="773" y="721.416">:OrderDB</text><rect fill="#FEFECE" filter="url(#f181dvsx876plr)" height="31.6094" style="stroke:#A80036;stroke-width:1.5;" width="41" x="854" y="53"/><text fill="#000000" font-family="sans-serif" font-size="14" lengthAdjust="spacingAndGlyphs" textLength="27" x="861" y="74.5332">DEL</text><rect fill="#FEFECE" filter="url(#f181dvsx876plr)" height="31.6094" style="stroke:#A80036;stroke-width:1.5;" width="41" x="854" y="699.8828"/><text fill="#000000" font-family="sans-serif" font-size="14" lengthAdjust="spacingAndGlyphs" textLength="27" x="861" y="721.416">DEL</text><rect fill="#FFFFFF" filter="url(#f181dvsx876plr)" height="583.2734" style="stroke:#A80036;stroke-width:1.0;" width="10" x="21" y="99.6094"/><rect fill="#FFFFFF" filter="url(#f181dvsx876plr)" height="332.4609" style="stroke:#A80036;stroke-width:1.0;" width="10" x="323" y="121.9609"/><rect fill="#FFFFFF" filter="url(#f181dvsx876plr)" height="121.0547" style="stroke:#A80036;stroke-width:1.0;" width="10" x="323" y="501.125"/><rect fill="#FFFFFF" filter="url(#f181dvsx876plr)" height="30.3516" style="stroke:#A80036;stroke-width:1.0;" width="10" x="323" y="652.5313"/><rect fill="#FFFFFF" filter="url(#f181dvsx876plr)" height="271.7578" style="stroke:#A80036;stroke-width:1.0;" width="10" x="481" y="152.3125"/><rect fill="#FFFFFF" filter="url(#f181dvsx876plr)" height="90.7031" style="stroke:#A80036;stroke-width:1.0;" width="10" x="481" y="501.125"/><rect fill="#FFFFFF" filter="url(#f181dvsx876plr)" height="30" style="stroke:#A80036;stroke-width:1.0;" width="10" x="617" y="243.0156"/><rect fill="#FFFFFF" filter="url(#f181dvsx876plr)" height="30" style="stroke:#A80036;stroke-width:1.0;" width="10" x="617" y="303.3672"/><rect fill="#FFFFFF" filter="url(#f181dvsx876plr)" height="60.3516" style="stroke:#A80036;stroke-width:1.0;" width="10" x="617" y="363.7188"/><rect fill="#FFFFFF" filter="url(#f181dvsx876plr)" height="30" style="stroke:#A80036;stroke-width:1.0;" width="10" x="705.5" y="561.8281"/><rect fill="#FFFFFF" filter="url(#f181dvsx876plr)" height="30" style="stroke:#A80036;stroke-width:1.0;" width="10" x="800" y="182.6641"/><rect fill="#FFFFFF" filter="url(#f181dvsx876plr)" height="30" style="stroke:#A80036;stroke-width:1.0;" width="10" x="871.5" y="394.0703"/><polygon fill="#A80036" points="311,117.9609,321,121.9609,311,125.9609,315,121.9609" style="stroke:#A80036;stroke-width:1.0;"/><line style="stroke:#A80036;stroke-width:1.0;" x1="31" x2="317" y1="121.9609" y2="121.9609"/><text fill="#000000" font-family="sans-serif" font-size="13" font-weight="bold" lengthAdjust="spacingAndGlyphs" textLength="7" x="38" y="117.1045">1</text><text fill="#000000" font-family="sans-serif" font-size="13" lengthAdjust="spacingAndGlyphs" textLength="224" x="49" y="117.1045">Access the orders made by the clients</text><polygon fill="#A80036" points="469,148.3125,479,152.3125,469,156.3125,473,152.3125" style="stroke:#A80036;stroke-width:1.0;"/><line style="stroke:#A80036;stroke-width:1.0;" x1="333" x2="475" y1="152.3125" y2="152.3125"/><text fill="#000000" font-family="sans-serif" font-size="13" font-weight="bold" lengthAdjust="spacingAndGlyphs" textLength="7" x="340" y="147.4561">2</text><text fill="#000000" font-family="sans-serif" font-size="13" lengthAdjust="spacingAndGlyphs" textLength="87" x="351" y="147.4561">getOrder(order)</text><polygon fill="#A80036" points="788,178.6641,798,182.6641,788,186.6641,792,182.6641" style="stroke:#A80036;stroke-width:1.0;"/><line style="stroke:#A80036;stroke-width:1.0;" x1="491" x2="794" y1="182.6641" y2="182.6641"/><text fill="#000000" font-family="sans-serif" font-size="13" font-weight="bold" lengthAdjust="spacingAndGlyphs" textLength="7" x="498" y="177.8076">3</text><text fill="#000000" font-family="sans-serif" font-size="13" lengthAdjust="spacingAndGlyphs" textLength="97" x="509" y="177.8076">getOrder(orderId)</text><polygon fill="#A80036" points="605,239.0156,615,243.0156,605,247.0156,609,243.0156" style="stroke:#A80036;stroke-width:1.0;"/><line style="stroke:#A80036;stroke-width:1.0;" x1="491" x2="611" y1="243.0156" y2="243.0156"/><text fill="#000000" font-family="sans-serif" font-size="13" font-weight="bold" lengthAdjust="spacingAndGlyphs" textLength="7" x="498" y="238.1592">4</text><text fill="#000000" font-family="sans-serif" font-size="13" lengthAdjust="spacingAndGlyphs" textLength="66" x="509" y="238.1592">getDetails()</text><polygon fill="#A80036" points="605,299.3672,615,303.3672,605,307.3672,609,303.3672" style="stroke:#A80036;stroke-width:1.0;"/><line style="stroke:#A80036;stroke-width:1.0;" x1="491" x2="611" y1="303.3672" y2="303.3672"/><text fill="#000000" font-family="sans-serif" font-size="13" font-weight="bold" lengthAdjust="spacingAndGlyphs" textLength="7" x="498" y="298.5107">5</text><text fill="#000000" font-family="sans-serif" font-size="13" lengthAdjust="spacingAndGlyphs" textLength="71" x="509" y="298.5107">getDelivery()</text><polygon fill="#A80036" points="605,359.7188,615,363.7188,605,367.7188,609,363.7188" style="stroke:#A80036;stroke-width:1.0;"/><line style="stroke:#A80036;stroke-width:1.0;" x1="491" x2="611" y1="363.7188" y2="363.7188"/><text fill="#000000" font-family="sans-serif" font-size="13" font-weight="bold" lengthAdjust="spacingAndGlyphs" textLength="7" x="498" y="358.8623">6</text><text fill="#000000" font-family="sans-serif" font-size="13" lengthAdjust="spacingAndGlyphs" textLength="96" x="509" y="358.8623">getOrderStatus()</text><polygon fill="#A80036" points="859.5,390.0703,869.5,394.0703,859.5,398.0703,863.5,394.0703" style="stroke:#A80036;stroke-width:1.0;"/><line style="stroke:#A80036;stroke-width:1.0;" x1="627" x2="865.5" y1="394.0703" y2="394.0703"/><text fill="#000000" font-family="sans-serif" font-size="13" font-weight="bold" lengthAdjust="spacingAndGlyphs" textLength="7" x="634" y="389.2139">7</text><text fill="#000000" font-family="sans-serif" font-size="13" lengthAdjust="spacingAndGlyphs" textLength="64" x="645" y="389.2139">getStatus()</text><polygon fill="#A80036" points="42,450.4219,32,454.4219,42,458.4219,38,454.4219" style="stroke:#A80036;stroke-width:1.0;"/><line style="stroke:#A80036;stroke-width:1.0;stroke-dasharray:2.0,2.0;" x1="36" x2="327" y1="454.4219" y2="454.4219"/><text fill="#000000" font-family="sans-serif" font-size="13" font-weight="bold" lengthAdjust="spacingAndGlyphs" textLength="7" x="48" y="449.5654">8</text><text fill="#000000" font-family="sans-serif" font-size="13" lengthAdjust="spacingAndGlyphs" textLength="101" x="59" y="449.5654">Shows the orders</text><polygon fill="#A80036" points="311,497.125,321,501.125,311,505.125,315,501.125" style="stroke:#A80036;stroke-width:1.0;"/><line style="stroke:#A80036;stroke-width:1.0;" x1="31" x2="317" y1="501.125" y2="501.125"/><text fill="#000000" font-family="sans-serif" font-size="13" font-weight="bold" lengthAdjust="spacingAndGlyphs" textLength="7" x="38" y="488.0928">9</text><text fill="#000000" font-family="sans-serif" font-size="13" lengthAdjust="spacingAndGlyphs" textLength="201" x="49" y="479.917">Assigns the orders to each Courier</text><text fill="#000000" font-family="sans-serif" font-size="13" lengthAdjust="spacingAndGlyphs" textLength="141" x="49" y="496.2686">according to his payload</text><polygon fill="#A80036" points="469,527.4766,479,531.4766,469,535.4766,473,531.4766" style="stroke:#A80036;stroke-width:1.0;"/><line style="stroke:#A80036;stroke-width:1.0;stroke-dasharray:2.0,2.0;" x1="333" x2="475" y1="531.4766" y2="531.4766"/><text fill="#000000" font-family="sans-serif" font-size="13" font-weight="bold" lengthAdjust="spacingAndGlyphs" textLength="14" x="340" y="526.6201">10</text><text fill="#000000" font-family="sans-serif" font-size="13" lengthAdjust="spacingAndGlyphs" textLength="106" x="358" y="526.6201">getCourier(courier)</text><polygon fill="#A80036" points="693.5,557.8281,703.5,561.8281,693.5,565.8281,697.5,561.8281" style="stroke:#A80036;stroke-width:1.0;"/><line style="stroke:#A80036;stroke-width:1.0;stroke-dasharray:2.0,2.0;" x1="491" x2="699.5" y1="561.8281" y2="561.8281"/><text fill="#000000" font-family="sans-serif" font-size="13" font-weight="bold" lengthAdjust="spacingAndGlyphs" textLength="14" x="498" y="556.9717">11</text><text fill="#000000" font-family="sans-serif" font-size="13" lengthAdjust="spacingAndGlyphs" textLength="114" x="516" y="556.9717">courier=getCourier()</text><polygon fill="#A80036" points="42,618.1797,32,622.1797,42,626.1797,38,622.1797" style="stroke:#A80036;stroke-width:1.0;"/><line style="stroke:#A80036;stroke-width:1.0;stroke-dasharray:2.0,2.0;" x1="36" x2="327" y1="622.1797" y2="622.1797"/><text fill="#000000" font-family="sans-serif" font-size="13" font-weight="bold" lengthAdjust="spacingAndGlyphs" textLength="14" x="48" y="617.3232">12</text><text fill="#000000" font-family="sans-serif" font-size="13" lengthAdjust="spacingAndGlyphs" textLength="250" x="66" y="617.3232">presents the data and asks for confirmation</text><polygon fill="#A80036" points="311,648.5313,321,652.5313,311,656.5313,315,652.5313" style="stroke:#A80036;stroke-width:1.0;"/><line style="stroke:#A80036;stroke-width:1.0;" x1="31" x2="317" y1="652.5313" y2="652.5313"/><text fill="#000000" font-family="sans-serif" font-size="13" font-weight="bold" lengthAdjust="spacingAndGlyphs" textLength="14" x="38" y="647.6748">13</text><text fill="#000000" font-family="sans-serif" font-size="13" lengthAdjust="spacingAndGlyphs" textLength="51" x="56" y="647.6748">Confirms</text><polygon fill="#A80036" points="37,678.8828,27,682.8828,37,686.8828,33,682.8828" style="stroke:#A80036;stroke-width:1.0;"/><line style="stroke:#A80036;stroke-width:1.0;stroke-dasharray:2.0,2.0;" x1="31" x2="327" y1="682.8828" y2="682.8828"/><text fill="#000000" font-family="sans-serif" font-size="13" font-weight="bold" lengthAdjust="spacingAndGlyphs" textLength="14" x="43" y="678.0264">14</text><text fill="#000000" font-family="sans-serif" font-size="13" lengthAdjust="spacingAndGlyphs" textLength="220" x="61" y="678.0264">Presents the success of the operation</text><!--MD5=[bff988d54236d226f0bc8a8dfdfcf9ef]
@startuml
autonumber

actor "Client" as CLI
participant ":AssignOrdersUI" as UI
participant ":AssignOrdersController" as CTRL
participant ":Orders" as ORD
participant ":Application" as SYS
participant ":OrderDB" as ORDDB

activate CLI
CLI -> UI : Access the orders made by the clients
activate UI

UI -> CTRL : getOrder(order)
activate CTRL

CTRL -> ORDDB : getOrder(orderId)
activate ORDDB
deactivate ORDDB

CTRL -> ORD : getDetails()
activate ORD
deactivate ORD

CTRL -> ORD : getDelivery()
activate ORD
deactivate ORD

CTRL -> ORD : getOrderStatus()
activate ORD
ORD -> DEL : getStatus()
activate DEL

deactivate DEL
deactivate ORD
deactivate CTRL


UI - -> CLI :Shows the orders

deactivate UI

CLI -> UI : Assigns the orders to each Courier \naccording to his payload
activate UI
activate  CTRL
UI - ->CTRL :getCourier(courier)
CTRL - -> SYS: courier=getCourier()
activate SYS
deactivate SYS
deactivate CTRL
UI - -> CLI : presents the data and asks for confirmation
deactivate UI

CLI -> UI : Confirms
activate UI
UI - -> CLI : Presents the success of the operation
deactivate UI


deactivate CTRL

deactivate UI

deactivate CLI
@enduml

PlantUML version 1.2020.23(Sun Dec 13 19:14:58 GMT 2020)
(GPL source distribution)
Java Runtime: OpenJDK Runtime Environment
JVM: OpenJDK 64-Bit Server VM
Default Encoding: Cp1252
Language: pt
Country: PT
--></g></svg>