<?xml version="1.0" encoding="UTF-8" standalone="no"?><svg xmlns="http://www.w3.org/2000/svg" xmlns:xlink="http://www.w3.org/1999/xlink" contentScriptType="application/ecmascript" contentStyleType="text/css" height="304px" preserveAspectRatio="none" style="width:534px;height:304px;" version="1.1" viewBox="0 0 534 304" width="534px" zoomAndPan="magnify"><defs><filter height="300%" id="f1mbzmdf05nryf" width="300%" x="-1" y="-1"><feGaussianBlur result="blurOut" stdDeviation="2.0"/><feColorMatrix in="blurOut" result="blurOut2" type="matrix" values="0 0 0 0 0 0 0 0 0 0 0 0 0 0 0 0 0 0 .4 0"/><feOffset dx="4.0" dy="4.0" in="blurOut2" result="blurOut3"/><feBlend in="SourceGraphic" in2="blurOut3" mode="normal"/></filter></defs><g><!--MD5=[4bca335f178eef0487e9feb993c3728e]
class AssignOrdersUI--><rect codeLine="4" fill="#FEFECE" filter="url(#f1mbzmdf05nryf)" height="48" id="AssignOrdersUI" style="stroke:#A80036;stroke-width:1.5;" width="120" x="7" y="139"/><ellipse cx="22" cy="155" fill="#ADD1B2" rx="11" ry="11" style="stroke:#A80036;stroke-width:1.0;"/><path d="M24,151.5 Q24.2031,151 24.4375,150.75 Q24.6719,150.5 24.9375,150.5 Q25.4063,150.5 25.7031,150.7813 Q26,151.0625 26,151.7188 L26,153.2813 Q26,153.9375 25.7188,154.2188 Q25.4375,154.5 25,154.5 Q24.6094,154.5 24.3594,154.3281 Q24.1094,154.1563 24,153.7031 Q23.9531,153.3906 23.7813,153.2188 Q23.4688,152.8906 22.9063,152.7031 Q22.3438,152.5 21.7813,152.5 Q21.0781,152.5 20.4844,152.7813 Q19.9063,153.0625 19.4531,153.6875 Q19,154.3125 19,155.1719 L19,156.0938 Q19,157.125 19.8438,157.8125 Q20.6875,158.5 22.1875,158.5 Q23.0781,158.5 23.7031,158.2969 Q24.0625,158.1875 24.4688,157.8281 Q24.7344,157.625 24.875,157.5625 Q25.0156,157.5 25.1875,157.5 Q25.5156,157.5 25.75,157.7656 Q26,158.0156 26,158.375 Q26,158.7188 25.6563,159.125 Q25.1563,159.7188 24.3594,160.0469 Q23.3125,160.5 22.0313,160.5 Q20.5313,160.5 19.3281,159.9063 Q18.3594,159.4375 17.6719,158.4219 Q17,157.4063 17,156.2031 L17,155.1094 Q17,153.8594 17.5938,152.7656 Q18.2031,151.6719 19.25,151.0938 Q20.3125,150.5 21.5,150.5 Q22.2188,150.5 22.8438,150.75 Q23.4688,151 24,151.5 Z " fill="#000000"/><text fill="#000000" font-family="sans-serif" font-size="12" lengthAdjust="spacingAndGlyphs" textLength="88" x="36" y="159.9102">AssignOrdersUI</text><line style="stroke:#A80036;stroke-width:1.5;" x1="8" x2="126" y1="171" y2="171"/><line style="stroke:#A80036;stroke-width:1.5;" x1="8" x2="126" y1="179" y2="179"/><!--MD5=[6621d4a96d601e8a8c51b88c8f945690]
class AssignOrdersController--><rect codeLine="7" fill="#FEFECE" filter="url(#f1mbzmdf05nryf)" height="61.8359" id="AssignOrdersController" style="stroke:#A80036;stroke-width:1.5;" width="162" x="187" y="132"/><ellipse cx="202" cy="148" fill="#ADD1B2" rx="11" ry="11" style="stroke:#A80036;stroke-width:1.0;"/><path d="M204,144.5 Q204.2031,144 204.4375,143.75 Q204.6719,143.5 204.9375,143.5 Q205.4063,143.5 205.7031,143.7813 Q206,144.0625 206,144.7188 L206,146.2813 Q206,146.9375 205.7188,147.2188 Q205.4375,147.5 205,147.5 Q204.6094,147.5 204.3594,147.3281 Q204.1094,147.1563 204,146.7031 Q203.9531,146.3906 203.7813,146.2188 Q203.4688,145.8906 202.9063,145.7031 Q202.3438,145.5 201.7813,145.5 Q201.0781,145.5 200.4844,145.7813 Q199.9063,146.0625 199.4531,146.6875 Q199,147.3125 199,148.1719 L199,149.0938 Q199,150.125 199.8438,150.8125 Q200.6875,151.5 202.1875,151.5 Q203.0781,151.5 203.7031,151.2969 Q204.0625,151.1875 204.4688,150.8281 Q204.7344,150.625 204.875,150.5625 Q205.0156,150.5 205.1875,150.5 Q205.5156,150.5 205.75,150.7656 Q206,151.0156 206,151.375 Q206,151.7188 205.6563,152.125 Q205.1563,152.7188 204.3594,153.0469 Q203.3125,153.5 202.0313,153.5 Q200.5313,153.5 199.3281,152.9063 Q198.3594,152.4375 197.6719,151.4219 Q197,150.4063 197,149.2031 L197,148.1094 Q197,146.8594 197.5938,145.7656 Q198.2031,144.6719 199.25,144.0938 Q200.3125,143.5 201.5,143.5 Q202.2188,143.5 202.8438,143.75 Q203.4688,144 204,144.5 Z " fill="#000000"/><text fill="#000000" font-family="sans-serif" font-size="12" lengthAdjust="spacingAndGlyphs" textLength="130" x="216" y="152.9102">AssignOrdersController</text><line style="stroke:#A80036;stroke-width:1.5;" x1="188" x2="348" y1="164" y2="164"/><line style="stroke:#A80036;stroke-width:1.5;" x1="188" x2="348" y1="172" y2="172"/><ellipse cx="198" cy="183" fill="#84BE84" rx="3" ry="3" style="stroke:#038048;stroke-width:1.0;"/><text fill="#000000" font-family="sans-serif" font-size="11" lengthAdjust="spacingAndGlyphs" textLength="77" x="207" y="187.4189">getOrder(order)</text><!--MD5=[3697c748582ba6ae2da7eb985750dc04]
class Orders--><rect codeLine="11" fill="#FEFECE" filter="url(#f1mbzmdf05nryf)" height="89.5078" id="Orders" style="stroke:#A80036;stroke-width:1.5;" width="108" x="410.5" y="7"/><ellipse cx="442.6" cy="23" fill="#ADD1B2" rx="11" ry="11" style="stroke:#A80036;stroke-width:1.0;"/><path d="M444.6,19.5 Q444.8031,19 445.0375,18.75 Q445.2719,18.5 445.5375,18.5 Q446.0063,18.5 446.3031,18.7813 Q446.6,19.0625 446.6,19.7188 L446.6,21.2813 Q446.6,21.9375 446.3188,22.2188 Q446.0375,22.5 445.6,22.5 Q445.2094,22.5 444.9594,22.3281 Q444.7094,22.1563 444.6,21.7031 Q444.5531,21.3906 444.3813,21.2188 Q444.0688,20.8906 443.5063,20.7031 Q442.9438,20.5 442.3813,20.5 Q441.6781,20.5 441.0844,20.7813 Q440.5063,21.0625 440.0531,21.6875 Q439.6,22.3125 439.6,23.1719 L439.6,24.0938 Q439.6,25.125 440.4438,25.8125 Q441.2875,26.5 442.7875,26.5 Q443.6781,26.5 444.3031,26.2969 Q444.6625,26.1875 445.0688,25.8281 Q445.3344,25.625 445.475,25.5625 Q445.6156,25.5 445.7875,25.5 Q446.1156,25.5 446.35,25.7656 Q446.6,26.0156 446.6,26.375 Q446.6,26.7188 446.2563,27.125 Q445.7563,27.7188 444.9594,28.0469 Q443.9125,28.5 442.6313,28.5 Q441.1313,28.5 439.9281,27.9063 Q438.9594,27.4375 438.2719,26.4219 Q437.6,25.4063 437.6,24.2031 L437.6,23.1094 Q437.6,21.8594 438.1938,20.7656 Q438.8031,19.6719 439.85,19.0938 Q440.9125,18.5 442.1,18.5 Q442.8188,18.5 443.4438,18.75 Q444.0688,19 444.6,19.5 Z " fill="#000000"/><text fill="#000000" font-family="sans-serif" font-size="12" lengthAdjust="spacingAndGlyphs" textLength="38" x="460.4" y="27.9102">Orders</text><line style="stroke:#A80036;stroke-width:1.5;" x1="411.5" x2="517.5" y1="39" y2="39"/><line style="stroke:#A80036;stroke-width:1.5;" x1="411.5" x2="517.5" y1="47" y2="47"/><ellipse cx="421.5" cy="58" fill="#84BE84" rx="3" ry="3" style="stroke:#038048;stroke-width:1.0;"/><text fill="#000000" font-family="sans-serif" font-size="11" lengthAdjust="spacingAndGlyphs" textLength="55" x="430.5" y="62.4189">getDetails()</text><ellipse cx="421.5" cy="71.8359" fill="#84BE84" rx="3" ry="3" style="stroke:#038048;stroke-width:1.0;"/><text fill="#000000" font-family="sans-serif" font-size="11" lengthAdjust="spacingAndGlyphs" textLength="62" x="430.5" y="76.2549">getDelivery()</text><ellipse cx="421.5" cy="85.6719" fill="#84BE84" rx="3" ry="3" style="stroke:#038048;stroke-width:1.0;"/><text fill="#000000" font-family="sans-serif" font-size="11" lengthAdjust="spacingAndGlyphs" textLength="82" x="430.5" y="90.0908">getOrderStatus()</text><!--MD5=[0b4e4b4980470ea387cc45de9bd14b5b]
class Application--><rect codeLine="17" fill="#FEFECE" filter="url(#f1mbzmdf05nryf)" height="61.8359" id="Application" style="stroke:#A80036;stroke-width:1.5;" width="92" x="418.5" y="132"/><ellipse cx="433.5" cy="148" fill="#ADD1B2" rx="11" ry="11" style="stroke:#A80036;stroke-width:1.0;"/><path d="M435.5,144.5 Q435.7031,144 435.9375,143.75 Q436.1719,143.5 436.4375,143.5 Q436.9063,143.5 437.2031,143.7813 Q437.5,144.0625 437.5,144.7188 L437.5,146.2813 Q437.5,146.9375 437.2188,147.2188 Q436.9375,147.5 436.5,147.5 Q436.1094,147.5 435.8594,147.3281 Q435.6094,147.1563 435.5,146.7031 Q435.4531,146.3906 435.2813,146.2188 Q434.9688,145.8906 434.4063,145.7031 Q433.8438,145.5 433.2813,145.5 Q432.5781,145.5 431.9844,145.7813 Q431.4063,146.0625 430.9531,146.6875 Q430.5,147.3125 430.5,148.1719 L430.5,149.0938 Q430.5,150.125 431.3438,150.8125 Q432.1875,151.5 433.6875,151.5 Q434.5781,151.5 435.2031,151.2969 Q435.5625,151.1875 435.9688,150.8281 Q436.2344,150.625 436.375,150.5625 Q436.5156,150.5 436.6875,150.5 Q437.0156,150.5 437.25,150.7656 Q437.5,151.0156 437.5,151.375 Q437.5,151.7188 437.1563,152.125 Q436.6563,152.7188 435.8594,153.0469 Q434.8125,153.5 433.5313,153.5 Q432.0313,153.5 430.8281,152.9063 Q429.8594,152.4375 429.1719,151.4219 Q428.5,150.4063 428.5,149.2031 L428.5,148.1094 Q428.5,146.8594 429.0938,145.7656 Q429.7031,144.6719 430.75,144.0938 Q431.8125,143.5 433,143.5 Q433.7188,143.5 434.3438,143.75 Q434.9688,144 435.5,144.5 Z " fill="#000000"/><text fill="#000000" font-family="sans-serif" font-size="12" lengthAdjust="spacingAndGlyphs" textLength="60" x="447.5" y="152.9102">Application</text><line style="stroke:#A80036;stroke-width:1.5;" x1="419.5" x2="509.5" y1="164" y2="164"/><line style="stroke:#A80036;stroke-width:1.5;" x1="419.5" x2="509.5" y1="172" y2="172"/><ellipse cx="429.5" cy="183" fill="#84BE84" rx="3" ry="3" style="stroke:#038048;stroke-width:1.0;"/><text fill="#000000" font-family="sans-serif" font-size="11" lengthAdjust="spacingAndGlyphs" textLength="58" x="438.5" y="187.4189">getCourier()</text><!--MD5=[754da686d7bb9aed9b7dcea4de3b7227]
class OrderDB--><rect codeLine="23" fill="#FEFECE" filter="url(#f1mbzmdf05nryf)" height="61.8359" id="OrderDB" style="stroke:#A80036;stroke-width:1.5;" width="111" x="409" y="229"/><ellipse cx="437.95" cy="245" fill="#ADD1B2" rx="11" ry="11" style="stroke:#A80036;stroke-width:1.0;"/><path d="M439.95,241.5 Q440.1531,241 440.3875,240.75 Q440.6219,240.5 440.8875,240.5 Q441.3563,240.5 441.6531,240.7813 Q441.95,241.0625 441.95,241.7188 L441.95,243.2813 Q441.95,243.9375 441.6688,244.2188 Q441.3875,244.5 440.95,244.5 Q440.5594,244.5 440.3094,244.3281 Q440.0594,244.1563 439.95,243.7031 Q439.9031,243.3906 439.7313,243.2188 Q439.4188,242.8906 438.8563,242.7031 Q438.2938,242.5 437.7313,242.5 Q437.0281,242.5 436.4344,242.7813 Q435.8563,243.0625 435.4031,243.6875 Q434.95,244.3125 434.95,245.1719 L434.95,246.0938 Q434.95,247.125 435.7938,247.8125 Q436.6375,248.5 438.1375,248.5 Q439.0281,248.5 439.6531,248.2969 Q440.0125,248.1875 440.4188,247.8281 Q440.6844,247.625 440.825,247.5625 Q440.9656,247.5 441.1375,247.5 Q441.4656,247.5 441.7,247.7656 Q441.95,248.0156 441.95,248.375 Q441.95,248.7188 441.6063,249.125 Q441.1063,249.7188 440.3094,250.0469 Q439.2625,250.5 437.9813,250.5 Q436.4813,250.5 435.2781,249.9063 Q434.3094,249.4375 433.6219,248.4219 Q432.95,247.4063 432.95,246.2031 L432.95,245.1094 Q432.95,243.8594 433.5438,242.7656 Q434.1531,241.6719 435.2,241.0938 Q436.2625,240.5 437.45,240.5 Q438.1688,240.5 438.7938,240.75 Q439.4188,241 439.95,241.5 Z " fill="#000000"/><text fill="#000000" font-family="sans-serif" font-size="12" lengthAdjust="spacingAndGlyphs" textLength="48" x="455.05" y="249.9102">OrderDB</text><line style="stroke:#A80036;stroke-width:1.5;" x1="410" x2="519" y1="261" y2="261"/><line style="stroke:#A80036;stroke-width:1.5;" x1="410" x2="519" y1="269" y2="269"/><ellipse cx="420" cy="280" fill="#84BE84" rx="3" ry="3" style="stroke:#038048;stroke-width:1.0;"/><text fill="#000000" font-family="sans-serif" font-size="11" lengthAdjust="spacingAndGlyphs" textLength="85" x="429" y="284.4189">getOrder(orderId)</text><!--MD5=[705c5f5f85d551bb214b923283c0ab4d]
link AssignOrdersUI to AssignOrdersController--><path codeLine="28" d="M127.17,163 C144.24,163 163.21,163 181.54,163 " fill="none" id="AssignOrdersUI-to-AssignOrdersController" style="stroke:#A80036;stroke-width:1.0;stroke-dasharray:7.0,7.0;"/><polygon fill="#A80036" points="186.69,163,177.69,159,181.69,163,177.69,167,186.69,163" style="stroke:#A80036;stroke-width:1.0;"/><!--MD5=[189aa027fd395cb866a1668df88dacfb]
link AssignOrdersController to Orders--><path codeLine="29" d="M323.44,131.93 C349.15,117.26 379.84,99.74 405.94,84.85 " fill="none" id="AssignOrdersController-to-Orders" style="stroke:#A80036;stroke-width:1.0;stroke-dasharray:7.0,7.0;"/><polygon fill="#A80036" points="410.42,82.29,400.6195,83.2649,406.0744,84.763,404.5763,90.2179,410.42,82.29" style="stroke:#A80036;stroke-width:1.0;"/><!--MD5=[af9fa5a3a3bf036f30bdbc8324a93078]
link AssignOrdersController to OrderDB--><path codeLine="30" d="M331.34,194.09 C354.68,205.73 381.1,218.91 404.16,230.41 " fill="none" id="AssignOrdersController-to-OrderDB" style="stroke:#A80036;stroke-width:1.0;stroke-dasharray:7.0,7.0;"/><polygon fill="#A80036" points="408.72,232.68,402.4396,225.0934,404.2422,230.4553,398.8802,232.2579,408.72,232.68" style="stroke:#A80036;stroke-width:1.0;"/><!--MD5=[95d9879cddc765dbf9e2a4e17fd21d5f]
link AssignOrdersController to Application--><path codeLine="31" d="M349.23,163 C370.75,163 393.42,163 412.85,163 " fill="none" id="AssignOrdersController-to-Application" style="stroke:#A80036;stroke-width:1.0;stroke-dasharray:7.0,7.0;"/><polygon fill="#A80036" points="418.23,163,409.23,159,413.23,163,409.23,167,418.23,163" style="stroke:#A80036;stroke-width:1.0;"/><!--MD5=[0fa2be2d43e6aa9b4f0a31327b049a6f]
@startuml

left to right direction

class AssignOrdersUI {
}

class AssignOrdersController {
    +getOrder(order)
}

class Orders {
    +getDetails()
    +getDelivery()
    +getOrderStatus()
}

class Application {
    +getCourier()
}



class OrderDB {
    +getOrder(orderId)

}

AssignOrdersUI ..> AssignOrdersController
AssignOrdersController ..> Orders
AssignOrdersController ..> OrderDB
AssignOrdersController ..> Application



@enduml

PlantUML version 1.2020.23(Sun Dec 13 19:14:58 GMT 2020)
(GPL source distribution)
Java Runtime: OpenJDK Runtime Environment
JVM: OpenJDK 64-Bit Server VM
Default Encoding: Cp1252
Language: pt
Country: PT
--></g></svg>