<?xml version="1.0" encoding="UTF-8" standalone="no"?><svg xmlns="http://www.w3.org/2000/svg" xmlns:xlink="http://www.w3.org/1999/xlink" contentScriptType="application/ecmascript" contentStyleType="text/css" height="381px" preserveAspectRatio="none" style="width:749px;height:381px;" version="1.1" viewBox="0 0 749 381" width="749px" zoomAndPan="magnify"><defs><filter height="300%" id="fvgsjmt50iddn" width="300%" x="-1" y="-1"><feGaussianBlur result="blurOut" stdDeviation="2.0"/><feColorMatrix in="blurOut" result="blurOut2" type="matrix" values="0 0 0 0 0 0 0 0 0 0 0 0 0 0 0 0 0 0 .4 0"/><feOffset dx="4.0" dy="4.0" in="blurOut2" result="blurOut3"/><feBlend in="SourceGraphic" in2="blurOut3" mode="normal"/></filter></defs><g><!--MD5=[ed6624c6556d5e7b1bd23032162d20b7]
class Client--><rect codeLine="5" fill="#FEFECE" filter="url(#fvgsjmt50iddn)" height="136.8516" id="Client" style="stroke:#A80036;stroke-width:1.5;" width="144" x="403" y="7"/><ellipse cx="454.75" cy="23" fill="#ADD1B2" rx="11" ry="11" style="stroke:#A80036;stroke-width:1.0;"/><path d="M456.75,19.5 Q456.9531,19 457.1875,18.75 Q457.4219,18.5 457.6875,18.5 Q458.1563,18.5 458.4531,18.7813 Q458.75,19.0625 458.75,19.7188 L458.75,21.2813 Q458.75,21.9375 458.4688,22.2188 Q458.1875,22.5 457.75,22.5 Q457.3594,22.5 457.1094,22.3281 Q456.8594,22.1563 456.75,21.7031 Q456.7031,21.3906 456.5313,21.2188 Q456.2188,20.8906 455.6563,20.7031 Q455.0938,20.5 454.5313,20.5 Q453.8281,20.5 453.2344,20.7813 Q452.6563,21.0625 452.2031,21.6875 Q451.75,22.3125 451.75,23.1719 L451.75,24.0938 Q451.75,25.125 452.5938,25.8125 Q453.4375,26.5 454.9375,26.5 Q455.8281,26.5 456.4531,26.2969 Q456.8125,26.1875 457.2188,25.8281 Q457.4844,25.625 457.625,25.5625 Q457.7656,25.5 457.9375,25.5 Q458.2656,25.5 458.5,25.7656 Q458.75,26.0156 458.75,26.375 Q458.75,26.7188 458.4063,27.125 Q457.9063,27.7188 457.1094,28.0469 Q456.0625,28.5 454.7813,28.5 Q453.2813,28.5 452.0781,27.9063 Q451.1094,27.4375 450.4219,26.4219 Q449.75,25.4063 449.75,24.2031 L449.75,23.1094 Q449.75,21.8594 450.3438,20.7656 Q450.9531,19.6719 452,19.0938 Q453.0625,18.5 454.25,18.5 Q454.9688,18.5 455.5938,18.75 Q456.2188,19 456.75,19.5 Z " fill="#000000"/><text fill="#000000" font-family="sans-serif" font-size="12" lengthAdjust="spacingAndGlyphs" textLength="32" x="475.25" y="27.9102">Client</text><line style="stroke:#A80036;stroke-width:1.5;" x1="404" x2="546" y1="39" y2="39"/><rect fill="none" height="6" style="stroke:#C82930;stroke-width:1.0;" width="6" x="411" y="47"/><text fill="#000000" font-family="sans-serif" font-size="11" lengthAdjust="spacingAndGlyphs" textLength="44" x="423" y="54.4189">Integer id</text><rect fill="none" height="6" style="stroke:#C82930;stroke-width:1.0;" width="6" x="411" y="60.8359"/><text fill="#000000" font-family="sans-serif" font-size="11" lengthAdjust="spacingAndGlyphs" textLength="57" x="423" y="68.2549">String name</text><rect fill="none" height="6" style="stroke:#C82930;stroke-width:1.0;" width="6" x="411" y="74.6719"/><text fill="#000000" font-family="sans-serif" font-size="11" lengthAdjust="spacingAndGlyphs" textLength="97" x="423" y="82.0908">String emailAddress</text><rect fill="none" height="6" style="stroke:#C82930;stroke-width:1.0;" width="6" x="411" y="88.5078"/><text fill="#000000" font-family="sans-serif" font-size="11" lengthAdjust="spacingAndGlyphs" textLength="81" x="423" y="95.9268">String password</text><rect fill="none" height="6" style="stroke:#C82930;stroke-width:1.0;" width="6" x="411" y="102.3438"/><text fill="#000000" font-family="sans-serif" font-size="11" lengthAdjust="spacingAndGlyphs" textLength="77" x="423" y="109.7627">String cellphone</text><rect fill="none" height="6" style="stroke:#C82930;stroke-width:1.0;" width="6" x="411" y="116.1797"/><text fill="#000000" font-family="sans-serif" font-size="11" lengthAdjust="spacingAndGlyphs" textLength="48" x="423" y="123.5986">Integer nif</text><rect fill="none" height="6" style="stroke:#C82930;stroke-width:1.0;" width="6" x="411" y="130.0156"/><text fill="#000000" font-family="sans-serif" font-size="11" lengthAdjust="spacingAndGlyphs" textLength="118" x="423" y="137.4346">Integer numberOfCredits</text><!--MD5=[c6a2171c11447acbe08a3dfeee0e1710]
class Courier--><rect codeLine="15" fill="#FEFECE" filter="url(#fvgsjmt50iddn)" height="123.0156" id="Courier" style="stroke:#A80036;stroke-width:1.5;" width="123" x="413.5" y="179"/><ellipse cx="451" cy="195" fill="#ADD1B2" rx="11" ry="11" style="stroke:#A80036;stroke-width:1.0;"/><path d="M453,191.5 Q453.2031,191 453.4375,190.75 Q453.6719,190.5 453.9375,190.5 Q454.4063,190.5 454.7031,190.7813 Q455,191.0625 455,191.7188 L455,193.2813 Q455,193.9375 454.7188,194.2188 Q454.4375,194.5 454,194.5 Q453.6094,194.5 453.3594,194.3281 Q453.1094,194.1563 453,193.7031 Q452.9531,193.3906 452.7813,193.2188 Q452.4688,192.8906 451.9063,192.7031 Q451.3438,192.5 450.7813,192.5 Q450.0781,192.5 449.4844,192.7813 Q448.9063,193.0625 448.4531,193.6875 Q448,194.3125 448,195.1719 L448,196.0938 Q448,197.125 448.8438,197.8125 Q449.6875,198.5 451.1875,198.5 Q452.0781,198.5 452.7031,198.2969 Q453.0625,198.1875 453.4688,197.8281 Q453.7344,197.625 453.875,197.5625 Q454.0156,197.5 454.1875,197.5 Q454.5156,197.5 454.75,197.7656 Q455,198.0156 455,198.375 Q455,198.7188 454.6563,199.125 Q454.1563,199.7188 453.3594,200.0469 Q452.3125,200.5 451.0313,200.5 Q449.5313,200.5 448.3281,199.9063 Q447.3594,199.4375 446.6719,198.4219 Q446,197.4063 446,196.2031 L446,195.1094 Q446,193.8594 446.5938,192.7656 Q447.2031,191.6719 448.25,191.0938 Q449.3125,190.5 450.5,190.5 Q451.2188,190.5 451.8438,190.75 Q452.4688,191 453,191.5 Z " fill="#000000"/><text fill="#000000" font-family="sans-serif" font-size="12" lengthAdjust="spacingAndGlyphs" textLength="41" x="470" y="199.9102">Courier</text><line style="stroke:#A80036;stroke-width:1.5;" x1="414.5" x2="535.5" y1="211" y2="211"/><rect fill="none" height="6" style="stroke:#C82930;stroke-width:1.0;" width="6" x="421.5" y="219"/><text fill="#000000" font-family="sans-serif" font-size="11" lengthAdjust="spacingAndGlyphs" textLength="44" x="433.5" y="226.4189">Integer id</text><rect fill="none" height="6" style="stroke:#C82930;stroke-width:1.0;" width="6" x="421.5" y="232.8359"/><text fill="#000000" font-family="sans-serif" font-size="11" lengthAdjust="spacingAndGlyphs" textLength="57" x="433.5" y="240.2549">String name</text><rect fill="none" height="6" style="stroke:#C82930;stroke-width:1.0;" width="6" x="421.5" y="246.6719"/><text fill="#000000" font-family="sans-serif" font-size="11" lengthAdjust="spacingAndGlyphs" textLength="97" x="433.5" y="254.0908">String emailAddress</text><rect fill="none" height="6" style="stroke:#C82930;stroke-width:1.0;" width="6" x="421.5" y="260.5078"/><text fill="#000000" font-family="sans-serif" font-size="11" lengthAdjust="spacingAndGlyphs" textLength="81" x="433.5" y="267.9268">String password</text><rect fill="none" height="6" style="stroke:#C82930;stroke-width:1.0;" width="6" x="421.5" y="274.3438"/><text fill="#000000" font-family="sans-serif" font-size="11" lengthAdjust="spacingAndGlyphs" textLength="51" x="433.5" y="281.7627">String iban</text><rect fill="none" height="6" style="stroke:#C82930;stroke-width:1.0;" width="6" x="421.5" y="288.1797"/><text fill="#000000" font-family="sans-serif" font-size="11" lengthAdjust="spacingAndGlyphs" textLength="48" x="433.5" y="295.5986">Integer nif</text><!--MD5=[0b4e4b4980470ea387cc45de9bd14b5b]
class Application--><rect codeLine="24" fill="#FEFECE" filter="url(#fvgsjmt50iddn)" height="40" id="Application" style="stroke:#A80036;stroke-width:1.5;" width="92" x="7" y="306.5"/><ellipse cx="22" cy="322.5" fill="#ADD1B2" rx="11" ry="11" style="stroke:#A80036;stroke-width:1.0;"/><path d="M24,319 Q24.2031,318.5 24.4375,318.25 Q24.6719,318 24.9375,318 Q25.4063,318 25.7031,318.2813 Q26,318.5625 26,319.2188 L26,320.7813 Q26,321.4375 25.7188,321.7188 Q25.4375,322 25,322 Q24.6094,322 24.3594,321.8281 Q24.1094,321.6563 24,321.2031 Q23.9531,320.8906 23.7813,320.7188 Q23.4688,320.3906 22.9063,320.2031 Q22.3438,320 21.7813,320 Q21.0781,320 20.4844,320.2813 Q19.9063,320.5625 19.4531,321.1875 Q19,321.8125 19,322.6719 L19,323.5938 Q19,324.625 19.8438,325.3125 Q20.6875,326 22.1875,326 Q23.0781,326 23.7031,325.7969 Q24.0625,325.6875 24.4688,325.3281 Q24.7344,325.125 24.875,325.0625 Q25.0156,325 25.1875,325 Q25.5156,325 25.75,325.2656 Q26,325.5156 26,325.875 Q26,326.2188 25.6563,326.625 Q25.1563,327.2188 24.3594,327.5469 Q23.3125,328 22.0313,328 Q20.5313,328 19.3281,327.4063 Q18.3594,326.9375 17.6719,325.9219 Q17,324.9063 17,323.7031 L17,322.6094 Q17,321.3594 17.5938,320.2656 Q18.2031,319.1719 19.25,318.5938 Q20.3125,318 21.5,318 Q22.2188,318 22.8438,318.25 Q23.4688,318.5 24,319 Z " fill="#000000"/><text fill="#000000" font-family="sans-serif" font-size="12" lengthAdjust="spacingAndGlyphs" textLength="60" x="36" y="327.4102">Application</text><line style="stroke:#A80036;stroke-width:1.5;" x1="8" x2="98" y1="338.5" y2="338.5"/><!--MD5=[cf4d6237fcae255cd2e1656cf84a30e2]
class Order--><rect codeLine="29" fill="#FEFECE" filter="url(#fvgsjmt50iddn)" height="53.8359" id="Order" style="stroke:#A80036;stroke-width:1.5;" width="70" x="665" y="213.5"/><ellipse cx="683.15" cy="229.5" fill="#ADD1B2" rx="11" ry="11" style="stroke:#A80036;stroke-width:1.0;"/><path d="M685.15,226 Q685.3531,225.5 685.5875,225.25 Q685.8219,225 686.0875,225 Q686.5563,225 686.8531,225.2813 Q687.15,225.5625 687.15,226.2188 L687.15,227.7813 Q687.15,228.4375 686.8688,228.7188 Q686.5875,229 686.15,229 Q685.7594,229 685.5094,228.8281 Q685.2594,228.6563 685.15,228.2031 Q685.1031,227.8906 684.9313,227.7188 Q684.6188,227.3906 684.0563,227.2031 Q683.4938,227 682.9313,227 Q682.2281,227 681.6344,227.2813 Q681.0563,227.5625 680.6031,228.1875 Q680.15,228.8125 680.15,229.6719 L680.15,230.5938 Q680.15,231.625 680.9938,232.3125 Q681.8375,233 683.3375,233 Q684.2281,233 684.8531,232.7969 Q685.2125,232.6875 685.6188,232.3281 Q685.8844,232.125 686.025,232.0625 Q686.1656,232 686.3375,232 Q686.6656,232 686.9,232.2656 Q687.15,232.5156 687.15,232.875 Q687.15,233.2188 686.8063,233.625 Q686.3063,234.2188 685.5094,234.5469 Q684.4625,235 683.1813,235 Q681.6813,235 680.4781,234.4063 Q679.5094,233.9375 678.8219,232.9219 Q678.15,231.9063 678.15,230.7031 L678.15,229.6094 Q678.15,228.3594 678.7438,227.2656 Q679.3531,226.1719 680.4,225.5938 Q681.4625,225 682.65,225 Q683.3688,225 683.9938,225.25 Q684.6188,225.5 685.15,226 Z " fill="#000000"/><text fill="#000000" font-family="sans-serif" font-size="12" lengthAdjust="spacingAndGlyphs" textLength="31" x="697.85" y="234.4102">Order</text><line style="stroke:#A80036;stroke-width:1.5;" x1="666" x2="734" y1="245.5" y2="245.5"/><rect fill="none" height="6" style="stroke:#C82930;stroke-width:1.0;" width="6" x="673" y="253.5"/><text fill="#000000" font-family="sans-serif" font-size="11" lengthAdjust="spacingAndGlyphs" textLength="44" x="685" y="260.9189">id Integer</text><!--MD5=[7f2a9fafcebe4f099f71398fd3e2ed00]
class Pharmacy--><rect codeLine="33" fill="#FEFECE" filter="url(#fvgsjmt50iddn)" height="81.5078" id="Pharmacy" style="stroke:#A80036;stroke-width:1.5;" width="112" x="195" y="285.5"/><ellipse cx="221.25" cy="301.5" fill="#ADD1B2" rx="11" ry="11" style="stroke:#A80036;stroke-width:1.0;"/><path d="M223.25,298 Q223.4531,297.5 223.6875,297.25 Q223.9219,297 224.1875,297 Q224.6563,297 224.9531,297.2813 Q225.25,297.5625 225.25,298.2188 L225.25,299.7813 Q225.25,300.4375 224.9688,300.7188 Q224.6875,301 224.25,301 Q223.8594,301 223.6094,300.8281 Q223.3594,300.6563 223.25,300.2031 Q223.2031,299.8906 223.0313,299.7188 Q222.7188,299.3906 222.1563,299.2031 Q221.5938,299 221.0313,299 Q220.3281,299 219.7344,299.2813 Q219.1563,299.5625 218.7031,300.1875 Q218.25,300.8125 218.25,301.6719 L218.25,302.5938 Q218.25,303.625 219.0938,304.3125 Q219.9375,305 221.4375,305 Q222.3281,305 222.9531,304.7969 Q223.3125,304.6875 223.7188,304.3281 Q223.9844,304.125 224.125,304.0625 Q224.2656,304 224.4375,304 Q224.7656,304 225,304.2656 Q225.25,304.5156 225.25,304.875 Q225.25,305.2188 224.9063,305.625 Q224.4063,306.2188 223.6094,306.5469 Q222.5625,307 221.2813,307 Q219.7813,307 218.5781,306.4063 Q217.6094,305.9375 216.9219,304.9219 Q216.25,303.9063 216.25,302.7031 L216.25,301.6094 Q216.25,300.3594 216.8438,299.2656 Q217.4531,298.1719 218.5,297.5938 Q219.5625,297 220.75,297 Q221.4688,297 222.0938,297.25 Q222.7188,297.5 223.25,298 Z " fill="#000000"/><text fill="#000000" font-family="sans-serif" font-size="12" lengthAdjust="spacingAndGlyphs" textLength="55" x="237.75" y="306.4102">Pharmacy</text><line style="stroke:#A80036;stroke-width:1.5;" x1="196" x2="306" y1="317.5" y2="317.5"/><rect fill="none" height="6" style="stroke:#C82930;stroke-width:1.0;" width="6" x="203" y="325.5"/><text fill="#000000" font-family="sans-serif" font-size="11" lengthAdjust="spacingAndGlyphs" textLength="44" x="215" y="332.9189">Integer id</text><rect fill="none" height="6" style="stroke:#C82930;stroke-width:1.0;" width="6" x="203" y="339.3359"/><text fill="#000000" font-family="sans-serif" font-size="11" lengthAdjust="spacingAndGlyphs" textLength="86" x="215" y="346.7549">String designation</text><rect fill="none" height="6" style="stroke:#C82930;stroke-width:1.0;" width="6" x="203" y="353.1719"/><text fill="#000000" font-family="sans-serif" font-size="11" lengthAdjust="spacingAndGlyphs" textLength="43" x="215" y="360.5908">String nif</text><!--MD5=[879bec428a80d843af24dc47845bf14c]
link Client to Order--><path codeLine="39" d="M547.17,128.16 C586.56,157.3 633.7,192.19 664.9,215.27 " fill="none" id="Client-Order" style="stroke:#A80036;stroke-width:1.0;"/><polygon fill="#000000" points="586.0194,147.6498,580.4963,139.9072,577.0002,144.6323,586.0194,147.6498" style="stroke:#000000;stroke-width:1.0;"/><text fill="#000000" font-family="sans-serif" font-size="13" lengthAdjust="spacingAndGlyphs" textLength="43" x="591" y="149.9951">creates</text><text fill="#000000" font-family="sans-serif" font-size="13" lengthAdjust="spacingAndGlyphs" textLength="7" x="554.9735" y="147.9365">1</text><text fill="#000000" font-family="sans-serif" font-size="13" lengthAdjust="spacingAndGlyphs" textLength="20" x="636.8666" y="225.7419">0..*</text><!--MD5=[42412c6d1ec7cdf26c030834d47a2bbe]
link Courier to Order--><path codeLine="40" d="M536.64,240.5 C577.78,240.5 630.68,240.5 664.72,240.5 " fill="none" id="Courier-Order" style="stroke:#A80036;stroke-width:1.0;"/><polygon fill="#000000" points="598,231.6758,588.9549,228.7369,588.9549,234.6147,598,231.6758" style="stroke:#000000;stroke-width:1.0;"/><text fill="#000000" font-family="sans-serif" font-size="13" lengthAdjust="spacingAndGlyphs" textLength="21" x="602" y="236.9951">has</text><text fill="#000000" font-family="sans-serif" font-size="13" lengthAdjust="spacingAndGlyphs" textLength="7" x="544.5789" y="254.9906">1</text><text fill="#000000" font-family="sans-serif" font-size="13" lengthAdjust="spacingAndGlyphs" textLength="20" x="636.9375" y="255.4144">0..*</text><!--MD5=[0643aaab1f96e564b90d0ad5c3af18e6]
link Pharmacy to Courier--><path codeLine="41" d="M307.16,305.13 C339.39,292.64 380.12,276.87 413.26,264.03 " fill="none" id="Pharmacy-Courier" style="stroke:#A80036;stroke-width:1.0;"/><polygon fill="#000000" points="346.6624,269.8697,337.1664,270.3964,339.2896,275.8774,346.6624,269.8697" style="stroke:#000000;stroke-width:1.0;"/><text fill="#000000" font-family="sans-serif" font-size="13" lengthAdjust="spacingAndGlyphs" textLength="21" x="351" y="276.9951">has</text><text fill="#000000" font-family="sans-serif" font-size="13" lengthAdjust="spacingAndGlyphs" textLength="7" x="315.1768" y="316.8852">1</text><text fill="#000000" font-family="sans-serif" font-size="13" lengthAdjust="spacingAndGlyphs" textLength="20" x="385.4134" y="280.9921">0..*</text><!--MD5=[0b87aa6ace50be10beee1b6515045c69]
link Pharmacy to Order--><path codeLine="42" d="M307.1,338.76 C367.34,349.84 466.07,361.12 547,337.5 C593.58,323.9 639.48,291.21 668.44,267.53 " fill="none" id="Pharmacy-Order" style="stroke:#A80036;stroke-width:1.0;"/><polygon fill="#000000" points="466.9056,327.7088,457.4629,326.5747,458.5997,332.3416,466.9056,327.7088" style="stroke:#000000;stroke-width:1.0;"/><text fill="#000000" font-family="sans-serif" font-size="13" lengthAdjust="spacingAndGlyphs" textLength="21" x="471" y="333.9951">has</text><text fill="#000000" font-family="sans-serif" font-size="13" lengthAdjust="spacingAndGlyphs" textLength="7" x="315.1088" y="355.0342">1</text><text fill="#000000" font-family="sans-serif" font-size="13" lengthAdjust="spacingAndGlyphs" textLength="20" x="639.3488" y="288.7443">0..*</text><!--MD5=[8c7e2cb836a61414bf9f02282664f603]
link Application to Pharmacy--><path codeLine="43" d="M99.46,326.5 C127.84,326.5 164.58,326.5 194.65,326.5 " fill="none" id="Application-Pharmacy" style="stroke:#A80036;stroke-width:1.0;"/><polygon fill="#000000" points="139,317.6758,129.9549,314.7369,129.9549,320.6147,139,317.6758" style="stroke:#000000;stroke-width:1.0;"/><text fill="#000000" font-family="sans-serif" font-size="13" lengthAdjust="spacingAndGlyphs" textLength="21" x="143" y="322.9951">has</text><text fill="#000000" font-family="sans-serif" font-size="13" lengthAdjust="spacingAndGlyphs" textLength="7" x="107.1101" y="341.247">1</text><text fill="#000000" font-family="sans-serif" font-size="13" lengthAdjust="spacingAndGlyphs" textLength="7" x="179.9817" y="341.0742">1</text><!--MD5=[4eaa3aa7d3f916cf72c9e7036b71fb75]
@startuml
hide methods
left to right direction


class Client {
    -Integer id
    -String name
    -String emailAddress
    -String password
    -String cellphone
    -Integer nif
    -Integer numberOfCredits
}

class Courier {
    -Integer id
    -String name
    -String emailAddress
    -String password
    -String iban
    -Integer nif
}

class Application {

}


class Order {
    - id Integer
}

class Pharmacy {
    -Integer id
    -String designation
    -String nif
}

Client "1" - - "0..*" Order: creates >
Courier "1" - - "0..*" Order: has >
Pharmacy "1" - - "0..*" Courier: has >
Pharmacy "1" - - "0..*" Order: has >
Application "1" - - "1" Pharmacy: has >
@enduml

PlantUML version 1.2020.23(Sun Dec 13 19:14:58 GMT 2020)
(GPL source distribution)
Java Runtime: OpenJDK Runtime Environment
JVM: OpenJDK 64-Bit Server VM
Default Encoding: Cp1252
Language: pt
Country: PT
--></g></svg>