<?xml version="1.0" encoding="UTF-8" standalone="no"?><svg xmlns="http://www.w3.org/2000/svg" xmlns:xlink="http://www.w3.org/1999/xlink" contentScriptType="application/ecmascript" contentStyleType="text/css" height="510px" preserveAspectRatio="none" style="width:279px;height:510px;" version="1.1" viewBox="0 0 279 510" width="279px" zoomAndPan="magnify"><defs><filter height="300%" id="fo6ltzehaldrh" width="300%" x="-1" y="-1"><feGaussianBlur result="blurOut" stdDeviation="2.0"/><feColorMatrix in="blurOut" result="blurOut2" type="matrix" values="0 0 0 0 0 0 0 0 0 0 0 0 0 0 0 0 0 0 .4 0"/><feOffset dx="4.0" dy="4.0" in="blurOut2" result="blurOut3"/><feBlend in="SourceGraphic" in2="blurOut3" mode="normal"/></filter></defs><g><!--MD5=[0773e5207e403cf808ebcb9c2141950b]
class RemoveDroneUI--><rect codeLine="2" fill="#FEFECE" filter="url(#fo6ltzehaldrh)" height="48" id="RemoveDroneUI" style="stroke:#A80036;stroke-width:1.5;" width="124" x="64" y="7"/><ellipse cx="79" cy="23" fill="#ADD1B2" rx="11" ry="11" style="stroke:#A80036;stroke-width:1.0;"/><path d="M81,19.5 Q81.2031,19 81.4375,18.75 Q81.6719,18.5 81.9375,18.5 Q82.4063,18.5 82.7031,18.7813 Q83,19.0625 83,19.7188 L83,21.2813 Q83,21.9375 82.7188,22.2188 Q82.4375,22.5 82,22.5 Q81.6094,22.5 81.3594,22.3281 Q81.1094,22.1563 81,21.7031 Q80.9531,21.3906 80.7813,21.2188 Q80.4688,20.8906 79.9063,20.7031 Q79.3438,20.5 78.7813,20.5 Q78.0781,20.5 77.4844,20.7813 Q76.9063,21.0625 76.4531,21.6875 Q76,22.3125 76,23.1719 L76,24.0938 Q76,25.125 76.8438,25.8125 Q77.6875,26.5 79.1875,26.5 Q80.0781,26.5 80.7031,26.2969 Q81.0625,26.1875 81.4688,25.8281 Q81.7344,25.625 81.875,25.5625 Q82.0156,25.5 82.1875,25.5 Q82.5156,25.5 82.75,25.7656 Q83,26.0156 83,26.375 Q83,26.7188 82.6563,27.125 Q82.1563,27.7188 81.3594,28.0469 Q80.3125,28.5 79.0313,28.5 Q77.5313,28.5 76.3281,27.9063 Q75.3594,27.4375 74.6719,26.4219 Q74,25.4063 74,24.2031 L74,23.1094 Q74,21.8594 74.5938,20.7656 Q75.2031,19.6719 76.25,19.0938 Q77.3125,18.5 78.5,18.5 Q79.2188,18.5 79.8438,18.75 Q80.4688,19 81,19.5 Z " fill="#000000"/><text fill="#000000" font-family="sans-serif" font-size="12" lengthAdjust="spacing" textLength="92" x="93" y="27.9102">RemoveDroneUI</text><line style="stroke:#A80036;stroke-width:1.5;" x1="65" x2="187" y1="39" y2="39"/><line style="stroke:#A80036;stroke-width:1.5;" x1="65" x2="187" y1="47" y2="47"/><!--MD5=[2f1b7d3b2802cc4c49ec6c586f1a6cfb]
class RemoveDroneController--><rect codeLine="5" fill="#FEFECE" filter="url(#fo6ltzehaldrh)" height="89.5078" id="RemoveDroneController" style="stroke:#A80036;stroke-width:1.5;" width="166" x="43" y="116"/><ellipse cx="58" cy="132" fill="#ADD1B2" rx="11" ry="11" style="stroke:#A80036;stroke-width:1.0;"/><path d="M60,128.5 Q60.2031,128 60.4375,127.75 Q60.6719,127.5 60.9375,127.5 Q61.4063,127.5 61.7031,127.7813 Q62,128.0625 62,128.7188 L62,130.2813 Q62,130.9375 61.7188,131.2188 Q61.4375,131.5 61,131.5 Q60.6094,131.5 60.3594,131.3281 Q60.1094,131.1563 60,130.7031 Q59.9531,130.3906 59.7813,130.2188 Q59.4688,129.8906 58.9063,129.7031 Q58.3438,129.5 57.7813,129.5 Q57.0781,129.5 56.4844,129.7813 Q55.9063,130.0625 55.4531,130.6875 Q55,131.3125 55,132.1719 L55,133.0938 Q55,134.125 55.8438,134.8125 Q56.6875,135.5 58.1875,135.5 Q59.0781,135.5 59.7031,135.2969 Q60.0625,135.1875 60.4688,134.8281 Q60.7344,134.625 60.875,134.5625 Q61.0156,134.5 61.1875,134.5 Q61.5156,134.5 61.75,134.7656 Q62,135.0156 62,135.375 Q62,135.7188 61.6563,136.125 Q61.1563,136.7188 60.3594,137.0469 Q59.3125,137.5 58.0313,137.5 Q56.5313,137.5 55.3281,136.9063 Q54.3594,136.4375 53.6719,135.4219 Q53,134.4063 53,133.2031 L53,132.1094 Q53,130.8594 53.5938,129.7656 Q54.2031,128.6719 55.25,128.0938 Q56.3125,127.5 57.5,127.5 Q58.2188,127.5 58.8438,127.75 Q59.4688,128 60,128.5 Z " fill="#000000"/><text fill="#000000" font-family="sans-serif" font-size="12" lengthAdjust="spacing" textLength="134" x="72" y="136.9102">RemoveDroneController</text><line style="stroke:#A80036;stroke-width:1.5;" x1="44" x2="208" y1="148" y2="148"/><line style="stroke:#A80036;stroke-width:1.5;" x1="44" x2="208" y1="156" y2="156"/><ellipse cx="54" cy="167" fill="#84BE84" rx="3" ry="3" style="stroke:#038048;stroke-width:1.0;"/><text fill="#000000" font-family="sans-serif" font-size="11" lengthAdjust="spacing" textLength="66" x="63" y="171.4189">getDroneDB()</text><ellipse cx="54" cy="180.8359" fill="#84BE84" rx="3" ry="3" style="stroke:#038048;stroke-width:1.0;"/><text fill="#000000" font-family="sans-serif" font-size="11" lengthAdjust="spacing" textLength="60" x="63" y="185.2549">getDrone(id)</text><ellipse cx="54" cy="194.6719" fill="#84BE84" rx="3" ry="3" style="stroke:#038048;stroke-width:1.0;"/><text fill="#000000" font-family="sans-serif" font-size="11" lengthAdjust="spacing" textLength="101" x="63" y="199.0908">removeDrone(drone)</text><!--MD5=[0b4e4b4980470ea387cc45de9bd14b5b]
class Application--><rect codeLine="11" fill="#FEFECE" filter="url(#fo6ltzehaldrh)" height="61.8359" id="Application" style="stroke:#A80036;stroke-width:1.5;" width="92" x="7" y="287.5"/><ellipse cx="22" cy="303.5" fill="#ADD1B2" rx="11" ry="11" style="stroke:#A80036;stroke-width:1.0;"/><path d="M24,300 Q24.2031,299.5 24.4375,299.25 Q24.6719,299 24.9375,299 Q25.4063,299 25.7031,299.2813 Q26,299.5625 26,300.2188 L26,301.7813 Q26,302.4375 25.7188,302.7188 Q25.4375,303 25,303 Q24.6094,303 24.3594,302.8281 Q24.1094,302.6563 24,302.2031 Q23.9531,301.8906 23.7813,301.7188 Q23.4688,301.3906 22.9063,301.2031 Q22.3438,301 21.7813,301 Q21.0781,301 20.4844,301.2813 Q19.9063,301.5625 19.4531,302.1875 Q19,302.8125 19,303.6719 L19,304.5938 Q19,305.625 19.8438,306.3125 Q20.6875,307 22.1875,307 Q23.0781,307 23.7031,306.7969 Q24.0625,306.6875 24.4688,306.3281 Q24.7344,306.125 24.875,306.0625 Q25.0156,306 25.1875,306 Q25.5156,306 25.75,306.2656 Q26,306.5156 26,306.875 Q26,307.2188 25.6563,307.625 Q25.1563,308.2188 24.3594,308.5469 Q23.3125,309 22.0313,309 Q20.5313,309 19.3281,308.4063 Q18.3594,307.9375 17.6719,306.9219 Q17,305.9063 17,304.7031 L17,303.6094 Q17,302.3594 17.5938,301.2656 Q18.2031,300.1719 19.25,299.5938 Q20.3125,299 21.5,299 Q22.2188,299 22.8438,299.25 Q23.4688,299.5 24,300 Z " fill="#000000"/><text fill="#000000" font-family="sans-serif" font-size="12" lengthAdjust="spacing" textLength="60" x="36" y="308.4102">Application</text><line style="stroke:#A80036;stroke-width:1.5;" x1="8" x2="98" y1="319.5" y2="319.5"/><line style="stroke:#A80036;stroke-width:1.5;" x1="8" x2="98" y1="327.5" y2="327.5"/><ellipse cx="18" cy="338.5" fill="#84BE84" rx="3" ry="3" style="stroke:#038048;stroke-width:1.0;"/><text fill="#000000" font-family="sans-serif" font-size="11" lengthAdjust="spacing" textLength="66" x="27" y="342.9189">getDroneDB()</text><!--MD5=[a4eae41eab29d4dd77d4cf581c75c18f]
class DroneRegister--><rect codeLine="15" fill="#FEFECE" filter="url(#fo6ltzehaldrh)" height="103.3438" id="DroneRegister" style="stroke:#A80036;stroke-width:1.5;" width="131" x="134.5" y="267"/><ellipse cx="157.6" cy="283" fill="#ADD1B2" rx="11" ry="11" style="stroke:#A80036;stroke-width:1.0;"/><path d="M159.6,279.5 Q159.8031,279 160.0375,278.75 Q160.2719,278.5 160.5375,278.5 Q161.0063,278.5 161.3031,278.7813 Q161.6,279.0625 161.6,279.7188 L161.6,281.2813 Q161.6,281.9375 161.3188,282.2188 Q161.0375,282.5 160.6,282.5 Q160.2094,282.5 159.9594,282.3281 Q159.7094,282.1563 159.6,281.7031 Q159.5531,281.3906 159.3813,281.2188 Q159.0688,280.8906 158.5063,280.7031 Q157.9438,280.5 157.3813,280.5 Q156.6781,280.5 156.0844,280.7813 Q155.5063,281.0625 155.0531,281.6875 Q154.6,282.3125 154.6,283.1719 L154.6,284.0938 Q154.6,285.125 155.4438,285.8125 Q156.2875,286.5 157.7875,286.5 Q158.6781,286.5 159.3031,286.2969 Q159.6625,286.1875 160.0688,285.8281 Q160.3344,285.625 160.475,285.5625 Q160.6156,285.5 160.7875,285.5 Q161.1156,285.5 161.35,285.7656 Q161.6,286.0156 161.6,286.375 Q161.6,286.7188 161.2563,287.125 Q160.7563,287.7188 159.9594,288.0469 Q158.9125,288.5 157.6313,288.5 Q156.1313,288.5 154.9281,287.9063 Q153.9594,287.4375 153.2719,286.4219 Q152.6,285.4063 152.6,284.2031 L152.6,283.1094 Q152.6,281.8594 153.1938,280.7656 Q153.8031,279.6719 154.85,279.0938 Q155.9125,278.5 157.1,278.5 Q157.8188,278.5 158.4438,278.75 Q159.0688,279 159.6,279.5 Z " fill="#000000"/><text fill="#000000" font-family="sans-serif" font-size="12" lengthAdjust="spacing" textLength="81" x="173.4" y="287.9102">DroneRegister</text><line style="stroke:#A80036;stroke-width:1.5;" x1="135.5" x2="264.5" y1="299" y2="299"/><text fill="#000000" font-family="sans-serif" font-size="11" lengthAdjust="spacing" textLength="79" x="140.5" y="314.4189">class DroneDB {</text><line style="stroke:#A80036;stroke-width:1.5;" x1="135.5" x2="264.5" y1="320.8359" y2="320.8359"/><ellipse cx="145.5" cy="331.8359" fill="#84BE84" rx="3" ry="3" style="stroke:#038048;stroke-width:1.0;"/><text fill="#000000" font-family="sans-serif" font-size="11" lengthAdjust="spacing" textLength="105" x="154.5" y="336.2549">removeDrone(drone)}</text><ellipse cx="145.5" cy="345.6719" fill="#84BE84" rx="3" ry="3" style="stroke:#038048;stroke-width:1.0;"/><text fill="#000000" font-family="sans-serif" font-size="11" lengthAdjust="spacing" textLength="60" x="154.5" y="350.0908">getDrone(id)</text><ellipse cx="145.5" cy="359.5078" fill="#84BE84" rx="3" ry="3" style="stroke:#038048;stroke-width:1.0;"/><text fill="#000000" font-family="sans-serif" font-size="11" lengthAdjust="spacing" textLength="101" x="154.5" y="363.9268">removeDrone(drone)</text><!--MD5=[e5e4874ffcb9901dc5acd0f1e94e7c33]
class DroneDB--><rect fill="#FEFECE" filter="url(#fo6ltzehaldrh)" height="48" id="DroneDB" style="stroke:#A80036;stroke-width:1.5;" width="83" x="84.5" y="448"/><ellipse cx="99.5" cy="464" fill="#ADD1B2" rx="11" ry="11" style="stroke:#A80036;stroke-width:1.0;"/><path d="M101.5,460.5 Q101.7031,460 101.9375,459.75 Q102.1719,459.5 102.4375,459.5 Q102.9063,459.5 103.2031,459.7813 Q103.5,460.0625 103.5,460.7188 L103.5,462.2813 Q103.5,462.9375 103.2188,463.2188 Q102.9375,463.5 102.5,463.5 Q102.1094,463.5 101.8594,463.3281 Q101.6094,463.1563 101.5,462.7031 Q101.4531,462.3906 101.2813,462.2188 Q100.9688,461.8906 100.4063,461.7031 Q99.8438,461.5 99.2813,461.5 Q98.5781,461.5 97.9844,461.7813 Q97.4063,462.0625 96.9531,462.6875 Q96.5,463.3125 96.5,464.1719 L96.5,465.0938 Q96.5,466.125 97.3438,466.8125 Q98.1875,467.5 99.6875,467.5 Q100.5781,467.5 101.2031,467.2969 Q101.5625,467.1875 101.9688,466.8281 Q102.2344,466.625 102.375,466.5625 Q102.5156,466.5 102.6875,466.5 Q103.0156,466.5 103.25,466.7656 Q103.5,467.0156 103.5,467.375 Q103.5,467.7188 103.1563,468.125 Q102.6563,468.7188 101.8594,469.0469 Q100.8125,469.5 99.5313,469.5 Q98.0313,469.5 96.8281,468.9063 Q95.8594,468.4375 95.1719,467.4219 Q94.5,466.4063 94.5,465.2031 L94.5,464.1094 Q94.5,462.8594 95.0938,461.7656 Q95.7031,460.6719 96.75,460.0938 Q97.8125,459.5 99,459.5 Q99.7188,459.5 100.3438,459.75 Q100.9688,460 101.5,460.5 Z " fill="#000000"/><text fill="#000000" font-family="sans-serif" font-size="12" lengthAdjust="spacing" textLength="51" x="113.5" y="468.9102">DroneDB</text><line style="stroke:#A80036;stroke-width:1.5;" x1="85.5" x2="166.5" y1="480" y2="480"/><line style="stroke:#A80036;stroke-width:1.5;" x1="85.5" x2="166.5" y1="488" y2="488"/><!--MD5=[54818b4ad2b3f16a72cac60a20a84b77]
link RemoveDroneUI to RemoveDroneController--><path codeLine="24" d="M126,55.18 C126,70.59 126,91.42 126,110.45 " fill="none" id="RemoveDroneUI-to-RemoveDroneController" style="stroke:#A80036;stroke-width:1.0;stroke-dasharray:7.0,7.0;"/><polygon fill="#A80036" points="126,115.76,130,106.76,126,110.76,122,106.76,126,115.76" style="stroke:#A80036;stroke-width:1.0;"/><!--MD5=[59e73dc86030b44f631294e3093d2f9a]
link RemoveDroneController to Application--><path codeLine="25" d="M105.28,206.14 C93.94,230.29 80.1,259.78 69.5,282.35 " fill="none" id="RemoveDroneController-to-Application" style="stroke:#A80036;stroke-width:1.0;stroke-dasharray:7.0,7.0;"/><polygon fill="#A80036" points="67.29,287.06,74.7218,280.5972,69.4052,282.5294,67.4729,277.2128,67.29,287.06" style="stroke:#A80036;stroke-width:1.0;"/><!--MD5=[7c0dfc4745a1613e676b9e93300b826d]
link RemoveDroneController to DroneRegister--><path codeLine="26" d="M147.01,206.14 C155.32,223.61 164.96,243.88 173.73,262.3 " fill="none" id="RemoveDroneController-to-DroneRegister" style="stroke:#A80036;stroke-width:1.0;stroke-dasharray:7.0,7.0;"/><polygon fill="#A80036" points="175.94,266.94,175.6941,257.0942,173.7959,262.4231,168.467,260.5248,175.94,266.94" style="stroke:#A80036;stroke-width:1.0;"/><!--MD5=[1db786c054b6c5d88709f160cb19416e]
link Application to DroneDB--><path codeLine="27" d="M67.6,349.79 C80.68,376.95 99.72,416.46 112.47,442.91 " fill="none" id="Application-to-DroneDB" style="stroke:#A80036;stroke-width:1.0;"/><polygon fill="#A80036" points="114.77,447.7,114.4734,437.8556,112.6026,443.1942,107.2641,441.3234,114.77,447.7" style="stroke:#A80036;stroke-width:1.0;"/><text fill="#000000" font-family="sans-serif" font-size="13" lengthAdjust="spacing" textLength="21" x="102" y="414.4951">has</text><text fill="#000000" font-family="sans-serif" font-size="13" lengthAdjust="spacing" textLength="7" x="62.7159" y="370.8239">1</text><text fill="#000000" font-family="sans-serif" font-size="13" lengthAdjust="spacing" textLength="7" x="103.9954" y="436.9633">1</text><!--MD5=[1abcb01d066c61dca501cbd76264f350]
link DroneRegister to DroneDB--><path codeLine="28" d="M175.15,370.37 C163.34,394.56 149.66,422.56 139.74,442.88 " fill="none" id="DroneRegister-to-DroneDB" style="stroke:#A80036;stroke-width:1.0;stroke-dasharray:7.0,7.0;"/><polygon fill="#A80036" points="137.43,447.61,144.9681,441.2715,139.6201,443.1152,137.7764,437.7672,137.43,447.61" style="stroke:#A80036;stroke-width:1.0;"/><!--MD5=[8302e70b8cdc721e425b4878320fb335]
@startuml

class RemoveDroneUI {
}

class RemoveDroneController {
  +getDroneDB()
  +getDrone(id)
 +removeDrone(drone)
}

class Application {
  +getDroneDB()
}

class DroneRegister {
+removeDrone(drone)}

class DroneDB {
  +getDrone(id)
  +removeDrone(drone)
}


RemoveDroneUI ..> RemoveDroneController
RemoveDroneController ..> Application
RemoveDroneController ..> DroneRegister
Application "1" - -> "1" DroneDB: has
DroneRegister..>DroneDB
@enduml

PlantUML version 1.2021.00(Sun Jan 10 10:25:05 GMT 2021)
(GPL source distribution)
Java Runtime: OpenJDK Runtime Environment
JVM: OpenJDK 64-Bit Server VM
Default Encoding: Cp1252
Language: pt
Country: PT
--></g></svg>