<?xml version="1.0" encoding="UTF-8" standalone="no"?><svg xmlns="http://www.w3.org/2000/svg" xmlns:xlink="http://www.w3.org/1999/xlink" contentScriptType="application/ecmascript" contentStyleType="text/css" height="377px" preserveAspectRatio="none" style="width:415px;height:377px;" version="1.1" viewBox="0 0 415 377" width="415px" zoomAndPan="magnify"><defs><filter height="300%" id="f1afm9p8zv7wnh" width="300%" x="-1" y="-1"><feGaussianBlur result="blurOut" stdDeviation="2.0"/><feColorMatrix in="blurOut" result="blurOut2" type="matrix" values="0 0 0 0 0 0 0 0 0 0 0 0 0 0 0 0 0 0 .4 0"/><feOffset dx="4.0" dy="4.0" in="blurOut2" result="blurOut3"/><feBlend in="SourceGraphic" in2="blurOut3" mode="normal"/></filter></defs><g><rect fill="#FFFFFF" filter="url(#f1afm9p8zv7wnh)" height="174.1094" style="stroke:#A80036;stroke-width:1.0;" width="10" x="22.5" y="99.6094"/><rect fill="#FFFFFF" filter="url(#f1afm9p8zv7wnh)" height="30.3516" style="stroke:#A80036;stroke-width:1.0;" width="10" x="366.5" y="121.9609"/><rect fill="#FFFFFF" filter="url(#f1afm9p8zv7wnh)" height="30.3516" style="stroke:#A80036;stroke-width:1.0;" width="10" x="366.5" y="182.6641"/><rect fill="#FFFFFF" filter="url(#f1afm9p8zv7wnh)" height="30.3516" style="stroke:#A80036;stroke-width:1.0;" width="10" x="366.5" y="243.3672"/><line style="stroke:#A80036;stroke-width:1.0;stroke-dasharray:5.0,5.0;" x1="27" x2="27" y1="89.6094" y2="291.7188"/><line style="stroke:#A80036;stroke-width:1.0;stroke-dasharray:5.0,5.0;" x1="371.5" x2="371.5" y1="89.6094" y2="291.7188"/><text fill="#000000" font-family="sans-serif" font-size="14" lengthAdjust="spacing" textLength="39" x="5" y="86.5332">Admin</text><ellipse cx="27.5" cy="15" fill="#FEFECE" filter="url(#f1afm9p8zv7wnh)" rx="8" ry="8" style="stroke:#A80036;stroke-width:2.0;"/><path d="M27.5,23 L27.5,50 M14.5,31 L40.5,31 M27.5,50 L14.5,65 M27.5,50 L40.5,65 " fill="none" filter="url(#f1afm9p8zv7wnh)" style="stroke:#A80036;stroke-width:2.0;"/><text fill="#000000" font-family="sans-serif" font-size="14" lengthAdjust="spacing" textLength="39" x="5" y="305.252">Admin</text><ellipse cx="27.5" cy="318.3281" fill="#FEFECE" filter="url(#f1afm9p8zv7wnh)" rx="8" ry="8" style="stroke:#A80036;stroke-width:2.0;"/><path d="M27.5,326.3281 L27.5,353.3281 M14.5,334.3281 L40.5,334.3281 M27.5,353.3281 L14.5,368.3281 M27.5,353.3281 L40.5,368.3281 " fill="none" filter="url(#f1afm9p8zv7wnh)" style="stroke:#A80036;stroke-width:2.0;"/><rect fill="#FEFECE" filter="url(#f1afm9p8zv7wnh)" height="31.6094" style="stroke:#A80036;stroke-width:1.5;" width="64" x="337.5" y="53"/><text fill="#000000" font-family="sans-serif" font-size="14" lengthAdjust="spacing" textLength="50" x="344.5" y="74.5332">:System</text><rect fill="#FEFECE" filter="url(#f1afm9p8zv7wnh)" height="31.6094" style="stroke:#A80036;stroke-width:1.5;" width="64" x="337.5" y="290.7188"/><text fill="#000000" font-family="sans-serif" font-size="14" lengthAdjust="spacing" textLength="50" x="344.5" y="312.252">:System</text><rect fill="#FFFFFF" filter="url(#f1afm9p8zv7wnh)" height="174.1094" style="stroke:#A80036;stroke-width:1.0;" width="10" x="22.5" y="99.6094"/><rect fill="#FFFFFF" filter="url(#f1afm9p8zv7wnh)" height="30.3516" style="stroke:#A80036;stroke-width:1.0;" width="10" x="366.5" y="121.9609"/><rect fill="#FFFFFF" filter="url(#f1afm9p8zv7wnh)" height="30.3516" style="stroke:#A80036;stroke-width:1.0;" width="10" x="366.5" y="182.6641"/><rect fill="#FFFFFF" filter="url(#f1afm9p8zv7wnh)" height="30.3516" style="stroke:#A80036;stroke-width:1.0;" width="10" x="366.5" y="243.3672"/><polygon fill="#A80036" points="354.5,117.9609,364.5,121.9609,354.5,125.9609,358.5,121.9609" style="stroke:#A80036;stroke-width:1.0;"/><line style="stroke:#A80036;stroke-width:1.0;" x1="32.5" x2="360.5" y1="121.9609" y2="121.9609"/><text fill="#000000" font-family="sans-serif" font-size="13" font-weight="bold" lengthAdjust="spacing" textLength="7" x="39.5" y="117.1045">1</text><text fill="#000000" font-family="sans-serif" font-size="13" lengthAdjust="spacing" textLength="137" x="50.5" y="117.1045">starts removing a Drone</text><polygon fill="#A80036" points="43.5,148.3125,33.5,152.3125,43.5,156.3125,39.5,152.3125" style="stroke:#A80036;stroke-width:1.0;"/><line style="stroke:#A80036;stroke-width:1.0;stroke-dasharray:2.0,2.0;" x1="37.5" x2="370.5" y1="152.3125" y2="152.3125"/><text fill="#000000" font-family="sans-serif" font-size="13" font-weight="bold" lengthAdjust="spacing" textLength="7" x="49.5" y="147.4561">2</text><text fill="#000000" font-family="sans-serif" font-size="13" lengthAdjust="spacing" textLength="244" x="60.5" y="147.4561">shows the list of all Drone in the Database</text><polygon fill="#A80036" points="354.5,178.6641,364.5,182.6641,354.5,186.6641,358.5,182.6641" style="stroke:#A80036;stroke-width:1.0;"/><line style="stroke:#A80036;stroke-width:1.0;" x1="32.5" x2="360.5" y1="182.6641" y2="182.6641"/><text fill="#000000" font-family="sans-serif" font-size="13" font-weight="bold" lengthAdjust="spacing" textLength="7" x="39.5" y="177.8076">3</text><text fill="#000000" font-family="sans-serif" font-size="13" lengthAdjust="spacing" textLength="286" x="50.5" y="177.8076">introduces the id of the Drone he wants to remove</text><polygon fill="#A80036" points="43.5,209.0156,33.5,213.0156,43.5,217.0156,39.5,213.0156" style="stroke:#A80036;stroke-width:1.0;"/><line style="stroke:#A80036;stroke-width:1.0;stroke-dasharray:2.0,2.0;" x1="37.5" x2="370.5" y1="213.0156" y2="213.0156"/><text fill="#000000" font-family="sans-serif" font-size="13" font-weight="bold" lengthAdjust="spacing" textLength="7" x="49.5" y="208.1592">4</text><text fill="#000000" font-family="sans-serif" font-size="13" lengthAdjust="spacing" textLength="120" x="60.5" y="208.1592">asks for confirmation</text><polygon fill="#A80036" points="354.5,239.3672,364.5,243.3672,354.5,247.3672,358.5,243.3672" style="stroke:#A80036;stroke-width:1.0;"/><line style="stroke:#A80036;stroke-width:1.0;" x1="32.5" x2="360.5" y1="243.3672" y2="243.3672"/><text fill="#000000" font-family="sans-serif" font-size="13" font-weight="bold" lengthAdjust="spacing" textLength="7" x="39.5" y="238.5107">5</text><text fill="#000000" font-family="sans-serif" font-size="13" lengthAdjust="spacing" textLength="49" x="50.5" y="238.5107">confirms</text><polygon fill="#A80036" points="38.5,269.7188,28.5,273.7188,38.5,277.7188,34.5,273.7188" style="stroke:#A80036;stroke-width:1.0;"/><line style="stroke:#A80036;stroke-width:1.0;stroke-dasharray:2.0,2.0;" x1="32.5" x2="370.5" y1="273.7188" y2="273.7188"/><text fill="#000000" font-family="sans-serif" font-size="13" font-weight="bold" lengthAdjust="spacing" textLength="7" x="44.5" y="268.8623">6</text><text fill="#000000" font-family="sans-serif" font-size="13" lengthAdjust="spacing" textLength="299" x="55.5" y="268.8623">notifies the Admin that the Drone has been removed</text><!--MD5=[3a28b7806af24c8964f096202b0d8072]
@startuml
autonumber
actor "Admin" as ADM
participant ":System" as STM
activate ADM
ADM-> STM :starts removing a Drone
activate STM
STM - -> ADM :shows the list of all Drone in the Database
deactivate STM
ADM -> STM : introduces the id of the Drone he wants to remove
activate STM
STM - -> ADM :asks for confirmation
deactivate STM
ADM -> STM : confirms
activate STM
STM - -> ADM : notifies the Admin that the Drone has been removed
deactivate STM

deactivate ADM
@enduml

PlantUML version 1.2021.00(Sun Jan 10 10:25:05 GMT 2021)
(GPL source distribution)
Java Runtime: OpenJDK Runtime Environment
JVM: OpenJDK 64-Bit Server VM
Default Encoding: Cp1252
Language: pt
Country: PT
--></g></svg>