<?xml version="1.0" encoding="UTF-8" standalone="no"?><svg xmlns="http://www.w3.org/2000/svg" xmlns:xlink="http://www.w3.org/1999/xlink" contentScriptType="application/ecmascript" contentStyleType="text/css" height="272px" preserveAspectRatio="none" style="width:821px;height:272px;" version="1.1" viewBox="0 0 821 272" width="821px" zoomAndPan="magnify"><defs><filter height="300%" id="f1la1nlp8mhjhb" width="300%" x="-1" y="-1"><feGaussianBlur result="blurOut" stdDeviation="2.0"/><feColorMatrix in="blurOut" result="blurOut2" type="matrix" values="0 0 0 0 0 0 0 0 0 0 0 0 0 0 0 0 0 0 .4 0"/><feOffset dx="4.0" dy="4.0" in="blurOut2" result="blurOut3"/><feBlend in="SourceGraphic" in2="blurOut3" mode="normal"/></filter></defs><g><!--MD5=[da547346deef918ea16944ba046651ef]
class Administrator--><rect codeLine="4" fill="#FEFECE" filter="url(#f1la1nlp8mhjhb)" height="95.3438" id="Administrator" style="stroke:#A80036;stroke-width:1.5;" width="123" x="403" y="76"/><ellipse cx="426.1" cy="92" fill="#ADD1B2" rx="11" ry="11" style="stroke:#A80036;stroke-width:1.0;"/><path d="M428.1,88.5 Q428.3031,88 428.5375,87.75 Q428.7719,87.5 429.0375,87.5 Q429.5063,87.5 429.8031,87.7813 Q430.1,88.0625 430.1,88.7188 L430.1,90.2813 Q430.1,90.9375 429.8188,91.2188 Q429.5375,91.5 429.1,91.5 Q428.7094,91.5 428.4594,91.3281 Q428.2094,91.1563 428.1,90.7031 Q428.0531,90.3906 427.8813,90.2188 Q427.5688,89.8906 427.0063,89.7031 Q426.4438,89.5 425.8813,89.5 Q425.1781,89.5 424.5844,89.7813 Q424.0063,90.0625 423.5531,90.6875 Q423.1,91.3125 423.1,92.1719 L423.1,93.0938 Q423.1,94.125 423.9438,94.8125 Q424.7875,95.5 426.2875,95.5 Q427.1781,95.5 427.8031,95.2969 Q428.1625,95.1875 428.5688,94.8281 Q428.8344,94.625 428.975,94.5625 Q429.1156,94.5 429.2875,94.5 Q429.6156,94.5 429.85,94.7656 Q430.1,95.0156 430.1,95.375 Q430.1,95.7188 429.7563,96.125 Q429.2563,96.7188 428.4594,97.0469 Q427.4125,97.5 426.1313,97.5 Q424.6313,97.5 423.4281,96.9063 Q422.4594,96.4375 421.7719,95.4219 Q421.1,94.4063 421.1,93.2031 L421.1,92.1094 Q421.1,90.8594 421.6938,89.7656 Q422.3031,88.6719 423.35,88.0938 Q424.4125,87.5 425.6,87.5 Q426.3188,87.5 426.9438,87.75 Q427.5688,88 428.1,88.5 Z " fill="#000000"/><text fill="#000000" font-family="sans-serif" font-size="12" lengthAdjust="spacing" textLength="73" x="441.9" y="96.9102">Administrator</text><line style="stroke:#A80036;stroke-width:1.5;" x1="404" x2="525" y1="108" y2="108"/><rect fill="none" height="6" style="stroke:#C82930;stroke-width:1.0;" width="6" x="411" y="116"/><text fill="#000000" font-family="sans-serif" font-size="11" lengthAdjust="spacing" textLength="44" x="423" y="123.4189">Integer id</text><rect fill="none" height="6" style="stroke:#C82930;stroke-width:1.0;" width="6" x="411" y="129.8359"/><text fill="#000000" font-family="sans-serif" font-size="11" lengthAdjust="spacing" textLength="57" x="423" y="137.2549">String name</text><rect fill="none" height="6" style="stroke:#C82930;stroke-width:1.0;" width="6" x="411" y="143.6719"/><text fill="#000000" font-family="sans-serif" font-size="11" lengthAdjust="spacing" textLength="97" x="423" y="151.0908">String emailAddress</text><rect fill="none" height="6" style="stroke:#C82930;stroke-width:1.0;" width="6" x="411" y="157.5078"/><text fill="#000000" font-family="sans-serif" font-size="11" lengthAdjust="spacing" textLength="81" x="423" y="164.9268">String password</text><!--MD5=[2e3f1e60e74253ff42e47f8bfdb04ee2]
class Drone--><rect codeLine="11" fill="#FEFECE" filter="url(#f1la1nlp8mhjhb)" height="109.1797" id="Drone" style="stroke:#A80036;stroke-width:1.5;" width="158" x="649" y="149"/><ellipse cx="706.75" cy="165" fill="#ADD1B2" rx="11" ry="11" style="stroke:#A80036;stroke-width:1.0;"/><path d="M708.75,161.5 Q708.9531,161 709.1875,160.75 Q709.4219,160.5 709.6875,160.5 Q710.1563,160.5 710.4531,160.7813 Q710.75,161.0625 710.75,161.7188 L710.75,163.2813 Q710.75,163.9375 710.4688,164.2188 Q710.1875,164.5 709.75,164.5 Q709.3594,164.5 709.1094,164.3281 Q708.8594,164.1563 708.75,163.7031 Q708.7031,163.3906 708.5313,163.2188 Q708.2188,162.8906 707.6563,162.7031 Q707.0938,162.5 706.5313,162.5 Q705.8281,162.5 705.2344,162.7813 Q704.6563,163.0625 704.2031,163.6875 Q703.75,164.3125 703.75,165.1719 L703.75,166.0938 Q703.75,167.125 704.5938,167.8125 Q705.4375,168.5 706.9375,168.5 Q707.8281,168.5 708.4531,168.2969 Q708.8125,168.1875 709.2188,167.8281 Q709.4844,167.625 709.625,167.5625 Q709.7656,167.5 709.9375,167.5 Q710.2656,167.5 710.5,167.7656 Q710.75,168.0156 710.75,168.375 Q710.75,168.7188 710.4063,169.125 Q709.9063,169.7188 709.1094,170.0469 Q708.0625,170.5 706.7813,170.5 Q705.2813,170.5 704.0781,169.9063 Q703.1094,169.4375 702.4219,168.4219 Q701.75,167.4063 701.75,166.2031 L701.75,165.1094 Q701.75,163.8594 702.3438,162.7656 Q702.9531,161.6719 704,161.0938 Q705.0625,160.5 706.25,160.5 Q706.9688,160.5 707.5938,160.75 Q708.2188,161 708.75,161.5 Z " fill="#000000"/><text fill="#000000" font-family="sans-serif" font-size="12" lengthAdjust="spacing" textLength="34" x="727.25" y="169.9102">Drone</text><line style="stroke:#A80036;stroke-width:1.5;" x1="650" x2="806" y1="181" y2="181"/><rect fill="none" height="6" style="stroke:#C82930;stroke-width:1.0;" width="6" x="657" y="189"/><text fill="#000000" font-family="sans-serif" font-size="11" lengthAdjust="spacing" textLength="44" x="669" y="196.4189">Integer id</text><rect fill="none" height="6" style="stroke:#C82930;stroke-width:1.0;" width="6" x="657" y="202.8359"/><text fill="#000000" font-family="sans-serif" font-size="11" lengthAdjust="spacing" textLength="91" x="669" y="210.2549">Double batterySize</text><rect fill="none" height="6" style="stroke:#C82930;stroke-width:1.0;" width="6" x="657" y="216.6719"/><text fill="#000000" font-family="sans-serif" font-size="11" lengthAdjust="spacing" textLength="106" x="669" y="224.0908">Double currentBattery</text><rect fill="none" height="6" style="stroke:#C82930;stroke-width:1.0;" width="6" x="657" y="230.5078"/><text fill="#000000" font-family="sans-serif" font-size="11" lengthAdjust="spacing" textLength="132" x="669" y="237.9268">Double batteryConsumption</text><rect fill="none" height="6" style="stroke:#C82930;stroke-width:1.0;" width="6" x="657" y="244.3438"/><text fill="#000000" font-family="sans-serif" font-size="11" lengthAdjust="spacing" textLength="52" x="669" y="251.7627">int payload</text><!--MD5=[0b4e4b4980470ea387cc45de9bd14b5b]
class Application--><rect codeLine="19" fill="#FEFECE" filter="url(#f1la1nlp8mhjhb)" height="40" id="Application" style="stroke:#A80036;stroke-width:1.5;" width="92" x="7" y="53.5"/><ellipse cx="22" cy="69.5" fill="#ADD1B2" rx="11" ry="11" style="stroke:#A80036;stroke-width:1.0;"/><path d="M24,66 Q24.2031,65.5 24.4375,65.25 Q24.6719,65 24.9375,65 Q25.4063,65 25.7031,65.2813 Q26,65.5625 26,66.2188 L26,67.7813 Q26,68.4375 25.7188,68.7188 Q25.4375,69 25,69 Q24.6094,69 24.3594,68.8281 Q24.1094,68.6563 24,68.2031 Q23.9531,67.8906 23.7813,67.7188 Q23.4688,67.3906 22.9063,67.2031 Q22.3438,67 21.7813,67 Q21.0781,67 20.4844,67.2813 Q19.9063,67.5625 19.4531,68.1875 Q19,68.8125 19,69.6719 L19,70.5938 Q19,71.625 19.8438,72.3125 Q20.6875,73 22.1875,73 Q23.0781,73 23.7031,72.7969 Q24.0625,72.6875 24.4688,72.3281 Q24.7344,72.125 24.875,72.0625 Q25.0156,72 25.1875,72 Q25.5156,72 25.75,72.2656 Q26,72.5156 26,72.875 Q26,73.2188 25.6563,73.625 Q25.1563,74.2188 24.3594,74.5469 Q23.3125,75 22.0313,75 Q20.5313,75 19.3281,74.4063 Q18.3594,73.9375 17.6719,72.9219 Q17,71.9063 17,70.7031 L17,69.6094 Q17,68.3594 17.5938,67.2656 Q18.2031,66.1719 19.25,65.5938 Q20.3125,65 21.5,65 Q22.2188,65 22.8438,65.25 Q23.4688,65.5 24,66 Z " fill="#000000"/><text fill="#000000" font-family="sans-serif" font-size="12" lengthAdjust="spacing" textLength="60" x="36" y="74.4102">Application</text><line style="stroke:#A80036;stroke-width:1.5;" x1="8" x2="98" y1="85.5" y2="85.5"/><!--MD5=[3fd616f346a44cd59a91eb10b19e157c]
class User--><rect codeLine="23" fill="#FEFECE" filter="url(#f1la1nlp8mhjhb)" height="95.3438" id="User" style="stroke:#A80036;stroke-width:1.5;" width="123" x="666.5" y="7"/><ellipse cx="710.3" cy="23" fill="#ADD1B2" rx="11" ry="11" style="stroke:#A80036;stroke-width:1.0;"/><path d="M712.3,19.5 Q712.5031,19 712.7375,18.75 Q712.9719,18.5 713.2375,18.5 Q713.7063,18.5 714.0031,18.7813 Q714.3,19.0625 714.3,19.7188 L714.3,21.2813 Q714.3,21.9375 714.0188,22.2188 Q713.7375,22.5 713.3,22.5 Q712.9094,22.5 712.6594,22.3281 Q712.4094,22.1563 712.3,21.7031 Q712.2531,21.3906 712.0813,21.2188 Q711.7688,20.8906 711.2063,20.7031 Q710.6438,20.5 710.0813,20.5 Q709.3781,20.5 708.7844,20.7813 Q708.2063,21.0625 707.7531,21.6875 Q707.3,22.3125 707.3,23.1719 L707.3,24.0938 Q707.3,25.125 708.1438,25.8125 Q708.9875,26.5 710.4875,26.5 Q711.3781,26.5 712.0031,26.2969 Q712.3625,26.1875 712.7688,25.8281 Q713.0344,25.625 713.175,25.5625 Q713.3156,25.5 713.4875,25.5 Q713.8156,25.5 714.05,25.7656 Q714.3,26.0156 714.3,26.375 Q714.3,26.7188 713.9563,27.125 Q713.4563,27.7188 712.6594,28.0469 Q711.6125,28.5 710.3313,28.5 Q708.8313,28.5 707.6281,27.9063 Q706.6594,27.4375 705.9719,26.4219 Q705.3,25.4063 705.3,24.2031 L705.3,23.1094 Q705.3,21.8594 705.8938,20.7656 Q706.5031,19.6719 707.55,19.0938 Q708.6125,18.5 709.8,18.5 Q710.5188,18.5 711.1438,18.75 Q711.7688,19 712.3,19.5 Z " fill="#000000"/><text fill="#000000" font-family="sans-serif" font-size="12" lengthAdjust="spacing" textLength="27" x="730.7" y="27.9102">User</text><line style="stroke:#A80036;stroke-width:1.5;" x1="667.5" x2="788.5" y1="39" y2="39"/><rect fill="none" height="6" style="stroke:#C82930;stroke-width:1.0;" width="6" x="674.5" y="47"/><text fill="#000000" font-family="sans-serif" font-size="11" lengthAdjust="spacing" textLength="44" x="686.5" y="54.4189">Integer id</text><rect fill="none" height="6" style="stroke:#C82930;stroke-width:1.0;" width="6" x="674.5" y="60.8359"/><text fill="#000000" font-family="sans-serif" font-size="11" lengthAdjust="spacing" textLength="57" x="686.5" y="68.2549">String name</text><rect fill="none" height="6" style="stroke:#C82930;stroke-width:1.0;" width="6" x="674.5" y="74.6719"/><text fill="#000000" font-family="sans-serif" font-size="11" lengthAdjust="spacing" textLength="97" x="686.5" y="82.0908">String emailAddress</text><rect fill="none" height="6" style="stroke:#C82930;stroke-width:1.0;" width="6" x="674.5" y="88.5078"/><text fill="#000000" font-family="sans-serif" font-size="11" lengthAdjust="spacing" textLength="81" x="686.5" y="95.9268">String password</text><!--MD5=[7f2a9fafcebe4f099f71398fd3e2ed00]
class Pharmacy--><rect codeLine="30" fill="#FEFECE" filter="url(#f1la1nlp8mhjhb)" height="81.5078" id="Pharmacy" style="stroke:#A80036;stroke-width:1.5;" width="112" x="195" y="82.5"/><ellipse cx="221.25" cy="98.5" fill="#ADD1B2" rx="11" ry="11" style="stroke:#A80036;stroke-width:1.0;"/><path d="M223.25,95 Q223.4531,94.5 223.6875,94.25 Q223.9219,94 224.1875,94 Q224.6563,94 224.9531,94.2813 Q225.25,94.5625 225.25,95.2188 L225.25,96.7813 Q225.25,97.4375 224.9688,97.7188 Q224.6875,98 224.25,98 Q223.8594,98 223.6094,97.8281 Q223.3594,97.6563 223.25,97.2031 Q223.2031,96.8906 223.0313,96.7188 Q222.7188,96.3906 222.1563,96.2031 Q221.5938,96 221.0313,96 Q220.3281,96 219.7344,96.2813 Q219.1563,96.5625 218.7031,97.1875 Q218.25,97.8125 218.25,98.6719 L218.25,99.5938 Q218.25,100.625 219.0938,101.3125 Q219.9375,102 221.4375,102 Q222.3281,102 222.9531,101.7969 Q223.3125,101.6875 223.7188,101.3281 Q223.9844,101.125 224.125,101.0625 Q224.2656,101 224.4375,101 Q224.7656,101 225,101.2656 Q225.25,101.5156 225.25,101.875 Q225.25,102.2188 224.9063,102.625 Q224.4063,103.2188 223.6094,103.5469 Q222.5625,104 221.2813,104 Q219.7813,104 218.5781,103.4063 Q217.6094,102.9375 216.9219,101.9219 Q216.25,100.9063 216.25,99.7031 L216.25,98.6094 Q216.25,97.3594 216.8438,96.2656 Q217.4531,95.1719 218.5,94.5938 Q219.5625,94 220.75,94 Q221.4688,94 222.0938,94.25 Q222.7188,94.5 223.25,95 Z " fill="#000000"/><text fill="#000000" font-family="sans-serif" font-size="12" lengthAdjust="spacing" textLength="55" x="237.75" y="103.4102">Pharmacy</text><line style="stroke:#A80036;stroke-width:1.5;" x1="196" x2="306" y1="114.5" y2="114.5"/><rect fill="none" height="6" style="stroke:#C82930;stroke-width:1.0;" width="6" x="203" y="122.5"/><text fill="#000000" font-family="sans-serif" font-size="11" lengthAdjust="spacing" textLength="44" x="215" y="129.9189">Integer id</text><rect fill="none" height="6" style="stroke:#C82930;stroke-width:1.0;" width="6" x="203" y="136.3359"/><text fill="#000000" font-family="sans-serif" font-size="11" lengthAdjust="spacing" textLength="86" x="215" y="143.7549">String designation</text><rect fill="none" height="6" style="stroke:#C82930;stroke-width:1.0;" width="6" x="203" y="150.1719"/><text fill="#000000" font-family="sans-serif" font-size="11" lengthAdjust="spacing" textLength="43" x="215" y="157.5908">String nif</text><!--MD5=[7e5f2900cc75c5dbfbca355ecc60e139]
link Administrator to Drone--><path codeLine="38" d="M526.15,142.05 C562.66,153.22 609.53,167.56 648.81,179.58 " fill="none" id="Administrator-Drone" style="stroke:#A80036;stroke-width:1.0;"/><polygon fill="#000000" points="565.7812,144.1387,557.9918,138.682,556.2721,144.3026,565.7812,144.1387" style="stroke:#000000;stroke-width:1.0;"/><text fill="#000000" font-family="sans-serif" font-size="13" lengthAdjust="spacing" textLength="48" x="570" y="147.9951">removes</text><text fill="#000000" font-family="sans-serif" font-size="13" lengthAdjust="spacing" textLength="7" x="534.0902" y="158.7814">1</text><text fill="#000000" font-family="sans-serif" font-size="13" lengthAdjust="spacing" textLength="20" x="620.8665" y="191.6649">0..*</text><!--MD5=[edc107c0a572352bcd12c9afaba4390b]
link Administrator to User--><path codeLine="39" d="M526.15,107.5 C568.25,96.39 624.1,81.65 666.23,70.54 " fill="none" id="Administrator-User" style="stroke:#A80036;stroke-width:1.0;"/><polygon fill="#000000" points="568.3345,74.4002,558.839,73.8661,560.3385,79.5494,568.3345,74.4002" style="stroke:#000000;stroke-width:1.0;"/><text fill="#000000" font-family="sans-serif" font-size="13" lengthAdjust="spacing" textLength="43" x="572.5" y="80.9951">acts as</text><text fill="#000000" font-family="sans-serif" font-size="13" lengthAdjust="spacing" textLength="7" x="534.0902" y="120.0206">1</text><text fill="#000000" font-family="sans-serif" font-size="13" lengthAdjust="spacing" textLength="7" x="651.6832" y="86.8152">1</text><!--MD5=[f8ebe161610107101fe1df9bed99a2fd]
link Pharmacy to Drone--><path codeLine="41" d="M307.23,162.64 C334.65,179.71 369.1,197.8 403,206.5 C484.86,227.52 582.24,222.83 648.72,215.37 " fill="none" id="Pharmacy-Drone" style="stroke:#A80036;stroke-width:1.0;"/><polygon fill="#000000" points="456.4414,198.4388,447.9508,194.154,447.0538,199.963,456.4414,198.4388" style="stroke:#000000;stroke-width:1.0;"/><text fill="#000000" font-family="sans-serif" font-size="13" lengthAdjust="spacing" textLength="21" x="460.5" y="202.9951">has</text><text fill="#000000" font-family="sans-serif" font-size="13" lengthAdjust="spacing" textLength="7" x="314.8829" y="182.229">1</text><text fill="#000000" font-family="sans-serif" font-size="13" lengthAdjust="spacing" textLength="20" x="621.0475" y="230.5801">1..*</text><!--MD5=[b32c1246a4834e0b72faaa77d69013a3]
link Pharmacy to Administrator--><path codeLine="42" d="M307.02,123.5 C336.39,123.5 372.61,123.5 402.8,123.5 " fill="none" id="Pharmacy-Administrator" style="stroke:#A80036;stroke-width:1.0;"/><polygon fill="#000000" points="350.5,114.6758,341.4549,111.7369,341.4549,117.6147,350.5,114.6758" style="stroke:#000000;stroke-width:1.0;"/><text fill="#000000" font-family="sans-serif" font-size="13" lengthAdjust="spacing" textLength="14" x="354.5" y="119.9951">ha</text><text fill="#000000" font-family="sans-serif" font-size="13" lengthAdjust="spacing" textLength="7" x="315.018" y="138.1268">1</text><text fill="#000000" font-family="sans-serif" font-size="13" lengthAdjust="spacing" textLength="7" x="387.8538" y="137.9706">1</text><!--MD5=[fae869a5e026c729d21735d7cae014a7]
link Application to User--><path codeLine="43" d="M99.19,69.54 C109.01,68.78 119.35,68.04 129,67.5 C325.21,56.44 558.13,54.63 666.25,54.43 " fill="none" id="Application-User" style="stroke:#A80036;stroke-width:1.0;"/><polygon fill="#000000" points="346.9982,48.5426,337.8781,45.8456,338.0346,51.7214,346.9982,48.5426" style="stroke:#000000;stroke-width:1.0;"/><text fill="#000000" font-family="sans-serif" font-size="13" lengthAdjust="spacing" textLength="21" x="351" y="53.9951">has</text><text fill="#000000" font-family="sans-serif" font-size="13" lengthAdjust="spacing" textLength="7" x="107.1093" y="65.157">1</text><text fill="#000000" font-family="sans-serif" font-size="13" lengthAdjust="spacing" textLength="20" x="638.4023" y="68.7929">1..*</text><!--MD5=[8c7e2cb836a61414bf9f02282664f603]
link Application to Pharmacy--><path codeLine="44" d="M99.46,85.1 C127.84,92.34 164.58,101.71 194.65,109.38 " fill="none" id="Application-Pharmacy" style="stroke:#A80036;stroke-width:1.0;"/><polygon fill="#000000" points="138.8449,85.9116,130.8068,80.8283,129.354,86.5238,138.8449,85.9116" style="stroke:#000000;stroke-width:1.0;"/><text fill="#000000" font-family="sans-serif" font-size="13" lengthAdjust="spacing" textLength="21" x="143" y="89.9951">has</text><text fill="#000000" font-family="sans-serif" font-size="13" lengthAdjust="spacing" textLength="7" x="107.1101" y="101.6233">1</text><text fill="#000000" font-family="sans-serif" font-size="13" lengthAdjust="spacing" textLength="7" x="179.9817" y="122.145">1</text><!--MD5=[ac36b8302340f36891015244883e3af8]
@startuml
hide methods
left to right direction

class Administrator {
    -Integer id
    -String name
    -String emailAddress
    -String password
}

class Drone {
    -Integer id
    -Double batterySize
    -Double currentBattery
    -Double batteryConsumption
    -int payload
}

class Application {

}

class User {
    -Integer id
    -String name
    -String emailAddress
    -String password
}

class Pharmacy {
    -Integer id
    -String designation
    -String nif
}



Administrator "1" - - "0..*" Drone: removes >
Administrator "1" - - "1" User: acts as >

Pharmacy "1" - - "1..*" Drone: has >
Pharmacy "1" - - "1" Administrator: ha >
Application "1" - - "1..*" User: has >
Application "1" - - "1" Pharmacy: has >

@enduml

PlantUML version 1.2021.00(Sun Jan 10 10:25:05 GMT 2021)
(GPL source distribution)
Java Runtime: OpenJDK Runtime Environment
JVM: OpenJDK 64-Bit Server VM
Default Encoding: Cp1252
Language: pt
Country: PT
--></g></svg>