<?xml version="1.0" encoding="UTF-8" standalone="no"?><svg xmlns="http://www.w3.org/2000/svg" xmlns:xlink="http://www.w3.org/1999/xlink" contentScriptType="application/ecmascript" contentStyleType="text/css" height="265px" preserveAspectRatio="none" style="width:465px;height:265px;" version="1.1" viewBox="0 0 465 265" width="465px" zoomAndPan="magnify">
    <defs>
        <filter height="300%" id="fvtbizskdl2ht" width="300%" x="-1" y="-1">
            <feGaussianBlur result="blurOut" stdDeviation="2.0" />
            <feColorMatrix in="blurOut" result="blurOut2" type="matrix" values="0 0 0 0 0 0 0 0 0 0 0 0 0 0 0 0 0 0 .4 0" />
            <feOffset dx="4.0" dy="4.0" in="blurOut2" result="blurOut3" />
            <feBlend in="SourceGraphic" in2="blurOut3" mode="normal" />
        </filter>
    </defs>
    <g>
        <!--class Client-->
        <rect fill="#FEFECE" filter="url(#fvtbizskdl2ht)" height="40" id="Client" style="stroke: #A80036; stroke-width: 1.5;" width="64" x="10.5" y="124" />
        <ellipse cx="25.5" cy="140" fill="#ADD1B2" rx="11" ry="11" style="stroke: #A80036; stroke-width: 1.0;" />
        <path d="M28.2656,135.875 Q28.4219,135.6563 28.6094,135.5469 Q28.7969,135.4375 29.0156,135.4375 Q29.3906,135.4375 29.625,135.6953 Q29.8594,135.9531 29.8594,136.5625 L29.8594,138.0156 Q29.8594,138.625 29.625,138.8906 Q29.3906,139.1563 29.0156,139.1563 Q28.6719,139.1563 28.4688,138.9531 Q28.2656,138.7656 28.1563,138.25 Q28.1094,137.8906 27.9219,137.7031 Q27.5938,137.3281 26.9844,137.1094 Q26.375,136.8906 25.75,136.8906 Q24.9844,136.8906 24.3516,137.2188 Q23.7188,137.5469 23.2266,138.2969 Q22.7344,139.0469 22.7344,140.0781 L22.7344,141.1719 Q22.7344,142.4063 23.625,143.2266 Q24.5156,144.0469 26.1094,144.0469 Q27.0469,144.0469 27.7031,143.7969 Q28.0938,143.6406 28.5156,143.2031 Q28.7813,142.9375 28.9297,142.8594 Q29.0781,142.7813 29.2813,142.7813 Q29.6094,142.7813 29.8672,143.0391 Q30.125,143.2969 30.125,143.6406 Q30.125,143.9844 29.7813,144.3906 Q29.2813,144.9688 28.4844,145.2969 Q27.4063,145.75 26.1094,145.75 Q24.5938,145.75 23.3906,145.125 Q22.4063,144.625 21.7188,143.5547 Q21.0313,142.4844 21.0313,141.2031 L21.0313,140.0469 Q21.0313,138.7188 21.6484,137.5703 Q22.2656,136.4219 23.3594,135.8047 Q24.4531,135.1875 25.6875,135.1875 Q26.4219,135.1875 27.0703,135.3516 Q27.7188,135.5156 28.2656,135.875 Z " /><text fill="#000000" font-family="sans-serif" font-size="12" lengthAdjust="spacingAndGlyphs" textLength="32" x="39.5" y="144.9102">Client</text>
        <line style="stroke: #A80036; stroke-width: 1.5;" x1="11.5" x2="73.5" y1="156" y2="156" />
        <!--class System-->
        <rect fill="#FEFECE" filter="url(#fvtbizskdl2ht)" height="40" id="System" style="stroke: #A80036; stroke-width: 1.5;" width="73" x="6" y="8" />
        <ellipse cx="21" cy="24" fill="#ADD1B2" rx="11" ry="11" style="stroke: #A80036; stroke-width: 1.0;" />
        <path d="M23.7656,19.875 Q23.9219,19.6563 24.1094,19.5469 Q24.2969,19.4375 24.5156,19.4375 Q24.8906,19.4375 25.125,19.6953 Q25.3594,19.9531 25.3594,20.5625 L25.3594,22.0156 Q25.3594,22.625 25.125,22.8906 Q24.8906,23.1563 24.5156,23.1563 Q24.1719,23.1563 23.9688,22.9531 Q23.7656,22.7656 23.6563,22.25 Q23.6094,21.8906 23.4219,21.7031 Q23.0938,21.3281 22.4844,21.1094 Q21.875,20.8906 21.25,20.8906 Q20.4844,20.8906 19.8516,21.2188 Q19.2188,21.5469 18.7266,22.2969 Q18.2344,23.0469 18.2344,24.0781 L18.2344,25.1719 Q18.2344,26.4063 19.125,27.2266 Q20.0156,28.0469 21.6094,28.0469 Q22.5469,28.0469 23.2031,27.7969 Q23.5938,27.6406 24.0156,27.2031 Q24.2813,26.9375 24.4297,26.8594 Q24.5781,26.7813 24.7813,26.7813 Q25.1094,26.7813 25.3672,27.0391 Q25.625,27.2969 25.625,27.6406 Q25.625,27.9844 25.2813,28.3906 Q24.7813,28.9688 23.9844,29.2969 Q22.9063,29.75 21.6094,29.75 Q20.0938,29.75 18.8906,29.125 Q17.9063,28.625 17.2188,27.5547 Q16.5313,26.4844 16.5313,25.2031 L16.5313,24.0469 Q16.5313,22.7188 17.1484,21.5703 Q17.7656,20.4219 18.8594,19.8047 Q19.9531,19.1875 21.1875,19.1875 Q21.9219,19.1875 22.5703,19.3516 Q23.2188,19.5156 23.7656,19.875 Z " /><text fill="#000000" font-family="sans-serif" font-size="12" lengthAdjust="spacingAndGlyphs" textLength="41" x="35" y="28.9102">System</text>
        <line style="stroke: #A80036; stroke-width: 1.5;" x1="7" x2="78" y1="40" y2="40" />
        <!--class User-->
        <rect fill="#FEFECE" filter="url(#fvtbizskdl2ht)" height="40" id="User" style="stroke: #A80036; stroke-width: 1.5;" width="59" x="200" y="30" />
        <ellipse cx="215" cy="46" fill="#ADD1B2" rx="11" ry="11" style="stroke: #A80036; stroke-width: 1.0;" />
        <path d="M217.7656,41.875 Q217.9219,41.6563 218.1094,41.5469 Q218.2969,41.4375 218.5156,41.4375 Q218.8906,41.4375 219.125,41.6953 Q219.3594,41.9531 219.3594,42.5625 L219.3594,44.0156 Q219.3594,44.625 219.125,44.8906 Q218.8906,45.1563 218.5156,45.1563 Q218.1719,45.1563 217.9688,44.9531 Q217.7656,44.7656 217.6563,44.25 Q217.6094,43.8906 217.4219,43.7031 Q217.0938,43.3281 216.4844,43.1094 Q215.875,42.8906 215.25,42.8906 Q214.4844,42.8906 213.8516,43.2188 Q213.2188,43.5469 212.7266,44.2969 Q212.2344,45.0469 212.2344,46.0781 L212.2344,47.1719 Q212.2344,48.4063 213.125,49.2266 Q214.0156,50.0469 215.6094,50.0469 Q216.5469,50.0469 217.2031,49.7969 Q217.5938,49.6406 218.0156,49.2031 Q218.2813,48.9375 218.4297,48.8594 Q218.5781,48.7813 218.7813,48.7813 Q219.1094,48.7813 219.3672,49.0391 Q219.625,49.2969 219.625,49.6406 Q219.625,49.9844 219.2813,50.3906 Q218.7813,50.9688 217.9844,51.2969 Q216.9063,51.75 215.6094,51.75 Q214.0938,51.75 212.8906,51.125 Q211.9063,50.625 211.2188,49.5547 Q210.5313,48.4844 210.5313,47.2031 L210.5313,46.0469 Q210.5313,44.7188 211.1484,43.5703 Q211.7656,42.4219 212.8594,41.8047 Q213.9531,41.1875 215.1875,41.1875 Q215.9219,41.1875 216.5703,41.3516 Q217.2188,41.5156 217.7656,41.875 Z " /><text fill="#000000" font-family="sans-serif" font-size="12" lengthAdjust="spacingAndGlyphs" textLength="27" x="229" y="50.9102">User</text>
        <line style="stroke: #A80036; stroke-width: 1.5;" x1="201" x2="258" y1="62" y2="62" />
        <!--class Credits-->
        <rect fill="#FEFECE" filter="url(#fvtbizskdl2ht)" height="40" id="Credits" style="stroke: #A80036; stroke-width: 1.5;" width="72" x="382" y="169" />
        <ellipse cx="397" cy="185" fill="#ADD1B2" rx="11" ry="11" style="stroke: #A80036; stroke-width: 1.0;" />
        <path d="M399.7656,180.875 Q399.9219,180.6563 400.1094,180.5469 Q400.2969,180.4375 400.5156,180.4375 Q400.8906,180.4375 401.125,180.6953 Q401.3594,180.9531 401.3594,181.5625 L401.3594,183.0156 Q401.3594,183.625 401.125,183.8906 Q400.8906,184.1563 400.5156,184.1563 Q400.1719,184.1563 399.9688,183.9531 Q399.7656,183.7656 399.6563,183.25 Q399.6094,182.8906 399.4219,182.7031 Q399.0938,182.3281 398.4844,182.1094 Q397.875,181.8906 397.25,181.8906 Q396.4844,181.8906 395.8516,182.2188 Q395.2188,182.5469 394.7266,183.2969 Q394.2344,184.0469 394.2344,185.0781 L394.2344,186.1719 Q394.2344,187.4063 395.125,188.2266 Q396.0156,189.0469 397.6094,189.0469 Q398.5469,189.0469 399.2031,188.7969 Q399.5938,188.6406 400.0156,188.2031 Q400.2813,187.9375 400.4297,187.8594 Q400.5781,187.7813 400.7813,187.7813 Q401.1094,187.7813 401.3672,188.0391 Q401.625,188.2969 401.625,188.6406 Q401.625,188.9844 401.2813,189.3906 Q400.7813,189.9688 399.9844,190.2969 Q398.9063,190.75 397.6094,190.75 Q396.0938,190.75 394.8906,190.125 Q393.9063,189.625 393.2188,188.5547 Q392.5313,187.4844 392.5313,186.2031 L392.5313,185.0469 Q392.5313,183.7188 393.1484,182.5703 Q393.7656,181.4219 394.8594,180.8047 Q395.9531,180.1875 397.1875,180.1875 Q397.9219,180.1875 398.5703,180.3516 Q399.2188,180.5156 399.7656,180.875 Z " /><text fill="#000000" font-family="sans-serif" font-size="12" lengthAdjust="spacingAndGlyphs" textLength="40" x="411" y="189.9102">Credits</text>
        <line style="stroke: #A80036; stroke-width: 1.5;" x1="383" x2="453" y1="201" y2="201" />
        <!--class Order-->
        <rect fill="#FEFECE" filter="url(#fvtbizskdl2ht)" height="40" id="Order" style="stroke: #A80036; stroke-width: 1.5;" width="63" x="198" y="214" />
        <ellipse cx="213" cy="230" fill="#ADD1B2" rx="11" ry="11" style="stroke: #A80036; stroke-width: 1.0;" />
        <path d="M215.7656,225.875 Q215.9219,225.6563 216.1094,225.5469 Q216.2969,225.4375 216.5156,225.4375 Q216.8906,225.4375 217.125,225.6953 Q217.3594,225.9531 217.3594,226.5625 L217.3594,228.0156 Q217.3594,228.625 217.125,228.8906 Q216.8906,229.1563 216.5156,229.1563 Q216.1719,229.1563 215.9688,228.9531 Q215.7656,228.7656 215.6563,228.25 Q215.6094,227.8906 215.4219,227.7031 Q215.0938,227.3281 214.4844,227.1094 Q213.875,226.8906 213.25,226.8906 Q212.4844,226.8906 211.8516,227.2188 Q211.2188,227.5469 210.7266,228.2969 Q210.2344,229.0469 210.2344,230.0781 L210.2344,231.1719 Q210.2344,232.4063 211.125,233.2266 Q212.0156,234.0469 213.6094,234.0469 Q214.5469,234.0469 215.2031,233.7969 Q215.5938,233.6406 216.0156,233.2031 Q216.2813,232.9375 216.4297,232.8594 Q216.5781,232.7813 216.7813,232.7813 Q217.1094,232.7813 217.3672,233.0391 Q217.625,233.2969 217.625,233.6406 Q217.625,233.9844 217.2813,234.3906 Q216.7813,234.9688 215.9844,235.2969 Q214.9063,235.75 213.6094,235.75 Q212.0938,235.75 210.8906,235.125 Q209.9063,234.625 209.2188,233.5547 Q208.5313,232.4844 208.5313,231.2031 L208.5313,230.0469 Q208.5313,228.7188 209.1484,227.5703 Q209.7656,226.4219 210.8594,225.8047 Q211.9531,225.1875 213.1875,225.1875 Q213.9219,225.1875 214.5703,225.3516 Q215.2188,225.5156 215.7656,225.875 Z " /><text fill="#000000" font-family="sans-serif" font-size="12" lengthAdjust="spacingAndGlyphs" textLength="31" x="227" y="234.9102">Order</text>
        <line style="stroke: #A80036; stroke-width: 1.5;" x1="199" x2="260" y1="246" y2="246" />
        <!--link Client to Credits-->
        <path d="M74.64,147.12 C130.36,152.79 250.75,165.47 352,179 C361.73,180.3 372.26,181.86 381.95,183.35 " fill="none" id="Client-Credits" style="stroke: #A80036; stroke-width: 1.0;" /><text fill="#000000" font-family="sans-serif" font-size="13" lengthAdjust="spacingAndGlyphs" textLength="21" x="212.5" y="157.4951">has</text>
        <polygon fill="#000000" points="236.5,150.6758,242.5,153.6758,236.5,156.6758,236.5,150.6758" style="stroke: #000000; stroke-width: 1.0;" /><text fill="#000000" font-family="sans-serif" font-size="13" lengthAdjust="spacingAndGlyphs" textLength="7" x="82.4363" y="163.0861">1</text><text fill="#000000" font-family="sans-serif" font-size="13" lengthAdjust="spacingAndGlyphs" textLength="20" x="354.0352" y="178.5292">0..*</text>
        <!--link Client to Order-->
        <path d="M70.38,164.05 C81.91,172.11 95.75,181.11 109,188 C138.09,203.13 173.33,216.09 197.98,224.37 " fill="none" id="Client-Order" style="stroke: #A80036; stroke-width: 1.0;" /><text fill="#000000" font-family="sans-serif" font-size="13" lengthAdjust="spacingAndGlyphs" textLength="44" x="110" y="184.4951">finished</text>
        <polygon fill="#000000" points="157,177.6758,163,180.6758,157,183.6758,157,177.6758" style="stroke: #000000; stroke-width: 1.0;" /><text fill="#000000" font-family="sans-serif" font-size="13" lengthAdjust="spacingAndGlyphs" textLength="7" x="70.2369" y="185.4836">1</text><text fill="#000000" font-family="sans-serif" font-size="13" lengthAdjust="spacingAndGlyphs" textLength="20" x="170.0653" y="237.5879">1..*</text>
        <!--link System to User-->
        <path d="M79.17,32.24 C114.34,36.42 167.42,42.74 199.91,46.6 " fill="none" id="System-User" style="stroke: #A80036; stroke-width: 1.0;" /><text fill="#000000" font-family="sans-serif" font-size="13" lengthAdjust="spacingAndGlyphs" textLength="21" x="121.5" y="33.4951">has</text>
        <polygon fill="#000000" points="145.5,26.6758,151.5,29.6758,145.5,32.6758,145.5,26.6758" style="stroke: #000000; stroke-width: 1.0;" /><text fill="#000000" font-family="sans-serif" font-size="13" lengthAdjust="spacingAndGlyphs" textLength="7" x="87.0785" y="48.1795">1</text><text fill="#000000" font-family="sans-serif" font-size="13" lengthAdjust="spacingAndGlyphs" textLength="7" x="184.8443" y="61.2592">1</text>
        <!--link Client to User-->
        <path d="M74.88,128.05 C109.83,110.3 165.84,81.84 199.71,64.63 " fill="none" id="Client-User" style="stroke: #A80036; stroke-width: 1.0;" /><text fill="#000000" font-family="sans-serif" font-size="13" lengthAdjust="spacingAndGlyphs" textLength="43" x="110.5" y="80.4951">acts as</text>
        <polygon fill="#000000" points="156.5,73.6758,162.5,76.6758,156.5,79.6758,156.5,73.6758" style="stroke: #000000; stroke-width: 1.0;" /><text fill="#000000" font-family="sans-serif" font-size="13" lengthAdjust="spacingAndGlyphs" textLength="7" x="82.2803" y="139.9417">1</text><text fill="#000000" font-family="sans-serif" font-size="13" lengthAdjust="spacingAndGlyphs" textLength="7" x="185.0117" y="83.399">1</text>
        <!--link Order to Credits-->
        <path d="M261.3,226.57 C294.4,218.58 346.95,205.9 381.7,197.52 " fill="none" id="Order-Credits" style="stroke: #A80036; stroke-width: 1.0;" /><text fill="#000000" font-family="sans-serif" font-size="13" lengthAdjust="spacingAndGlyphs" textLength="46" x="292" y="201.4951">result in</text>
        <polygon fill="#000000" points="341,194.6758,347,197.6758,341,200.6758,341,194.6758" style="stroke: #000000; stroke-width: 1.0;" /><text fill="#000000" font-family="sans-serif" font-size="13" lengthAdjust="spacingAndGlyphs" textLength="7" x="269.0219" y="240.2283">1</text><text fill="#000000" font-family="sans-serif" font-size="13" lengthAdjust="spacingAndGlyphs" textLength="20" x="354.0316" y="213.7804">0..*</text>
        <!--
@startuml
hide methods
left to right direction

class Client {

}
class System {

}
class User {

}
class Credits {

}

class Order {

}

Client "1" - - "0..*" Credits: has >
Client "1" - - "1..*" Order: finished >
System "1" - - "1" User: has >
Client "1" - - "1" User: acts as >
Order "1" - - "0..*" Credits: result in >

@enduml

PlantUML version 1.2018.14(Fri Dec 21 16:33:16 GMT 2018)
(GPL source distribution)
Java Runtime: Java(TM) SE Runtime Environment
JVM: Java HotSpot(TM) 64-Bit Server VM
Java Version: 1.8.0_271-b09
Operating System: Windows 10
OS Version: 10.0
Default Encoding: Cp1252
Language: en
Country: US
-->
    </g>
</svg>