<?xml version="1.0" encoding="UTF-8" standalone="no"?><svg xmlns="http://www.w3.org/2000/svg" xmlns:xlink="http://www.w3.org/1999/xlink" contentScriptType="application/ecmascript" contentStyleType="text/css" height="288px" preserveAspectRatio="none" style="width:641px;height:288px;" version="1.1" viewBox="0 0 641 288" width="641px" zoomAndPan="magnify">
    <defs>
        <filter height="300%" id="f1bl9sh55lu3lo" width="300%" x="-1" y="-1">
            <feGaussianBlur result="blurOut" stdDeviation="2.0" />
            <feColorMatrix in="blurOut" result="blurOut2" type="matrix" values="0 0 0 0 0 0 0 0 0 0 0 0 0 0 0 0 0 0 .4 0" />
            <feOffset dx="4.0" dy="4.0" in="blurOut2" result="blurOut3" />
            <feBlend in="SourceGraphic" in2="blurOut3" mode="normal" />
        </filter>
    </defs>
    <g>
        <!--class UpdateCreditsUI-->
        <rect fill="#FEFECE" filter="url(#f1bl9sh55lu3lo)" height="48" id="UpdateCreditsUI" style="stroke: #A80036; stroke-width: 1.5;" width="124" x="6" y="126" />
        <ellipse cx="21" cy="142" fill="#ADD1B2" rx="11" ry="11" style="stroke: #A80036; stroke-width: 1.0;" />
        <path d="M23.7656,137.875 Q23.9219,137.6563 24.1094,137.5469 Q24.2969,137.4375 24.5156,137.4375 Q24.8906,137.4375 25.125,137.6953 Q25.3594,137.9531 25.3594,138.5625 L25.3594,140.0156 Q25.3594,140.625 25.125,140.8906 Q24.8906,141.1563 24.5156,141.1563 Q24.1719,141.1563 23.9688,140.9531 Q23.7656,140.7656 23.6563,140.25 Q23.6094,139.8906 23.4219,139.7031 Q23.0938,139.3281 22.4844,139.1094 Q21.875,138.8906 21.25,138.8906 Q20.4844,138.8906 19.8516,139.2188 Q19.2188,139.5469 18.7266,140.2969 Q18.2344,141.0469 18.2344,142.0781 L18.2344,143.1719 Q18.2344,144.4063 19.125,145.2266 Q20.0156,146.0469 21.6094,146.0469 Q22.5469,146.0469 23.2031,145.7969 Q23.5938,145.6406 24.0156,145.2031 Q24.2813,144.9375 24.4297,144.8594 Q24.5781,144.7813 24.7813,144.7813 Q25.1094,144.7813 25.3672,145.0391 Q25.625,145.2969 25.625,145.6406 Q25.625,145.9844 25.2813,146.3906 Q24.7813,146.9688 23.9844,147.2969 Q22.9063,147.75 21.6094,147.75 Q20.0938,147.75 18.8906,147.125 Q17.9063,146.625 17.2188,145.5547 Q16.5313,144.4844 16.5313,143.2031 L16.5313,142.0469 Q16.5313,140.7188 17.1484,139.5703 Q17.7656,138.4219 18.8594,137.8047 Q19.9531,137.1875 21.1875,137.1875 Q21.9219,137.1875 22.5703,137.3516 Q23.2188,137.5156 23.7656,137.875 Z " /><text fill="#000000" font-family="sans-serif" font-size="12" lengthAdjust="spacingAndGlyphs" textLength="92" x="35" y="146.9102">UpdateCreditsUI</text>
        <line style="stroke: #A80036; stroke-width: 1.5;" x1="7" x2="129" y1="158" y2="158" />
        <line style="stroke: #A80036; stroke-width: 1.5;" x1="7" x2="129" y1="166" y2="166" />
        <!--class UpdateCreditsController-->
        <rect fill="#FEFECE" filter="url(#f1bl9sh55lu3lo)" height="61.8359" id="UpdateCreditsController" style="stroke: #A80036; stroke-width: 1.5;" width="166" x="190" y="119" />
        <ellipse cx="205" cy="135" fill="#ADD1B2" rx="11" ry="11" style="stroke: #A80036; stroke-width: 1.0;" />
        <path d="M207.7656,130.875 Q207.9219,130.6563 208.1094,130.5469 Q208.2969,130.4375 208.5156,130.4375 Q208.8906,130.4375 209.125,130.6953 Q209.3594,130.9531 209.3594,131.5625 L209.3594,133.0156 Q209.3594,133.625 209.125,133.8906 Q208.8906,134.1563 208.5156,134.1563 Q208.1719,134.1563 207.9688,133.9531 Q207.7656,133.7656 207.6563,133.25 Q207.6094,132.8906 207.4219,132.7031 Q207.0938,132.3281 206.4844,132.1094 Q205.875,131.8906 205.25,131.8906 Q204.4844,131.8906 203.8516,132.2188 Q203.2188,132.5469 202.7266,133.2969 Q202.2344,134.0469 202.2344,135.0781 L202.2344,136.1719 Q202.2344,137.4063 203.125,138.2266 Q204.0156,139.0469 205.6094,139.0469 Q206.5469,139.0469 207.2031,138.7969 Q207.5938,138.6406 208.0156,138.2031 Q208.2813,137.9375 208.4297,137.8594 Q208.5781,137.7813 208.7813,137.7813 Q209.1094,137.7813 209.3672,138.0391 Q209.625,138.2969 209.625,138.6406 Q209.625,138.9844 209.2813,139.3906 Q208.7813,139.9688 207.9844,140.2969 Q206.9063,140.75 205.6094,140.75 Q204.0938,140.75 202.8906,140.125 Q201.9063,139.625 201.2188,138.5547 Q200.5313,137.4844 200.5313,136.2031 L200.5313,135.0469 Q200.5313,133.7188 201.1484,132.5703 Q201.7656,131.4219 202.8594,130.8047 Q203.9531,130.1875 205.1875,130.1875 Q205.9219,130.1875 206.5703,130.3516 Q207.2188,130.5156 207.7656,130.875 Z " /><text fill="#000000" font-family="sans-serif" font-size="12" lengthAdjust="spacingAndGlyphs" textLength="134" x="219" y="139.9102">UpdateCreditsController</text>
        <line style="stroke: #A80036; stroke-width: 1.5;" x1="191" x2="355" y1="151" y2="151" />
        <line style="stroke: #A80036; stroke-width: 1.5;" x1="191" x2="355" y1="159" y2="159" />
        <ellipse cx="201" cy="171.418" fill="#84BE84" rx="3" ry="3" style="stroke: #038048; stroke-width: 1.0;" /><text fill="#000000" font-family="sans-serif" font-size="11" lengthAdjust="spacingAndGlyphs" textLength="75" x="210" y="174.4189">updateCredits()</text>
        <!--class Client-->
        <rect fill="#FEFECE" filter="url(#f1bl9sh55lu3lo)" height="75.6719" id="Client" style="stroke: #A80036; stroke-width: 1.5;" width="134" x="456" y="8" />
        <ellipse cx="502.75" cy="24" fill="#ADD1B2" rx="11" ry="11" style="stroke: #A80036; stroke-width: 1.0;" />
        <path d="M505.5156,19.875 Q505.6719,19.6563 505.8594,19.5469 Q506.0469,19.4375 506.2656,19.4375 Q506.6406,19.4375 506.875,19.6953 Q507.1094,19.9531 507.1094,20.5625 L507.1094,22.0156 Q507.1094,22.625 506.875,22.8906 Q506.6406,23.1563 506.2656,23.1563 Q505.9219,23.1563 505.7188,22.9531 Q505.5156,22.7656 505.4063,22.25 Q505.3594,21.8906 505.1719,21.7031 Q504.8438,21.3281 504.2344,21.1094 Q503.625,20.8906 503,20.8906 Q502.2344,20.8906 501.6016,21.2188 Q500.9688,21.5469 500.4766,22.2969 Q499.9844,23.0469 499.9844,24.0781 L499.9844,25.1719 Q499.9844,26.4063 500.875,27.2266 Q501.7656,28.0469 503.3594,28.0469 Q504.2969,28.0469 504.9531,27.7969 Q505.3438,27.6406 505.7656,27.2031 Q506.0313,26.9375 506.1797,26.8594 Q506.3281,26.7813 506.5313,26.7813 Q506.8594,26.7813 507.1172,27.0391 Q507.375,27.2969 507.375,27.6406 Q507.375,27.9844 507.0313,28.3906 Q506.5313,28.9688 505.7344,29.2969 Q504.6563,29.75 503.3594,29.75 Q501.8438,29.75 500.6406,29.125 Q499.6563,28.625 498.9688,27.5547 Q498.2813,26.4844 498.2813,25.2031 L498.2813,24.0469 Q498.2813,22.7188 498.8984,21.5703 Q499.5156,20.4219 500.6094,19.8047 Q501.7031,19.1875 502.9375,19.1875 Q503.6719,19.1875 504.3203,19.3516 Q504.9688,19.5156 505.5156,19.875 Z " /><text fill="#000000" font-family="sans-serif" font-size="12" lengthAdjust="spacingAndGlyphs" textLength="32" x="523.25" y="28.9102">Client</text>
        <line style="stroke: #A80036; stroke-width: 1.5;" x1="457" x2="589" y1="40" y2="40" />
        <line style="stroke: #A80036; stroke-width: 1.5;" x1="457" x2="589" y1="48" y2="48" />
        <ellipse cx="467" cy="60.418" fill="#84BE84" rx="3" ry="3" style="stroke: #038048; stroke-width: 1.0;" /><text fill="#000000" font-family="sans-serif" font-size="11" lengthAdjust="spacingAndGlyphs" textLength="57" x="476" y="63.4189">getCredits()</text>
        <ellipse cx="467" cy="74.2539" fill="#84BE84" rx="3" ry="3" style="stroke: #038048; stroke-width: 1.0;" /><text fill="#000000" font-family="sans-serif" font-size="11" lengthAdjust="spacingAndGlyphs" textLength="108" x="476" y="77.2549">updateCredits(credits)</text>
        <!--class Credits-->
        <rect fill="#FEFECE" filter="url(#f1bl9sh55lu3lo)" height="61.8359" id="Credits" style="stroke: #A80036; stroke-width: 1.5;" width="214" x="416" y="119" />
        <ellipse cx="498.75" cy="135" fill="#ADD1B2" rx="11" ry="11" style="stroke: #A80036; stroke-width: 1.0;" />
        <path d="M501.5156,130.875 Q501.6719,130.6563 501.8594,130.5469 Q502.0469,130.4375 502.2656,130.4375 Q502.6406,130.4375 502.875,130.6953 Q503.1094,130.9531 503.1094,131.5625 L503.1094,133.0156 Q503.1094,133.625 502.875,133.8906 Q502.6406,134.1563 502.2656,134.1563 Q501.9219,134.1563 501.7188,133.9531 Q501.5156,133.7656 501.4063,133.25 Q501.3594,132.8906 501.1719,132.7031 Q500.8438,132.3281 500.2344,132.1094 Q499.625,131.8906 499,131.8906 Q498.2344,131.8906 497.6016,132.2188 Q496.9688,132.5469 496.4766,133.2969 Q495.9844,134.0469 495.9844,135.0781 L495.9844,136.1719 Q495.9844,137.4063 496.875,138.2266 Q497.7656,139.0469 499.3594,139.0469 Q500.2969,139.0469 500.9531,138.7969 Q501.3438,138.6406 501.7656,138.2031 Q502.0313,137.9375 502.1797,137.8594 Q502.3281,137.7813 502.5313,137.7813 Q502.8594,137.7813 503.1172,138.0391 Q503.375,138.2969 503.375,138.6406 Q503.375,138.9844 503.0313,139.3906 Q502.5313,139.9688 501.7344,140.2969 Q500.6563,140.75 499.3594,140.75 Q497.8438,140.75 496.6406,140.125 Q495.6563,139.625 494.9688,138.5547 Q494.2813,137.4844 494.2813,136.2031 L494.2813,135.0469 Q494.2813,133.7188 494.8984,132.5703 Q495.5156,131.4219 496.6094,130.8047 Q497.7031,130.1875 498.9375,130.1875 Q499.6719,130.1875 500.3203,130.3516 Q500.9688,130.5156 501.5156,130.875 Z " /><text fill="#000000" font-family="sans-serif" font-size="12" lengthAdjust="spacingAndGlyphs" textLength="40" x="519.25" y="139.9102">Credits</text>
        <line style="stroke: #A80036; stroke-width: 1.5;" x1="417" x2="629" y1="151" y2="151" />
        <line style="stroke: #A80036; stroke-width: 1.5;" x1="417" x2="629" y1="159" y2="159" />
        <ellipse cx="427" cy="171.418" fill="#84BE84" rx="3" ry="3" style="stroke: #038048; stroke-width: 1.0;" /><text fill="#000000" font-family="sans-serif" font-size="11" lengthAdjust="spacingAndGlyphs" textLength="188" x="436" y="174.4189">calculateNumberOfCredits(order,client)</text>
        <!--class Order-->
        <rect fill="#FEFECE" filter="url(#f1bl9sh55lu3lo)" height="61.8359" id="Order" style="stroke: #A80036; stroke-width: 1.5;" width="75" x="485.5" y="216" />
        <ellipse cx="505.9" cy="232" fill="#ADD1B2" rx="11" ry="11" style="stroke: #A80036; stroke-width: 1.0;" />
        <path d="M508.6656,227.875 Q508.8219,227.6563 509.0094,227.5469 Q509.1969,227.4375 509.4156,227.4375 Q509.7906,227.4375 510.025,227.6953 Q510.2594,227.9531 510.2594,228.5625 L510.2594,230.0156 Q510.2594,230.625 510.025,230.8906 Q509.7906,231.1563 509.4156,231.1563 Q509.0719,231.1563 508.8688,230.9531 Q508.6656,230.7656 508.5563,230.25 Q508.5094,229.8906 508.3219,229.7031 Q507.9938,229.3281 507.3844,229.1094 Q506.775,228.8906 506.15,228.8906 Q505.3844,228.8906 504.7516,229.2188 Q504.1188,229.5469 503.6266,230.2969 Q503.1344,231.0469 503.1344,232.0781 L503.1344,233.1719 Q503.1344,234.4063 504.025,235.2266 Q504.9156,236.0469 506.5094,236.0469 Q507.4469,236.0469 508.1031,235.7969 Q508.4938,235.6406 508.9156,235.2031 Q509.1813,234.9375 509.3297,234.8594 Q509.4781,234.7813 509.6813,234.7813 Q510.0094,234.7813 510.2672,235.0391 Q510.525,235.2969 510.525,235.6406 Q510.525,235.9844 510.1813,236.3906 Q509.6813,236.9688 508.8844,237.2969 Q507.8063,237.75 506.5094,237.75 Q504.9938,237.75 503.7906,237.125 Q502.8063,236.625 502.1188,235.5547 Q501.4313,234.4844 501.4313,233.2031 L501.4313,232.0469 Q501.4313,230.7188 502.0484,229.5703 Q502.6656,228.4219 503.7594,227.8047 Q504.8531,227.1875 506.0875,227.1875 Q506.8219,227.1875 507.4703,227.3516 Q508.1188,227.5156 508.6656,227.875 Z " /><text fill="#000000" font-family="sans-serif" font-size="12" lengthAdjust="spacingAndGlyphs" textLength="31" x="521.1" y="236.9102">Order</text>
        <line style="stroke: #A80036; stroke-width: 1.5;" x1="486.5" x2="559.5" y1="248" y2="248" />
        <line style="stroke: #A80036; stroke-width: 1.5;" x1="486.5" x2="559.5" y1="256" y2="256" />
        <ellipse cx="496.5" cy="268.418" fill="#84BE84" rx="3" ry="3" style="stroke: #038048; stroke-width: 1.0;" /><text fill="#000000" font-family="sans-serif" font-size="11" lengthAdjust="spacingAndGlyphs" textLength="49" x="505.5" y="271.4189">getClient()</text>
        <!--link UpdateCreditsUI to UpdateCreditsController-->
        <path d="M130.18,150 C147.36,150 166.38,150 184.77,150 " fill="none" id="UpdateCreditsUI-UpdateCreditsController" style="stroke: #A80036; stroke-width: 1.0; stroke-dasharray: 7.0,7.0;" />
        <polygon fill="#A80036" points="189.93,150,180.93,146,184.93,150,180.93,154,189.93,150" style="stroke: #A80036; stroke-width: 1.0;" />
        <!--link UpdateCreditsController to Order-->
        <path d="M353.49,181.09 C395.62,197.57 445.66,217.14 480.2,230.65 " fill="none" id="UpdateCreditsController-Order" style="stroke: #A80036; stroke-width: 1.0; stroke-dasharray: 7.0,7.0;" />
        <polygon fill="#A80036" points="485.19,232.6,478.2745,225.5874,480.5359,230.7726,475.3507,233.034,485.19,232.6" style="stroke: #A80036; stroke-width: 1.0;" />
        <!--link UpdateCreditsController to Credits-->
        <path d="M356.24,150 C373.63,150 392.28,150 410.55,150 " fill="none" id="UpdateCreditsController-Credits" style="stroke: #A80036; stroke-width: 1.0; stroke-dasharray: 7.0,7.0;" />
        <polygon fill="#A80036" points="415.69,150,406.69,146,410.69,150,406.69,154,415.69,150" style="stroke: #A80036; stroke-width: 1.0;" />
        <!--link UpdateCreditsController to Client-->
        <path d="M348.07,118.94 C380.72,105.25 418.91,89.23 451.18,75.7 " fill="none" id="UpdateCreditsController-Client" style="stroke: #A80036; stroke-width: 1.0; stroke-dasharray: 7.0,7.0;" />
        <polygon fill="#A80036" points="455.9,73.72,446.0536,73.5,451.2867,75.6481,449.1386,80.8813,455.9,73.72" style="stroke: #A80036; stroke-width: 1.0;" />
        <!--
@startuml

left to right direction

class UpdateCreditsUI {
}

class UpdateCreditsController {
    +updateCredits()
}

class Client {
    +getCredits()
    +updateCredits(credits)
}

class Credits {
    +calculateNumberOfCredits(order,client)
}

class Order {
    +getClient()
}

UpdateCreditsUI ..> UpdateCreditsController
UpdateCreditsController ..> Order
UpdateCreditsController ..> Credits
UpdateCreditsController ..> Client

@enduml

PlantUML version 1.2018.14(Fri Dec 21 16:33:16 GMT 2018)
(GPL source distribution)
Java Runtime: Java(TM) SE Runtime Environment
JVM: Java HotSpot(TM) 64-Bit Server VM
Java Version: 1.8.0_271-b09
Operating System: Windows 10
OS Version: 10.0
Default Encoding: Cp1252
Language: en
Country: US
-->
    </g>
</svg>