<?xml version="1.0" encoding="UTF-8" standalone="no"?><svg xmlns="http://www.w3.org/2000/svg" xmlns:xlink="http://www.w3.org/1999/xlink" contentScriptType="application/ecmascript" contentStyleType="text/css" height="131.25px" preserveAspectRatio="none" style="width:960px;height:131px;" version="1.1" viewBox="0 0 960 131" width="960px" zoomAndPan="magnify"><defs><filter height="300%" id="fn65g8jy97qv3" width="300%" x="-1" y="-1"><feGaussianBlur result="blurOut" stdDeviation="2.5"/><feColorMatrix in="blurOut" result="blurOut2" type="matrix" values="0 0 0 0 0 0 0 0 0 0 0 0 0 0 0 0 0 0 .4 0"/><feOffset dx="5.0" dy="5.0" in="blurOut2" result="blurOut3"/><feBlend in="SourceGraphic" in2="blurOut3" mode="normal"/></filter></defs><g><!--MD5=[99b8db98afdc2c8404e39242ef4c1e65]
class Platform--><rect codeLine="4" fill="#FEFECE" filter="url(#fn65g8jy97qv3)" height="50" id="Platform" style="stroke:#A80036;stroke-width:1.875;" width="97.5" x="8.75" y="63.75"/><ellipse cx="27.5" cy="83.75" fill="#ADD1B2" rx="13.75" ry="13.75" style="stroke:#A80036;stroke-width:1.25;"/><path d="M30,79.375 Q30.2539,78.75 30.5469,78.4375 Q30.8398,78.125 31.1719,78.125 Q31.7578,78.125 32.1289,78.4766 Q32.5,78.8281 32.5,79.6484 L32.5,81.6016 Q32.5,82.4219 32.1484,82.7734 Q31.7969,83.125 31.25,83.125 Q30.7617,83.125 30.4492,82.9102 Q30.1367,82.6953 30,82.1289 Q29.9414,81.7383 29.7266,81.5234 Q29.3359,81.1133 28.6328,80.8789 Q27.9297,80.625 27.2266,80.625 Q26.3477,80.625 25.6055,80.9766 Q24.8828,81.3281 24.3164,82.1094 Q23.75,82.8906 23.75,83.9648 L23.75,85.1172 Q23.75,86.4063 24.8047,87.2656 Q25.8594,88.125 27.7344,88.125 Q28.8477,88.125 29.6289,87.8711 Q30.0781,87.7344 30.5859,87.2852 Q30.918,87.0313 31.0938,86.9531 Q31.2695,86.875 31.4844,86.875 Q31.8945,86.875 32.1875,87.207 Q32.5,87.5195 32.5,87.9688 Q32.5,88.3984 32.0703,88.9063 Q31.4453,89.6484 30.4492,90.0586 Q29.1406,90.625 27.5391,90.625 Q25.6641,90.625 24.1602,89.8828 Q22.9492,89.2969 22.0898,88.0273 Q21.25,86.7578 21.25,85.2539 L21.25,83.8867 Q21.25,82.3242 21.9922,80.957 Q22.7539,79.5898 24.0625,78.8672 Q25.3906,78.125 26.875,78.125 Q27.7734,78.125 28.5547,78.4375 Q29.3359,78.75 30,79.375 Z " fill="#000000"/><text fill="#000000" font-family="sans-serif" font-size="15" lengthAdjust="spacingAndGlyphs" textLength="57.5" x="45" y="89.8877">Platform</text><line style="stroke:#A80036;stroke-width:1.875;" x1="10" x2="105" y1="103.75" y2="103.75"/><!--MD5=[da547346deef918ea16944ba046651ef]
class Administrator--><rect codeLine="6" fill="#FEFECE" filter="url(#fn65g8jy97qv3)" height="50" id="Administrator" style="stroke:#A80036;stroke-width:1.875;" width="131.25" x="226.25" y="8.75"/><ellipse cx="245" cy="28.75" fill="#ADD1B2" rx="13.75" ry="13.75" style="stroke:#A80036;stroke-width:1.25;"/><path d="M247.5,24.375 Q247.7539,23.75 248.0469,23.4375 Q248.3398,23.125 248.6719,23.125 Q249.2578,23.125 249.6289,23.4766 Q250,23.8281 250,24.6484 L250,26.6016 Q250,27.4219 249.6484,27.7734 Q249.2969,28.125 248.75,28.125 Q248.2617,28.125 247.9492,27.9102 Q247.6367,27.6953 247.5,27.1289 Q247.4414,26.7383 247.2266,26.5234 Q246.8359,26.1133 246.1328,25.8789 Q245.4297,25.625 244.7266,25.625 Q243.8477,25.625 243.1055,25.9766 Q242.3828,26.3281 241.8164,27.1094 Q241.25,27.8906 241.25,28.9648 L241.25,30.1172 Q241.25,31.4063 242.3047,32.2656 Q243.3594,33.125 245.2344,33.125 Q246.3477,33.125 247.1289,32.8711 Q247.5781,32.7344 248.0859,32.2852 Q248.418,32.0313 248.5938,31.9531 Q248.7695,31.875 248.9844,31.875 Q249.3945,31.875 249.6875,32.207 Q250,32.5195 250,32.9688 Q250,33.3984 249.5703,33.9063 Q248.9453,34.6484 247.9492,35.0586 Q246.6406,35.625 245.0391,35.625 Q243.1641,35.625 241.6602,34.8828 Q240.4492,34.2969 239.5898,33.0273 Q238.75,31.7578 238.75,30.2539 L238.75,28.8867 Q238.75,27.3242 239.4922,25.957 Q240.2539,24.5898 241.5625,23.8672 Q242.8906,23.125 244.375,23.125 Q245.2734,23.125 246.0547,23.4375 Q246.8359,23.75 247.5,24.375 Z " fill="#000000"/><text fill="#000000" font-family="sans-serif" font-size="15" lengthAdjust="spacingAndGlyphs" textLength="91.25" x="262.5" y="34.8877">Administrator</text><line style="stroke:#A80036;stroke-width:1.875;" x1="227.5" x2="356.25" y1="48.75" y2="48.75"/><!--MD5=[7f2a9fafcebe4f099f71398fd3e2ed00]
class Pharmacy--><rect codeLine="8" fill="#FEFECE" filter="url(#fn65g8jy97qv3)" height="50" id="Pharmacy" style="stroke:#A80036;stroke-width:1.875;" width="108.75" x="505" y="63.75"/><ellipse cx="523.75" cy="83.75" fill="#ADD1B2" rx="13.75" ry="13.75" style="stroke:#A80036;stroke-width:1.25;"/><path d="M526.25,79.375 Q526.5039,78.75 526.7969,78.4375 Q527.0898,78.125 527.4219,78.125 Q528.0078,78.125 528.3789,78.4766 Q528.75,78.8281 528.75,79.6484 L528.75,81.6016 Q528.75,82.4219 528.3984,82.7734 Q528.0469,83.125 527.5,83.125 Q527.0117,83.125 526.6992,82.9102 Q526.3867,82.6953 526.25,82.1289 Q526.1914,81.7383 525.9766,81.5234 Q525.5859,81.1133 524.8828,80.8789 Q524.1797,80.625 523.4766,80.625 Q522.5977,80.625 521.8555,80.9766 Q521.1328,81.3281 520.5664,82.1094 Q520,82.8906 520,83.9648 L520,85.1172 Q520,86.4063 521.0547,87.2656 Q522.1094,88.125 523.9844,88.125 Q525.0977,88.125 525.8789,87.8711 Q526.3281,87.7344 526.8359,87.2852 Q527.168,87.0313 527.3438,86.9531 Q527.5195,86.875 527.7344,86.875 Q528.1445,86.875 528.4375,87.207 Q528.75,87.5195 528.75,87.9688 Q528.75,88.3984 528.3203,88.9063 Q527.6953,89.6484 526.6992,90.0586 Q525.3906,90.625 523.7891,90.625 Q521.9141,90.625 520.4102,89.8828 Q519.1992,89.2969 518.3398,88.0273 Q517.5,86.7578 517.5,85.2539 L517.5,83.8867 Q517.5,82.3242 518.2422,80.957 Q519.0039,79.5898 520.3125,78.8672 Q521.6406,78.125 523.125,78.125 Q524.0234,78.125 524.8047,78.4375 Q525.5859,78.75 526.25,79.375 Z " fill="#000000"/><text fill="#000000" font-family="sans-serif" font-size="15" lengthAdjust="spacingAndGlyphs" textLength="68.75" x="541.25" y="89.8877">Pharmacy</text><line style="stroke:#A80036;stroke-width:1.875;" x1="506.25" x2="612.5" y1="103.75" y2="103.75"/><!--MD5=[9e1ff69c5e4d619d80a29d55e5d1e948]
class Pharmacy_Administrator--><rect codeLine="10" fill="#FEFECE" filter="url(#fn65g8jy97qv3)" height="50" id="Pharmacy_Administrator" style="stroke:#A80036;stroke-width:1.875;" width="208.75" x="733.75" y="63.75"/><ellipse cx="752.5" cy="83.75" fill="#ADD1B2" rx="13.75" ry="13.75" style="stroke:#A80036;stroke-width:1.25;"/><path d="M755,79.375 Q755.2539,78.75 755.5469,78.4375 Q755.8398,78.125 756.1719,78.125 Q756.7578,78.125 757.1289,78.4766 Q757.5,78.8281 757.5,79.6484 L757.5,81.6016 Q757.5,82.4219 757.1484,82.7734 Q756.7969,83.125 756.25,83.125 Q755.7617,83.125 755.4492,82.9102 Q755.1367,82.6953 755,82.1289 Q754.9414,81.7383 754.7266,81.5234 Q754.3359,81.1133 753.6328,80.8789 Q752.9297,80.625 752.2266,80.625 Q751.3477,80.625 750.6055,80.9766 Q749.8828,81.3281 749.3164,82.1094 Q748.75,82.8906 748.75,83.9648 L748.75,85.1172 Q748.75,86.4063 749.8047,87.2656 Q750.8594,88.125 752.7344,88.125 Q753.8477,88.125 754.6289,87.8711 Q755.0781,87.7344 755.5859,87.2852 Q755.918,87.0313 756.0938,86.9531 Q756.2695,86.875 756.4844,86.875 Q756.8945,86.875 757.1875,87.207 Q757.5,87.5195 757.5,87.9688 Q757.5,88.3984 757.0703,88.9063 Q756.4453,89.6484 755.4492,90.0586 Q754.1406,90.625 752.5391,90.625 Q750.6641,90.625 749.1602,89.8828 Q747.9492,89.2969 747.0898,88.0273 Q746.25,86.7578 746.25,85.2539 L746.25,83.8867 Q746.25,82.3242 746.9922,80.957 Q747.7539,79.5898 749.0625,78.8672 Q750.3906,78.125 751.875,78.125 Q752.7734,78.125 753.5547,78.4375 Q754.3359,78.75 755,79.375 Z " fill="#000000"/><text fill="#000000" font-family="sans-serif" font-size="15" lengthAdjust="spacingAndGlyphs" textLength="168.75" x="770" y="89.8877">Pharmacy_Administrator</text><line style="stroke:#A80036;stroke-width:1.875;" x1="735" x2="941.25" y1="103.75" y2="103.75"/><!--MD5=[0f7004bed4496639b3a5258ab2ead378]
link Platform to Administrator--><path codeLine="12" d="M106.8,77.35 C141.2875,69.175 188.15,58.0625 225.925,49.1 " fill="none" id="Platform-Administrator" style="stroke:#A80036;stroke-width:1.25;"/><polygon fill="#000000" points="156.0813,46.2776,144.2324,45.3119,145.9278,52.461,156.0813,46.2776" style="stroke:#000000;stroke-width:1.25;"/><text fill="#000000" font-family="sans-serif" font-size="16.25" lengthAdjust="spacingAndGlyphs" textLength="26.25" x="161.25" y="54.3689">has</text><text fill="#000000" font-family="sans-serif" font-size="16.25" lengthAdjust="spacingAndGlyphs" textLength="8.75" x="116.3609" y="94.0087">1</text><text fill="#000000" font-family="sans-serif" font-size="16.25" lengthAdjust="spacingAndGlyphs" textLength="8.75" x="207.2855" y="69.5646">1</text><!--MD5=[4a07f137c208f82f57837154e1cfa51e]
link Platform to Pharmacy--><path codeLine="13" d="M106.3375,93.7 C139.825,96.925 185.725,100.8375 226.25,102.5 C284.5375,104.8875 299.2,104.5 357.5,102.5 C407.575,100.7875 464.55,96.675 504.95,93.3875 " fill="none" id="Platform-Pharmacy" style="stroke:#A80036;stroke-width:1.25;"/><polygon fill="#000000" points="281.875,91.4648,270.5658,87.8,270.5715,95.1473,281.875,91.4648" style="stroke:#000000;stroke-width:1.25;"/><text fill="#000000" font-family="sans-serif" font-size="16.25" lengthAdjust="spacingAndGlyphs" textLength="26.25" x="286.875" y="98.1189">has</text><text fill="#000000" font-family="sans-serif" font-size="16.25" lengthAdjust="spacingAndGlyphs" textLength="8.75" x="116.1486" y="113.3658">1</text><text fill="#000000" font-family="sans-serif" font-size="16.25" lengthAdjust="spacingAndGlyphs" textLength="8.75" x="486.0938" y="112.81">1</text><!--MD5=[8aaadde0a51a6974a75b41b6a40c57cb]
link Administrator to Pharmacy--><path codeLine="15" d="M357.6125,47.1375 C402.8125,56.5125 462.4875,68.9 504.9625,77.7125 " fill="none" id="Administrator-Pharmacy" style="stroke:#A80036;stroke-width:1.25;"/><polygon fill="#000000" points="407.3696,47.7395,397.0455,41.8454,395.5527,49.0395,407.3696,47.7395" style="stroke:#000000;stroke-width:1.25;"/><text fill="#000000" font-family="sans-serif" font-size="16.25" lengthAdjust="spacingAndGlyphs" textLength="53.75" x="412.5" y="53.1189">creates</text><text fill="#000000" font-family="sans-serif" font-size="16.25" lengthAdjust="spacingAndGlyphs" textLength="8.75" x="367.4721" y="67.3262">1</text><text fill="#000000" font-family="sans-serif" font-size="16.25" lengthAdjust="spacingAndGlyphs" textLength="8.75" x="486.1084" y="71.0033">1</text><!--MD5=[4aa95f80be23a2d4fa77749a03bf17ff]
link Pharmacy to Pharmacy_Administrator--><path codeLine="17" d="M613.8875,88.75 C647.75,88.75 692.7375,88.75 733.425,88.75 " fill="none" id="Pharmacy-Pharmacy_Administrator" style="stroke:#A80036;stroke-width:1.25;"/><polygon fill="#000000" points="663.75,77.7197,652.4436,74.0461,652.4436,81.3934,663.75,77.7197" style="stroke:#000000;stroke-width:1.25;"/><text fill="#000000" font-family="sans-serif" font-size="16.25" lengthAdjust="spacingAndGlyphs" textLength="26.25" x="668.75" y="84.3689">has</text><text fill="#000000" font-family="sans-serif" font-size="16.25" lengthAdjust="spacingAndGlyphs" textLength="8.75" x="623.6407" y="107.3115">1</text><text fill="#000000" font-family="sans-serif" font-size="16.25" lengthAdjust="spacingAndGlyphs" textLength="8.75" x="714.9605" y="106.5291">1</text><!--MD5=[638e9e54fb1fc31da90416a4d8988471]
@startuml
hide methods
left to right direction

class Platform {}

class Administrator {}

class Pharmacy {}

class Pharmacy_Administrator {}

Platform "1" - - "1" Administrator: has >
Platform "1" - - "1" Pharmacy: has >

Administrator "1" - - "1" Pharmacy: creates >

Pharmacy "1" - - "1" Pharmacy_Administrator: has >


@enduml

PlantUML version 1.2020.23(Sun Dec 13 19:14:58 GMT 2020)
(GPL source distribution)
Java Runtime: OpenJDK Runtime Environment
JVM: OpenJDK 64-Bit Server VM
Default Encoding: Cp1252
Language: pt
Country: PT
--></g></svg>