<?xml version="1.0" encoding="UTF-8" standalone="no"?><svg xmlns="http://www.w3.org/2000/svg" xmlns:xlink="http://www.w3.org/1999/xlink" contentScriptType="application/ecmascript" contentStyleType="text/css" height="376px" preserveAspectRatio="none" style="width:658px;height:376px;" version="1.1" viewBox="0 0 658 376" width="658px" zoomAndPan="magnify"><defs><filter height="300%" id="f4asmched94ke" width="300%" x="-1" y="-1"><feGaussianBlur result="blurOut" stdDeviation="2.0"/><feColorMatrix in="blurOut" result="blurOut2" type="matrix" values="0 0 0 0 0 0 0 0 0 0 0 0 0 0 0 0 0 0 .4 0"/><feOffset dx="4.0" dy="4.0" in="blurOut2" result="blurOut3"/><feBlend in="SourceGraphic" in2="blurOut3" mode="normal"/></filter></defs><g><rect fill="#FFFFFF" filter="url(#f4asmched94ke)" height="173.7578" style="stroke:#A80036;stroke-width:1.0;" width="10" x="21" y="99.6094"/><rect fill="#FFFFFF" filter="url(#f4asmched94ke)" height="151.4063" style="stroke:#A80036;stroke-width:1.0;" width="10" x="219" y="121.9609"/><rect fill="#FFFFFF" filter="url(#f4asmched94ke)" height="121.0547" style="stroke:#A80036;stroke-width:1.0;" width="10" x="369" y="152.3125"/><rect fill="#FFFFFF" filter="url(#f4asmched94ke)" height="60.3516" style="stroke:#A80036;stroke-width:1.0;" width="10" x="495.5" y="182.6641"/><rect fill="#FFFFFF" filter="url(#f4asmched94ke)" height="30" style="stroke:#A80036;stroke-width:1.0;" width="10" x="610.5" y="213.0156"/><line style="stroke:#A80036;stroke-width:1.0;stroke-dasharray:5.0,5.0;" x1="26" x2="26" y1="89.6094" y2="291.3672"/><line style="stroke:#A80036;stroke-width:1.0;stroke-dasharray:5.0,5.0;" x1="223.5" x2="223.5" y1="89.6094" y2="291.3672"/><line style="stroke:#A80036;stroke-width:1.0;stroke-dasharray:5.0,5.0;" x1="373.5" x2="373.5" y1="89.6094" y2="291.3672"/><line style="stroke:#A80036;stroke-width:1.0;stroke-dasharray:5.0,5.0;" x1="500.5" x2="500.5" y1="89.6094" y2="291.3672"/><line style="stroke:#A80036;stroke-width:1.0;stroke-dasharray:5.0,5.0;" x1="615.5" x2="615.5" y1="89.6094" y2="291.3672"/><text fill="#000000" font-family="sans-serif" font-size="14" lengthAdjust="spacingAndGlyphs" textLength="36" x="5" y="86.5332">Client</text><ellipse cx="26" cy="15" fill="#FEFECE" filter="url(#f4asmched94ke)" rx="8" ry="8" style="stroke:#A80036;stroke-width:2.0;"/><path d="M26,23 L26,50 M13,31 L39,31 M26,50 L13,65 M26,50 L39,65 " fill="none" filter="url(#f4asmched94ke)" style="stroke:#A80036;stroke-width:2.0;"/><text fill="#000000" font-family="sans-serif" font-size="14" lengthAdjust="spacingAndGlyphs" textLength="36" x="5" y="304.9004">Client</text><ellipse cx="26" cy="317.9766" fill="#FEFECE" filter="url(#f4asmched94ke)" rx="8" ry="8" style="stroke:#A80036;stroke-width:2.0;"/><path d="M26,325.9766 L26,352.9766 M13,333.9766 L39,333.9766 M26,352.9766 L13,367.9766 M26,352.9766 L39,367.9766 " fill="none" filter="url(#f4asmched94ke)" style="stroke:#A80036;stroke-width:2.0;"/><rect fill="#FEFECE" filter="url(#f4asmched94ke)" height="31.6094" style="stroke:#A80036;stroke-width:1.5;" width="111" x="166.5" y="53"/><text fill="#000000" font-family="sans-serif" font-size="14" lengthAdjust="spacingAndGlyphs" textLength="97" x="173.5" y="74.5332">:OrderInvoiceUI</text><rect fill="#FEFECE" filter="url(#f4asmched94ke)" height="31.6094" style="stroke:#A80036;stroke-width:1.5;" width="111" x="166.5" y="290.3672"/><text fill="#000000" font-family="sans-serif" font-size="14" lengthAdjust="spacingAndGlyphs" textLength="97" x="173.5" y="311.9004">:OrderInvoiceUI</text><rect fill="#FEFECE" filter="url(#f4asmched94ke)" height="31.6094" style="stroke:#A80036;stroke-width:1.5;" width="161" x="291.5" y="53"/><text fill="#000000" font-family="sans-serif" font-size="14" lengthAdjust="spacingAndGlyphs" textLength="147" x="298.5" y="74.5332">:OrderInvoiceController</text><rect fill="#FEFECE" filter="url(#f4asmched94ke)" height="31.6094" style="stroke:#A80036;stroke-width:1.5;" width="161" x="291.5" y="290.3672"/><text fill="#000000" font-family="sans-serif" font-size="14" lengthAdjust="spacingAndGlyphs" textLength="147" x="298.5" y="311.9004">:OrderInvoiceController</text><rect fill="#FEFECE" filter="url(#f4asmched94ke)" height="31.6094" style="stroke:#A80036;stroke-width:1.5;" width="64" x="466.5" y="53"/><text fill="#000000" font-family="sans-serif" font-size="14" lengthAdjust="spacingAndGlyphs" textLength="50" x="473.5" y="74.5332">:System</text><rect fill="#FEFECE" filter="url(#f4asmched94ke)" height="31.6094" style="stroke:#A80036;stroke-width:1.5;" width="64" x="466.5" y="290.3672"/><text fill="#000000" font-family="sans-serif" font-size="14" lengthAdjust="spacingAndGlyphs" textLength="50" x="473.5" y="311.9004">:System</text><rect fill="#FEFECE" filter="url(#f4asmched94ke)" height="31.6094" style="stroke:#A80036;stroke-width:1.5;" width="62" x="582.5" y="53"/><text fill="#000000" font-family="sans-serif" font-size="14" lengthAdjust="spacingAndGlyphs" textLength="48" x="589.5" y="74.5332">Receipt</text><rect fill="#FEFECE" filter="url(#f4asmched94ke)" height="31.6094" style="stroke:#A80036;stroke-width:1.5;" width="62" x="582.5" y="290.3672"/><text fill="#000000" font-family="sans-serif" font-size="14" lengthAdjust="spacingAndGlyphs" textLength="48" x="589.5" y="311.9004">Receipt</text><rect fill="#FFFFFF" filter="url(#f4asmched94ke)" height="173.7578" style="stroke:#A80036;stroke-width:1.0;" width="10" x="21" y="99.6094"/><rect fill="#FFFFFF" filter="url(#f4asmched94ke)" height="151.4063" style="stroke:#A80036;stroke-width:1.0;" width="10" x="219" y="121.9609"/><rect fill="#FFFFFF" filter="url(#f4asmched94ke)" height="121.0547" style="stroke:#A80036;stroke-width:1.0;" width="10" x="369" y="152.3125"/><rect fill="#FFFFFF" filter="url(#f4asmched94ke)" height="60.3516" style="stroke:#A80036;stroke-width:1.0;" width="10" x="495.5" y="182.6641"/><rect fill="#FFFFFF" filter="url(#f4asmched94ke)" height="30" style="stroke:#A80036;stroke-width:1.0;" width="10" x="610.5" y="213.0156"/><polygon fill="#A80036" points="207,117.9609,217,121.9609,207,125.9609,211,121.9609" style="stroke:#A80036;stroke-width:1.0;"/><line style="stroke:#A80036;stroke-width:1.0;" x1="31" x2="213" y1="121.9609" y2="121.9609"/><text fill="#000000" font-family="sans-serif" font-size="13" font-weight="bold" lengthAdjust="spacingAndGlyphs" textLength="7" x="38" y="117.1045">1</text><text fill="#000000" font-family="sans-serif" font-size="13" lengthAdjust="spacingAndGlyphs" textLength="107" x="49" y="117.1045">Make a new order.</text><polygon fill="#A80036" points="357,148.3125,367,152.3125,357,156.3125,361,152.3125" style="stroke:#A80036;stroke-width:1.0;"/><line style="stroke:#A80036;stroke-width:1.0;" x1="229" x2="363" y1="152.3125" y2="152.3125"/><text fill="#000000" font-family="sans-serif" font-size="13" font-weight="bold" lengthAdjust="spacingAndGlyphs" textLength="7" x="236" y="147.4561">2</text><text fill="#000000" font-family="sans-serif" font-size="13" lengthAdjust="spacingAndGlyphs" textLength="84" x="247" y="147.4561">getCatalogue()</text><polygon fill="#A80036" points="483.5,178.6641,493.5,182.6641,483.5,186.6641,487.5,182.6641" style="stroke:#A80036;stroke-width:1.0;"/><line style="stroke:#A80036;stroke-width:1.0;" x1="379" x2="489.5" y1="182.6641" y2="182.6641"/><text fill="#000000" font-family="sans-serif" font-size="13" font-weight="bold" lengthAdjust="spacingAndGlyphs" textLength="7" x="386" y="177.8076">3</text><text fill="#000000" font-family="sans-serif" font-size="13" lengthAdjust="spacingAndGlyphs" textLength="84" x="397" y="177.8076">getCatalogue()</text><polygon fill="#A80036" points="598.5,209.0156,608.5,213.0156,598.5,217.0156,602.5,213.0156" style="stroke:#A80036;stroke-width:1.0;"/><line style="stroke:#A80036;stroke-width:1.0;" x1="505.5" x2="604.5" y1="213.0156" y2="213.0156"/><text fill="#000000" font-family="sans-serif" font-size="13" font-weight="bold" lengthAdjust="spacingAndGlyphs" textLength="7" x="512.5" y="208.1592">4</text><text fill="#000000" font-family="sans-serif" font-size="13" lengthAdjust="spacingAndGlyphs" textLength="75" x="523.5" y="208.1592">sendInvoice()</text><polygon fill="#A80036" points="37,269.3672,27,273.3672,37,277.3672,33,273.3672" style="stroke:#A80036;stroke-width:1.0;"/><line style="stroke:#A80036;stroke-width:1.0;stroke-dasharray:2.0,2.0;" x1="31" x2="223" y1="273.3672" y2="273.3672"/><text fill="#000000" font-family="sans-serif" font-size="13" font-weight="bold" lengthAdjust="spacingAndGlyphs" textLength="7" x="43" y="268.5107">5</text><text fill="#000000" font-family="sans-serif" font-size="13" lengthAdjust="spacingAndGlyphs" textLength="153" x="54" y="268.5107">Returns an invoice\ receipt</text><!--MD5=[29efcf4b375741150142ab4672b92659]
@startuml
autonumber

actor "Client" as Pharmacy
participant ":OrderInvoiceUI" as UI
participant ":OrderInvoiceController" as CTRL
participant ":System" as SYS
participant "Receipt" as IN




activate Pharmacy
Pharmacy -> UI : Make a new order.
activate UI
UI -> CTRL : getCatalogue()
activate CTRL

CTRL -> SYS : getCatalogue()
activate SYS

SYS->IN:sendInvoice()
activate IN
deactivate SYS




deactivate IN

UI - ->Pharmacy:Returns an invoice\ receipt


deactivate CTRL

deactivate UI

deactivate Pharmacy
@enduml

PlantUML version 1.2020.23(Sun Dec 13 19:14:58 GMT 2020)
(GPL source distribution)
Java Runtime: OpenJDK Runtime Environment
JVM: OpenJDK 64-Bit Server VM
Default Encoding: Cp1252
Language: pt
Country: PT
--></g></svg>