<?xml version="1.0" encoding="UTF-8" standalone="no"?><svg xmlns="http://www.w3.org/2000/svg" xmlns:xlink="http://www.w3.org/1999/xlink" contentScriptType="application/ecmascript" contentStyleType="text/css" height="179px" preserveAspectRatio="none" style="width:568px;height:179px;" version="1.1" viewBox="0 0 568 179" width="568px" zoomAndPan="magnify"><defs><filter height="300%" id="f1uku5gim8cl8f" width="300%" x="-1" y="-1"><feGaussianBlur result="blurOut" stdDeviation="2.0"/><feColorMatrix in="blurOut" result="blurOut2" type="matrix" values="0 0 0 0 0 0 0 0 0 0 0 0 0 0 0 0 0 0 .4 0"/><feOffset dx="4.0" dy="4.0" in="blurOut2" result="blurOut3"/><feBlend in="SourceGraphic" in2="blurOut3" mode="normal"/></filter></defs><g><!--MD5=[8185ebc096141ed1029e6a532810c4f1]
class InvoiceUI--><rect codeLine="4" fill="#FEFECE" filter="url(#f1uku5gim8cl8f)" height="48" id="InvoiceUI" style="stroke:#A80036;stroke-width:1.5;" width="82" x="7" y="63"/><ellipse cx="22" cy="79" fill="#ADD1B2" rx="11" ry="11" style="stroke:#A80036;stroke-width:1.0;"/><path d="M24,75.5 Q24.2031,75 24.4375,74.75 Q24.6719,74.5 24.9375,74.5 Q25.4063,74.5 25.7031,74.7813 Q26,75.0625 26,75.7188 L26,77.2813 Q26,77.9375 25.7188,78.2188 Q25.4375,78.5 25,78.5 Q24.6094,78.5 24.3594,78.3281 Q24.1094,78.1563 24,77.7031 Q23.9531,77.3906 23.7813,77.2188 Q23.4688,76.8906 22.9063,76.7031 Q22.3438,76.5 21.7813,76.5 Q21.0781,76.5 20.4844,76.7813 Q19.9063,77.0625 19.4531,77.6875 Q19,78.3125 19,79.1719 L19,80.0938 Q19,81.125 19.8438,81.8125 Q20.6875,82.5 22.1875,82.5 Q23.0781,82.5 23.7031,82.2969 Q24.0625,82.1875 24.4688,81.8281 Q24.7344,81.625 24.875,81.5625 Q25.0156,81.5 25.1875,81.5 Q25.5156,81.5 25.75,81.7656 Q26,82.0156 26,82.375 Q26,82.7188 25.6563,83.125 Q25.1563,83.7188 24.3594,84.0469 Q23.3125,84.5 22.0313,84.5 Q20.5313,84.5 19.3281,83.9063 Q18.3594,83.4375 17.6719,82.4219 Q17,81.4063 17,80.2031 L17,79.1094 Q17,77.8594 17.5938,76.7656 Q18.2031,75.6719 19.25,75.0938 Q20.3125,74.5 21.5,74.5 Q22.2188,74.5 22.8438,74.75 Q23.4688,75 24,75.5 Z " fill="#000000"/><text fill="#000000" font-family="sans-serif" font-size="12" lengthAdjust="spacingAndGlyphs" textLength="50" x="36" y="83.9102">InvoiceUI</text><line style="stroke:#A80036;stroke-width:1.5;" x1="8" x2="88" y1="95" y2="95"/><line style="stroke:#A80036;stroke-width:1.5;" x1="8" x2="88" y1="103" y2="103"/><!--MD5=[0335f80f3930dbb4bae7902643ca456f]
class InvoiceController--><rect codeLine="7" fill="#FEFECE" filter="url(#f1uku5gim8cl8f)" height="61.8359" id="InvoiceController" style="stroke:#A80036;stroke-width:1.5;" width="124" x="149" y="56"/><ellipse cx="164" cy="72" fill="#ADD1B2" rx="11" ry="11" style="stroke:#A80036;stroke-width:1.0;"/><path d="M166,68.5 Q166.2031,68 166.4375,67.75 Q166.6719,67.5 166.9375,67.5 Q167.4063,67.5 167.7031,67.7813 Q168,68.0625 168,68.7188 L168,70.2813 Q168,70.9375 167.7188,71.2188 Q167.4375,71.5 167,71.5 Q166.6094,71.5 166.3594,71.3281 Q166.1094,71.1563 166,70.7031 Q165.9531,70.3906 165.7813,70.2188 Q165.4688,69.8906 164.9063,69.7031 Q164.3438,69.5 163.7813,69.5 Q163.0781,69.5 162.4844,69.7813 Q161.9063,70.0625 161.4531,70.6875 Q161,71.3125 161,72.1719 L161,73.0938 Q161,74.125 161.8438,74.8125 Q162.6875,75.5 164.1875,75.5 Q165.0781,75.5 165.7031,75.2969 Q166.0625,75.1875 166.4688,74.8281 Q166.7344,74.625 166.875,74.5625 Q167.0156,74.5 167.1875,74.5 Q167.5156,74.5 167.75,74.7656 Q168,75.0156 168,75.375 Q168,75.7188 167.6563,76.125 Q167.1563,76.7188 166.3594,77.0469 Q165.3125,77.5 164.0313,77.5 Q162.5313,77.5 161.3281,76.9063 Q160.3594,76.4375 159.6719,75.4219 Q159,74.4063 159,73.2031 L159,72.1094 Q159,70.8594 159.5938,69.7656 Q160.2031,68.6719 161.25,68.0938 Q162.3125,67.5 163.5,67.5 Q164.2188,67.5 164.8438,67.75 Q165.4688,68 166,68.5 Z " fill="#000000"/><text fill="#000000" font-family="sans-serif" font-size="12" lengthAdjust="spacingAndGlyphs" textLength="92" x="178" y="76.9102">InvoiceController</text><line style="stroke:#A80036;stroke-width:1.5;" x1="150" x2="272" y1="88" y2="88"/><line style="stroke:#A80036;stroke-width:1.5;" x1="150" x2="272" y1="96" y2="96"/><ellipse cx="160" cy="107" fill="#84BE84" rx="3" ry="3" style="stroke:#038048;stroke-width:1.0;"/><text fill="#000000" font-family="sans-serif" font-size="11" lengthAdjust="spacingAndGlyphs" textLength="71" x="169" y="111.4189">getCatalogue()</text><!--MD5=[0b4e4b4980470ea387cc45de9bd14b5b]
class Application--><rect codeLine="11" fill="#FEFECE" filter="url(#f1uku5gim8cl8f)" height="61.8359" id="Application" style="stroke:#A80036;stroke-width:1.5;" width="97" x="333" y="7"/><ellipse cx="350.25" cy="23" fill="#ADD1B2" rx="11" ry="11" style="stroke:#A80036;stroke-width:1.0;"/><path d="M352.25,19.5 Q352.4531,19 352.6875,18.75 Q352.9219,18.5 353.1875,18.5 Q353.6563,18.5 353.9531,18.7813 Q354.25,19.0625 354.25,19.7188 L354.25,21.2813 Q354.25,21.9375 353.9688,22.2188 Q353.6875,22.5 353.25,22.5 Q352.8594,22.5 352.6094,22.3281 Q352.3594,22.1563 352.25,21.7031 Q352.2031,21.3906 352.0313,21.2188 Q351.7188,20.8906 351.1563,20.7031 Q350.5938,20.5 350.0313,20.5 Q349.3281,20.5 348.7344,20.7813 Q348.1563,21.0625 347.7031,21.6875 Q347.25,22.3125 347.25,23.1719 L347.25,24.0938 Q347.25,25.125 348.0938,25.8125 Q348.9375,26.5 350.4375,26.5 Q351.3281,26.5 351.9531,26.2969 Q352.3125,26.1875 352.7188,25.8281 Q352.9844,25.625 353.125,25.5625 Q353.2656,25.5 353.4375,25.5 Q353.7656,25.5 354,25.7656 Q354.25,26.0156 354.25,26.375 Q354.25,26.7188 353.9063,27.125 Q353.4063,27.7188 352.6094,28.0469 Q351.5625,28.5 350.2813,28.5 Q348.7813,28.5 347.5781,27.9063 Q346.6094,27.4375 345.9219,26.4219 Q345.25,25.4063 345.25,24.2031 L345.25,23.1094 Q345.25,21.8594 345.8438,20.7656 Q346.4531,19.6719 347.5,19.0938 Q348.5625,18.5 349.75,18.5 Q350.4688,18.5 351.0938,18.75 Q351.7188,19 352.25,19.5 Z " fill="#000000"/><text fill="#000000" font-family="sans-serif" font-size="12" lengthAdjust="spacingAndGlyphs" textLength="60" x="364.75" y="27.9102">Application</text><line style="stroke:#A80036;stroke-width:1.5;" x1="334" x2="429" y1="39" y2="39"/><line style="stroke:#A80036;stroke-width:1.5;" x1="334" x2="429" y1="47" y2="47"/><ellipse cx="344" cy="58" fill="#84BE84" rx="3" ry="3" style="stroke:#038048;stroke-width:1.0;"/><text fill="#000000" font-family="sans-serif" font-size="11" lengthAdjust="spacingAndGlyphs" textLength="71" x="353" y="62.4189">getCatalogue()</text><!--MD5=[34b75dd4d6d4601c280a5b76e9c1a953]
class Receipt--><rect codeLine="15" fill="#FEFECE" filter="url(#f1uku5gim8cl8f)" height="61.8359" id="Receipt" style="stroke:#A80036;stroke-width:1.5;" width="92" x="335.5" y="104"/><ellipse cx="358.6" cy="120" fill="#ADD1B2" rx="11" ry="11" style="stroke:#A80036;stroke-width:1.0;"/><path d="M360.6,116.5 Q360.8031,116 361.0375,115.75 Q361.2719,115.5 361.5375,115.5 Q362.0063,115.5 362.3031,115.7813 Q362.6,116.0625 362.6,116.7188 L362.6,118.2813 Q362.6,118.9375 362.3188,119.2188 Q362.0375,119.5 361.6,119.5 Q361.2094,119.5 360.9594,119.3281 Q360.7094,119.1563 360.6,118.7031 Q360.5531,118.3906 360.3813,118.2188 Q360.0688,117.8906 359.5063,117.7031 Q358.9438,117.5 358.3813,117.5 Q357.6781,117.5 357.0844,117.7813 Q356.5063,118.0625 356.0531,118.6875 Q355.6,119.3125 355.6,120.1719 L355.6,121.0938 Q355.6,122.125 356.4438,122.8125 Q357.2875,123.5 358.7875,123.5 Q359.6781,123.5 360.3031,123.2969 Q360.6625,123.1875 361.0688,122.8281 Q361.3344,122.625 361.475,122.5625 Q361.6156,122.5 361.7875,122.5 Q362.1156,122.5 362.35,122.7656 Q362.6,123.0156 362.6,123.375 Q362.6,123.7188 362.2563,124.125 Q361.7563,124.7188 360.9594,125.0469 Q359.9125,125.5 358.6313,125.5 Q357.1313,125.5 355.9281,124.9063 Q354.9594,124.4375 354.2719,123.4219 Q353.6,122.4063 353.6,121.2031 L353.6,120.1094 Q353.6,118.8594 354.1938,117.7656 Q354.8031,116.6719 355.85,116.0938 Q356.9125,115.5 358.1,115.5 Q358.8188,115.5 359.4438,115.75 Q360.0688,116 360.6,116.5 Z " fill="#000000"/><text fill="#000000" font-family="sans-serif" font-size="12" lengthAdjust="spacingAndGlyphs" textLength="42" x="374.4" y="124.9102">Receipt</text><line style="stroke:#A80036;stroke-width:1.5;" x1="336.5" x2="426.5" y1="136" y2="136"/><line style="stroke:#A80036;stroke-width:1.5;" x1="336.5" x2="426.5" y1="144" y2="144"/><ellipse cx="346.5" cy="155" fill="#84BE84" rx="3" ry="3" style="stroke:#038048;stroke-width:1.0;"/><text fill="#000000" font-family="sans-serif" font-size="11" lengthAdjust="spacingAndGlyphs" textLength="66" x="355.5" y="159.4189">sendInvoice()</text><!--MD5=[ed6624c6556d5e7b1bd23032162d20b7]
class Client--><rect codeLine="18" fill="#FEFECE" filter="url(#f1uku5gim8cl8f)" height="48" id="Client" style="stroke:#A80036;stroke-width:1.5;" width="64" x="490" y="111"/><ellipse cx="505" cy="127" fill="#ADD1B2" rx="11" ry="11" style="stroke:#A80036;stroke-width:1.0;"/><path d="M507,123.5 Q507.2031,123 507.4375,122.75 Q507.6719,122.5 507.9375,122.5 Q508.4063,122.5 508.7031,122.7813 Q509,123.0625 509,123.7188 L509,125.2813 Q509,125.9375 508.7188,126.2188 Q508.4375,126.5 508,126.5 Q507.6094,126.5 507.3594,126.3281 Q507.1094,126.1563 507,125.7031 Q506.9531,125.3906 506.7813,125.2188 Q506.4688,124.8906 505.9063,124.7031 Q505.3438,124.5 504.7813,124.5 Q504.0781,124.5 503.4844,124.7813 Q502.9063,125.0625 502.4531,125.6875 Q502,126.3125 502,127.1719 L502,128.0938 Q502,129.125 502.8438,129.8125 Q503.6875,130.5 505.1875,130.5 Q506.0781,130.5 506.7031,130.2969 Q507.0625,130.1875 507.4688,129.8281 Q507.7344,129.625 507.875,129.5625 Q508.0156,129.5 508.1875,129.5 Q508.5156,129.5 508.75,129.7656 Q509,130.0156 509,130.375 Q509,130.7188 508.6563,131.125 Q508.1563,131.7188 507.3594,132.0469 Q506.3125,132.5 505.0313,132.5 Q503.5313,132.5 502.3281,131.9063 Q501.3594,131.4375 500.6719,130.4219 Q500,129.4063 500,128.2031 L500,127.1094 Q500,125.8594 500.5938,124.7656 Q501.2031,123.6719 502.25,123.0938 Q503.3125,122.5 504.5,122.5 Q505.2188,122.5 505.8438,122.75 Q506.4688,123 507,123.5 Z " fill="#000000"/><text fill="#000000" font-family="sans-serif" font-size="12" lengthAdjust="spacingAndGlyphs" textLength="32" x="519" y="131.9102">Client</text><line style="stroke:#A80036;stroke-width:1.5;" x1="491" x2="553" y1="143" y2="143"/><line style="stroke:#A80036;stroke-width:1.5;" x1="491" x2="553" y1="151" y2="151"/><!--MD5=[c35394fbcd26d9cd7f8321977b4eb419]
link InvoiceUI to InvoiceController--><path codeLine="21" d="M89.21,87 C105.64,87 125.09,87 143.53,87 " fill="none" id="InvoiceUI-to-InvoiceController" style="stroke:#A80036;stroke-width:1.0;stroke-dasharray:7.0,7.0;"/><polygon fill="#A80036" points="148.7,87,139.7,83,143.7,87,139.7,91,148.7,87" style="stroke:#A80036;stroke-width:1.0;"/><!--MD5=[35f21763ac5b46e44a437f0a46163870]
link InvoiceController to Application--><path codeLine="22" d="M273.31,69.17 C291.29,63.94 310.77,58.28 328.14,53.23 " fill="none" id="InvoiceController-to-Application" style="stroke:#A80036;stroke-width:1.0;stroke-dasharray:7.0,7.0;"/><polygon fill="#A80036" points="332.97,51.82,323.21,50.5,328.17,53.22,325.45,58.18,332.97,51.82" style="stroke:#A80036;stroke-width:1.0;"/><!--MD5=[a2fe392c622fe069b237ca753899cda4]
link InvoiceController to Receipt--><path codeLine="23" d="M273.31,104.46 C292.06,109.81 312.45,115.62 330.37,120.72 " fill="none" id="InvoiceController-to-Receipt" style="stroke:#A80036;stroke-width:1.0;stroke-dasharray:7.0,7.0;"/><polygon fill="#A80036" points="335.35,122.14,327.7952,115.8214,330.5424,120.7664,325.5974,123.5136,335.35,122.14" style="stroke:#A80036;stroke-width:1.0;"/><!--MD5=[9ebf31bdf3d54facfb256becb4a17038]
link Receipt to Client--><path codeLine="24" d="M427.85,135 C446.3,135 467.32,135 484.72,135 " fill="none" id="Receipt-to-Client" style="stroke:#A80036;stroke-width:1.0;stroke-dasharray:7.0,7.0;"/><polygon fill="#A80036" points="490,135,481,131,485,135,481,139,490,135" style="stroke:#A80036;stroke-width:1.0;"/><!--MD5=[6853fbe20fd90631dc61cd0c36d62865]
@startuml

left to right direction

class InvoiceUI {
}

class InvoiceController {
    +getCatalogue()
}

class Application {
    +getCatalogue()
}

class Receipt {
    +sendInvoice()
}
class Client {
}

InvoiceUI ..> InvoiceController
InvoiceController ..> Application
InvoiceController ..> Receipt
Receipt..>Client

@enduml

PlantUML version 1.2020.23(Sun Dec 13 19:14:58 GMT 2020)
(GPL source distribution)
Java Runtime: OpenJDK Runtime Environment
JVM: OpenJDK 64-Bit Server VM
Default Encoding: Cp1252
Language: pt
Country: PT
--></g></svg>