<?xml version="1.0" encoding="UTF-8" standalone="no"?><svg xmlns="http://www.w3.org/2000/svg" xmlns:xlink="http://www.w3.org/1999/xlink" contentScriptType="application/ecmascript" contentStyleType="text/css" height="254px" preserveAspectRatio="none" style="width:612px;height:254px;" version="1.1" viewBox="0 0 612 254" width="612px" zoomAndPan="magnify"><defs><filter height="300%" id="fjm350aetdoey" width="300%" x="-1" y="-1"><feGaussianBlur result="blurOut" stdDeviation="2.0"/><feColorMatrix in="blurOut" result="blurOut2" type="matrix" values="0 0 0 0 0 0 0 0 0 0 0 0 0 0 0 0 0 0 .4 0"/><feOffset dx="4.0" dy="4.0" in="blurOut2" result="blurOut3"/><feBlend in="SourceGraphic" in2="blurOut3" mode="normal"/></filter></defs><g><!--MD5=[ed6624c6556d5e7b1bd23032162d20b7]
class Client--><rect codeLine="4" fill="#FEFECE" filter="url(#fjm350aetdoey)" height="136.8516" id="Client" style="stroke:#A80036;stroke-width:1.5;" width="144" x="7" y="7"/><ellipse cx="58.75" cy="23" fill="#ADD1B2" rx="11" ry="11" style="stroke:#A80036;stroke-width:1.0;"/><path d="M60.75,19.5 Q60.9531,19 61.1875,18.75 Q61.4219,18.5 61.6875,18.5 Q62.1563,18.5 62.4531,18.7813 Q62.75,19.0625 62.75,19.7188 L62.75,21.2813 Q62.75,21.9375 62.4688,22.2188 Q62.1875,22.5 61.75,22.5 Q61.3594,22.5 61.1094,22.3281 Q60.8594,22.1563 60.75,21.7031 Q60.7031,21.3906 60.5313,21.2188 Q60.2188,20.8906 59.6563,20.7031 Q59.0938,20.5 58.5313,20.5 Q57.8281,20.5 57.2344,20.7813 Q56.6563,21.0625 56.2031,21.6875 Q55.75,22.3125 55.75,23.1719 L55.75,24.0938 Q55.75,25.125 56.5938,25.8125 Q57.4375,26.5 58.9375,26.5 Q59.8281,26.5 60.4531,26.2969 Q60.8125,26.1875 61.2188,25.8281 Q61.4844,25.625 61.625,25.5625 Q61.7656,25.5 61.9375,25.5 Q62.2656,25.5 62.5,25.7656 Q62.75,26.0156 62.75,26.375 Q62.75,26.7188 62.4063,27.125 Q61.9063,27.7188 61.1094,28.0469 Q60.0625,28.5 58.7813,28.5 Q57.2813,28.5 56.0781,27.9063 Q55.1094,27.4375 54.4219,26.4219 Q53.75,25.4063 53.75,24.2031 L53.75,23.1094 Q53.75,21.8594 54.3438,20.7656 Q54.9531,19.6719 56,19.0938 Q57.0625,18.5 58.25,18.5 Q58.9688,18.5 59.5938,18.75 Q60.2188,19 60.75,19.5 Z " fill="#000000"/><text fill="#000000" font-family="sans-serif" font-size="12" lengthAdjust="spacingAndGlyphs" textLength="32" x="79.25" y="27.9102">Client</text><line style="stroke:#A80036;stroke-width:1.5;" x1="8" x2="150" y1="39" y2="39"/><rect fill="none" height="6" style="stroke:#C82930;stroke-width:1.0;" width="6" x="15" y="47"/><text fill="#000000" font-family="sans-serif" font-size="11" lengthAdjust="spacingAndGlyphs" textLength="44" x="27" y="54.4189">Integer id</text><rect fill="none" height="6" style="stroke:#C82930;stroke-width:1.0;" width="6" x="15" y="60.8359"/><text fill="#000000" font-family="sans-serif" font-size="11" lengthAdjust="spacingAndGlyphs" textLength="57" x="27" y="68.2549">String name</text><rect fill="none" height="6" style="stroke:#C82930;stroke-width:1.0;" width="6" x="15" y="74.6719"/><text fill="#000000" font-family="sans-serif" font-size="11" lengthAdjust="spacingAndGlyphs" textLength="97" x="27" y="82.0908">String emailAddress</text><rect fill="none" height="6" style="stroke:#C82930;stroke-width:1.0;" width="6" x="15" y="88.5078"/><text fill="#000000" font-family="sans-serif" font-size="11" lengthAdjust="spacingAndGlyphs" textLength="81" x="27" y="95.9268">String password</text><rect fill="none" height="6" style="stroke:#C82930;stroke-width:1.0;" width="6" x="15" y="102.3438"/><text fill="#000000" font-family="sans-serif" font-size="11" lengthAdjust="spacingAndGlyphs" textLength="77" x="27" y="109.7627">String cellphone</text><rect fill="none" height="6" style="stroke:#C82930;stroke-width:1.0;" width="6" x="15" y="116.1797"/><text fill="#000000" font-family="sans-serif" font-size="11" lengthAdjust="spacingAndGlyphs" textLength="48" x="27" y="123.5986">Integer nif</text><rect fill="none" height="6" style="stroke:#C82930;stroke-width:1.0;" width="6" x="15" y="130.0156"/><text fill="#000000" font-family="sans-serif" font-size="11" lengthAdjust="spacingAndGlyphs" textLength="118" x="27" y="137.4346">Integer numberOfCredits</text><!--MD5=[0b4e4b4980470ea387cc45de9bd14b5b]
class Application--><rect codeLine="15" fill="#FEFECE" filter="url(#fjm350aetdoey)" height="40" id="Application" style="stroke:#A80036;stroke-width:1.5;" width="92" x="33" y="179.5"/><ellipse cx="48" cy="195.5" fill="#ADD1B2" rx="11" ry="11" style="stroke:#A80036;stroke-width:1.0;"/><path d="M50,192 Q50.2031,191.5 50.4375,191.25 Q50.6719,191 50.9375,191 Q51.4063,191 51.7031,191.2813 Q52,191.5625 52,192.2188 L52,193.7813 Q52,194.4375 51.7188,194.7188 Q51.4375,195 51,195 Q50.6094,195 50.3594,194.8281 Q50.1094,194.6563 50,194.2031 Q49.9531,193.8906 49.7813,193.7188 Q49.4688,193.3906 48.9063,193.2031 Q48.3438,193 47.7813,193 Q47.0781,193 46.4844,193.2813 Q45.9063,193.5625 45.4531,194.1875 Q45,194.8125 45,195.6719 L45,196.5938 Q45,197.625 45.8438,198.3125 Q46.6875,199 48.1875,199 Q49.0781,199 49.7031,198.7969 Q50.0625,198.6875 50.4688,198.3281 Q50.7344,198.125 50.875,198.0625 Q51.0156,198 51.1875,198 Q51.5156,198 51.75,198.2656 Q52,198.5156 52,198.875 Q52,199.2188 51.6563,199.625 Q51.1563,200.2188 50.3594,200.5469 Q49.3125,201 48.0313,201 Q46.5313,201 45.3281,200.4063 Q44.3594,199.9375 43.6719,198.9219 Q43,197.9063 43,196.7031 L43,195.6094 Q43,194.3594 43.5938,193.2656 Q44.2031,192.1719 45.25,191.5938 Q46.3125,191 47.5,191 Q48.2188,191 48.8438,191.25 Q49.4688,191.5 50,192 Z " fill="#000000"/><text fill="#000000" font-family="sans-serif" font-size="12" lengthAdjust="spacingAndGlyphs" textLength="60" x="62" y="200.4102">Application</text><line style="stroke:#A80036;stroke-width:1.5;" x1="34" x2="124" y1="211.5" y2="211.5"/><!--MD5=[3fd616f346a44cd59a91eb10b19e157c]
class User--><rect codeLine="18" fill="#FEFECE" filter="url(#fjm350aetdoey)" height="95.3438" id="User" style="stroke:#A80036;stroke-width:1.5;" width="123" x="269" y="145"/><ellipse cx="312.8" cy="161" fill="#ADD1B2" rx="11" ry="11" style="stroke:#A80036;stroke-width:1.0;"/><path d="M314.8,157.5 Q315.0031,157 315.2375,156.75 Q315.4719,156.5 315.7375,156.5 Q316.2063,156.5 316.5031,156.7813 Q316.8,157.0625 316.8,157.7188 L316.8,159.2813 Q316.8,159.9375 316.5188,160.2188 Q316.2375,160.5 315.8,160.5 Q315.4094,160.5 315.1594,160.3281 Q314.9094,160.1563 314.8,159.7031 Q314.7531,159.3906 314.5813,159.2188 Q314.2688,158.8906 313.7063,158.7031 Q313.1438,158.5 312.5813,158.5 Q311.8781,158.5 311.2844,158.7813 Q310.7063,159.0625 310.2531,159.6875 Q309.8,160.3125 309.8,161.1719 L309.8,162.0938 Q309.8,163.125 310.6438,163.8125 Q311.4875,164.5 312.9875,164.5 Q313.8781,164.5 314.5031,164.2969 Q314.8625,164.1875 315.2688,163.8281 Q315.5344,163.625 315.675,163.5625 Q315.8156,163.5 315.9875,163.5 Q316.3156,163.5 316.55,163.7656 Q316.8,164.0156 316.8,164.375 Q316.8,164.7188 316.4563,165.125 Q315.9563,165.7188 315.1594,166.0469 Q314.1125,166.5 312.8313,166.5 Q311.3313,166.5 310.1281,165.9063 Q309.1594,165.4375 308.4719,164.4219 Q307.8,163.4063 307.8,162.2031 L307.8,161.1094 Q307.8,159.8594 308.3938,158.7656 Q309.0031,157.6719 310.05,157.0938 Q311.1125,156.5 312.3,156.5 Q313.0188,156.5 313.6438,156.75 Q314.2688,157 314.8,157.5 Z " fill="#000000"/><text fill="#000000" font-family="sans-serif" font-size="12" lengthAdjust="spacingAndGlyphs" textLength="27" x="333.2" y="165.9102">User</text><line style="stroke:#A80036;stroke-width:1.5;" x1="270" x2="391" y1="177" y2="177"/><rect fill="none" height="6" style="stroke:#C82930;stroke-width:1.0;" width="6" x="277" y="185"/><text fill="#000000" font-family="sans-serif" font-size="11" lengthAdjust="spacingAndGlyphs" textLength="44" x="289" y="192.4189">Integer id</text><rect fill="none" height="6" style="stroke:#C82930;stroke-width:1.0;" width="6" x="277" y="198.8359"/><text fill="#000000" font-family="sans-serif" font-size="11" lengthAdjust="spacingAndGlyphs" textLength="57" x="289" y="206.2549">String name</text><rect fill="none" height="6" style="stroke:#C82930;stroke-width:1.0;" width="6" x="277" y="212.6719"/><text fill="#000000" font-family="sans-serif" font-size="11" lengthAdjust="spacingAndGlyphs" textLength="97" x="289" y="220.0908">String emailAddress</text><rect fill="none" height="6" style="stroke:#C82930;stroke-width:1.0;" width="6" x="277" y="226.5078"/><text fill="#000000" font-family="sans-serif" font-size="11" lengthAdjust="spacingAndGlyphs" textLength="81" x="289" y="233.9268">String password</text><!--MD5=[cf4d6237fcae255cd2e1656cf84a30e2]
class Order--><rect codeLine="25" fill="#FEFECE" filter="url(#fjm350aetdoey)" height="53.8359" id="Order" style="stroke:#A80036;stroke-width:1.5;" width="70" x="295.5" y="48.5"/><ellipse cx="313.65" cy="64.5" fill="#ADD1B2" rx="11" ry="11" style="stroke:#A80036;stroke-width:1.0;"/><path d="M315.65,61 Q315.8531,60.5 316.0875,60.25 Q316.3219,60 316.5875,60 Q317.0563,60 317.3531,60.2813 Q317.65,60.5625 317.65,61.2188 L317.65,62.7813 Q317.65,63.4375 317.3688,63.7188 Q317.0875,64 316.65,64 Q316.2594,64 316.0094,63.8281 Q315.7594,63.6563 315.65,63.2031 Q315.6031,62.8906 315.4313,62.7188 Q315.1188,62.3906 314.5563,62.2031 Q313.9938,62 313.4313,62 Q312.7281,62 312.1344,62.2813 Q311.5563,62.5625 311.1031,63.1875 Q310.65,63.8125 310.65,64.6719 L310.65,65.5938 Q310.65,66.625 311.4938,67.3125 Q312.3375,68 313.8375,68 Q314.7281,68 315.3531,67.7969 Q315.7125,67.6875 316.1188,67.3281 Q316.3844,67.125 316.525,67.0625 Q316.6656,67 316.8375,67 Q317.1656,67 317.4,67.2656 Q317.65,67.5156 317.65,67.875 Q317.65,68.2188 317.3063,68.625 Q316.8063,69.2188 316.0094,69.5469 Q314.9625,70 313.6813,70 Q312.1813,70 310.9781,69.4063 Q310.0094,68.9375 309.3219,67.9219 Q308.65,66.9063 308.65,65.7031 L308.65,64.6094 Q308.65,63.3594 309.2438,62.2656 Q309.8531,61.1719 310.9,60.5938 Q311.9625,60 313.15,60 Q313.8688,60 314.4938,60.25 Q315.1188,60.5 315.65,61 Z " fill="#000000"/><text fill="#000000" font-family="sans-serif" font-size="12" lengthAdjust="spacingAndGlyphs" textLength="31" x="328.35" y="69.4102">Order</text><line style="stroke:#A80036;stroke-width:1.5;" x1="296.5" x2="364.5" y1="80.5" y2="80.5"/><rect fill="none" height="6" style="stroke:#C82930;stroke-width:1.0;" width="6" x="303.5" y="88.5"/><text fill="#000000" font-family="sans-serif" font-size="11" lengthAdjust="spacingAndGlyphs" textLength="44" x="315.5" y="95.9189">id Integer</text><!--MD5=[34b75dd4d6d4601c280a5b76e9c1a953]
class Receipt--><rect codeLine="29" fill="#FEFECE" filter="url(#fjm350aetdoey)" height="53.8359" id="Receipt" style="stroke:#A80036;stroke-width:1.5;" width="74" x="524" y="48.5"/><ellipse cx="539" cy="64.5" fill="#ADD1B2" rx="11" ry="11" style="stroke:#A80036;stroke-width:1.0;"/><path d="M541,61 Q541.2031,60.5 541.4375,60.25 Q541.6719,60 541.9375,60 Q542.4063,60 542.7031,60.2813 Q543,60.5625 543,61.2188 L543,62.7813 Q543,63.4375 542.7188,63.7188 Q542.4375,64 542,64 Q541.6094,64 541.3594,63.8281 Q541.1094,63.6563 541,63.2031 Q540.9531,62.8906 540.7813,62.7188 Q540.4688,62.3906 539.9063,62.2031 Q539.3438,62 538.7813,62 Q538.0781,62 537.4844,62.2813 Q536.9063,62.5625 536.4531,63.1875 Q536,63.8125 536,64.6719 L536,65.5938 Q536,66.625 536.8438,67.3125 Q537.6875,68 539.1875,68 Q540.0781,68 540.7031,67.7969 Q541.0625,67.6875 541.4688,67.3281 Q541.7344,67.125 541.875,67.0625 Q542.0156,67 542.1875,67 Q542.5156,67 542.75,67.2656 Q543,67.5156 543,67.875 Q543,68.2188 542.6563,68.625 Q542.1563,69.2188 541.3594,69.5469 Q540.3125,70 539.0313,70 Q537.5313,70 536.3281,69.4063 Q535.3594,68.9375 534.6719,67.9219 Q534,66.9063 534,65.7031 L534,64.6094 Q534,63.3594 534.5938,62.2656 Q535.2031,61.1719 536.25,60.5938 Q537.3125,60 538.5,60 Q539.2188,60 539.8438,60.25 Q540.4688,60.5 541,61 Z " fill="#000000"/><text fill="#000000" font-family="sans-serif" font-size="12" lengthAdjust="spacingAndGlyphs" textLength="42" x="553" y="69.4102">Receipt</text><line style="stroke:#A80036;stroke-width:1.5;" x1="525" x2="597" y1="80.5" y2="80.5"/><rect fill="none" height="6" style="stroke:#C82930;stroke-width:1.0;" width="6" x="532" y="88.5"/><text fill="#000000" font-family="sans-serif" font-size="11" lengthAdjust="spacingAndGlyphs" textLength="44" x="544" y="95.9189">id Integer</text><!--MD5=[879bec428a80d843af24dc47845bf14c]
link Client to Order--><path codeLine="33" d="M151.16,75.5 C198.41,75.5 258.31,75.5 295.26,75.5 " fill="none" id="Client-Order" style="stroke:#A80036;stroke-width:1.0;"/><polygon fill="#000000" points="191,66.6758,181.9549,63.7369,181.9549,69.6147,191,66.6758" style="stroke:#000000;stroke-width:1.0;"/><text fill="#000000" font-family="sans-serif" font-size="13" lengthAdjust="spacingAndGlyphs" textLength="43" x="195" y="71.9951">creates</text><text fill="#000000" font-family="sans-serif" font-size="13" lengthAdjust="spacingAndGlyphs" textLength="7" x="158.9624" y="89.8459">1</text><text fill="#000000" font-family="sans-serif" font-size="13" lengthAdjust="spacingAndGlyphs" textLength="20" x="267.4844" y="90.4144">0..*</text><!--MD5=[fae869a5e026c729d21735d7cae014a7]
link Application to User--><path codeLine="34" d="M125.25,199.94 C157.07,200.07 200.65,199.89 239,198.5 C248.6,198.15 258.76,197.63 268.67,197.03 " fill="none" id="Application-User" style="stroke:#A80036;stroke-width:1.0;"/><polygon fill="#000000" points="201.999,189.5744,192.8961,186.8195,193.0154,192.6962,201.999,189.5744" style="stroke:#000000;stroke-width:1.0;"/><text fill="#000000" font-family="sans-serif" font-size="13" lengthAdjust="spacingAndGlyphs" textLength="21" x="206" y="194.9951">has</text><text fill="#000000" font-family="sans-serif" font-size="13" lengthAdjust="spacingAndGlyphs" textLength="7" x="132.868" y="214.7544">1</text><text fill="#000000" font-family="sans-serif" font-size="13" lengthAdjust="spacingAndGlyphs" textLength="7" x="254.1162" y="211.9744">1</text><!--MD5=[9a8dc34b38f85b9f3fcdb440f4bffc6a]
link Client to User--><path codeLine="35" d="M151.16,108.87 C188.32,126.3 233.32,147.4 268.81,164.04 " fill="none" id="Client-User" style="stroke:#A80036;stroke-width:1.0;"/><polygon fill="#000000" points="190.527,116.7986,183.5854,110.2975,181.0898,115.6192,190.527,116.7986" style="stroke:#000000;stroke-width:1.0;"/><text fill="#000000" font-family="sans-serif" font-size="13" lengthAdjust="spacingAndGlyphs" textLength="43" x="195" y="119.9951">acts as</text><text fill="#000000" font-family="sans-serif" font-size="13" lengthAdjust="spacingAndGlyphs" textLength="7" x="158.9624" y="126.6572">1</text><text fill="#000000" font-family="sans-serif" font-size="13" lengthAdjust="spacingAndGlyphs" textLength="7" x="253.865" y="175.042">1</text><!--MD5=[3719c9bf6f78ec9c1d7893b20902bcf8]
link Order to Receipt--><path codeLine="36" d="M365.71,75.5 C408.16,75.5 480.25,75.5 523.67,75.5 " fill="none" id="Order-Receipt" style="stroke:#A80036;stroke-width:1.0;"/><polygon fill="#000000" points="432,66.6758,422.9549,63.7369,422.9549,69.6147,432,66.6758" style="stroke:#000000;stroke-width:1.0;"/><text fill="#000000" font-family="sans-serif" font-size="13" lengthAdjust="spacingAndGlyphs" textLength="57" x="436" y="71.9951">generates</text><text fill="#000000" font-family="sans-serif" font-size="13" lengthAdjust="spacingAndGlyphs" textLength="7" x="373.6939" y="90.6983">1</text><text fill="#000000" font-family="sans-serif" font-size="13" lengthAdjust="spacingAndGlyphs" textLength="7" x="508.8868" y="90.5693">1</text><!--MD5=[ae20404b1c95941a8c2849a935e6361b]
@startuml
hide methods
left to right direction

class Client {
    -Integer id
    -String name
    -String emailAddress
    -String password
    -String cellphone
    -Integer nif
    -Integer numberOfCredits
}


class Application {

}
class User {
    -Integer id
    -String name
    -String emailAddress
    -String password
}

class Order {
    - id Integer
}

class Receipt {
    - id Integer
}

Client "1" - - "0..*" Order: creates >
Application "1" - - "1" User: has >
Client "1" - - "1" User: acts as >
Order "1" - - "1" Receipt: generates >

@enduml

PlantUML version 1.2020.23(Sun Dec 13 19:14:58 GMT 2020)
(GPL source distribution)
Java Runtime: OpenJDK Runtime Environment
JVM: OpenJDK 64-Bit Server VM
Default Encoding: Cp1252
Language: pt
Country: PT
--></g></svg>