<?xml version="1.0" encoding="UTF-8" standalone="no"?><svg xmlns="http://www.w3.org/2000/svg" xmlns:xlink="http://www.w3.org/1999/xlink" contentScriptType="application/ecmascript" contentStyleType="text/css" height="128px" preserveAspectRatio="none" style="width:525px;height:128px;" version="1.1" viewBox="0 0 525 128" width="525px" zoomAndPan="magnify">
    <defs>
        <filter height="300%" id="f1otukcc6unobh" width="300%" x="-1" y="-1">
            <feGaussianBlur result="blurOut" stdDeviation="2.0" />
            <feColorMatrix in="blurOut" result="blurOut2" type="matrix" values="0 0 0 0 0 0 0 0 0 0 0 0 0 0 0 0 0 0 .4 0" />
            <feOffset dx="4.0" dy="4.0" in="blurOut2" result="blurOut3" />
            <feBlend in="SourceGraphic" in2="blurOut3" mode="normal" />
        </filter>
    </defs>
    <g>
        <!--class Courier-->
        <rect fill="#FEFECE" filter="url(#f1otukcc6unobh)" height="109.1797" id="Courier" style="stroke: #A80036; stroke-width: 1.5;" width="108" x="175" y="8" />
        <ellipse cx="205.75" cy="24" fill="#ADD1B2" rx="11" ry="11" style="stroke: #A80036; stroke-width: 1.0;" />
        <path d="M208.5156,19.875 Q208.6719,19.6563 208.8594,19.5469 Q209.0469,19.4375 209.2656,19.4375 Q209.6406,19.4375 209.875,19.6953 Q210.1094,19.9531 210.1094,20.5625 L210.1094,22.0156 Q210.1094,22.625 209.875,22.8906 Q209.6406,23.1563 209.2656,23.1563 Q208.9219,23.1563 208.7188,22.9531 Q208.5156,22.7656 208.4063,22.25 Q208.3594,21.8906 208.1719,21.7031 Q207.8438,21.3281 207.2344,21.1094 Q206.625,20.8906 206,20.8906 Q205.2344,20.8906 204.6016,21.2188 Q203.9688,21.5469 203.4766,22.2969 Q202.9844,23.0469 202.9844,24.0781 L202.9844,25.1719 Q202.9844,26.4063 203.875,27.2266 Q204.7656,28.0469 206.3594,28.0469 Q207.2969,28.0469 207.9531,27.7969 Q208.3438,27.6406 208.7656,27.2031 Q209.0313,26.9375 209.1797,26.8594 Q209.3281,26.7813 209.5313,26.7813 Q209.8594,26.7813 210.1172,27.0391 Q210.375,27.2969 210.375,27.6406 Q210.375,27.9844 210.0313,28.3906 Q209.5313,28.9688 208.7344,29.2969 Q207.6563,29.75 206.3594,29.75 Q204.8438,29.75 203.6406,29.125 Q202.6563,28.625 201.9688,27.5547 Q201.2813,26.4844 201.2813,25.2031 L201.2813,24.0469 Q201.2813,22.7188 201.8984,21.5703 Q202.5156,20.4219 203.6094,19.8047 Q204.7031,19.1875 205.9375,19.1875 Q206.6719,19.1875 207.3203,19.3516 Q207.9688,19.5156 208.5156,19.875 Z " /><text fill="#000000" font-family="sans-serif" font-size="12" lengthAdjust="spacingAndGlyphs" textLength="41" x="223.25" y="28.9102">Courier</text>
        <line style="stroke: #A80036; stroke-width: 1.5;" x1="176" x2="282" y1="40" y2="40" />
        <rect fill="none" height="6" style="stroke: #C82930; stroke-width: 1.0;" width="6" x="183" y="49.418" /><text fill="#000000" font-family="sans-serif" font-size="11" lengthAdjust="spacingAndGlyphs" textLength="57" x="195" y="55.4189">name String</text>
        <rect fill="none" height="6" style="stroke: #C82930; stroke-width: 1.0;" width="6" x="183" y="63.2539" /><text fill="#000000" font-family="sans-serif" font-size="11" lengthAdjust="spacingAndGlyphs" textLength="48" x="195" y="69.2549">nif Integer</text>
        <rect fill="none" height="6" style="stroke: #C82930; stroke-width: 1.0;" width="6" x="183" y="77.0898" /><text fill="#000000" font-family="sans-serif" font-size="11" lengthAdjust="spacingAndGlyphs" textLength="55" x="195" y="83.0908">email String</text>
        <rect fill="none" height="6" style="stroke: #C82930; stroke-width: 1.0;" width="6" x="183" y="90.9258" /><text fill="#000000" font-family="sans-serif" font-size="11" lengthAdjust="spacingAndGlyphs" textLength="82" x="195" y="96.9268">cellphone Integer</text>
        <rect fill="none" height="6" style="stroke: #C82930; stroke-width: 1.0;" width="6" x="183" y="104.7617" /><text fill="#000000" font-family="sans-serif" font-size="11" lengthAdjust="spacingAndGlyphs" textLength="45" x="195" y="110.7627">iban Strin</text>
        <!--class User-->
        <rect fill="#FEFECE" filter="url(#f1otukcc6unobh)" height="81.5078" id="User" style="stroke: #A80036; stroke-width: 1.5;" width="113" x="401" y="21.5" />
        <ellipse cx="440.3" cy="37.5" fill="#ADD1B2" rx="11" ry="11" style="stroke: #A80036; stroke-width: 1.0;" />
        <path d="M443.0656,33.375 Q443.2219,33.1563 443.4094,33.0469 Q443.5969,32.9375 443.8156,32.9375 Q444.1906,32.9375 444.425,33.1953 Q444.6594,33.4531 444.6594,34.0625 L444.6594,35.5156 Q444.6594,36.125 444.425,36.3906 Q444.1906,36.6563 443.8156,36.6563 Q443.4719,36.6563 443.2688,36.4531 Q443.0656,36.2656 442.9563,35.75 Q442.9094,35.3906 442.7219,35.2031 Q442.3938,34.8281 441.7844,34.6094 Q441.175,34.3906 440.55,34.3906 Q439.7844,34.3906 439.1516,34.7188 Q438.5188,35.0469 438.0266,35.7969 Q437.5344,36.5469 437.5344,37.5781 L437.5344,38.6719 Q437.5344,39.9063 438.425,40.7266 Q439.3156,41.5469 440.9094,41.5469 Q441.8469,41.5469 442.5031,41.2969 Q442.8938,41.1406 443.3156,40.7031 Q443.5813,40.4375 443.7297,40.3594 Q443.8781,40.2813 444.0813,40.2813 Q444.4094,40.2813 444.6672,40.5391 Q444.925,40.7969 444.925,41.1406 Q444.925,41.4844 444.5813,41.8906 Q444.0813,42.4688 443.2844,42.7969 Q442.2063,43.25 440.9094,43.25 Q439.3938,43.25 438.1906,42.625 Q437.2063,42.125 436.5188,41.0547 Q435.8313,39.9844 435.8313,38.7031 L435.8313,37.5469 Q435.8313,36.2188 436.4484,35.0703 Q437.0656,33.9219 438.1594,33.3047 Q439.2531,32.6875 440.4875,32.6875 Q441.2219,32.6875 441.8703,32.8516 Q442.5188,33.0156 443.0656,33.375 Z " /><text fill="#000000" font-family="sans-serif" font-size="12" lengthAdjust="spacingAndGlyphs" textLength="27" x="459.7" y="42.4102">User</text>
        <line style="stroke: #A80036; stroke-width: 1.5;" x1="402" x2="513" y1="53.5" y2="53.5" />
        <rect fill="none" height="6" style="stroke: #C82930; stroke-width: 1.0;" width="6" x="409" y="62.918" /><text fill="#000000" font-family="sans-serif" font-size="11" lengthAdjust="spacingAndGlyphs" textLength="57" x="421" y="68.9189">name String</text>
        <rect fill="none" height="6" style="stroke: #C82930; stroke-width: 1.0;" width="6" x="409" y="76.7539" /><text fill="#000000" font-family="sans-serif" font-size="11" lengthAdjust="spacingAndGlyphs" textLength="55" x="421" y="82.7549">email String</text>
        <rect fill="none" height="6" style="stroke: #C82930; stroke-width: 1.0;" width="6" x="409" y="90.5898" /><text fill="#000000" font-family="sans-serif" font-size="11" lengthAdjust="spacingAndGlyphs" textLength="87" x="421" y="96.5908">passsword String</text>
        <!--class System-->
        <rect fill="#FEFECE" filter="url(#f1otukcc6unobh)" height="40" id="System" style="stroke: #A80036; stroke-width: 1.5;" width="73" x="6" y="42.5" />
        <ellipse cx="21" cy="58.5" fill="#ADD1B2" rx="11" ry="11" style="stroke: #A80036; stroke-width: 1.0;" />
        <path d="M23.7656,54.375 Q23.9219,54.1563 24.1094,54.0469 Q24.2969,53.9375 24.5156,53.9375 Q24.8906,53.9375 25.125,54.1953 Q25.3594,54.4531 25.3594,55.0625 L25.3594,56.5156 Q25.3594,57.125 25.125,57.3906 Q24.8906,57.6563 24.5156,57.6563 Q24.1719,57.6563 23.9688,57.4531 Q23.7656,57.2656 23.6563,56.75 Q23.6094,56.3906 23.4219,56.2031 Q23.0938,55.8281 22.4844,55.6094 Q21.875,55.3906 21.25,55.3906 Q20.4844,55.3906 19.8516,55.7188 Q19.2188,56.0469 18.7266,56.7969 Q18.2344,57.5469 18.2344,58.5781 L18.2344,59.6719 Q18.2344,60.9063 19.125,61.7266 Q20.0156,62.5469 21.6094,62.5469 Q22.5469,62.5469 23.2031,62.2969 Q23.5938,62.1406 24.0156,61.7031 Q24.2813,61.4375 24.4297,61.3594 Q24.5781,61.2813 24.7813,61.2813 Q25.1094,61.2813 25.3672,61.5391 Q25.625,61.7969 25.625,62.1406 Q25.625,62.4844 25.2813,62.8906 Q24.7813,63.4688 23.9844,63.7969 Q22.9063,64.25 21.6094,64.25 Q20.0938,64.25 18.8906,63.625 Q17.9063,63.125 17.2188,62.0547 Q16.5313,60.9844 16.5313,59.7031 L16.5313,58.5469 Q16.5313,57.2188 17.1484,56.0703 Q17.7656,54.9219 18.8594,54.3047 Q19.9531,53.6875 21.1875,53.6875 Q21.9219,53.6875 22.5703,53.8516 Q23.2188,54.0156 23.7656,54.375 Z " /><text fill="#000000" font-family="sans-serif" font-size="12" lengthAdjust="spacingAndGlyphs" textLength="41" x="35" y="63.4102">System</text>
        <line style="stroke: #A80036; stroke-width: 1.5;" x1="7" x2="78" y1="74.5" y2="74.5" />
        <!--link System to Courier-->
        <path d="M79.07,62.5 C106.19,62.5 143.99,62.5 174.71,62.5 " fill="none" id="System-Courier" style="stroke: #A80036; stroke-width: 1.0;" /><text fill="#000000" font-family="sans-serif" font-size="13" lengthAdjust="spacingAndGlyphs" textLength="21" x="110" y="58.9951">has</text>
        <polygon fill="#000000" points="134,52.1758,140,55.1758,134,58.1758,134,52.1758" style="stroke: #000000; stroke-width: 1.0;" /><text fill="#000000" font-family="sans-serif" font-size="13" lengthAdjust="spacingAndGlyphs" textLength="7" x="86.9588" y="77.6047">1</text><text fill="#000000" font-family="sans-serif" font-size="13" lengthAdjust="spacingAndGlyphs" textLength="20" x="146.8747" y="76.9806">1..*</text>
        <!--link Courier to User-->
        <path d="M283.1,62.5 C318.54,62.5 365.04,62.5 400.97,62.5 " fill="none" id="Courier-User" style="stroke: #A80036; stroke-width: 1.0;" /><text fill="#000000" font-family="sans-serif" font-size="13" lengthAdjust="spacingAndGlyphs" textLength="43" x="314" y="58.9951">acts as</text>
        <polygon fill="#000000" points="360,52.1758,366,55.1758,360,58.1758,360,52.1758" style="stroke: #000000; stroke-width: 1.0;" /><text fill="#000000" font-family="sans-serif" font-size="13" lengthAdjust="spacingAndGlyphs" textLength="7" x="290.84" y="77.0817">1</text><text fill="#000000" font-family="sans-serif" font-size="13" lengthAdjust="spacingAndGlyphs" textLength="7" x="385.9035" y="77.1268">1</text>
        <!--
@startuml
hide methods
left to right direction

class Courier {
    -name String
    -nif Integer
    -email String
    -cellphone Integer
    -iban Strin
}

class User {
    -name String
    -email String
    -passsword String
}

class System {

}

System "1" - - "1..*" Courier: has >
Courier "1" - - "1" User: acts as >

@enduml

PlantUML version 1.2018.14(Fri Dec 21 16:33:16 GMT 2018)
(GPL source distribution)
Java Runtime: Java(TM) SE Runtime Environment
JVM: Java HotSpot(TM) 64-Bit Server VM
Java Version: 1.8.0_271-b09
Operating System: Windows 10
OS Version: 10.0
Default Encoding: Cp1252
Language: en
Country: US
-->
    </g>
</svg>