<?xml version="1.0" encoding="UTF-8" standalone="no"?><svg xmlns="http://www.w3.org/2000/svg" xmlns:xlink="http://www.w3.org/1999/xlink" contentScriptType="application/ecmascript" contentStyleType="text/css" height="276px" preserveAspectRatio="none" style="width:540px;height:276px;" version="1.1" viewBox="0 0 540 276" width="540px" zoomAndPan="magnify"><defs><filter height="300%" id="fbi8ymymgjkn7" width="300%" x="-1" y="-1"><feGaussianBlur result="blurOut" stdDeviation="2.0"/><feColorMatrix in="blurOut" result="blurOut2" type="matrix" values="0 0 0 0 0 0 0 0 0 0 0 0 0 0 0 0 0 0 .4 0"/><feOffset dx="4.0" dy="4.0" in="blurOut2" result="blurOut3"/><feBlend in="SourceGraphic" in2="blurOut3" mode="normal"/></filter></defs><g><!--MD5=[f845425eb3cde85d7ff70490670dea2c]
class CheckOrdersUI--><rect codeLine="4" fill="#FEFECE" filter="url(#fbi8ymymgjkn7)" height="48" id="CheckOrdersUI" style="stroke:#A80036;stroke-width:1.5;" width="117" x="7" y="111"/><ellipse cx="22" cy="127" fill="#ADD1B2" rx="11" ry="11" style="stroke:#A80036;stroke-width:1.0;"/><path d="M24,123.5 Q24.2031,123 24.4375,122.75 Q24.6719,122.5 24.9375,122.5 Q25.4063,122.5 25.7031,122.7813 Q26,123.0625 26,123.7188 L26,125.2813 Q26,125.9375 25.7188,126.2188 Q25.4375,126.5 25,126.5 Q24.6094,126.5 24.3594,126.3281 Q24.1094,126.1563 24,125.7031 Q23.9531,125.3906 23.7813,125.2188 Q23.4688,124.8906 22.9063,124.7031 Q22.3438,124.5 21.7813,124.5 Q21.0781,124.5 20.4844,124.7813 Q19.9063,125.0625 19.4531,125.6875 Q19,126.3125 19,127.1719 L19,128.0938 Q19,129.125 19.8438,129.8125 Q20.6875,130.5 22.1875,130.5 Q23.0781,130.5 23.7031,130.2969 Q24.0625,130.1875 24.4688,129.8281 Q24.7344,129.625 24.875,129.5625 Q25.0156,129.5 25.1875,129.5 Q25.5156,129.5 25.75,129.7656 Q26,130.0156 26,130.375 Q26,130.7188 25.6563,131.125 Q25.1563,131.7188 24.3594,132.0469 Q23.3125,132.5 22.0313,132.5 Q20.5313,132.5 19.3281,131.9063 Q18.3594,131.4375 17.6719,130.4219 Q17,129.4063 17,128.2031 L17,127.1094 Q17,125.8594 17.5938,124.7656 Q18.2031,123.6719 19.25,123.0938 Q20.3125,122.5 21.5,122.5 Q22.2188,122.5 22.8438,122.75 Q23.4688,123 24,123.5 Z " fill="#000000"/><text fill="#000000" font-family="sans-serif" font-size="12" lengthAdjust="spacingAndGlyphs" textLength="85" x="36" y="131.9102">CheckOrdersUI</text><line style="stroke:#A80036;stroke-width:1.5;" x1="8" x2="123" y1="143" y2="143"/><line style="stroke:#A80036;stroke-width:1.5;" x1="8" x2="123" y1="151" y2="151"/><!--MD5=[ba6a9fb951e24ac4be8d364e1b331bb9]
class CheckOrdersController--><rect codeLine="7" fill="#FEFECE" filter="url(#fbi8ymymgjkn7)" height="61.8359" id="CheckOrdersController" style="stroke:#A80036;stroke-width:1.5;" width="159" x="184" y="104"/><ellipse cx="199" cy="120" fill="#ADD1B2" rx="11" ry="11" style="stroke:#A80036;stroke-width:1.0;"/><path d="M201,116.5 Q201.2031,116 201.4375,115.75 Q201.6719,115.5 201.9375,115.5 Q202.4063,115.5 202.7031,115.7813 Q203,116.0625 203,116.7188 L203,118.2813 Q203,118.9375 202.7188,119.2188 Q202.4375,119.5 202,119.5 Q201.6094,119.5 201.3594,119.3281 Q201.1094,119.1563 201,118.7031 Q200.9531,118.3906 200.7813,118.2188 Q200.4688,117.8906 199.9063,117.7031 Q199.3438,117.5 198.7813,117.5 Q198.0781,117.5 197.4844,117.7813 Q196.9063,118.0625 196.4531,118.6875 Q196,119.3125 196,120.1719 L196,121.0938 Q196,122.125 196.8438,122.8125 Q197.6875,123.5 199.1875,123.5 Q200.0781,123.5 200.7031,123.2969 Q201.0625,123.1875 201.4688,122.8281 Q201.7344,122.625 201.875,122.5625 Q202.0156,122.5 202.1875,122.5 Q202.5156,122.5 202.75,122.7656 Q203,123.0156 203,123.375 Q203,123.7188 202.6563,124.125 Q202.1563,124.7188 201.3594,125.0469 Q200.3125,125.5 199.0313,125.5 Q197.5313,125.5 196.3281,124.9063 Q195.3594,124.4375 194.6719,123.4219 Q194,122.4063 194,121.2031 L194,120.1094 Q194,118.8594 194.5938,117.7656 Q195.2031,116.6719 196.25,116.0938 Q197.3125,115.5 198.5,115.5 Q199.2188,115.5 199.8438,115.75 Q200.4688,116 201,116.5 Z " fill="#000000"/><text fill="#000000" font-family="sans-serif" font-size="12" lengthAdjust="spacingAndGlyphs" textLength="127" x="213" y="124.9102">CheckOrdersController</text><line style="stroke:#A80036;stroke-width:1.5;" x1="185" x2="342" y1="136" y2="136"/><line style="stroke:#A80036;stroke-width:1.5;" x1="185" x2="342" y1="144" y2="144"/><ellipse cx="195" cy="155" fill="#84BE84" rx="3" ry="3" style="stroke:#038048;stroke-width:1.0;"/><text fill="#000000" font-family="sans-serif" font-size="11" lengthAdjust="spacingAndGlyphs" textLength="71" x="204" y="159.4189">checkOrders()</text><!--MD5=[0b4e4b4980470ea387cc45de9bd14b5b]
class Application--><rect codeLine="11" fill="#FEFECE" filter="url(#fbi8ymymgjkn7)" height="61.8359" id="Application" style="stroke:#A80036;stroke-width:1.5;" width="92" x="418.5" y="7"/><ellipse cx="433.5" cy="23" fill="#ADD1B2" rx="11" ry="11" style="stroke:#A80036;stroke-width:1.0;"/><path d="M435.5,19.5 Q435.7031,19 435.9375,18.75 Q436.1719,18.5 436.4375,18.5 Q436.9063,18.5 437.2031,18.7813 Q437.5,19.0625 437.5,19.7188 L437.5,21.2813 Q437.5,21.9375 437.2188,22.2188 Q436.9375,22.5 436.5,22.5 Q436.1094,22.5 435.8594,22.3281 Q435.6094,22.1563 435.5,21.7031 Q435.4531,21.3906 435.2813,21.2188 Q434.9688,20.8906 434.4063,20.7031 Q433.8438,20.5 433.2813,20.5 Q432.5781,20.5 431.9844,20.7813 Q431.4063,21.0625 430.9531,21.6875 Q430.5,22.3125 430.5,23.1719 L430.5,24.0938 Q430.5,25.125 431.3438,25.8125 Q432.1875,26.5 433.6875,26.5 Q434.5781,26.5 435.2031,26.2969 Q435.5625,26.1875 435.9688,25.8281 Q436.2344,25.625 436.375,25.5625 Q436.5156,25.5 436.6875,25.5 Q437.0156,25.5 437.25,25.7656 Q437.5,26.0156 437.5,26.375 Q437.5,26.7188 437.1563,27.125 Q436.6563,27.7188 435.8594,28.0469 Q434.8125,28.5 433.5313,28.5 Q432.0313,28.5 430.8281,27.9063 Q429.8594,27.4375 429.1719,26.4219 Q428.5,25.4063 428.5,24.2031 L428.5,23.1094 Q428.5,21.8594 429.0938,20.7656 Q429.7031,19.6719 430.75,19.0938 Q431.8125,18.5 433,18.5 Q433.7188,18.5 434.3438,18.75 Q434.9688,19 435.5,19.5 Z " fill="#000000"/><text fill="#000000" font-family="sans-serif" font-size="12" lengthAdjust="spacingAndGlyphs" textLength="60" x="447.5" y="27.9102">Application</text><line style="stroke:#A80036;stroke-width:1.5;" x1="419.5" x2="509.5" y1="39" y2="39"/><line style="stroke:#A80036;stroke-width:1.5;" x1="419.5" x2="509.5" y1="47" y2="47"/><ellipse cx="429.5" cy="58" fill="#84BE84" rx="3" ry="3" style="stroke:#038048;stroke-width:1.0;"/><text fill="#000000" font-family="sans-serif" font-size="11" lengthAdjust="spacingAndGlyphs" textLength="46" x="438.5" y="62.4189">getUser()</text><!--MD5=[3fd616f346a44cd59a91eb10b19e157c]
class User--><rect codeLine="15" fill="#FEFECE" filter="url(#fbi8ymymgjkn7)" height="61.8359" id="User" style="stroke:#A80036;stroke-width:1.5;" width="123" x="403" y="104"/><ellipse cx="446.8" cy="120" fill="#ADD1B2" rx="11" ry="11" style="stroke:#A80036;stroke-width:1.0;"/><path d="M448.8,116.5 Q449.0031,116 449.2375,115.75 Q449.4719,115.5 449.7375,115.5 Q450.2063,115.5 450.5031,115.7813 Q450.8,116.0625 450.8,116.7188 L450.8,118.2813 Q450.8,118.9375 450.5188,119.2188 Q450.2375,119.5 449.8,119.5 Q449.4094,119.5 449.1594,119.3281 Q448.9094,119.1563 448.8,118.7031 Q448.7531,118.3906 448.5813,118.2188 Q448.2688,117.8906 447.7063,117.7031 Q447.1438,117.5 446.5813,117.5 Q445.8781,117.5 445.2844,117.7813 Q444.7063,118.0625 444.2531,118.6875 Q443.8,119.3125 443.8,120.1719 L443.8,121.0938 Q443.8,122.125 444.6438,122.8125 Q445.4875,123.5 446.9875,123.5 Q447.8781,123.5 448.5031,123.2969 Q448.8625,123.1875 449.2688,122.8281 Q449.5344,122.625 449.675,122.5625 Q449.8156,122.5 449.9875,122.5 Q450.3156,122.5 450.55,122.7656 Q450.8,123.0156 450.8,123.375 Q450.8,123.7188 450.4563,124.125 Q449.9563,124.7188 449.1594,125.0469 Q448.1125,125.5 446.8313,125.5 Q445.3313,125.5 444.1281,124.9063 Q443.1594,124.4375 442.4719,123.4219 Q441.8,122.4063 441.8,121.2031 L441.8,120.1094 Q441.8,118.8594 442.3938,117.7656 Q443.0031,116.6719 444.05,116.0938 Q445.1125,115.5 446.3,115.5 Q447.0188,115.5 447.6438,115.75 Q448.2688,116 448.8,116.5 Z " fill="#000000"/><text fill="#000000" font-family="sans-serif" font-size="12" lengthAdjust="spacingAndGlyphs" textLength="27" x="467.2" y="124.9102">User</text><line style="stroke:#A80036;stroke-width:1.5;" x1="404" x2="525" y1="136" y2="136"/><line style="stroke:#A80036;stroke-width:1.5;" x1="404" x2="525" y1="144" y2="144"/><ellipse cx="414" cy="155" fill="#84BE84" rx="3" ry="3" style="stroke:#038048;stroke-width:1.0;"/><text fill="#000000" font-family="sans-serif" font-size="11" lengthAdjust="spacingAndGlyphs" textLength="97" x="423" y="159.4189">getClient(User user)</text><!--MD5=[ed6624c6556d5e7b1bd23032162d20b7]
class Client--><rect codeLine="19" fill="#FEFECE" filter="url(#fbi8ymymgjkn7)" height="61.8359" id="Client" style="stroke:#A80036;stroke-width:1.5;" width="83" x="423" y="201"/><ellipse cx="446.55" cy="217" fill="#ADD1B2" rx="11" ry="11" style="stroke:#A80036;stroke-width:1.0;"/><path d="M448.55,213.5 Q448.7531,213 448.9875,212.75 Q449.2219,212.5 449.4875,212.5 Q449.9563,212.5 450.2531,212.7813 Q450.55,213.0625 450.55,213.7188 L450.55,215.2813 Q450.55,215.9375 450.2688,216.2188 Q449.9875,216.5 449.55,216.5 Q449.1594,216.5 448.9094,216.3281 Q448.6594,216.1563 448.55,215.7031 Q448.5031,215.3906 448.3313,215.2188 Q448.0188,214.8906 447.4563,214.7031 Q446.8938,214.5 446.3313,214.5 Q445.6281,214.5 445.0344,214.7813 Q444.4563,215.0625 444.0031,215.6875 Q443.55,216.3125 443.55,217.1719 L443.55,218.0938 Q443.55,219.125 444.3938,219.8125 Q445.2375,220.5 446.7375,220.5 Q447.6281,220.5 448.2531,220.2969 Q448.6125,220.1875 449.0188,219.8281 Q449.2844,219.625 449.425,219.5625 Q449.5656,219.5 449.7375,219.5 Q450.0656,219.5 450.3,219.7656 Q450.55,220.0156 450.55,220.375 Q450.55,220.7188 450.2063,221.125 Q449.7063,221.7188 448.9094,222.0469 Q447.8625,222.5 446.5813,222.5 Q445.0813,222.5 443.8781,221.9063 Q442.9094,221.4375 442.2219,220.4219 Q441.55,219.4063 441.55,218.2031 L441.55,217.1094 Q441.55,215.8594 442.1438,214.7656 Q442.7531,213.6719 443.8,213.0938 Q444.8625,212.5 446.05,212.5 Q446.7688,212.5 447.3938,212.75 Q448.0188,213 448.55,213.5 Z " fill="#000000"/><text fill="#000000" font-family="sans-serif" font-size="12" lengthAdjust="spacingAndGlyphs" textLength="32" x="462.45" y="221.9102">Client</text><line style="stroke:#A80036;stroke-width:1.5;" x1="424" x2="505" y1="233" y2="233"/><line style="stroke:#A80036;stroke-width:1.5;" x1="424" x2="505" y1="241" y2="241"/><ellipse cx="434" cy="252" fill="#84BE84" rx="3" ry="3" style="stroke:#038048;stroke-width:1.0;"/><text fill="#000000" font-family="sans-serif" font-size="11" lengthAdjust="spacingAndGlyphs" textLength="57" x="443" y="256.4189">getOrders()</text><!--MD5=[1a790c3c66c12386e36f32bce031c07e]
link CheckOrdersUI to CheckOrdersController--><path codeLine="23" d="M124.25,135 C141.28,135 160.27,135 178.59,135 " fill="none" id="CheckOrdersUI-to-CheckOrdersController" style="stroke:#A80036;stroke-width:1.0;stroke-dasharray:7.0,7.0;"/><polygon fill="#A80036" points="183.74,135,174.74,131,178.74,135,174.74,139,183.74,135" style="stroke:#A80036;stroke-width:1.0;"/><!--MD5=[9c161e80a7a3914c1f837149b7b2bb53]
link CheckOrdersController to Application--><path codeLine="24" d="M328.29,103.91 C355.9,90.45 387.74,74.93 413.59,62.33 " fill="none" id="CheckOrdersController-to-Application" style="stroke:#A80036;stroke-width:1.0;stroke-dasharray:7.0,7.0;"/><polygon fill="#A80036" points="418.34,60.01,408.4968,60.3441,413.8425,62.1945,411.992,67.5402,418.34,60.01" style="stroke:#A80036;stroke-width:1.0;"/><!--MD5=[192b78cff8cc04fd2bdd49e573589e6a]
link CheckOrdersController to User--><path codeLine="25" d="M343.15,135 C361.17,135 380.14,135 397.56,135 " fill="none" id="CheckOrdersController-to-User" style="stroke:#A80036;stroke-width:1.0;stroke-dasharray:7.0,7.0;"/><polygon fill="#A80036" points="402.91,135,393.91,131,397.91,135,393.91,139,402.91,135" style="stroke:#A80036;stroke-width:1.0;"/><!--MD5=[482e94d189fb9dfc540b9db2b942859c]
link CheckOrdersController to Client--><path codeLine="26" d="M328.29,166.09 C357.62,180.39 391.74,197.02 418.36,210 " fill="none" id="CheckOrdersController-to-Client" style="stroke:#A80036;stroke-width:1.0;stroke-dasharray:7.0,7.0;"/><polygon fill="#A80036" points="422.91,212.21,416.5909,204.6556,418.4208,210.0083,413.0682,211.8383,422.91,212.21" style="stroke:#A80036;stroke-width:1.0;"/><!--MD5=[19360eaf8cb2da6174f39f8dea3a80be]
@startuml

left to right direction

class CheckOrdersUI {
}

class CheckOrdersController {
    +checkOrders()
}

class Application {
    +getUser()
}

class User {
    +getClient(User user)
}

class Client {
    +getOrders()
}

CheckOrdersUI ..> CheckOrdersController
CheckOrdersController ..> Application
CheckOrdersController ..> User
CheckOrdersController ..> Client

@enduml

PlantUML version 1.2020.23(Sun Dec 13 19:14:58 GMT 2020)
(GPL source distribution)
Java Runtime: OpenJDK Runtime Environment
JVM: OpenJDK 64-Bit Server VM
Default Encoding: Cp1252
Language: pt
Country: PT
--></g></svg>