<?xml version="1.0" encoding="UTF-8" standalone="no"?><svg xmlns="http://www.w3.org/2000/svg" xmlns:xlink="http://www.w3.org/1999/xlink" contentScriptType="application/ecmascript" contentStyleType="text/css" height="76.25px" preserveAspectRatio="none" style="width:885px;height:76px;" version="1.1" viewBox="0 0 885 76" width="885px" zoomAndPan="magnify"><defs><filter height="300%" id="f1knf3gpmf0zrn" width="300%" x="-1" y="-1"><feGaussianBlur result="blurOut" stdDeviation="2.5"/><feColorMatrix in="blurOut" result="blurOut2" type="matrix" values="0 0 0 0 0 0 0 0 0 0 0 0 0 0 0 0 0 0 .4 0"/><feOffset dx="5.0" dy="5.0" in="blurOut2" result="blurOut3"/><feBlend in="SourceGraphic" in2="blurOut3" mode="normal"/></filter></defs><g><!--MD5=[99b8db98afdc2c8404e39242ef4c1e65]
class Platform--><rect codeLine="4" fill="#FEFECE" filter="url(#f1knf3gpmf0zrn)" height="50" id="Platform" style="stroke:#A80036;stroke-width:1.875;" width="97.5" x="8.75" y="8.75"/><ellipse cx="27.5" cy="28.75" fill="#ADD1B2" rx="13.75" ry="13.75" style="stroke:#A80036;stroke-width:1.25;"/><path d="M30,24.375 Q30.2539,23.75 30.5469,23.4375 Q30.8398,23.125 31.1719,23.125 Q31.7578,23.125 32.1289,23.4766 Q32.5,23.8281 32.5,24.6484 L32.5,26.6016 Q32.5,27.4219 32.1484,27.7734 Q31.7969,28.125 31.25,28.125 Q30.7617,28.125 30.4492,27.9102 Q30.1367,27.6953 30,27.1289 Q29.9414,26.7383 29.7266,26.5234 Q29.3359,26.1133 28.6328,25.8789 Q27.9297,25.625 27.2266,25.625 Q26.3477,25.625 25.6055,25.9766 Q24.8828,26.3281 24.3164,27.1094 Q23.75,27.8906 23.75,28.9648 L23.75,30.1172 Q23.75,31.4063 24.8047,32.2656 Q25.8594,33.125 27.7344,33.125 Q28.8477,33.125 29.6289,32.8711 Q30.0781,32.7344 30.5859,32.2852 Q30.918,32.0313 31.0938,31.9531 Q31.2695,31.875 31.4844,31.875 Q31.8945,31.875 32.1875,32.207 Q32.5,32.5195 32.5,32.9688 Q32.5,33.3984 32.0703,33.9063 Q31.4453,34.6484 30.4492,35.0586 Q29.1406,35.625 27.5391,35.625 Q25.6641,35.625 24.1602,34.8828 Q22.9492,34.2969 22.0898,33.0273 Q21.25,31.7578 21.25,30.2539 L21.25,28.8867 Q21.25,27.3242 21.9922,25.957 Q22.7539,24.5898 24.0625,23.8672 Q25.3906,23.125 26.875,23.125 Q27.7734,23.125 28.5547,23.4375 Q29.3359,23.75 30,24.375 Z " fill="#000000"/><text fill="#000000" font-family="sans-serif" font-size="15" lengthAdjust="spacingAndGlyphs" textLength="57.5" x="45" y="34.8877">Platform</text><line style="stroke:#A80036;stroke-width:1.875;" x1="10" x2="105" y1="48.75" y2="48.75"/><!--MD5=[7f2a9fafcebe4f099f71398fd3e2ed00]
class Pharmacy--><rect codeLine="8" fill="#FEFECE" filter="url(#f1knf3gpmf0zrn)" height="50" id="Pharmacy" style="stroke:#A80036;stroke-width:1.875;" width="108.75" x="226.25" y="8.75"/><ellipse cx="245" cy="28.75" fill="#ADD1B2" rx="13.75" ry="13.75" style="stroke:#A80036;stroke-width:1.25;"/><path d="M247.5,24.375 Q247.7539,23.75 248.0469,23.4375 Q248.3398,23.125 248.6719,23.125 Q249.2578,23.125 249.6289,23.4766 Q250,23.8281 250,24.6484 L250,26.6016 Q250,27.4219 249.6484,27.7734 Q249.2969,28.125 248.75,28.125 Q248.2617,28.125 247.9492,27.9102 Q247.6367,27.6953 247.5,27.1289 Q247.4414,26.7383 247.2266,26.5234 Q246.8359,26.1133 246.1328,25.8789 Q245.4297,25.625 244.7266,25.625 Q243.8477,25.625 243.1055,25.9766 Q242.3828,26.3281 241.8164,27.1094 Q241.25,27.8906 241.25,28.9648 L241.25,30.1172 Q241.25,31.4063 242.3047,32.2656 Q243.3594,33.125 245.2344,33.125 Q246.3477,33.125 247.1289,32.8711 Q247.5781,32.7344 248.0859,32.2852 Q248.418,32.0313 248.5938,31.9531 Q248.7695,31.875 248.9844,31.875 Q249.3945,31.875 249.6875,32.207 Q250,32.5195 250,32.9688 Q250,33.3984 249.5703,33.9063 Q248.9453,34.6484 247.9492,35.0586 Q246.6406,35.625 245.0391,35.625 Q243.1641,35.625 241.6602,34.8828 Q240.4492,34.2969 239.5898,33.0273 Q238.75,31.7578 238.75,30.2539 L238.75,28.8867 Q238.75,27.3242 239.4922,25.957 Q240.2539,24.5898 241.5625,23.8672 Q242.8906,23.125 244.375,23.125 Q245.2734,23.125 246.0547,23.4375 Q246.8359,23.75 247.5,24.375 Z " fill="#000000"/><text fill="#000000" font-family="sans-serif" font-size="15" lengthAdjust="spacingAndGlyphs" textLength="68.75" x="262.5" y="34.8877">Pharmacy</text><line style="stroke:#A80036;stroke-width:1.875;" x1="227.5" x2="333.75" y1="48.75" y2="48.75"/><!--MD5=[a01b503145899e5d23caaca712cd658e]
class PharmacyAdministrator--><rect codeLine="12" fill="#FEFECE" filter="url(#f1knf3gpmf0zrn)" height="50" id="PharmacyAdministrator" style="stroke:#A80036;stroke-width:1.875;" width="200" x="455" y="8.75"/><ellipse cx="473.75" cy="28.75" fill="#ADD1B2" rx="13.75" ry="13.75" style="stroke:#A80036;stroke-width:1.25;"/><path d="M476.25,24.375 Q476.5039,23.75 476.7969,23.4375 Q477.0898,23.125 477.4219,23.125 Q478.0078,23.125 478.3789,23.4766 Q478.75,23.8281 478.75,24.6484 L478.75,26.6016 Q478.75,27.4219 478.3984,27.7734 Q478.0469,28.125 477.5,28.125 Q477.0117,28.125 476.6992,27.9102 Q476.3867,27.6953 476.25,27.1289 Q476.1914,26.7383 475.9766,26.5234 Q475.5859,26.1133 474.8828,25.8789 Q474.1797,25.625 473.4766,25.625 Q472.5977,25.625 471.8555,25.9766 Q471.1328,26.3281 470.5664,27.1094 Q470,27.8906 470,28.9648 L470,30.1172 Q470,31.4063 471.0547,32.2656 Q472.1094,33.125 473.9844,33.125 Q475.0977,33.125 475.8789,32.8711 Q476.3281,32.7344 476.8359,32.2852 Q477.168,32.0313 477.3438,31.9531 Q477.5195,31.875 477.7344,31.875 Q478.1445,31.875 478.4375,32.207 Q478.75,32.5195 478.75,32.9688 Q478.75,33.3984 478.3203,33.9063 Q477.6953,34.6484 476.6992,35.0586 Q475.3906,35.625 473.7891,35.625 Q471.9141,35.625 470.4102,34.8828 Q469.1992,34.2969 468.3398,33.0273 Q467.5,31.7578 467.5,30.2539 L467.5,28.8867 Q467.5,27.3242 468.2422,25.957 Q469.0039,24.5898 470.3125,23.8672 Q471.6406,23.125 473.125,23.125 Q474.0234,23.125 474.8047,23.4375 Q475.5859,23.75 476.25,24.375 Z " fill="#000000"/><text fill="#000000" font-family="sans-serif" font-size="15" lengthAdjust="spacingAndGlyphs" textLength="160" x="491.25" y="34.8877">PharmacyAdministrator</text><line style="stroke:#A80036;stroke-width:1.875;" x1="456.25" x2="653.75" y1="48.75" y2="48.75"/><!--MD5=[3fd616f346a44cd59a91eb10b19e157c]
class User--><rect codeLine="16" fill="#FEFECE" filter="url(#f1knf3gpmf0zrn)" height="50" id="User" style="stroke:#A80036;stroke-width:1.875;" width="73.75" x="793.75" y="8.75"/><ellipse cx="812.5" cy="28.75" fill="#ADD1B2" rx="13.75" ry="13.75" style="stroke:#A80036;stroke-width:1.25;"/><path d="M815,24.375 Q815.2539,23.75 815.5469,23.4375 Q815.8398,23.125 816.1719,23.125 Q816.7578,23.125 817.1289,23.4766 Q817.5,23.8281 817.5,24.6484 L817.5,26.6016 Q817.5,27.4219 817.1484,27.7734 Q816.7969,28.125 816.25,28.125 Q815.7617,28.125 815.4492,27.9102 Q815.1367,27.6953 815,27.1289 Q814.9414,26.7383 814.7266,26.5234 Q814.3359,26.1133 813.6328,25.8789 Q812.9297,25.625 812.2266,25.625 Q811.3477,25.625 810.6055,25.9766 Q809.8828,26.3281 809.3164,27.1094 Q808.75,27.8906 808.75,28.9648 L808.75,30.1172 Q808.75,31.4063 809.8047,32.2656 Q810.8594,33.125 812.7344,33.125 Q813.8477,33.125 814.6289,32.8711 Q815.0781,32.7344 815.5859,32.2852 Q815.918,32.0313 816.0938,31.9531 Q816.2695,31.875 816.4844,31.875 Q816.8945,31.875 817.1875,32.207 Q817.5,32.5195 817.5,32.9688 Q817.5,33.3984 817.0703,33.9063 Q816.4453,34.6484 815.4492,35.0586 Q814.1406,35.625 812.5391,35.625 Q810.6641,35.625 809.1602,34.8828 Q807.9492,34.2969 807.0898,33.0273 Q806.25,31.7578 806.25,30.2539 L806.25,28.8867 Q806.25,27.3242 806.9922,25.957 Q807.7539,24.5898 809.0625,23.8672 Q810.3906,23.125 811.875,23.125 Q812.7734,23.125 813.5547,23.4375 Q814.3359,23.75 815,24.375 Z " fill="#000000"/><text fill="#000000" font-family="sans-serif" font-size="15" lengthAdjust="spacingAndGlyphs" textLength="33.75" x="830" y="34.8877">User</text><line style="stroke:#A80036;stroke-width:1.875;" x1="795" x2="866.25" y1="48.75" y2="48.75"/><!--MD5=[4a07f137c208f82f57837154e1cfa51e]
link Platform to Pharmacy--><path codeLine="18" d="M106.625,33.75 C141.85,33.75 189.7625,33.75 226.1875,33.75 " fill="none" id="Platform-Pharmacy" style="stroke:#A80036;stroke-width:1.25;"/><polygon fill="#000000" points="156.25,22.7197,144.9436,19.0461,144.9436,26.3934,156.25,22.7197" style="stroke:#000000;stroke-width:1.25;"/><text fill="#000000" font-family="sans-serif" font-size="16.25" lengthAdjust="spacingAndGlyphs" textLength="26.25" x="161.25" y="29.3689">has</text><text fill="#000000" font-family="sans-serif" font-size="16.25" lengthAdjust="spacingAndGlyphs" textLength="8.75" x="116.1547" y="52.4393">1</text><text fill="#000000" font-family="sans-serif" font-size="16.25" lengthAdjust="spacingAndGlyphs" textLength="8.75" x="207.3291" y="52.3754">1</text><!--MD5=[a18cfdad04c7be13fb59f75d9feaec92]
link Pharmacy to PharmacyAdministrator--><path codeLine="20" d="M335.2625,33.75 C369.2875,33.75 414.4125,33.75 454.8125,33.75 " fill="none" id="Pharmacy-PharmacyAdministrator" style="stroke:#A80036;stroke-width:1.25;"/><polygon fill="#000000" points="385,22.7197,373.6936,19.0461,373.6936,26.3934,385,22.7197" style="stroke:#000000;stroke-width:1.25;"/><text fill="#000000" font-family="sans-serif" font-size="16.25" lengthAdjust="spacingAndGlyphs" textLength="26.25" x="390" y="29.3689">has</text><text fill="#000000" font-family="sans-serif" font-size="16.25" lengthAdjust="spacingAndGlyphs" textLength="8.75" x="345.0364" y="52.3115">1</text><text fill="#000000" font-family="sans-serif" font-size="16.25" lengthAdjust="spacingAndGlyphs" textLength="8.75" x="436.0964" y="51.593">1</text><!--MD5=[f71d8d095c1446b5dd9775b4d7cced09]
link PharmacyAdministrator to User--><path codeLine="22" d="M655.2375,33.75 C703.4875,33.75 758.5125,33.75 793.5625,33.75 " fill="none" id="PharmacyAdministrator-User" style="stroke:#A80036;stroke-width:1.25;"/><polygon fill="#000000" points="705,22.7197,693.6936,19.0461,693.6936,26.3934,705,22.7197" style="stroke:#000000;stroke-width:1.25;"/><text fill="#000000" font-family="sans-serif" font-size="16.25" lengthAdjust="spacingAndGlyphs" textLength="45" x="710" y="29.3689">act as</text><text fill="#000000" font-family="sans-serif" font-size="16.25" lengthAdjust="spacingAndGlyphs" textLength="8.75" x="664.8815" y="51.561">1</text><text fill="#000000" font-family="sans-serif" font-size="16.25" lengthAdjust="spacingAndGlyphs" textLength="8.75" x="775.2301" y="52.9822">1</text><!--MD5=[69412afc47c1c02ce6baea8b800b3f76]
@startuml
hide methods
left to right direction

class Platform {

}

class Pharmacy {

}

class PharmacyAdministrator {

}

class User {}

Platform "1" - - "1" Pharmacy: has >

Pharmacy "1" - - "1" PharmacyAdministrator: has >

PharmacyAdministrator "1" - - "1" User: act as >

@enduml

PlantUML version 1.2020.23(Sun Dec 13 19:14:58 GMT 2020)
(GPL source distribution)
Java Runtime: OpenJDK Runtime Environment
JVM: OpenJDK 64-Bit Server VM
Default Encoding: Cp1252
Language: pt
Country: PT
--></g></svg>