<?xml version="1.0" encoding="UTF-8" standalone="no"?><svg xmlns="http://www.w3.org/2000/svg" xmlns:xlink="http://www.w3.org/1999/xlink" contentScriptType="application/ecmascript" contentStyleType="text/css" height="274px" preserveAspectRatio="none" style="width:1178px;height:274px;" version="1.1" viewBox="0 0 1178 274" width="1178px" zoomAndPan="magnify">
    <defs>
        <filter height="300%" id="f1sbirhakdvdps" width="300%" x="-1" y="-1">
            <feGaussianBlur result="blurOut" stdDeviation="2.0" />
            <feColorMatrix in="blurOut" result="blurOut2" type="matrix" values="0 0 0 0 0 0 0 0 0 0 0 0 0 0 0 0 0 0 .4 0" />
            <feOffset dx="4.0" dy="4.0" in="blurOut2" result="blurOut3" />
            <feBlend in="SourceGraphic" in2="blurOut3" mode="normal" />
        </filter>
    </defs>
    <g>
        <!--MD5=[2c5e5efa3ca0661a5ff10beb560c647a]
class MakeOrderUI-->
        <rect codeLine="4" fill="#FEFECE" filter="url(#f1sbirhakdvdps)" height="48" id="MakeOrderUI" style="stroke:#A80036;stroke-width:1.5;" width="104" x="7" y="55" />
        <ellipse cx="22" cy="71" fill="#ADD1B2" rx="11" ry="11" style="stroke:#A80036;stroke-width:1.0;" />
        <path d="M24.7656,66.875 Q24.9219,66.6563 25.1094,66.5469 Q25.2969,66.4375 25.5156,66.4375 Q25.8906,66.4375 26.125,66.6953 Q26.3594,66.9531 26.3594,67.5625 L26.3594,69.0156 Q26.3594,69.625 26.125,69.8906 Q25.8906,70.1563 25.5156,70.1563 Q25.1719,70.1563 24.9688,69.9531 Q24.7656,69.7656 24.6563,69.25 Q24.6094,68.8906 24.4219,68.7031 Q24.0938,68.3281 23.4844,68.1094 Q22.875,67.8906 22.25,67.8906 Q21.4844,67.8906 20.8516,68.2188 Q20.2188,68.5469 19.7266,69.2969 Q19.2344,70.0469 19.2344,71.0781 L19.2344,72.1719 Q19.2344,73.4063 20.125,74.2266 Q21.0156,75.0469 22.6094,75.0469 Q23.5469,75.0469 24.2031,74.7969 Q24.5938,74.6406 25.0156,74.2031 Q25.2813,73.9375 25.4297,73.8594 Q25.5781,73.7813 25.7813,73.7813 Q26.1094,73.7813 26.3672,74.0391 Q26.625,74.2969 26.625,74.6406 Q26.625,74.9844 26.2813,75.3906 Q25.7813,75.9688 24.9844,76.2969 Q23.9063,76.75 22.6094,76.75 Q21.0938,76.75 19.8906,76.125 Q18.9063,75.625 18.2188,74.5547 Q17.5313,73.4844 17.5313,72.2031 L17.5313,71.0469 Q17.5313,69.7188 18.1484,68.5703 Q18.7656,67.4219 19.8594,66.8047 Q20.9531,66.1875 22.1875,66.1875 Q22.9219,66.1875 23.5703,66.3516 Q24.2188,66.5156 24.7656,66.875 Z " fill="#000000" /><text fill="#000000" font-family="sans-serif" font-size="12" lengthAdjust="spacingAndGlyphs" textLength="72" x="36" y="75.9102">MakeOrderUI</text>
        <line style="stroke:#A80036;stroke-width:1.5;" x1="8" x2="110" y1="87" y2="87" />
        <line style="stroke:#A80036;stroke-width:1.5;" x1="8" x2="110" y1="95" y2="95" />
        <!--MD5=[091d148ff9c380026bdd608396644042]
class MakeOrderController-->
        <rect codeLine="7" fill="#FEFECE" filter="url(#f1sbirhakdvdps)" height="89.5078" id="MakeOrderController" style="stroke:#A80036;stroke-width:1.5;" width="146" x="172" y="34" />
        <ellipse cx="187" cy="50" fill="#ADD1B2" rx="11" ry="11" style="stroke:#A80036;stroke-width:1.0;" />
        <path d="M189.7656,45.875 Q189.9219,45.6563 190.1094,45.5469 Q190.2969,45.4375 190.5156,45.4375 Q190.8906,45.4375 191.125,45.6953 Q191.3594,45.9531 191.3594,46.5625 L191.3594,48.0156 Q191.3594,48.625 191.125,48.8906 Q190.8906,49.1563 190.5156,49.1563 Q190.1719,49.1563 189.9688,48.9531 Q189.7656,48.7656 189.6563,48.25 Q189.6094,47.8906 189.4219,47.7031 Q189.0938,47.3281 188.4844,47.1094 Q187.875,46.8906 187.25,46.8906 Q186.4844,46.8906 185.8516,47.2188 Q185.2188,47.5469 184.7266,48.2969 Q184.2344,49.0469 184.2344,50.0781 L184.2344,51.1719 Q184.2344,52.4063 185.125,53.2266 Q186.0156,54.0469 187.6094,54.0469 Q188.5469,54.0469 189.2031,53.7969 Q189.5938,53.6406 190.0156,53.2031 Q190.2813,52.9375 190.4297,52.8594 Q190.5781,52.7813 190.7813,52.7813 Q191.1094,52.7813 191.3672,53.0391 Q191.625,53.2969 191.625,53.6406 Q191.625,53.9844 191.2813,54.3906 Q190.7813,54.9688 189.9844,55.2969 Q188.9063,55.75 187.6094,55.75 Q186.0938,55.75 184.8906,55.125 Q183.9063,54.625 183.2188,53.5547 Q182.5313,52.4844 182.5313,51.2031 L182.5313,50.0469 Q182.5313,48.7188 183.1484,47.5703 Q183.7656,46.4219 184.8594,45.8047 Q185.9531,45.1875 187.1875,45.1875 Q187.9219,45.1875 188.5703,45.3516 Q189.2188,45.5156 189.7656,45.875 Z " fill="#000000" /><text fill="#000000" font-family="sans-serif" font-size="12" lengthAdjust="spacingAndGlyphs" textLength="114" x="201" y="54.9102">MakeOrderController</text>
        <line style="stroke:#A80036;stroke-width:1.5;" x1="173" x2="317" y1="66" y2="66" />
        <line style="stroke:#A80036;stroke-width:1.5;" x1="173" x2="317" y1="74" y2="74" /><text fill="#000000" font-family="sans-serif" font-size="11" lengthAdjust="spacingAndGlyphs" textLength="71" x="178" y="89.4189">getCatalogue()</text><text fill="#000000" font-family="sans-serif" font-size="11" lengthAdjust="spacingAndGlyphs" textLength="133" x="178" y="103.2549">makeOrder(desiredItemList)</text><text fill="#000000" font-family="sans-serif" font-size="11" lengthAdjust="spacingAndGlyphs" textLength="60" x="178" y="117.0908">saveOrder()</text>
        <!--MD5=[f8e092794d52bf9a252466252ae7bd1c]
class System-->
        <rect codeLine="13" fill="#FEFECE" filter="url(#f1sbirhakdvdps)" height="61.8359" id="System" style="stroke:#A80036;stroke-width:1.5;" width="83" x="379" y="111" />
        <ellipse cx="398.5" cy="127" fill="#ADD1B2" rx="11" ry="11" style="stroke:#A80036;stroke-width:1.0;" />
        <path d="M401.2656,122.875 Q401.4219,122.6563 401.6094,122.5469 Q401.7969,122.4375 402.0156,122.4375 Q402.3906,122.4375 402.625,122.6953 Q402.8594,122.9531 402.8594,123.5625 L402.8594,125.0156 Q402.8594,125.625 402.625,125.8906 Q402.3906,126.1563 402.0156,126.1563 Q401.6719,126.1563 401.4688,125.9531 Q401.2656,125.7656 401.1563,125.25 Q401.1094,124.8906 400.9219,124.7031 Q400.5938,124.3281 399.9844,124.1094 Q399.375,123.8906 398.75,123.8906 Q397.9844,123.8906 397.3516,124.2188 Q396.7188,124.5469 396.2266,125.2969 Q395.7344,126.0469 395.7344,127.0781 L395.7344,128.1719 Q395.7344,129.4063 396.625,130.2266 Q397.5156,131.0469 399.1094,131.0469 Q400.0469,131.0469 400.7031,130.7969 Q401.0938,130.6406 401.5156,130.2031 Q401.7813,129.9375 401.9297,129.8594 Q402.0781,129.7813 402.2813,129.7813 Q402.6094,129.7813 402.8672,130.0391 Q403.125,130.2969 403.125,130.6406 Q403.125,130.9844 402.7813,131.3906 Q402.2813,131.9688 401.4844,132.2969 Q400.4063,132.75 399.1094,132.75 Q397.5938,132.75 396.3906,132.125 Q395.4063,131.625 394.7188,130.5547 Q394.0313,129.4844 394.0313,128.2031 L394.0313,127.0469 Q394.0313,125.7188 394.6484,124.5703 Q395.2656,123.4219 396.3594,122.8047 Q397.4531,122.1875 398.6875,122.1875 Q399.4219,122.1875 400.0703,122.3516 Q400.7188,122.5156 401.2656,122.875 Z " fill="#000000" /><text fill="#000000" font-family="sans-serif" font-size="12" lengthAdjust="spacingAndGlyphs" textLength="41" x="413.5" y="131.9102">System</text>
        <line style="stroke:#A80036;stroke-width:1.5;" x1="380" x2="461" y1="143" y2="143" />
        <line style="stroke:#A80036;stroke-width:1.5;" x1="380" x2="461" y1="151" y2="151" /><text fill="#000000" font-family="sans-serif" font-size="11" lengthAdjust="spacingAndGlyphs" textLength="71" x="385" y="166.4189">getCatalogue()</text>
        <!--MD5=[cf4d6237fcae255cd2e1656cf84a30e2]
class Order-->
        <rect codeLine="17" fill="#FEFECE" filter="url(#f1sbirhakdvdps)" height="89.5078" id="Order" style="stroke:#A80036;stroke-width:1.5;" width="193" x="832" y="7" />
        <ellipse cx="908.75" cy="23" fill="#ADD1B2" rx="11" ry="11" style="stroke:#A80036;stroke-width:1.0;" />
        <path d="M911.5156,18.875 Q911.6719,18.6563 911.8594,18.5469 Q912.0469,18.4375 912.2656,18.4375 Q912.6406,18.4375 912.875,18.6953 Q913.1094,18.9531 913.1094,19.5625 L913.1094,21.0156 Q913.1094,21.625 912.875,21.8906 Q912.6406,22.1563 912.2656,22.1563 Q911.9219,22.1563 911.7188,21.9531 Q911.5156,21.7656 911.4063,21.25 Q911.3594,20.8906 911.1719,20.7031 Q910.8438,20.3281 910.2344,20.1094 Q909.625,19.8906 909,19.8906 Q908.2344,19.8906 907.6016,20.2188 Q906.9688,20.5469 906.4766,21.2969 Q905.9844,22.0469 905.9844,23.0781 L905.9844,24.1719 Q905.9844,25.4063 906.875,26.2266 Q907.7656,27.0469 909.3594,27.0469 Q910.2969,27.0469 910.9531,26.7969 Q911.3438,26.6406 911.7656,26.2031 Q912.0313,25.9375 912.1797,25.8594 Q912.3281,25.7813 912.5313,25.7813 Q912.8594,25.7813 913.1172,26.0391 Q913.375,26.2969 913.375,26.6406 Q913.375,26.9844 913.0313,27.3906 Q912.5313,27.9688 911.7344,28.2969 Q910.6563,28.75 909.3594,28.75 Q907.8438,28.75 906.6406,28.125 Q905.6563,27.625 904.9688,26.5547 Q904.2813,25.4844 904.2813,24.2031 L904.2813,23.0469 Q904.2813,21.7188 904.8984,20.5703 Q905.5156,19.4219 906.6094,18.8047 Q907.7031,18.1875 908.9375,18.1875 Q909.6719,18.1875 910.3203,18.3516 Q910.9688,18.5156 911.5156,18.875 Z " fill="#000000" /><text fill="#000000" font-family="sans-serif" font-size="12" lengthAdjust="spacingAndGlyphs" textLength="31" x="929.25" y="27.9102">Order</text>
        <line style="stroke:#A80036;stroke-width:1.5;" x1="833" x2="1024" y1="39" y2="39" />
        <line style="stroke:#A80036;stroke-width:1.5;" x1="833" x2="1024" y1="47" y2="47" /><text fill="#000000" font-family="sans-serif" font-size="11" lengthAdjust="spacingAndGlyphs" textLength="58" x="838" y="62.4189">newOrder()</text><text fill="#000000" font-family="sans-serif" font-size="11" lengthAdjust="spacingAndGlyphs" textLength="181" x="838" y="76.2549">updateItemList(order, desiredItemList)</text><text fill="#000000" font-family="sans-serif" font-size="11" lengthAdjust="spacingAndGlyphs" textLength="81" x="838" y="90.0908">getDetails(order)</text>
        <!--MD5=[009b03086d07d4e0c5d5e478a28f6669]
class OrderDatabase-->
        <rect codeLine="23" fill="#FEFECE" filter="url(#f1sbirhakdvdps)" height="61.8359" id="OrderDatabase" style="stroke:#A80036;stroke-width:1.5;" width="117" x="545" y="21" />
        <ellipse cx="560" cy="37" fill="#ADD1B2" rx="11" ry="11" style="stroke:#A80036;stroke-width:1.0;" />
        <path d="M562.7656,32.875 Q562.9219,32.6563 563.1094,32.5469 Q563.2969,32.4375 563.5156,32.4375 Q563.8906,32.4375 564.125,32.6953 Q564.3594,32.9531 564.3594,33.5625 L564.3594,35.0156 Q564.3594,35.625 564.125,35.8906 Q563.8906,36.1563 563.5156,36.1563 Q563.1719,36.1563 562.9688,35.9531 Q562.7656,35.7656 562.6563,35.25 Q562.6094,34.8906 562.4219,34.7031 Q562.0938,34.3281 561.4844,34.1094 Q560.875,33.8906 560.25,33.8906 Q559.4844,33.8906 558.8516,34.2188 Q558.2188,34.5469 557.7266,35.2969 Q557.2344,36.0469 557.2344,37.0781 L557.2344,38.1719 Q557.2344,39.4063 558.125,40.2266 Q559.0156,41.0469 560.6094,41.0469 Q561.5469,41.0469 562.2031,40.7969 Q562.5938,40.6406 563.0156,40.2031 Q563.2813,39.9375 563.4297,39.8594 Q563.5781,39.7813 563.7813,39.7813 Q564.1094,39.7813 564.3672,40.0391 Q564.625,40.2969 564.625,40.6406 Q564.625,40.9844 564.2813,41.3906 Q563.7813,41.9688 562.9844,42.2969 Q561.9063,42.75 560.6094,42.75 Q559.0938,42.75 557.8906,42.125 Q556.9063,41.625 556.2188,40.5547 Q555.5313,39.4844 555.5313,38.2031 L555.5313,37.0469 Q555.5313,35.7188 556.1484,34.5703 Q556.7656,33.4219 557.8594,32.8047 Q558.9531,32.1875 560.1875,32.1875 Q560.9219,32.1875 561.5703,32.3516 Q562.2188,32.5156 562.7656,32.875 Z " fill="#000000" /><text fill="#000000" font-family="sans-serif" font-size="12" lengthAdjust="spacingAndGlyphs" textLength="85" x="574" y="41.9102">OrderDatabase</text>
        <line style="stroke:#A80036;stroke-width:1.5;" x1="546" x2="661" y1="53" y2="53" />
        <line style="stroke:#A80036;stroke-width:1.5;" x1="546" x2="661" y1="61" y2="61" /><text fill="#000000" font-family="sans-serif" font-size="11" lengthAdjust="spacingAndGlyphs" textLength="86" x="551" y="76.4189">saveOrder(order)</text>
        <!--MD5=[a77781830b4eef1927aef37ad01ad2c2]
class Catalogue-->
        <rect codeLine="27" fill="#FEFECE" filter="url(#f1sbirhakdvdps)" height="61.8359" id="Catalogue" style="stroke:#A80036;stroke-width:1.5;" width="89" x="702.5" y="119" />
        <ellipse cx="717.5" cy="135" fill="#ADD1B2" rx="11" ry="11" style="stroke:#A80036;stroke-width:1.0;" />
        <path d="M720.2656,130.875 Q720.4219,130.6563 720.6094,130.5469 Q720.7969,130.4375 721.0156,130.4375 Q721.3906,130.4375 721.625,130.6953 Q721.8594,130.9531 721.8594,131.5625 L721.8594,133.0156 Q721.8594,133.625 721.625,133.8906 Q721.3906,134.1563 721.0156,134.1563 Q720.6719,134.1563 720.4688,133.9531 Q720.2656,133.7656 720.1563,133.25 Q720.1094,132.8906 719.9219,132.7031 Q719.5938,132.3281 718.9844,132.1094 Q718.375,131.8906 717.75,131.8906 Q716.9844,131.8906 716.3516,132.2188 Q715.7188,132.5469 715.2266,133.2969 Q714.7344,134.0469 714.7344,135.0781 L714.7344,136.1719 Q714.7344,137.4063 715.625,138.2266 Q716.5156,139.0469 718.1094,139.0469 Q719.0469,139.0469 719.7031,138.7969 Q720.0938,138.6406 720.5156,138.2031 Q720.7813,137.9375 720.9297,137.8594 Q721.0781,137.7813 721.2813,137.7813 Q721.6094,137.7813 721.8672,138.0391 Q722.125,138.2969 722.125,138.6406 Q722.125,138.9844 721.7813,139.3906 Q721.2813,139.9688 720.4844,140.2969 Q719.4063,140.75 718.1094,140.75 Q716.5938,140.75 715.3906,140.125 Q714.4063,139.625 713.7188,138.5547 Q713.0313,137.4844 713.0313,136.2031 L713.0313,135.0469 Q713.0313,133.7188 713.6484,132.5703 Q714.2656,131.4219 715.3594,130.8047 Q716.4531,130.1875 717.6875,130.1875 Q718.4219,130.1875 719.0703,130.3516 Q719.7188,130.5156 720.2656,130.875 Z " fill="#000000" /><text fill="#000000" font-family="sans-serif" font-size="12" lengthAdjust="spacingAndGlyphs" textLength="57" x="731.5" y="139.9102">Catalogue</text>
        <line style="stroke:#A80036;stroke-width:1.5;" x1="703.5" x2="790.5" y1="151" y2="151" />
        <line style="stroke:#A80036;stroke-width:1.5;" x1="703.5" x2="790.5" y1="159" y2="159" /><text fill="#000000" font-family="sans-serif" font-size="11" lengthAdjust="spacingAndGlyphs" textLength="60" x="708.5" y="174.4189">getAllItems()</text>
        <!--MD5=[58f92130eed2b2942ede485e1f41649c]
class ItemDatabase-->
        <rect codeLine="31" fill="#FEFECE" filter="url(#f1sbirhakdvdps)" height="61.8359" id="ItemDatabase" style="stroke:#A80036;stroke-width:1.5;" width="110" x="692" y="199" />
        <ellipse cx="707" cy="215" fill="#ADD1B2" rx="11" ry="11" style="stroke:#A80036;stroke-width:1.0;" />
        <path d="M709.7656,210.875 Q709.9219,210.6563 710.1094,210.5469 Q710.2969,210.4375 710.5156,210.4375 Q710.8906,210.4375 711.125,210.6953 Q711.3594,210.9531 711.3594,211.5625 L711.3594,213.0156 Q711.3594,213.625 711.125,213.8906 Q710.8906,214.1563 710.5156,214.1563 Q710.1719,214.1563 709.9688,213.9531 Q709.7656,213.7656 709.6563,213.25 Q709.6094,212.8906 709.4219,212.7031 Q709.0938,212.3281 708.4844,212.1094 Q707.875,211.8906 707.25,211.8906 Q706.4844,211.8906 705.8516,212.2188 Q705.2188,212.5469 704.7266,213.2969 Q704.2344,214.0469 704.2344,215.0781 L704.2344,216.1719 Q704.2344,217.4063 705.125,218.2266 Q706.0156,219.0469 707.6094,219.0469 Q708.5469,219.0469 709.2031,218.7969 Q709.5938,218.6406 710.0156,218.2031 Q710.2813,217.9375 710.4297,217.8594 Q710.5781,217.7813 710.7813,217.7813 Q711.1094,217.7813 711.3672,218.0391 Q711.625,218.2969 711.625,218.6406 Q711.625,218.9844 711.2813,219.3906 Q710.7813,219.9688 709.9844,220.2969 Q708.9063,220.75 707.6094,220.75 Q706.0938,220.75 704.8906,220.125 Q703.9063,219.625 703.2188,218.5547 Q702.5313,217.4844 702.5313,216.2031 L702.5313,215.0469 Q702.5313,213.7188 703.1484,212.5703 Q703.7656,211.4219 704.8594,210.8047 Q705.9531,210.1875 707.1875,210.1875 Q707.9219,210.1875 708.5703,210.3516 Q709.2188,210.5156 709.7656,210.875 Z " fill="#000000" /><text fill="#000000" font-family="sans-serif" font-size="12" lengthAdjust="spacingAndGlyphs" textLength="78" x="721" y="219.9102">ItemDatabase</text>
        <line style="stroke:#A80036;stroke-width:1.5;" x1="693" x2="801" y1="231" y2="231" />
        <line style="stroke:#A80036;stroke-width:1.5;" x1="693" x2="801" y1="239" y2="239" /><text fill="#000000" font-family="sans-serif" font-size="11" lengthAdjust="spacingAndGlyphs" textLength="79" x="698" y="254.4189">getOneOfEach()</text>
        <!--MD5=[44a1b4afaef76c16e6c9ec4990ad0c8d]
class Item-->
        <rect fill="#FEFECE" filter="url(#f1sbirhakdvdps)" height="48" id="Item" style="stroke:#A80036;stroke-width:1.5;" width="56" x="1108" y="126" />
        <ellipse cx="1123" cy="142" fill="#ADD1B2" rx="11" ry="11" style="stroke:#A80036;stroke-width:1.0;" />
        <path d="M1125.7656,137.875 Q1125.9219,137.6563 1126.1094,137.5469 Q1126.2969,137.4375 1126.5156,137.4375 Q1126.8906,137.4375 1127.125,137.6953 Q1127.3594,137.9531 1127.3594,138.5625 L1127.3594,140.0156 Q1127.3594,140.625 1127.125,140.8906 Q1126.8906,141.1563 1126.5156,141.1563 Q1126.1719,141.1563 1125.9688,140.9531 Q1125.7656,140.7656 1125.6563,140.25 Q1125.6094,139.8906 1125.4219,139.7031 Q1125.0938,139.3281 1124.4844,139.1094 Q1123.875,138.8906 1123.25,138.8906 Q1122.4844,138.8906 1121.8516,139.2188 Q1121.2188,139.5469 1120.7266,140.2969 Q1120.2344,141.0469 1120.2344,142.0781 L1120.2344,143.1719 Q1120.2344,144.4063 1121.125,145.2266 Q1122.0156,146.0469 1123.6094,146.0469 Q1124.5469,146.0469 1125.2031,145.7969 Q1125.5938,145.6406 1126.0156,145.2031 Q1126.2813,144.9375 1126.4297,144.8594 Q1126.5781,144.7813 1126.7813,144.7813 Q1127.1094,144.7813 1127.3672,145.0391 Q1127.625,145.2969 1127.625,145.6406 Q1127.625,145.9844 1127.2813,146.3906 Q1126.7813,146.9688 1125.9844,147.2969 Q1124.9063,147.75 1123.6094,147.75 Q1122.0938,147.75 1120.8906,147.125 Q1119.9063,146.625 1119.2188,145.5547 Q1118.5313,144.4844 1118.5313,143.2031 L1118.5313,142.0469 Q1118.5313,140.7188 1119.1484,139.5703 Q1119.7656,138.4219 1120.8594,137.8047 Q1121.9531,137.1875 1123.1875,137.1875 Q1123.9219,137.1875 1124.5703,137.3516 Q1125.2188,137.5156 1125.7656,137.875 Z " fill="#000000" /><text fill="#000000" font-family="sans-serif" font-size="12" lengthAdjust="spacingAndGlyphs" textLength="24" x="1137" y="146.9102">Item</text>
        <line style="stroke:#A80036;stroke-width:1.5;" x1="1109" x2="1163" y1="158" y2="158" />
        <line style="stroke:#A80036;stroke-width:1.5;" x1="1109" x2="1163" y1="166" y2="166" />
        <!--MD5=[664bec23896a2a9169d2a49cb27ba669]
link MakeOrderUI to MakeOrderController-->
        <path codeLine="36" d="M111.25,79 C128.36,79 147.82,79 166.47,79 " fill="none" id="MakeOrderUI-to-MakeOrderController" style="stroke:#A80036;stroke-width:1.0;stroke-dasharray:7.0,7.0;" />
        <polygon fill="#A80036" points="171.71,79,162.71,75,166.71,79,162.71,83,171.71,79" style="stroke:#A80036;stroke-width:1.0;" />
        <!--MD5=[b99bafc97cf139e85064ff6a0018f5a0]
link MakeOrderController to System-->
        <path codeLine="37" d="M318.07,105.17 C336.97,112.03 356.81,119.24 373.89,125.44 " fill="none" id="MakeOrderController-to-System" style="stroke:#A80036;stroke-width:1.0;stroke-dasharray:7.0,7.0;" />
        <polygon fill="#A80036" points="378.64,127.16,371.5372,120.3373,373.9381,125.4593,368.8161,127.8603,378.64,127.16" style="stroke:#A80036;stroke-width:1.0;" />
        <!--MD5=[b4a05b3362f7e54591cb5cdda3b759ef]
link MakeOrderController to OrderDatabase-->
        <path codeLine="38" d="M318.14,73.54 C383.15,68.61 477.76,61.45 539.71,56.76 " fill="none" id="MakeOrderController-to-OrderDatabase" style="stroke:#A80036;stroke-width:1.0;stroke-dasharray:7.0,7.0;" />
        <polygon fill="#A80036" points="544.86,56.37,535.5783,53.0761,539.8749,56.7557,536.1953,61.0523,544.86,56.37" style="stroke:#A80036;stroke-width:1.0;" />
        <!--MD5=[64703605cebe55895f3b61b53aaeb5e0]
link System to OrderDatabase-->
        <path codeLine="39" d="M462.12,121.8 C485.08,110.39 514.27,95.87 540.08,83.04 " fill="none" id="System-to-OrderDatabase" style="stroke:#A80036;stroke-width:1.0;" />
        <polygon fill="#A80036" points="544.86,80.66,535.0202,81.0821,540.3822,82.8847,538.5796,88.2466,544.86,80.66" style="stroke:#A80036;stroke-width:1.0;" /><text fill="#000000" font-family="sans-serif" font-size="13" lengthAdjust="spacingAndGlyphs" textLength="21" x="493" y="93.4951">has</text><text fill="#000000" font-family="sans-serif" font-size="13" lengthAdjust="spacingAndGlyphs" textLength="7" x="469.875" y="133.2426">1</text><text fill="#000000" font-family="sans-serif" font-size="13" lengthAdjust="spacingAndGlyphs" textLength="7" x="529.8983" y="98.8852">1</text>
        <!--MD5=[d97c42b04ded5f39c46ec4563ec51b7a]
link System to ItemDatabase-->
        <path codeLine="40" d="M462.14,159.31 C471.83,163.11 482.2,166.92 492,170 C557.73,190.7 635.02,207.98 686.92,218.6 " fill="none" id="System-to-ItemDatabase" style="stroke:#A80036;stroke-width:1.0;" />
        <polygon fill="#A80036" points="691.86,219.61,683.8256,213.9136,686.9582,218.6239,682.2479,221.7565,691.86,219.61" style="stroke:#A80036;stroke-width:1.0;" /><text fill="#000000" font-family="sans-serif" font-size="13" lengthAdjust="spacingAndGlyphs" textLength="21" x="493" y="166.4951">has</text><text fill="#000000" font-family="sans-serif" font-size="13" lengthAdjust="spacingAndGlyphs" textLength="7" x="469.8984" y="177.1996">1</text><text fill="#000000" font-family="sans-serif" font-size="13" lengthAdjust="spacingAndGlyphs" textLength="7" x="676.9803" y="232.8186">1</text>
        <!--MD5=[5b465eda28decf21994da54c8f8abc26]
link System to Catalogue-->
        <path codeLine="41" d="M462.27,143.01 C521.96,144.48 632.97,147.21 697.01,148.79 " fill="none" id="System-to-Catalogue" style="stroke:#A80036;stroke-width:1.0;" />
        <polygon fill="#A80036" points="702.29,148.92,693.3958,144.69,697.2917,148.7915,693.1902,152.6873,702.29,148.92" style="stroke:#A80036;stroke-width:1.0;" /><text fill="#000000" font-family="sans-serif" font-size="13" lengthAdjust="spacingAndGlyphs" textLength="21" x="493" y="139.4951">has</text><text fill="#000000" font-family="sans-serif" font-size="13" lengthAdjust="spacingAndGlyphs" textLength="7" x="470.0508" y="158.098">1</text><text fill="#000000" font-family="sans-serif" font-size="13" lengthAdjust="spacingAndGlyphs" textLength="7" x="687.6065" y="163.5591">1</text>
        <!--MD5=[2408d0bf8f68147adaef855466bfeac3]
link OrderDatabase to Order-->
        <path codeLine="42" d="M662.25,52 C707.86,52 772.63,52 826.75,52 " fill="none" id="OrderDatabase-to-Order" style="stroke:#A80036;stroke-width:1.0;" />
        <polygon fill="#A80036" points="831.95,52,822.95,48,826.95,52,822.95,56,831.95,52" style="stroke:#A80036;stroke-width:1.0;" /><text fill="#000000" font-family="sans-serif" font-size="13" lengthAdjust="spacingAndGlyphs" textLength="82" x="706" y="48.4951">has registered</text><text fill="#000000" font-family="sans-serif" font-size="13" lengthAdjust="spacingAndGlyphs" textLength="7" x="669.8367" y="66.5015">1</text><text fill="#000000" font-family="sans-serif" font-size="13" lengthAdjust="spacingAndGlyphs" textLength="5" x="819.057" y="66.1662">*</text>
        <!--MD5=[2ed4ea23ebcef01f01639ccb8e6d36f5]
link ItemDatabase to Item-->
        <path codeLine="43" d="M802.01,220.13 C857.93,209.75 947.77,192.65 1025,176 C1051.28,170.33 1080.94,163.29 1102.83,157.96 " fill="none" id="ItemDatabase-to-Item" style="stroke:#A80036;stroke-width:1.0;" />
        <polygon fill="#A80036" points="1107.94,156.71,1098.2481,154.9585,1103.0826,157.8958,1100.1454,162.7303,1107.94,156.71" style="stroke:#A80036;stroke-width:1.0;" /><text fill="#000000" font-family="sans-serif" font-size="13" lengthAdjust="spacingAndGlyphs" textLength="82" x="887.5" y="172.4951">has registered</text><text fill="#000000" font-family="sans-serif" font-size="13" lengthAdjust="spacingAndGlyphs" textLength="7" x="809.8723" y="233.4085">1</text><text fill="#000000" font-family="sans-serif" font-size="13" lengthAdjust="spacingAndGlyphs" textLength="5" x="1095.109" y="153.9196">*</text>
        <!--MD5=[79c58ca32092b929e8b4bee94f331b1e]
link Catalogue to Item-->
        <path codeLine="44" d="M791.64,150 C870.05,150 1033.06,150 1102.52,150 " fill="none" id="Catalogue-to-Item" style="stroke:#A80036;stroke-width:1.0;" />
        <polygon fill="#A80036" points="1107.75,150,1098.75,146,1102.75,150,1098.75,154,1107.75,150" style="stroke:#A80036;stroke-width:1.0;" /><text fill="#000000" font-family="sans-serif" font-size="13" lengthAdjust="spacingAndGlyphs" textLength="21" x="918" y="146.4951">has</text><text fill="#000000" font-family="sans-serif" font-size="13" lengthAdjust="spacingAndGlyphs" textLength="7" x="799.6132" y="164.8628">1</text><text fill="#000000" font-family="sans-serif" font-size="13" lengthAdjust="spacingAndGlyphs" textLength="5" x="1094.8703" y="165.5902">*</text>
        <!--MD5=[c1d53365aa981b4855aab454c64fdd90]
link Order to Item-->
        <path codeLine="45" d="M1024.13,97.13 C1052.53,110.67 1081.76,124.61 1103.08,134.78 " fill="none" id="Order-to-Item" style="stroke:#A80036;stroke-width:1.0;" />
        <polygon fill="#A80036" points="1107.77,137.02,1101.3548,129.547,1103.2531,134.8759,1097.9242,136.7741,1107.77,137.02" style="stroke:#A80036;stroke-width:1.0;" /><text fill="#000000" font-family="sans-serif" font-size="13" lengthAdjust="spacingAndGlyphs" textLength="21" x="1056" y="108.4951">has</text><text fill="#000000" font-family="sans-serif" font-size="13" lengthAdjust="spacingAndGlyphs" textLength="7" x="1030.0858" y="118.1558">1</text><text fill="#000000" font-family="sans-serif" font-size="13" lengthAdjust="spacingAndGlyphs" textLength="20" x="1079.8851" y="130.2242">1..*</text>
        <!--MD5=[ed22f00487c07a1dd8fe04a9434b79f8]
@startuml

left to right direction

class MakeOrderUI {
}

class MakeOrderController {
  getCatalogue()
  makeOrder(desiredItemList)
  saveOrder()
}

class System {
  getCatalogue()
}

class Order {
  newOrder()
  updateItemList(order, desiredItemList)
  getDetails(order)
}

class OrderDatabase {
  saveOrder(order)
}

class Catalogue {
  getAllItems()
}

class ItemDatabase {
  getOneOfEach()
}


MakeOrderUI ..> MakeOrderController
MakeOrderController ..> System
MakeOrderController ..> OrderDatabase
System "1" - -> "1" OrderDatabase: has
System "1" - -> "1" ItemDatabase: has
System "1" - -> "1" Catalogue: has
OrderDatabase "1" - -> "*" Order: has registered
ItemDatabase "1" - -> "*" Item: has registered
Catalogue "1" - -> "*" Item: has
Order "1" - -> "1..*" Item: has

@enduml

PlantUML version 1.2020.26(Mon Dec 21 17:45:07 GMT 2020)
(GPL source distribution)
Java Runtime: Java(TM) SE Runtime Environment
JVM: Java HotSpot(TM) 64-Bit Server VM
Default Encoding: Cp1252
Language: pt
Country: PT
-->
    </g>
</svg>