<?xml version="1.0" encoding="UTF-8" standalone="no"?><svg xmlns="http://www.w3.org/2000/svg" xmlns:xlink="http://www.w3.org/1999/xlink" contentScriptType="application/ecmascript" contentStyleType="text/css" height="323px" preserveAspectRatio="none" style="width:1846px;height:323px;" version="1.1" viewBox="0 0 1846 323" width="1846px" zoomAndPan="magnify"><defs><filter height="300%" id="fc1tvrs4avezt" width="300%" x="-1" y="-1"><feGaussianBlur result="blurOut" stdDeviation="2.0"/><feColorMatrix in="blurOut" result="blurOut2" type="matrix" values="0 0 0 0 0 0 0 0 0 0 0 0 0 0 0 0 0 0 .4 0"/><feOffset dx="4.0" dy="4.0" in="blurOut2" result="blurOut3"/><feBlend in="SourceGraphic" in2="blurOut3" mode="normal"/></filter></defs><g><!--MD5=[f176861b30eba4d9df5e7838b5c0f2b6]
class RegisterOrganizacaoUI--><rect fill="#FEFECE" filter="url(#fc1tvrs4avezt)" height="48" id="RegisterOrganizacaoUI" style="stroke: #A80036; stroke-width: 1.5;" width="160" x="6" y="133"/><ellipse cx="21" cy="149" fill="#ADD1B2" rx="11" ry="11" style="stroke: #A80036; stroke-width: 1.0;"/><path d="M23,145.5 Q23.2031,145 23.4375,144.75 Q23.6719,144.5 23.9375,144.5 Q24.4063,144.5 24.7031,144.7813 Q25,145.0625 25,145.7188 L25,147.2813 Q25,147.9375 24.7188,148.2188 Q24.4375,148.5 24,148.5 Q23.6094,148.5 23.3594,148.3281 Q23.1094,148.1563 23,147.7031 Q22.9531,147.3906 22.7813,147.2188 Q22.4688,146.8906 21.9063,146.7031 Q21.3438,146.5 20.7813,146.5 Q20.0781,146.5 19.4844,146.7813 Q18.9063,147.0625 18.4531,147.6875 Q18,148.3125 18,149.1719 L18,150.0938 Q18,151.125 18.8438,151.8125 Q19.6875,152.5 21.1875,152.5 Q22.0781,152.5 22.7031,152.2969 Q23.0625,152.1875 23.4688,151.8281 Q23.7344,151.625 23.875,151.5625 Q24.0156,151.5 24.1875,151.5 Q24.5156,151.5 24.75,151.7656 Q25,152.0156 25,152.375 Q25,152.7188 24.6563,153.125 Q24.1563,153.7188 23.3594,154.0469 Q22.3125,154.5 21.0313,154.5 Q19.5313,154.5 18.3281,153.9063 Q17.3594,153.4375 16.6719,152.4219 Q16,151.4063 16,150.2031 L16,149.1094 Q16,147.8594 16.5938,146.7656 Q17.2031,145.6719 18.25,145.0938 Q19.3125,144.5 20.5,144.5 Q21.2188,144.5 21.8438,144.75 Q22.4688,145 23,145.5 Z "/><text fill="#000000" font-family="sans-serif" font-size="12" lengthAdjust="spacingAndGlyphs" textLength="128" x="35" y="153.9102">RegisterOrganizacaoUI</text><line style="stroke: #A80036; stroke-width: 1.5;" x1="7" x2="165" y1="165" y2="165"/><line style="stroke: #A80036; stroke-width: 1.5;" x1="7" x2="165" y1="173" y2="173"/><!--MD5=[4f951974ade12dc82702c8e5d25dd0a5]
class RegisterOrganizationController--><rect fill="#FEFECE" filter="url(#fc1tvrs4avezt)" height="89.5078" id="RegisterOrganizationController" style="stroke: #A80036; stroke-width: 1.5;" width="217" x="227" y="112"/><ellipse cx="248.75" cy="128" fill="#ADD1B2" rx="11" ry="11" style="stroke: #A80036; stroke-width: 1.0;"/><path d="M250.75,124.5 Q250.9531,124 251.1875,123.75 Q251.4219,123.5 251.6875,123.5 Q252.1563,123.5 252.4531,123.7813 Q252.75,124.0625 252.75,124.7188 L252.75,126.2813 Q252.75,126.9375 252.4688,127.2188 Q252.1875,127.5 251.75,127.5 Q251.3594,127.5 251.1094,127.3281 Q250.8594,127.1563 250.75,126.7031 Q250.7031,126.3906 250.5313,126.2188 Q250.2188,125.8906 249.6563,125.7031 Q249.0938,125.5 248.5313,125.5 Q247.8281,125.5 247.2344,125.7813 Q246.6563,126.0625 246.2031,126.6875 Q245.75,127.3125 245.75,128.1719 L245.75,129.0938 Q245.75,130.125 246.5938,130.8125 Q247.4375,131.5 248.9375,131.5 Q249.8281,131.5 250.4531,131.2969 Q250.8125,131.1875 251.2188,130.8281 Q251.4844,130.625 251.625,130.5625 Q251.7656,130.5 251.9375,130.5 Q252.2656,130.5 252.5,130.7656 Q252.75,131.0156 252.75,131.375 Q252.75,131.7188 252.4063,132.125 Q251.9063,132.7188 251.1094,133.0469 Q250.0625,133.5 248.7813,133.5 Q247.2813,133.5 246.0781,132.9063 Q245.1094,132.4375 244.4219,131.4219 Q243.75,130.4063 243.75,129.2031 L243.75,128.1094 Q243.75,126.8594 244.3438,125.7656 Q244.9531,124.6719 246,124.0938 Q247.0625,123.5 248.25,123.5 Q248.9688,123.5 249.5938,123.75 Q250.2188,124 250.75,124.5 Z "/><text fill="#000000" font-family="sans-serif" font-size="12" lengthAdjust="spacingAndGlyphs" textLength="170" x="264.25" y="132.9102">RegisterOrganizationController</text><line style="stroke: #A80036; stroke-width: 1.5;" x1="228" x2="443" y1="144" y2="144"/><line style="stroke: #A80036; stroke-width: 1.5;" x1="228" x2="443" y1="152" y2="152"/><ellipse cx="238" cy="163" fill="#84BE84" rx="3" ry="3" style="stroke: #038048; stroke-width: 1.0;"/><text fill="#000000" font-family="sans-serif" font-size="11" lengthAdjust="spacingAndGlyphs" textLength="182" x="247" y="167.4189">newOrganization(name, NIF, website,</text><text fill="#000000" font-family="sans-serif" font-size="11" lengthAdjust="spacingAndGlyphs" textLength="191" x="247" y="181.2549">cellphone, email, manager, collaborator)</text><ellipse cx="238" cy="190.6719" fill="#84BE84" rx="3" ry="3" style="stroke: #038048; stroke-width: 1.0;"/><text fill="#000000" font-family="sans-serif" font-size="11" lengthAdjust="spacingAndGlyphs" textLength="106" x="247" y="195.0908">registerOrganization()</text><!--MD5=[8bcb907ff347dcd2f8bd61078a7ec9e9]
class ApplicationEM--><rect fill="#FEFECE" filter="url(#fc1tvrs4avezt)" height="75.6719" id="ApplicationEM" style="stroke: #A80036; stroke-width: 1.5;" width="160" x="552" y="8"/><ellipse cx="589.95" cy="24" fill="#ADD1B2" rx="11" ry="11" style="stroke: #A80036; stroke-width: 1.0;"/><path d="M591.95,20.5 Q592.1531,20 592.3875,19.75 Q592.6219,19.5 592.8875,19.5 Q593.3563,19.5 593.6531,19.7813 Q593.95,20.0625 593.95,20.7188 L593.95,22.2813 Q593.95,22.9375 593.6688,23.2188 Q593.3875,23.5 592.95,23.5 Q592.5594,23.5 592.3094,23.3281 Q592.0594,23.1563 591.95,22.7031 Q591.9031,22.3906 591.7313,22.2188 Q591.4188,21.8906 590.8563,21.7031 Q590.2938,21.5 589.7313,21.5 Q589.0281,21.5 588.4344,21.7813 Q587.8563,22.0625 587.4031,22.6875 Q586.95,23.3125 586.95,24.1719 L586.95,25.0938 Q586.95,26.125 587.7938,26.8125 Q588.6375,27.5 590.1375,27.5 Q591.0281,27.5 591.6531,27.2969 Q592.0125,27.1875 592.4188,26.8281 Q592.6844,26.625 592.825,26.5625 Q592.9656,26.5 593.1375,26.5 Q593.4656,26.5 593.7,26.7656 Q593.95,27.0156 593.95,27.375 Q593.95,27.7188 593.6063,28.125 Q593.1063,28.7188 592.3094,29.0469 Q591.2625,29.5 589.9813,29.5 Q588.4813,29.5 587.2781,28.9063 Q586.3094,28.4375 585.6219,27.4219 Q584.95,26.4063 584.95,25.2031 L584.95,24.1094 Q584.95,22.8594 585.5438,21.7656 Q586.1531,20.6719 587.2,20.0938 Q588.2625,19.5 589.45,19.5 Q590.1688,19.5 590.7938,19.75 Q591.4188,20 591.95,20.5 Z "/><text fill="#000000" font-family="sans-serif" font-size="12" lengthAdjust="spacingAndGlyphs" textLength="77" x="609.05" y="28.9102">ApplicationEM</text><line style="stroke: #A80036; stroke-width: 1.5;" x1="553" x2="711" y1="40" y2="40"/><line style="stroke: #A80036; stroke-width: 1.5;" x1="553" x2="711" y1="48" y2="48"/><ellipse cx="563" cy="59" fill="#84BE84" rx="3" ry="3" style="stroke: #038048; stroke-width: 1.0;"/><text fill="#000000" font-family="sans-serif" font-size="11" lengthAdjust="spacingAndGlyphs" text-decoration="underline" textLength="134" x="572" y="63.4189">ApplicationEM getInstance()</text><ellipse cx="563" cy="72.8359" fill="#84BE84" rx="3" ry="3" style="stroke: #038048; stroke-width: 1.0;"/><text fill="#000000" font-family="sans-serif" font-size="11" lengthAdjust="spacingAndGlyphs" textLength="104" x="572" y="77.2549">Platform getPlatform()</text><!--MD5=[99b8db98afdc2c8404e39242ef4c1e65]
class Platform--><rect fill="#FEFECE" filter="url(#fc1tvrs4avezt)" height="75.6719" id="Platform" style="stroke: #A80036; stroke-width: 1.5;" width="254" x="505" y="119"/><ellipse cx="604.75" cy="135" fill="#ADD1B2" rx="11" ry="11" style="stroke: #A80036; stroke-width: 1.0;"/><path d="M606.75,131.5 Q606.9531,131 607.1875,130.75 Q607.4219,130.5 607.6875,130.5 Q608.1563,130.5 608.4531,130.7813 Q608.75,131.0625 608.75,131.7188 L608.75,133.2813 Q608.75,133.9375 608.4688,134.2188 Q608.1875,134.5 607.75,134.5 Q607.3594,134.5 607.1094,134.3281 Q606.8594,134.1563 606.75,133.7031 Q606.7031,133.3906 606.5313,133.2188 Q606.2188,132.8906 605.6563,132.7031 Q605.0938,132.5 604.5313,132.5 Q603.8281,132.5 603.2344,132.7813 Q602.6563,133.0625 602.2031,133.6875 Q601.75,134.3125 601.75,135.1719 L601.75,136.0938 Q601.75,137.125 602.5938,137.8125 Q603.4375,138.5 604.9375,138.5 Q605.8281,138.5 606.4531,138.2969 Q606.8125,138.1875 607.2188,137.8281 Q607.4844,137.625 607.625,137.5625 Q607.7656,137.5 607.9375,137.5 Q608.2656,137.5 608.5,137.7656 Q608.75,138.0156 608.75,138.375 Q608.75,138.7188 608.4063,139.125 Q607.9063,139.7188 607.1094,140.0469 Q606.0625,140.5 604.7813,140.5 Q603.2813,140.5 602.0781,139.9063 Q601.1094,139.4375 600.4219,138.4219 Q599.75,137.4063 599.75,136.2031 L599.75,135.1094 Q599.75,133.8594 600.3438,132.7656 Q600.9531,131.6719 602,131.0938 Q603.0625,130.5 604.25,130.5 Q604.9688,130.5 605.5938,130.75 Q606.2188,131 606.75,131.5 Z "/><text fill="#000000" font-family="sans-serif" font-size="12" lengthAdjust="spacingAndGlyphs" textLength="46" x="625.25" y="139.9102">Platform</text><line style="stroke: #A80036; stroke-width: 1.5;" x1="506" x2="758" y1="151" y2="151"/><rect fill="none" height="6" style="stroke: #C82930; stroke-width: 1.0;" width="6" x="513" y="159"/><text fill="#000000" font-family="sans-serif" font-size="11" lengthAdjust="spacingAndGlyphs" textLength="86" x="525" y="166.4189">String designation</text><line style="stroke: #A80036; stroke-width: 1.5;" x1="506" x2="758" y1="172.8359" y2="172.8359"/><ellipse cx="516" cy="183.8359" fill="#84BE84" rx="3" ry="3" style="stroke: #038048; stroke-width: 1.0;"/><text fill="#000000" font-family="sans-serif" font-size="11" lengthAdjust="spacingAndGlyphs" textLength="228" x="525" y="188.2549">OrganizationRegister getOrganizationRegister()</text><!--MD5=[86c7c362de55a38b660185a1328fe18d]
class Organization--><rect fill="#FEFECE" filter="url(#fc1tvrs4avezt)" height="186.3594" id="Organization" style="stroke: #A80036; stroke-width: 1.5;" width="276" x="1258" y="126"/><ellipse cx="1357.25" cy="142" fill="#ADD1B2" rx="11" ry="11" style="stroke: #A80036; stroke-width: 1.0;"/><path d="M1359.25,138.5 Q1359.4531,138 1359.6875,137.75 Q1359.9219,137.5 1360.1875,137.5 Q1360.6563,137.5 1360.9531,137.7813 Q1361.25,138.0625 1361.25,138.7188 L1361.25,140.2813 Q1361.25,140.9375 1360.9688,141.2188 Q1360.6875,141.5 1360.25,141.5 Q1359.8594,141.5 1359.6094,141.3281 Q1359.3594,141.1563 1359.25,140.7031 Q1359.2031,140.3906 1359.0313,140.2188 Q1358.7188,139.8906 1358.1563,139.7031 Q1357.5938,139.5 1357.0313,139.5 Q1356.3281,139.5 1355.7344,139.7813 Q1355.1563,140.0625 1354.7031,140.6875 Q1354.25,141.3125 1354.25,142.1719 L1354.25,143.0938 Q1354.25,144.125 1355.0938,144.8125 Q1355.9375,145.5 1357.4375,145.5 Q1358.3281,145.5 1358.9531,145.2969 Q1359.3125,145.1875 1359.7188,144.8281 Q1359.9844,144.625 1360.125,144.5625 Q1360.2656,144.5 1360.4375,144.5 Q1360.7656,144.5 1361,144.7656 Q1361.25,145.0156 1361.25,145.375 Q1361.25,145.7188 1360.9063,146.125 Q1360.4063,146.7188 1359.6094,147.0469 Q1358.5625,147.5 1357.2813,147.5 Q1355.7813,147.5 1354.5781,146.9063 Q1353.6094,146.4375 1352.9219,145.4219 Q1352.25,144.4063 1352.25,143.2031 L1352.25,142.1094 Q1352.25,140.8594 1352.8438,139.7656 Q1353.4531,138.6719 1354.5,138.0938 Q1355.5625,137.5 1356.75,137.5 Q1357.4688,137.5 1358.0938,137.75 Q1358.7188,138 1359.25,138.5 Z "/><text fill="#000000" font-family="sans-serif" font-size="12" lengthAdjust="spacingAndGlyphs" textLength="69" x="1377.75" y="146.9102">Organization</text><line style="stroke: #A80036; stroke-width: 1.5;" x1="1259" x2="1533" y1="158" y2="158"/><rect fill="none" height="6" style="stroke: #C82930; stroke-width: 1.0;" width="6" x="1266" y="166"/><text fill="#000000" font-family="sans-serif" font-size="11" lengthAdjust="spacingAndGlyphs" textLength="57" x="1278" y="173.4189">String name</text><rect fill="none" height="6" style="stroke: #C82930; stroke-width: 1.0;" width="6" x="1266" y="179.8359"/><text fill="#000000" font-family="sans-serif" font-size="11" lengthAdjust="spacingAndGlyphs" textLength="46" x="1278" y="187.2549">String NIF</text><rect fill="none" height="6" style="stroke: #C82930; stroke-width: 1.0;" width="6" x="1266" y="193.6719"/><text fill="#000000" font-family="sans-serif" font-size="11" lengthAdjust="spacingAndGlyphs" textLength="70" x="1278" y="201.0908">String website</text><rect fill="none" height="6" style="stroke: #C82930; stroke-width: 1.0;" width="6" x="1266" y="207.5078"/><text fill="#000000" font-family="sans-serif" font-size="11" lengthAdjust="spacingAndGlyphs" textLength="77" x="1278" y="214.9268">String cellphone</text><rect fill="none" height="6" style="stroke: #C82930; stroke-width: 1.0;" width="6" x="1266" y="221.3438"/><text fill="#000000" font-family="sans-serif" font-size="11" lengthAdjust="spacingAndGlyphs" textLength="55" x="1278" y="228.7627">String email</text><rect fill="none" height="6" style="stroke: #C82930; stroke-width: 1.0;" width="6" x="1266" y="235.1797"/><text fill="#000000" font-family="sans-serif" font-size="11" lengthAdjust="spacingAndGlyphs" textLength="118" x="1278" y="242.5986">Collaborator collaborator</text><rect fill="none" height="6" style="stroke: #C82930; stroke-width: 1.0;" width="6" x="1266" y="249.0156"/><text fill="#000000" font-family="sans-serif" font-size="11" lengthAdjust="spacingAndGlyphs" textLength="103" x="1278" y="256.4346">Collaborator manager</text><line style="stroke: #A80036; stroke-width: 1.5;" x1="1259" x2="1533" y1="262.8516" y2="262.8516"/><ellipse cx="1269" cy="273.8516" fill="#84BE84" rx="3" ry="3" style="stroke: #038048; stroke-width: 1.0;"/><text fill="#000000" font-family="sans-serif" font-size="11" lengthAdjust="spacingAndGlyphs" textLength="250" x="1278" y="278.2705">createCollaborator(name, function, cellphone, email)</text><ellipse cx="1269" cy="287.6875" fill="#84BE84" rx="3" ry="3" style="stroke: #038048; stroke-width: 1.0;"/><text fill="#000000" font-family="sans-serif" font-size="11" lengthAdjust="spacingAndGlyphs" textLength="191" x="1278" y="292.1064">createOrganization(name, NIF, website,</text><text fill="#000000" font-family="sans-serif" font-size="11" lengthAdjust="spacingAndGlyphs" textLength="160" x="1278" y="305.9424">cellphone, email, manager, colab)</text><!--MD5=[f483d6e5de34a60207b28a5563be5e8b]
class Collaborator--><rect fill="#FEFECE" filter="url(#fc1tvrs4avezt)" height="117.1797" id="Collaborator" style="stroke: #A80036; stroke-width: 1.5;" width="218" x="1617" y="160.5"/><ellipse cx="1687.75" cy="176.5" fill="#ADD1B2" rx="11" ry="11" style="stroke: #A80036; stroke-width: 1.0;"/><path d="M1689.75,173 Q1689.9531,172.5 1690.1875,172.25 Q1690.4219,172 1690.6875,172 Q1691.1563,172 1691.4531,172.2813 Q1691.75,172.5625 1691.75,173.2188 L1691.75,174.7813 Q1691.75,175.4375 1691.4688,175.7188 Q1691.1875,176 1690.75,176 Q1690.3594,176 1690.1094,175.8281 Q1689.8594,175.6563 1689.75,175.2031 Q1689.7031,174.8906 1689.5313,174.7188 Q1689.2188,174.3906 1688.6563,174.2031 Q1688.0938,174 1687.5313,174 Q1686.8281,174 1686.2344,174.2813 Q1685.6563,174.5625 1685.2031,175.1875 Q1684.75,175.8125 1684.75,176.6719 L1684.75,177.5938 Q1684.75,178.625 1685.5938,179.3125 Q1686.4375,180 1687.9375,180 Q1688.8281,180 1689.4531,179.7969 Q1689.8125,179.6875 1690.2188,179.3281 Q1690.4844,179.125 1690.625,179.0625 Q1690.7656,179 1690.9375,179 Q1691.2656,179 1691.5,179.2656 Q1691.75,179.5156 1691.75,179.875 Q1691.75,180.2188 1691.4063,180.625 Q1690.9063,181.2188 1690.1094,181.5469 Q1689.0625,182 1687.7813,182 Q1686.2813,182 1685.0781,181.4063 Q1684.1094,180.9375 1683.4219,179.9219 Q1682.75,178.9063 1682.75,177.7031 L1682.75,176.6094 Q1682.75,175.3594 1683.3438,174.2656 Q1683.9531,173.1719 1685,172.5938 Q1686.0625,172 1687.25,172 Q1687.9688,172 1688.5938,172.25 Q1689.2188,172.5 1689.75,173 Z "/><text fill="#000000" font-family="sans-serif" font-size="12" lengthAdjust="spacingAndGlyphs" textLength="68" x="1708.25" y="181.4102">Collaborator</text><line style="stroke: #A80036; stroke-width: 1.5;" x1="1618" x2="1834" y1="192.5" y2="192.5"/><rect fill="none" height="6" style="stroke: #C82930; stroke-width: 1.0;" width="6" x="1625" y="200.5"/><text fill="#000000" font-family="sans-serif" font-size="11" lengthAdjust="spacingAndGlyphs" textLength="57" x="1637" y="207.9189">String name</text><rect fill="none" height="6" style="stroke: #C82930; stroke-width: 1.0;" width="6" x="1625" y="214.3359"/><text fill="#000000" font-family="sans-serif" font-size="11" lengthAdjust="spacingAndGlyphs" textLength="70" x="1637" y="221.7549">String function</text><rect fill="none" height="6" style="stroke: #C82930; stroke-width: 1.0;" width="6" x="1625" y="228.1719"/><text fill="#000000" font-family="sans-serif" font-size="11" lengthAdjust="spacingAndGlyphs" textLength="77" x="1637" y="235.5908">String cellphone</text><rect fill="none" height="6" style="stroke: #C82930; stroke-width: 1.0;" width="6" x="1625" y="242.0078"/><text fill="#000000" font-family="sans-serif" font-size="11" lengthAdjust="spacingAndGlyphs" textLength="55" x="1637" y="249.4268">String email</text><line style="stroke: #A80036; stroke-width: 1.5;" x1="1618" x2="1834" y1="255.8438" y2="255.8438"/><ellipse cx="1628" cy="266.8438" fill="#84BE84" rx="3" ry="3" style="stroke: #038048; stroke-width: 1.0;"/><text fill="#000000" font-family="sans-serif" font-size="11" lengthAdjust="spacingAndGlyphs" textLength="192" x="1637" y="271.2627">create(name, function, cellphone, email)</text><!--MD5=[3c7078c4e591ec9aa01f69813acd29ab]
class OrganizationRegister--><rect fill="#FEFECE" filter="url(#fc1tvrs4avezt)" height="144.8516" id="OrganizationRegister" style="stroke: #A80036; stroke-width: 1.5;" width="272" x="842" y="146.5"/><ellipse cx="915.75" cy="162.5" fill="#ADD1B2" rx="11" ry="11" style="stroke: #A80036; stroke-width: 1.0;"/><path d="M917.75,159 Q917.9531,158.5 918.1875,158.25 Q918.4219,158 918.6875,158 Q919.1563,158 919.4531,158.2813 Q919.75,158.5625 919.75,159.2188 L919.75,160.7813 Q919.75,161.4375 919.4688,161.7188 Q919.1875,162 918.75,162 Q918.3594,162 918.1094,161.8281 Q917.8594,161.6563 917.75,161.2031 Q917.7031,160.8906 917.5313,160.7188 Q917.2188,160.3906 916.6563,160.2031 Q916.0938,160 915.5313,160 Q914.8281,160 914.2344,160.2813 Q913.6563,160.5625 913.2031,161.1875 Q912.75,161.8125 912.75,162.6719 L912.75,163.5938 Q912.75,164.625 913.5938,165.3125 Q914.4375,166 915.9375,166 Q916.8281,166 917.4531,165.7969 Q917.8125,165.6875 918.2188,165.3281 Q918.4844,165.125 918.625,165.0625 Q918.7656,165 918.9375,165 Q919.2656,165 919.5,165.2656 Q919.75,165.5156 919.75,165.875 Q919.75,166.2188 919.4063,166.625 Q918.9063,167.2188 918.1094,167.5469 Q917.0625,168 915.7813,168 Q914.2813,168 913.0781,167.4063 Q912.1094,166.9375 911.4219,165.9219 Q910.75,164.9063 910.75,163.7031 L910.75,162.6094 Q910.75,161.3594 911.3438,160.2656 Q911.9531,159.1719 913,158.5938 Q914.0625,158 915.25,158 Q915.9688,158 916.5938,158.25 Q917.2188,158.5 917.75,159 Z "/><text fill="#000000" font-family="sans-serif" font-size="12" lengthAdjust="spacingAndGlyphs" textLength="116" x="936.25" y="167.4102">OrganizationRegister</text><line style="stroke: #A80036; stroke-width: 1.5;" x1="843" x2="1113" y1="178.5" y2="178.5"/><rect fill="none" height="6" style="stroke: #C82930; stroke-width: 1.0;" width="6" x="850" y="186.5"/><text fill="#000000" font-family="sans-serif" font-size="11" lengthAdjust="spacingAndGlyphs" textLength="122" x="862" y="193.9189">list&lt;Organization&gt; lst_org</text><line style="stroke: #A80036; stroke-width: 1.5;" x1="843" x2="1113" y1="200.3359" y2="200.3359"/><ellipse cx="853" cy="211.3359" fill="#84BE84" rx="3" ry="3" style="stroke: #038048; stroke-width: 1.0;"/><text fill="#000000" font-family="sans-serif" font-size="11" lengthAdjust="spacingAndGlyphs" textLength="243" x="862" y="215.7549">createOrganization(name, NIF, website, cellphone,</text><text fill="#000000" font-family="sans-serif" font-size="11" lengthAdjust="spacingAndGlyphs" textLength="180" x="862" y="229.5908">email, nameM, functionM, cellphoneM,</text><text fill="#000000" font-family="sans-serif" font-size="11" lengthAdjust="spacingAndGlyphs" textLength="223" x="862" y="243.4268">emailM, nameC, functionC, cellphoneC, emailC)</text><ellipse cx="853" cy="252.8438" fill="#84BE84" rx="3" ry="3" style="stroke: #038048; stroke-width: 1.0;"/><text fill="#000000" font-family="sans-serif" font-size="11" lengthAdjust="spacingAndGlyphs" textLength="150" x="862" y="257.2627">registerOrganization(org, pwd)</text><ellipse cx="853" cy="266.6797" fill="#84BE84" rx="3" ry="3" style="stroke: #038048; stroke-width: 1.0;"/><text fill="#000000" font-family="sans-serif" font-size="11" lengthAdjust="spacingAndGlyphs" textLength="150" x="862" y="271.0986">validateOrganization(org, pwd)</text><ellipse cx="853" cy="280.5156" fill="#84BE84" rx="3" ry="3" style="stroke: #038048; stroke-width: 1.0;"/><text fill="#000000" font-family="sans-serif" font-size="11" lengthAdjust="spacingAndGlyphs" textLength="103" x="862" y="284.9346">addOrganization(org)</text><!--MD5=[a7f1e021c6ff6e182bb149a475fdf11b]
link RegisterOrganizacaoUI to RegisterOrganizationController--><path d="M166.33,157 C183.91,157 202.86,157 221.49,157 " fill="none" id="RegisterOrganizacaoUI-&gt;RegisterOrganizationController" style="stroke: #A80036; stroke-width: 1.0; stroke-dasharray: 7.0,7.0;"/><polygon fill="#A80036" points="226.74,157,217.74,153,221.74,157,217.74,161,226.74,157" style="stroke: #A80036; stroke-width: 1.0;"/><!--MD5=[b898dc7a1ac2fd082e9c105acf614169]
link RegisterOrganizationController to ApplicationEM--><path d="M444.07,116.46 C478.06,103.65 515.09,89.69 547.16,77.6 " fill="none" id="RegisterOrganizationController-&gt;ApplicationEM" style="stroke: #A80036; stroke-width: 1.0; stroke-dasharray: 7.0,7.0;"/><polygon fill="#A80036" points="551.85,75.83,542.018,75.2547,547.1701,77.5903,544.8345,82.7425,551.85,75.83" style="stroke: #A80036; stroke-width: 1.0;"/><!--MD5=[6b34e12a50a29485e6b670a597970921]
link RegisterOrganizationController to Platform--><path d="M444.07,157 C462.17,157 481.13,157 499.75,157 " fill="none" id="RegisterOrganizationController-&gt;Platform" style="stroke: #A80036; stroke-width: 1.0; stroke-dasharray: 7.0,7.0;"/><polygon fill="#A80036" points="504.99,157,495.99,153,499.99,157,495.99,161,504.99,157" style="stroke: #A80036; stroke-width: 1.0;"/><!--MD5=[25f2b4c2856b057fbbaae91ecc22cd8d]
link RegisterOrganizationController to OrganizationRegister--><path d="M444.07,197.4 C464.06,203.39 484.97,208.66 505,212 C615.39,230.4 742.31,231.16 836.72,227.87 " fill="none" id="RegisterOrganizationController-&gt;OrganizationRegister" style="stroke: #A80036; stroke-width: 1.0; stroke-dasharray: 7.0,7.0;"/><polygon fill="#A80036" points="841.76,227.69,832.6279,224.0016,836.763,227.8618,832.9028,231.9969,841.76,227.69" style="stroke: #A80036; stroke-width: 1.0;"/><!--MD5=[61c512daf028c4abaff9775e1f675fa3]
link OrganizationRegister to Organization--><path d="M1114.06,219 C1158.38,219 1207.76,219 1252.6,219 " fill="none" id="OrganizationRegister-&gt;Organization" style="stroke: #A80036; stroke-width: 1.0;"/><polygon fill="#A80036" points="1257.76,219,1248.76,215,1252.76,219,1248.76,223,1257.76,219" style="stroke: #A80036; stroke-width: 1.0;"/><text fill="#000000" font-family="sans-serif" font-size="13" lengthAdjust="spacingAndGlyphs" textLength="82" x="1145" y="215.4951">has registered</text><text fill="#000000" font-family="sans-serif" font-size="13" lengthAdjust="spacingAndGlyphs" textLength="5" x="1122.0705" y="232.9721">*</text><text fill="#000000" font-family="sans-serif" font-size="13" lengthAdjust="spacingAndGlyphs" textLength="7" x="1243.0086" y="232.9324">1</text><!--MD5=[45817597bcd7048073a670d966abfd17]
link Organization to Collaborator--><path d="M1534.2,219 C1559.93,219 1586.57,219 1611.48,219 " fill="none" id="Organization-&gt;Collaborator" style="stroke: #A80036; stroke-width: 1.0;"/><polygon fill="#A80036" points="1616.77,219,1607.77,215,1611.77,219,1607.77,223,1616.77,219" style="stroke: #A80036; stroke-width: 1.0;"/><text fill="#000000" font-family="sans-serif" font-size="13" lengthAdjust="spacingAndGlyphs" textLength="21" x="1565" y="215.4951">has</text><text fill="#000000" font-family="sans-serif" font-size="13" lengthAdjust="spacingAndGlyphs" textLength="7" x="1541.9492" y="232.9324">1</text><text fill="#000000" font-family="sans-serif" font-size="13" lengthAdjust="spacingAndGlyphs" textLength="20" x="1589.1318" y="233.0131">1..*</text><!--MD5=[b3c7789b3537f3946cf11afbc11942c3]
link Platform to OrganizationRegister--><path d="M759.14,179.73 C784.4,184.29 811.08,189.1 836.78,193.73 " fill="none" id="Platform-&gt;OrganizationRegister" style="stroke: #A80036; stroke-width: 1.0; stroke-dasharray: 7.0,7.0;"/><polygon fill="#A80036" points="841.9,194.65,833.7494,189.1212,836.9788,193.7656,832.3344,196.995,841.9,194.65" style="stroke: #A80036; stroke-width: 1.0;"/><text fill="#000000" font-family="sans-serif" font-size="13" lengthAdjust="spacingAndGlyphs" textLength="21" x="790" y="183.4951">has</text><text fill="#000000" font-family="sans-serif" font-size="13" lengthAdjust="spacingAndGlyphs" textLength="7" x="767.1009" y="195.1184">1</text><text fill="#000000" font-family="sans-serif" font-size="13" lengthAdjust="spacingAndGlyphs" textLength="7" x="826.8294" y="207.2143">1</text><!--MD5=[dbd9db68ddd9d30cb6b11ad3b964b34d]
@startuml

left to right direction

class RegisterOrganizacaoUI {
}

class RegisterOrganizationController {
    +newOrganization(name, NIF, website, \ncellphone, email, manager, collaborator)
    +registerOrganization()
}

class ApplicationEM {
+{static} ApplicationEM getInstance()
+Platform getPlatform()
}

class Platform {
  -String designation
 +OrganizationRegister getOrganizationRegister()
}

class Organization{
  -String name
  -String NIF
  -String website
  -String cellphone
  -String email
  -Collaborator collaborator
  -Collaborator manager
  +createCollaborator(name, function, cellphone, email)
  +createOrganization(name, NIF, website, \ncellphone, email, manager, colab)
}

class Collaborator {
  -String name
  -String function
  -String cellphone
  -String email
  +create(name, function, cellphone, email)

}

class OrganizationRegister {
    -list<Organization> lst_org

    +createOrganization(name, NIF, website, cellphone, \nemail, nameM, functionM, cellphoneM, \nemailM, nameC, functionC, cellphoneC, emailC)
    +registerOrganization(org, pwd)
    +validateOrganization(org, pwd)
    +addOrganization(org)
}


RegisterOrganizacaoUI ..> RegisterOrganizationController
RegisterOrganizationController ..> ApplicationEM
RegisterOrganizationController ..> Platform
RegisterOrganizationController ..> OrganizationRegister
OrganizationRegister "*" - -> "1" Organization: has registered
Organization "1" - -> "1..*" Collaborator: has
Platform "1" ..> "1" OrganizationRegister: has

@enduml

PlantUML version 1.2020.09(Sun May 10 11:51:06 BST 2020)
(GPL source distribution)
Java Runtime: OpenJDK Runtime Environment
JVM: OpenJDK 64-Bit Server VM
Java Version: 11.0.5+10-b520.38
Operating System: Windows 10
Default Encoding: Cp1252
Language: pt
Country: PT
--></g></svg>