<?xml version="1.0" encoding="UTF-8" standalone="no"?><svg xmlns="http://www.w3.org/2000/svg" xmlns:xlink="http://www.w3.org/1999/xlink" contentScriptType="application/ecmascript" contentStyleType="text/css" height="127.5px" preserveAspectRatio="none" style="width:616px;height:127px;" version="1.1" viewBox="0 0 616 127" width="616.25px" zoomAndPan="magnify"><defs><filter height="300%" id="fi5dwpdvdvj4q" width="300%" x="-1" y="-1"><feGaussianBlur result="blurOut" stdDeviation="2.5"/><feColorMatrix in="blurOut" result="blurOut2" type="matrix" values="0 0 0 0 0 0 0 0 0 0 0 0 0 0 0 0 0 0 .4 0"/><feOffset dx="5.0" dy="5.0" in="blurOut2" result="blurOut3"/><feBlend in="SourceGraphic" in2="blurOut3" mode="normal"/></filter></defs><g><!--MD5=[99b8db98afdc2c8404e39242ef4c1e65]
class Platform--><rect codeLine="5" fill="#FEFECE" filter="url(#fi5dwpdvdvj4q)" height="50" id="Platform" style="stroke:#A80036;stroke-width:1.875;" width="97.5" x="8.75" y="35"/><ellipse cx="27.5" cy="55" fill="#ADD1B2" rx="13.75" ry="13.75" style="stroke:#A80036;stroke-width:1.25;"/><path d="M30,50.625 Q30.2539,50 30.5469,49.6875 Q30.8398,49.375 31.1719,49.375 Q31.7578,49.375 32.1289,49.7266 Q32.5,50.0781 32.5,50.8984 L32.5,52.8516 Q32.5,53.6719 32.1484,54.0234 Q31.7969,54.375 31.25,54.375 Q30.7617,54.375 30.4492,54.1602 Q30.1367,53.9453 30,53.3789 Q29.9414,52.9883 29.7266,52.7734 Q29.3359,52.3633 28.6328,52.1289 Q27.9297,51.875 27.2266,51.875 Q26.3477,51.875 25.6055,52.2266 Q24.8828,52.5781 24.3164,53.3594 Q23.75,54.1406 23.75,55.2148 L23.75,56.3672 Q23.75,57.6563 24.8047,58.5156 Q25.8594,59.375 27.7344,59.375 Q28.8477,59.375 29.6289,59.1211 Q30.0781,58.9844 30.5859,58.5352 Q30.918,58.2813 31.0938,58.2031 Q31.2695,58.125 31.4844,58.125 Q31.8945,58.125 32.1875,58.457 Q32.5,58.7695 32.5,59.2188 Q32.5,59.6484 32.0703,60.1563 Q31.4453,60.8984 30.4492,61.3086 Q29.1406,61.875 27.5391,61.875 Q25.6641,61.875 24.1602,61.1328 Q22.9492,60.5469 22.0898,59.2773 Q21.25,58.0078 21.25,56.5039 L21.25,55.1367 Q21.25,53.5742 21.9922,52.207 Q22.7539,50.8398 24.0625,50.1172 Q25.3906,49.375 26.875,49.375 Q27.7734,49.375 28.5547,49.6875 Q29.3359,50 30,50.625 Z " fill="#000000"/><text fill="#000000" font-family="sans-serif" font-size="15" lengthAdjust="spacingAndGlyphs" textLength="57.5" x="45" y="61.1377">Platform</text><line style="stroke:#A80036;stroke-width:1.875;" x1="10" x2="105" y1="75" y2="75"/><!--MD5=[3fd616f346a44cd59a91eb10b19e157c]
class User--><rect codeLine="7" fill="#FEFECE" filter="url(#fi5dwpdvdvj4q)" height="101.8848" id="User" style="stroke:#A80036;stroke-width:1.875;" width="153.75" x="445" y="8.75"/><ellipse cx="499.75" cy="28.75" fill="#ADD1B2" rx="13.75" ry="13.75" style="stroke:#A80036;stroke-width:1.25;"/><path d="M502.25,24.375 Q502.5039,23.75 502.7969,23.4375 Q503.0898,23.125 503.4219,23.125 Q504.0078,23.125 504.3789,23.4766 Q504.75,23.8281 504.75,24.6484 L504.75,26.6016 Q504.75,27.4219 504.3984,27.7734 Q504.0469,28.125 503.5,28.125 Q503.0117,28.125 502.6992,27.9102 Q502.3867,27.6953 502.25,27.1289 Q502.1914,26.7383 501.9766,26.5234 Q501.5859,26.1133 500.8828,25.8789 Q500.1797,25.625 499.4766,25.625 Q498.5977,25.625 497.8555,25.9766 Q497.1328,26.3281 496.5664,27.1094 Q496,27.8906 496,28.9648 L496,30.1172 Q496,31.4063 497.0547,32.2656 Q498.1094,33.125 499.9844,33.125 Q501.0977,33.125 501.8789,32.8711 Q502.3281,32.7344 502.8359,32.2852 Q503.168,32.0313 503.3438,31.9531 Q503.5195,31.875 503.7344,31.875 Q504.1445,31.875 504.4375,32.207 Q504.75,32.5195 504.75,32.9688 Q504.75,33.3984 504.3203,33.9063 Q503.6953,34.6484 502.6992,35.0586 Q501.3906,35.625 499.7891,35.625 Q497.9141,35.625 496.4102,34.8828 Q495.1992,34.2969 494.3398,33.0273 Q493.5,31.7578 493.5,30.2539 L493.5,28.8867 Q493.5,27.3242 494.2422,25.957 Q495.0039,24.5898 496.3125,23.8672 Q497.6406,23.125 499.125,23.125 Q500.0234,23.125 500.8047,23.4375 Q501.5859,23.75 502.25,24.375 Z " fill="#000000"/><text fill="#000000" font-family="sans-serif" font-size="15" lengthAdjust="spacingAndGlyphs" textLength="33.75" x="525.25" y="34.8877">User</text><line style="stroke:#A80036;stroke-width:1.875;" x1="446.25" x2="597.5" y1="48.75" y2="48.75"/><rect fill="none" height="7.5" style="stroke:#C82930;stroke-width:1.25;" width="7.5" x="455" y="58.75"/><text fill="#000000" font-family="sans-serif" font-size="13.75" lengthAdjust="spacingAndGlyphs" textLength="71.25" x="470" y="68.0237">name String</text><rect fill="none" height="7.5" style="stroke:#C82930;stroke-width:1.25;" width="7.5" x="455" y="76.0449"/><text fill="#000000" font-family="sans-serif" font-size="13.75" lengthAdjust="spacingAndGlyphs" textLength="121.25" x="470" y="85.3186">emailAddress String</text><rect fill="none" height="7.5" style="stroke:#C82930;stroke-width:1.25;" width="7.5" x="455" y="93.3398"/><text fill="#000000" font-family="sans-serif" font-size="13.75" lengthAdjust="spacingAndGlyphs" textLength="101.25" x="470" y="102.6135">password String</text><!--MD5=[ed6624c6556d5e7b1bd23032162d20b7]
class Client--><rect codeLine="13" fill="#FEFECE" filter="url(#fi5dwpdvdvj4q)" height="50" id="Client" style="stroke:#A80036;stroke-width:1.875;" width="80" x="226.25" y="35"/><ellipse cx="245" cy="55" fill="#ADD1B2" rx="13.75" ry="13.75" style="stroke:#A80036;stroke-width:1.25;"/><path d="M247.5,50.625 Q247.7539,50 248.0469,49.6875 Q248.3398,49.375 248.6719,49.375 Q249.2578,49.375 249.6289,49.7266 Q250,50.0781 250,50.8984 L250,52.8516 Q250,53.6719 249.6484,54.0234 Q249.2969,54.375 248.75,54.375 Q248.2617,54.375 247.9492,54.1602 Q247.6367,53.9453 247.5,53.3789 Q247.4414,52.9883 247.2266,52.7734 Q246.8359,52.3633 246.1328,52.1289 Q245.4297,51.875 244.7266,51.875 Q243.8477,51.875 243.1055,52.2266 Q242.3828,52.5781 241.8164,53.3594 Q241.25,54.1406 241.25,55.2148 L241.25,56.3672 Q241.25,57.6563 242.3047,58.5156 Q243.3594,59.375 245.2344,59.375 Q246.3477,59.375 247.1289,59.1211 Q247.5781,58.9844 248.0859,58.5352 Q248.418,58.2813 248.5938,58.2031 Q248.7695,58.125 248.9844,58.125 Q249.3945,58.125 249.6875,58.457 Q250,58.7695 250,59.2188 Q250,59.6484 249.5703,60.1563 Q248.9453,60.8984 247.9492,61.3086 Q246.6406,61.875 245.0391,61.875 Q243.1641,61.875 241.6602,61.1328 Q240.4492,60.5469 239.5898,59.2773 Q238.75,58.0078 238.75,56.5039 L238.75,55.1367 Q238.75,53.5742 239.4922,52.207 Q240.2539,50.8398 241.5625,50.1172 Q242.8906,49.375 244.375,49.375 Q245.2734,49.375 246.0547,49.6875 Q246.8359,50 247.5,50.625 Z " fill="#000000"/><text fill="#000000" font-family="sans-serif" font-size="15" lengthAdjust="spacingAndGlyphs" textLength="40" x="262.5" y="61.1377">Client</text><line style="stroke:#A80036;stroke-width:1.875;" x1="227.5" x2="305" y1="75" y2="75"/><!--MD5=[6f4f5a959b7eecf0b4982552d890dec0]
link Platform to Client--><path codeLine="15" d="M106.5875,60 C142.8875,60 192.15,60 226.05,60 " fill="none" id="Platform-Client" style="stroke:#A80036;stroke-width:1.25;"/><polygon fill="#000000" points="156.25,48.9697,144.9436,45.2961,144.9436,52.6434,156.25,48.9697" style="stroke:#000000;stroke-width:1.25;"/><text fill="#000000" font-family="sans-serif" font-size="16.25" lengthAdjust="spacingAndGlyphs" textLength="26.25" x="161.25" y="55.6189">has</text><text fill="#000000" font-family="sans-serif" font-size="16.25" lengthAdjust="spacingAndGlyphs" textLength="8.75" x="116.1105" y="78.6893">1</text><text fill="#000000" font-family="sans-serif" font-size="16.25" lengthAdjust="spacingAndGlyphs" textLength="25" x="191.3334" y="78.7532">0..*</text><!--MD5=[9a8dc34b38f85b9f3fcdb440f4bffc6a]
link Client to User--><path codeLine="17" d="M306.5,60 C343.25,60 399.3125,60 444.8625,60 " fill="none" id="Client-User" style="stroke:#A80036;stroke-width:1.25;"/><polygon fill="#000000" points="356.25,48.9697,344.9436,45.2961,344.9436,52.6434,356.25,48.9697" style="stroke:#000000;stroke-width:1.25;"/><text fill="#000000" font-family="sans-serif" font-size="16.25" lengthAdjust="spacingAndGlyphs" textLength="45" x="361.25" y="55.6189">act as</text><text fill="#000000" font-family="sans-serif" font-size="16.25" lengthAdjust="spacingAndGlyphs" textLength="8.75" x="316.2617" y="79.1045">1</text><text fill="#000000" font-family="sans-serif" font-size="16.25" lengthAdjust="spacingAndGlyphs" textLength="8.75" x="426.1934" y="78.1519">1</text><!--MD5=[c117776bdcd919f0baf21fd1987bba08]
@startuml
hide methods
left to right direction


class Platform {}

class User {
    -name String
    -emailAddress String
    -password String
}

class Client {}

Platform "1" - - "0..*" Client: has >

Client "1" - - "1" User: act as >
@enduml

PlantUML version 1.2020.23(Sun Dec 13 19:14:58 GMT 2020)
(GPL source distribution)
Java Runtime: OpenJDK Runtime Environment
JVM: OpenJDK 64-Bit Server VM
Default Encoding: Cp1252
Language: pt
Country: PT
--></g></svg>