<?xml version="1.0" encoding="UTF-8" standalone="no"?><svg xmlns="http://www.w3.org/2000/svg" xmlns:xlink="http://www.w3.org/1999/xlink" contentScriptType="application/ecmascript" contentStyleType="text/css" height="430px" preserveAspectRatio="none" style="width:1140px;height:430px;" version="1.1" viewBox="0 0 1140 430" width="1140px" zoomAndPan="magnify"><defs><filter height="300%" id="f1ge6lwj0uxw2n" width="300%" x="-1" y="-1"><feGaussianBlur result="blurOut" stdDeviation="2.5"/><feColorMatrix in="blurOut" result="blurOut2" type="matrix" values="0 0 0 0 0 0 0 0 0 0 0 0 0 0 0 0 0 0 .4 0"/><feOffset dx="5.0" dy="5.0" in="blurOut2" result="blurOut3"/><feBlend in="SourceGraphic" in2="blurOut3" mode="normal"/></filter></defs><g><!--MD5=[c70876b204a2e0c24c89b8dde9d4901d]
class Geographical_location--><rect codeLine="4" fill="#FEFECE" filter="url(#f1ge6lwj0uxw2n)" height="84.5898" id="Geographical_location" style="stroke:#A80036;stroke-width:1.875;" width="195" x="927.5" y="259.375"/><ellipse cx="946.25" cy="279.375" fill="#ADD1B2" rx="13.75" ry="13.75" style="stroke:#A80036;stroke-width:1.25;"/><path d="M948.75,275 Q949.0039,274.375 949.2969,274.0625 Q949.5898,273.75 949.9219,273.75 Q950.5078,273.75 950.8789,274.1016 Q951.25,274.4531 951.25,275.2734 L951.25,277.2266 Q951.25,278.0469 950.8984,278.3984 Q950.5469,278.75 950,278.75 Q949.5117,278.75 949.1992,278.5352 Q948.8867,278.3203 948.75,277.7539 Q948.6914,277.3633 948.4766,277.1484 Q948.0859,276.7383 947.3828,276.5039 Q946.6797,276.25 945.9766,276.25 Q945.0977,276.25 944.3555,276.6016 Q943.6328,276.9531 943.0664,277.7344 Q942.5,278.5156 942.5,279.5898 L942.5,280.7422 Q942.5,282.0313 943.5547,282.8906 Q944.6094,283.75 946.4844,283.75 Q947.5977,283.75 948.3789,283.4961 Q948.8281,283.3594 949.3359,282.9102 Q949.668,282.6563 949.8438,282.5781 Q950.0195,282.5 950.2344,282.5 Q950.6445,282.5 950.9375,282.832 Q951.25,283.1445 951.25,283.5938 Q951.25,284.0234 950.8203,284.5313 Q950.1953,285.2734 949.1992,285.6836 Q947.8906,286.25 946.2891,286.25 Q944.4141,286.25 942.9102,285.5078 Q941.6992,284.9219 940.8398,283.6523 Q940,282.3828 940,280.8789 L940,279.5117 Q940,277.9492 940.7422,276.582 Q941.5039,275.2148 942.8125,274.4922 Q944.1406,273.75 945.625,273.75 Q946.5234,273.75 947.3047,274.0625 Q948.0859,274.375 948.75,275 Z " fill="#000000"/><text fill="#000000" font-family="sans-serif" font-size="15" lengthAdjust="spacing" textLength="155" x="963.75" y="285.5127">Geographical_location</text><line style="stroke:#A80036;stroke-width:1.875;" x1="928.75" x2="1121.25" y1="299.375" y2="299.375"/><rect fill="none" height="7.5" style="stroke:#C82930;stroke-width:1.25;" width="7.5" x="937.5" y="309.375"/><text fill="#000000" font-family="sans-serif" font-size="13.75" lengthAdjust="spacing" textLength="98.75" x="952.5" y="318.6487">Double longitude</text><rect fill="none" height="7.5" style="stroke:#C82930;stroke-width:1.25;" width="7.5" x="937.5" y="326.6699"/><text fill="#000000" font-family="sans-serif" font-size="13.75" lengthAdjust="spacing" textLength="87.5" x="952.5" y="335.9436">Double latitude</text><!--MD5=[0b4e4b4980470ea387cc45de9bd14b5b]
class Application--><rect codeLine="8" fill="#FEFECE" filter="url(#f1ge6lwj0uxw2n)" height="50" id="Application" style="stroke:#A80036;stroke-width:1.875;" width="115" x="8.75" y="46.875"/><ellipse cx="27.5" cy="66.875" fill="#ADD1B2" rx="13.75" ry="13.75" style="stroke:#A80036;stroke-width:1.25;"/><path d="M30,62.5 Q30.2539,61.875 30.5469,61.5625 Q30.8398,61.25 31.1719,61.25 Q31.7578,61.25 32.1289,61.6016 Q32.5,61.9531 32.5,62.7734 L32.5,64.7266 Q32.5,65.5469 32.1484,65.8984 Q31.7969,66.25 31.25,66.25 Q30.7617,66.25 30.4492,66.0352 Q30.1367,65.8203 30,65.2539 Q29.9414,64.8633 29.7266,64.6484 Q29.3359,64.2383 28.6328,64.0039 Q27.9297,63.75 27.2266,63.75 Q26.3477,63.75 25.6055,64.1016 Q24.8828,64.4531 24.3164,65.2344 Q23.75,66.0156 23.75,67.0898 L23.75,68.2422 Q23.75,69.5313 24.8047,70.3906 Q25.8594,71.25 27.7344,71.25 Q28.8477,71.25 29.6289,70.9961 Q30.0781,70.8594 30.5859,70.4102 Q30.918,70.1563 31.0938,70.0781 Q31.2695,70 31.4844,70 Q31.8945,70 32.1875,70.332 Q32.5,70.6445 32.5,71.0938 Q32.5,71.5234 32.0703,72.0313 Q31.4453,72.7734 30.4492,73.1836 Q29.1406,73.75 27.5391,73.75 Q25.6641,73.75 24.1602,73.0078 Q22.9492,72.4219 22.0898,71.1523 Q21.25,69.8828 21.25,68.3789 L21.25,67.0117 Q21.25,65.4492 21.9922,64.082 Q22.7539,62.7148 24.0625,61.9922 Q25.3906,61.25 26.875,61.25 Q27.7734,61.25 28.5547,61.5625 Q29.3359,61.875 30,62.5 Z " fill="#000000"/><text fill="#000000" font-family="sans-serif" font-size="15" lengthAdjust="spacing" textLength="75" x="45" y="73.0127">Application</text><line style="stroke:#A80036;stroke-width:1.875;" x1="10" x2="122.5" y1="86.875" y2="86.875"/><!--MD5=[9e1ff69c5e4d619d80a29d55e5d1e948]
class Pharmacy_Administrator--><rect codeLine="10" fill="#FEFECE" filter="url(#f1ge6lwj0uxw2n)" height="119.1797" id="Pharmacy_Administrator" style="stroke:#A80036;stroke-width:1.875;" width="208.75" x="571.25" y="8.75"/><ellipse cx="590" cy="28.75" fill="#ADD1B2" rx="13.75" ry="13.75" style="stroke:#A80036;stroke-width:1.25;"/><path d="M592.5,24.375 Q592.7539,23.75 593.0469,23.4375 Q593.3398,23.125 593.6719,23.125 Q594.2578,23.125 594.6289,23.4766 Q595,23.8281 595,24.6484 L595,26.6016 Q595,27.4219 594.6484,27.7734 Q594.2969,28.125 593.75,28.125 Q593.2617,28.125 592.9492,27.9102 Q592.6367,27.6953 592.5,27.1289 Q592.4414,26.7383 592.2266,26.5234 Q591.8359,26.1133 591.1328,25.8789 Q590.4297,25.625 589.7266,25.625 Q588.8477,25.625 588.1055,25.9766 Q587.3828,26.3281 586.8164,27.1094 Q586.25,27.8906 586.25,28.9648 L586.25,30.1172 Q586.25,31.4063 587.3047,32.2656 Q588.3594,33.125 590.2344,33.125 Q591.3477,33.125 592.1289,32.8711 Q592.5781,32.7344 593.0859,32.2852 Q593.418,32.0313 593.5938,31.9531 Q593.7695,31.875 593.9844,31.875 Q594.3945,31.875 594.6875,32.207 Q595,32.5195 595,32.9688 Q595,33.3984 594.5703,33.9063 Q593.9453,34.6484 592.9492,35.0586 Q591.6406,35.625 590.0391,35.625 Q588.1641,35.625 586.6602,34.8828 Q585.4492,34.2969 584.5898,33.0273 Q583.75,31.7578 583.75,30.2539 L583.75,28.8867 Q583.75,27.3242 584.4922,25.957 Q585.2539,24.5898 586.5625,23.8672 Q587.8906,23.125 589.375,23.125 Q590.2734,23.125 591.0547,23.4375 Q591.8359,23.75 592.5,24.375 Z " fill="#000000"/><text fill="#000000" font-family="sans-serif" font-size="15" lengthAdjust="spacing" textLength="168.75" x="607.5" y="34.8877">Pharmacy_Administrator</text><line style="stroke:#A80036;stroke-width:1.875;" x1="572.5" x2="778.75" y1="48.75" y2="48.75"/><rect fill="none" height="7.5" style="stroke:#C82930;stroke-width:1.25;" width="7.5" x="581.25" y="58.75"/><text fill="#000000" font-family="sans-serif" font-size="13.75" lengthAdjust="spacing" textLength="55" x="596.25" y="68.0237">Integer id</text><rect fill="none" height="7.5" style="stroke:#C82930;stroke-width:1.25;" width="7.5" x="581.25" y="76.0449"/><text fill="#000000" font-family="sans-serif" font-size="13.75" lengthAdjust="spacing" textLength="71.25" x="596.25" y="85.3186">String name</text><rect fill="none" height="7.5" style="stroke:#C82930;stroke-width:1.25;" width="7.5" x="581.25" y="93.3398"/><text fill="#000000" font-family="sans-serif" font-size="13.75" lengthAdjust="spacing" textLength="121.25" x="596.25" y="102.6135">String emailAddress</text><rect fill="none" height="7.5" style="stroke:#C82930;stroke-width:1.25;" width="7.5" x="581.25" y="110.6348"/><text fill="#000000" font-family="sans-serif" font-size="13.75" lengthAdjust="spacing" textLength="101.25" x="596.25" y="119.9084">String password</text><!--MD5=[0f39e4cb6f03951afbf6d14bd2505654]
class Address--><rect codeLine="47" fill="#FEFECE" filter="url(#f1ge6lwj0uxw2n)" height="222.9492" id="Address" style="stroke:#A80036;stroke-width:1.875;" width="151.25" x="600" y="190.625"/><ellipse cx="642.9375" cy="210.625" fill="#ADD1B2" rx="13.75" ry="13.75" style="stroke:#A80036;stroke-width:1.25;"/><path d="M645.4375,206.25 Q645.6914,205.625 645.9844,205.3125 Q646.2773,205 646.6094,205 Q647.1953,205 647.5664,205.3516 Q647.9375,205.7031 647.9375,206.5234 L647.9375,208.4766 Q647.9375,209.2969 647.5859,209.6484 Q647.2344,210 646.6875,210 Q646.1992,210 645.8867,209.7852 Q645.5742,209.5703 645.4375,209.0039 Q645.3789,208.6133 645.1641,208.3984 Q644.7734,207.9883 644.0703,207.7539 Q643.3672,207.5 642.6641,207.5 Q641.7852,207.5 641.043,207.8516 Q640.3203,208.2031 639.7539,208.9844 Q639.1875,209.7656 639.1875,210.8398 L639.1875,211.9922 Q639.1875,213.2813 640.2422,214.1406 Q641.2969,215 643.1719,215 Q644.2852,215 645.0664,214.7461 Q645.5156,214.6094 646.0234,214.1602 Q646.3555,213.9063 646.5313,213.8281 Q646.707,213.75 646.9219,213.75 Q647.332,213.75 647.625,214.082 Q647.9375,214.3945 647.9375,214.8438 Q647.9375,215.2734 647.5078,215.7813 Q646.8828,216.5234 645.8867,216.9336 Q644.5781,217.5 642.9766,217.5 Q641.1016,217.5 639.5977,216.7578 Q638.3867,216.1719 637.5273,214.9023 Q636.6875,213.6328 636.6875,212.1289 L636.6875,210.7617 Q636.6875,209.1992 637.4297,207.832 Q638.1914,206.4648 639.5,205.7422 Q640.8281,205 642.3125,205 Q643.2109,205 643.9922,205.3125 Q644.7734,205.625 645.4375,206.25 Z " fill="#000000"/><text fill="#000000" font-family="sans-serif" font-size="15" lengthAdjust="spacing" textLength="57.5" x="665.8125" y="216.7627">Address</text><line style="stroke:#A80036;stroke-width:1.875;" x1="601.25" x2="750" y1="230.625" y2="230.625"/><rect fill="none" height="7.5" style="stroke:#C82930;stroke-width:1.25;" width="7.5" x="610" y="240.625"/><text fill="#000000" font-family="sans-serif" font-size="13.75" lengthAdjust="spacing" textLength="55" x="625" y="249.8987">Integer id</text><rect fill="none" height="7.5" style="stroke:#C82930;stroke-width:1.25;" width="7.5" x="610" y="257.9199"/><text fill="#000000" font-family="sans-serif" font-size="13.75" lengthAdjust="spacing" textLength="73.75" x="625" y="267.1936">String street</text><rect fill="none" height="7.5" style="stroke:#C82930;stroke-width:1.25;" width="7.5" x="610" y="275.2148"/><text fill="#000000" font-family="sans-serif" font-size="13.75" lengthAdjust="spacing" textLength="118.75" x="625" y="284.4885">Integer doorNumber</text><rect fill="none" height="7.5" style="stroke:#C82930;stroke-width:1.25;" width="7.5" x="610" y="292.5098"/><text fill="#000000" font-family="sans-serif" font-size="13.75" lengthAdjust="spacing" textLength="60" x="625" y="301.7834">String city</text><rect fill="none" height="7.5" style="stroke:#C82930;stroke-width:1.25;" width="7.5" x="610" y="309.8047"/><text fill="#000000" font-family="sans-serif" font-size="13.75" lengthAdjust="spacing" textLength="85" x="625" y="319.0784">String country</text><rect fill="none" height="7.5" style="stroke:#C82930;stroke-width:1.25;" width="7.5" x="610" y="327.0996"/><text fill="#000000" font-family="sans-serif" font-size="13.75" lengthAdjust="spacing" textLength="55" x="625" y="336.3733">Integer id</text><rect fill="none" height="7.5" style="stroke:#C82930;stroke-width:1.25;" width="7.5" x="610" y="344.3945"/><text fill="#000000" font-family="sans-serif" font-size="13.75" lengthAdjust="spacing" textLength="73.75" x="625" y="353.6682">String street</text><rect fill="none" height="7.5" style="stroke:#C82930;stroke-width:1.25;" width="7.5" x="610" y="361.6895"/><text fill="#000000" font-family="sans-serif" font-size="13.75" lengthAdjust="spacing" textLength="118.75" x="625" y="370.9631">Integer doorNumber</text><rect fill="none" height="7.5" style="stroke:#C82930;stroke-width:1.25;" width="7.5" x="610" y="378.9844"/><text fill="#000000" font-family="sans-serif" font-size="13.75" lengthAdjust="spacing" textLength="60" x="625" y="388.2581">String city</text><rect fill="none" height="7.5" style="stroke:#C82930;stroke-width:1.25;" width="7.5" x="610" y="396.2793"/><text fill="#000000" font-family="sans-serif" font-size="13.75" lengthAdjust="spacing" textLength="85" x="625" y="405.553">String country</text><!--MD5=[7f2a9fafcebe4f099f71398fd3e2ed00]
class Pharmacy--><rect codeLine="24" fill="#FEFECE" filter="url(#f1ge6lwj0uxw2n)" height="101.8848" id="Pharmacy" style="stroke:#A80036;stroke-width:1.875;" width="140" x="263.75" y="89.375"/><ellipse cx="296.5625" cy="109.375" fill="#ADD1B2" rx="13.75" ry="13.75" style="stroke:#A80036;stroke-width:1.25;"/><path d="M299.0625,105 Q299.3164,104.375 299.6094,104.0625 Q299.9023,103.75 300.2344,103.75 Q300.8203,103.75 301.1914,104.1016 Q301.5625,104.4531 301.5625,105.2734 L301.5625,107.2266 Q301.5625,108.0469 301.2109,108.3984 Q300.8594,108.75 300.3125,108.75 Q299.8242,108.75 299.5117,108.5352 Q299.1992,108.3203 299.0625,107.7539 Q299.0039,107.3633 298.7891,107.1484 Q298.3984,106.7383 297.6953,106.5039 Q296.9922,106.25 296.2891,106.25 Q295.4102,106.25 294.668,106.6016 Q293.9453,106.9531 293.3789,107.7344 Q292.8125,108.5156 292.8125,109.5898 L292.8125,110.7422 Q292.8125,112.0313 293.8672,112.8906 Q294.9219,113.75 296.7969,113.75 Q297.9102,113.75 298.6914,113.4961 Q299.1406,113.3594 299.6484,112.9102 Q299.9805,112.6563 300.1563,112.5781 Q300.332,112.5 300.5469,112.5 Q300.957,112.5 301.25,112.832 Q301.5625,113.1445 301.5625,113.5938 Q301.5625,114.0234 301.1328,114.5313 Q300.5078,115.2734 299.5117,115.6836 Q298.2031,116.25 296.6016,116.25 Q294.7266,116.25 293.2227,115.5078 Q292.0117,114.9219 291.1523,113.6523 Q290.3125,112.3828 290.3125,110.8789 L290.3125,109.5117 Q290.3125,107.9492 291.0547,106.582 Q291.8164,105.2148 293.125,104.4922 Q294.4531,103.75 295.9375,103.75 Q296.8359,103.75 297.6172,104.0625 Q298.3984,104.375 299.0625,105 Z " fill="#000000"/><text fill="#000000" font-family="sans-serif" font-size="15" lengthAdjust="spacing" textLength="68.75" x="317.1875" y="115.5127">Pharmacy</text><line style="stroke:#A80036;stroke-width:1.875;" x1="265" x2="402.5" y1="129.375" y2="129.375"/><rect fill="none" height="7.5" style="stroke:#C82930;stroke-width:1.25;" width="7.5" x="273.75" y="139.375"/><text fill="#000000" font-family="sans-serif" font-size="13.75" lengthAdjust="spacing" textLength="55" x="288.75" y="148.6487">Integer id</text><rect fill="none" height="7.5" style="stroke:#C82930;stroke-width:1.25;" width="7.5" x="273.75" y="156.6699"/><text fill="#000000" font-family="sans-serif" font-size="13.75" lengthAdjust="spacing" textLength="107.5" x="288.75" y="165.9436">String designation</text><rect fill="none" height="7.5" style="stroke:#C82930;stroke-width:1.25;" width="7.5" x="273.75" y="173.9648"/><text fill="#000000" font-family="sans-serif" font-size="13.75" lengthAdjust="spacing" textLength="53.75" x="288.75" y="183.2385">String nif</text><!--MD5=[ed6624c6556d5e7b1bd23032162d20b7]
class Client--><rect codeLine="29" fill="#FEFECE" filter="url(#f1ge6lwj0uxw2n)" height="171.0645" id="Client" style="stroke:#A80036;stroke-width:1.875;" width="180" x="243.75" y="236.25"/><ellipse cx="308.4375" cy="256.25" fill="#ADD1B2" rx="13.75" ry="13.75" style="stroke:#A80036;stroke-width:1.25;"/><path d="M310.9375,251.875 Q311.1914,251.25 311.4844,250.9375 Q311.7773,250.625 312.1094,250.625 Q312.6953,250.625 313.0664,250.9766 Q313.4375,251.3281 313.4375,252.1484 L313.4375,254.1016 Q313.4375,254.9219 313.0859,255.2734 Q312.7344,255.625 312.1875,255.625 Q311.6992,255.625 311.3867,255.4102 Q311.0742,255.1953 310.9375,254.6289 Q310.8789,254.2383 310.6641,254.0234 Q310.2734,253.6133 309.5703,253.3789 Q308.8672,253.125 308.1641,253.125 Q307.2852,253.125 306.543,253.4766 Q305.8203,253.8281 305.2539,254.6094 Q304.6875,255.3906 304.6875,256.4648 L304.6875,257.6172 Q304.6875,258.9063 305.7422,259.7656 Q306.7969,260.625 308.6719,260.625 Q309.7852,260.625 310.5664,260.3711 Q311.0156,260.2344 311.5234,259.7852 Q311.8555,259.5313 312.0313,259.4531 Q312.207,259.375 312.4219,259.375 Q312.832,259.375 313.125,259.707 Q313.4375,260.0195 313.4375,260.4688 Q313.4375,260.8984 313.0078,261.4063 Q312.3828,262.1484 311.3867,262.5586 Q310.0781,263.125 308.4766,263.125 Q306.6016,263.125 305.0977,262.3828 Q303.8867,261.7969 303.0273,260.5273 Q302.1875,259.2578 302.1875,257.7539 L302.1875,256.3867 Q302.1875,254.8242 302.9297,253.457 Q303.6914,252.0898 305,251.3672 Q306.3281,250.625 307.8125,250.625 Q308.7109,250.625 309.4922,250.9375 Q310.2734,251.25 310.9375,251.875 Z " fill="#000000"/><text fill="#000000" font-family="sans-serif" font-size="15" lengthAdjust="spacing" textLength="40" x="334.0625" y="262.3877">Client</text><line style="stroke:#A80036;stroke-width:1.875;" x1="245" x2="422.5" y1="276.25" y2="276.25"/><rect fill="none" height="7.5" style="stroke:#C82930;stroke-width:1.25;" width="7.5" x="253.75" y="286.25"/><text fill="#000000" font-family="sans-serif" font-size="13.75" lengthAdjust="spacing" textLength="55" x="268.75" y="295.5237">Integer id</text><rect fill="none" height="7.5" style="stroke:#C82930;stroke-width:1.25;" width="7.5" x="253.75" y="303.5449"/><text fill="#000000" font-family="sans-serif" font-size="13.75" lengthAdjust="spacing" textLength="71.25" x="268.75" y="312.8186">String name</text><rect fill="none" height="7.5" style="stroke:#C82930;stroke-width:1.25;" width="7.5" x="253.75" y="320.8398"/><text fill="#000000" font-family="sans-serif" font-size="13.75" lengthAdjust="spacing" textLength="121.25" x="268.75" y="330.1135">String emailAddress</text><rect fill="none" height="7.5" style="stroke:#C82930;stroke-width:1.25;" width="7.5" x="253.75" y="338.1348"/><text fill="#000000" font-family="sans-serif" font-size="13.75" lengthAdjust="spacing" textLength="101.25" x="268.75" y="347.4084">String password</text><rect fill="none" height="7.5" style="stroke:#C82930;stroke-width:1.25;" width="7.5" x="253.75" y="355.4297"/><text fill="#000000" font-family="sans-serif" font-size="13.75" lengthAdjust="spacing" textLength="96.25" x="268.75" y="364.7034">String cellphone</text><rect fill="none" height="7.5" style="stroke:#C82930;stroke-width:1.25;" width="7.5" x="253.75" y="372.7246"/><text fill="#000000" font-family="sans-serif" font-size="13.75" lengthAdjust="spacing" textLength="60" x="268.75" y="381.9983">Integer nif</text><rect fill="none" height="7.5" style="stroke:#C82930;stroke-width:1.25;" width="7.5" x="253.75" y="390.0195"/><text fill="#000000" font-family="sans-serif" font-size="13.75" lengthAdjust="spacing" textLength="147.5" x="268.75" y="399.2932">Integer numberOfCredits</text><!--MD5=[3fd616f346a44cd59a91eb10b19e157c]
class User--><rect codeLine="40" fill="#FEFECE" filter="url(#f1ge6lwj0uxw2n)" height="119.1797" id="User" style="stroke:#A80036;stroke-width:1.875;" width="153.75" x="948.125" y="8.75"/><ellipse cx="1002.875" cy="28.75" fill="#ADD1B2" rx="13.75" ry="13.75" style="stroke:#A80036;stroke-width:1.25;"/><path d="M1005.375,24.375 Q1005.6289,23.75 1005.9219,23.4375 Q1006.2148,23.125 1006.5469,23.125 Q1007.1328,23.125 1007.5039,23.4766 Q1007.875,23.8281 1007.875,24.6484 L1007.875,26.6016 Q1007.875,27.4219 1007.5234,27.7734 Q1007.1719,28.125 1006.625,28.125 Q1006.1367,28.125 1005.8242,27.9102 Q1005.5117,27.6953 1005.375,27.1289 Q1005.3164,26.7383 1005.1016,26.5234 Q1004.7109,26.1133 1004.0078,25.8789 Q1003.3047,25.625 1002.6016,25.625 Q1001.7227,25.625 1000.9805,25.9766 Q1000.2578,26.3281 999.6914,27.1094 Q999.125,27.8906 999.125,28.9648 L999.125,30.1172 Q999.125,31.4063 1000.1797,32.2656 Q1001.2344,33.125 1003.1094,33.125 Q1004.2227,33.125 1005.0039,32.8711 Q1005.4531,32.7344 1005.9609,32.2852 Q1006.293,32.0313 1006.4688,31.9531 Q1006.6445,31.875 1006.8594,31.875 Q1007.2695,31.875 1007.5625,32.207 Q1007.875,32.5195 1007.875,32.9688 Q1007.875,33.3984 1007.4453,33.9063 Q1006.8203,34.6484 1005.8242,35.0586 Q1004.5156,35.625 1002.9141,35.625 Q1001.0391,35.625 999.5352,34.8828 Q998.3242,34.2969 997.4648,33.0273 Q996.625,31.7578 996.625,30.2539 L996.625,28.8867 Q996.625,27.3242 997.3672,25.957 Q998.1289,24.5898 999.4375,23.8672 Q1000.7656,23.125 1002.25,23.125 Q1003.1484,23.125 1003.9297,23.4375 Q1004.7109,23.75 1005.375,24.375 Z " fill="#000000"/><text fill="#000000" font-family="sans-serif" font-size="15" lengthAdjust="spacing" textLength="33.75" x="1028.375" y="34.8877">User</text><line style="stroke:#A80036;stroke-width:1.875;" x1="949.375" x2="1100.625" y1="48.75" y2="48.75"/><rect fill="none" height="7.5" style="stroke:#C82930;stroke-width:1.25;" width="7.5" x="958.125" y="58.75"/><text fill="#000000" font-family="sans-serif" font-size="13.75" lengthAdjust="spacing" textLength="55" x="973.125" y="68.0237">Integer id</text><rect fill="none" height="7.5" style="stroke:#C82930;stroke-width:1.25;" width="7.5" x="958.125" y="76.0449"/><text fill="#000000" font-family="sans-serif" font-size="13.75" lengthAdjust="spacing" textLength="71.25" x="973.125" y="85.3186">String name</text><rect fill="none" height="7.5" style="stroke:#C82930;stroke-width:1.25;" width="7.5" x="958.125" y="93.3398"/><text fill="#000000" font-family="sans-serif" font-size="13.75" lengthAdjust="spacing" textLength="121.25" x="973.125" y="102.6135">String emailAddress</text><rect fill="none" height="7.5" style="stroke:#C82930;stroke-width:1.25;" width="7.5" x="958.125" y="110.6348"/><text fill="#000000" font-family="sans-serif" font-size="13.75" lengthAdjust="spacing" textLength="101.25" x="973.125" y="119.9084">String password</text><!--MD5=[e280c6bc1e4a1413488b6d337794dddf]
link Application to Pharmacy_Administrator--><path codeLine="56" d="M123.9875,67.5 C136.2625,66.7125 149.1875,66.025 161.25,65.625 C181.2375,64.9625 186.25,65.575 206.25,65.625 C331.8125,65.9625 476.325,66.8 571.175,67.4125 " fill="none" id="Application-Pharmacy_Administrator" style="stroke:#A80036;stroke-width:1.25;"/><polygon fill="#000000" points="323.75,55.8435,312.4429,52.1721,312.4444,59.5194,323.75,55.8435" style="stroke:#000000;stroke-width:1.25;"/><text fill="#000000" font-family="sans-serif" font-size="16.25" lengthAdjust="spacing" textLength="26.25" x="328.75" y="62.4939">has</text><text fill="#000000" font-family="sans-serif" font-size="16.25" lengthAdjust="spacing" textLength="8.75" x="133.8867" y="62.1129">1</text><text fill="#000000" font-family="sans-serif" font-size="16.25" lengthAdjust="spacing" textLength="8.75" x="552.3927" y="85.138">1</text><!--MD5=[8c7e2cb836a61414bf9f02282664f603]
link Application to Pharmacy--><path codeLine="57" d="M124.025,86.5375 C164.7625,97.1125 219.975,111.4375 263.3375,122.6875 " fill="none" id="Application-Pharmacy" style="stroke:#A80036;stroke-width:1.25;"/><polygon fill="#000000" points="173.5496,88.6645,163.5284,82.2688,161.683,89.3806,173.5496,88.6645" style="stroke:#000000;stroke-width:1.25;"/><text fill="#000000" font-family="sans-serif" font-size="16.25" lengthAdjust="spacing" textLength="26.25" x="178.75" y="93.7439">has</text><text fill="#000000" font-family="sans-serif" font-size="16.25" lengthAdjust="spacing" textLength="8.75" x="133.9302" y="107.372">1</text><text fill="#000000" font-family="sans-serif" font-size="16.25" lengthAdjust="spacing" textLength="8.75" x="245.0054" y="138.607">1</text><!--MD5=[eb5852dbc47d71c866826fa2c15b0146]
link Pharmacy_Administrator to User--><path codeLine="59" d="M780.0125,68.125 C833.925,68.125 898.7625,68.125 948,68.125 " fill="none" id="Pharmacy_Administrator-User" style="stroke:#A80036;stroke-width:1.25;"/><polygon fill="#000000" points="830,57.0947,818.6936,53.4211,818.6936,60.7684,830,57.0947" style="stroke:#000000;stroke-width:1.25;"/><text fill="#000000" font-family="sans-serif" font-size="16.25" lengthAdjust="spacing" textLength="53.75" x="835" y="63.7439">acts as</text><text fill="#000000" font-family="sans-serif" font-size="16.25" lengthAdjust="spacing" textLength="8.75" x="790.039" y="85.9162">1</text><text fill="#000000" font-family="sans-serif" font-size="16.25" lengthAdjust="spacing" textLength="8.75" x="929.3324" y="86.2132">1</text><!--MD5=[638894ec2d9ff911e6ea5ccfcb87b30e]
link Pharmacy_Administrator to Pharmacy--><path codeLine="60" d="M579.375,127.6625 C564.575,134.5375 549.1,140.4875 533.75,144.375 C491.6,155.0625 442.8,154.325 404.1,150.8125 " fill="none" id="Pharmacy_Administrator-Pharmacy" style="stroke:#A80036;stroke-width:1.25;"/><polygon fill="#000000" points="461.3038,134.1631,472.9939,136.3247,472.0318,129.0406,461.3038,134.1631" style="stroke:#000000;stroke-width:1.25;"/><text fill="#000000" font-family="sans-serif" font-size="16.25" lengthAdjust="spacing" textLength="53.75" x="478.75" y="139.9939">creates</text><text fill="#000000" font-family="sans-serif" font-size="16.25" lengthAdjust="spacing" textLength="8.75" x="555.8457" y="154.7454">1</text><text fill="#000000" font-family="sans-serif" font-size="16.25" lengthAdjust="spacing" textLength="27.5" x="413.8241" y="170.0766">0..1</text><!--MD5=[4aa95f80be23a2d4fa77749a03bf17ff]
link Pharmacy to Pharmacy_Administrator--><path codeLine="64" d="M404.0875,125.8625 C452.15,115.6 517.0625,101.725 571.2375,90.1625 " fill="none" id="Pharmacy-Pharmacy_Administrator" style="stroke:#A80036;stroke-width:1.25;"/><polygon fill="#000000" points="487.3621,88.2893,475.5379,87.0582,477.0725,94.2435,487.3621,88.2893" style="stroke:#000000;stroke-width:1.25;"/><text fill="#000000" font-family="sans-serif" font-size="16.25" lengthAdjust="spacing" textLength="26.25" x="492.5" y="96.2439">has</text><text fill="#000000" font-family="sans-serif" font-size="16.25" lengthAdjust="spacing" textLength="8.75" x="413.66" y="142.1888">1</text><text fill="#000000" font-family="sans-serif" font-size="16.25" lengthAdjust="spacing" textLength="8.75" x="552.461" y="109.9853">1</text><!--MD5=[87abe4982b7c193a4084a229bf1bb342]
link Address to Geographical_location--><path codeLine="62" d="M751.2875,301.875 C802.75,301.875 871.7,301.875 927.3625,301.875 " fill="none" id="Address-Geographical_location" style="stroke:#A80036;stroke-width:1.25;"/><polygon fill="#000000" points="843.75,290.8447,832.4436,287.1711,832.4436,294.5184,843.75,290.8447" style="stroke:#000000;stroke-width:1.25;"/><text fill="#000000" font-family="sans-serif" font-size="16.25" lengthAdjust="spacing" textLength="26.25" x="848.75" y="297.4939">has</text><text fill="#000000" font-family="sans-serif" font-size="16.25" lengthAdjust="spacing" textLength="8.75" x="761.0421" y="319.9621">1</text><text fill="#000000" font-family="sans-serif" font-size="16.25" lengthAdjust="spacing" textLength="8.75" x="908.8894" y="319.7375">1</text><!--MD5=[89baec1bfb4a213750f7c61516e0a0f1]
link Pharmacy to Address--><path codeLine="65" d="M404.0875,173.45 C460.875,200.4375 541.175,238.5875 599.4875,266.3 " fill="none" id="Pharmacy-Address" style="stroke:#A80036;stroke-width:1.25;"/><polygon fill="#000000" points="486.8951,193.5272,478.2597,185.3565,475.1063,191.9927,486.8951,193.5272" style="stroke:#000000;stroke-width:1.25;"/><text fill="#000000" font-family="sans-serif" font-size="16.25" lengthAdjust="spacing" textLength="26.25" x="492.5" y="197.4939">has</text><text fill="#000000" font-family="sans-serif" font-size="16.25" lengthAdjust="spacing" textLength="8.75" x="413.66" y="195.8734">1</text><text fill="#000000" font-family="sans-serif" font-size="16.25" lengthAdjust="spacing" textLength="8.75" x="581.4282" y="280.2112">1</text><!--MD5=[bd708f2371c655af07b49ddbdb30848a]
link Client to Address--><path codeLine="67" d="M424.1625,316.625 C478.7625,313.4 547.8375,309.3375 599.575,306.2875 " fill="none" id="Client-Address" style="stroke:#A80036;stroke-width:1.25;"/><polygon fill="#000000" points="487.4892,299.227,475.9863,296.2249,476.4185,303.5595,487.4892,299.227" style="stroke:#000000;stroke-width:1.25;"/><text fill="#000000" font-family="sans-serif" font-size="16.25" lengthAdjust="spacing" textLength="26.25" x="492.5" y="306.2439">has</text><text fill="#000000" font-family="sans-serif" font-size="16.25" lengthAdjust="spacing" textLength="8.75" x="433.9375" y="334.016">1</text><text fill="#000000" font-family="sans-serif" font-size="16.25" lengthAdjust="spacing" textLength="8.75" x="581.0232" y="324.9123">1</text><!--MD5=[74e9a7640c5e8a34b0256bdbdd50b87b]
@startuml
hide methods
left to right direction

class Geographical_location {
    -Double longitude
    -Double latitude
}
class Application {}

class Pharmacy_Administrator {
    -Integer id
    -String name
    -String emailAddress
    -String password
}
class Address {
    -Integer id
    -String street
    -Integer doorNumber
    -String city
    -String country
}

class Pharmacy {
    -Integer id
    -String designation
    -String nif
}
class Client {
    -Integer id
    -String name
    -String emailAddress
    -String password
    -String cellphone
    -Integer nif
    -Integer numberOfCredits
}


class User {
    -Integer id
    -String name
    -String emailAddress
    -String password
}

class Address {
    -Integer id
    -String street
    -Integer doorNumber
    -String city
    -String country
}


Application "1" - - "1" Pharmacy_Administrator: has >
Application "1" - - "1" Pharmacy: has >

Pharmacy_Administrator "1" - - "1" User: acts as >
Pharmacy_Administrator "1" - - "0..1" Pharmacy: creates >

Address "1" - - "1" Geographical_location: has >

Pharmacy "1" - - "1" Pharmacy_Administrator: has >
Pharmacy "1" - - "1" Address: has >

Client "1" - - "1" Address: has >

@enduml

PlantUML version 1.2021.00(Sun Jan 10 10:25:05 GMT 2021)
(GPL source distribution)
Java Runtime: OpenJDK Runtime Environment
JVM: OpenJDK 64-Bit Server VM
Default Encoding: Cp1252
Language: pt
Country: PT
--></g></svg>