<?xml version="1.0" encoding="UTF-8" standalone="no"?><svg xmlns="http://www.w3.org/2000/svg" xmlns:xlink="http://www.w3.org/1999/xlink" contentScriptType="application/ecmascript" contentStyleType="text/css" height="340.56px" preserveAspectRatio="none" style="width:1650px;height:340px;" version="1.1" viewBox="0 0 1650 340" width="1650.88px" zoomAndPan="magnify"><defs><filter height="300%" id="f1areaa7jo8rax" width="300%" x="-1" y="-1"><feGaussianBlur result="blurOut" stdDeviation="1.76"/><feColorMatrix in="blurOut" result="blurOut2" type="matrix" values="0 0 0 0 0 0 0 0 0 0 0 0 0 0 0 0 0 0 .4 0"/><feOffset dx="3.52" dy="3.52" in="blurOut2" result="blurOut3"/><feBlend in="SourceGraphic" in2="blurOut3" mode="normal"/></filter></defs><g><!--MD5=[512b05421b334999ee114a369f0b4b7f]
class GetNearestPharmacyUI--><rect codeLine="4" fill="#FEFECE" filter="url(#f1areaa7jo8rax)" height="42.24" id="GetNearestPharmacyUI" style="stroke:#A80036;stroke-width:1.32;" width="142.56" x="6.16" y="204.16"/><ellipse cx="19.36" cy="218.24" fill="#ADD1B2" rx="9.68" ry="9.68" style="stroke:#A80036;stroke-width:0.88;"/><path d="M21.12,215.16 Q21.2988,214.72 21.505,214.5 Q21.7113,214.28 21.945,214.28 Q22.3575,214.28 22.6188,214.5275 Q22.88,214.775 22.88,215.3525 L22.88,216.7275 Q22.88,217.305 22.6325,217.5525 Q22.385,217.8 22,217.8 Q21.6563,217.8 21.4363,217.6488 Q21.2163,217.4975 21.12,217.0988 Q21.0788,216.8238 20.9275,216.6725 Q20.6525,216.3838 20.1575,216.2188 Q19.6625,216.04 19.1675,216.04 Q18.5488,216.04 18.0263,216.2875 Q17.5175,216.535 17.1188,217.085 Q16.72,217.635 16.72,218.3913 L16.72,219.2025 Q16.72,220.11 17.4625,220.715 Q18.205,221.32 19.525,221.32 Q20.3088,221.32 20.8588,221.1413 Q21.175,221.045 21.5325,220.7288 Q21.7663,220.55 21.89,220.495 Q22.0138,220.44 22.165,220.44 Q22.4538,220.44 22.66,220.6738 Q22.88,220.8938 22.88,221.21 Q22.88,221.5125 22.5775,221.87 Q22.1375,222.3925 21.4363,222.6813 Q20.515,223.08 19.3875,223.08 Q18.0675,223.08 17.0088,222.5575 Q16.1563,222.145 15.5513,221.2513 Q14.96,220.3575 14.96,219.2988 L14.96,218.3363 Q14.96,217.2363 15.4825,216.2738 Q16.0188,215.3113 16.94,214.8025 Q17.875,214.28 18.92,214.28 Q19.5525,214.28 20.1025,214.5 Q20.6525,214.72 21.12,215.16 Z " fill="#000000"/><text fill="#000000" font-family="sans-serif" font-size="10.56" lengthAdjust="spacing" textLength="114.4" x="31.68" y="222.5609">GetNearestPharmacyUI</text><line style="stroke:#A80036;stroke-width:1.32;" x1="7.04" x2="147.84" y1="232.32" y2="232.32"/><line style="stroke:#A80036;stroke-width:1.32;" x1="7.04" x2="147.84" y1="239.36" y2="239.36"/><!--MD5=[1b8367c9825907c6cb869fc7793b1c7f]
class MakeOrderControllerController--><rect codeLine="7" fill="#FEFECE" filter="url(#f1areaa7jo8rax)" height="54.4156" id="MakeOrderControllerController" style="stroke:#A80036;stroke-width:1.32;" width="176" x="202.4" y="198"/><ellipse cx="215.6" cy="212.08" fill="#ADD1B2" rx="9.68" ry="9.68" style="stroke:#A80036;stroke-width:0.88;"/><path d="M217.36,209 Q217.5388,208.56 217.745,208.34 Q217.9513,208.12 218.185,208.12 Q218.5975,208.12 218.8588,208.3675 Q219.12,208.615 219.12,209.1925 L219.12,210.5675 Q219.12,211.145 218.8725,211.3925 Q218.625,211.64 218.24,211.64 Q217.8963,211.64 217.6763,211.4888 Q217.4563,211.3375 217.36,210.9388 Q217.3188,210.6638 217.1675,210.5125 Q216.8925,210.2238 216.3975,210.0588 Q215.9025,209.88 215.4075,209.88 Q214.7888,209.88 214.2663,210.1275 Q213.7575,210.375 213.3588,210.925 Q212.96,211.475 212.96,212.2313 L212.96,213.0425 Q212.96,213.95 213.7025,214.555 Q214.445,215.16 215.765,215.16 Q216.5488,215.16 217.0988,214.9813 Q217.415,214.885 217.7725,214.5688 Q218.0063,214.39 218.13,214.335 Q218.2538,214.28 218.405,214.28 Q218.6938,214.28 218.9,214.5138 Q219.12,214.7338 219.12,215.05 Q219.12,215.3525 218.8175,215.71 Q218.3775,216.2325 217.6763,216.5213 Q216.755,216.92 215.6275,216.92 Q214.3075,216.92 213.2488,216.3975 Q212.3963,215.985 211.7913,215.0913 Q211.2,214.1975 211.2,213.1388 L211.2,212.1763 Q211.2,211.0763 211.7225,210.1138 Q212.2588,209.1513 213.18,208.6425 Q214.115,208.12 215.16,208.12 Q215.7925,208.12 216.3425,208.34 Q216.8925,208.56 217.36,209 Z " fill="#000000"/><text fill="#000000" font-family="sans-serif" font-size="10.56" lengthAdjust="spacing" textLength="147.84" x="227.92" y="216.4009">MakeOrderControllerController</text><line style="stroke:#A80036;stroke-width:1.32;" x1="203.28" x2="377.52" y1="226.16" y2="226.16"/><line style="stroke:#A80036;stroke-width:1.32;" x1="203.28" x2="377.52" y1="233.2" y2="233.2"/><ellipse cx="212.08" cy="242.88" fill="#84BE84" rx="2.64" ry="2.64" style="stroke:#038048;stroke-width:0.88;"/><text fill="#000000" font-family="sans-serif" font-size="9.68" lengthAdjust="spacing" textLength="95.92" x="220" y="246.7687">getNearestPharmacy()</text><!--MD5=[99b8db98afdc2c8404e39242ef4c1e65]
class Platform--><rect codeLine="11" fill="#FEFECE" filter="url(#f1areaa7jo8rax)" height="78.7669" id="Platform" style="stroke:#A80036;stroke-width:1.32;" width="120.56" x="509.96" y="124.96"/><ellipse cx="546.524" cy="139.04" fill="#ADD1B2" rx="9.68" ry="9.68" style="stroke:#A80036;stroke-width:0.88;"/><path d="M548.284,135.96 Q548.4627,135.52 548.669,135.3 Q548.8752,135.08 549.109,135.08 Q549.5215,135.08 549.7828,135.3275 Q550.044,135.575 550.044,136.1525 L550.044,137.5275 Q550.044,138.105 549.7965,138.3525 Q549.549,138.6 549.164,138.6 Q548.8203,138.6 548.6003,138.4488 Q548.3802,138.2975 548.284,137.8988 Q548.2428,137.6238 548.0915,137.4725 Q547.8165,137.1838 547.3215,137.0188 Q546.8265,136.84 546.3315,136.84 Q545.7127,136.84 545.1903,137.0875 Q544.6815,137.335 544.2828,137.885 Q543.884,138.435 543.884,139.1913 L543.884,140.0025 Q543.884,140.91 544.6265,141.515 Q545.369,142.12 546.689,142.12 Q547.4728,142.12 548.0228,141.9413 Q548.339,141.845 548.6965,141.5288 Q548.9303,141.35 549.054,141.295 Q549.1778,141.24 549.329,141.24 Q549.6178,141.24 549.824,141.4738 Q550.044,141.6938 550.044,142.01 Q550.044,142.3125 549.7415,142.67 Q549.3015,143.1925 548.6003,143.4813 Q547.679,143.88 546.5515,143.88 Q545.2315,143.88 544.1728,143.3575 Q543.3203,142.945 542.7153,142.0513 Q542.124,141.1575 542.124,140.0988 L542.124,139.1363 Q542.124,138.0363 542.6465,137.0738 Q543.1827,136.1113 544.104,135.6025 Q545.039,135.08 546.084,135.08 Q546.7165,135.08 547.2665,135.3 Q547.8165,135.52 548.284,135.96 Z " fill="#000000"/><text fill="#000000" font-family="sans-serif" font-size="10.56" lengthAdjust="spacing" textLength="40.48" x="564.036" y="143.3609">Platform</text><line style="stroke:#A80036;stroke-width:1.32;" x1="510.84" x2="629.64" y1="153.12" y2="153.12"/><line style="stroke:#A80036;stroke-width:1.32;" x1="510.84" x2="629.64" y1="160.16" y2="160.16"/><ellipse cx="519.64" cy="169.84" fill="#84BE84" rx="2.64" ry="2.64" style="stroke:#038048;stroke-width:0.88;"/><text fill="#000000" font-family="sans-serif" font-size="9.68" lengthAdjust="spacing" textLength="97.68" x="527.56" y="173.7287">getPharmacyRegister()</text><ellipse cx="519.64" cy="182.0156" fill="#84BE84" rx="2.64" ry="2.64" style="stroke:#038048;stroke-width:0.88;"/><text fill="#000000" font-family="sans-serif" font-size="9.68" lengthAdjust="spacing" textLength="95.04" x="527.56" y="185.9043">getLandPathRegister()</text><ellipse cx="519.64" cy="194.1913" fill="#84BE84" rx="2.64" ry="2.64" style="stroke:#038048;stroke-width:0.88;"/><text fill="#000000" font-family="sans-serif" font-size="9.68" lengthAdjust="spacing" textLength="92.4" x="527.56" y="198.0799">getAddressRegister()</text><!--MD5=[d41005d437c029dfcadcbdb6009c25ec]
class PharmacyRegister--><rect codeLine="18" fill="#FEFECE" filter="url(#f1areaa7jo8rax)" height="54.4156" id="PharmacyRegister" style="stroke:#A80036;stroke-width:1.32;" width="120.56" x="1007.6" y="6.16"/><ellipse cx="1021.988" cy="20.24" fill="#ADD1B2" rx="9.68" ry="9.68" style="stroke:#A80036;stroke-width:0.88;"/><path d="M1023.748,17.16 Q1023.9268,16.72 1024.133,16.5 Q1024.3393,16.28 1024.573,16.28 Q1024.9855,16.28 1025.2468,16.5275 Q1025.508,16.775 1025.508,17.3525 L1025.508,18.7275 Q1025.508,19.305 1025.2605,19.5525 Q1025.013,19.8 1024.628,19.8 Q1024.2843,19.8 1024.0643,19.6488 Q1023.8442,19.4975 1023.748,19.0988 Q1023.7067,18.8238 1023.5555,18.6725 Q1023.2805,18.3838 1022.7855,18.2188 Q1022.2905,18.04 1021.7955,18.04 Q1021.1768,18.04 1020.6542,18.2875 Q1020.1455,18.535 1019.7467,19.085 Q1019.348,19.635 1019.348,20.3913 L1019.348,21.2025 Q1019.348,22.11 1020.0905,22.715 Q1020.833,23.32 1022.153,23.32 Q1022.9368,23.32 1023.4867,23.1413 Q1023.803,23.045 1024.1605,22.7288 Q1024.3942,22.55 1024.518,22.495 Q1024.6418,22.44 1024.793,22.44 Q1025.0817,22.44 1025.288,22.6738 Q1025.508,22.8938 1025.508,23.21 Q1025.508,23.5125 1025.2055,23.87 Q1024.7655,24.3925 1024.0643,24.6813 Q1023.143,25.08 1022.0155,25.08 Q1020.6955,25.08 1019.6367,24.5575 Q1018.7842,24.145 1018.1792,23.2513 Q1017.588,22.3575 1017.588,21.2988 L1017.588,20.3363 Q1017.588,19.2363 1018.1105,18.2738 Q1018.6467,17.3113 1019.568,16.8025 Q1020.503,16.28 1021.548,16.28 Q1022.1805,16.28 1022.7305,16.5 Q1023.2805,16.72 1023.748,17.16 Z " fill="#000000"/><text fill="#000000" font-family="sans-serif" font-size="10.56" lengthAdjust="spacing" textLength="89.76" x="1034.572" y="24.5609">PharmacyRegister</text><line style="stroke:#A80036;stroke-width:1.32;" x1="1008.48" x2="1127.28" y1="34.32" y2="34.32"/><line style="stroke:#A80036;stroke-width:1.32;" x1="1008.48" x2="1127.28" y1="41.36" y2="41.36"/><ellipse cx="1017.28" cy="51.04" fill="#84BE84" rx="2.64" ry="2.64" style="stroke:#038048;stroke-width:0.88;"/><text fill="#000000" font-family="sans-serif" font-size="9.68" lengthAdjust="spacing" textLength="97.68" x="1025.2" y="54.9287">getPharmacyRegister()</text><!--MD5=[b860ecc58d0ca70e482845cb1f7b4615]
class PharmacyDB--><rect codeLine="22" fill="#FEFECE" filter="url(#f1areaa7jo8rax)" height="54.4156" id="PharmacyDB" style="stroke:#A80036;stroke-width:1.32;" width="102.96" x="1481.48" y="6.16"/><ellipse cx="1499.828" cy="20.24" fill="#ADD1B2" rx="9.68" ry="9.68" style="stroke:#A80036;stroke-width:0.88;"/><path d="M1501.588,17.16 Q1501.7668,16.72 1501.973,16.5 Q1502.1793,16.28 1502.413,16.28 Q1502.8255,16.28 1503.0868,16.5275 Q1503.348,16.775 1503.348,17.3525 L1503.348,18.7275 Q1503.348,19.305 1503.1005,19.5525 Q1502.853,19.8 1502.468,19.8 Q1502.1242,19.8 1501.9042,19.6488 Q1501.6843,19.4975 1501.588,19.0988 Q1501.5468,18.8238 1501.3955,18.6725 Q1501.1205,18.3838 1500.6255,18.2188 Q1500.1305,18.04 1499.6355,18.04 Q1499.0168,18.04 1498.4943,18.2875 Q1497.9855,18.535 1497.5868,19.085 Q1497.188,19.635 1497.188,20.3913 L1497.188,21.2025 Q1497.188,22.11 1497.9305,22.715 Q1498.673,23.32 1499.993,23.32 Q1500.7768,23.32 1501.3268,23.1413 Q1501.643,23.045 1502.0005,22.7288 Q1502.2343,22.55 1502.358,22.495 Q1502.4818,22.44 1502.633,22.44 Q1502.9218,22.44 1503.128,22.6738 Q1503.348,22.8938 1503.348,23.21 Q1503.348,23.5125 1503.0455,23.87 Q1502.6055,24.3925 1501.9042,24.6813 Q1500.983,25.08 1499.8555,25.08 Q1498.5355,25.08 1497.4768,24.5575 Q1496.6242,24.145 1496.0192,23.2513 Q1495.428,22.3575 1495.428,21.2988 L1495.428,20.3363 Q1495.428,19.2363 1495.9505,18.2738 Q1496.4868,17.3113 1497.408,16.8025 Q1498.343,16.28 1499.388,16.28 Q1500.0205,16.28 1500.5705,16.5 Q1501.1205,16.72 1501.588,17.16 Z " fill="#000000"/><text fill="#000000" font-family="sans-serif" font-size="10.56" lengthAdjust="spacing" textLength="63.36" x="1513.292" y="24.5609">PharmacyDB</text><line style="stroke:#A80036;stroke-width:1.32;" x1="1482.36" x2="1583.56" y1="34.32" y2="34.32"/><line style="stroke:#A80036;stroke-width:1.32;" x1="1482.36" x2="1583.56" y1="41.36" y2="41.36"/><ellipse cx="1491.16" cy="51.04" fill="#84BE84" rx="2.64" ry="2.64" style="stroke:#038048;stroke-width:0.88;"/><text fill="#000000" font-family="sans-serif" font-size="9.68" lengthAdjust="spacing" textLength="80.08" x="1499.08" y="54.9287">getAllPharmacies()</text><!--MD5=[e5b9ce2ff2e3b1ee9f34816c523b894f]
class LandPathRegister--><rect codeLine="26" fill="#FEFECE" filter="url(#f1areaa7jo8rax)" height="54.4156" id="LandPathRegister" style="stroke:#A80036;stroke-width:1.32;" width="117.92" x="1008.92" y="91.52"/><ellipse cx="1022.912" cy="105.6" fill="#ADD1B2" rx="9.68" ry="9.68" style="stroke:#A80036;stroke-width:0.88;"/><path d="M1024.672,102.52 Q1024.8508,102.08 1025.057,101.86 Q1025.2633,101.64 1025.497,101.64 Q1025.9095,101.64 1026.1708,101.8875 Q1026.432,102.135 1026.432,102.7125 L1026.432,104.0875 Q1026.432,104.665 1026.1845,104.9125 Q1025.937,105.16 1025.552,105.16 Q1025.2083,105.16 1024.9883,105.0088 Q1024.7683,104.8575 1024.672,104.4588 Q1024.6308,104.1838 1024.4795,104.0325 Q1024.2045,103.7438 1023.7095,103.5788 Q1023.2145,103.4 1022.7195,103.4 Q1022.1008,103.4 1021.5783,103.6475 Q1021.0695,103.895 1020.6708,104.445 Q1020.272,104.995 1020.272,105.7513 L1020.272,106.5625 Q1020.272,107.47 1021.0145,108.075 Q1021.757,108.68 1023.077,108.68 Q1023.8608,108.68 1024.4108,108.5013 Q1024.727,108.405 1025.0845,108.0888 Q1025.3183,107.91 1025.442,107.855 Q1025.5658,107.8 1025.717,107.8 Q1026.0058,107.8 1026.212,108.0338 Q1026.432,108.2538 1026.432,108.57 Q1026.432,108.8725 1026.1295,109.23 Q1025.6895,109.7525 1024.9883,110.0413 Q1024.067,110.44 1022.9395,110.44 Q1021.6195,110.44 1020.5608,109.9175 Q1019.7083,109.505 1019.1033,108.6113 Q1018.512,107.7175 1018.512,106.6588 L1018.512,105.6963 Q1018.512,104.5963 1019.0345,103.6338 Q1019.5708,102.6713 1020.492,102.1625 Q1021.427,101.64 1022.472,101.64 Q1023.1045,101.64 1023.6545,101.86 Q1024.2045,102.08 1024.672,102.52 Z " fill="#000000"/><text fill="#000000" font-family="sans-serif" font-size="10.56" lengthAdjust="spacing" textLength="88" x="1035.408" y="109.9209">LandPathRegister</text><line style="stroke:#A80036;stroke-width:1.32;" x1="1009.8" x2="1125.96" y1="119.68" y2="119.68"/><line style="stroke:#A80036;stroke-width:1.32;" x1="1009.8" x2="1125.96" y1="126.72" y2="126.72"/><ellipse cx="1018.6" cy="136.4" fill="#84BE84" rx="2.64" ry="2.64" style="stroke:#038048;stroke-width:0.88;"/><text fill="#000000" font-family="sans-serif" font-size="9.68" lengthAdjust="spacing" textLength="95.04" x="1026.52" y="140.2887">getLandPathRegister()</text><!--MD5=[32f9dd826267bd042620907974392091]
class LandPathDB--><rect codeLine="31" fill="#FEFECE" filter="url(#f1areaa7jo8rax)" height="54.4156" id="LandPathDB" style="stroke:#A80036;stroke-width:1.32;" width="211.2" x="1427.36" y="91.52"/><ellipse cx="1498.42" cy="105.6" fill="#ADD1B2" rx="9.68" ry="9.68" style="stroke:#A80036;stroke-width:0.88;"/><path d="M1500.18,102.52 Q1500.3588,102.08 1500.565,101.86 Q1500.7713,101.64 1501.005,101.64 Q1501.4175,101.64 1501.6788,101.8875 Q1501.94,102.135 1501.94,102.7125 L1501.94,104.0875 Q1501.94,104.665 1501.6925,104.9125 Q1501.445,105.16 1501.06,105.16 Q1500.7163,105.16 1500.4963,105.0088 Q1500.2763,104.8575 1500.18,104.4588 Q1500.1388,104.1838 1499.9875,104.0325 Q1499.7125,103.7438 1499.2175,103.5788 Q1498.7225,103.4 1498.2275,103.4 Q1497.6088,103.4 1497.0863,103.6475 Q1496.5775,103.895 1496.1788,104.445 Q1495.78,104.995 1495.78,105.7513 L1495.78,106.5625 Q1495.78,107.47 1496.5225,108.075 Q1497.265,108.68 1498.585,108.68 Q1499.3688,108.68 1499.9188,108.5013 Q1500.235,108.405 1500.5925,108.0888 Q1500.8263,107.91 1500.95,107.855 Q1501.0738,107.8 1501.225,107.8 Q1501.5138,107.8 1501.72,108.0338 Q1501.94,108.2538 1501.94,108.57 Q1501.94,108.8725 1501.6375,109.23 Q1501.1975,109.7525 1500.4963,110.0413 Q1499.575,110.44 1498.4475,110.44 Q1497.1275,110.44 1496.0688,109.9175 Q1495.2163,109.505 1494.6113,108.6113 Q1494.02,107.7175 1494.02,106.6588 L1494.02,105.6963 Q1494.02,104.5963 1494.5425,103.6338 Q1495.0788,102.6713 1496,102.1625 Q1496.935,101.64 1497.98,101.64 Q1498.6125,101.64 1499.1625,101.86 Q1499.7125,102.08 1500.18,102.52 Z " fill="#000000"/><text fill="#000000" font-family="sans-serif" font-size="10.56" lengthAdjust="spacing" textLength="61.6" x="1516.46" y="109.9209">LandPathDB</text><line style="stroke:#A80036;stroke-width:1.32;" x1="1428.24" x2="1637.68" y1="119.68" y2="119.68"/><line style="stroke:#A80036;stroke-width:1.32;" x1="1428.24" x2="1637.68" y1="126.72" y2="126.72"/><ellipse cx="1437.04" cy="136.4" fill="#84BE84" rx="2.64" ry="2.64" style="stroke:#038048;stroke-width:0.88;"/><text fill="#000000" font-family="sans-serif" font-size="9.68" lengthAdjust="spacing" textLength="188.32" x="1444.96" y="140.2887">getAllPathsBetweenClientsAndPharmacies()</text><!--MD5=[605bf177f4f180d6ca6c9fcbe4fabdc4]
class DeliverySimulationsController--><rect codeLine="35" fill="#FEFECE" filter="url(#f1areaa7jo8rax)" height="54.4156" id="DeliverySimulationsController" style="stroke:#A80036;stroke-width:1.32;" width="276.32" x="432.08" y="246.4"/><ellipse cx="494.78" cy="260.48" fill="#ADD1B2" rx="9.68" ry="9.68" style="stroke:#A80036;stroke-width:0.88;"/><path d="M496.54,257.4 Q496.7188,256.96 496.925,256.74 Q497.1313,256.52 497.365,256.52 Q497.7775,256.52 498.0388,256.7675 Q498.3,257.015 498.3,257.5925 L498.3,258.9675 Q498.3,259.545 498.0525,259.7925 Q497.805,260.04 497.42,260.04 Q497.0763,260.04 496.8563,259.8888 Q496.6363,259.7375 496.54,259.3388 Q496.4988,259.0638 496.3475,258.9125 Q496.0725,258.6238 495.5775,258.4588 Q495.0825,258.28 494.5875,258.28 Q493.9688,258.28 493.4463,258.5275 Q492.9375,258.775 492.5388,259.325 Q492.14,259.875 492.14,260.6313 L492.14,261.4425 Q492.14,262.35 492.8825,262.955 Q493.625,263.56 494.945,263.56 Q495.7288,263.56 496.2788,263.3813 Q496.595,263.285 496.9525,262.9688 Q497.1863,262.79 497.31,262.735 Q497.4338,262.68 497.585,262.68 Q497.8738,262.68 498.08,262.9138 Q498.3,263.1338 498.3,263.45 Q498.3,263.7525 497.9975,264.11 Q497.5575,264.6325 496.8563,264.9213 Q495.935,265.32 494.8075,265.32 Q493.4875,265.32 492.4288,264.7975 Q491.5763,264.385 490.9713,263.4913 Q490.38,262.5975 490.38,261.5388 L490.38,260.5763 Q490.38,259.4763 490.9025,258.5138 Q491.4388,257.5513 492.36,257.0425 Q493.295,256.52 494.34,256.52 Q494.9725,256.52 495.5225,256.74 Q496.0725,256.96 496.54,257.4 Z " fill="#000000"/><text fill="#000000" font-family="sans-serif" font-size="10.56" lengthAdjust="spacing" textLength="143.44" x="512.82" y="264.8009">DeliverySimulationsController</text><line style="stroke:#A80036;stroke-width:1.32;" x1="432.96" x2="707.52" y1="274.56" y2="274.56"/><line style="stroke:#A80036;stroke-width:1.32;" x1="432.96" x2="707.52" y1="281.6" y2="281.6"/><ellipse cx="441.76" cy="291.28" fill="#84BE84" rx="2.64" ry="2.64" style="stroke:#038048;stroke-width:0.88;"/><text fill="#000000" font-family="sans-serif" font-size="9.68" lengthAdjust="spacing" textLength="253.44" x="449.68" y="295.1687">getDistanceLandMap(pathsBetweenClientsAndPharmacies)</text><!--MD5=[50647a6b58fea2e82e8c9322820fd070]
class DistanceLandMapController--><rect codeLine="39" fill="#FEFECE" filter="url(#f1areaa7jo8rax)" height="66.5913" id="DistanceLandMapController" style="stroke:#A80036;stroke-width:1.32;" width="572.88" x="781.44" y="262.24"/><ellipse cx="996.38" cy="276.32" fill="#ADD1B2" rx="9.68" ry="9.68" style="stroke:#A80036;stroke-width:0.88;"/><path d="M998.14,273.24 Q998.3188,272.8 998.525,272.58 Q998.7313,272.36 998.965,272.36 Q999.3775,272.36 999.6388,272.6075 Q999.9,272.855 999.9,273.4325 L999.9,274.8075 Q999.9,275.385 999.6525,275.6325 Q999.405,275.88 999.02,275.88 Q998.6763,275.88 998.4563,275.7288 Q998.2363,275.5775 998.14,275.1788 Q998.0988,274.9038 997.9475,274.7525 Q997.6725,274.4638 997.1775,274.2988 Q996.6825,274.12 996.1875,274.12 Q995.5688,274.12 995.0463,274.3675 Q994.5375,274.615 994.1388,275.165 Q993.74,275.715 993.74,276.4713 L993.74,277.2825 Q993.74,278.19 994.4825,278.795 Q995.225,279.4 996.545,279.4 Q997.3288,279.4 997.8788,279.2213 Q998.195,279.125 998.5525,278.8088 Q998.7863,278.63 998.91,278.575 Q999.0338,278.52 999.185,278.52 Q999.4738,278.52 999.68,278.7538 Q999.9,278.9738 999.9,279.29 Q999.9,279.5925 999.5975,279.95 Q999.1575,280.4725 998.4563,280.7613 Q997.535,281.16 996.4075,281.16 Q995.0875,281.16 994.0288,280.6375 Q993.1763,280.225 992.5713,279.3313 Q991.98,278.4375 991.98,277.3788 L991.98,276.4163 Q991.98,275.3163 992.5025,274.3538 Q993.0388,273.3913 993.96,272.8825 Q994.895,272.36 995.94,272.36 Q996.5725,272.36 997.1225,272.58 Q997.6725,272.8 998.14,273.24 Z " fill="#000000"/><text fill="#000000" font-family="sans-serif" font-size="10.56" lengthAdjust="spacing" textLength="135.52" x="1014.42" y="280.6409">DistanceLandMapController</text><line style="stroke:#A80036;stroke-width:1.32;" x1="782.32" x2="1353.44" y1="290.4" y2="290.4"/><line style="stroke:#A80036;stroke-width:1.32;" x1="782.32" x2="1353.44" y1="297.44" y2="297.44"/><ellipse cx="791.12" cy="307.12" fill="#84BE84" rx="2.64" ry="2.64" style="stroke:#038048;stroke-width:0.88;"/><text fill="#000000" font-family="sans-serif" font-size="9.68" lengthAdjust="spacing" textLength="253.44" x="799.04" y="311.0087">getDistanceLandMap(pathsBetweenClientsAndPharmacies)</text><ellipse cx="791.12" cy="319.2956" fill="#84BE84" rx="2.64" ry="2.64" style="stroke:#038048;stroke-width:0.88;"/><text fill="#000000" font-family="sans-serif" font-size="9.68" lengthAdjust="spacing" textLength="550" x="799.04" y="323.1843">getShortestRoute(pharmacyAddress, platform.getAddressRegister().getAddressByID(client.getAddressId()), new LinkedList&lt;&gt;())</text><!--MD5=[ac3cfb0c96087631d3296ec6520130aa]
class AddressRegister--><rect codeLine="45" fill="#FEFECE" filter="url(#f1areaa7jo8rax)" height="54.4156" id="AddressRegister" style="stroke:#A80036;stroke-width:1.32;" width="115.28" x="1010.24" y="176.88"/><ellipse cx="1025.816" cy="190.96" fill="#ADD1B2" rx="9.68" ry="9.68" style="stroke:#A80036;stroke-width:0.88;"/><path d="M1027.576,187.88 Q1027.7548,187.44 1027.961,187.22 Q1028.1673,187 1028.401,187 Q1028.8135,187 1029.0748,187.2475 Q1029.336,187.495 1029.336,188.0725 L1029.336,189.4475 Q1029.336,190.025 1029.0885,190.2725 Q1028.841,190.52 1028.456,190.52 Q1028.1123,190.52 1027.8923,190.3688 Q1027.6723,190.2175 1027.576,189.8188 Q1027.5348,189.5438 1027.3835,189.3925 Q1027.1085,189.1038 1026.6135,188.9388 Q1026.1185,188.76 1025.6235,188.76 Q1025.0048,188.76 1024.4823,189.0075 Q1023.9735,189.255 1023.5748,189.805 Q1023.176,190.355 1023.176,191.1113 L1023.176,191.9225 Q1023.176,192.83 1023.9185,193.435 Q1024.661,194.04 1025.981,194.04 Q1026.7648,194.04 1027.3148,193.8613 Q1027.631,193.765 1027.9885,193.4488 Q1028.2223,193.27 1028.346,193.215 Q1028.4698,193.16 1028.621,193.16 Q1028.9098,193.16 1029.116,193.3938 Q1029.336,193.6138 1029.336,193.93 Q1029.336,194.2325 1029.0335,194.59 Q1028.5935,195.1125 1027.8923,195.4013 Q1026.971,195.8 1025.8435,195.8 Q1024.5235,195.8 1023.4648,195.2775 Q1022.6123,194.865 1022.0073,193.9713 Q1021.416,193.0775 1021.416,192.0188 L1021.416,191.0563 Q1021.416,189.9563 1021.9385,188.9938 Q1022.4748,188.0313 1023.396,187.5225 Q1024.331,187 1025.376,187 Q1026.0085,187 1026.5585,187.22 Q1027.1085,187.44 1027.576,187.88 Z " fill="#000000"/><text fill="#000000" font-family="sans-serif" font-size="10.56" lengthAdjust="spacing" textLength="81.84" x="1038.664" y="195.2809">AddressRegister</text><line style="stroke:#A80036;stroke-width:1.32;" x1="1011.12" x2="1124.64" y1="205.04" y2="205.04"/><line style="stroke:#A80036;stroke-width:1.32;" x1="1011.12" x2="1124.64" y1="212.08" y2="212.08"/><ellipse cx="1019.92" cy="221.76" fill="#84BE84" rx="2.64" ry="2.64" style="stroke:#038048;stroke-width:0.88;"/><text fill="#000000" font-family="sans-serif" font-size="9.68" lengthAdjust="spacing" textLength="92.4" x="1027.84" y="225.6487">getAddressRegister()</text><!--MD5=[a5dae0775519b882f17cbf062d6a33a5]
class AddressDB--><rect codeLine="49" fill="#FEFECE" filter="url(#f1areaa7jo8rax)" height="54.4156" id="AddressDB" style="stroke:#A80036;stroke-width:1.32;" width="186.56" x="1439.68" y="176.88"/><ellipse cx="1501.5" cy="190.96" fill="#ADD1B2" rx="9.68" ry="9.68" style="stroke:#A80036;stroke-width:0.88;"/><path d="M1503.26,187.88 Q1503.4388,187.44 1503.645,187.22 Q1503.8513,187 1504.085,187 Q1504.4975,187 1504.7588,187.2475 Q1505.02,187.495 1505.02,188.0725 L1505.02,189.4475 Q1505.02,190.025 1504.7725,190.2725 Q1504.525,190.52 1504.14,190.52 Q1503.7963,190.52 1503.5763,190.3688 Q1503.3563,190.2175 1503.26,189.8188 Q1503.2188,189.5438 1503.0675,189.3925 Q1502.7925,189.1038 1502.2975,188.9388 Q1501.8025,188.76 1501.3075,188.76 Q1500.6888,188.76 1500.1663,189.0075 Q1499.6575,189.255 1499.2588,189.805 Q1498.86,190.355 1498.86,191.1113 L1498.86,191.9225 Q1498.86,192.83 1499.6025,193.435 Q1500.345,194.04 1501.665,194.04 Q1502.4488,194.04 1502.9988,193.8613 Q1503.315,193.765 1503.6725,193.4488 Q1503.9063,193.27 1504.03,193.215 Q1504.1538,193.16 1504.305,193.16 Q1504.5938,193.16 1504.8,193.3938 Q1505.02,193.6138 1505.02,193.93 Q1505.02,194.2325 1504.7175,194.59 Q1504.2775,195.1125 1503.5763,195.4013 Q1502.655,195.8 1501.5275,195.8 Q1500.2075,195.8 1499.1488,195.2775 Q1498.2963,194.865 1497.6913,193.9713 Q1497.1,193.0775 1497.1,192.0188 L1497.1,191.0563 Q1497.1,189.9563 1497.6225,188.9938 Q1498.1588,188.0313 1499.08,187.5225 Q1500.015,187 1501.06,187 Q1501.6925,187 1502.2425,187.22 Q1502.7925,187.44 1503.26,187.88 Z " fill="#000000"/><text fill="#000000" font-family="sans-serif" font-size="10.56" lengthAdjust="spacing" textLength="55.44" x="1519.54" y="195.2809">AddressDB</text><line style="stroke:#A80036;stroke-width:1.32;" x1="1440.56" x2="1625.36" y1="205.04" y2="205.04"/><line style="stroke:#A80036;stroke-width:1.32;" x1="1440.56" x2="1625.36" y1="212.08" y2="212.08"/><ellipse cx="1449.36" cy="221.76" fill="#84BE84" rx="2.64" ry="2.64" style="stroke:#038048;stroke-width:0.88;"/><text fill="#000000" font-family="sans-serif" font-size="9.68" lengthAdjust="spacing" textLength="163.68" x="1457.28" y="225.6487">getAddressByID(pharmacy.addressId)</text><!--MD5=[58bd07f51f67eb092ee3cb8508f2cec5]
link GetNearestPharmacyUI to MakeOrderControllerController--><path codeLine="55" d="M148.94,225.28 C164.5072,225.28 181.2096,225.28 197.4808,225.28 " fill="none" id="GetNearestPharmacyUI-to-MakeOrderControllerController" style="stroke:#A80036;stroke-width:0.88;stroke-dasharray:7.0,7.0;"/><polygon fill="#A80036" points="202.0568,225.28,194.1368,221.76,197.6568,225.28,194.1368,228.8,202.0568,225.28" style="stroke:#A80036;stroke-width:0.88;"/><!--MD5=[2f0a5aa2c54f14db766af863b4625bc8]
link MakeOrderControllerController to Platform--><path codeLine="56" d="M378.5056,206.2368 C419.6104,197.2608 467.764,186.7448 505.4192,178.5256 " fill="none" id="MakeOrderControllerController-to-Platform" style="stroke:#A80036;stroke-width:0.88;stroke-dasharray:7.0,7.0;"/><polygon fill="#A80036" points="509.7224,177.584,501.2312,175.8474,505.4251,178.5292,502.7434,182.7231,509.7224,177.584" style="stroke:#A80036;stroke-width:0.88;"/><!--MD5=[42380a0da86a93bdb20088d86015b96a]
link MakeOrderControllerController to DeliverySimulationsController--><path codeLine="57" d="M378.5056,240.46 C394.0816,243.1704 410.6696,246.0568 427.3192,248.9608 " fill="none" id="MakeOrderControllerController-to-DeliverySimulationsController" style="stroke:#A80036;stroke-width:0.88;stroke-dasharray:7.0,7.0;"/><polygon fill="#A80036" points="432.0184,249.7792,424.8186,244.9542,427.6835,249.0253,423.6124,251.8901,432.0184,249.7792" style="stroke:#A80036;stroke-width:0.88;"/><!--MD5=[fc40ba10c3d111ccda3e3f39f178e188]
link DeliverySimulationsController to DistanceLandMapController--><path codeLine="58" d="M708.5936,279.7784 C730.2416,280.7376 753.3152,281.7672 776.908,282.8056 " fill="none" id="DeliverySimulationsController-to-DistanceLandMapController" style="stroke:#A80036;stroke-width:0.88;stroke-dasharray:7.0,7.0;"/><polygon fill="#A80036" points="781.3168,283.008,773.5553,279.1512,776.9209,282.8191,773.253,286.1847,781.3168,283.008" style="stroke:#A80036;stroke-width:0.88;"/><!--MD5=[387190ed156413cf63fcd303b195be5b]
link Platform to PharmacyRegister--><path codeLine="60" d="M630.6344,134.6224 C671.968,115.0336 728.86,90.42 781.44,75.68 C855.9848,54.78 944.5392,43.7272 1003.0592,38.236 " fill="none" id="Platform-to-PharmacyRegister" style="stroke:#A80036;stroke-width:0.88;"/><polygon fill="#A80036" points="1007.5736,37.8224,999.3646,35.0424,1003.1921,38.2253,1000.0092,42.0528,1007.5736,37.8224" style="stroke:#A80036;stroke-width:0.88;"/><text fill="#000000" font-family="sans-serif" font-size="11.44" lengthAdjust="spacing" textLength="18.48" x="735.68" y="82.2757">has</text><text fill="#000000" font-family="sans-serif" font-size="11.44" lengthAdjust="spacing" textLength="6.16" x="637.5769" y="144.0343">1</text><text fill="#000000" font-family="sans-serif" font-size="11.44" lengthAdjust="spacing" textLength="6.16" x="994.4807" y="50.9722">1</text><!--MD5=[52ad859d42b534ee7e16a388adad44e4]
link PharmacyRegister to PharmacyDB--><path codeLine="61" d="M1128.38,33.44 C1218.6592,33.44 1388.8072,33.44 1476.5784,33.44 " fill="none" id="PharmacyRegister-to-PharmacyDB" style="stroke:#A80036;stroke-width:0.88;"/><polygon fill="#A80036" points="1481.216,33.44,1473.296,29.92,1476.816,33.44,1473.296,36.96,1481.216,33.44" style="stroke:#A80036;stroke-width:0.88;"/><text fill="#000000" font-family="sans-serif" font-size="11.44" lengthAdjust="spacing" textLength="18.48" x="1381.6" y="30.3557">has</text><text fill="#000000" font-family="sans-serif" font-size="11.44" lengthAdjust="spacing" textLength="6.16" x="1135.3341" y="46.1105">1</text><text fill="#000000" font-family="sans-serif" font-size="11.44" lengthAdjust="spacing" textLength="6.16" x="1468.3743" y="46.2014">1</text><!--MD5=[2ca85ac4f1ce175b258ed7807350110b]
link Platform to LandPathRegister--><path codeLine="63" d="M630.6872,159.06 C725.0496,150.3568 908.0368,133.4696 1004.3088,124.5816 " fill="none" id="Platform-to-LandPathRegister" style="stroke:#A80036;stroke-width:0.88;"/><polygon fill="#A80036" points="1008.832,124.168,1000.623,121.388,1004.4505,124.5709,1001.2676,128.3984,1008.832,124.168" style="stroke:#A80036;stroke-width:0.88;"/><text fill="#000000" font-family="sans-serif" font-size="11.44" lengthAdjust="spacing" textLength="18.48" x="735.68" y="145.6357">has</text><text fill="#000000" font-family="sans-serif" font-size="11.44" lengthAdjust="spacing" textLength="6.16" x="637.6355" y="171.1447">1</text><text fill="#000000" font-family="sans-serif" font-size="11.44" lengthAdjust="spacing" textLength="6.16" x="995.8768" y="137.4256">1</text><!--MD5=[132d929ebd2c110b0af9c4e132b6fc33]
link LandPathRegister to LandPathDB--><path codeLine="64" d="M1126.972,118.8 C1200.8832,118.8 1329.9176,118.8 1422.5112,118.8 " fill="none" id="LandPathRegister-to-LandPathDB" style="stroke:#A80036;stroke-width:0.88;"/><polygon fill="#A80036" points="1427.1752,118.8,1419.2552,115.28,1422.7752,118.8,1419.2552,122.32,1427.1752,118.8" style="stroke:#A80036;stroke-width:0.88;"/><text fill="#000000" font-family="sans-serif" font-size="11.44" lengthAdjust="spacing" textLength="18.48" x="1381.6" y="115.7157">has</text><text fill="#000000" font-family="sans-serif" font-size="11.44" lengthAdjust="spacing" textLength="6.16" x="1133.7721" y="131.4705">1</text><text fill="#000000" font-family="sans-serif" font-size="11.44" lengthAdjust="spacing" textLength="6.16" x="1414.041" y="131.1412">1</text><!--MD5=[3728cc9a7be9e69274c1515f91a162fa]
link Platform to AddressRegister--><path codeLine="66" d="M630.5552,171.1072 C661.5928,174.4072 700.216,178.3232 734.8,181.28 C829.1624,189.3496 938.784,196.46 1005.5056,200.5344 " fill="none" id="Platform-to-AddressRegister" style="stroke:#A80036;stroke-width:0.88;"/><polygon fill="#A80036" points="1010.2312,200.8248,1002.5483,196.8135,1005.8399,200.548,1002.1054,203.8396,1010.2312,200.8248" style="stroke:#A80036;stroke-width:0.88;"/><text fill="#000000" font-family="sans-serif" font-size="11.44" lengthAdjust="spacing" textLength="18.48" x="735.68" y="178.1957">has</text><text fill="#000000" font-family="sans-serif" font-size="11.44" lengthAdjust="spacing" textLength="6.16" x="637.489" y="184.5096">1</text><text fill="#000000" font-family="sans-serif" font-size="11.44" lengthAdjust="spacing" textLength="6.16" x="997.0494" y="213.1551">1</text><!--MD5=[659732f19656e46f2f836bea02bb9972]
link AddressRegister to AddressDB--><path codeLine="67" d="M1125.5728,204.16 C1202.6432,204.16 1341.4368,204.16 1435.148,204.16 " fill="none" id="AddressRegister-to-AddressDB" style="stroke:#A80036;stroke-width:0.88;"/><polygon fill="#A80036" points="1439.5744,204.16,1431.6544,200.64,1435.1744,204.16,1431.6544,207.68,1439.5744,204.16" style="stroke:#A80036;stroke-width:0.88;"/><text fill="#000000" font-family="sans-serif" font-size="11.44" lengthAdjust="spacing" textLength="18.48" x="1381.6" y="201.0757">has</text><text fill="#000000" font-family="sans-serif" font-size="11.44" lengthAdjust="spacing" textLength="6.16" x="1132.5997" y="216.8759">1</text><text fill="#000000" font-family="sans-serif" font-size="11.44" lengthAdjust="spacing" textLength="6.16" x="1426.3302" y="216.5694">1</text><!--MD5=[915f23d4c02bf9868344cf1a4d04e6e8]
@startuml

left to right direction

class GetNearestPharmacyUI {
}

class MakeOrderControllerController {
    +getNearestPharmacy()
}

class Platform {
    +getPharmacyRegister()
    +getLandPathRegister()
    +getAddressRegister()

}

class PharmacyRegister {
    +getPharmacyRegister()
}

class PharmacyDB {
    +getAllPharmacies()
}

class LandPathRegister {
    +getLandPathRegister()
}


class LandPathDB {
    +getAllPathsBetweenClientsAndPharmacies()
}

class DeliverySimulationsController {
    +getDistanceLandMap(pathsBetweenClientsAndPharmacies)
}

class DistanceLandMapController {
    +getDistanceLandMap(pathsBetweenClientsAndPharmacies)
    +getShortestRoute(pharmacyAddress, platform.getAddressRegister().getAddressByID(client.getAddressId()), new LinkedList<>())
}


class AddressRegister {
    +getAddressRegister()
}

class AddressDB {
    +getAddressByID(pharmacy.addressId)
}



GetNearestPharmacyUI ..> MakeOrderControllerController
MakeOrderControllerController ..> Platform
MakeOrderControllerController ..>DeliverySimulationsController
DeliverySimulationsController..>DistanceLandMapController

Platform "1" - -> "1" PharmacyRegister: has
PharmacyRegister "1" - -> "1" PharmacyDB: has

Platform "1" - -> "1" LandPathRegister: has
LandPathRegister "1" - -> "1" LandPathDB: has

Platform "1" - -> "1" AddressRegister: has
AddressRegister "1" - -> "1" AddressDB: has

@enduml

PlantUML version 1.2021.00(Sun Jan 10 10:25:05 GMT 2021)
(GPL source distribution)
Java Runtime: OpenJDK Runtime Environment
JVM: OpenJDK 64-Bit Server VM
Default Encoding: Cp1252
Language: pt
Country: PT
--></g></svg>