<?xml version="1.0" encoding="UTF-8" standalone="no"?><svg xmlns="http://www.w3.org/2000/svg" xmlns:xlink="http://www.w3.org/1999/xlink" contentScriptType="application/ecmascript" contentStyleType="text/css" height="4713.75px" preserveAspectRatio="none" style="width:1215px;height:4713px;" version="1.1" viewBox="0 0 1215 4713" width="1215px" zoomAndPan="magnify"><defs><filter height="300%" id="f3xqx5mjl7v4e" width="300%" x="-1" y="-1"><feGaussianBlur result="blurOut" stdDeviation="2.5"/><feColorMatrix in="blurOut" result="blurOut2" type="matrix" values="0 0 0 0 0 0 0 0 0 0 0 0 0 0 0 0 0 0 .4 0"/><feOffset dx="5.0" dy="5.0" in="blurOut2" result="blurOut3"/><feBlend in="SourceGraphic" in2="blurOut3" mode="normal"/></filter></defs><g><ellipse cx="941.1866" cy="2381.2048" fill="#FEFECE" filter="url(#f3xqx5mjl7v4e)" rx="109.7741" ry="24.9548" style="stroke:#A80036;stroke-width:1.875;"/><text fill="#000000" font-family="sans-serif" font-size="17.5" lengthAdjust="spacing" textLength="166.25" x="858.0616" y="2385.8655">UC1 - Register Client</text><ellipse cx="941.1408" cy="1602.4457" fill="#FEFECE" filter="url(#f3xqx5mjl7v4e)" rx="100.3533" ry="23.0707" style="stroke:#A80036;stroke-width:1.875;"/><text fill="#000000" font-family="sans-serif" font-size="17.5" lengthAdjust="spacing" textLength="143.75" x="868.1865" y="1607.4177">UC2 - Make Order</text><ellipse cx="941.2186" cy="1698.4612" fill="#FEFECE" filter="url(#f3xqx5mjl7v4e)" rx="127.3061" ry="28.4612" style="stroke:#A80036;stroke-width:1.875;"/><text fill="#000000" font-family="sans-serif" font-size="17.5" lengthAdjust="spacing" textLength="206.25" x="838.0936" y="1703.1219">UC3 - Check Order Status</text><ellipse cx="941.5578" cy="1796.4041" fill="#FEFECE" filter="url(#f3xqx5mjl7v4e)" rx="107.6453" ry="24.5291" style="stroke:#A80036;stroke-width:1.875;"/><text fill="#000000" font-family="sans-serif" font-size="17.5" lengthAdjust="spacing" textLength="161.25" x="860.9328" y="1801.0647">UC4 - Check Credits</text><ellipse cx="941.2318" cy="1897.2139" fill="#FEFECE" filter="url(#f3xqx5mjl7v4e)" rx="146.0693" ry="32.2139" style="stroke:#A80036;stroke-width:1.875;"/><text fill="#000000" font-family="sans-serif" font-size="17.5" lengthAdjust="spacing" textLength="247.5" x="817.4818" y="1901.8745">UC5 - Make Order As Received</text><ellipse cx="350.5973" cy="4674.837" fill="#FEFECE" filter="url(#f3xqx5mjl7v4e)" rx="106.0598" ry="24.212" style="stroke:#A80036;stroke-width:1.875;"/><text fill="#000000" font-family="sans-serif" font-size="17.5" lengthAdjust="spacing" textLength="157.5" x="271.8473" y="4679.4976">UC6 - Courier Login</text><ellipse cx="350.8992" cy="4122.7723" fill="#FEFECE" filter="url(#f3xqx5mjl7v4e)" rx="130.1117" ry="29.0223" style="stroke:#A80036;stroke-width:1.875;"/><text fill="#000000" font-family="sans-serif" font-size="17.5" lengthAdjust="spacing" textLength="212.5" x="244.6492" y="4127.433">UC10 - Administrator Login</text><ellipse cx="350.8553" cy="2991.1386" fill="#FEFECE" filter="url(#f3xqx5mjl7v4e)" rx="168.8178" ry="36.7636" style="stroke:#A80036;stroke-width:1.875;"/><text fill="#000000" font-family="sans-serif" font-size="17.5" lengthAdjust="spacing" textLength="296.25" x="202.7303" y="2995.7992">UC16 - Pharmacy Administrator Login</text><ellipse cx="941.5578" cy="1998.9041" fill="#FEFECE" filter="url(#f3xqx5mjl7v4e)" rx="107.6453" ry="24.5291" style="stroke:#A80036;stroke-width:1.875;"/><text fill="#000000" font-family="sans-serif" font-size="17.5" lengthAdjust="spacing" textLength="161.25" x="860.9328" y="2003.5647">UC17 - Check Order</text><ellipse cx="941.1247" cy="1153.6924" fill="#FEFECE" filter="url(#f3xqx5mjl7v4e)" rx="106.5872" ry="24.3174" style="stroke:#A80036;stroke-width:1.875;"/><text fill="#000000" font-family="sans-serif" font-size="17.5" lengthAdjust="spacing" textLength="158.75" x="861.7497" y="1158.3531">UC18 - Check Stock</text><ellipse cx="941.5216" cy="2091.3968" fill="#FEFECE" filter="url(#f3xqx5mjl7v4e)" rx="104.4841" ry="23.8968" style="stroke:#A80036;stroke-width:1.875;"/><text fill="#000000" font-family="sans-serif" font-size="17.5" lengthAdjust="spacing" textLength="153.75" x="864.6466" y="2096.0575">UC19 - Client Login</text><ellipse cx="941.6343" cy="1253.7944" fill="#FEFECE" filter="url(#f3xqx5mjl7v4e)" rx="141.4718" ry="31.2944" style="stroke:#A80036;stroke-width:1.875;"/><text fill="#000000" font-family="sans-serif" font-size="17.5" lengthAdjust="spacing" textLength="237.5" x="822.8843" y="1258.455">UC21 - Check Scooter Battery</text><ellipse cx="941.3698" cy="1354.8665" fill="#FEFECE" filter="url(#f3xqx5mjl7v4e)" rx="112.4573" ry="25.4915" style="stroke:#A80036;stroke-width:1.875;"/><text fill="#000000" font-family="sans-serif" font-size="17.5" lengthAdjust="spacing" textLength="172.5" x="855.1198" y="1359.5271">UC24 - Assign Orders</text><ellipse cx="351.0963" cy="4581.3118" fill="#FEFECE" filter="url(#f3xqx5mjl7v4e)" rx="110.3088" ry="25.0618" style="stroke:#A80036;stroke-width:1.875;"/><text fill="#000000" font-family="sans-serif" font-size="17.5" lengthAdjust="spacing" textLength="167.5" x="267.3463" y="4585.9724">UC26 - Shortest Phat</text><ellipse cx="941.6106" cy="37.5396" fill="#FEFECE" filter="url(#f3xqx5mjl7v4e)" rx="135.1981" ry="30.0396" style="stroke:#A80036;stroke-width:1.875;"/><text fill="#000000" font-family="sans-serif" font-size="17.5" lengthAdjust="spacing" textLength="223.75" x="829.7356" y="42.2003">UC28 - Charging Time Email</text><ellipse cx="350.9285" cy="4482.6532" fill="#FEFECE" filter="url(#f3xqx5mjl7v4e)" rx="135.766" ry="30.1532" style="stroke:#A80036;stroke-width:1.875;"/><text fill="#000000" font-family="sans-serif" font-size="17.5" lengthAdjust="spacing" textLength="225" x="238.4285" y="4487.3138">UC48 - Energy Consumption</text><ellipse cx="350.5747" cy="4023.8324" fill="#FEFECE" filter="url(#f3xqx5mjl7v4e)" rx="113.5372" ry="25.7074" style="stroke:#A80036;stroke-width:1.875;"/><text fill="#000000" font-family="sans-serif" font-size="17.5" lengthAdjust="spacing" textLength="175" x="263.0747" y="4028.4931">UC56 - Add Pharmacy</text><ellipse cx="350.5973" cy="3929.837" fill="#FEFECE" filter="url(#f3xqx5mjl7v4e)" rx="106.0598" ry="24.212" style="stroke:#A80036;stroke-width:1.875;"/><text fill="#000000" font-family="sans-serif" font-size="17.5" lengthAdjust="spacing" textLength="157.5" x="271.8473" y="3934.4976">UC60 - Add Scooter</text><ellipse cx="350.8013" cy="3835.2528" fill="#FEFECE" filter="url(#f3xqx5mjl7v4e)" rx="120.6388" ry="27.1278" style="stroke:#A80036;stroke-width:1.875;"/><text fill="#000000" font-family="sans-serif" font-size="17.5" lengthAdjust="spacing" textLength="191.25" x="255.1763" y="3839.9134">UC61 - Remove Scooter</text><ellipse cx="941.1377" cy="2186.32" fill="#FEFECE" filter="url(#f3xqx5mjl7v4e)" rx="122.8502" ry="27.57" style="stroke:#A80036;stroke-width:1.875;"/><text fill="#000000" font-family="sans-serif" font-size="17.5" lengthAdjust="spacing" textLength="196.25" x="843.0127" y="2190.9807">UC67 - Check Catalogue</text><ellipse cx="350.9938" cy="4376.5413" fill="#FEFECE" filter="url(#f3xqx5mjl7v4e)" rx="148.9563" ry="32.7913" style="stroke:#A80036;stroke-width:1.875;"/><text fill="#000000" font-family="sans-serif" font-size="17.5" lengthAdjust="spacing" textLength="253.75" x="224.1188" y="4381.2019">UC70 - Check Courier Requests</text><ellipse cx="350.8753" cy="3737.6426" fill="#FEFECE" filter="url(#f3xqx5mjl7v4e)" rx="120.0878" ry="27.0176" style="stroke:#A80036;stroke-width:1.875;"/><text fill="#000000" font-family="sans-serif" font-size="17.5" lengthAdjust="spacing" textLength="190" x="255.8753" y="3742.3032">UC72 - Register Courier</text><ellipse cx="941.6505" cy="2284.9226" fill="#FEFECE" filter="url(#f3xqx5mjl7v4e)" rx="118.988" ry="26.7976" style="stroke:#A80036;stroke-width:1.875;"/><text fill="#000000" font-family="sans-serif" font-size="17.5" lengthAdjust="spacing" textLength="187.5" x="847.9005" y="2289.5832">UC105 - Update Credits</text><ellipse cx="350.7147" cy="2881.2354" fill="#FEFECE" filter="url(#f3xqx5mjl7v4e)" rx="131.8022" ry="29.3604" style="stroke:#A80036;stroke-width:1.875;"/><text fill="#000000" font-family="sans-serif" font-size="17.5" lengthAdjust="spacing" textLength="216.25" x="242.5897" y="2885.8961">UC106 - Add Items to Stock</text><ellipse cx="350.838" cy="2772.3851" fill="#FEFECE" filter="url(#f3xqx5mjl7v4e)" rx="159.4255" ry="34.8851" style="stroke:#A80036;stroke-width:1.875;"/><text fill="#000000" font-family="sans-serif" font-size="17.5" lengthAdjust="spacing" textLength="276.25" x="212.713" y="2777.0457">UC107 - Remove Items From Stock</text><ellipse cx="941.1499" cy="147.6975" fill="#FEFECE" filter="url(#f3xqx5mjl7v4e)" rx="164.1124" ry="35.8225" style="stroke:#A80036;stroke-width:1.875;"/><text fill="#000000" font-family="sans-serif" font-size="17.5" lengthAdjust="spacing" textLength="286.25" x="798.0249" y="152.3581">UC108 - Order Can Not Be Full filled</text><ellipse cx="941.6785" cy="267.5532" fill="#FEFECE" filter="url(#f3xqx5mjl7v4e)" rx="188.391" ry="40.6782" style="stroke:#A80036;stroke-width:1.875;"/><text fill="#000000" font-family="sans-serif" font-size="17.5" lengthAdjust="spacing" textLength="332.5" x="772.9285" y="272.2138">UC109 - Client Item Not In Cart Notification</text><ellipse cx="941.3829" cy="387.6191" fill="#FEFECE" filter="url(#f3xqx5mjl7v4e)" rx="160.5954" ry="35.1191" style="stroke:#A80036;stroke-width:1.875;"/><text fill="#000000" font-family="sans-serif" font-size="17.5" lengthAdjust="spacing" textLength="273.75" x="802.0079" y="392.2797">UC110 - Pharmacy Invoice/Receipt</text><ellipse cx="941.3299" cy="498.8585" fill="#FEFECE" filter="url(#f3xqx5mjl7v4e)" rx="144.9174" ry="31.9835" style="stroke:#A80036;stroke-width:1.875;"/><text fill="#000000" font-family="sans-serif" font-size="17.5" lengthAdjust="spacing" textLength="240" x="818.8299" y="503.5191">UC111 - Client Invoice/Receipt</text><ellipse cx="350.6113" cy="3612.3398" fill="#FEFECE" filter="url(#f3xqx5mjl7v4e)" rx="256.0738" ry="54.2148" style="stroke:#A80036;stroke-width:1.875;"/><text fill="#000000" font-family="sans-serif" font-size="17.5" lengthAdjust="spacing" textLength="477.5" x="111.8613" y="3617.0004">UC113 - Add Park Slot and Charging Station to Scooter Park</text><ellipse cx="350.7957" cy="3490.2516" fill="#FEFECE" filter="url(#f3xqx5mjl7v4e)" rx="105.0082" ry="24.0016" style="stroke:#A80036;stroke-width:1.875;"/><text fill="#000000" font-family="sans-serif" font-size="17.5" lengthAdjust="spacing" textLength="155" x="273.2957" y="3494.9123">UC114 - Add Drone</text><ellipse cx="350.6316" cy="3396.4688" fill="#FEFECE" filter="url(#f3xqx5mjl7v4e)" rx="117.3441" ry="26.4688" style="stroke:#A80036;stroke-width:1.875;"/><text fill="#000000" font-family="sans-serif" font-size="17.5" lengthAdjust="spacing" textLength="183.75" x="258.7566" y="3401.1295">UC115 -Remove Drone</text><ellipse cx="350.7655" cy="3272.3706" fill="#FEFECE" filter="url(#f3xqx5mjl7v4e)" rx="249.978" ry="52.9956" style="stroke:#A80036;stroke-width:1.875;"/><text fill="#000000" font-family="sans-serif" font-size="17.5" lengthAdjust="spacing" textLength="465" x="118.2655" y="3277.0312">UC117 - Add Park Slot and Charging Station to Drone Park</text><ellipse cx="941.1284" cy="608.4432" fill="#FEFECE" filter="url(#f3xqx5mjl7v4e)" rx="155.3409" ry="34.0682" style="stroke:#A80036;stroke-width:1.875;"/><text fill="#000000" font-family="sans-serif" font-size="17.5" lengthAdjust="spacing" textLength="267.5" x="807.3784" y="613.1038">UC118 - Delivery Start Notification</text><ellipse cx="941.4006" cy="716.1226" fill="#FEFECE" filter="url(#f3xqx5mjl7v4e)" rx="131.2381" ry="29.2476" style="stroke:#A80036;stroke-width:1.875;"/><text fill="#000000" font-family="sans-serif" font-size="17.5" lengthAdjust="spacing" textLength="215" x="833.9006" y="720.7833">UC121 - Nearest Pharmacy</text><ellipse cx="351.002" cy="2658.7929" fill="#FEFECE" filter="url(#f3xqx5mjl7v4e)" rx="157.0895" ry="34.4179" style="stroke:#A80036;stroke-width:1.875;"/><text fill="#000000" font-family="sans-serif" font-size="17.5" lengthAdjust="spacing" textLength="271.25" x="215.377" y="2663.4535">UC122 - Request Not Existent Item</text><ellipse cx="941.162" cy="1479.8249" fill="#FEFECE" filter="url(#f3xqx5mjl7v4e)" rx="259.1245" ry="54.8249" style="stroke:#A80036;stroke-width:1.875;"/><text fill="#000000" font-family="sans-serif" font-size="17.5" lengthAdjust="spacing" textLength="483.75" x="699.287" y="1484.4855">UC124 - Send Request Asking for Items to Another Pharmacy</text><ellipse cx="941.3851" cy="819.8695" fill="#FEFECE" filter="url(#f3xqx5mjl7v4e)" rx="137.4726" ry="30.4945" style="stroke:#A80036;stroke-width:1.875;"/><text fill="#000000" font-family="sans-serif" font-size="17.5" lengthAdjust="spacing" textLength="228.75" x="827.0101" y="824.5302">UC125 - Send Request Items</text><ellipse cx="941.2318" cy="927.2139" fill="#FEFECE" filter="url(#f3xqx5mjl7v4e)" rx="146.0693" ry="32.2139" style="stroke:#A80036;stroke-width:1.875;"/><text fill="#000000" font-family="sans-serif" font-size="17.5" lengthAdjust="spacing" textLength="247.5" x="817.4818" y="931.8745">UC126 - Distribute Park Energy</text><ellipse cx="941.6785" cy="1045.0532" fill="#FEFECE" filter="url(#f3xqx5mjl7v4e)" rx="188.391" ry="40.6782" style="stroke:#A80036;stroke-width:1.875;"/><text fill="#000000" font-family="sans-serif" font-size="17.5" lengthAdjust="spacing" textLength="337.5" x="772.9285" y="1049.7138">UC127 - Send Scooter Message to Courier</text><!--MD5=[281a7807f21f92981e4891b591808956]
entity UU--><ellipse cx="350.7875" cy="2341.25" fill="#FEFECE" filter="url(#f3xqx5mjl7v4e)" rx="10" ry="10" style="stroke:#A80036;stroke-width:1.875;"/><path d="M350.7875,2351.25 L350.7875,2385 M334.5375,2361.25 L367.0375,2361.25 M350.7875,2385 L334.5375,2403.75 M350.7875,2385 L367.0375,2403.75 " fill="none" filter="url(#f3xqx5mjl7v4e)" style="stroke:#A80036;stroke-width:1.875;"/><text fill="#000000" font-family="sans-serif" font-size="17.5" lengthAdjust="spacing" textLength="147.5" x="277.0375" y="2428.7915">Unregistered  User</text><!--MD5=[b85c7363b6875e826da212fd45b5be01]
entity PHARADM--><ellipse cx="350.7875" cy="2488.75" fill="#FEFECE" filter="url(#f3xqx5mjl7v4e)" rx="10" ry="10" style="stroke:#A80036;stroke-width:1.875;"/><path d="M350.7875,2498.75 L350.7875,2532.5 M334.5375,2508.75 L367.0375,2508.75 M350.7875,2532.5 L334.5375,2551.25 M350.7875,2532.5 L367.0375,2551.25 " fill="none" filter="url(#f3xqx5mjl7v4e)" style="stroke:#A80036;stroke-width:1.875;"/><text fill="#000000" font-family="sans-serif" font-size="17.5" lengthAdjust="spacing" textLength="187.5" x="257.0375" y="2576.2915">Pharmacy Administrator</text><!--MD5=[302b893a8dbc6ea26ab81f15488f4bee]
entity PHAR--><ellipse cx="350.7875" cy="1263.75" fill="#FEFECE" filter="url(#f3xqx5mjl7v4e)" rx="10" ry="10" style="stroke:#A80036;stroke-width:1.875;"/><path d="M350.7875,1273.75 L350.7875,1307.5 M334.5375,1283.75 L367.0375,1283.75 M350.7875,1307.5 L334.5375,1326.25 M350.7875,1307.5 L367.0375,1326.25 " fill="none" filter="url(#f3xqx5mjl7v4e)" style="stroke:#A80036;stroke-width:1.875;"/><text fill="#000000" font-family="sans-serif" font-size="17.5" lengthAdjust="spacing" textLength="78.75" x="311.4125" y="1351.2915">Pharmacy</text><!--MD5=[5bb58f447e60c14e9d23282c6a4405f4]
entity ADM--><ellipse cx="350.7875" cy="3083.75" fill="#FEFECE" filter="url(#f3xqx5mjl7v4e)" rx="10" ry="10" style="stroke:#A80036;stroke-width:1.875;"/><path d="M350.7875,3093.75 L350.7875,3127.5 M334.5375,3103.75 L367.0375,3103.75 M350.7875,3127.5 L334.5375,3146.25 M350.7875,3127.5 L367.0375,3146.25 " fill="none" filter="url(#f3xqx5mjl7v4e)" style="stroke:#A80036;stroke-width:1.875;"/><text fill="#000000" font-family="sans-serif" font-size="17.5" lengthAdjust="spacing" textLength="103.75" x="298.9125" y="3171.2915">Administrator</text><!--MD5=[16fab723be418f7eaf2ea4bd895a8e51]
entity C--><ellipse cx="350.7875" cy="1907.5" fill="#FEFECE" filter="url(#f3xqx5mjl7v4e)" rx="10" ry="10" style="stroke:#A80036;stroke-width:1.875;"/><path d="M350.7875,1917.5 L350.7875,1951.25 M334.5375,1927.5 L367.0375,1927.5 M350.7875,1951.25 L334.5375,1970 M350.7875,1951.25 L367.0375,1970 " fill="none" filter="url(#f3xqx5mjl7v4e)" style="stroke:#A80036;stroke-width:1.875;"/><text fill="#000000" font-family="sans-serif" font-size="17.5" lengthAdjust="spacing" textLength="45" x="328.2875" y="1995.0415">Client</text><!--MD5=[b5af4e906b5608882632c7d969b5b8a1]
entity CO--><ellipse cx="350.7875" cy="4207.5" fill="#FEFECE" filter="url(#f3xqx5mjl7v4e)" rx="10" ry="10" style="stroke:#A80036;stroke-width:1.875;"/><path d="M350.7875,4217.5 L350.7875,4251.25 M334.5375,4227.5 L367.0375,4227.5 M350.7875,4251.25 L334.5375,4270 M350.7875,4251.25 L367.0375,4270 " fill="none" filter="url(#f3xqx5mjl7v4e)" style="stroke:#A80036;stroke-width:1.875;"/><text fill="#000000" font-family="sans-serif" font-size="17.5" lengthAdjust="spacing" textLength="77.5" x="312.0375" y="4295.0415">COURIER</text><!--MD5=[fa92c0c292cdeae80e2f3763d35ba241]
entity SYS--><ellipse cx="350.7875" cy="513.75" fill="#FEFECE" filter="url(#f3xqx5mjl7v4e)" rx="10" ry="10" style="stroke:#A80036;stroke-width:1.875;"/><path d="M350.7875,523.75 L350.7875,557.5 M334.5375,533.75 L367.0375,533.75 M350.7875,557.5 L334.5375,576.25 M350.7875,557.5 L367.0375,576.25 " fill="none" filter="url(#f3xqx5mjl7v4e)" style="stroke:#A80036;stroke-width:1.875;"/><text fill="#000000" font-family="sans-serif" font-size="17.5" lengthAdjust="spacing" textLength="57.5" x="322.0375" y="601.2915">System</text><!--MD5=[070d83158d2f7201170702d768eb4f14]
link SYS to UC28--><path d="M373.275,501.825 C416.05,404.2 522.35,193.825 682.0375,90 C717.8875,66.6875 761.975,53.4125 803.5125,45.9375 " fill="none" id="SYS-to-UC28" style="stroke:#A80036;stroke-width:1.25;"/><polygon fill="#A80036" points="810.15,44.7875,798.2167,41.7612,803.9899,45.844,799.9071,51.6173,810.15,44.7875" style="stroke:#A80036;stroke-width:1.25;"/><!--MD5=[4c61a856e9d6b213e45368cf996d0b12]
link SYS to UC108--><path d="M379.8625,510.5625 C430.4375,435.7875 545.0125,282.75 682.0375,205 C714.5875,186.525 752.6,173.9875 789.275,165.475 " fill="none" id="SYS-to-UC108" style="stroke:#A80036;stroke-width:1.25;"/><polygon fill="#A80036" points="795.625,164.0375,783.5433,161.6719,789.5324,165.4311,785.7731,171.4201,795.625,164.0375" style="stroke:#A80036;stroke-width:1.25;"/><!--MD5=[ab9a1eda586d9ad8156bdfd251df6019]
link SYS to UC109--><path d="M379.5375,529.95 C433.7,484.3 559.55,384.2125 682.0375,330 C715.4125,315.225 752.8375,303.6125 788.6125,294.6125 " fill="none" id="SYS-to-UC109" style="stroke:#A80036;stroke-width:1.25;"/><polygon fill="#A80036" points="794.8,293.0875,782.6732,290.9653,788.7366,294.6033,785.0986,300.6667,794.8,293.0875" style="stroke:#A80036;stroke-width:1.25;"/><!--MD5=[100e8cc0903017b760dcd90cd7ed6002]
link SYS to UC110--><path d="M379.5625,543.65 C435.8375,523.225 568.3375,476.3125 682.0375,445 C725.4875,433.0375 773.575,421.7875 816.35,412.475 " fill="none" id="SYS-to-UC110" style="stroke:#A80036;stroke-width:1.25;"/><polygon fill="#A80036" points="822.625,411.1125,810.572,408.6047,816.5164,412.4343,812.6869,418.3786,822.625,411.1125" style="stroke:#A80036;stroke-width:1.25;"/><!--MD5=[05b321cf230367957d717ca444fff1fc]
link SYS to UC111--><path d="M379.6125,551.175 C453.675,544.25 660.85,524.875 801.4875,511.7125 " fill="none" id="SYS-to-UC111" style="stroke:#A80036;stroke-width:1.25;"/><polygon fill="#A80036" points="807.7125,511.1375,796.053,507.1856,801.4886,511.7082,796.966,517.1438,807.7125,511.1375" style="stroke:#A80036;stroke-width:1.25;"/><!--MD5=[b148ff4afa0f0c511c558929897a90d8]
link SYS to UC118--><path d="M379.6125,556.325 C451.875,563.0875 650.825,581.6875 791.0875,594.8125 " fill="none" id="SYS-to-UC118" style="stroke:#A80036;stroke-width:1.25;"/><polygon fill="#A80036" points="797.7125,595.425,786.9848,589.3853,791.4904,594.835,786.0407,599.3406,797.7125,595.425" style="stroke:#A80036;stroke-width:1.25;"/><!--MD5=[d63e2c8f8fd3d9f241e769c748ef1fa4]
link SYS to UC121--><path d="M379.9125,564.5125 C436.275,585.975 568.1125,634.625 682.0375,665 C729.7875,677.7375 783.275,688.8625 829.125,697.4625 " fill="none" id="SYS-to-UC121" style="stroke:#A80036;stroke-width:1.25;"/><polygon fill="#A80036" points="835.8375,698.7125,825.6918,691.7391,829.6929,697.5693,823.8627,701.5704,835.8375,698.7125" style="stroke:#A80036;stroke-width:1.25;"/><!--MD5=[879f07a7c65c65311806cd7d5e90ef6d]
link SYS to UC125--><path d="M379.575,576.825 C433.7875,621 559.75,717.5625 682.0375,767.5 C723.6,784.475 771.2375,796.15 814.1875,804.1 " fill="none" id="SYS-to-UC125" style="stroke:#A80036;stroke-width:1.25;"/><polygon fill="#A80036" points="820.5,805.2375,810.3348,798.2927,814.3522,804.1116,808.5333,808.1291,820.5,805.2375" style="stroke:#A80036;stroke-width:1.25;"/><!--MD5=[26647168e18d89ec56325b2942f55fb3]
link SYS to UC126--><path d="M379.8875,592.2125 C431.3625,660.2625 548.425,801.4125 682.0375,872.5 C718.6,891.9625 761.5375,904.5375 801.7875,912.6625 " fill="none" id="SYS-to-UC126" style="stroke:#A80036;stroke-width:1.25;"/><polygon fill="#A80036" points="808.225,913.925,798.1621,906.8327,802.0943,912.7096,796.2174,916.6418,808.225,913.925" style="stroke:#A80036;stroke-width:1.25;"/><!--MD5=[02cba44cc84665276cf7bb1bdcd13932]
link SYS to UC127--><path d="M377.1375,605.6625 C423.8875,696.5875 533.2,884.2125 682.0375,981.25 C709.975,999.4625 742.7,1012.475 775.2875,1021.775 " fill="none" id="SYS-to-UC127" style="stroke:#A80036;stroke-width:1.25;"/><polygon fill="#A80036" points="781.375,1023.4625,771.876,1015.631,775.3535,1021.7879,769.1967,1025.2654,781.375,1023.4625" style="stroke:#A80036;stroke-width:1.25;"/><!--MD5=[6a433f531dc843ee3091d6b8f4096632]
link UU to UC1--><path d="M424.7375,2381.25 C524.825,2381.25 706.125,2381.25 824.825,2381.25 " fill="none" id="UU-to-UC1" style="stroke:#A80036;stroke-width:1.25;"/><polygon fill="#A80036" points="831.1375,2381.25,819.8875,2376.25,824.8875,2381.25,819.8875,2386.25,831.1375,2381.25" style="stroke:#A80036;stroke-width:1.25;"/><!--MD5=[32cc935a4e526a5b9c01a2daae4b74fa]
link PHAR to UC18--><path d="M390.225,1290.25 C451.2625,1269.05 574.85,1227.6625 682.0375,1201.25 C735.6,1188.05 796.225,1176.7125 845.2625,1168.425 " fill="none" id="PHAR-to-UC18" style="stroke:#A80036;stroke-width:1.25;"/><polygon fill="#A80036" points="851.7875,1167.3375,839.8642,1164.2718,845.624,1168.3737,841.5221,1174.1334,851.7875,1167.3375" style="stroke:#A80036;stroke-width:1.25;"/><!--MD5=[3774fab43ef30eedb16add6cc8336e92]
link PHAR to UC21--><path d="M390.175,1300.5125 C472.1,1293.5375 668.4,1276.85 802.875,1265.425 " fill="none" id="PHAR-to-UC21" style="stroke:#A80036;stroke-width:1.25;"/><polygon fill="#A80036" points="809.2375,1264.875,797.6121,1260.8238,803.009,1265.3926,798.4402,1270.7894,809.2375,1264.875" style="stroke:#A80036;stroke-width:1.25;"/><!--MD5=[557cb8a61389fe8190a9e25e3faccfd3]
link PHAR to UC24--><path d="M390.175,1307.075 C477.7375,1314.7 695.9625,1333.725 829.7,1345.375 " fill="none" id="PHAR-to-UC24" style="stroke:#A80036;stroke-width:1.25;"/><polygon fill="#A80036" points="836,1345.925,825.2365,1339.9492,829.7745,1345.372,824.3517,1349.91,836,1345.925" style="stroke:#A80036;stroke-width:1.25;"/><!--MD5=[5a6cf0ac8ef3a1b63a16f4b32dd3c4f2]
link PHAR to UC124--><path d="M390.175,1315.175 C468.4125,1338.625 650.925,1393.325 784.325,1433.3 " fill="none" id="PHAR-to-UC124" style="stroke:#A80036;stroke-width:1.25;"/><polygon fill="#A80036" points="790.6375,1435.1875,781.2877,1427.1785,784.6486,1433.3998,778.4274,1436.7607,790.6375,1435.1875" style="stroke:#A80036;stroke-width:1.25;"/><!--MD5=[b5354e77eeaec3a5c0a143f734fe5382]
link C to UC2--><path d="M373.3,1919.75 C421.15,1859.4625 543.9875,1716.55 682.0375,1648.75 C729.55,1625.4125 787.1625,1613.7375 835.8875,1607.9375 " fill="none" id="C-to-UC2" style="stroke:#A80036;stroke-width:1.25;"/><polygon fill="#A80036" points="842.3875,1607.1875,830.6506,1603.4715,836.1764,1607.8836,831.7643,1613.4093,842.3875,1607.1875" style="stroke:#A80036;stroke-width:1.25;"/><!--MD5=[69668ce398cb2ed14520a984e825e23b]
link C to UC3--><path d="M373.4625,1931.0375 C424.125,1892.95 556.4875,1798.3625 682.0375,1750 C726.425,1732.9 777.4125,1721.2375 822.2875,1713.4 " fill="none" id="C-to-UC3" style="stroke:#A80036;stroke-width:1.25;"/><polygon fill="#A80036" points="828.8625,1712.275,816.9222,1709.2765,822.7049,1713.3459,818.6356,1719.1286,828.8625,1712.275" style="stroke:#A80036;stroke-width:1.25;"/><!--MD5=[3c364845a95ae60ed6d8ff1edef6ddd2]
link C to UC4--><path d="M373.4,1939.775 C425.5375,1921.15 563.7125,1873.125 682.0375,1843.75 C735.575,1830.4625 796.2,1819.1125 845.2375,1810.85 " fill="none" id="C-to-UC4" style="stroke:#A80036;stroke-width:1.25;"/><polygon fill="#A80036" points="851.775,1809.7625,839.8517,1806.6968,845.6115,1810.7987,841.5096,1816.5584,851.775,1809.7625" style="stroke:#A80036;stroke-width:1.25;"/><!--MD5=[8faf1e931a28fa90635652110a42aecc]
link C to UC5--><path d="M373.3125,1945.6875 C440.6875,1939.9625 653.375,1921.8875 798.175,1909.575 " fill="none" id="C-to-UC5" style="stroke:#A80036;stroke-width:1.25;"/><polygon fill="#A80036" points="804.5875,1909.025,792.9506,1905.0069,798.3605,1909.5603,793.8071,1914.9701,804.5875,1909.025" style="stroke:#A80036;stroke-width:1.25;"/><!--MD5=[4633e0d76dd0e520028b61ea200b8150]
link C to UC17--><path d="M373.3125,1949.35 C446.5625,1955.7375 691.6375,1977.0875 834.425,1989.5375 " fill="none" id="C-to-UC17" style="stroke:#A80036;stroke-width:1.25;"/><polygon fill="#A80036" points="840.725,1990.0875,829.9446,1984.1424,834.498,1989.5522,829.0881,1994.1056,840.725,1990.0875" style="stroke:#A80036;stroke-width:1.25;"/><!--MD5=[3454619325b60c4aaffc99e5010337dc]
link C to UC19--><path d="M373.4375,1954.7125 C425.6625,1972.1375 564.025,2017.0875 682.0375,2045 C736.3125,2057.8375 797.75,2068.975 847.0625,2077.1125 " fill="none" id="C-to-UC19" style="stroke:#A80036;stroke-width:1.25;"/><polygon fill="#A80036" points="853.625,2078.1875,843.3184,2071.4543,847.4553,2077.1889,841.7207,2081.3259,853.625,2078.1875" style="stroke:#A80036;stroke-width:1.25;"/><!--MD5=[37695c9e9e70f77b607cc53d22ae2012]
link C to UC67--><path d="M373.55,1963.375 C424.4,2000.1 557.1125,2091.25 682.0375,2137.5 C727.2875,2154.25 779.2125,2165.4875 824.5875,2172.9 " fill="none" id="C-to-UC67" style="stroke:#A80036;stroke-width:1.25;"/><polygon fill="#A80036" points="831.225,2173.9625,820.9025,2167.2537,825.0529,2172.9785,819.3281,2177.129,831.225,2173.9625" style="stroke:#A80036;stroke-width:1.25;"/><!--MD5=[1d9fb2e7a65851fdca76e849f833789a]
link C to UC105--><path d="M373.5625,1974.2125 C421.9625,2032.2625 545.8,2169.975 682.0375,2236.25 C725.0375,2257.1625 776.1,2269.125 821.425,2275.9625 " fill="none" id="C-to-UC105" style="stroke:#A80036;stroke-width:1.25;"/><polygon fill="#A80036" points="828.075,2276.925,817.6558,2270.3674,821.8893,2276.0311,816.2255,2280.2646,828.075,2276.925" style="stroke:#A80036;stroke-width:1.25;"/><!--MD5=[980c96a9d2d6a561803d016e26da8f75]
link CO to UC6--><path d="M311.875,4245.85 C244.325,4245.45 107.7125,4256.1375 57.0375,4344.375 C27.975,4394.9625 27.975,4556.2875 57.0375,4606.875 C93.475,4670.3125 177.6625,4684.7875 246.6125,4684.8625 " fill="none" id="CO-to-UC6" style="stroke:#A80036;stroke-width:1.25;"/><polygon fill="#A80036" points="253.225,4684.825,241.9466,4679.8894,246.9751,4684.8607,242.0038,4689.8892,253.225,4684.825" style="stroke:#A80036;stroke-width:1.25;"/><!--MD5=[f402dc0c183ab58a81b005686d110d81]
link CO to UC26--><path d="M311.875,4245.85 C244.325,4245.45 107.7125,4256.1375 57.0375,4344.375 C19.675,4409.4125 19.675,4448.0875 57.0375,4513.125 C92.8375,4575.4625 174.75,4590.525 243.0125,4591.1 " fill="none" id="CO-to-UC26" style="stroke:#A80036;stroke-width:1.25;"/><polygon fill="#A80036" points="249.575,4591.1,238.3393,4586.0679,243.325,4591.0821,238.3108,4596.0678,249.575,4591.1" style="stroke:#A80036;stroke-width:1.25;"/><!--MD5=[f965f28e472e13bc106366663a8bbe0f]
link CO to UC48--><path d="M311.875,4245.85 C244.325,4245.45 107.7125,4256.1375 57.0375,4344.375 C42.65,4369.425 42.65,4384.325 57.0375,4409.375 C87.5875,4462.575 151.375,4482.4625 211.7125,4488.35 " fill="none" id="CO-to-UC48" style="stroke:#A80036;stroke-width:1.25;"/><polygon fill="#A80036" points="218.3,4488.95,207.538,4482.9715,212.0747,4488.3954,206.6507,4492.9321,218.3,4488.95" style="stroke:#A80036;stroke-width:1.25;"/><!--MD5=[8b261c5ab38bfa89b4b6a7fa2f3d220d]
link CO to UC70--><path d="M350.7875,4299.6625 C350.7875,4312.125 350.7875,4324.575 350.7875,4337.0375 " fill="none" id="CO-to-UC70" style="stroke:#A80036;stroke-width:1.25;"/><polygon fill="#A80036" points="350.7875,4343.5625,355.7875,4332.3125,350.7875,4337.3125,345.7875,4332.3125,350.7875,4343.5625" style="stroke:#A80036;stroke-width:1.25;"/><!--MD5=[f2aeeef0e7f82e4bd55d88af897bea0b]
link ADM to UC10--><path d="M298.8375,3121.9125 C228.025,3122.7 104.5875,3136.5875 57.0375,3219.375 C11.1,3299.35 11.1,3969.4 57.0375,4049.375 C88.6625,4104.45 155.9,4123.825 218.0625,4128.925 " fill="none" id="ADM-to-UC10" style="stroke:#A80036;stroke-width:1.25;"/><polygon fill="#A80036" points="224.45,4129.4,213.6013,4123.5803,218.2172,4128.937,212.8605,4133.5528,224.45,4129.4" style="stroke:#A80036;stroke-width:1.25;"/><!--MD5=[89b7b569ceef1c5585e16f1ab8890910]
link ADM to UC56--><path d="M298.8375,3121.9125 C228.025,3122.7 104.5875,3136.5875 57.0375,3219.375 C16.3625,3290.1875 16.3625,3883.5625 57.0375,3954.375 C92.05,4015.3375 171.05,4031.4625 238.3125,4032.9875 " fill="none" id="ADM-to-UC56" style="stroke:#A80036;stroke-width:1.25;"/><polygon fill="#A80036" points="244.7875,4033.1,233.6249,4027.9079,238.5384,4032.9929,233.4535,4037.9064,244.7875,4033.1" style="stroke:#A80036;stroke-width:1.25;"/><!--MD5=[9b3bb9aa0b2983dbf29cbb28a9341e3a]
link ADM to UC60--><path d="M298.8375,3121.9125 C228.025,3122.7 104.5875,3136.5875 57.0375,3219.375 C21.475,3281.275 21.475,3799.975 57.0375,3861.875 C93.475,3925.3125 177.6625,3939.7875 246.6125,3939.8625 " fill="none" id="ADM-to-UC60" style="stroke:#A80036;stroke-width:1.25;"/><polygon fill="#A80036" points="253.225,3939.825,241.9466,3934.8894,246.9751,3939.8607,242.0038,3944.8892,253.225,3939.825" style="stroke:#A80036;stroke-width:1.25;"/><!--MD5=[f5e71e212736174d596d946e0c998d2a]
link ADM to UC61--><path d="M298.8375,3121.9125 C228.025,3122.7 104.5875,3136.5875 57.0375,3219.375 C26.875,3271.8875 26.875,3711.8625 57.0375,3764.375 C90.6875,3822.975 164.875,3840.475 230.275,3843.4125 " fill="none" id="ADM-to-UC61" style="stroke:#A80036;stroke-width:1.25;"/><polygon fill="#A80036" points="236.575,3843.65,225.5183,3838.2359,230.3293,3843.418,225.1472,3848.229,236.575,3843.65" style="stroke:#A80036;stroke-width:1.25;"/><!--MD5=[a2bf6fc89ff50f4fe088872a2ed36ee4]
link ADM to UC72--><path d="M298.8375,3121.9125 C228.025,3122.7 104.5875,3136.5875 57.0375,3219.375 C7.5,3305.6125 7.5,3580.6375 57.0375,3666.875 C90.7625,3725.5875 165.1625,3743.05 230.6375,3745.925 " fill="none" id="ADM-to-UC72" style="stroke:#A80036;stroke-width:1.25;"/><polygon fill="#A80036" points="236.95,3746.1625,225.8933,3740.7484,230.7043,3745.9305,225.5222,3750.7415,236.95,3746.1625" style="stroke:#A80036;stroke-width:1.25;"/><!--MD5=[d02175d69f3972e36d992dd7520afbae]
link ADM to UC113--><path d="M298.8375,3121.9125 C228.025,3122.7 104.5875,3136.5875 57.0375,3219.375 C24.3875,3276.225 24.3875,3457.525 57.0375,3514.375 C74.05,3544 100.725,3564.9625 131.2,3579.75 " fill="none" id="ADM-to-UC113" style="stroke:#A80036;stroke-width:1.25;"/><polygon fill="#A80036" points="136.9375,3582.4375,128.859,3573.1477,131.2743,3579.7935,124.6286,3582.2088,136.9375,3582.4375" style="stroke:#A80036;stroke-width:1.25;"/><!--MD5=[942937c4f6be2db3131baab939ff6247]
link ADM to UC114--><path d="M298.8375,3121.9125 C228.025,3122.7 104.5875,3136.5875 57.0375,3219.375 C11.9375,3297.9 11.9375,3344.6 57.0375,3423.125 C93.875,3487.275 179.675,3500.95 249.0875,3500.35 " fill="none" id="ADM-to-UC114" style="stroke:#A80036;stroke-width:1.25;"/><polygon fill="#A80036" points="255.75,3500.25,244.4297,3495.4112,249.5006,3500.3393,244.5726,3505.4102,255.75,3500.25" style="stroke:#A80036;stroke-width:1.25;"/><!--MD5=[9101e03ac1afa2463855d70588109f98]
link ADM to UC115--><path d="M298.8375,3121.9125 C228.025,3122.7 104.5875,3136.5875 57.0375,3219.375 C33.5125,3260.325 33.5125,3284.675 57.0375,3325.625 C91.2625,3385.2125 167.4,3402.3125 233.5875,3404.8 " fill="none" id="ADM-to-UC115" style="stroke:#A80036;stroke-width:1.25;"/><polygon fill="#A80036" points="239.9625,3404.9875,228.8751,3399.6366,233.7156,3404.7912,228.561,3409.6316,239.9625,3404.9875" style="stroke:#A80036;stroke-width:1.25;"/><!--MD5=[19b0352c6b56207ef259839915ed6639]
link ADM to UC117--><path d="M350.7875,3175.8625 C350.7875,3188.125 350.7875,3200.375 350.7875,3212.6375 " fill="none" id="ADM-to-UC117" style="stroke:#A80036;stroke-width:1.25;"/><polygon fill="#A80036" points="350.7875,3219.0375,355.7875,3207.7875,350.7875,3212.7875,345.7875,3207.7875,350.7875,3219.0375" style="stroke:#A80036;stroke-width:1.25;"/><!--MD5=[206314a6f9e261a7d39af819f6a8db5f]
link PHARADM to UC16--><path d="M257.0125,2528.875 C186.7125,2534.775 96.1625,2556.2375 57.0375,2624.375 C25.35,2679.5375 25.35,2855.4625 57.0375,2910.625 C81.675,2953.525 127.5375,2975.8375 175.8125,2986.875 " fill="none" id="PHARADM-to-UC16" style="stroke:#A80036;stroke-width:1.25;"/><polygon fill="#A80036" points="182.325,2988.3,172.4072,2981.0062,176.2201,2986.9612,170.2651,2990.7741,182.325,2988.3" style="stroke:#A80036;stroke-width:1.25;"/><!--MD5=[a7632353c2ddabc350fe1bf25cfcda38]
link PHARADM to UC106--><path d="M257.0125,2528.875 C186.7125,2534.775 96.1625,2556.2375 57.0375,2624.375 C16.3625,2695.1875 16.3625,2737.3125 57.0375,2808.125 C88.2875,2862.5375 154.2875,2882.1 215.825,2887.4875 " fill="none" id="PHARADM-to-UC106" style="stroke:#A80036;stroke-width:1.25;"/><polygon fill="#A80036" points="222.15,2887.9875,211.3359,2882.1038,215.92,2887.4877,210.5362,2892.0718,222.15,2887.9875" style="stroke:#A80036;stroke-width:1.25;"/><!--MD5=[9c099cd5e70802b077c525a801977cac]
link PHARADM to UC107--><path d="M257.0125,2528.875 C186.7125,2534.775 96.1625,2556.2375 57.0375,2624.375 C41.8125,2650.875 41.8125,2666.625 57.0375,2693.125 C83.2,2738.6875 133.375,2760.825 184.95,2770.8625 " fill="none" id="PHARADM-to-UC107" style="stroke:#A80036;stroke-width:1.25;"/><polygon fill="#A80036" points="191.25,2772.0375,181.1007,2765.0694,185.1048,2770.8975,179.2767,2774.9017,191.25,2772.0375" style="stroke:#A80036;stroke-width:1.25;"/><!--MD5=[3305146fc6fcc1eb0ecd72a5f70c3495]
link PHARADM to UC122--><path d="M350.7875,2580.9625 C350.7875,2593.2375 350.7875,2605.5125 350.7875,2617.8 " fill="none" id="PHARADM-to-UC122" style="stroke:#A80036;stroke-width:1.25;"/><polygon fill="#A80036" points="350.7875,2624.225,355.8196,2612.9893,350.8054,2617.975,345.8197,2612.9608,350.7875,2624.225" style="stroke:#A80036;stroke-width:1.25;"/><!--MD5=[1669ecf237a0f4dc2f3a13e760a441c8]
@startuml
usecase UC1 as "UC1 - Register Client"
usecase UC2 as "UC2 - Make Order"
usecase UC3 as "UC3 - Check Order Status"
usecase UC4 as "UC4 - Check Credits"
usecase UC5 as "UC5 - Make Order As Received"
usecase UC6 as "UC6 - Courier Login"
usecase UC10 as "UC10 - Administrator Login"
usecase UC16 as "UC16 - Pharmacy Administrator Login"
usecase UC17 as "UC17 - Check Order"
usecase UC18 as "UC18 - Check Stock"
usecase UC19 as "UC19 - Client Login"
usecase UC21 as "UC21 - Check Scooter Battery"
usecase UC24 as "UC24 - Assign Orders"
usecase UC26 as "UC26 - Shortest Phat"
usecase UC28 as "UC28 - Charging Time Email"
usecase UC48 as "UC48 - Energy Consumption"
usecase UC56 as "UC56 - Add Pharmacy"
usecase UC60 as "UC60 - Add Scooter"
usecase UC61 as "UC61 - Remove Scooter"
usecase UC67 as "UC67 - Check Catalogue"
usecase UC70 as "UC70 - Check Courier Requests"
usecase UC72 as "UC72 - Register Courier"
usecase UC105 as "UC105 - Update Credits"
usecase UC106 as "UC106 - Add Items to Stock"
usecase UC107 as "UC107 - Remove Items From Stock"
usecase UC108 as "UC108 - Order Can Not Be Full filled"
usecase UC109 as "UC109 - Client Item Not In Cart Notification "
usecase UC110 as "UC110 - Pharmacy Invoice/Receipt "
usecase UC111 as "UC111 - Client Invoice/Receipt "
usecase UC113 as "UC113 - Add Park Slot and Charging Station to Scooter Park"
usecase UC114 as "UC114 - Add Drone"
usecase UC115 as "UC115 -Remove Drone"
usecase UC117 as "UC117 - Add Park Slot and Charging Station to Drone Park"
usecase UC118 as "UC118 - Delivery Start Notification"
usecase UC121 as "UC121 - Nearest Pharmacy"
usecase UC122 as "UC122 - Request Not Existent Item"
usecase UC124 as "UC124 - Send Request Asking for Items to Another Pharmacy"
usecase UC125 as "UC125 - Send Request Items"
usecase UC126 as "UC126 - Distribute Park Energy"
usecase UC127 as "UC127 - Send Scooter Message to Courier"



actor "Unregistered  User" as UU
actor "Pharmacy Administrator" as PHARADM
actor "Pharmacy" as PHAR
actor "Administrator" as ADM
actor "Client" as C
actor "COURIER" as CO
actor "System" as SYS

left to right direction
SYS- ->(UC28)
SYS- ->(UC108)
SYS- ->(UC109)
SYS- ->(UC110)
SYS- ->(UC111)
SYS- ->(UC118)
SYS- ->(UC121)
SYS- ->(UC125)
SYS- ->(UC126)
SYS- ->(UC127)

UU - ->(UC1)

PHAR - ->(UC18)
PHAR - ->(UC21)
PHAR - ->(UC24)
PHAR - ->(UC124)

C - ->(UC2)
C - ->(UC3)
C - ->(UC4)
C - ->(UC5)
C - ->(UC17)
C - ->(UC19)
C - ->(UC67)
C - ->(UC105)

CO->(UC6)
CO->(UC26)
CO->(UC48)
CO->(UC70)

ADM->(UC10)
ADM->(UC56)
ADM->(UC60)
ADM->(UC61)
ADM->(UC72)
ADM->(UC113)
ADM->(UC114)
ADM->(UC115)
ADM->(UC117)


PHARADM->(UC16)
PHARADM->(UC106)
PHARADM->(UC107)
PHARADM->(UC122)

@enduml

PlantUML version 1.2021.00(Sun Jan 10 10:25:05 GMT 2021)
(GPL source distribution)
Java Runtime: OpenJDK Runtime Environment
JVM: OpenJDK 64-Bit Server VM
Default Encoding: Cp1252
Language: pt
Country: PT
--></g></svg>