<?xml version="1.0" encoding="UTF-8" standalone="no"?><svg xmlns="http://www.w3.org/2000/svg" xmlns:xlink="http://www.w3.org/1999/xlink" contentScriptType="application/ecmascript" contentStyleType="text/css" height="470px" preserveAspectRatio="none" style="width:720px;height:470px;" version="1.1" viewBox="0 0 720 470" width="720px" zoomAndPan="magnify"><defs><filter height="300%" id="f85yq7tzo8f4t" width="300%" x="-1" y="-1"><feGaussianBlur result="blurOut" stdDeviation="2.0"/><feColorMatrix in="blurOut" result="blurOut2" type="matrix" values="0 0 0 0 0 0 0 0 0 0 0 0 0 0 0 0 0 0 .4 0"/><feOffset dx="4.0" dy="4.0" in="blurOut2" result="blurOut3"/><feBlend in="SourceGraphic" in2="blurOut3" mode="normal"/></filter></defs><g><!--MD5=[6ff6d2a385568d3b737b6b18bc2b62c0]
class ShortestPathUI--><rect codeLine="4" fill="#FEFECE" filter="url(#f85yq7tzo8f4t)" height="48" id="ShortestPathUI" style="stroke:#A80036;stroke-width:1.5;" width="115" x="7" y="208"/><ellipse cx="22" cy="224" fill="#ADD1B2" rx="11" ry="11" style="stroke:#A80036;stroke-width:1.0;"/><path d="M24,220.5 Q24.2031,220 24.4375,219.75 Q24.6719,219.5 24.9375,219.5 Q25.4063,219.5 25.7031,219.7813 Q26,220.0625 26,220.7188 L26,222.2813 Q26,222.9375 25.7188,223.2188 Q25.4375,223.5 25,223.5 Q24.6094,223.5 24.3594,223.3281 Q24.1094,223.1563 24,222.7031 Q23.9531,222.3906 23.7813,222.2188 Q23.4688,221.8906 22.9063,221.7031 Q22.3438,221.5 21.7813,221.5 Q21.0781,221.5 20.4844,221.7813 Q19.9063,222.0625 19.4531,222.6875 Q19,223.3125 19,224.1719 L19,225.0938 Q19,226.125 19.8438,226.8125 Q20.6875,227.5 22.1875,227.5 Q23.0781,227.5 23.7031,227.2969 Q24.0625,227.1875 24.4688,226.8281 Q24.7344,226.625 24.875,226.5625 Q25.0156,226.5 25.1875,226.5 Q25.5156,226.5 25.75,226.7656 Q26,227.0156 26,227.375 Q26,227.7188 25.6563,228.125 Q25.1563,228.7188 24.3594,229.0469 Q23.3125,229.5 22.0313,229.5 Q20.5313,229.5 19.3281,228.9063 Q18.3594,228.4375 17.6719,227.4219 Q17,226.4063 17,225.2031 L17,224.1094 Q17,222.8594 17.5938,221.7656 Q18.2031,220.6719 19.25,220.0938 Q20.3125,219.5 21.5,219.5 Q22.2188,219.5 22.8438,219.75 Q23.4688,220 24,220.5 Z " fill="#000000"/><text fill="#000000" font-family="sans-serif" font-size="12" lengthAdjust="spacingAndGlyphs" textLength="83" x="36" y="228.9102">ShortestPathUI</text><line style="stroke:#A80036;stroke-width:1.5;" x1="8" x2="121" y1="240" y2="240"/><line style="stroke:#A80036;stroke-width:1.5;" x1="8" x2="121" y1="248" y2="248"/><!--MD5=[9b4d6350505f0ccf5a42f8153c75860f]
class ShortestPathController--><rect codeLine="8" fill="#FEFECE" filter="url(#f85yq7tzo8f4t)" height="61.8359" id="ShortestPathController" style="stroke:#A80036;stroke-width:1.5;" width="157" x="182" y="201"/><ellipse cx="197" cy="217" fill="#ADD1B2" rx="11" ry="11" style="stroke:#A80036;stroke-width:1.0;"/><path d="M199,213.5 Q199.2031,213 199.4375,212.75 Q199.6719,212.5 199.9375,212.5 Q200.4063,212.5 200.7031,212.7813 Q201,213.0625 201,213.7188 L201,215.2813 Q201,215.9375 200.7188,216.2188 Q200.4375,216.5 200,216.5 Q199.6094,216.5 199.3594,216.3281 Q199.1094,216.1563 199,215.7031 Q198.9531,215.3906 198.7813,215.2188 Q198.4688,214.8906 197.9063,214.7031 Q197.3438,214.5 196.7813,214.5 Q196.0781,214.5 195.4844,214.7813 Q194.9063,215.0625 194.4531,215.6875 Q194,216.3125 194,217.1719 L194,218.0938 Q194,219.125 194.8438,219.8125 Q195.6875,220.5 197.1875,220.5 Q198.0781,220.5 198.7031,220.2969 Q199.0625,220.1875 199.4688,219.8281 Q199.7344,219.625 199.875,219.5625 Q200.0156,219.5 200.1875,219.5 Q200.5156,219.5 200.75,219.7656 Q201,220.0156 201,220.375 Q201,220.7188 200.6563,221.125 Q200.1563,221.7188 199.3594,222.0469 Q198.3125,222.5 197.0313,222.5 Q195.5313,222.5 194.3281,221.9063 Q193.3594,221.4375 192.6719,220.4219 Q192,219.4063 192,218.2031 L192,217.1094 Q192,215.8594 192.5938,214.7656 Q193.2031,213.6719 194.25,213.0938 Q195.3125,212.5 196.5,212.5 Q197.2188,212.5 197.8438,212.75 Q198.4688,213 199,213.5 Z " fill="#000000"/><text fill="#000000" font-family="sans-serif" font-size="12" lengthAdjust="spacingAndGlyphs" textLength="125" x="211" y="221.9102">ShortestPathController</text><line style="stroke:#A80036;stroke-width:1.5;" x1="183" x2="338" y1="233" y2="233"/><line style="stroke:#A80036;stroke-width:1.5;" x1="183" x2="338" y1="241" y2="241"/><ellipse cx="193" cy="252" fill="#84BE84" rx="3" ry="3" style="stroke:#038048;stroke-width:1.0;"/><text fill="#000000" font-family="sans-serif" font-size="11" lengthAdjust="spacingAndGlyphs" textLength="99" x="202" y="256.4189">checkShortestPath()</text><!--MD5=[0b4e4b4980470ea387cc45de9bd14b5b]
class Application--><rect codeLine="13" fill="#FEFECE" filter="url(#f85yq7tzo8f4t)" height="61.8359" id="Application" style="stroke:#A80036;stroke-width:1.5;" width="92" x="431" y="7"/><ellipse cx="446" cy="23" fill="#ADD1B2" rx="11" ry="11" style="stroke:#A80036;stroke-width:1.0;"/><path d="M448,19.5 Q448.2031,19 448.4375,18.75 Q448.6719,18.5 448.9375,18.5 Q449.4063,18.5 449.7031,18.7813 Q450,19.0625 450,19.7188 L450,21.2813 Q450,21.9375 449.7188,22.2188 Q449.4375,22.5 449,22.5 Q448.6094,22.5 448.3594,22.3281 Q448.1094,22.1563 448,21.7031 Q447.9531,21.3906 447.7813,21.2188 Q447.4688,20.8906 446.9063,20.7031 Q446.3438,20.5 445.7813,20.5 Q445.0781,20.5 444.4844,20.7813 Q443.9063,21.0625 443.4531,21.6875 Q443,22.3125 443,23.1719 L443,24.0938 Q443,25.125 443.8438,25.8125 Q444.6875,26.5 446.1875,26.5 Q447.0781,26.5 447.7031,26.2969 Q448.0625,26.1875 448.4688,25.8281 Q448.7344,25.625 448.875,25.5625 Q449.0156,25.5 449.1875,25.5 Q449.5156,25.5 449.75,25.7656 Q450,26.0156 450,26.375 Q450,26.7188 449.6563,27.125 Q449.1563,27.7188 448.3594,28.0469 Q447.3125,28.5 446.0313,28.5 Q444.5313,28.5 443.3281,27.9063 Q442.3594,27.4375 441.6719,26.4219 Q441,25.4063 441,24.2031 L441,23.1094 Q441,21.8594 441.5938,20.7656 Q442.2031,19.6719 443.25,19.0938 Q444.3125,18.5 445.5,18.5 Q446.2188,18.5 446.8438,18.75 Q447.4688,19 448,19.5 Z " fill="#000000"/><text fill="#000000" font-family="sans-serif" font-size="12" lengthAdjust="spacingAndGlyphs" textLength="60" x="460" y="27.9102">Application</text><line style="stroke:#A80036;stroke-width:1.5;" x1="432" x2="522" y1="39" y2="39"/><line style="stroke:#A80036;stroke-width:1.5;" x1="432" x2="522" y1="47" y2="47"/><ellipse cx="442" cy="58" fill="#84BE84" rx="3" ry="3" style="stroke:#038048;stroke-width:1.0;"/><text fill="#000000" font-family="sans-serif" font-size="11" lengthAdjust="spacingAndGlyphs" textLength="46" x="451" y="62.4189">getUser()</text><!--MD5=[3fd616f346a44cd59a91eb10b19e157c]
class User--><rect codeLine="17" fill="#FEFECE" filter="url(#f85yq7tzo8f4t)" height="61.8359" id="User" style="stroke:#A80036;stroke-width:1.5;" width="106" x="424" y="104"/><ellipse cx="460.15" cy="120" fill="#ADD1B2" rx="11" ry="11" style="stroke:#A80036;stroke-width:1.0;"/><path d="M462.15,116.5 Q462.3531,116 462.5875,115.75 Q462.8219,115.5 463.0875,115.5 Q463.5563,115.5 463.8531,115.7813 Q464.15,116.0625 464.15,116.7188 L464.15,118.2813 Q464.15,118.9375 463.8688,119.2188 Q463.5875,119.5 463.15,119.5 Q462.7594,119.5 462.5094,119.3281 Q462.2594,119.1563 462.15,118.7031 Q462.1031,118.3906 461.9313,118.2188 Q461.6188,117.8906 461.0563,117.7031 Q460.4938,117.5 459.9313,117.5 Q459.2281,117.5 458.6344,117.7813 Q458.0563,118.0625 457.6031,118.6875 Q457.15,119.3125 457.15,120.1719 L457.15,121.0938 Q457.15,122.125 457.9938,122.8125 Q458.8375,123.5 460.3375,123.5 Q461.2281,123.5 461.8531,123.2969 Q462.2125,123.1875 462.6188,122.8281 Q462.8844,122.625 463.025,122.5625 Q463.1656,122.5 463.3375,122.5 Q463.6656,122.5 463.9,122.7656 Q464.15,123.0156 464.15,123.375 Q464.15,123.7188 463.8063,124.125 Q463.3063,124.7188 462.5094,125.0469 Q461.4625,125.5 460.1813,125.5 Q458.6813,125.5 457.4781,124.9063 Q456.5094,124.4375 455.8219,123.4219 Q455.15,122.4063 455.15,121.2031 L455.15,120.1094 Q455.15,118.8594 455.7438,117.7656 Q456.3531,116.6719 457.4,116.0938 Q458.4625,115.5 459.65,115.5 Q460.3688,115.5 460.9938,115.75 Q461.6188,116 462.15,116.5 Z " fill="#000000"/><text fill="#000000" font-family="sans-serif" font-size="12" lengthAdjust="spacingAndGlyphs" textLength="27" x="478.85" y="124.9102">User</text><line style="stroke:#A80036;stroke-width:1.5;" x1="425" x2="529" y1="136" y2="136"/><line style="stroke:#A80036;stroke-width:1.5;" x1="425" x2="529" y1="144" y2="144"/><ellipse cx="435" cy="155" fill="#84BE84" rx="3" ry="3" style="stroke:#038048;stroke-width:1.0;"/><text fill="#000000" font-family="sans-serif" font-size="11" lengthAdjust="spacingAndGlyphs" textLength="80" x="444" y="159.4189">getCourier(user)</text><!--MD5=[ed6624c6556d5e7b1bd23032162d20b7]
class Client--><rect codeLine="22" fill="#FEFECE" filter="url(#f85yq7tzo8f4t)" height="61.8359" id="Client" style="stroke:#A80036;stroke-width:1.5;" width="117" x="418.5" y="201"/><ellipse cx="457.35" cy="217" fill="#ADD1B2" rx="11" ry="11" style="stroke:#A80036;stroke-width:1.0;"/><path d="M459.35,213.5 Q459.5531,213 459.7875,212.75 Q460.0219,212.5 460.2875,212.5 Q460.7563,212.5 461.0531,212.7813 Q461.35,213.0625 461.35,213.7188 L461.35,215.2813 Q461.35,215.9375 461.0688,216.2188 Q460.7875,216.5 460.35,216.5 Q459.9594,216.5 459.7094,216.3281 Q459.4594,216.1563 459.35,215.7031 Q459.3031,215.3906 459.1313,215.2188 Q458.8188,214.8906 458.2563,214.7031 Q457.6938,214.5 457.1313,214.5 Q456.4281,214.5 455.8344,214.7813 Q455.2563,215.0625 454.8031,215.6875 Q454.35,216.3125 454.35,217.1719 L454.35,218.0938 Q454.35,219.125 455.1938,219.8125 Q456.0375,220.5 457.5375,220.5 Q458.4281,220.5 459.0531,220.2969 Q459.4125,220.1875 459.8188,219.8281 Q460.0844,219.625 460.225,219.5625 Q460.3656,219.5 460.5375,219.5 Q460.8656,219.5 461.1,219.7656 Q461.35,220.0156 461.35,220.375 Q461.35,220.7188 461.0063,221.125 Q460.5063,221.7188 459.7094,222.0469 Q458.6625,222.5 457.3813,222.5 Q455.8813,222.5 454.6781,221.9063 Q453.7094,221.4375 453.0219,220.4219 Q452.35,219.4063 452.35,218.2031 L452.35,217.1094 Q452.35,215.8594 452.9438,214.7656 Q453.5531,213.6719 454.6,213.0938 Q455.6625,212.5 456.85,212.5 Q457.5688,212.5 458.1938,212.75 Q458.8188,213 459.35,213.5 Z " fill="#000000"/><text fill="#000000" font-family="sans-serif" font-size="12" lengthAdjust="spacingAndGlyphs" textLength="32" x="476.65" y="221.9102">Client</text><line style="stroke:#A80036;stroke-width:1.5;" x1="419.5" x2="534.5" y1="233" y2="233"/><line style="stroke:#A80036;stroke-width:1.5;" x1="419.5" x2="534.5" y1="241" y2="241"/><ellipse cx="429.5" cy="252" fill="#84BE84" rx="3" ry="3" style="stroke:#038048;stroke-width:1.0;"/><text fill="#000000" font-family="sans-serif" font-size="11" lengthAdjust="spacingAndGlyphs" textLength="91" x="438.5" y="256.4189">getClientAddress()</text><!--MD5=[7f2a9fafcebe4f099f71398fd3e2ed00]
class Pharmacy--><rect codeLine="26" fill="#FEFECE" filter="url(#f85yq7tzo8f4t)" height="61.8359" id="Pharmacy" style="stroke:#A80036;stroke-width:1.5;" width="133" x="410.5" y="298"/><ellipse cx="446.2" cy="314" fill="#ADD1B2" rx="11" ry="11" style="stroke:#A80036;stroke-width:1.0;"/><path d="M448.2,310.5 Q448.4031,310 448.6375,309.75 Q448.8719,309.5 449.1375,309.5 Q449.6063,309.5 449.9031,309.7813 Q450.2,310.0625 450.2,310.7188 L450.2,312.2813 Q450.2,312.9375 449.9188,313.2188 Q449.6375,313.5 449.2,313.5 Q448.8094,313.5 448.5594,313.3281 Q448.3094,313.1563 448.2,312.7031 Q448.1531,312.3906 447.9813,312.2188 Q447.6688,311.8906 447.1063,311.7031 Q446.5438,311.5 445.9813,311.5 Q445.2781,311.5 444.6844,311.7813 Q444.1063,312.0625 443.6531,312.6875 Q443.2,313.3125 443.2,314.1719 L443.2,315.0938 Q443.2,316.125 444.0438,316.8125 Q444.8875,317.5 446.3875,317.5 Q447.2781,317.5 447.9031,317.2969 Q448.2625,317.1875 448.6688,316.8281 Q448.9344,316.625 449.075,316.5625 Q449.2156,316.5 449.3875,316.5 Q449.7156,316.5 449.95,316.7656 Q450.2,317.0156 450.2,317.375 Q450.2,317.7188 449.8563,318.125 Q449.3563,318.7188 448.5594,319.0469 Q447.5125,319.5 446.2313,319.5 Q444.7313,319.5 443.5281,318.9063 Q442.5594,318.4375 441.8719,317.4219 Q441.2,316.4063 441.2,315.2031 L441.2,314.1094 Q441.2,312.8594 441.7938,311.7656 Q442.4031,310.6719 443.45,310.0938 Q444.5125,309.5 445.7,309.5 Q446.4188,309.5 447.0438,309.75 Q447.6688,310 448.2,310.5 Z " fill="#000000"/><text fill="#000000" font-family="sans-serif" font-size="12" lengthAdjust="spacingAndGlyphs" textLength="55" x="464.8" y="318.9102">Pharmacy</text><line style="stroke:#A80036;stroke-width:1.5;" x1="411.5" x2="542.5" y1="330" y2="330"/><line style="stroke:#A80036;stroke-width:1.5;" x1="411.5" x2="542.5" y1="338" y2="338"/><ellipse cx="421.5" cy="349" fill="#84BE84" rx="3" ry="3" style="stroke:#038048;stroke-width:1.0;"/><text fill="#000000" font-family="sans-serif" font-size="11" lengthAdjust="spacingAndGlyphs" textLength="107" x="430.5" y="353.4189">getPharmacyAdress()</text><!--MD5=[0f39e4cb6f03951afbf6d14bd2505654]
class Address--><rect codeLine="31" fill="#FEFECE" filter="url(#f85yq7tzo8f4t)" height="61.8359" id="Address" style="stroke:#A80036;stroke-width:1.5;" width="91" x="615" y="250"/><ellipse cx="635.85" cy="266" fill="#ADD1B2" rx="11" ry="11" style="stroke:#A80036;stroke-width:1.0;"/><path d="M637.85,262.5 Q638.0531,262 638.2875,261.75 Q638.5219,261.5 638.7875,261.5 Q639.2563,261.5 639.5531,261.7813 Q639.85,262.0625 639.85,262.7188 L639.85,264.2813 Q639.85,264.9375 639.5688,265.2188 Q639.2875,265.5 638.85,265.5 Q638.4594,265.5 638.2094,265.3281 Q637.9594,265.1563 637.85,264.7031 Q637.8031,264.3906 637.6313,264.2188 Q637.3188,263.8906 636.7563,263.7031 Q636.1938,263.5 635.6313,263.5 Q634.9281,263.5 634.3344,263.7813 Q633.7563,264.0625 633.3031,264.6875 Q632.85,265.3125 632.85,266.1719 L632.85,267.0938 Q632.85,268.125 633.6938,268.8125 Q634.5375,269.5 636.0375,269.5 Q636.9281,269.5 637.5531,269.2969 Q637.9125,269.1875 638.3188,268.8281 Q638.5844,268.625 638.725,268.5625 Q638.8656,268.5 639.0375,268.5 Q639.3656,268.5 639.6,268.7656 Q639.85,269.0156 639.85,269.375 Q639.85,269.7188 639.5063,270.125 Q639.0063,270.7188 638.2094,271.0469 Q637.1625,271.5 635.8813,271.5 Q634.3813,271.5 633.1781,270.9063 Q632.2094,270.4375 631.5219,269.4219 Q630.85,268.4063 630.85,267.2031 L630.85,266.1094 Q630.85,264.8594 631.4438,263.7656 Q632.0531,262.6719 633.1,262.0938 Q634.1625,261.5 635.35,261.5 Q636.0688,261.5 636.6938,261.75 Q637.3188,262 637.85,262.5 Z " fill="#000000"/><text fill="#000000" font-family="sans-serif" font-size="12" lengthAdjust="spacingAndGlyphs" textLength="46" x="651.15" y="270.9102">Address</text><line style="stroke:#A80036;stroke-width:1.5;" x1="616" x2="705" y1="282" y2="282"/><line style="stroke:#A80036;stroke-width:1.5;" x1="616" x2="705" y1="290" y2="290"/><ellipse cx="626" cy="301" fill="#84BE84" rx="3" ry="3" style="stroke:#038048;stroke-width:1.0;"/><text fill="#000000" font-family="sans-serif" font-size="11" lengthAdjust="spacingAndGlyphs" textLength="65" x="635" y="305.4189">getAddress()</text><!--MD5=[c70876b204a2e0c24c89b8dde9d4901d]
class Geographical_location--><rect codeLine="35" fill="#FEFECE" filter="url(#f85yq7tzo8f4t)" height="61.8359" id="Geographical_location" style="stroke:#A80036;stroke-width:1.5;" width="156" x="399" y="395"/><ellipse cx="414" cy="411" fill="#ADD1B2" rx="11" ry="11" style="stroke:#A80036;stroke-width:1.0;"/><path d="M416,407.5 Q416.2031,407 416.4375,406.75 Q416.6719,406.5 416.9375,406.5 Q417.4063,406.5 417.7031,406.7813 Q418,407.0625 418,407.7188 L418,409.2813 Q418,409.9375 417.7188,410.2188 Q417.4375,410.5 417,410.5 Q416.6094,410.5 416.3594,410.3281 Q416.1094,410.1563 416,409.7031 Q415.9531,409.3906 415.7813,409.2188 Q415.4688,408.8906 414.9063,408.7031 Q414.3438,408.5 413.7813,408.5 Q413.0781,408.5 412.4844,408.7813 Q411.9063,409.0625 411.4531,409.6875 Q411,410.3125 411,411.1719 L411,412.0938 Q411,413.125 411.8438,413.8125 Q412.6875,414.5 414.1875,414.5 Q415.0781,414.5 415.7031,414.2969 Q416.0625,414.1875 416.4688,413.8281 Q416.7344,413.625 416.875,413.5625 Q417.0156,413.5 417.1875,413.5 Q417.5156,413.5 417.75,413.7656 Q418,414.0156 418,414.375 Q418,414.7188 417.6563,415.125 Q417.1563,415.7188 416.3594,416.0469 Q415.3125,416.5 414.0313,416.5 Q412.5313,416.5 411.3281,415.9063 Q410.3594,415.4375 409.6719,414.4219 Q409,413.4063 409,412.2031 L409,411.1094 Q409,409.8594 409.5938,408.7656 Q410.2031,407.6719 411.25,407.0938 Q412.3125,406.5 413.5,406.5 Q414.2188,406.5 414.8438,406.75 Q415.4688,407 416,407.5 Z " fill="#000000"/><text fill="#000000" font-family="sans-serif" font-size="12" lengthAdjust="spacingAndGlyphs" textLength="124" x="428" y="415.9102">Geographical_location</text><line style="stroke:#A80036;stroke-width:1.5;" x1="400" x2="554" y1="427" y2="427"/><line style="stroke:#A80036;stroke-width:1.5;" x1="400" x2="554" y1="435" y2="435"/><ellipse cx="410" cy="446" fill="#84BE84" rx="3" ry="3" style="stroke:#038048;stroke-width:1.0;"/><text fill="#000000" font-family="sans-serif" font-size="11" lengthAdjust="spacingAndGlyphs" textLength="75" x="419" y="450.4189">getBestRout()()</text><!--MD5=[097168aba4a1d9e38f40b443bb4add6c]
link ShortestPathUI to ShortestPathController--><path codeLine="39" d="M122.13,232 C139.21,232 158.31,232 176.71,232 " fill="none" id="ShortestPathUI-to-ShortestPathController" style="stroke:#A80036;stroke-width:1.0;stroke-dasharray:7.0,7.0;"/><polygon fill="#A80036" points="181.88,232,172.88,228,176.88,232,172.88,236,181.88,232" style="stroke:#A80036;stroke-width:1.0;"/><!--MD5=[1cace3bb625562853b08bbb19709b503]
link ShortestPathController to Application--><path codeLine="40" d="M286.58,200.99 C312.7,169.81 355.77,121.42 399,86 C407.45,79.07 416.98,72.38 426.38,66.29 " fill="none" id="ShortestPathController-to-Application" style="stroke:#A80036;stroke-width:1.0;stroke-dasharray:7.0,7.0;"/><polygon fill="#A80036" points="430.68,63.54,420.9405,65.0036,426.4635,66.2272,425.2399,71.7501,430.68,63.54" style="stroke:#A80036;stroke-width:1.0;"/><!--MD5=[d766077fc8fde15ca9c4215a20c97da2]
link ShortestPathController to User--><path codeLine="41" d="M330.25,200.91 C358.98,187.92 391.96,173 419.27,160.65 " fill="none" id="ShortestPathController-to-User" style="stroke:#A80036;stroke-width:1.0;stroke-dasharray:7.0,7.0;"/><polygon fill="#A80036" points="423.95,158.54,414.1015,158.6228,419.3982,160.609,417.4119,165.9057,423.95,158.54" style="stroke:#A80036;stroke-width:1.0;"/><!--MD5=[3d0c6d478736b43f594cec83bef4067a]
link ShortestPathController to Client--><path codeLine="42" d="M339.24,232 C363.54,232 390.03,232 413.17,232 " fill="none" id="ShortestPathController-to-Client" style="stroke:#A80036;stroke-width:1.0;stroke-dasharray:7.0,7.0;"/><polygon fill="#A80036" points="418.36,232,409.36,228,413.36,232,409.36,236,418.36,232" style="stroke:#A80036;stroke-width:1.0;"/><!--MD5=[44f711311340d7feae91e4de303caabb]
link ShortestPathController to Pharmacy--><path codeLine="43" d="M330.25,263.09 C354.26,273.95 381.24,286.15 405.4,297.07 " fill="none" id="ShortestPathController-to-Pharmacy" style="stroke:#A80036;stroke-width:1.0;stroke-dasharray:7.0,7.0;"/><polygon fill="#A80036" points="410.19,299.24,403.6328,291.8913,405.6328,297.1828,400.3413,299.1829,410.19,299.24" style="stroke:#A80036;stroke-width:1.0;"/><text fill="#000000" font-family="sans-serif" font-size="13" lengthAdjust="spacingAndGlyphs" textLength="7" x="336.293" y="284.3317">1</text><text fill="#000000" font-family="sans-serif" font-size="13" lengthAdjust="spacingAndGlyphs" textLength="5" x="397.6092" y="310.3833">*</text><!--MD5=[963b5d80d1b878bf811d0cb6a9dbfc0f]
link ShortestPathController to Geographical_location--><path codeLine="44" d="M287.18,263.28 C313.43,294.18 356.3,341.81 399,377 C405.28,382.17 412.14,387.24 419.09,392.04 " fill="none" id="ShortestPathController-to-Geographical_location" style="stroke:#A80036;stroke-width:1.0;stroke-dasharray:7.0,7.0;"/><polygon fill="#A80036" points="423.42,395,418.223,386.634,419.284,392.1904,413.7276,393.2515,423.42,395" style="stroke:#A80036;stroke-width:1.0;"/><text fill="#000000" font-family="sans-serif" font-size="13" lengthAdjust="spacingAndGlyphs" textLength="7" x="284.5987" y="284.312">1</text><text fill="#000000" font-family="sans-serif" font-size="13" lengthAdjust="spacingAndGlyphs" textLength="5" x="406.1525" y="384.0203">*</text><!--MD5=[bd708f2371c655af07b49ddbdb30848a]
link Client to Address--><path codeLine="45" d="M535.68,247.57 C559.61,254.03 587.11,261.46 610.1,267.66 " fill="none" id="Client-to-Address" style="stroke:#A80036;stroke-width:1.0;"/><polygon fill="#A80036" points="614.93,268.97,607.2794,262.7678,610.1019,267.6701,605.1996,270.4927,614.93,268.97" style="stroke:#A80036;stroke-width:1.0;"/><text fill="#000000" font-family="sans-serif" font-size="13" lengthAdjust="spacingAndGlyphs" textLength="7" x="543.6468" y="264.1181">1</text><text fill="#000000" font-family="sans-serif" font-size="13" lengthAdjust="spacingAndGlyphs" textLength="7" x="600.1095" y="281.8639">1</text><!--MD5=[89baec1bfb4a213750f7c61516e0a0f1]
link Pharmacy to Address--><path codeLine="46" d="M543.53,311.67 C565.43,305.88 589.46,299.52 609.94,294.11 " fill="none" id="Pharmacy-to-Address" style="stroke:#A80036;stroke-width:1.0;"/><polygon fill="#A80036" points="614.79,292.82,605.0638,291.2704,609.9584,294.1065,607.1223,299.0011,614.79,292.82" style="stroke:#A80036;stroke-width:1.0;"/><text fill="#000000" font-family="sans-serif" font-size="13" lengthAdjust="spacingAndGlyphs" textLength="7" x="551.6272" y="324.1161">1</text><text fill="#000000" font-family="sans-serif" font-size="13" lengthAdjust="spacingAndGlyphs" textLength="7" x="599.9472" y="309.515">1</text><!--MD5=[643ed68e3bb876ee0bba2b18168451a6]
@startuml

left to right direction

class ShortestPathUI {

}

class ShortestPathController {
    +checkShortestPath()

}

class Application {
     +getUser()
}

class User {

    +getCourier(user)
}

class Client{
    +getClientAddress()
}

class Pharmacy {
    +getPharmacyAdress()

}

class Address {
    +getAddress()
}

class Geographical_location {
    +getBestRout()()
}

ShortestPathUI ..> ShortestPathController
ShortestPathController ..> Application
ShortestPathController ..> User
ShortestPathController ..> Client
ShortestPathController "1" ..> "*" Pharmacy
ShortestPathController "1" ..> "*" Geographical_location
Client "1" - -> "1"Address
Pharmacy"1" - -> "1"Address
@enduml

PlantUML version 1.2020.23(Sun Dec 13 19:14:58 GMT 2020)
(GPL source distribution)
Java Runtime: OpenJDK Runtime Environment
JVM: OpenJDK 64-Bit Server VM
Default Encoding: Cp1252
Language: pt
Country: PT
--></g></svg>