<?xml version="1.0" encoding="UTF-8" standalone="no"?><svg xmlns="http://www.w3.org/2000/svg" xmlns:xlink="http://www.w3.org/1999/xlink" contentScriptType="application/ecmascript" contentStyleType="text/css" height="420px" preserveAspectRatio="none" style="width:875px;height:420px;" version="1.1" viewBox="0 0 875 420" width="875px" zoomAndPan="magnify"><defs><filter height="300%" id="f943nhsb5wi81" width="300%" x="-1" y="-1"><feGaussianBlur result="blurOut" stdDeviation="2.0"/><feColorMatrix in="blurOut" result="blurOut2" type="matrix" values="0 0 0 0 0 0 0 0 0 0 0 0 0 0 0 0 0 0 .4 0"/><feOffset dx="4.0" dy="4.0" in="blurOut2" result="blurOut3"/><feBlend in="SourceGraphic" in2="blurOut3" mode="normal"/></filter></defs><g><!--MD5=[0f39e4cb6f03951afbf6d14bd2505654]
class Address--><rect codeLine="4" fill="#FEFECE" filter="url(#f943nhsb5wi81)" height="109.1797" id="Address" style="stroke:#A80036;stroke-width:1.5;" width="121" x="488" y="240.5"/><ellipse cx="522.35" cy="256.5" fill="#ADD1B2" rx="11" ry="11" style="stroke:#A80036;stroke-width:1.0;"/><path d="M524.35,253 Q524.5531,252.5 524.7875,252.25 Q525.0219,252 525.2875,252 Q525.7563,252 526.0531,252.2813 Q526.35,252.5625 526.35,253.2188 L526.35,254.7813 Q526.35,255.4375 526.0688,255.7188 Q525.7875,256 525.35,256 Q524.9594,256 524.7094,255.8281 Q524.4594,255.6563 524.35,255.2031 Q524.3031,254.8906 524.1313,254.7188 Q523.8188,254.3906 523.2563,254.2031 Q522.6938,254 522.1313,254 Q521.4281,254 520.8344,254.2813 Q520.2563,254.5625 519.8031,255.1875 Q519.35,255.8125 519.35,256.6719 L519.35,257.5938 Q519.35,258.625 520.1938,259.3125 Q521.0375,260 522.5375,260 Q523.4281,260 524.0531,259.7969 Q524.4125,259.6875 524.8188,259.3281 Q525.0844,259.125 525.225,259.0625 Q525.3656,259 525.5375,259 Q525.8656,259 526.1,259.2656 Q526.35,259.5156 526.35,259.875 Q526.35,260.2188 526.0063,260.625 Q525.5063,261.2188 524.7094,261.5469 Q523.6625,262 522.3813,262 Q520.8813,262 519.6781,261.4063 Q518.7094,260.9375 518.0219,259.9219 Q517.35,258.9063 517.35,257.7031 L517.35,256.6094 Q517.35,255.3594 517.9438,254.2656 Q518.5531,253.1719 519.6,252.5938 Q520.6625,252 521.85,252 Q522.5688,252 523.1938,252.25 Q523.8188,252.5 524.35,253 Z " fill="#000000"/><text fill="#000000" font-family="sans-serif" font-size="12" lengthAdjust="spacingAndGlyphs" textLength="46" x="540.65" y="261.4102">Address</text><line style="stroke:#A80036;stroke-width:1.5;" x1="489" x2="608" y1="272.5" y2="272.5"/><rect fill="none" height="6" style="stroke:#C82930;stroke-width:1.0;" width="6" x="496" y="280.5"/><text fill="#000000" font-family="sans-serif" font-size="11" lengthAdjust="spacingAndGlyphs" textLength="44" x="508" y="287.9189">Integer id</text><rect fill="none" height="6" style="stroke:#C82930;stroke-width:1.0;" width="6" x="496" y="294.3359"/><text fill="#000000" font-family="sans-serif" font-size="11" lengthAdjust="spacingAndGlyphs" textLength="59" x="508" y="301.7549">String street</text><rect fill="none" height="6" style="stroke:#C82930;stroke-width:1.0;" width="6" x="496" y="308.1719"/><text fill="#000000" font-family="sans-serif" font-size="11" lengthAdjust="spacingAndGlyphs" textLength="95" x="508" y="315.5908">Integer doorNumber</text><rect fill="none" height="6" style="stroke:#C82930;stroke-width:1.0;" width="6" x="496" y="322.0078"/><text fill="#000000" font-family="sans-serif" font-size="11" lengthAdjust="spacingAndGlyphs" textLength="48" x="508" y="329.4268">String city</text><rect fill="none" height="6" style="stroke:#C82930;stroke-width:1.0;" width="6" x="496" y="335.8438"/><text fill="#000000" font-family="sans-serif" font-size="11" lengthAdjust="spacingAndGlyphs" textLength="68" x="508" y="343.2627">String country</text><!--MD5=[c6a2171c11447acbe08a3dfeee0e1710]
class Courier--><rect codeLine="14" fill="#FEFECE" filter="url(#f943nhsb5wi81)" height="53.8359" id="Courier" style="stroke:#A80036;stroke-width:1.5;" width="77" x="40.5" y="154"/><ellipse cx="57.3" cy="170" fill="#ADD1B2" rx="11" ry="11" style="stroke:#A80036;stroke-width:1.0;"/><path d="M59.3,166.5 Q59.5031,166 59.7375,165.75 Q59.9719,165.5 60.2375,165.5 Q60.7063,165.5 61.0031,165.7813 Q61.3,166.0625 61.3,166.7188 L61.3,168.2813 Q61.3,168.9375 61.0188,169.2188 Q60.7375,169.5 60.3,169.5 Q59.9094,169.5 59.6594,169.3281 Q59.4094,169.1563 59.3,168.7031 Q59.2531,168.3906 59.0813,168.2188 Q58.7688,167.8906 58.2063,167.7031 Q57.6438,167.5 57.0813,167.5 Q56.3781,167.5 55.7844,167.7813 Q55.2063,168.0625 54.7531,168.6875 Q54.3,169.3125 54.3,170.1719 L54.3,171.0938 Q54.3,172.125 55.1438,172.8125 Q55.9875,173.5 57.4875,173.5 Q58.3781,173.5 59.0031,173.2969 Q59.3625,173.1875 59.7688,172.8281 Q60.0344,172.625 60.175,172.5625 Q60.3156,172.5 60.4875,172.5 Q60.8156,172.5 61.05,172.7656 Q61.3,173.0156 61.3,173.375 Q61.3,173.7188 60.9563,174.125 Q60.4563,174.7188 59.6594,175.0469 Q58.6125,175.5 57.3313,175.5 Q55.8313,175.5 54.6281,174.9063 Q53.6594,174.4375 52.9719,173.4219 Q52.3,172.4063 52.3,171.2031 L52.3,170.1094 Q52.3,168.8594 52.8938,167.7656 Q53.5031,166.6719 54.55,166.0938 Q55.6125,165.5 56.8,165.5 Q57.5188,165.5 58.1438,165.75 Q58.7688,166 59.3,166.5 Z " fill="#000000"/><text fill="#000000" font-family="sans-serif" font-size="12" lengthAdjust="spacingAndGlyphs" textLength="41" x="71.7" y="174.9102">Courier</text><line style="stroke:#A80036;stroke-width:1.5;" x1="41.5" x2="116.5" y1="186" y2="186"/><rect fill="none" height="6" style="stroke:#C82930;stroke-width:1.0;" width="6" x="48.5" y="194"/><text fill="#000000" font-family="sans-serif" font-size="11" lengthAdjust="spacingAndGlyphs" textLength="51" x="60.5" y="201.4189">iban String</text><!--MD5=[cf4d6237fcae255cd2e1656cf84a30e2]
class Order--><rect codeLine="18" fill="#FEFECE" filter="url(#f943nhsb5wi81)" height="53.8359" id="Order" style="stroke:#A80036;stroke-width:1.5;" width="70" x="295.5" y="272"/><ellipse cx="313.65" cy="288" fill="#ADD1B2" rx="11" ry="11" style="stroke:#A80036;stroke-width:1.0;"/><path d="M315.65,284.5 Q315.8531,284 316.0875,283.75 Q316.3219,283.5 316.5875,283.5 Q317.0563,283.5 317.3531,283.7813 Q317.65,284.0625 317.65,284.7188 L317.65,286.2813 Q317.65,286.9375 317.3688,287.2188 Q317.0875,287.5 316.65,287.5 Q316.2594,287.5 316.0094,287.3281 Q315.7594,287.1563 315.65,286.7031 Q315.6031,286.3906 315.4313,286.2188 Q315.1188,285.8906 314.5563,285.7031 Q313.9938,285.5 313.4313,285.5 Q312.7281,285.5 312.1344,285.7813 Q311.5563,286.0625 311.1031,286.6875 Q310.65,287.3125 310.65,288.1719 L310.65,289.0938 Q310.65,290.125 311.4938,290.8125 Q312.3375,291.5 313.8375,291.5 Q314.7281,291.5 315.3531,291.2969 Q315.7125,291.1875 316.1188,290.8281 Q316.3844,290.625 316.525,290.5625 Q316.6656,290.5 316.8375,290.5 Q317.1656,290.5 317.4,290.7656 Q317.65,291.0156 317.65,291.375 Q317.65,291.7188 317.3063,292.125 Q316.8063,292.7188 316.0094,293.0469 Q314.9625,293.5 313.6813,293.5 Q312.1813,293.5 310.9781,292.9063 Q310.0094,292.4375 309.3219,291.4219 Q308.65,290.4063 308.65,289.2031 L308.65,288.1094 Q308.65,286.8594 309.2438,285.7656 Q309.8531,284.6719 310.9,284.0938 Q311.9625,283.5 313.15,283.5 Q313.8688,283.5 314.4938,283.75 Q315.1188,284 315.65,284.5 Z " fill="#000000"/><text fill="#000000" font-family="sans-serif" font-size="12" lengthAdjust="spacingAndGlyphs" textLength="31" x="328.35" y="292.9102">Order</text><line style="stroke:#A80036;stroke-width:1.5;" x1="296.5" x2="364.5" y1="304" y2="304"/><rect fill="none" height="6" style="stroke:#C82930;stroke-width:1.0;" width="6" x="303.5" y="312"/><text fill="#000000" font-family="sans-serif" font-size="11" lengthAdjust="spacingAndGlyphs" textLength="44" x="315.5" y="319.4189">id Integer</text><!--MD5=[7f2a9fafcebe4f099f71398fd3e2ed00]
class Pharmacy--><rect codeLine="23" fill="#FEFECE" filter="url(#f943nhsb5wi81)" height="81.5078" id="Pharmacy" style="stroke:#A80036;stroke-width:1.5;" width="112" x="274.5" y="7"/><ellipse cx="300.75" cy="23" fill="#ADD1B2" rx="11" ry="11" style="stroke:#A80036;stroke-width:1.0;"/><path d="M302.75,19.5 Q302.9531,19 303.1875,18.75 Q303.4219,18.5 303.6875,18.5 Q304.1563,18.5 304.4531,18.7813 Q304.75,19.0625 304.75,19.7188 L304.75,21.2813 Q304.75,21.9375 304.4688,22.2188 Q304.1875,22.5 303.75,22.5 Q303.3594,22.5 303.1094,22.3281 Q302.8594,22.1563 302.75,21.7031 Q302.7031,21.3906 302.5313,21.2188 Q302.2188,20.8906 301.6563,20.7031 Q301.0938,20.5 300.5313,20.5 Q299.8281,20.5 299.2344,20.7813 Q298.6563,21.0625 298.2031,21.6875 Q297.75,22.3125 297.75,23.1719 L297.75,24.0938 Q297.75,25.125 298.5938,25.8125 Q299.4375,26.5 300.9375,26.5 Q301.8281,26.5 302.4531,26.2969 Q302.8125,26.1875 303.2188,25.8281 Q303.4844,25.625 303.625,25.5625 Q303.7656,25.5 303.9375,25.5 Q304.2656,25.5 304.5,25.7656 Q304.75,26.0156 304.75,26.375 Q304.75,26.7188 304.4063,27.125 Q303.9063,27.7188 303.1094,28.0469 Q302.0625,28.5 300.7813,28.5 Q299.2813,28.5 298.0781,27.9063 Q297.1094,27.4375 296.4219,26.4219 Q295.75,25.4063 295.75,24.2031 L295.75,23.1094 Q295.75,21.8594 296.3438,20.7656 Q296.9531,19.6719 298,19.0938 Q299.0625,18.5 300.25,18.5 Q300.9688,18.5 301.5938,18.75 Q302.2188,19 302.75,19.5 Z " fill="#000000"/><text fill="#000000" font-family="sans-serif" font-size="12" lengthAdjust="spacingAndGlyphs" textLength="55" x="317.25" y="27.9102">Pharmacy</text><line style="stroke:#A80036;stroke-width:1.5;" x1="275.5" x2="385.5" y1="39" y2="39"/><rect fill="none" height="6" style="stroke:#C82930;stroke-width:1.0;" width="6" x="282.5" y="47"/><text fill="#000000" font-family="sans-serif" font-size="11" lengthAdjust="spacingAndGlyphs" textLength="44" x="294.5" y="54.4189">Integer id</text><rect fill="none" height="6" style="stroke:#C82930;stroke-width:1.0;" width="6" x="282.5" y="60.8359"/><text fill="#000000" font-family="sans-serif" font-size="11" lengthAdjust="spacingAndGlyphs" textLength="86" x="294.5" y="68.2549">String designation</text><rect fill="none" height="6" style="stroke:#C82930;stroke-width:1.0;" width="6" x="282.5" y="74.6719"/><text fill="#000000" font-family="sans-serif" font-size="11" lengthAdjust="spacingAndGlyphs" textLength="43" x="294.5" y="82.0908">String nif</text><!--MD5=[0b4e4b4980470ea387cc45de9bd14b5b]
class Application--><rect codeLine="29" fill="#FEFECE" filter="url(#f943nhsb5wi81)" height="40" id="Application" style="stroke:#A80036;stroke-width:1.5;" width="92" x="33" y="70"/><ellipse cx="48" cy="86" fill="#ADD1B2" rx="11" ry="11" style="stroke:#A80036;stroke-width:1.0;"/><path d="M50,82.5 Q50.2031,82 50.4375,81.75 Q50.6719,81.5 50.9375,81.5 Q51.4063,81.5 51.7031,81.7813 Q52,82.0625 52,82.7188 L52,84.2813 Q52,84.9375 51.7188,85.2188 Q51.4375,85.5 51,85.5 Q50.6094,85.5 50.3594,85.3281 Q50.1094,85.1563 50,84.7031 Q49.9531,84.3906 49.7813,84.2188 Q49.4688,83.8906 48.9063,83.7031 Q48.3438,83.5 47.7813,83.5 Q47.0781,83.5 46.4844,83.7813 Q45.9063,84.0625 45.4531,84.6875 Q45,85.3125 45,86.1719 L45,87.0938 Q45,88.125 45.8438,88.8125 Q46.6875,89.5 48.1875,89.5 Q49.0781,89.5 49.7031,89.2969 Q50.0625,89.1875 50.4688,88.8281 Q50.7344,88.625 50.875,88.5625 Q51.0156,88.5 51.1875,88.5 Q51.5156,88.5 51.75,88.7656 Q52,89.0156 52,89.375 Q52,89.7188 51.6563,90.125 Q51.1563,90.7188 50.3594,91.0469 Q49.3125,91.5 48.0313,91.5 Q46.5313,91.5 45.3281,90.9063 Q44.3594,90.4375 43.6719,89.4219 Q43,88.4063 43,87.2031 L43,86.1094 Q43,84.8594 43.5938,83.7656 Q44.2031,82.6719 45.25,82.0938 Q46.3125,81.5 47.5,81.5 Q48.2188,81.5 48.8438,81.75 Q49.4688,82 50,82.5 Z " fill="#000000"/><text fill="#000000" font-family="sans-serif" font-size="12" lengthAdjust="spacingAndGlyphs" textLength="60" x="62" y="90.9102">Application</text><line style="stroke:#A80036;stroke-width:1.5;" x1="34" x2="124" y1="102" y2="102"/><!--MD5=[3fd616f346a44cd59a91eb10b19e157c]
class User--><rect codeLine="32" fill="#FEFECE" filter="url(#f943nhsb5wi81)" height="95.3438" id="User" style="stroke:#A80036;stroke-width:1.5;" width="123" x="269" y="124.5"/><ellipse cx="312.8" cy="140.5" fill="#ADD1B2" rx="11" ry="11" style="stroke:#A80036;stroke-width:1.0;"/><path d="M314.8,137 Q315.0031,136.5 315.2375,136.25 Q315.4719,136 315.7375,136 Q316.2063,136 316.5031,136.2813 Q316.8,136.5625 316.8,137.2188 L316.8,138.7813 Q316.8,139.4375 316.5188,139.7188 Q316.2375,140 315.8,140 Q315.4094,140 315.1594,139.8281 Q314.9094,139.6563 314.8,139.2031 Q314.7531,138.8906 314.5813,138.7188 Q314.2688,138.3906 313.7063,138.2031 Q313.1438,138 312.5813,138 Q311.8781,138 311.2844,138.2813 Q310.7063,138.5625 310.2531,139.1875 Q309.8,139.8125 309.8,140.6719 L309.8,141.5938 Q309.8,142.625 310.6438,143.3125 Q311.4875,144 312.9875,144 Q313.8781,144 314.5031,143.7969 Q314.8625,143.6875 315.2688,143.3281 Q315.5344,143.125 315.675,143.0625 Q315.8156,143 315.9875,143 Q316.3156,143 316.55,143.2656 Q316.8,143.5156 316.8,143.875 Q316.8,144.2188 316.4563,144.625 Q315.9563,145.2188 315.1594,145.5469 Q314.1125,146 312.8313,146 Q311.3313,146 310.1281,145.4063 Q309.1594,144.9375 308.4719,143.9219 Q307.8,142.9063 307.8,141.7031 L307.8,140.6094 Q307.8,139.3594 308.3938,138.2656 Q309.0031,137.1719 310.05,136.5938 Q311.1125,136 312.3,136 Q313.0188,136 313.6438,136.25 Q314.2688,136.5 314.8,137 Z " fill="#000000"/><text fill="#000000" font-family="sans-serif" font-size="12" lengthAdjust="spacingAndGlyphs" textLength="27" x="333.2" y="145.4102">User</text><line style="stroke:#A80036;stroke-width:1.5;" x1="270" x2="391" y1="156.5" y2="156.5"/><rect fill="none" height="6" style="stroke:#C82930;stroke-width:1.0;" width="6" x="277" y="164.5"/><text fill="#000000" font-family="sans-serif" font-size="11" lengthAdjust="spacingAndGlyphs" textLength="44" x="289" y="171.9189">Integer id</text><rect fill="none" height="6" style="stroke:#C82930;stroke-width:1.0;" width="6" x="277" y="178.3359"/><text fill="#000000" font-family="sans-serif" font-size="11" lengthAdjust="spacingAndGlyphs" textLength="57" x="289" y="185.7549">String name</text><rect fill="none" height="6" style="stroke:#C82930;stroke-width:1.0;" width="6" x="277" y="192.1719"/><text fill="#000000" font-family="sans-serif" font-size="11" lengthAdjust="spacingAndGlyphs" textLength="97" x="289" y="199.5908">String emailAddress</text><rect fill="none" height="6" style="stroke:#C82930;stroke-width:1.0;" width="6" x="277" y="206.0078"/><text fill="#000000" font-family="sans-serif" font-size="11" lengthAdjust="spacingAndGlyphs" textLength="81" x="289" y="213.4268">String password</text><!--MD5=[ed6624c6556d5e7b1bd23032162d20b7]
class Client--><rect codeLine="39" fill="#FEFECE" filter="url(#f943nhsb5wi81)" height="136.8516" id="Client" style="stroke:#A80036;stroke-width:1.5;" width="144" x="7" y="269.5"/><ellipse cx="58.75" cy="285.5" fill="#ADD1B2" rx="11" ry="11" style="stroke:#A80036;stroke-width:1.0;"/><path d="M60.75,282 Q60.9531,281.5 61.1875,281.25 Q61.4219,281 61.6875,281 Q62.1563,281 62.4531,281.2813 Q62.75,281.5625 62.75,282.2188 L62.75,283.7813 Q62.75,284.4375 62.4688,284.7188 Q62.1875,285 61.75,285 Q61.3594,285 61.1094,284.8281 Q60.8594,284.6563 60.75,284.2031 Q60.7031,283.8906 60.5313,283.7188 Q60.2188,283.3906 59.6563,283.2031 Q59.0938,283 58.5313,283 Q57.8281,283 57.2344,283.2813 Q56.6563,283.5625 56.2031,284.1875 Q55.75,284.8125 55.75,285.6719 L55.75,286.5938 Q55.75,287.625 56.5938,288.3125 Q57.4375,289 58.9375,289 Q59.8281,289 60.4531,288.7969 Q60.8125,288.6875 61.2188,288.3281 Q61.4844,288.125 61.625,288.0625 Q61.7656,288 61.9375,288 Q62.2656,288 62.5,288.2656 Q62.75,288.5156 62.75,288.875 Q62.75,289.2188 62.4063,289.625 Q61.9063,290.2188 61.1094,290.5469 Q60.0625,291 58.7813,291 Q57.2813,291 56.0781,290.4063 Q55.1094,289.9375 54.4219,288.9219 Q53.75,287.9063 53.75,286.7031 L53.75,285.6094 Q53.75,284.3594 54.3438,283.2656 Q54.9531,282.1719 56,281.5938 Q57.0625,281 58.25,281 Q58.9688,281 59.5938,281.25 Q60.2188,281.5 60.75,282 Z " fill="#000000"/><text fill="#000000" font-family="sans-serif" font-size="12" lengthAdjust="spacingAndGlyphs" textLength="32" x="79.25" y="290.4102">Client</text><line style="stroke:#A80036;stroke-width:1.5;" x1="8" x2="150" y1="301.5" y2="301.5"/><rect fill="none" height="6" style="stroke:#C82930;stroke-width:1.0;" width="6" x="15" y="309.5"/><text fill="#000000" font-family="sans-serif" font-size="11" lengthAdjust="spacingAndGlyphs" textLength="44" x="27" y="316.9189">Integer id</text><rect fill="none" height="6" style="stroke:#C82930;stroke-width:1.0;" width="6" x="15" y="323.3359"/><text fill="#000000" font-family="sans-serif" font-size="11" lengthAdjust="spacingAndGlyphs" textLength="57" x="27" y="330.7549">String name</text><rect fill="none" height="6" style="stroke:#C82930;stroke-width:1.0;" width="6" x="15" y="337.1719"/><text fill="#000000" font-family="sans-serif" font-size="11" lengthAdjust="spacingAndGlyphs" textLength="97" x="27" y="344.5908">String emailAddress</text><rect fill="none" height="6" style="stroke:#C82930;stroke-width:1.0;" width="6" x="15" y="351.0078"/><text fill="#000000" font-family="sans-serif" font-size="11" lengthAdjust="spacingAndGlyphs" textLength="81" x="27" y="358.4268">String password</text><rect fill="none" height="6" style="stroke:#C82930;stroke-width:1.0;" width="6" x="15" y="364.8438"/><text fill="#000000" font-family="sans-serif" font-size="11" lengthAdjust="spacingAndGlyphs" textLength="77" x="27" y="372.2627">String cellphone</text><rect fill="none" height="6" style="stroke:#C82930;stroke-width:1.0;" width="6" x="15" y="378.6797"/><text fill="#000000" font-family="sans-serif" font-size="11" lengthAdjust="spacingAndGlyphs" textLength="48" x="27" y="386.0986">Integer nif</text><rect fill="none" height="6" style="stroke:#C82930;stroke-width:1.0;" width="6" x="15" y="392.5156"/><text fill="#000000" font-family="sans-serif" font-size="11" lengthAdjust="spacingAndGlyphs" textLength="118" x="27" y="399.9346">Integer numberOfCredits</text><!--MD5=[c70876b204a2e0c24c89b8dde9d4901d]
class Geographical_location--><rect codeLine="49" fill="#FEFECE" filter="url(#f943nhsb5wi81)" height="67.6719" id="Geographical_location" style="stroke:#A80036;stroke-width:1.5;" width="156" x="705" y="261"/><ellipse cx="720" cy="277" fill="#ADD1B2" rx="11" ry="11" style="stroke:#A80036;stroke-width:1.0;"/><path d="M722,273.5 Q722.2031,273 722.4375,272.75 Q722.6719,272.5 722.9375,272.5 Q723.4063,272.5 723.7031,272.7813 Q724,273.0625 724,273.7188 L724,275.2813 Q724,275.9375 723.7188,276.2188 Q723.4375,276.5 723,276.5 Q722.6094,276.5 722.3594,276.3281 Q722.1094,276.1563 722,275.7031 Q721.9531,275.3906 721.7813,275.2188 Q721.4688,274.8906 720.9063,274.7031 Q720.3438,274.5 719.7813,274.5 Q719.0781,274.5 718.4844,274.7813 Q717.9063,275.0625 717.4531,275.6875 Q717,276.3125 717,277.1719 L717,278.0938 Q717,279.125 717.8438,279.8125 Q718.6875,280.5 720.1875,280.5 Q721.0781,280.5 721.7031,280.2969 Q722.0625,280.1875 722.4688,279.8281 Q722.7344,279.625 722.875,279.5625 Q723.0156,279.5 723.1875,279.5 Q723.5156,279.5 723.75,279.7656 Q724,280.0156 724,280.375 Q724,280.7188 723.6563,281.125 Q723.1563,281.7188 722.3594,282.0469 Q721.3125,282.5 720.0313,282.5 Q718.5313,282.5 717.3281,281.9063 Q716.3594,281.4375 715.6719,280.4219 Q715,279.4063 715,278.2031 L715,277.1094 Q715,275.8594 715.5938,274.7656 Q716.2031,273.6719 717.25,273.0938 Q718.3125,272.5 719.5,272.5 Q720.2188,272.5 720.8438,272.75 Q721.4688,273 722,273.5 Z " fill="#000000"/><text fill="#000000" font-family="sans-serif" font-size="12" lengthAdjust="spacingAndGlyphs" textLength="124" x="734" y="281.9102">Geographical_location</text><line style="stroke:#A80036;stroke-width:1.5;" x1="706" x2="860" y1="293" y2="293"/><rect fill="none" height="6" style="stroke:#C82930;stroke-width:1.0;" width="6" x="713" y="301"/><text fill="#000000" font-family="sans-serif" font-size="11" lengthAdjust="spacingAndGlyphs" textLength="83" x="725" y="308.4189">Longitude Double</text><rect fill="none" height="6" style="stroke:#C82930;stroke-width:1.0;" width="6" x="713" y="314.8359"/><text fill="#000000" font-family="sans-serif" font-size="11" lengthAdjust="spacingAndGlyphs" textLength="74" x="725" y="322.2549">Latitude Double</text><!--MD5=[87abe4982b7c193a4084a229bf1bb342]
link Address to Geographical_location--><path codeLine="53" d="M609.07,295 C638.13,295 673.45,295 704.58,295 " fill="none" id="Address-Geographical_location" style="stroke:#A80036;stroke-width:1.0;"/><polygon fill="#000000" points="649,286.1758,639.9549,283.2369,639.9549,289.1147,649,286.1758" style="stroke:#000000;stroke-width:1.0;"/><text fill="#000000" font-family="sans-serif" font-size="13" lengthAdjust="spacingAndGlyphs" textLength="21" x="653" y="291.4951">has</text><text fill="#000000" font-family="sans-serif" font-size="13" lengthAdjust="spacingAndGlyphs" textLength="7" x="616.8785" y="309.4806">1</text><text fill="#000000" font-family="sans-serif" font-size="13" lengthAdjust="spacingAndGlyphs" textLength="7" x="690.028" y="309.2639">1</text><!--MD5=[879bec428a80d843af24dc47845bf14c]
link Client to Order--><path codeLine="55" d="M151.15,346.42 C178.86,347.87 210.69,347.25 239,341 C258.45,336.71 278.69,327.79 295.08,319.28 " fill="none" id="Client-Order" style="stroke:#A80036;stroke-width:1.0;"/><polygon fill="#000000" points="190.9134,331.2493,181.4804,330.0373,182.5695,335.8134,190.9134,331.2493" style="stroke:#000000;stroke-width:1.0;"/><text fill="#000000" font-family="sans-serif" font-size="13" lengthAdjust="spacingAndGlyphs" textLength="43" x="195" y="337.4951">creates</text><text fill="#000000" font-family="sans-serif" font-size="13" lengthAdjust="spacingAndGlyphs" textLength="7" x="158.9514" y="343.9842">1</text><text fill="#000000" font-family="sans-serif" font-size="13" lengthAdjust="spacingAndGlyphs" textLength="20" x="267.5573" y="337.5017">0..*</text><!--MD5=[9a8dc34b38f85b9f3fcdb440f4bffc6a]
link Client to User--><path codeLine="56" d="M151.17,321.34 C180.11,312.39 212.82,299.34 239,281 C251.89,271.97 274.52,244.72 293.92,219.73 " fill="none" id="Client-User" style="stroke:#A80036;stroke-width:1.0;"/><polygon fill="#000000" points="190.0734,269.2763,181.0002,272.1272,184.4088,276.9158,190.0734,269.2763" style="stroke:#000000;stroke-width:1.0;"/><text fill="#000000" font-family="sans-serif" font-size="13" lengthAdjust="spacingAndGlyphs" textLength="43" x="195" y="277.4951">acts as</text><text fill="#000000" font-family="sans-serif" font-size="13" lengthAdjust="spacingAndGlyphs" textLength="7" x="158.9735" y="316.3178">1</text><text fill="#000000" font-family="sans-serif" font-size="13" lengthAdjust="spacingAndGlyphs" textLength="7" x="281.0333" y="241.411">1</text><!--MD5=[bd708f2371c655af07b49ddbdb30848a]
link Client to Address--><path codeLine="57" d="M151.02,354.16 C214.72,366.08 310.44,377.59 392,361 C424.91,354.31 459.48,340.4 487.66,327.07 " fill="none" id="Client-Address" style="stroke:#A80036;stroke-width:1.0;"/><polygon fill="#000000" points="322.4839,351.7747,313.2322,349.5708,313.7037,355.4297,322.4839,351.7747" style="stroke:#000000;stroke-width:1.0;"/><text fill="#000000" font-family="sans-serif" font-size="13" lengthAdjust="spacingAndGlyphs" textLength="21" x="326.5" y="357.4951">has</text><text fill="#000000" font-family="sans-serif" font-size="13" lengthAdjust="spacingAndGlyphs" textLength="7" x="158.808" y="370.1724">1</text><text fill="#000000" font-family="sans-serif" font-size="13" lengthAdjust="spacingAndGlyphs" textLength="7" x="472.8186" y="345.4591">1</text><!--MD5=[8c7e2cb836a61414bf9f02282664f603]
link Application to Pharmacy--><path codeLine="59" d="M125.18,82.39 C167.03,75.35 229.38,64.85 274.19,57.31 " fill="none" id="Application-Pharmacy" style="stroke:#A80036;stroke-width:1.0;"/><polygon fill="#000000" points="201.9306,55.3459,192.5232,53.949,193.4988,59.7453,201.9306,55.3459" style="stroke:#000000;stroke-width:1.0;"/><text fill="#000000" font-family="sans-serif" font-size="13" lengthAdjust="spacingAndGlyphs" textLength="21" x="206" y="61.4951">has</text><text fill="#000000" font-family="sans-serif" font-size="13" lengthAdjust="spacingAndGlyphs" textLength="7" x="133.0978" y="95.9753">1</text><text fill="#000000" font-family="sans-serif" font-size="13" lengthAdjust="spacingAndGlyphs" textLength="7" x="259.5268" y="73.077">1</text><!--MD5=[fae869a5e026c729d21735d7cae014a7]
link Application to User--><path codeLine="60" d="M125.18,104.85 C165.34,118.05 224.39,137.46 268.69,152.02 " fill="none" id="Application-User" style="stroke:#A80036;stroke-width:1.0;"/><polygon fill="#000000" points="201.75,116.737,194.0749,111.1207,192.2395,116.7047,201.75,116.737" style="stroke:#000000;stroke-width:1.0;"/><text fill="#000000" font-family="sans-serif" font-size="13" lengthAdjust="spacingAndGlyphs" textLength="21" x="206" y="120.4951">has</text><text fill="#000000" font-family="sans-serif" font-size="13" lengthAdjust="spacingAndGlyphs" textLength="7" x="133.0978" y="122.0149">1</text><text fill="#000000" font-family="sans-serif" font-size="13" lengthAdjust="spacingAndGlyphs" textLength="7" x="254.1385" y="164.1304">1</text><!--MD5=[771c3993b003aea4e1f6128d90cd4122]
link Courier to User--><path codeLine="62" d="M117.62,179.64 C157.65,178.2 221.57,175.89 268.74,174.19 " fill="none" id="Courier-User" style="stroke:#A80036;stroke-width:1.0;"/><polygon fill="#000000" points="190.9968,166.9956,181.8516,164.3846,182.0635,170.2586,190.9968,166.9956" style="stroke:#000000;stroke-width:1.0;"/><text fill="#000000" font-family="sans-serif" font-size="13" lengthAdjust="spacingAndGlyphs" textLength="43" x="195" y="172.4951">acts as</text><text fill="#000000" font-family="sans-serif" font-size="13" lengthAdjust="spacingAndGlyphs" textLength="7" x="125.3859" y="194.4069">1</text><text fill="#000000" font-family="sans-serif" font-size="13" lengthAdjust="spacingAndGlyphs" textLength="7" x="254.1943" y="188.8638">1</text><!--MD5=[42412c6d1ec7cdf26c030834d47a2bbe]
link Courier to Order--><path codeLine="63" d="M117.62,198.79 C165.81,221.59 248.65,260.76 295.19,282.77 " fill="none" id="Courier-Order" style="stroke:#A80036;stroke-width:1.0;"/><polygon fill="#000000" points="201.52,223.3135,194.5998,216.7896,192.0868,222.1031,201.52,223.3135" style="stroke:#000000;stroke-width:1.0;"/><text fill="#000000" font-family="sans-serif" font-size="13" lengthAdjust="spacingAndGlyphs" textLength="21" x="206" y="226.4951">has</text><text fill="#000000" font-family="sans-serif" font-size="13" lengthAdjust="spacingAndGlyphs" textLength="7" x="125.3859" y="217.0877">1</text><text fill="#000000" font-family="sans-serif" font-size="13" lengthAdjust="spacingAndGlyphs" textLength="20" x="267.4023" y="294.8949">0..*</text><!--MD5=[89baec1bfb4a213750f7c61516e0a0f1]
link Pharmacy to Address--><path codeLine="65" d="M374.71,89.03 C380.62,94.96 386.53,101.07 392,107 C431.9,150.3 474.31,202 504.75,240.22 " fill="none" id="Pharmacy-Address" style="stroke:#A80036;stroke-width:1.0;"/><polygon fill="#000000" points="430.2604,136.9665,426.5904,128.1926,422.1341,132.0255,430.2604,136.9665" style="stroke:#000000;stroke-width:1.0;"/><text fill="#000000" font-family="sans-serif" font-size="13" lengthAdjust="spacingAndGlyphs" textLength="21" x="436" y="138.4951">has</text><text fill="#000000" font-family="sans-serif" font-size="13" lengthAdjust="spacingAndGlyphs" textLength="7" x="373.9437" y="110.0974">1</text><text fill="#000000" font-family="sans-serif" font-size="13" lengthAdjust="spacingAndGlyphs" textLength="7" x="491.6961" y="229.6824">1</text><!--MD5=[7bc81d377ff20a15a3613ffab9442488]
@startuml
hide methods
left to right direction

class Address {
    -Integer id
    -String street
    -Integer doorNumber
    -String city
    -String country
}



class Courier {
    -iban String
}

class Order {
    - id Integer
}


class Pharmacy {
    -Integer id
    -String designation
    -String nif
}

class Application {
}

class User {
    -Integer id
    -String name
    -String emailAddress
    -String password
}

class Client {
    -Integer id
    -String name
    -String emailAddress
    -String password
    -String cellphone
    -Integer nif
    -Integer numberOfCredits
}

class Geographical_location {
    -Longitude Double
    -Latitude Double
}
Address "1" - - "1" Geographical_location: has >

Client "1" - - "0..*" Order: creates >
Client "1" - - "1" User: acts as >
Client "1" - - "1" Address: has >

Application "1" - - "1" Pharmacy: has >
Application "1" - - "1" User: has >

Courier "1" - - "1" User: acts as >
Courier "1" - - "0..*" Order: has >

Pharmacy "1" - - "1" Address: has >
@enduml

PlantUML version 1.2020.23(Sun Dec 13 19:14:58 GMT 2020)
(GPL source distribution)
Java Runtime: OpenJDK Runtime Environment
JVM: OpenJDK 64-Bit Server VM
Default Encoding: Cp1252
Language: pt
Country: PT
--></g></svg>