<?xml version="1.0" encoding="UTF-8" standalone="no"?><svg xmlns="http://www.w3.org/2000/svg" xmlns:xlink="http://www.w3.org/1999/xlink" contentScriptType="application/ecmascript" contentStyleType="text/css" height="252.8px" preserveAspectRatio="none" style="width:337px;height:252px;" version="1.1" viewBox="0 0 337 252" width="337.6px" zoomAndPan="magnify"><defs><filter height="300%" id="f1gc2aibwy9t7y" width="300%" x="-1" y="-1"><feGaussianBlur result="blurOut" stdDeviation="1.6"/><feColorMatrix in="blurOut" result="blurOut2" type="matrix" values="0 0 0 0 0 0 0 0 0 0 0 0 0 0 0 0 0 0 .4 0"/><feOffset dx="3.2" dy="3.2" in="blurOut2" result="blurOut3"/><feBlend in="SourceGraphic" in2="blurOut3" mode="normal"/></filter></defs><g><rect fill="#FFFFFF" filter="url(#f1gc2aibwy9t7y)" height="90.725" style="stroke:#A80036;stroke-width:0.8;" width="8" x="21.2" y="79.6875"/><rect fill="#FFFFFF" filter="url(#f1gc2aibwy9t7y)" height="24.2813" style="stroke:#A80036;stroke-width:0.8;" width="8" x="298.8" y="97.5688"/><rect fill="#FFFFFF" filter="url(#f1gc2aibwy9t7y)" height="24.2813" style="stroke:#A80036;stroke-width:0.8;" width="8" x="298.8" y="146.1313"/><line style="stroke:#A80036;stroke-width:0.8;stroke-dasharray:5.0,5.0;" x1="24.8" x2="24.8" y1="71.6875" y2="184.8125"/><line style="stroke:#A80036;stroke-width:0.8;stroke-dasharray:5.0,5.0;" x1="302.8" x2="302.8" y1="71.6875" y2="184.8125"/><text fill="#000000" font-family="sans-serif" font-size="11.2" lengthAdjust="spacingAndGlyphs" textLength="37.6" x="4" y="69.2266">Courier</text><ellipse cx="25.2" cy="12" fill="#FEFECE" filter="url(#f1gc2aibwy9t7y)" rx="6.4" ry="6.4" style="stroke:#A80036;stroke-width:1.6;"/><path d="M25.2,18.4 L25.2,40 M14.8,24.8 L35.6,24.8 M25.2,40 L14.8,52 M25.2,40 L35.6,52 " fill="none" filter="url(#f1gc2aibwy9t7y)" style="stroke:#A80036;stroke-width:1.6;"/><text fill="#000000" font-family="sans-serif" font-size="11.2" lengthAdjust="spacingAndGlyphs" textLength="37.6" x="4" y="195.6391">Courier</text><ellipse cx="25.2" cy="206.1" fill="#FEFECE" filter="url(#f1gc2aibwy9t7y)" rx="6.4" ry="6.4" style="stroke:#A80036;stroke-width:1.6;"/><path d="M25.2,212.5 L25.2,234.1 M14.8,218.9 L35.6,218.9 M25.2,234.1 L14.8,246.1 M25.2,234.1 L35.6,246.1 " fill="none" filter="url(#f1gc2aibwy9t7y)" style="stroke:#A80036;stroke-width:1.6;"/><rect fill="#FEFECE" filter="url(#f1gc2aibwy9t7y)" height="25.2875" style="stroke:#A80036;stroke-width:1.2000000000000002;" width="51.2" x="275.6" y="42.4"/><text fill="#000000" font-family="sans-serif" font-size="11.2" lengthAdjust="spacingAndGlyphs" textLength="40" x="281.2" y="59.6266">:System</text><rect fill="#FEFECE" filter="url(#f1gc2aibwy9t7y)" height="25.2875" style="stroke:#A80036;stroke-width:1.2000000000000002;" width="51.2" x="275.6" y="184.0125"/><text fill="#000000" font-family="sans-serif" font-size="11.2" lengthAdjust="spacingAndGlyphs" textLength="40" x="281.2" y="201.2391">:System</text><rect fill="#FFFFFF" filter="url(#f1gc2aibwy9t7y)" height="90.725" style="stroke:#A80036;stroke-width:0.8;" width="8" x="21.2" y="79.6875"/><rect fill="#FFFFFF" filter="url(#f1gc2aibwy9t7y)" height="24.2813" style="stroke:#A80036;stroke-width:0.8;" width="8" x="298.8" y="97.5688"/><rect fill="#FFFFFF" filter="url(#f1gc2aibwy9t7y)" height="24.2813" style="stroke:#A80036;stroke-width:0.8;" width="8" x="298.8" y="146.1313"/><polygon fill="#A80036" points="289.2,94.3688,297.2,97.5688,289.2,100.7688,292.4,97.5688" style="stroke:#A80036;stroke-width:0.8;"/><line style="stroke:#A80036;stroke-width:0.8;" x1="29.2" x2="294" y1="97.5688" y2="97.5688"/><text fill="#000000" font-family="sans-serif" font-size="10.4" font-weight="bold" lengthAdjust="spacingAndGlyphs" textLength="5.6" x="34.8" y="93.6836">1</text><text fill="#000000" font-family="sans-serif" font-size="10.4" lengthAdjust="spacingAndGlyphs" textLength="112" x="43.6" y="93.6836">Acess his personal area</text><polygon fill="#A80036" points="38,118.65,30,121.85,38,125.05,34.8,121.85" style="stroke:#A80036;stroke-width:0.8;"/><line style="stroke:#A80036;stroke-width:0.8;stroke-dasharray:2.0,2.0;" x1="33.2" x2="302" y1="121.85" y2="121.85"/><text fill="#000000" font-family="sans-serif" font-size="10.4" font-weight="bold" lengthAdjust="spacingAndGlyphs" textLength="5.6" x="42.8" y="117.9648">2</text><text fill="#000000" font-family="sans-serif" font-size="10.4" lengthAdjust="spacingAndGlyphs" textLength="198.4" x="51.6" y="117.9648">Shows the shortest distance to the destiny</text><polygon fill="#A80036" points="289.2,142.9313,297.2,146.1313,289.2,149.3313,292.4,146.1313" style="stroke:#A80036;stroke-width:0.8;"/><line style="stroke:#A80036;stroke-width:0.8;" x1="29.2" x2="294" y1="146.1313" y2="146.1313"/><text fill="#000000" font-family="sans-serif" font-size="10.4" font-weight="bold" lengthAdjust="spacingAndGlyphs" textLength="5.6" x="34.8" y="142.2461">3</text><text fill="#000000" font-family="sans-serif" font-size="10.4" lengthAdjust="spacingAndGlyphs" textLength="40.8" x="43.6" y="142.2461">Confirms</text><polygon fill="#A80036" points="34,167.2125,26,170.4125,34,173.6125,30.8,170.4125" style="stroke:#A80036;stroke-width:0.8;"/><line style="stroke:#A80036;stroke-width:0.8;stroke-dasharray:2.0,2.0;" x1="29.2" x2="302" y1="170.4125" y2="170.4125"/><text fill="#000000" font-family="sans-serif" font-size="10.4" font-weight="bold" lengthAdjust="spacingAndGlyphs" textLength="5.6" x="38.8" y="166.5273">4</text><text fill="#000000" font-family="sans-serif" font-size="10.4" lengthAdjust="spacingAndGlyphs" textLength="241.6" x="47.6" y="166.5273">Reports to the Courier of the sucess of the operation</text><!--MD5=[1240a3ad60e5bff732ffa0e41834c6e9]
@startuml
autonumber
actor "Courier" as Courier
participant ":System" as STM
activate Courier

Courier-> STM :Acess his personal area
activate STM
STM - -> Courier :Shows the shortest distance to the destiny
deactivate STM

Courier -> STM : Confirms
activate STM
STM - -> Courier : Reports to the Courier of the sucess of the operation
deactivate STM

deactivate Courier
@enduml

PlantUML version 1.2020.23(Sun Dec 13 19:14:58 GMT 2020)
(GPL source distribution)
Java Runtime: OpenJDK Runtime Environment
JVM: OpenJDK 64-Bit Server VM
Default Encoding: Cp1252
Language: pt
Country: PT
--></g></svg>