<?xml version="1.0" encoding="UTF-8" standalone="no"?><svg xmlns="http://www.w3.org/2000/svg" xmlns:xlink="http://www.w3.org/1999/xlink" contentScriptType="application/ecmascript" contentStyleType="text/css" height="193px" preserveAspectRatio="none" style="width:453px;height:193px;" version="1.1" viewBox="0 0 453 193" width="453px" zoomAndPan="magnify">
    <defs>
        <filter height="300%" id="f1ju2d9bptib57" width="300%" x="-1" y="-1">
            <feGaussianBlur result="blurOut" stdDeviation="2.0" />
            <feColorMatrix in="blurOut" result="blurOut2" type="matrix" values="0 0 0 0 0 0 0 0 0 0 0 0 0 0 0 0 0 0 .4 0" />
            <feOffset dx="4.0" dy="4.0" in="blurOut2" result="blurOut3" />
            <feBlend in="SourceGraphic" in2="blurOut3" mode="normal" />
        </filter>
    </defs>
    <g>
        <!--MD5=[ed6624c6556d5e7b1bd23032162d20b7]
class Client-->
        <rect codeLine="4" fill="#FEFECE" filter="url(#f1ju2d9bptib57)" height="40" id="Client" style="stroke:#A80036;stroke-width:1.5;" width="64" x="11.5" y="22" />
        <ellipse cx="26.5" cy="38" fill="#ADD1B2" rx="11" ry="11" style="stroke:#A80036;stroke-width:1.0;" />
        <path d="M29.2656,33.875 Q29.4219,33.6563 29.6094,33.5469 Q29.7969,33.4375 30.0156,33.4375 Q30.3906,33.4375 30.625,33.6953 Q30.8594,33.9531 30.8594,34.5625 L30.8594,36.0156 Q30.8594,36.625 30.625,36.8906 Q30.3906,37.1563 30.0156,37.1563 Q29.6719,37.1563 29.4688,36.9531 Q29.2656,36.7656 29.1563,36.25 Q29.1094,35.8906 28.9219,35.7031 Q28.5938,35.3281 27.9844,35.1094 Q27.375,34.8906 26.75,34.8906 Q25.9844,34.8906 25.3516,35.2188 Q24.7188,35.5469 24.2266,36.2969 Q23.7344,37.0469 23.7344,38.0781 L23.7344,39.1719 Q23.7344,40.4063 24.625,41.2266 Q25.5156,42.0469 27.1094,42.0469 Q28.0469,42.0469 28.7031,41.7969 Q29.0938,41.6406 29.5156,41.2031 Q29.7813,40.9375 29.9297,40.8594 Q30.0781,40.7813 30.2813,40.7813 Q30.6094,40.7813 30.8672,41.0391 Q31.125,41.2969 31.125,41.6406 Q31.125,41.9844 30.7813,42.3906 Q30.2813,42.9688 29.4844,43.2969 Q28.4063,43.75 27.1094,43.75 Q25.5938,43.75 24.3906,43.125 Q23.4063,42.625 22.7188,41.5547 Q22.0313,40.4844 22.0313,39.2031 L22.0313,38.0469 Q22.0313,36.7188 22.6484,35.5703 Q23.2656,34.4219 24.3594,33.8047 Q25.4531,33.1875 26.6875,33.1875 Q27.4219,33.1875 28.0703,33.3516 Q28.7188,33.5156 29.2656,33.875 Z " fill="#000000" /><text fill="#000000" font-family="sans-serif" font-size="12" lengthAdjust="spacingAndGlyphs" textLength="32" x="40.5" y="42.9102">Client</text>
        <line style="stroke:#A80036;stroke-width:1.5;" x1="12.5" x2="74.5" y1="54" y2="54" />
        <!--MD5=[f8e092794d52bf9a252466252ae7bd1c]
class System-->
        <rect codeLine="8" fill="#FEFECE" filter="url(#f1ju2d9bptib57)" height="40" id="System" style="stroke:#A80036;stroke-width:1.5;" width="73" x="7" y="117" />
        <ellipse cx="22" cy="133" fill="#ADD1B2" rx="11" ry="11" style="stroke:#A80036;stroke-width:1.0;" />
        <path d="M24.7656,128.875 Q24.9219,128.6563 25.1094,128.5469 Q25.2969,128.4375 25.5156,128.4375 Q25.8906,128.4375 26.125,128.6953 Q26.3594,128.9531 26.3594,129.5625 L26.3594,131.0156 Q26.3594,131.625 26.125,131.8906 Q25.8906,132.1563 25.5156,132.1563 Q25.1719,132.1563 24.9688,131.9531 Q24.7656,131.7656 24.6563,131.25 Q24.6094,130.8906 24.4219,130.7031 Q24.0938,130.3281 23.4844,130.1094 Q22.875,129.8906 22.25,129.8906 Q21.4844,129.8906 20.8516,130.2188 Q20.2188,130.5469 19.7266,131.2969 Q19.2344,132.0469 19.2344,133.0781 L19.2344,134.1719 Q19.2344,135.4063 20.125,136.2266 Q21.0156,137.0469 22.6094,137.0469 Q23.5469,137.0469 24.2031,136.7969 Q24.5938,136.6406 25.0156,136.2031 Q25.2813,135.9375 25.4297,135.8594 Q25.5781,135.7813 25.7813,135.7813 Q26.1094,135.7813 26.3672,136.0391 Q26.625,136.2969 26.625,136.6406 Q26.625,136.9844 26.2813,137.3906 Q25.7813,137.9688 24.9844,138.2969 Q23.9063,138.75 22.6094,138.75 Q21.0938,138.75 19.8906,138.125 Q18.9063,137.625 18.2188,136.5547 Q17.5313,135.4844 17.5313,134.2031 L17.5313,133.0469 Q17.5313,131.7188 18.1484,130.5703 Q18.7656,129.4219 19.8594,128.8047 Q20.9531,128.1875 22.1875,128.1875 Q22.9219,128.1875 23.5703,128.3516 Q24.2188,128.5156 24.7656,128.875 Z " fill="#000000" /><text fill="#000000" font-family="sans-serif" font-size="12" lengthAdjust="spacingAndGlyphs" textLength="41" x="36" y="137.9102">System</text>
        <line style="stroke:#A80036;stroke-width:1.5;" x1="8" x2="79" y1="149" y2="149" />
        <!--MD5=[3fd616f346a44cd59a91eb10b19e157c]
class User-->
        <rect codeLine="12" fill="#FEFECE" filter="url(#f1ju2d9bptib57)" height="40" id="User" style="stroke:#A80036;stroke-width:1.5;" width="59" x="213" y="7" />
        <ellipse cx="228" cy="23" fill="#ADD1B2" rx="11" ry="11" style="stroke:#A80036;stroke-width:1.0;" />
        <path d="M230.7656,18.875 Q230.9219,18.6563 231.1094,18.5469 Q231.2969,18.4375 231.5156,18.4375 Q231.8906,18.4375 232.125,18.6953 Q232.3594,18.9531 232.3594,19.5625 L232.3594,21.0156 Q232.3594,21.625 232.125,21.8906 Q231.8906,22.1563 231.5156,22.1563 Q231.1719,22.1563 230.9688,21.9531 Q230.7656,21.7656 230.6563,21.25 Q230.6094,20.8906 230.4219,20.7031 Q230.0938,20.3281 229.4844,20.1094 Q228.875,19.8906 228.25,19.8906 Q227.4844,19.8906 226.8516,20.2188 Q226.2188,20.5469 225.7266,21.2969 Q225.2344,22.0469 225.2344,23.0781 L225.2344,24.1719 Q225.2344,25.4063 226.125,26.2266 Q227.0156,27.0469 228.6094,27.0469 Q229.5469,27.0469 230.2031,26.7969 Q230.5938,26.6406 231.0156,26.2031 Q231.2813,25.9375 231.4297,25.8594 Q231.5781,25.7813 231.7813,25.7813 Q232.1094,25.7813 232.3672,26.0391 Q232.625,26.2969 232.625,26.6406 Q232.625,26.9844 232.2813,27.3906 Q231.7813,27.9688 230.9844,28.2969 Q229.9063,28.75 228.6094,28.75 Q227.0938,28.75 225.8906,28.125 Q224.9063,27.625 224.2188,26.5547 Q223.5313,25.4844 223.5313,24.2031 L223.5313,23.0469 Q223.5313,21.7188 224.1484,20.5703 Q224.7656,19.4219 225.8594,18.8047 Q226.9531,18.1875 228.1875,18.1875 Q228.9219,18.1875 229.5703,18.3516 Q230.2188,18.5156 230.7656,18.875 Z " fill="#000000" /><text fill="#000000" font-family="sans-serif" font-size="12" lengthAdjust="spacingAndGlyphs" textLength="27" x="242" y="27.9102">User</text>
        <line style="stroke:#A80036;stroke-width:1.5;" x1="214" x2="271" y1="39" y2="39" />
        <!--MD5=[a77781830b4eef1927aef37ad01ad2c2]
class Catalogue-->
        <rect codeLine="16" fill="#FEFECE" filter="url(#f1ju2d9bptib57)" height="40" id="Catalogue" style="stroke:#A80036;stroke-width:1.5;" width="89" x="198" y="107" />
        <ellipse cx="213" cy="123" fill="#ADD1B2" rx="11" ry="11" style="stroke:#A80036;stroke-width:1.0;" />
        <path d="M215.7656,118.875 Q215.9219,118.6563 216.1094,118.5469 Q216.2969,118.4375 216.5156,118.4375 Q216.8906,118.4375 217.125,118.6953 Q217.3594,118.9531 217.3594,119.5625 L217.3594,121.0156 Q217.3594,121.625 217.125,121.8906 Q216.8906,122.1563 216.5156,122.1563 Q216.1719,122.1563 215.9688,121.9531 Q215.7656,121.7656 215.6563,121.25 Q215.6094,120.8906 215.4219,120.7031 Q215.0938,120.3281 214.4844,120.1094 Q213.875,119.8906 213.25,119.8906 Q212.4844,119.8906 211.8516,120.2188 Q211.2188,120.5469 210.7266,121.2969 Q210.2344,122.0469 210.2344,123.0781 L210.2344,124.1719 Q210.2344,125.4063 211.125,126.2266 Q212.0156,127.0469 213.6094,127.0469 Q214.5469,127.0469 215.2031,126.7969 Q215.5938,126.6406 216.0156,126.2031 Q216.2813,125.9375 216.4297,125.8594 Q216.5781,125.7813 216.7813,125.7813 Q217.1094,125.7813 217.3672,126.0391 Q217.625,126.2969 217.625,126.6406 Q217.625,126.9844 217.2813,127.3906 Q216.7813,127.9688 215.9844,128.2969 Q214.9063,128.75 213.6094,128.75 Q212.0938,128.75 210.8906,128.125 Q209.9063,127.625 209.2188,126.5547 Q208.5313,125.4844 208.5313,124.2031 L208.5313,123.0469 Q208.5313,121.7188 209.1484,120.5703 Q209.7656,119.4219 210.8594,118.8047 Q211.9531,118.1875 213.1875,118.1875 Q213.9219,118.1875 214.5703,118.3516 Q215.2188,118.5156 215.7656,118.875 Z " fill="#000000" /><text fill="#000000" font-family="sans-serif" font-size="12" lengthAdjust="spacingAndGlyphs" textLength="57" x="227" y="127.9102">Catalogue</text>
        <line style="stroke:#A80036;stroke-width:1.5;" x1="199" x2="286" y1="139" y2="139" />
        <!--MD5=[44a1b4afaef76c16e6c9ec4990ad0c8d]
class Item-->
        <rect fill="#FEFECE" filter="url(#f1ju2d9bptib57)" height="40" id="Item" style="stroke:#A80036;stroke-width:1.5;" width="56" x="383" y="107" />
        <ellipse cx="398" cy="123" fill="#ADD1B2" rx="11" ry="11" style="stroke:#A80036;stroke-width:1.0;" />
        <path d="M400.7656,118.875 Q400.9219,118.6563 401.1094,118.5469 Q401.2969,118.4375 401.5156,118.4375 Q401.8906,118.4375 402.125,118.6953 Q402.3594,118.9531 402.3594,119.5625 L402.3594,121.0156 Q402.3594,121.625 402.125,121.8906 Q401.8906,122.1563 401.5156,122.1563 Q401.1719,122.1563 400.9688,121.9531 Q400.7656,121.7656 400.6563,121.25 Q400.6094,120.8906 400.4219,120.7031 Q400.0938,120.3281 399.4844,120.1094 Q398.875,119.8906 398.25,119.8906 Q397.4844,119.8906 396.8516,120.2188 Q396.2188,120.5469 395.7266,121.2969 Q395.2344,122.0469 395.2344,123.0781 L395.2344,124.1719 Q395.2344,125.4063 396.125,126.2266 Q397.0156,127.0469 398.6094,127.0469 Q399.5469,127.0469 400.2031,126.7969 Q400.5938,126.6406 401.0156,126.2031 Q401.2813,125.9375 401.4297,125.8594 Q401.5781,125.7813 401.7813,125.7813 Q402.1094,125.7813 402.3672,126.0391 Q402.625,126.2969 402.625,126.6406 Q402.625,126.9844 402.2813,127.3906 Q401.7813,127.9688 400.9844,128.2969 Q399.9063,128.75 398.6094,128.75 Q397.0938,128.75 395.8906,128.125 Q394.9063,127.625 394.2188,126.5547 Q393.5313,125.4844 393.5313,124.2031 L393.5313,123.0469 Q393.5313,121.7188 394.1484,120.5703 Q394.7656,119.4219 395.8594,118.8047 Q396.9531,118.1875 398.1875,118.1875 Q398.9219,118.1875 399.5703,118.3516 Q400.2188,118.5156 400.7656,118.875 Z " fill="#000000" /><text fill="#000000" font-family="sans-serif" font-size="12" lengthAdjust="spacingAndGlyphs" textLength="24" x="412" y="127.9102">Item</text>
        <line style="stroke:#A80036;stroke-width:1.5;" x1="384" x2="438" y1="139" y2="139" />
        <!--MD5=[9a8dc34b38f85b9f3fcdb440f4bffc6a]
link Client to User-->
        <path codeLine="21" d="M75.72,39.63 C113.47,36.75 176.49,31.95 212.99,29.17 " fill="none" id="Client-User" style="stroke:#A80036;stroke-width:1.0;" />
        <polygon fill="#000000" points="119.9855,23.7959,110.7433,21.5527,111.1899,27.4136,119.9855,23.7959" style="stroke:#000000;stroke-width:1.0;" /><text fill="#000000" font-family="sans-serif" font-size="13" lengthAdjust="spacingAndGlyphs" textLength="43" x="124" y="29.4951">acts as</text><text fill="#000000" font-family="sans-serif" font-size="13" lengthAdjust="spacingAndGlyphs" textLength="7" x="83.5338" y="54.3951">1</text><text fill="#000000" font-family="sans-serif" font-size="13" lengthAdjust="spacingAndGlyphs" textLength="7" x="197.9438" y="45.1869">1</text>
        <!--MD5=[6d2e52053d02db3e97e8d8fbc4712ced]
link Client to Catalogue-->
        <path codeLine="22" d="M75.72,55.47 C108.7,69.7 160.96,92.25 197.98,108.22 " fill="none" id="Client-Catalogue" style="stroke:#A80036;stroke-width:1.0;" />
        <polygon fill="#000000" points="120.0909,65.1566,112.9501,58.8748,110.6216,64.2718,120.0909,65.1566" style="stroke:#000000;stroke-width:1.0;" /><text fill="#000000" font-family="sans-serif" font-size="13" lengthAdjust="spacingAndGlyphs" textLength="42" x="124.5" y="68.4951">checks</text><text fill="#000000" font-family="sans-serif" font-size="13" lengthAdjust="spacingAndGlyphs" textLength="7" x="83.5338" y="73.7001">1</text><text fill="#000000" font-family="sans-serif" font-size="13" lengthAdjust="spacingAndGlyphs" textLength="7" x="183.0267" y="119.9588">1</text>
        <!--MD5=[79c58ca32092b929e8b4bee94f331b1e]
link Catalogue to Item-->
        <path codeLine="24" d="M287.25,127 C317.5,127 356.81,127 382.7,127 " fill="none" id="Catalogue-Item" style="stroke:#A80036;stroke-width:1.0;" />
        <polygon fill="#000000" points="327,118.1758,317.9549,115.2369,317.9549,121.1147,327,118.1758" style="stroke:#000000;stroke-width:1.0;" /><text fill="#000000" font-family="sans-serif" font-size="13" lengthAdjust="spacingAndGlyphs" textLength="21" x="331" y="123.4951">has</text><text fill="#000000" font-family="sans-serif" font-size="13" lengthAdjust="spacingAndGlyphs" textLength="7" x="294.9398" y="141.7981">1</text><text fill="#000000" font-family="sans-serif" font-size="13" lengthAdjust="spacingAndGlyphs" textLength="20" x="354.8006" y="142.1814">1..*</text>
        <!--MD5=[4ad6cf97acca416edaf696371dce2f13]
link System to User-->
        <path codeLine="26" d="M80.02,139.35 C106,139.49 141.23,136.26 168,121 C175.96,116.46 208.05,73.26 227.1,47.04 " fill="none" id="System-User" style="stroke:#A80036;stroke-width:1.0;" />
        <polygon fill="#000000" points="130.235,109.5178,121.0115,111.8368,124.1361,116.8154,130.235,109.5178" style="stroke:#000000;stroke-width:1.0;" /><text fill="#000000" font-family="sans-serif" font-size="13" lengthAdjust="spacingAndGlyphs" textLength="21" x="135" y="117.4951">has</text><text fill="#000000" font-family="sans-serif" font-size="13" lengthAdjust="spacingAndGlyphs" textLength="7" x="87.8989" y="154.9174">1</text><text fill="#000000" font-family="sans-serif" font-size="13" lengthAdjust="spacingAndGlyphs" textLength="20" x="199.9562" y="68.4708">1..*</text>
        <!--MD5=[5b465eda28decf21994da54c8f8abc26]
link System to Catalogue-->
        <path codeLine="27" d="M68.65,157.21 C80.36,165.71 95.09,174.63 110,179 C134.74,186.25 143.43,186.81 168,179 C187.81,172.7 206.88,158.91 220.62,147.12 " fill="none" id="System-Catalogue" style="stroke:#A80036;stroke-width:1.0;" />
        <polygon fill="#000000" points="130.989,169.8445,121.7691,167.5113,122.1585,173.3762,130.989,169.8445" style="stroke:#000000;stroke-width:1.0;" /><text fill="#000000" font-family="sans-serif" font-size="13" lengthAdjust="spacingAndGlyphs" textLength="21" x="135" y="175.4951">has</text><text fill="#000000" font-family="sans-serif" font-size="13" lengthAdjust="spacingAndGlyphs" textLength="7" x="67.4684" y="178.3338">1</text><text fill="#000000" font-family="sans-serif" font-size="13" lengthAdjust="spacingAndGlyphs" textLength="7" x="206.4819" y="168.5733">1</text>
        <!--MD5=[8e5a061736f3ac7ab8499782bd4081d2]
@startuml
hide methods
left to right direction

class Client {

}

class System {

}

class User {

}

class Catalogue {

}


Client "1" - - "1" User: acts as >
Client "1" - - "1" Catalogue: checks >

Catalogue "1" - - "1..*" Item: has >

System "1" - - "1..*" User: has >
System "1" - - "1" Catalogue: has >

@enduml

PlantUML version 1.2020.26(Mon Dec 21 17:45:07 GMT 2020)
(GPL source distribution)
Java Runtime: Java(TM) SE Runtime Environment
JVM: Java HotSpot(TM) 64-Bit Server VM
Default Encoding: Cp1252
Language: pt
Country: PT
-->
    </g>
</svg>