<?xml version="1.0" encoding="UTF-8" standalone="no"?><svg xmlns="http://www.w3.org/2000/svg" xmlns:xlink="http://www.w3.org/1999/xlink" contentScriptType="application/ecmascript" contentStyleType="text/css" height="193px" preserveAspectRatio="none" style="width:729px;height:193px;" version="1.1" viewBox="0 0 729 193" width="729px" zoomAndPan="magnify">
    <defs>
        <filter height="300%" id="fawoyqiiug92k" width="300%" x="-1" y="-1">
            <feGaussianBlur result="blurOut" stdDeviation="2.0" />
            <feColorMatrix in="blurOut" result="blurOut2" type="matrix" values="0 0 0 0 0 0 0 0 0 0 0 0 0 0 0 0 0 0 .4 0" />
            <feOffset dx="4.0" dy="4.0" in="blurOut2" result="blurOut3" />
            <feBlend in="SourceGraphic" in2="blurOut3" mode="normal" />
        </filter>
    </defs>
    <g>
        <!--MD5=[d29d1b18d0e52fc7cadd41b2945b2978]
class ViewCatalogueUI-->
        <rect codeLine="4" fill="#FEFECE" filter="url(#fawoyqiiug92k)" height="48" id="ViewCatalogueUI" style="stroke:#A80036;stroke-width:1.5;" width="127" x="7" y="73" />
        <ellipse cx="22" cy="89" fill="#ADD1B2" rx="11" ry="11" style="stroke:#A80036;stroke-width:1.0;" />
        <path d="M24.7656,84.875 Q24.9219,84.6563 25.1094,84.5469 Q25.2969,84.4375 25.5156,84.4375 Q25.8906,84.4375 26.125,84.6953 Q26.3594,84.9531 26.3594,85.5625 L26.3594,87.0156 Q26.3594,87.625 26.125,87.8906 Q25.8906,88.1563 25.5156,88.1563 Q25.1719,88.1563 24.9688,87.9531 Q24.7656,87.7656 24.6563,87.25 Q24.6094,86.8906 24.4219,86.7031 Q24.0938,86.3281 23.4844,86.1094 Q22.875,85.8906 22.25,85.8906 Q21.4844,85.8906 20.8516,86.2188 Q20.2188,86.5469 19.7266,87.2969 Q19.2344,88.0469 19.2344,89.0781 L19.2344,90.1719 Q19.2344,91.4063 20.125,92.2266 Q21.0156,93.0469 22.6094,93.0469 Q23.5469,93.0469 24.2031,92.7969 Q24.5938,92.6406 25.0156,92.2031 Q25.2813,91.9375 25.4297,91.8594 Q25.5781,91.7813 25.7813,91.7813 Q26.1094,91.7813 26.3672,92.0391 Q26.625,92.2969 26.625,92.6406 Q26.625,92.9844 26.2813,93.3906 Q25.7813,93.9688 24.9844,94.2969 Q23.9063,94.75 22.6094,94.75 Q21.0938,94.75 19.8906,94.125 Q18.9063,93.625 18.2188,92.5547 Q17.5313,91.4844 17.5313,90.2031 L17.5313,89.0469 Q17.5313,87.7188 18.1484,86.5703 Q18.7656,85.4219 19.8594,84.8047 Q20.9531,84.1875 22.1875,84.1875 Q22.9219,84.1875 23.5703,84.3516 Q24.2188,84.5156 24.7656,84.875 Z " fill="#000000" /><text fill="#000000" font-family="sans-serif" font-size="12" lengthAdjust="spacingAndGlyphs" textLength="95" x="36" y="93.9102">ViewCatalogueUI</text>
        <line style="stroke:#A80036;stroke-width:1.5;" x1="8" x2="133" y1="105" y2="105" />
        <line style="stroke:#A80036;stroke-width:1.5;" x1="8" x2="133" y1="113" y2="113" />
        <!--MD5=[52b333a13a791d526692daed2b991370]
class ViewCatalogueController-->
        <rect codeLine="7" fill="#FEFECE" filter="url(#fawoyqiiug92k)" height="61.8359" id="ViewCatalogueController" style="stroke:#A80036;stroke-width:1.5;" width="169" x="195" y="66" />
        <ellipse cx="210" cy="82" fill="#ADD1B2" rx="11" ry="11" style="stroke:#A80036;stroke-width:1.0;" />
        <path d="M212.7656,77.875 Q212.9219,77.6563 213.1094,77.5469 Q213.2969,77.4375 213.5156,77.4375 Q213.8906,77.4375 214.125,77.6953 Q214.3594,77.9531 214.3594,78.5625 L214.3594,80.0156 Q214.3594,80.625 214.125,80.8906 Q213.8906,81.1563 213.5156,81.1563 Q213.1719,81.1563 212.9688,80.9531 Q212.7656,80.7656 212.6563,80.25 Q212.6094,79.8906 212.4219,79.7031 Q212.0938,79.3281 211.4844,79.1094 Q210.875,78.8906 210.25,78.8906 Q209.4844,78.8906 208.8516,79.2188 Q208.2188,79.5469 207.7266,80.2969 Q207.2344,81.0469 207.2344,82.0781 L207.2344,83.1719 Q207.2344,84.4063 208.125,85.2266 Q209.0156,86.0469 210.6094,86.0469 Q211.5469,86.0469 212.2031,85.7969 Q212.5938,85.6406 213.0156,85.2031 Q213.2813,84.9375 213.4297,84.8594 Q213.5781,84.7813 213.7813,84.7813 Q214.1094,84.7813 214.3672,85.0391 Q214.625,85.2969 214.625,85.6406 Q214.625,85.9844 214.2813,86.3906 Q213.7813,86.9688 212.9844,87.2969 Q211.9063,87.75 210.6094,87.75 Q209.0938,87.75 207.8906,87.125 Q206.9063,86.625 206.2188,85.5547 Q205.5313,84.4844 205.5313,83.2031 L205.5313,82.0469 Q205.5313,80.7188 206.1484,79.5703 Q206.7656,78.4219 207.8594,77.8047 Q208.9531,77.1875 210.1875,77.1875 Q210.9219,77.1875 211.5703,77.3516 Q212.2188,77.5156 212.7656,77.875 Z " fill="#000000" /><text fill="#000000" font-family="sans-serif" font-size="12" lengthAdjust="spacingAndGlyphs" textLength="137" x="224" y="86.9102">ViewCatalogueController</text>
        <line style="stroke:#A80036;stroke-width:1.5;" x1="196" x2="363" y1="98" y2="98" />
        <line style="stroke:#A80036;stroke-width:1.5;" x1="196" x2="363" y1="106" y2="106" /><text fill="#000000" font-family="sans-serif" font-size="11" lengthAdjust="spacingAndGlyphs" textLength="71" x="201" y="121.4189">getCatalogue()</text>
        <!--MD5=[f8e092794d52bf9a252466252ae7bd1c]
class System-->
        <rect codeLine="11" fill="#FEFECE" filter="url(#fawoyqiiug92k)" height="61.8359" id="System" style="stroke:#A80036;stroke-width:1.5;" width="83" x="425" y="66" />
        <ellipse cx="444.5" cy="82" fill="#ADD1B2" rx="11" ry="11" style="stroke:#A80036;stroke-width:1.0;" />
        <path d="M447.2656,77.875 Q447.4219,77.6563 447.6094,77.5469 Q447.7969,77.4375 448.0156,77.4375 Q448.3906,77.4375 448.625,77.6953 Q448.8594,77.9531 448.8594,78.5625 L448.8594,80.0156 Q448.8594,80.625 448.625,80.8906 Q448.3906,81.1563 448.0156,81.1563 Q447.6719,81.1563 447.4688,80.9531 Q447.2656,80.7656 447.1563,80.25 Q447.1094,79.8906 446.9219,79.7031 Q446.5938,79.3281 445.9844,79.1094 Q445.375,78.8906 444.75,78.8906 Q443.9844,78.8906 443.3516,79.2188 Q442.7188,79.5469 442.2266,80.2969 Q441.7344,81.0469 441.7344,82.0781 L441.7344,83.1719 Q441.7344,84.4063 442.625,85.2266 Q443.5156,86.0469 445.1094,86.0469 Q446.0469,86.0469 446.7031,85.7969 Q447.0938,85.6406 447.5156,85.2031 Q447.7813,84.9375 447.9297,84.8594 Q448.0781,84.7813 448.2813,84.7813 Q448.6094,84.7813 448.8672,85.0391 Q449.125,85.2969 449.125,85.6406 Q449.125,85.9844 448.7813,86.3906 Q448.2813,86.9688 447.4844,87.2969 Q446.4063,87.75 445.1094,87.75 Q443.5938,87.75 442.3906,87.125 Q441.4063,86.625 440.7188,85.5547 Q440.0313,84.4844 440.0313,83.2031 L440.0313,82.0469 Q440.0313,80.7188 440.6484,79.5703 Q441.2656,78.4219 442.3594,77.8047 Q443.4531,77.1875 444.6875,77.1875 Q445.4219,77.1875 446.0703,77.3516 Q446.7188,77.5156 447.2656,77.875 Z " fill="#000000" /><text fill="#000000" font-family="sans-serif" font-size="12" lengthAdjust="spacingAndGlyphs" textLength="41" x="459.5" y="86.9102">System</text>
        <line style="stroke:#A80036;stroke-width:1.5;" x1="426" x2="507" y1="98" y2="98" />
        <line style="stroke:#A80036;stroke-width:1.5;" x1="426" x2="507" y1="106" y2="106" /><text fill="#000000" font-family="sans-serif" font-size="11" lengthAdjust="spacingAndGlyphs" textLength="71" x="431" y="121.4189">getCatalogue()</text>
        <!--MD5=[a77781830b4eef1927aef37ad01ad2c2]
class Catalogue-->
        <rect codeLine="15" fill="#FEFECE" filter="url(#fawoyqiiug92k)" height="75.6719" id="Catalogue" style="stroke:#A80036;stroke-width:1.5;" width="124" x="591" y="7" />
        <ellipse cx="621.75" cy="23" fill="#ADD1B2" rx="11" ry="11" style="stroke:#A80036;stroke-width:1.0;" />
        <path d="M624.5156,18.875 Q624.6719,18.6563 624.8594,18.5469 Q625.0469,18.4375 625.2656,18.4375 Q625.6406,18.4375 625.875,18.6953 Q626.1094,18.9531 626.1094,19.5625 L626.1094,21.0156 Q626.1094,21.625 625.875,21.8906 Q625.6406,22.1563 625.2656,22.1563 Q624.9219,22.1563 624.7188,21.9531 Q624.5156,21.7656 624.4063,21.25 Q624.3594,20.8906 624.1719,20.7031 Q623.8438,20.3281 623.2344,20.1094 Q622.625,19.8906 622,19.8906 Q621.2344,19.8906 620.6016,20.2188 Q619.9688,20.5469 619.4766,21.2969 Q618.9844,22.0469 618.9844,23.0781 L618.9844,24.1719 Q618.9844,25.4063 619.875,26.2266 Q620.7656,27.0469 622.3594,27.0469 Q623.2969,27.0469 623.9531,26.7969 Q624.3438,26.6406 624.7656,26.2031 Q625.0313,25.9375 625.1797,25.8594 Q625.3281,25.7813 625.5313,25.7813 Q625.8594,25.7813 626.1172,26.0391 Q626.375,26.2969 626.375,26.6406 Q626.375,26.9844 626.0313,27.3906 Q625.5313,27.9688 624.7344,28.2969 Q623.6563,28.75 622.3594,28.75 Q620.8438,28.75 619.6406,28.125 Q618.6563,27.625 617.9688,26.5547 Q617.2813,25.4844 617.2813,24.2031 L617.2813,23.0469 Q617.2813,21.7188 617.8984,20.5703 Q618.5156,19.4219 619.6094,18.8047 Q620.7031,18.1875 621.9375,18.1875 Q622.6719,18.1875 623.3203,18.3516 Q623.9688,18.5156 624.5156,18.875 Z " fill="#000000" /><text fill="#000000" font-family="sans-serif" font-size="12" lengthAdjust="spacingAndGlyphs" textLength="57" x="639.25" y="27.9102">Catalogue</text>
        <line style="stroke:#A80036;stroke-width:1.5;" x1="592" x2="714" y1="39" y2="39" />
        <line style="stroke:#A80036;stroke-width:1.5;" x1="592" x2="714" y1="47" y2="47" /><text fill="#000000" font-family="sans-serif" font-size="11" lengthAdjust="spacingAndGlyphs" textLength="112" x="597" y="62.4189">getItemsForCatalogue()</text><text fill="#000000" font-family="sans-serif" font-size="11" lengthAdjust="spacingAndGlyphs" textLength="77" x="597" y="76.2549">printCatalogue()</text>
        <!--MD5=[e94cd30884143e0f60d8b4ea08aaa79b]
class ItemdDB-->
        <rect codeLine="20" fill="#FEFECE" filter="url(#fawoyqiiug92k)" height="61.8359" id="ItemdDB" style="stroke:#A80036;stroke-width:1.5;" width="99" x="603.5" y="118" />
        <ellipse cx="627.05" cy="134" fill="#ADD1B2" rx="11" ry="11" style="stroke:#A80036;stroke-width:1.0;" />
        <path d="M629.8156,129.875 Q629.9719,129.6563 630.1594,129.5469 Q630.3469,129.4375 630.5656,129.4375 Q630.9406,129.4375 631.175,129.6953 Q631.4094,129.9531 631.4094,130.5625 L631.4094,132.0156 Q631.4094,132.625 631.175,132.8906 Q630.9406,133.1563 630.5656,133.1563 Q630.2219,133.1563 630.0188,132.9531 Q629.8156,132.7656 629.7063,132.25 Q629.6594,131.8906 629.4719,131.7031 Q629.1438,131.3281 628.5344,131.1094 Q627.925,130.8906 627.3,130.8906 Q626.5344,130.8906 625.9016,131.2188 Q625.2688,131.5469 624.7766,132.2969 Q624.2844,133.0469 624.2844,134.0781 L624.2844,135.1719 Q624.2844,136.4063 625.175,137.2266 Q626.0656,138.0469 627.6594,138.0469 Q628.5969,138.0469 629.2531,137.7969 Q629.6438,137.6406 630.0656,137.2031 Q630.3313,136.9375 630.4797,136.8594 Q630.6281,136.7813 630.8313,136.7813 Q631.1594,136.7813 631.4172,137.0391 Q631.675,137.2969 631.675,137.6406 Q631.675,137.9844 631.3313,138.3906 Q630.8313,138.9688 630.0344,139.2969 Q628.9563,139.75 627.6594,139.75 Q626.1438,139.75 624.9406,139.125 Q623.9563,138.625 623.2688,137.5547 Q622.5813,136.4844 622.5813,135.2031 L622.5813,134.0469 Q622.5813,132.7188 623.1984,131.5703 Q623.8156,130.4219 624.9094,129.8047 Q626.0031,129.1875 627.2375,129.1875 Q627.9719,129.1875 628.6203,129.3516 Q629.2688,129.5156 629.8156,129.875 Z " fill="#000000" /><text fill="#000000" font-family="sans-serif" font-size="12" lengthAdjust="spacingAndGlyphs" textLength="48" x="642.95" y="138.9102">ItemdDB</text>
        <line style="stroke:#A80036;stroke-width:1.5;" x1="604.5" x2="701.5" y1="150" y2="150" />
        <line style="stroke:#A80036;stroke-width:1.5;" x1="604.5" x2="701.5" y1="158" y2="158" /><text fill="#000000" font-family="sans-serif" font-size="11" lengthAdjust="spacingAndGlyphs" textLength="87" x="609.5" y="173.4189">getAllItemNames()</text>
        <!--MD5=[46d868baf2bef1917e724b81c1ecf328]
link ViewCatalogueUI to ViewCatalogueController-->
        <path codeLine="24" d="M134.17,97 C151.57,97 170.81,97 189.41,97 " fill="none" id="ViewCatalogueUI-to-ViewCatalogueController" style="stroke:#A80036;stroke-width:1.0;stroke-dasharray:7.0,7.0;" />
        <polygon fill="#A80036" points="194.64,97,185.64,93,189.64,97,185.64,101,194.64,97" style="stroke:#A80036;stroke-width:1.0;" />
        <!--MD5=[7606bcc8ae08f5eba19a3f2edbdb6aac]
link ViewCatalogueController to System-->
        <path codeLine="25" d="M364.07,97 C383.16,97 402.76,97 419.59,97 " fill="none" id="ViewCatalogueController-to-System" style="stroke:#A80036;stroke-width:1.0;stroke-dasharray:7.0,7.0;" />
        <polygon fill="#A80036" points="424.71,97,415.71,93,419.71,97,415.71,101,424.71,97" style="stroke:#A80036;stroke-width:1.0;" />
        <!--MD5=[114de4117e3c4bab58b8cfd5add1327a]
link System to ItemdDB-->
        <path codeLine="26" d="M508.45,108.54 C534.94,116.01 569.71,125.81 598.4,133.89 " fill="none" id="System-to-ItemdDB" style="stroke:#A80036;stroke-width:1.0;" />
        <polygon fill="#A80036" points="603.31,135.28,595.7329,128.9881,598.4976,133.9234,593.5623,136.688,603.31,135.28" style="stroke:#A80036;stroke-width:1.0;" /><text fill="#000000" font-family="sans-serif" font-size="13" lengthAdjust="spacingAndGlyphs" textLength="21" x="539" y="115.4951">has</text><text fill="#000000" font-family="sans-serif" font-size="13" lengthAdjust="spacingAndGlyphs" textLength="7" x="515.9777" y="125.3141">1</text><text fill="#000000" font-family="sans-serif" font-size="13" lengthAdjust="spacingAndGlyphs" textLength="7" x="588.4977" y="147.9729">1</text>
        <!--MD5=[5b465eda28decf21994da54c8f8abc26]
link System to Catalogue-->
        <path codeLine="27" d="M508.45,85.46 C531.14,79.06 559.9,70.96 585.72,63.68 " fill="none" id="System-to-Catalogue" style="stroke:#A80036;stroke-width:1.0;" />
        <polygon fill="#A80036" points="590.84,62.24,581.0923,60.832,586.0276,63.5966,583.2629,68.5319,590.84,62.24" style="stroke:#A80036;stroke-width:1.0;" /><text fill="#000000" font-family="sans-serif" font-size="13" lengthAdjust="spacingAndGlyphs" textLength="21" x="539" y="67.4951">has</text><text fill="#000000" font-family="sans-serif" font-size="13" lengthAdjust="spacingAndGlyphs" textLength="7" x="515.9777" y="98.4115">1</text><text fill="#000000" font-family="sans-serif" font-size="13" lengthAdjust="spacingAndGlyphs" textLength="7" x="575.8377" y="78.8527">1</text>
        <!--MD5=[4cdfd6b4026bba21f1814a8438da9fbb]
@startuml

left to right direction

class ViewCatalogueUI {
}

class ViewCatalogueController {
  getCatalogue()
}

class System {
  getCatalogue()
}

class Catalogue {
  getItemsForCatalogue()
  printCatalogue()
}

class ItemdDB {
  getAllItemNames()
}

ViewCatalogueUI ..> ViewCatalogueController
ViewCatalogueController ..> System
System "1" - -> "1" ItemdDB: has
System "1" - -> "1" Catalogue: has

@enduml

PlantUML version 1.2020.26(Mon Dec 21 17:45:07 GMT 2020)
(GPL source distribution)
Java Runtime: Java(TM) SE Runtime Environment
JVM: Java HotSpot(TM) 64-Bit Server VM
Default Encoding: Cp1252
Language: pt
Country: PT
-->
    </g>
</svg>ue {
getItemsForCatalogue()
printCatalogue()
}

class ItemdDB {
getAllItemNames()
}

ViewCatalogueUI ..> ViewCatalogueController
ViewCatalogueController ..> System
System "1" - -> "1" ItemdDB: has
System "1" - -> "1" Catalogue: has

@enduml

PlantUML version 1.2020.26(Mon Dec 21 17:45:07 GMT 2020)
(GPL source distribution)
Java Runtime: Java(TM) SE Runtime Environment
JVM: Java HotSpot(TM) 64-Bit Server VM
Default Encoding: Cp1252
Language: pt
Country: PT
-->
</g>
</svg>