<?xml version="1.0" encoding="UTF-8" standalone="no"?><svg xmlns="http://www.w3.org/2000/svg" xmlns:xlink="http://www.w3.org/1999/xlink" contentScriptType="application/ecmascript" contentStyleType="text/css" height="275px" preserveAspectRatio="none" style="width:594px;height:275px;" version="1.1" viewBox="0 0 594 275" width="594px" zoomAndPan="magnify"><defs><filter height="300%" id="f1a36d04i2rd0w" width="300%" x="-1" y="-1"><feGaussianBlur result="blurOut" stdDeviation="2.0"/><feColorMatrix in="blurOut" result="blurOut2" type="matrix" values="0 0 0 0 0 0 0 0 0 0 0 0 0 0 0 0 0 0 .4 0"/><feOffset dx="4.0" dy="4.0" in="blurOut2" result="blurOut3"/><feBlend in="SourceGraphic" in2="blurOut3" mode="normal"/></filter></defs><g><!--MD5=[ed6624c6556d5e7b1bd23032162d20b7]
class Client--><rect codeLine="5" fill="#FEFECE" filter="url(#f1a36d04i2rd0w)" height="136.8516" id="Client" style="stroke:#A80036;stroke-width:1.5;" width="144" x="195" y="7"/><ellipse cx="246.75" cy="23" fill="#ADD1B2" rx="11" ry="11" style="stroke:#A80036;stroke-width:1.0;"/><path d="M248.75,19.5 Q248.9531,19 249.1875,18.75 Q249.4219,18.5 249.6875,18.5 Q250.1563,18.5 250.4531,18.7813 Q250.75,19.0625 250.75,19.7188 L250.75,21.2813 Q250.75,21.9375 250.4688,22.2188 Q250.1875,22.5 249.75,22.5 Q249.3594,22.5 249.1094,22.3281 Q248.8594,22.1563 248.75,21.7031 Q248.7031,21.3906 248.5313,21.2188 Q248.2188,20.8906 247.6563,20.7031 Q247.0938,20.5 246.5313,20.5 Q245.8281,20.5 245.2344,20.7813 Q244.6563,21.0625 244.2031,21.6875 Q243.75,22.3125 243.75,23.1719 L243.75,24.0938 Q243.75,25.125 244.5938,25.8125 Q245.4375,26.5 246.9375,26.5 Q247.8281,26.5 248.4531,26.2969 Q248.8125,26.1875 249.2188,25.8281 Q249.4844,25.625 249.625,25.5625 Q249.7656,25.5 249.9375,25.5 Q250.2656,25.5 250.5,25.7656 Q250.75,26.0156 250.75,26.375 Q250.75,26.7188 250.4063,27.125 Q249.9063,27.7188 249.1094,28.0469 Q248.0625,28.5 246.7813,28.5 Q245.2813,28.5 244.0781,27.9063 Q243.1094,27.4375 242.4219,26.4219 Q241.75,25.4063 241.75,24.2031 L241.75,23.1094 Q241.75,21.8594 242.3438,20.7656 Q242.9531,19.6719 244,19.0938 Q245.0625,18.5 246.25,18.5 Q246.9688,18.5 247.5938,18.75 Q248.2188,19 248.75,19.5 Z " fill="#000000"/><text fill="#000000" font-family="sans-serif" font-size="12" lengthAdjust="spacing" textLength="32" x="267.25" y="27.9102">Client</text><line style="stroke:#A80036;stroke-width:1.5;" x1="196" x2="338" y1="39" y2="39"/><rect fill="none" height="6" style="stroke:#C82930;stroke-width:1.0;" width="6" x="203" y="47"/><text fill="#000000" font-family="sans-serif" font-size="11" lengthAdjust="spacing" textLength="44" x="215" y="54.4189">Integer id</text><rect fill="none" height="6" style="stroke:#C82930;stroke-width:1.0;" width="6" x="203" y="60.8359"/><text fill="#000000" font-family="sans-serif" font-size="11" lengthAdjust="spacing" textLength="57" x="215" y="68.2549">String name</text><rect fill="none" height="6" style="stroke:#C82930;stroke-width:1.0;" width="6" x="203" y="74.6719"/><text fill="#000000" font-family="sans-serif" font-size="11" lengthAdjust="spacing" textLength="97" x="215" y="82.0908">String emailAddress</text><rect fill="none" height="6" style="stroke:#C82930;stroke-width:1.0;" width="6" x="203" y="88.5078"/><text fill="#000000" font-family="sans-serif" font-size="11" lengthAdjust="spacing" textLength="81" x="215" y="95.9268">String password</text><rect fill="none" height="6" style="stroke:#C82930;stroke-width:1.0;" width="6" x="203" y="102.3438"/><text fill="#000000" font-family="sans-serif" font-size="11" lengthAdjust="spacing" textLength="77" x="215" y="109.7627">String cellphone</text><rect fill="none" height="6" style="stroke:#C82930;stroke-width:1.0;" width="6" x="203" y="116.1797"/><text fill="#000000" font-family="sans-serif" font-size="11" lengthAdjust="spacing" textLength="48" x="215" y="123.5986">Integer nif</text><rect fill="none" height="6" style="stroke:#C82930;stroke-width:1.0;" width="6" x="203" y="130.0156"/><text fill="#000000" font-family="sans-serif" font-size="11" lengthAdjust="spacing" textLength="118" x="215" y="137.4346">Integer numberOfCredits</text><!--MD5=[0b4e4b4980470ea387cc45de9bd14b5b]
class Application--><rect codeLine="17" fill="#FEFECE" filter="url(#f1a36d04i2rd0w)" height="40" id="Application" style="stroke:#A80036;stroke-width:1.5;" width="92" x="7" y="200.5"/><ellipse cx="22" cy="216.5" fill="#ADD1B2" rx="11" ry="11" style="stroke:#A80036;stroke-width:1.0;"/><path d="M24,213 Q24.2031,212.5 24.4375,212.25 Q24.6719,212 24.9375,212 Q25.4063,212 25.7031,212.2813 Q26,212.5625 26,213.2188 L26,214.7813 Q26,215.4375 25.7188,215.7188 Q25.4375,216 25,216 Q24.6094,216 24.3594,215.8281 Q24.1094,215.6563 24,215.2031 Q23.9531,214.8906 23.7813,214.7188 Q23.4688,214.3906 22.9063,214.2031 Q22.3438,214 21.7813,214 Q21.0781,214 20.4844,214.2813 Q19.9063,214.5625 19.4531,215.1875 Q19,215.8125 19,216.6719 L19,217.5938 Q19,218.625 19.8438,219.3125 Q20.6875,220 22.1875,220 Q23.0781,220 23.7031,219.7969 Q24.0625,219.6875 24.4688,219.3281 Q24.7344,219.125 24.875,219.0625 Q25.0156,219 25.1875,219 Q25.5156,219 25.75,219.2656 Q26,219.5156 26,219.875 Q26,220.2188 25.6563,220.625 Q25.1563,221.2188 24.3594,221.5469 Q23.3125,222 22.0313,222 Q20.5313,222 19.3281,221.4063 Q18.3594,220.9375 17.6719,219.9219 Q17,218.9063 17,217.7031 L17,216.6094 Q17,215.3594 17.5938,214.2656 Q18.2031,213.1719 19.25,212.5938 Q20.3125,212 21.5,212 Q22.2188,212 22.8438,212.25 Q23.4688,212.5 24,213 Z " fill="#000000"/><text fill="#000000" font-family="sans-serif" font-size="12" lengthAdjust="spacing" textLength="60" x="36" y="221.4102">Application</text><line style="stroke:#A80036;stroke-width:1.5;" x1="8" x2="98" y1="232.5" y2="232.5"/><!--MD5=[cf4d6237fcae255cd2e1656cf84a30e2]
class Order--><rect codeLine="22" fill="#FEFECE" filter="url(#f1a36d04i2rd0w)" height="53.8359" id="Order" style="stroke:#A80036;stroke-width:1.5;" width="70" x="483.5" y="161.5"/><ellipse cx="501.65" cy="177.5" fill="#ADD1B2" rx="11" ry="11" style="stroke:#A80036;stroke-width:1.0;"/><path d="M503.65,174 Q503.8531,173.5 504.0875,173.25 Q504.3219,173 504.5875,173 Q505.0563,173 505.3531,173.2813 Q505.65,173.5625 505.65,174.2188 L505.65,175.7813 Q505.65,176.4375 505.3688,176.7188 Q505.0875,177 504.65,177 Q504.2594,177 504.0094,176.8281 Q503.7594,176.6563 503.65,176.2031 Q503.6031,175.8906 503.4313,175.7188 Q503.1188,175.3906 502.5563,175.2031 Q501.9938,175 501.4313,175 Q500.7281,175 500.1344,175.2813 Q499.5563,175.5625 499.1031,176.1875 Q498.65,176.8125 498.65,177.6719 L498.65,178.5938 Q498.65,179.625 499.4938,180.3125 Q500.3375,181 501.8375,181 Q502.7281,181 503.3531,180.7969 Q503.7125,180.6875 504.1188,180.3281 Q504.3844,180.125 504.525,180.0625 Q504.6656,180 504.8375,180 Q505.1656,180 505.4,180.2656 Q505.65,180.5156 505.65,180.875 Q505.65,181.2188 505.3063,181.625 Q504.8063,182.2188 504.0094,182.5469 Q502.9625,183 501.6813,183 Q500.1813,183 498.9781,182.4063 Q498.0094,181.9375 497.3219,180.9219 Q496.65,179.9063 496.65,178.7031 L496.65,177.6094 Q496.65,176.3594 497.2438,175.2656 Q497.8531,174.1719 498.9,173.5938 Q499.9625,173 501.15,173 Q501.8688,173 502.4938,173.25 Q503.1188,173.5 503.65,174 Z " fill="#000000"/><text fill="#000000" font-family="sans-serif" font-size="12" lengthAdjust="spacing" textLength="31" x="516.35" y="182.4102">Order</text><line style="stroke:#A80036;stroke-width:1.5;" x1="484.5" x2="552.5" y1="193.5" y2="193.5"/><rect fill="none" height="6" style="stroke:#C82930;stroke-width:1.0;" width="6" x="491.5" y="201.5"/><text fill="#000000" font-family="sans-serif" font-size="11" lengthAdjust="spacing" textLength="44" x="503.5" y="208.9189">id Integer</text><!--MD5=[7f2a9fafcebe4f099f71398fd3e2ed00]
class Pharmacy--><rect codeLine="26" fill="#FEFECE" filter="url(#f1a36d04i2rd0w)" height="81.5078" id="Pharmacy" style="stroke:#A80036;stroke-width:1.5;" width="112" x="211" y="179.5"/><ellipse cx="237.25" cy="195.5" fill="#ADD1B2" rx="11" ry="11" style="stroke:#A80036;stroke-width:1.0;"/><path d="M239.25,192 Q239.4531,191.5 239.6875,191.25 Q239.9219,191 240.1875,191 Q240.6563,191 240.9531,191.2813 Q241.25,191.5625 241.25,192.2188 L241.25,193.7813 Q241.25,194.4375 240.9688,194.7188 Q240.6875,195 240.25,195 Q239.8594,195 239.6094,194.8281 Q239.3594,194.6563 239.25,194.2031 Q239.2031,193.8906 239.0313,193.7188 Q238.7188,193.3906 238.1563,193.2031 Q237.5938,193 237.0313,193 Q236.3281,193 235.7344,193.2813 Q235.1563,193.5625 234.7031,194.1875 Q234.25,194.8125 234.25,195.6719 L234.25,196.5938 Q234.25,197.625 235.0938,198.3125 Q235.9375,199 237.4375,199 Q238.3281,199 238.9531,198.7969 Q239.3125,198.6875 239.7188,198.3281 Q239.9844,198.125 240.125,198.0625 Q240.2656,198 240.4375,198 Q240.7656,198 241,198.2656 Q241.25,198.5156 241.25,198.875 Q241.25,199.2188 240.9063,199.625 Q240.4063,200.2188 239.6094,200.5469 Q238.5625,201 237.2813,201 Q235.7813,201 234.5781,200.4063 Q233.6094,199.9375 232.9219,198.9219 Q232.25,197.9063 232.25,196.7031 L232.25,195.6094 Q232.25,194.3594 232.8438,193.2656 Q233.4531,192.1719 234.5,191.5938 Q235.5625,191 236.75,191 Q237.4688,191 238.0938,191.25 Q238.7188,191.5 239.25,192 Z " fill="#000000"/><text fill="#000000" font-family="sans-serif" font-size="12" lengthAdjust="spacing" textLength="55" x="253.75" y="200.4102">Pharmacy</text><line style="stroke:#A80036;stroke-width:1.5;" x1="212" x2="322" y1="211.5" y2="211.5"/><rect fill="none" height="6" style="stroke:#C82930;stroke-width:1.0;" width="6" x="219" y="219.5"/><text fill="#000000" font-family="sans-serif" font-size="11" lengthAdjust="spacing" textLength="44" x="231" y="226.9189">Integer id</text><rect fill="none" height="6" style="stroke:#C82930;stroke-width:1.0;" width="6" x="219" y="233.3359"/><text fill="#000000" font-family="sans-serif" font-size="11" lengthAdjust="spacing" textLength="86" x="231" y="240.7549">String designation</text><rect fill="none" height="6" style="stroke:#C82930;stroke-width:1.0;" width="6" x="219" y="247.1719"/><text fill="#000000" font-family="sans-serif" font-size="11" lengthAdjust="spacing" textLength="43" x="231" y="254.5908">String nif</text><!--MD5=[3fd616f346a44cd59a91eb10b19e157c]
class User--><rect codeLine="31" fill="#FEFECE" filter="url(#f1a36d04i2rd0w)" height="95.3438" id="User" style="stroke:#A80036;stroke-width:1.5;" width="123" x="457" y="28"/><ellipse cx="500.8" cy="44" fill="#ADD1B2" rx="11" ry="11" style="stroke:#A80036;stroke-width:1.0;"/><path d="M502.8,40.5 Q503.0031,40 503.2375,39.75 Q503.4719,39.5 503.7375,39.5 Q504.2063,39.5 504.5031,39.7813 Q504.8,40.0625 504.8,40.7188 L504.8,42.2813 Q504.8,42.9375 504.5188,43.2188 Q504.2375,43.5 503.8,43.5 Q503.4094,43.5 503.1594,43.3281 Q502.9094,43.1563 502.8,42.7031 Q502.7531,42.3906 502.5813,42.2188 Q502.2688,41.8906 501.7063,41.7031 Q501.1438,41.5 500.5813,41.5 Q499.8781,41.5 499.2844,41.7813 Q498.7063,42.0625 498.2531,42.6875 Q497.8,43.3125 497.8,44.1719 L497.8,45.0938 Q497.8,46.125 498.6438,46.8125 Q499.4875,47.5 500.9875,47.5 Q501.8781,47.5 502.5031,47.2969 Q502.8625,47.1875 503.2688,46.8281 Q503.5344,46.625 503.675,46.5625 Q503.8156,46.5 503.9875,46.5 Q504.3156,46.5 504.55,46.7656 Q504.8,47.0156 504.8,47.375 Q504.8,47.7188 504.4563,48.125 Q503.9563,48.7188 503.1594,49.0469 Q502.1125,49.5 500.8313,49.5 Q499.3313,49.5 498.1281,48.9063 Q497.1594,48.4375 496.4719,47.4219 Q495.8,46.4063 495.8,45.2031 L495.8,44.1094 Q495.8,42.8594 496.3938,41.7656 Q497.0031,40.6719 498.05,40.0938 Q499.1125,39.5 500.3,39.5 Q501.0188,39.5 501.6438,39.75 Q502.2688,40 502.8,40.5 Z " fill="#000000"/><text fill="#000000" font-family="sans-serif" font-size="12" lengthAdjust="spacing" textLength="27" x="521.2" y="48.9102">User</text><line style="stroke:#A80036;stroke-width:1.5;" x1="458" x2="579" y1="60" y2="60"/><rect fill="none" height="6" style="stroke:#C82930;stroke-width:1.0;" width="6" x="465" y="68"/><text fill="#000000" font-family="sans-serif" font-size="11" lengthAdjust="spacing" textLength="44" x="477" y="75.4189">Integer id</text><rect fill="none" height="6" style="stroke:#C82930;stroke-width:1.0;" width="6" x="465" y="81.8359"/><text fill="#000000" font-family="sans-serif" font-size="11" lengthAdjust="spacing" textLength="57" x="477" y="89.2549">String name</text><rect fill="none" height="6" style="stroke:#C82930;stroke-width:1.0;" width="6" x="465" y="95.6719"/><text fill="#000000" font-family="sans-serif" font-size="11" lengthAdjust="spacing" textLength="97" x="477" y="103.0908">String emailAddress</text><rect fill="none" height="6" style="stroke:#C82930;stroke-width:1.0;" width="6" x="465" y="109.5078"/><text fill="#000000" font-family="sans-serif" font-size="11" lengthAdjust="spacing" textLength="81" x="477" y="116.9268">String password</text><!--MD5=[9a8dc34b38f85b9f3fcdb440f4bffc6a]
link Client to User--><path codeLine="37" d="M339.16,75.5 C376.32,75.5 421.32,75.5 456.81,75.5 " fill="none" id="Client-User" style="stroke:#A80036;stroke-width:1.0;"/><polygon fill="#000000" points="379,66.6758,369.9549,63.7369,369.9549,69.6147,379,66.6758" style="stroke:#000000;stroke-width:1.0;"/><text fill="#000000" font-family="sans-serif" font-size="13" lengthAdjust="spacing" textLength="43" x="383" y="71.9951">acts as</text><text fill="#000000" font-family="sans-serif" font-size="13" lengthAdjust="spacing" textLength="7" x="346.9624" y="89.8459">1</text><text fill="#000000" font-family="sans-serif" font-size="13" lengthAdjust="spacing" textLength="7" x="441.865" y="89.9706">1</text><!--MD5=[879bec428a80d843af24dc47845bf14c]
link Client to Order--><path codeLine="38" d="M339.16,107.73 C386.41,129.13 446.31,156.26 483.26,172.99 " fill="none" id="Client-Order" style="stroke:#A80036;stroke-width:1.0;"/><polygon fill="#000000" points="378.5547,115.7385,371.5276,109.3298,369.1027,114.6842,378.5547,115.7385" style="stroke:#000000;stroke-width:1.0;"/><text fill="#000000" font-family="sans-serif" font-size="13" lengthAdjust="spacing" textLength="43" x="383" y="118.9951">creates</text><text fill="#000000" font-family="sans-serif" font-size="13" lengthAdjust="spacing" textLength="7" x="346.9624" y="125.3996">1</text><text fill="#000000" font-family="sans-serif" font-size="13" lengthAdjust="spacing" textLength="20" x="455.4844" y="185.2386">0..*</text><!--MD5=[0b87aa6ace50be10beee1b6515045c69]
link Pharmacy to Order--><path codeLine="39" d="M323.23,214.23 C353.83,210.67 392.55,206.03 427,201.5 C445.57,199.06 466.25,196.1 483.15,193.63 " fill="none" id="Pharmacy-Order" style="stroke:#A80036;stroke-width:1.0;"/><polygon fill="#000000" points="389.959,192.037,380.6126,190.2777,381.3635,196.1074,389.959,192.037" style="stroke:#000000;stroke-width:1.0;"/><text fill="#000000" font-family="sans-serif" font-size="13" lengthAdjust="spacing" textLength="21" x="394" y="197.9951">has</text><text fill="#000000" font-family="sans-serif" font-size="13" lengthAdjust="spacing" textLength="7" x="330.8829" y="228.0008">1</text><text fill="#000000" font-family="sans-serif" font-size="13" lengthAdjust="spacing" textLength="20" x="455.6389" y="209.3425">0..*</text><!--MD5=[8c7e2cb836a61414bf9f02282664f603]
link Application to Pharmacy--><path codeLine="40" d="M99.22,220.5 C131.81,220.5 175.98,220.5 210.67,220.5 " fill="none" id="Application-Pharmacy" style="stroke:#A80036;stroke-width:1.0;"/><polygon fill="#000000" points="139,211.6758,129.9549,208.7369,129.9549,214.6147,139,211.6758" style="stroke:#000000;stroke-width:1.0;"/><text fill="#000000" font-family="sans-serif" font-size="13" lengthAdjust="spacing" textLength="21" x="143" y="216.9951">has</text><text fill="#000000" font-family="sans-serif" font-size="13" lengthAdjust="spacing" textLength="7" x="107.1441" y="235.2981">1</text><text fill="#000000" font-family="sans-serif" font-size="13" lengthAdjust="spacing" textLength="7" x="196.0043" y="235.0742">1</text><!--MD5=[8eb3979099a5defcbb3948003ae9b3c5]
@startuml
hide methods
left to right direction


class Client {
    -Integer id
    -String name
    -String emailAddress
    -String password
    -String cellphone
    -Integer nif
    -Integer numberOfCredits
}



class Application {

}


class Order {
    - id Integer
}

class Pharmacy {
    -Integer id
    -String designation
    -String nif
}
class User {
    -Integer id
    -String name
    -String emailAddress
    -String password
}
Client "1" - - "1" User: acts as >
Client "1" - - "0..*" Order: creates >
Pharmacy "1" - - "0..*" Order: has >
Application "1" - - "1" Pharmacy: has >
@enduml

PlantUML version 1.2021.00(Sun Jan 10 10:25:05 GMT 2021)
(GPL source distribution)
Java Runtime: OpenJDK Runtime Environment
JVM: OpenJDK 64-Bit Server VM
Default Encoding: Cp1252
Language: pt
Country: PT
--></g></svg>