<?xml version="1.0" encoding="UTF-8" standalone="no"?><svg xmlns="http://www.w3.org/2000/svg" xmlns:xlink="http://www.w3.org/1999/xlink" contentScriptType="application/ecmascript" contentStyleType="text/css" height="679px" preserveAspectRatio="none" style="width:1463px;height:679px;" version="1.1" viewBox="0 0 1463 679" width="1463px" zoomAndPan="magnify"><defs><filter height="300%" id="f152tsh2gbbd0d" width="300%" x="-1" y="-1"><feGaussianBlur result="blurOut" stdDeviation="2.0"/><feColorMatrix in="blurOut" result="blurOut2" type="matrix" values="0 0 0 0 0 0 0 0 0 0 0 0 0 0 0 0 0 0 .4 0"/><feOffset dx="4.0" dy="4.0" in="blurOut2" result="blurOut3"/><feBlend in="SourceGraphic" in2="blurOut3" mode="normal"/></filter></defs><g><rect fill="#FFFFFF" filter="url(#f152tsh2gbbd0d)" height="475.9219" style="stroke:#A80036;stroke-width:1.0;" width="10" x="21" y="99.6094"/><rect fill="#FFFFFF" filter="url(#f152tsh2gbbd0d)" height="121.0547" style="stroke:#A80036;stroke-width:1.0;" width="10" x="323" y="121.9609"/><rect fill="#FFFFFF" filter="url(#f152tsh2gbbd0d)" height="225.1094" style="stroke:#A80036;stroke-width:1.0;" width="10" x="323" y="289.7188"/><rect fill="#FFFFFF" filter="url(#f152tsh2gbbd0d)" height="30.3516" style="stroke:#A80036;stroke-width:1.0;" width="10" x="323" y="545.1797"/><rect fill="#FFFFFF" filter="url(#f152tsh2gbbd0d)" height="60.3516" style="stroke:#A80036;stroke-width:1.0;" width="10" x="612" y="152.3125"/><rect fill="#FFFFFF" filter="url(#f152tsh2gbbd0d)" height="194.7578" style="stroke:#A80036;stroke-width:1.0;" width="10" x="612" y="289.7188"/><rect fill="#FFFFFF" filter="url(#f152tsh2gbbd0d)" height="30" style="stroke:#A80036;stroke-width:1.0;" width="10" x="768" y="182.6641"/><rect fill="#FFFFFF" filter="url(#f152tsh2gbbd0d)" height="134.0547" style="stroke:#A80036;stroke-width:1.0;" width="10" x="948.5" y="350.4219"/><rect fill="#FFFFFF" filter="url(#f152tsh2gbbd0d)" height="60.3516" style="stroke:#A80036;stroke-width:1.0;" width="10" x="1173.5" y="424.125"/><rect fill="#FFFFFF" filter="url(#f152tsh2gbbd0d)" height="30" style="stroke:#A80036;stroke-width:1.0;" width="10" x="1405.5" y="454.4766"/><line style="stroke:#A80036;stroke-width:1.0;stroke-dasharray:5.0,5.0;" x1="26" x2="26" y1="89.6094" y2="593.5313"/><line style="stroke:#A80036;stroke-width:1.0;stroke-dasharray:5.0,5.0;" x1="327.5" x2="327.5" y1="89.6094" y2="593.5313"/><line style="stroke:#A80036;stroke-width:1.0;stroke-dasharray:5.0,5.0;" x1="616.5" x2="616.5" y1="89.6094" y2="593.5313"/><line style="stroke:#A80036;stroke-width:1.0;stroke-dasharray:5.0,5.0;" x1="772.5" x2="772.5" y1="89.6094" y2="593.5313"/><line style="stroke:#A80036;stroke-width:1.0;stroke-dasharray:5.0,5.0;" x1="857.5" x2="857.5" y1="89.6094" y2="593.5313"/><line style="stroke:#A80036;stroke-width:1.0;stroke-dasharray:5.0,5.0;" x1="953.5" x2="953.5" y1="89.6094" y2="593.5313"/><line style="stroke:#A80036;stroke-width:1.0;stroke-dasharray:5.0,5.0;" x1="1178" x2="1178" y1="89.6094" y2="593.5313"/><line style="stroke:#A80036;stroke-width:1.0;stroke-dasharray:5.0,5.0;" x1="1410" x2="1410" y1="89.6094" y2="593.5313"/><text fill="#000000" font-family="sans-serif" font-size="14" lengthAdjust="spacing" textLength="36" x="5" y="86.5332">Client</text><ellipse cx="26" cy="15" fill="#FEFECE" filter="url(#f152tsh2gbbd0d)" rx="8" ry="8" style="stroke:#A80036;stroke-width:2.0;"/><path d="M26,23 L26,50 M13,31 L39,31 M26,50 L13,65 M26,50 L39,65 " fill="none" filter="url(#f152tsh2gbbd0d)" style="stroke:#A80036;stroke-width:2.0;"/><text fill="#000000" font-family="sans-serif" font-size="14" lengthAdjust="spacing" textLength="36" x="5" y="607.0645">Client</text><ellipse cx="26" cy="620.1406" fill="#FEFECE" filter="url(#f152tsh2gbbd0d)" rx="8" ry="8" style="stroke:#A80036;stroke-width:2.0;"/><path d="M26,628.1406 L26,655.1406 M13,636.1406 L39,636.1406 M26,655.1406 L13,670.1406 M26,655.1406 L39,670.1406 " fill="none" filter="url(#f152tsh2gbbd0d)" style="stroke:#A80036;stroke-width:2.0;"/><rect fill="#FEFECE" filter="url(#f152tsh2gbbd0d)" height="31.6094" style="stroke:#A80036;stroke-width:1.5;" width="147" x="252.5" y="53"/><text fill="#000000" font-family="sans-serif" font-size="14" lengthAdjust="spacing" textLength="133" x="259.5" y="74.5332">:CheckOrderStatusUI</text><rect fill="#FEFECE" filter="url(#f152tsh2gbbd0d)" height="31.6094" style="stroke:#A80036;stroke-width:1.5;" width="147" x="252.5" y="592.5313"/><text fill="#000000" font-family="sans-serif" font-size="14" lengthAdjust="spacing" textLength="133" x="259.5" y="614.0645">:CheckOrderStatusUI</text><rect fill="#FEFECE" filter="url(#f152tsh2gbbd0d)" height="31.6094" style="stroke:#A80036;stroke-width:1.5;" width="197" x="516.5" y="53"/><text fill="#000000" font-family="sans-serif" font-size="14" lengthAdjust="spacing" textLength="183" x="523.5" y="74.5332">:CheckOrderStatusController</text><rect fill="#FEFECE" filter="url(#f152tsh2gbbd0d)" height="31.6094" style="stroke:#A80036;stroke-width:1.5;" width="197" x="516.5" y="592.5313"/><text fill="#000000" font-family="sans-serif" font-size="14" lengthAdjust="spacing" textLength="183" x="523.5" y="614.0645">:CheckOrderStatusController</text><rect fill="#FEFECE" filter="url(#f152tsh2gbbd0d)" height="31.6094" style="stroke:#A80036;stroke-width:1.5;" width="87" x="727.5" y="53"/><text fill="#000000" font-family="sans-serif" font-size="14" lengthAdjust="spacing" textLength="73" x="734.5" y="74.5332">:Application</text><rect fill="#FEFECE" filter="url(#f152tsh2gbbd0d)" height="31.6094" style="stroke:#A80036;stroke-width:1.5;" width="87" x="727.5" y="592.5313"/><text fill="#000000" font-family="sans-serif" font-size="14" lengthAdjust="spacing" textLength="73" x="734.5" y="614.0645">:Application</text><rect fill="#FEFECE" filter="url(#f152tsh2gbbd0d)" height="31.6094" style="stroke:#A80036;stroke-width:1.5;" width="55" x="828.5" y="53"/><text fill="#000000" font-family="sans-serif" font-size="14" lengthAdjust="spacing" textLength="41" x="835.5" y="74.5332">:Order</text><rect fill="#FEFECE" filter="url(#f152tsh2gbbd0d)" height="31.6094" style="stroke:#A80036;stroke-width:1.5;" width="55" x="828.5" y="592.5313"/><text fill="#000000" font-family="sans-serif" font-size="14" lengthAdjust="spacing" textLength="41" x="835.5" y="614.0645">:Order</text><rect fill="#FEFECE" filter="url(#f152tsh2gbbd0d)" height="31.6094" style="stroke:#A80036;stroke-width:1.5;" width="108" x="897.5" y="53"/><text fill="#000000" font-family="sans-serif" font-size="14" lengthAdjust="spacing" textLength="94" x="904.5" y="74.5332">:OrderRegister</text><rect fill="#FEFECE" filter="url(#f152tsh2gbbd0d)" height="31.6094" style="stroke:#A80036;stroke-width:1.5;" width="108" x="897.5" y="592.5313"/><text fill="#000000" font-family="sans-serif" font-size="14" lengthAdjust="spacing" textLength="94" x="904.5" y="614.0645">:OrderRegister</text><rect fill="#FEFECE" filter="url(#f152tsh2gbbd0d)" height="31.6094" style="stroke:#A80036;stroke-width:1.5;" width="115" x="1119" y="53"/><text fill="#000000" font-family="sans-serif" font-size="14" lengthAdjust="spacing" textLength="101" x="1126" y="74.5332">:ReceipRegister</text><rect fill="#FEFECE" filter="url(#f152tsh2gbbd0d)" height="31.6094" style="stroke:#A80036;stroke-width:1.5;" width="115" x="1119" y="592.5313"/><text fill="#000000" font-family="sans-serif" font-size="14" lengthAdjust="spacing" textLength="101" x="1126" y="614.0645">:ReceipRegister</text><rect fill="#FEFECE" filter="url(#f152tsh2gbbd0d)" height="31.6094" style="stroke:#A80036;stroke-width:1.5;" width="81" x="1368" y="53"/><text fill="#000000" font-family="sans-serif" font-size="14" lengthAdjust="spacing" textLength="67" x="1375" y="74.5332">:ReceipDB</text><rect fill="#FEFECE" filter="url(#f152tsh2gbbd0d)" height="31.6094" style="stroke:#A80036;stroke-width:1.5;" width="81" x="1368" y="592.5313"/><text fill="#000000" font-family="sans-serif" font-size="14" lengthAdjust="spacing" textLength="67" x="1375" y="614.0645">:ReceipDB</text><rect fill="#FFFFFF" filter="url(#f152tsh2gbbd0d)" height="475.9219" style="stroke:#A80036;stroke-width:1.0;" width="10" x="21" y="99.6094"/><rect fill="#FFFFFF" filter="url(#f152tsh2gbbd0d)" height="121.0547" style="stroke:#A80036;stroke-width:1.0;" width="10" x="323" y="121.9609"/><rect fill="#FFFFFF" filter="url(#f152tsh2gbbd0d)" height="225.1094" style="stroke:#A80036;stroke-width:1.0;" width="10" x="323" y="289.7188"/><rect fill="#FFFFFF" filter="url(#f152tsh2gbbd0d)" height="30.3516" style="stroke:#A80036;stroke-width:1.0;" width="10" x="323" y="545.1797"/><rect fill="#FFFFFF" filter="url(#f152tsh2gbbd0d)" height="60.3516" style="stroke:#A80036;stroke-width:1.0;" width="10" x="612" y="152.3125"/><rect fill="#FFFFFF" filter="url(#f152tsh2gbbd0d)" height="194.7578" style="stroke:#A80036;stroke-width:1.0;" width="10" x="612" y="289.7188"/><rect fill="#FFFFFF" filter="url(#f152tsh2gbbd0d)" height="30" style="stroke:#A80036;stroke-width:1.0;" width="10" x="768" y="182.6641"/><rect fill="#FFFFFF" filter="url(#f152tsh2gbbd0d)" height="134.0547" style="stroke:#A80036;stroke-width:1.0;" width="10" x="948.5" y="350.4219"/><rect fill="#FFFFFF" filter="url(#f152tsh2gbbd0d)" height="60.3516" style="stroke:#A80036;stroke-width:1.0;" width="10" x="1173.5" y="424.125"/><rect fill="#FFFFFF" filter="url(#f152tsh2gbbd0d)" height="30" style="stroke:#A80036;stroke-width:1.0;" width="10" x="1405.5" y="454.4766"/><polygon fill="#A80036" points="311,117.9609,321,121.9609,311,125.9609,315,121.9609" style="stroke:#A80036;stroke-width:1.0;"/><line style="stroke:#A80036;stroke-width:1.0;" x1="31" x2="317" y1="121.9609" y2="121.9609"/><text fill="#000000" font-family="sans-serif" font-size="13" font-weight="bold" lengthAdjust="spacing" textLength="7" x="38" y="117.1045">1</text><text fill="#000000" font-family="sans-serif" font-size="13" lengthAdjust="spacing" textLength="224" x="49" y="117.1045">Access the orders made by the clients</text><polygon fill="#A80036" points="600,148.3125,610,152.3125,600,156.3125,604,152.3125" style="stroke:#A80036;stroke-width:1.0;"/><line style="stroke:#A80036;stroke-width:1.0;" x1="333" x2="606" y1="152.3125" y2="152.3125"/><text fill="#000000" font-family="sans-serif" font-size="13" font-weight="bold" lengthAdjust="spacing" textLength="7" x="340" y="147.4561">2</text><text fill="#000000" font-family="sans-serif" font-size="13" lengthAdjust="spacing" textLength="84" x="351" y="147.4561">getReceipDB()</text><polygon fill="#A80036" points="756,178.6641,766,182.6641,756,186.6641,760,182.6641" style="stroke:#A80036;stroke-width:1.0;"/><line style="stroke:#A80036;stroke-width:1.0;" x1="622" x2="762" y1="182.6641" y2="182.6641"/><text fill="#000000" font-family="sans-serif" font-size="13" font-weight="bold" lengthAdjust="spacing" textLength="7" x="629" y="177.8076">3</text><text fill="#000000" font-family="sans-serif" font-size="13" lengthAdjust="spacing" textLength="84" x="640" y="177.8076">getReceipDB()</text><polygon fill="#A80036" points="42,239.0156,32,243.0156,42,247.0156,38,243.0156" style="stroke:#A80036;stroke-width:1.0;"/><line style="stroke:#A80036;stroke-width:1.0;stroke-dasharray:2.0,2.0;" x1="36" x2="327" y1="243.0156" y2="243.0156"/><text fill="#000000" font-family="sans-serif" font-size="13" font-weight="bold" lengthAdjust="spacing" textLength="7" x="48" y="238.1592">4</text><text fill="#000000" font-family="sans-serif" font-size="13" lengthAdjust="spacing" textLength="101" x="59" y="238.1592">Shows the orders</text><polygon fill="#A80036" points="311,285.7188,321,289.7188,311,293.7188,315,289.7188" style="stroke:#A80036;stroke-width:1.0;"/><line style="stroke:#A80036;stroke-width:1.0;" x1="31" x2="317" y1="289.7188" y2="289.7188"/><text fill="#000000" font-family="sans-serif" font-size="13" font-weight="bold" lengthAdjust="spacing" textLength="7" x="38" y="276.6865">5</text><text fill="#000000" font-family="sans-serif" font-size="13" lengthAdjust="spacing" textLength="201" x="49" y="268.5107">Assigns the orders to each Courier</text><text fill="#000000" font-family="sans-serif" font-size="13" lengthAdjust="spacing" textLength="141" x="49" y="284.8623">according to his payload</text><polygon fill="#A80036" points="600,316.0703,610,320.0703,600,324.0703,604,320.0703" style="stroke:#A80036;stroke-width:1.0;"/><line style="stroke:#A80036;stroke-width:1.0;stroke-dasharray:2.0,2.0;" x1="333" x2="606" y1="320.0703" y2="320.0703"/><text fill="#000000" font-family="sans-serif" font-size="13" font-weight="bold" lengthAdjust="spacing" textLength="7" x="340" y="315.2139">6</text><text fill="#000000" font-family="sans-serif" font-size="13" lengthAdjust="spacing" textLength="244" x="351" y="315.2139">checkClientOrderStatus(orderId, clientNIF)</text><polygon fill="#A80036" points="936.5,346.4219,946.5,350.4219,936.5,354.4219,940.5,350.4219" style="stroke:#A80036;stroke-width:1.0;"/><line style="stroke:#A80036;stroke-width:1.0;stroke-dasharray:2.0,2.0;" x1="622" x2="942.5" y1="350.4219" y2="350.4219"/><text fill="#000000" font-family="sans-serif" font-size="13" font-weight="bold" lengthAdjust="spacing" textLength="7" x="629" y="345.5654">7</text><text fill="#000000" font-family="sans-serif" font-size="13" lengthAdjust="spacing" textLength="244" x="640" y="345.5654">checkClientOrderStatus(orderId, clientNIF)</text><line style="stroke:#A80036;stroke-width:1.0;stroke-dasharray:2.0,2.0;" x1="958.5" x2="1000.5" y1="380.7734" y2="380.7734"/><line style="stroke:#A80036;stroke-width:1.0;stroke-dasharray:2.0,2.0;" x1="1000.5" x2="1000.5" y1="380.7734" y2="393.7734"/><line style="stroke:#A80036;stroke-width:1.0;stroke-dasharray:2.0,2.0;" x1="959.5" x2="1000.5" y1="393.7734" y2="393.7734"/><polygon fill="#A80036" points="969.5,389.7734,959.5,393.7734,969.5,397.7734,965.5,393.7734" style="stroke:#A80036;stroke-width:1.0;"/><text fill="#000000" font-family="sans-serif" font-size="13" font-weight="bold" lengthAdjust="spacing" textLength="7" x="965.5" y="375.917">8</text><text fill="#000000" font-family="sans-serif" font-size="13" lengthAdjust="spacing" textLength="166" x="976.5" y="375.917">checkClientOrders(clientNIF)</text><polygon fill="#A80036" points="1161.5,420.125,1171.5,424.125,1161.5,428.125,1165.5,424.125" style="stroke:#A80036;stroke-width:1.0;"/><line style="stroke:#A80036;stroke-width:1.0;stroke-dasharray:2.0,2.0;" x1="958.5" x2="1167.5" y1="424.125" y2="424.125"/><text fill="#000000" font-family="sans-serif" font-size="13" font-weight="bold" lengthAdjust="spacing" textLength="7" x="965.5" y="419.2686">9</text><text fill="#000000" font-family="sans-serif" font-size="13" lengthAdjust="spacing" textLength="185" x="976.5" y="419.2686">getReceiptByClientNif(clientNIF)</text><polygon fill="#A80036" points="1393.5,450.4766,1403.5,454.4766,1393.5,458.4766,1397.5,454.4766" style="stroke:#A80036;stroke-width:1.0;"/><line style="stroke:#A80036;stroke-width:1.0;stroke-dasharray:2.0,2.0;" x1="1183.5" x2="1399.5" y1="454.4766" y2="454.4766"/><text fill="#000000" font-family="sans-serif" font-size="13" font-weight="bold" lengthAdjust="spacing" textLength="14" x="1190.5" y="449.6201">10</text><text fill="#000000" font-family="sans-serif" font-size="13" lengthAdjust="spacing" textLength="185" x="1208.5" y="449.6201">getReceiptByClientNif(clientNIF)</text><polygon fill="#A80036" points="42,510.8281,32,514.8281,42,518.8281,38,514.8281" style="stroke:#A80036;stroke-width:1.0;"/><line style="stroke:#A80036;stroke-width:1.0;stroke-dasharray:2.0,2.0;" x1="36" x2="327" y1="514.8281" y2="514.8281"/><text fill="#000000" font-family="sans-serif" font-size="13" font-weight="bold" lengthAdjust="spacing" textLength="14" x="48" y="509.9717">11</text><text fill="#000000" font-family="sans-serif" font-size="13" lengthAdjust="spacing" textLength="250" x="66" y="509.9717">presents the data and asks for confirmation</text><polygon fill="#A80036" points="311,541.1797,321,545.1797,311,549.1797,315,545.1797" style="stroke:#A80036;stroke-width:1.0;"/><line style="stroke:#A80036;stroke-width:1.0;" x1="31" x2="317" y1="545.1797" y2="545.1797"/><text fill="#000000" font-family="sans-serif" font-size="13" font-weight="bold" lengthAdjust="spacing" textLength="14" x="38" y="540.3232">12</text><text fill="#000000" font-family="sans-serif" font-size="13" lengthAdjust="spacing" textLength="51" x="56" y="540.3232">Confirms</text><polygon fill="#A80036" points="37,571.5313,27,575.5313,37,579.5313,33,575.5313" style="stroke:#A80036;stroke-width:1.0;"/><line style="stroke:#A80036;stroke-width:1.0;stroke-dasharray:2.0,2.0;" x1="31" x2="327" y1="575.5313" y2="575.5313"/><text fill="#000000" font-family="sans-serif" font-size="13" font-weight="bold" lengthAdjust="spacing" textLength="14" x="43" y="570.6748">13</text><text fill="#000000" font-family="sans-serif" font-size="13" lengthAdjust="spacing" textLength="220" x="61" y="570.6748">Presents the success of the operation</text><!--MD5=[72b1902c728f517236aa75d88b42cbce]
@startuml
autonumber

actor "Client" as CLI
participant ":CheckOrderStatusUI" as UI
participant ":CheckOrderStatusController" as CTRL
participant ":Application" as SYS
participant ":Order" as O
participant ":OrderRegister" as OR
participant ":ReceipRegister" as RR
participant ":ReceipDB" as RRDB

activate CLI
CLI -> UI : Access the orders made by the clients
activate UI

UI -> CTRL : getReceipDB()
activate CTRL

CTRL -> SYS : getReceipDB()
activate SYS
deactivate SYS

deactivate CTRL


UI - -> CLI :Shows the orders

deactivate UI

CLI -> UI : Assigns the orders to each Courier \naccording to his payload
activate UI
activate  CTRL
UI - ->CTRL :checkClientOrderStatus(orderId, clientNIF)
CTRL - -> OR: checkClientOrderStatus(orderId, clientNIF)
activate OR
OR - ->OR:checkClientOrders(clientNIF)
OR- -> RR:getReceiptByClientNif(clientNIF)
activate RR
RR- ->RRDB:getReceiptByClientNif(clientNIF)

activate RRDB
deactivate CTRL

deactivate RRDB
deactivate RR
deactivate OR

UI - -> CLI : presents the data and asks for confirmation
deactivate UI

CLI -> UI : Confirms
activate UI
UI - -> CLI : Presents the success of the operation
deactivate UI


deactivate CTRL

deactivate UI

deactivate CLI
@enduml

PlantUML version 1.2021.00(Sun Jan 10 10:25:05 GMT 2021)
(GPL source distribution)
Java Runtime: OpenJDK Runtime Environment
JVM: OpenJDK 64-Bit Server VM
Default Encoding: Cp1252
Language: pt
Country: PT
--></g></svg>