<?xml version="1.0" encoding="UTF-8" standalone="no"?><svg xmlns="http://www.w3.org/2000/svg" xmlns:xlink="http://www.w3.org/1999/xlink" contentScriptType="application/ecmascript" contentStyleType="text/css" height="207px" preserveAspectRatio="none" style="width:1216px;height:207px;" version="1.1" viewBox="0 0 1216 207" width="1216px" zoomAndPan="magnify"><defs><filter height="300%" id="f10pqi6wgikmk1" width="300%" x="-1" y="-1"><feGaussianBlur result="blurOut" stdDeviation="2.0"/><feColorMatrix in="blurOut" result="blurOut2" type="matrix" values="0 0 0 0 0 0 0 0 0 0 0 0 0 0 0 0 0 0 .4 0"/><feOffset dx="4.0" dy="4.0" in="blurOut2" result="blurOut3"/><feBlend in="SourceGraphic" in2="blurOut3" mode="normal"/></filter></defs><g><!--MD5=[a910786d4a409c304237213f7df78b94]
class CheckOrderStatusUI--><rect codeLine="4" fill="#FEFECE" filter="url(#f10pqi6wgikmk1)" height="48" id="CheckOrderStatusUI" style="stroke:#A80036;stroke-width:1.5;" width="145" x="7" y="70"/><ellipse cx="22" cy="86" fill="#ADD1B2" rx="11" ry="11" style="stroke:#A80036;stroke-width:1.0;"/><path d="M24,82.5 Q24.2031,82 24.4375,81.75 Q24.6719,81.5 24.9375,81.5 Q25.4063,81.5 25.7031,81.7813 Q26,82.0625 26,82.7188 L26,84.2813 Q26,84.9375 25.7188,85.2188 Q25.4375,85.5 25,85.5 Q24.6094,85.5 24.3594,85.3281 Q24.1094,85.1563 24,84.7031 Q23.9531,84.3906 23.7813,84.2188 Q23.4688,83.8906 22.9063,83.7031 Q22.3438,83.5 21.7813,83.5 Q21.0781,83.5 20.4844,83.7813 Q19.9063,84.0625 19.4531,84.6875 Q19,85.3125 19,86.1719 L19,87.0938 Q19,88.125 19.8438,88.8125 Q20.6875,89.5 22.1875,89.5 Q23.0781,89.5 23.7031,89.2969 Q24.0625,89.1875 24.4688,88.8281 Q24.7344,88.625 24.875,88.5625 Q25.0156,88.5 25.1875,88.5 Q25.5156,88.5 25.75,88.7656 Q26,89.0156 26,89.375 Q26,89.7188 25.6563,90.125 Q25.1563,90.7188 24.3594,91.0469 Q23.3125,91.5 22.0313,91.5 Q20.5313,91.5 19.3281,90.9063 Q18.3594,90.4375 17.6719,89.4219 Q17,88.4063 17,87.2031 L17,86.1094 Q17,84.8594 17.5938,83.7656 Q18.2031,82.6719 19.25,82.0938 Q20.3125,81.5 21.5,81.5 Q22.2188,81.5 22.8438,81.75 Q23.4688,82 24,82.5 Z " fill="#000000"/><text fill="#000000" font-family="sans-serif" font-size="12" lengthAdjust="spacing" textLength="113" x="36" y="90.9102">CheckOrderStatusUI</text><line style="stroke:#A80036;stroke-width:1.5;" x1="8" x2="151" y1="102" y2="102"/><line style="stroke:#A80036;stroke-width:1.5;" x1="8" x2="151" y1="110" y2="110"/><!--MD5=[61b48618aecc2d5babd954237e9b6210]
class CheckOrderStatusController--><rect codeLine="7" fill="#FEFECE" filter="url(#f10pqi6wgikmk1)" height="75.6719" id="CheckOrderStatusController" style="stroke:#A80036;stroke-width:1.5;" width="228" x="212" y="56"/><ellipse cx="245.45" cy="72" fill="#ADD1B2" rx="11" ry="11" style="stroke:#A80036;stroke-width:1.0;"/><path d="M247.45,68.5 Q247.6531,68 247.8875,67.75 Q248.1219,67.5 248.3875,67.5 Q248.8563,67.5 249.1531,67.7813 Q249.45,68.0625 249.45,68.7188 L249.45,70.2813 Q249.45,70.9375 249.1688,71.2188 Q248.8875,71.5 248.45,71.5 Q248.0594,71.5 247.8094,71.3281 Q247.5594,71.1563 247.45,70.7031 Q247.4031,70.3906 247.2313,70.2188 Q246.9188,69.8906 246.3563,69.7031 Q245.7938,69.5 245.2313,69.5 Q244.5281,69.5 243.9344,69.7813 Q243.3563,70.0625 242.9031,70.6875 Q242.45,71.3125 242.45,72.1719 L242.45,73.0938 Q242.45,74.125 243.2938,74.8125 Q244.1375,75.5 245.6375,75.5 Q246.5281,75.5 247.1531,75.2969 Q247.5125,75.1875 247.9188,74.8281 Q248.1844,74.625 248.325,74.5625 Q248.4656,74.5 248.6375,74.5 Q248.9656,74.5 249.2,74.7656 Q249.45,75.0156 249.45,75.375 Q249.45,75.7188 249.1063,76.125 Q248.6063,76.7188 247.8094,77.0469 Q246.7625,77.5 245.4813,77.5 Q243.9813,77.5 242.7781,76.9063 Q241.8094,76.4375 241.1219,75.4219 Q240.45,74.4063 240.45,73.2031 L240.45,72.1094 Q240.45,70.8594 241.0438,69.7656 Q241.6531,68.6719 242.7,68.0938 Q243.7625,67.5 244.95,67.5 Q245.6688,67.5 246.2938,67.75 Q246.9188,68 247.45,68.5 Z " fill="#000000"/><text fill="#000000" font-family="sans-serif" font-size="12" lengthAdjust="spacing" textLength="155" x="263.55" y="76.9102">CheckOrderStatusController</text><line style="stroke:#A80036;stroke-width:1.5;" x1="213" x2="439" y1="88" y2="88"/><line style="stroke:#A80036;stroke-width:1.5;" x1="213" x2="439" y1="96" y2="96"/><ellipse cx="223" cy="107" fill="#84BE84" rx="3" ry="3" style="stroke:#038048;stroke-width:1.0;"/><text fill="#000000" font-family="sans-serif" font-size="11" lengthAdjust="spacing" textLength="70" x="232" y="111.4189">getReceipDB()</text><ellipse cx="223" cy="120.8359" fill="#84BE84" rx="3" ry="3" style="stroke:#038048;stroke-width:1.0;"/><text fill="#000000" font-family="sans-serif" font-size="11" lengthAdjust="spacing" textLength="202" x="232" y="125.2549">checkClientOrderStatus(orderId, clientNIF)</text><!--MD5=[0b4e4b4980470ea387cc45de9bd14b5b]
class Application--><rect codeLine="12" fill="#FEFECE" filter="url(#f10pqi6wgikmk1)" height="61.8359" id="Application" style="stroke:#A80036;stroke-width:1.5;" width="96" x="566" y="7"/><ellipse cx="582.8" cy="23" fill="#ADD1B2" rx="11" ry="11" style="stroke:#A80036;stroke-width:1.0;"/><path d="M584.8,19.5 Q585.0031,19 585.2375,18.75 Q585.4719,18.5 585.7375,18.5 Q586.2063,18.5 586.5031,18.7813 Q586.8,19.0625 586.8,19.7188 L586.8,21.2813 Q586.8,21.9375 586.5188,22.2188 Q586.2375,22.5 585.8,22.5 Q585.4094,22.5 585.1594,22.3281 Q584.9094,22.1563 584.8,21.7031 Q584.7531,21.3906 584.5813,21.2188 Q584.2688,20.8906 583.7063,20.7031 Q583.1438,20.5 582.5813,20.5 Q581.8781,20.5 581.2844,20.7813 Q580.7063,21.0625 580.2531,21.6875 Q579.8,22.3125 579.8,23.1719 L579.8,24.0938 Q579.8,25.125 580.6438,25.8125 Q581.4875,26.5 582.9875,26.5 Q583.8781,26.5 584.5031,26.2969 Q584.8625,26.1875 585.2688,25.8281 Q585.5344,25.625 585.675,25.5625 Q585.8156,25.5 585.9875,25.5 Q586.3156,25.5 586.55,25.7656 Q586.8,26.0156 586.8,26.375 Q586.8,26.7188 586.4563,27.125 Q585.9563,27.7188 585.1594,28.0469 Q584.1125,28.5 582.8313,28.5 Q581.3313,28.5 580.1281,27.9063 Q579.1594,27.4375 578.4719,26.4219 Q577.8,25.4063 577.8,24.2031 L577.8,23.1094 Q577.8,21.8594 578.3938,20.7656 Q579.0031,19.6719 580.05,19.0938 Q581.1125,18.5 582.3,18.5 Q583.0188,18.5 583.6438,18.75 Q584.2688,19 584.8,19.5 Z " fill="#000000"/><text fill="#000000" font-family="sans-serif" font-size="12" lengthAdjust="spacing" textLength="60" x="597.2" y="27.9102">Application</text><line style="stroke:#A80036;stroke-width:1.5;" x1="567" x2="661" y1="39" y2="39"/><line style="stroke:#A80036;stroke-width:1.5;" x1="567" x2="661" y1="47" y2="47"/><ellipse cx="577" cy="58" fill="#84BE84" rx="3" ry="3" style="stroke:#038048;stroke-width:1.0;"/><text fill="#000000" font-family="sans-serif" font-size="11" lengthAdjust="spacing" textLength="70" x="586" y="62.4189">getReceipDB()</text><!--MD5=[84331b106c8604a882e9882ccd4c70e5]
class OrderRegister--><rect codeLine="16" fill="#FEFECE" filter="url(#f10pqi6wgikmk1)" height="89.5078" id="OrderRegister" style="stroke:#A80036;stroke-width:1.5;" width="228" x="500" y="104"/><ellipse cx="570.75" cy="120" fill="#ADD1B2" rx="11" ry="11" style="stroke:#A80036;stroke-width:1.0;"/><path d="M572.75,116.5 Q572.9531,116 573.1875,115.75 Q573.4219,115.5 573.6875,115.5 Q574.1563,115.5 574.4531,115.7813 Q574.75,116.0625 574.75,116.7188 L574.75,118.2813 Q574.75,118.9375 574.4688,119.2188 Q574.1875,119.5 573.75,119.5 Q573.3594,119.5 573.1094,119.3281 Q572.8594,119.1563 572.75,118.7031 Q572.7031,118.3906 572.5313,118.2188 Q572.2188,117.8906 571.6563,117.7031 Q571.0938,117.5 570.5313,117.5 Q569.8281,117.5 569.2344,117.7813 Q568.6563,118.0625 568.2031,118.6875 Q567.75,119.3125 567.75,120.1719 L567.75,121.0938 Q567.75,122.125 568.5938,122.8125 Q569.4375,123.5 570.9375,123.5 Q571.8281,123.5 572.4531,123.2969 Q572.8125,123.1875 573.2188,122.8281 Q573.4844,122.625 573.625,122.5625 Q573.7656,122.5 573.9375,122.5 Q574.2656,122.5 574.5,122.7656 Q574.75,123.0156 574.75,123.375 Q574.75,123.7188 574.4063,124.125 Q573.9063,124.7188 573.1094,125.0469 Q572.0625,125.5 570.7813,125.5 Q569.2813,125.5 568.0781,124.9063 Q567.1094,124.4375 566.4219,123.4219 Q565.75,122.4063 565.75,121.2031 L565.75,120.1094 Q565.75,118.8594 566.3438,117.7656 Q566.9531,116.6719 568,116.0938 Q569.0625,115.5 570.25,115.5 Q570.9688,115.5 571.5938,115.75 Q572.2188,116 572.75,116.5 Z " fill="#000000"/><text fill="#000000" font-family="sans-serif" font-size="12" lengthAdjust="spacing" textLength="78" x="591.25" y="124.9102">OrderRegister</text><line style="stroke:#A80036;stroke-width:1.5;" x1="501" x2="727" y1="136" y2="136"/><line style="stroke:#A80036;stroke-width:1.5;" x1="501" x2="727" y1="144" y2="144"/><ellipse cx="511" cy="155" fill="#84BE84" rx="3" ry="3" style="stroke:#038048;stroke-width:1.0;"/><text fill="#000000" font-family="sans-serif" font-size="11" lengthAdjust="spacing" textLength="58" x="520" y="159.4189">getCourier()</text><ellipse cx="511" cy="168.8359" fill="#84BE84" rx="3" ry="3" style="stroke:#038048;stroke-width:1.0;"/><text fill="#000000" font-family="sans-serif" font-size="11" lengthAdjust="spacing" textLength="202" x="520" y="173.2549">checkClientOrderStatus(orderId, clientNIF)</text><ellipse cx="511" cy="182.6719" fill="#84BE84" rx="3" ry="3" style="stroke:#038048;stroke-width:1.0;"/><text fill="#000000" font-family="sans-serif" font-size="11" lengthAdjust="spacing" textLength="137" x="520" y="187.0908">checkClientOrders(clientNIF)</text><!--MD5=[278a4e5c7b52dbfbe515845ad959691f]
class ReceipRegister--><rect codeLine="24" fill="#FEFECE" filter="url(#f10pqi6wgikmk1)" height="61.8359" id="ReceipRegister" style="stroke:#A80036;stroke-width:1.5;" width="177" x="788" y="118"/><ellipse cx="829.55" cy="134" fill="#ADD1B2" rx="11" ry="11" style="stroke:#A80036;stroke-width:1.0;"/><path d="M831.55,130.5 Q831.7531,130 831.9875,129.75 Q832.2219,129.5 832.4875,129.5 Q832.9563,129.5 833.2531,129.7813 Q833.55,130.0625 833.55,130.7188 L833.55,132.2813 Q833.55,132.9375 833.2688,133.2188 Q832.9875,133.5 832.55,133.5 Q832.1594,133.5 831.9094,133.3281 Q831.6594,133.1563 831.55,132.7031 Q831.5031,132.3906 831.3313,132.2188 Q831.0188,131.8906 830.4563,131.7031 Q829.8938,131.5 829.3313,131.5 Q828.6281,131.5 828.0344,131.7813 Q827.4563,132.0625 827.0031,132.6875 Q826.55,133.3125 826.55,134.1719 L826.55,135.0938 Q826.55,136.125 827.3938,136.8125 Q828.2375,137.5 829.7375,137.5 Q830.6281,137.5 831.2531,137.2969 Q831.6125,137.1875 832.0188,136.8281 Q832.2844,136.625 832.425,136.5625 Q832.5656,136.5 832.7375,136.5 Q833.0656,136.5 833.3,136.7656 Q833.55,137.0156 833.55,137.375 Q833.55,137.7188 833.2063,138.125 Q832.7063,138.7188 831.9094,139.0469 Q830.8625,139.5 829.5813,139.5 Q828.0813,139.5 826.8781,138.9063 Q825.9094,138.4375 825.2219,137.4219 Q824.55,136.4063 824.55,135.2031 L824.55,134.1094 Q824.55,132.8594 825.1438,131.7656 Q825.7531,130.6719 826.8,130.0938 Q827.8625,129.5 829.05,129.5 Q829.7688,129.5 830.3938,129.75 Q831.0188,130 831.55,130.5 Z " fill="#000000"/><text fill="#000000" font-family="sans-serif" font-size="12" lengthAdjust="spacing" textLength="86" x="849.45" y="138.9102">ReceipRegister</text><line style="stroke:#A80036;stroke-width:1.5;" x1="789" x2="964" y1="150" y2="150"/><line style="stroke:#A80036;stroke-width:1.5;" x1="789" x2="964" y1="158" y2="158"/><ellipse cx="799" cy="169" fill="#84BE84" rx="3" ry="3" style="stroke:#038048;stroke-width:1.0;"/><text fill="#000000" font-family="sans-serif" font-size="11" lengthAdjust="spacing" textLength="151" x="808" y="173.4189">getReceiptByClientNif(clientNIF)</text><!--MD5=[ecb8feda0c201d3470b88ad042e40128]
class ReceipDB--><rect codeLine="29" fill="#FEFECE" filter="url(#f10pqi6wgikmk1)" height="61.8359" id="ReceipDB" style="stroke:#A80036;stroke-width:1.5;" width="177" x="1025" y="118"/><ellipse cx="1081.25" cy="134" fill="#ADD1B2" rx="11" ry="11" style="stroke:#A80036;stroke-width:1.0;"/><path d="M1083.25,130.5 Q1083.4531,130 1083.6875,129.75 Q1083.9219,129.5 1084.1875,129.5 Q1084.6563,129.5 1084.9531,129.7813 Q1085.25,130.0625 1085.25,130.7188 L1085.25,132.2813 Q1085.25,132.9375 1084.9688,133.2188 Q1084.6875,133.5 1084.25,133.5 Q1083.8594,133.5 1083.6094,133.3281 Q1083.3594,133.1563 1083.25,132.7031 Q1083.2031,132.3906 1083.0313,132.2188 Q1082.7188,131.8906 1082.1563,131.7031 Q1081.5938,131.5 1081.0313,131.5 Q1080.3281,131.5 1079.7344,131.7813 Q1079.1563,132.0625 1078.7031,132.6875 Q1078.25,133.3125 1078.25,134.1719 L1078.25,135.0938 Q1078.25,136.125 1079.0938,136.8125 Q1079.9375,137.5 1081.4375,137.5 Q1082.3281,137.5 1082.9531,137.2969 Q1083.3125,137.1875 1083.7188,136.8281 Q1083.9844,136.625 1084.125,136.5625 Q1084.2656,136.5 1084.4375,136.5 Q1084.7656,136.5 1085,136.7656 Q1085.25,137.0156 1085.25,137.375 Q1085.25,137.7188 1084.9063,138.125 Q1084.4063,138.7188 1083.6094,139.0469 Q1082.5625,139.5 1081.2813,139.5 Q1079.7813,139.5 1078.5781,138.9063 Q1077.6094,138.4375 1076.9219,137.4219 Q1076.25,136.4063 1076.25,135.2031 L1076.25,134.1094 Q1076.25,132.8594 1076.8438,131.7656 Q1077.4531,130.6719 1078.5,130.0938 Q1079.5625,129.5 1080.75,129.5 Q1081.4688,129.5 1082.0938,129.75 Q1082.7188,130 1083.25,130.5 Z " fill="#000000"/><text fill="#000000" font-family="sans-serif" font-size="12" lengthAdjust="spacing" textLength="56" x="1101.75" y="138.9102">ReceipDB</text><line style="stroke:#A80036;stroke-width:1.5;" x1="1026" x2="1201" y1="150" y2="150"/><line style="stroke:#A80036;stroke-width:1.5;" x1="1026" x2="1201" y1="158" y2="158"/><ellipse cx="1036" cy="169" fill="#84BE84" rx="3" ry="3" style="stroke:#038048;stroke-width:1.0;"/><text fill="#000000" font-family="sans-serif" font-size="11" lengthAdjust="spacing" textLength="151" x="1045" y="173.4189">getReceiptByClientNif(clientNIF)</text><!--MD5=[5e3cb930e677138c1f93c3d642cba1f3]
link CheckOrderStatusUI to CheckOrderStatusController--><path codeLine="35" d="M152.21,94 C169.34,94 188.07,94 206.69,94 " fill="none" id="CheckOrderStatusUI-to-CheckOrderStatusController" style="stroke:#A80036;stroke-width:1.0;stroke-dasharray:7.0,7.0;"/><polygon fill="#A80036" points="211.93,94,202.93,90,206.93,94,202.93,98,211.93,94" style="stroke:#A80036;stroke-width:1.0;"/><!--MD5=[fca9ab042850c833f8d22b88563acdbb]
link CheckOrderStatusController to OrderRegister--><path codeLine="36" d="M440.03,115.74 C458.02,119.2 476.66,122.78 494.76,126.26 " fill="none" id="CheckOrderStatusController-to-OrderRegister" style="stroke:#A80036;stroke-width:1.0;stroke-dasharray:7.0,7.0;"/><polygon fill="#A80036" points="499.85,127.24,491.7679,121.6115,494.9401,126.2952,490.2563,129.4674,499.85,127.24" style="stroke:#A80036;stroke-width:1.0;"/><!--MD5=[4ff21ee9cd71f39da35c62ee81b34dab]
link CheckOrderStatusController to Application--><path codeLine="37" d="M440.03,71.87 C481.68,63.71 526.88,54.86 560.62,48.26 " fill="none" id="CheckOrderStatusController-to-Application" style="stroke:#A80036;stroke-width:1.0;stroke-dasharray:7.0,7.0;"/><polygon fill="#A80036" points="565.94,47.21,556.3401,45.0096,561.0327,48.1686,557.8738,52.8612,565.94,47.21" style="stroke:#A80036;stroke-width:1.0;"/><!--MD5=[73468ac31a310c04e9808f085c066e6d]
link OrderRegister to ReceipRegister--><path codeLine="38" d="M728.12,149 C746.29,149 764.91,149 782.54,149 " fill="none" id="OrderRegister-to-ReceipRegister" style="stroke:#A80036;stroke-width:1.0;stroke-dasharray:7.0,7.0;"/><polygon fill="#A80036" points="787.97,149,778.97,145,782.97,149,778.97,153,787.97,149" style="stroke:#A80036;stroke-width:1.0;"/><!--MD5=[d86b6a520797edca2464dbbf89b0de1f]
link ReceipRegister to ReceipDB--><path codeLine="39" d="M965.01,149 C982.9,149 1001.78,149 1019.85,149 " fill="none" id="ReceipRegister-to-ReceipDB" style="stroke:#A80036;stroke-width:1.0;stroke-dasharray:7.0,7.0;"/><polygon fill="#A80036" points="1024.92,149,1015.92,145,1019.92,149,1015.92,153,1024.92,149" style="stroke:#A80036;stroke-width:1.0;"/><!--MD5=[468b4faa1aad72fdc45414bd7bb529db]
@startuml

left to right direction

class CheckOrderStatusUI {
}

class CheckOrderStatusController {
+getReceipDB()
+checkClientOrderStatus(orderId, clientNIF)
}

class Application {
  +getReceipDB()
}

class OrderRegister {
    +getCourier()
    +checkClientOrderStatus(orderId, clientNIF)
    +checkClientOrders(clientNIF)
}



class ReceipRegister {
    +getReceiptByClientNif(clientNIF)

}

class ReceipDB {
    +getReceiptByClientNif(clientNIF)

}


CheckOrderStatusUI ..> CheckOrderStatusController
CheckOrderStatusController ..> OrderRegister
CheckOrderStatusController ..> Application
OrderRegister ..>ReceipRegister
ReceipRegister ..>ReceipDB


@enduml

PlantUML version 1.2021.00(Sun Jan 10 10:25:05 GMT 2021)
(GPL source distribution)
Java Runtime: OpenJDK Runtime Environment
JVM: OpenJDK 64-Bit Server VM
Default Encoding: Cp1252
Language: pt
Country: PT
--></g></svg>