<?xml version="1.0" encoding="UTF-8" standalone="no"?><svg xmlns="http://www.w3.org/2000/svg" xmlns:xlink="http://www.w3.org/1999/xlink" contentScriptType="application/ecmascript" contentStyleType="text/css" height="316px" preserveAspectRatio="none" style="width:424px;height:316px;" version="1.1" viewBox="0 0 424 316" width="424px" zoomAndPan="magnify"><defs><filter height="300%" id="f1ouzweydvlmt8" width="300%" x="-1" y="-1"><feGaussianBlur result="blurOut" stdDeviation="2.0"/><feColorMatrix in="blurOut" result="blurOut2" type="matrix" values="0 0 0 0 0 0 0 0 0 0 0 0 0 0 0 0 0 0 .4 0"/><feOffset dx="4.0" dy="4.0" in="blurOut2" result="blurOut3"/><feBlend in="SourceGraphic" in2="blurOut3" mode="normal"/></filter></defs><g><rect fill="#FFFFFF" filter="url(#f1ouzweydvlmt8)" height="113.4063" style="stroke:#A80036;stroke-width:1.0;" width="10" x="21" y="99.6094"/><rect fill="#FFFFFF" filter="url(#f1ouzweydvlmt8)" height="30.3516" style="stroke:#A80036;stroke-width:1.0;" width="10" x="364" y="121.9609"/><rect fill="#FFFFFF" filter="url(#f1ouzweydvlmt8)" height="30.3516" style="stroke:#A80036;stroke-width:1.0;" width="10" x="364" y="182.6641"/><line style="stroke:#A80036;stroke-width:1.0;stroke-dasharray:5.0,5.0;" x1="26" x2="26" y1="89.6094" y2="231.0156"/><line style="stroke:#A80036;stroke-width:1.0;stroke-dasharray:5.0,5.0;" x1="368.5" x2="368.5" y1="89.6094" y2="231.0156"/><text fill="#000000" font-family="sans-serif" font-size="14" lengthAdjust="spacing" textLength="36" x="5" y="86.5332">Client</text><ellipse cx="26" cy="15" fill="#FEFECE" filter="url(#f1ouzweydvlmt8)" rx="8" ry="8" style="stroke:#A80036;stroke-width:2.0;"/><path d="M26,23 L26,50 M13,31 L39,31 M26,50 L13,65 M26,50 L39,65 " fill="none" filter="url(#f1ouzweydvlmt8)" style="stroke:#A80036;stroke-width:2.0;"/><text fill="#000000" font-family="sans-serif" font-size="14" lengthAdjust="spacing" textLength="36" x="5" y="244.5488">Client</text><ellipse cx="26" cy="257.625" fill="#FEFECE" filter="url(#f1ouzweydvlmt8)" rx="8" ry="8" style="stroke:#A80036;stroke-width:2.0;"/><path d="M26,265.625 L26,292.625 M13,273.625 L39,273.625 M26,292.625 L13,307.625 M26,292.625 L39,307.625 " fill="none" filter="url(#f1ouzweydvlmt8)" style="stroke:#A80036;stroke-width:2.0;"/><rect fill="#FEFECE" filter="url(#f1ouzweydvlmt8)" height="31.6094" style="stroke:#A80036;stroke-width:1.5;" width="87" x="323.5" y="53"/><text fill="#000000" font-family="sans-serif" font-size="14" lengthAdjust="spacing" textLength="73" x="330.5" y="74.5332">:Application</text><rect fill="#FEFECE" filter="url(#f1ouzweydvlmt8)" height="31.6094" style="stroke:#A80036;stroke-width:1.5;" width="87" x="323.5" y="230.0156"/><text fill="#000000" font-family="sans-serif" font-size="14" lengthAdjust="spacing" textLength="73" x="330.5" y="251.5488">:Application</text><rect fill="#FFFFFF" filter="url(#f1ouzweydvlmt8)" height="113.4063" style="stroke:#A80036;stroke-width:1.0;" width="10" x="21" y="99.6094"/><rect fill="#FFFFFF" filter="url(#f1ouzweydvlmt8)" height="30.3516" style="stroke:#A80036;stroke-width:1.0;" width="10" x="364" y="121.9609"/><rect fill="#FFFFFF" filter="url(#f1ouzweydvlmt8)" height="30.3516" style="stroke:#A80036;stroke-width:1.0;" width="10" x="364" y="182.6641"/><polygon fill="#A80036" points="352,117.9609,362,121.9609,352,125.9609,356,121.9609" style="stroke:#A80036;stroke-width:1.0;"/><line style="stroke:#A80036;stroke-width:1.0;" x1="31" x2="358" y1="121.9609" y2="121.9609"/><text fill="#000000" font-family="sans-serif" font-size="13" font-weight="bold" lengthAdjust="spacing" textLength="7" x="38" y="117.1045">1</text><text fill="#000000" font-family="sans-serif" font-size="13" lengthAdjust="spacing" textLength="186" x="49" y="117.1045">Access the orders previus made</text><polygon fill="#A80036" points="42,148.3125,32,152.3125,42,156.3125,38,152.3125" style="stroke:#A80036;stroke-width:1.0;"/><line style="stroke:#A80036;stroke-width:1.0;stroke-dasharray:2.0,2.0;" x1="36" x2="368" y1="152.3125" y2="152.3125"/><text fill="#000000" font-family="sans-serif" font-size="13" font-weight="bold" lengthAdjust="spacing" textLength="7" x="48" y="147.4561">2</text><text fill="#000000" font-family="sans-serif" font-size="13" lengthAdjust="spacing" textLength="101" x="59" y="147.4561">Shows the orders</text><polygon fill="#A80036" points="352,178.6641,362,182.6641,352,186.6641,356,182.6641" style="stroke:#A80036;stroke-width:1.0;"/><line style="stroke:#A80036;stroke-width:1.0;" x1="31" x2="358" y1="182.6641" y2="182.6641"/><text fill="#000000" font-family="sans-serif" font-size="13" font-weight="bold" lengthAdjust="spacing" textLength="7" x="38" y="177.8076">3</text><text fill="#000000" font-family="sans-serif" font-size="13" lengthAdjust="spacing" textLength="69" x="49" y="177.8076">Choose one</text><polygon fill="#A80036" points="37,209.0156,27,213.0156,37,217.0156,33,213.0156" style="stroke:#A80036;stroke-width:1.0;"/><line style="stroke:#A80036;stroke-width:1.0;stroke-dasharray:2.0,2.0;" x1="31" x2="368" y1="213.0156" y2="213.0156"/><text fill="#000000" font-family="sans-serif" font-size="13" font-weight="bold" lengthAdjust="spacing" textLength="7" x="43" y="208.1592">4</text><text fill="#000000" font-family="sans-serif" font-size="13" lengthAdjust="spacing" textLength="298" x="54" y="208.1592">presents the status and the succes of the operation</text><!--MD5=[5cb5ebb945eb7786090a4cc221276799]
@startuml
autonumber
actor "Client" as Pharmacy
participant ":Application" as STM
activate Pharmacy

Pharmacy-> STM :Access the orders previus made
activate STM
STM - -> Pharmacy :Shows the orders
deactivate STM

Pharmacy-> STM :Choose one
activate STM
STM - -> Pharmacy :presents the status and the succes of the operation
deactivate STM


deactivate Pharmacy
@enduml

PlantUML version 1.2021.00(Sun Jan 10 10:25:05 GMT 2021)
(GPL source distribution)
Java Runtime: OpenJDK Runtime Environment
JVM: OpenJDK 64-Bit Server VM
Default Encoding: Cp1252
Language: pt
Country: PT
--></g></svg>