<?xml version="1.0" encoding="UTF-8" standalone="no"?><svg xmlns="http://www.w3.org/2000/svg" xmlns:xlink="http://www.w3.org/1999/xlink" contentScriptType="application/ecmascript" contentStyleType="text/css" height="172px" preserveAspectRatio="none" style="width:1187px;height:172px;" version="1.1" viewBox="0 0 1187 172" width="1187px" zoomAndPan="magnify">
    <defs>
        <filter height="300%" id="f10yts7t3ebro4" width="300%" x="-1" y="-1">
            <feGaussianBlur result="blurOut" stdDeviation="2.0" />
            <feColorMatrix in="blurOut" result="blurOut2" type="matrix" values="0 0 0 0 0 0 0 0 0 0 0 0 0 0 0 0 0 0 .4 0" />
            <feOffset dx="4.0" dy="4.0" in="blurOut2" result="blurOut3" />
            <feBlend in="SourceGraphic" in2="blurOut3" mode="normal" />
        </filter>
    </defs>
    <g>
        <!--MD5=[c5c2af79a5687f462737ae62d7d53573]
class ConfirmDeliveryUI-->
        <rect codeLine="4" fill="#FEFECE" filter="url(#f10yts7t3ebro4)" height="48" id="ConfirmDeliveryUI" style="stroke:#A80036;stroke-width:1.5;" width="131" x="7" y="92" />
        <ellipse cx="22" cy="108" fill="#ADD1B2" rx="11" ry="11" style="stroke:#A80036;stroke-width:1.0;" />
        <path d="M24.7656,103.875 Q24.9219,103.6563 25.1094,103.5469 Q25.2969,103.4375 25.5156,103.4375 Q25.8906,103.4375 26.125,103.6953 Q26.3594,103.9531 26.3594,104.5625 L26.3594,106.0156 Q26.3594,106.625 26.125,106.8906 Q25.8906,107.1563 25.5156,107.1563 Q25.1719,107.1563 24.9688,106.9531 Q24.7656,106.7656 24.6563,106.25 Q24.6094,105.8906 24.4219,105.7031 Q24.0938,105.3281 23.4844,105.1094 Q22.875,104.8906 22.25,104.8906 Q21.4844,104.8906 20.8516,105.2188 Q20.2188,105.5469 19.7266,106.2969 Q19.2344,107.0469 19.2344,108.0781 L19.2344,109.1719 Q19.2344,110.4063 20.125,111.2266 Q21.0156,112.0469 22.6094,112.0469 Q23.5469,112.0469 24.2031,111.7969 Q24.5938,111.6406 25.0156,111.2031 Q25.2813,110.9375 25.4297,110.8594 Q25.5781,110.7813 25.7813,110.7813 Q26.1094,110.7813 26.3672,111.0391 Q26.625,111.2969 26.625,111.6406 Q26.625,111.9844 26.2813,112.3906 Q25.7813,112.9688 24.9844,113.2969 Q23.9063,113.75 22.6094,113.75 Q21.0938,113.75 19.8906,113.125 Q18.9063,112.625 18.2188,111.5547 Q17.5313,110.4844 17.5313,109.2031 L17.5313,108.0469 Q17.5313,106.7188 18.1484,105.5703 Q18.7656,104.4219 19.8594,103.8047 Q20.9531,103.1875 22.1875,103.1875 Q22.9219,103.1875 23.5703,103.3516 Q24.2188,103.5156 24.7656,103.875 Z " fill="#000000" /><text fill="#000000" font-family="sans-serif" font-size="12" lengthAdjust="spacingAndGlyphs" textLength="99" x="36" y="112.9102">ConfirmDeliveryUI</text>
        <line style="stroke:#A80036;stroke-width:1.5;" x1="8" x2="137" y1="124" y2="124" />
        <line style="stroke:#A80036;stroke-width:1.5;" x1="8" x2="137" y1="132" y2="132" />
        <!--MD5=[e61dbe356e69fed65c2b3a3141c70f92]
class ConfirmDeliveryController-->
        <rect codeLine="7" fill="#FEFECE" filter="url(#f10yts7t3ebro4)" height="75.6719" id="ConfirmDeliveryController" style="stroke:#A80036;stroke-width:1.5;" width="173" x="199" y="78" />
        <ellipse cx="214" cy="94" fill="#ADD1B2" rx="11" ry="11" style="stroke:#A80036;stroke-width:1.0;" />
        <path d="M216.7656,89.875 Q216.9219,89.6563 217.1094,89.5469 Q217.2969,89.4375 217.5156,89.4375 Q217.8906,89.4375 218.125,89.6953 Q218.3594,89.9531 218.3594,90.5625 L218.3594,92.0156 Q218.3594,92.625 218.125,92.8906 Q217.8906,93.1563 217.5156,93.1563 Q217.1719,93.1563 216.9688,92.9531 Q216.7656,92.7656 216.6563,92.25 Q216.6094,91.8906 216.4219,91.7031 Q216.0938,91.3281 215.4844,91.1094 Q214.875,90.8906 214.25,90.8906 Q213.4844,90.8906 212.8516,91.2188 Q212.2188,91.5469 211.7266,92.2969 Q211.2344,93.0469 211.2344,94.0781 L211.2344,95.1719 Q211.2344,96.4063 212.125,97.2266 Q213.0156,98.0469 214.6094,98.0469 Q215.5469,98.0469 216.2031,97.7969 Q216.5938,97.6406 217.0156,97.2031 Q217.2813,96.9375 217.4297,96.8594 Q217.5781,96.7813 217.7813,96.7813 Q218.1094,96.7813 218.3672,97.0391 Q218.625,97.2969 218.625,97.6406 Q218.625,97.9844 218.2813,98.3906 Q217.7813,98.9688 216.9844,99.2969 Q215.9063,99.75 214.6094,99.75 Q213.0938,99.75 211.8906,99.125 Q210.9063,98.625 210.2188,97.5547 Q209.5313,96.4844 209.5313,95.2031 L209.5313,94.0469 Q209.5313,92.7188 210.1484,91.5703 Q210.7656,90.4219 211.8594,89.8047 Q212.9531,89.1875 214.1875,89.1875 Q214.9219,89.1875 215.5703,89.3516 Q216.2188,89.5156 216.7656,89.875 Z " fill="#000000" /><text fill="#000000" font-family="sans-serif" font-size="12" lengthAdjust="spacingAndGlyphs" textLength="141" x="228" y="98.9102">ConfirmDeliveryController</text>
        <line style="stroke:#A80036;stroke-width:1.5;" x1="200" x2="371" y1="110" y2="110" />
        <line style="stroke:#A80036;stroke-width:1.5;" x1="200" x2="371" y1="118" y2="118" /><text fill="#000000" font-family="sans-serif" font-size="11" lengthAdjust="spacingAndGlyphs" textLength="79" x="205" y="133.4189">getOrders(user)</text><text fill="#000000" font-family="sans-serif" font-size="11" lengthAdjust="spacingAndGlyphs" textLength="77" x="205" y="147.2549">getOrder(order)</text>
        <!--MD5=[f8e092794d52bf9a252466252ae7bd1c]
class System-->
        <rect codeLine="12" fill="#FEFECE" filter="url(#f10yts7t3ebro4)" height="75.6719" id="System" style="stroke:#A80036;stroke-width:1.5;" width="109" x="433" y="7" />
        <ellipse cx="464.2" cy="23" fill="#ADD1B2" rx="11" ry="11" style="stroke:#A80036;stroke-width:1.0;" />
        <path d="M466.9656,18.875 Q467.1219,18.6563 467.3094,18.5469 Q467.4969,18.4375 467.7156,18.4375 Q468.0906,18.4375 468.325,18.6953 Q468.5594,18.9531 468.5594,19.5625 L468.5594,21.0156 Q468.5594,21.625 468.325,21.8906 Q468.0906,22.1563 467.7156,22.1563 Q467.3719,22.1563 467.1688,21.9531 Q466.9656,21.7656 466.8563,21.25 Q466.8094,20.8906 466.6219,20.7031 Q466.2938,20.3281 465.6844,20.1094 Q465.075,19.8906 464.45,19.8906 Q463.6844,19.8906 463.0516,20.2188 Q462.4188,20.5469 461.9266,21.2969 Q461.4344,22.0469 461.4344,23.0781 L461.4344,24.1719 Q461.4344,25.4063 462.325,26.2266 Q463.2156,27.0469 464.8094,27.0469 Q465.7469,27.0469 466.4031,26.7969 Q466.7938,26.6406 467.2156,26.2031 Q467.4813,25.9375 467.6297,25.8594 Q467.7781,25.7813 467.9813,25.7813 Q468.3094,25.7813 468.5672,26.0391 Q468.825,26.2969 468.825,26.6406 Q468.825,26.9844 468.4813,27.3906 Q467.9813,27.9688 467.1844,28.2969 Q466.1063,28.75 464.8094,28.75 Q463.2938,28.75 462.0906,28.125 Q461.1063,27.625 460.4188,26.5547 Q459.7313,25.4844 459.7313,24.2031 L459.7313,23.0469 Q459.7313,21.7188 460.3484,20.5703 Q460.9656,19.4219 462.0594,18.8047 Q463.1531,18.1875 464.3875,18.1875 Q465.1219,18.1875 465.7703,18.3516 Q466.4188,18.5156 466.9656,18.875 Z " fill="#000000" /><text fill="#000000" font-family="sans-serif" font-size="12" lengthAdjust="spacingAndGlyphs" textLength="41" x="481.8" y="27.9102">System</text>
        <line style="stroke:#A80036;stroke-width:1.5;" x1="434" x2="541" y1="39" y2="39" />
        <line style="stroke:#A80036;stroke-width:1.5;" x1="434" x2="541" y1="47" y2="47" /><text fill="#000000" font-family="sans-serif" font-size="11" lengthAdjust="spacingAndGlyphs" textLength="97" x="439" y="62.4189">getOrderDatabase()</text><text fill="#000000" font-family="sans-serif" font-size="11" lengthAdjust="spacingAndGlyphs" textLength="77" x="439" y="76.2549">getOrder(order)</text>
        <!--MD5=[cf4d6237fcae255cd2e1656cf84a30e2]
class Order-->
        <rect codeLine="17" fill="#FEFECE" filter="url(#f10yts7t3ebro4)" height="103.3438" id="Order" style="stroke:#A80036;stroke-width:1.5;" width="102" x="886" y="55.5" />
        <ellipse cx="918.55" cy="71.5" fill="#ADD1B2" rx="11" ry="11" style="stroke:#A80036;stroke-width:1.0;" />
        <path d="M921.3156,67.375 Q921.4719,67.1563 921.6594,67.0469 Q921.8469,66.9375 922.0656,66.9375 Q922.4406,66.9375 922.675,67.1953 Q922.9094,67.4531 922.9094,68.0625 L922.9094,69.5156 Q922.9094,70.125 922.675,70.3906 Q922.4406,70.6563 922.0656,70.6563 Q921.7219,70.6563 921.5188,70.4531 Q921.3156,70.2656 921.2063,69.75 Q921.1594,69.3906 920.9719,69.2031 Q920.6438,68.8281 920.0344,68.6094 Q919.425,68.3906 918.8,68.3906 Q918.0344,68.3906 917.4016,68.7188 Q916.7688,69.0469 916.2766,69.7969 Q915.7844,70.5469 915.7844,71.5781 L915.7844,72.6719 Q915.7844,73.9063 916.675,74.7266 Q917.5656,75.5469 919.1594,75.5469 Q920.0969,75.5469 920.7531,75.2969 Q921.1438,75.1406 921.5656,74.7031 Q921.8313,74.4375 921.9797,74.3594 Q922.1281,74.2813 922.3313,74.2813 Q922.6594,74.2813 922.9172,74.5391 Q923.175,74.7969 923.175,75.1406 Q923.175,75.4844 922.8313,75.8906 Q922.3313,76.4688 921.5344,76.7969 Q920.4563,77.25 919.1594,77.25 Q917.6438,77.25 916.4406,76.625 Q915.4563,76.125 914.7688,75.0547 Q914.0813,73.9844 914.0813,72.7031 L914.0813,71.5469 Q914.0813,70.2188 914.6984,69.0703 Q915.3156,67.9219 916.4094,67.3047 Q917.5031,66.6875 918.7375,66.6875 Q919.4719,66.6875 920.1203,66.8516 Q920.7688,67.0156 921.3156,67.375 Z " fill="#000000" /><text fill="#000000" font-family="sans-serif" font-size="12" lengthAdjust="spacingAndGlyphs" textLength="31" x="936.45" y="76.4102">Order</text>
        <line style="stroke:#A80036;stroke-width:1.5;" x1="887" x2="987" y1="87.5" y2="87.5" />
        <line style="stroke:#A80036;stroke-width:1.5;" x1="887" x2="987" y1="95.5" y2="95.5" /><text fill="#000000" font-family="sans-serif" font-size="11" lengthAdjust="spacingAndGlyphs" textLength="55" x="892" y="110.9189">getDetails()</text><text fill="#000000" font-family="sans-serif" font-size="11" lengthAdjust="spacingAndGlyphs" textLength="90" x="892" y="124.7549">markAsReceived()</text><text fill="#000000" font-family="sans-serif" font-size="11" lengthAdjust="spacingAndGlyphs" textLength="82" x="892" y="138.5908">getOrderStatus()</text><text fill="#000000" font-family="sans-serif" font-size="11" lengthAdjust="spacingAndGlyphs" textLength="62" x="892" y="152.4268">getDelivery()</text>
        <!--MD5=[009b03086d07d4e0c5d5e478a28f6669]
class OrderDatabase-->
        <rect codeLine="24" fill="#FEFECE" filter="url(#f10yts7t3ebro4)" height="75.6719" id="OrderDatabase" style="stroke:#A80036;stroke-width:1.5;" width="117" x="625" y="69" />
        <ellipse cx="640" cy="85" fill="#ADD1B2" rx="11" ry="11" style="stroke:#A80036;stroke-width:1.0;" />
        <path d="M642.7656,80.875 Q642.9219,80.6563 643.1094,80.5469 Q643.2969,80.4375 643.5156,80.4375 Q643.8906,80.4375 644.125,80.6953 Q644.3594,80.9531 644.3594,81.5625 L644.3594,83.0156 Q644.3594,83.625 644.125,83.8906 Q643.8906,84.1563 643.5156,84.1563 Q643.1719,84.1563 642.9688,83.9531 Q642.7656,83.7656 642.6563,83.25 Q642.6094,82.8906 642.4219,82.7031 Q642.0938,82.3281 641.4844,82.1094 Q640.875,81.8906 640.25,81.8906 Q639.4844,81.8906 638.8516,82.2188 Q638.2188,82.5469 637.7266,83.2969 Q637.2344,84.0469 637.2344,85.0781 L637.2344,86.1719 Q637.2344,87.4063 638.125,88.2266 Q639.0156,89.0469 640.6094,89.0469 Q641.5469,89.0469 642.2031,88.7969 Q642.5938,88.6406 643.0156,88.2031 Q643.2813,87.9375 643.4297,87.8594 Q643.5781,87.7813 643.7813,87.7813 Q644.1094,87.7813 644.3672,88.0391 Q644.625,88.2969 644.625,88.6406 Q644.625,88.9844 644.2813,89.3906 Q643.7813,89.9688 642.9844,90.2969 Q641.9063,90.75 640.6094,90.75 Q639.0938,90.75 637.8906,90.125 Q636.9063,89.625 636.2188,88.5547 Q635.5313,87.4844 635.5313,86.2031 L635.5313,85.0469 Q635.5313,83.7188 636.1484,82.5703 Q636.7656,81.4219 637.8594,80.8047 Q638.9531,80.1875 640.1875,80.1875 Q640.9219,80.1875 641.5703,80.3516 Q642.2188,80.5156 642.7656,80.875 Z " fill="#000000" /><text fill="#000000" font-family="sans-serif" font-size="12" lengthAdjust="spacingAndGlyphs" textLength="85" x="654" y="89.9102">OrderDatabase</text>
        <line style="stroke:#A80036;stroke-width:1.5;" x1="626" x2="741" y1="101" y2="101" />
        <line style="stroke:#A80036;stroke-width:1.5;" x1="626" x2="741" y1="109" y2="109" /><text fill="#000000" font-family="sans-serif" font-size="11" lengthAdjust="spacingAndGlyphs" textLength="87" x="631" y="124.4189">getOrders(userId)</text><text fill="#000000" font-family="sans-serif" font-size="11" lengthAdjust="spacingAndGlyphs" textLength="85" x="631" y="138.2549">getOrder(orderId)</text>
        <!--MD5=[fff5db4abcb6eec6574b9ea9c3ee0eae]
class Delivery-->
        <rect codeLine="29" fill="#FEFECE" filter="url(#f10yts7t3ebro4)" height="75.6719" id="Delivery" style="stroke:#A80036;stroke-width:1.5;" width="102" x="1071" y="69" />
        <ellipse cx="1098.15" cy="85" fill="#ADD1B2" rx="11" ry="11" style="stroke:#A80036;stroke-width:1.0;" />
        <path d="M1100.9156,80.875 Q1101.0719,80.6563 1101.2594,80.5469 Q1101.4469,80.4375 1101.6656,80.4375 Q1102.0406,80.4375 1102.275,80.6953 Q1102.5094,80.9531 1102.5094,81.5625 L1102.5094,83.0156 Q1102.5094,83.625 1102.275,83.8906 Q1102.0406,84.1563 1101.6656,84.1563 Q1101.3219,84.1563 1101.1188,83.9531 Q1100.9156,83.7656 1100.8063,83.25 Q1100.7594,82.8906 1100.5719,82.7031 Q1100.2438,82.3281 1099.6344,82.1094 Q1099.025,81.8906 1098.4,81.8906 Q1097.6344,81.8906 1097.0016,82.2188 Q1096.3688,82.5469 1095.8766,83.2969 Q1095.3844,84.0469 1095.3844,85.0781 L1095.3844,86.1719 Q1095.3844,87.4063 1096.275,88.2266 Q1097.1656,89.0469 1098.7594,89.0469 Q1099.6969,89.0469 1100.3531,88.7969 Q1100.7438,88.6406 1101.1656,88.2031 Q1101.4313,87.9375 1101.5797,87.8594 Q1101.7281,87.7813 1101.9313,87.7813 Q1102.2594,87.7813 1102.5172,88.0391 Q1102.775,88.2969 1102.775,88.6406 Q1102.775,88.9844 1102.4313,89.3906 Q1101.9313,89.9688 1101.1344,90.2969 Q1100.0563,90.75 1098.7594,90.75 Q1097.2438,90.75 1096.0406,90.125 Q1095.0563,89.625 1094.3688,88.5547 Q1093.6813,87.4844 1093.6813,86.2031 L1093.6813,85.0469 Q1093.6813,83.7188 1094.2984,82.5703 Q1094.9156,81.4219 1096.0094,80.8047 Q1097.1031,80.1875 1098.3375,80.1875 Q1099.0719,80.1875 1099.7203,80.3516 Q1100.3688,80.5156 1100.9156,80.875 Z " fill="#000000" /><text fill="#000000" font-family="sans-serif" font-size="12" lengthAdjust="spacingAndGlyphs" textLength="43" x="1114.85" y="89.9102">Delivery</text>
        <line style="stroke:#A80036;stroke-width:1.5;" x1="1072" x2="1172" y1="101" y2="101" />
        <line style="stroke:#A80036;stroke-width:1.5;" x1="1072" x2="1172" y1="109" y2="109" /><text fill="#000000" font-family="sans-serif" font-size="11" lengthAdjust="spacingAndGlyphs" textLength="54" x="1077" y="124.4189">getStatus()</text><text fill="#000000" font-family="sans-serif" font-size="11" lengthAdjust="spacingAndGlyphs" textLength="90" x="1077" y="138.2549">completeDelivery()</text>
        <!--MD5=[7fb8a512aa3ef213156139e1f4260885]
link ConfirmDeliveryUI to ConfirmDeliveryController-->
        <path codeLine="35" d="M138.24,116 C155.74,116 175,116 193.64,116 " fill="none" id="ConfirmDeliveryUI-to-ConfirmDeliveryController" style="stroke:#A80036;stroke-width:1.0;stroke-dasharray:7.0,7.0;" />
        <polygon fill="#A80036" points="198.88,116,189.88,112,193.88,116,189.88,120,198.88,116" style="stroke:#A80036;stroke-width:1.0;" />
        <!--MD5=[873f24e67fc3cd6040dbb6e2546c6e81]
link ConfirmDeliveryController to System-->
        <path codeLine="36" d="M372.19,85.58 C390.99,78.91 410.48,71.99 427.93,65.79 " fill="none" id="ConfirmDeliveryController-to-System" style="stroke:#A80036;stroke-width:1.0;stroke-dasharray:7.0,7.0;" />
        <polygon fill="#A80036" points="432.79,64.07,422.9707,63.3074,428.0774,65.7408,425.644,70.8475,432.79,64.07" style="stroke:#A80036;stroke-width:1.0;" />
        <!--MD5=[9bbb475d2dac41fb1cbe9b41ef3e8d07]
link ConfirmDeliveryController to OrderDatabase-->
        <path codeLine="37" d="M372.43,114.05 C446.92,112.35 552.96,109.94 619.73,108.43 " fill="none" id="ConfirmDeliveryController-to-OrderDatabase" style="stroke:#A80036;stroke-width:1.0;stroke-dasharray:7.0,7.0;" />
        <polygon fill="#A80036" points="624.87,108.31,615.7809,104.5167,619.8713,108.4243,615.9638,112.5146,624.87,108.31" style="stroke:#A80036;stroke-width:1.0;" />
        <!--MD5=[64703605cebe55895f3b61b53aaeb5e0]
link System to OrderDatabase-->
        <path codeLine="38" d="M542.02,62.11 C566.1,69.8 594.69,78.94 619.77,86.95 " fill="none" id="System-to-OrderDatabase" style="stroke:#A80036;stroke-width:1.0;" />
        <polygon fill="#A80036" points="624.73,88.54,617.3673,81.9986,619.9656,87.0234,614.9407,89.6217,624.73,88.54" style="stroke:#A80036;stroke-width:1.0;" /><text fill="#000000" font-family="sans-serif" font-size="13" lengthAdjust="spacingAndGlyphs" textLength="21" x="573" y="69.4951">has</text><text fill="#000000" font-family="sans-serif" font-size="13" lengthAdjust="spacingAndGlyphs" textLength="7" x="550.1791" y="79.184">1</text><text fill="#000000" font-family="sans-serif" font-size="13" lengthAdjust="spacingAndGlyphs" textLength="7" x="610.1408" y="100.8017">1</text>
        <!--MD5=[2408d0bf8f68147adaef855466bfeac3]
link OrderDatabase to Order-->
        <path codeLine="39" d="M742.2,107 C783.78,107 839.57,107 880.62,107 " fill="none" id="OrderDatabase-to-Order" style="stroke:#A80036;stroke-width:1.0;" />
        <polygon fill="#A80036" points="885.8,107,876.8,103,880.8,107,876.8,111,885.8,107" style="stroke:#A80036;stroke-width:1.0;" /><text fill="#000000" font-family="sans-serif" font-size="13" lengthAdjust="spacingAndGlyphs" textLength="82" x="773" y="103.4951">has registered</text><text fill="#000000" font-family="sans-serif" font-size="13" lengthAdjust="spacingAndGlyphs" textLength="7" x="750.1694" y="121.5637">1</text><text fill="#000000" font-family="sans-serif" font-size="13" lengthAdjust="spacingAndGlyphs" textLength="5" x="872.9128" y="121.6707">*</text>
        <!--MD5=[e851f94bc71457f9038687d54ae4bfa1]
link Order to Delivery-->
        <path codeLine="40" d="M988.01,107 C1012.01,107 1040.86,107 1065.54,107 " fill="none" id="Order-to-Delivery" style="stroke:#A80036;stroke-width:1.0;" />
        <polygon fill="#A80036" points="1070.74,107,1061.74,103,1065.74,107,1061.74,111,1070.74,107" style="stroke:#A80036;stroke-width:1.0;" /><text fill="#000000" font-family="sans-serif" font-size="13" lengthAdjust="spacingAndGlyphs" textLength="21" x="1019" y="103.4951">has</text><text fill="#000000" font-family="sans-serif" font-size="13" lengthAdjust="spacingAndGlyphs" textLength="20" x="995.8269" y="121.5206">1..*</text><text fill="#000000" font-family="sans-serif" font-size="13" lengthAdjust="spacingAndGlyphs" textLength="7" x="1056.0394" y="121.6679">1</text>
        <!--MD5=[af206bbad1daa9ffbf7b405d36c8d803]
@startuml

left to right direction

class ConfirmDeliveryUI {
}

class ConfirmDeliveryController {
  getOrders(user)
  getOrder(order)
}

class System {
  getOrderDatabase()
  getOrder(order)
}

class Order {
  getDetails()
  markAsReceived()
  getOrderStatus()
  getDelivery()
}

class OrderDatabase {
  getOrders(userId)
  getOrder(orderId)
}

class Delivery {
  getStatus()
  completeDelivery()
}


ConfirmDeliveryUI ..> ConfirmDeliveryController
ConfirmDeliveryController ..> System
ConfirmDeliveryController ..> OrderDatabase
System "1" - -> "1" OrderDatabase: has
OrderDatabase "1" - -> "*" Order: has registered
Order "1..*" - -> "1" Delivery: has

@enduml

PlantUML version 1.2020.26(Mon Dec 21 17:45:07 GMT 2020)
(GPL source distribution)
Java Runtime: Java(TM) SE Runtime Environment
JVM: Java HotSpot(TM) 64-Bit Server VM
Default Encoding: Cp1252
Language: pt
Country: PT
-->
    </g>
</svg>