<?xml version="1.0" encoding="UTF-8" standalone="no"?><svg xmlns="http://www.w3.org/2000/svg" xmlns:xlink="http://www.w3.org/1999/xlink" contentScriptType="application/ecmascript" contentStyleType="text/css" height="275px" preserveAspectRatio="none" style="width:530px;height:275px;" version="1.1" viewBox="0 0 530 275" width="530px" zoomAndPan="magnify"><defs><filter height="300%" id="f7r3o2ct5wyo" width="300%" x="-1" y="-1"><feGaussianBlur result="blurOut" stdDeviation="2.0"/><feColorMatrix in="blurOut" result="blurOut2" type="matrix" values="0 0 0 0 0 0 0 0 0 0 0 0 0 0 0 0 0 0 .4 0"/><feOffset dx="4.0" dy="4.0" in="blurOut2" result="blurOut3"/><feBlend in="SourceGraphic" in2="blurOut3" mode="normal"/></filter></defs><g><!--MD5=[ed6624c6556d5e7b1bd23032162d20b7]
class Client--><rect codeLine="4" fill="#FEFECE" filter="url(#f7r3o2ct5wyo)" height="136.8516" id="Client" style="stroke:#A80036;stroke-width:1.5;" width="144" x="195" y="7"/><ellipse cx="246.75" cy="23" fill="#ADD1B2" rx="11" ry="11" style="stroke:#A80036;stroke-width:1.0;"/><path d="M248.75,19.5 Q248.9531,19 249.1875,18.75 Q249.4219,18.5 249.6875,18.5 Q250.1563,18.5 250.4531,18.7813 Q250.75,19.0625 250.75,19.7188 L250.75,21.2813 Q250.75,21.9375 250.4688,22.2188 Q250.1875,22.5 249.75,22.5 Q249.3594,22.5 249.1094,22.3281 Q248.8594,22.1563 248.75,21.7031 Q248.7031,21.3906 248.5313,21.2188 Q248.2188,20.8906 247.6563,20.7031 Q247.0938,20.5 246.5313,20.5 Q245.8281,20.5 245.2344,20.7813 Q244.6563,21.0625 244.2031,21.6875 Q243.75,22.3125 243.75,23.1719 L243.75,24.0938 Q243.75,25.125 244.5938,25.8125 Q245.4375,26.5 246.9375,26.5 Q247.8281,26.5 248.4531,26.2969 Q248.8125,26.1875 249.2188,25.8281 Q249.4844,25.625 249.625,25.5625 Q249.7656,25.5 249.9375,25.5 Q250.2656,25.5 250.5,25.7656 Q250.75,26.0156 250.75,26.375 Q250.75,26.7188 250.4063,27.125 Q249.9063,27.7188 249.1094,28.0469 Q248.0625,28.5 246.7813,28.5 Q245.2813,28.5 244.0781,27.9063 Q243.1094,27.4375 242.4219,26.4219 Q241.75,25.4063 241.75,24.2031 L241.75,23.1094 Q241.75,21.8594 242.3438,20.7656 Q242.9531,19.6719 244,19.0938 Q245.0625,18.5 246.25,18.5 Q246.9688,18.5 247.5938,18.75 Q248.2188,19 248.75,19.5 Z " fill="#000000"/><text fill="#000000" font-family="sans-serif" font-size="12" lengthAdjust="spacing" textLength="32" x="267.25" y="27.9102">Client</text><line style="stroke:#A80036;stroke-width:1.5;" x1="196" x2="338" y1="39" y2="39"/><rect fill="none" height="6" style="stroke:#C82930;stroke-width:1.0;" width="6" x="203" y="47"/><text fill="#000000" font-family="sans-serif" font-size="11" lengthAdjust="spacing" textLength="44" x="215" y="54.4189">Integer id</text><rect fill="none" height="6" style="stroke:#C82930;stroke-width:1.0;" width="6" x="203" y="60.8359"/><text fill="#000000" font-family="sans-serif" font-size="11" lengthAdjust="spacing" textLength="57" x="215" y="68.2549">String name</text><rect fill="none" height="6" style="stroke:#C82930;stroke-width:1.0;" width="6" x="203" y="74.6719"/><text fill="#000000" font-family="sans-serif" font-size="11" lengthAdjust="spacing" textLength="97" x="215" y="82.0908">String emailAddress</text><rect fill="none" height="6" style="stroke:#C82930;stroke-width:1.0;" width="6" x="203" y="88.5078"/><text fill="#000000" font-family="sans-serif" font-size="11" lengthAdjust="spacing" textLength="81" x="215" y="95.9268">String password</text><rect fill="none" height="6" style="stroke:#C82930;stroke-width:1.0;" width="6" x="203" y="102.3438"/><text fill="#000000" font-family="sans-serif" font-size="11" lengthAdjust="spacing" textLength="77" x="215" y="109.7627">String cellphone</text><rect fill="none" height="6" style="stroke:#C82930;stroke-width:1.0;" width="6" x="203" y="116.1797"/><text fill="#000000" font-family="sans-serif" font-size="11" lengthAdjust="spacing" textLength="48" x="215" y="123.5986">Integer nif</text><rect fill="none" height="6" style="stroke:#C82930;stroke-width:1.0;" width="6" x="203" y="130.0156"/><text fill="#000000" font-family="sans-serif" font-size="11" lengthAdjust="spacing" textLength="118" x="215" y="137.4346">Integer numberOfCredits</text><!--MD5=[cf4d6237fcae255cd2e1656cf84a30e2]
class Order--><rect codeLine="14" fill="#FEFECE" filter="url(#f7r3o2ct5wyo)" height="53.8359" id="Order" style="stroke:#A80036;stroke-width:1.5;" width="70" x="446" y="135.5"/><ellipse cx="464.15" cy="151.5" fill="#ADD1B2" rx="11" ry="11" style="stroke:#A80036;stroke-width:1.0;"/><path d="M466.15,148 Q466.3531,147.5 466.5875,147.25 Q466.8219,147 467.0875,147 Q467.5563,147 467.8531,147.2813 Q468.15,147.5625 468.15,148.2188 L468.15,149.7813 Q468.15,150.4375 467.8688,150.7188 Q467.5875,151 467.15,151 Q466.7594,151 466.5094,150.8281 Q466.2594,150.6563 466.15,150.2031 Q466.1031,149.8906 465.9313,149.7188 Q465.6188,149.3906 465.0563,149.2031 Q464.4938,149 463.9313,149 Q463.2281,149 462.6344,149.2813 Q462.0563,149.5625 461.6031,150.1875 Q461.15,150.8125 461.15,151.6719 L461.15,152.5938 Q461.15,153.625 461.9938,154.3125 Q462.8375,155 464.3375,155 Q465.2281,155 465.8531,154.7969 Q466.2125,154.6875 466.6188,154.3281 Q466.8844,154.125 467.025,154.0625 Q467.1656,154 467.3375,154 Q467.6656,154 467.9,154.2656 Q468.15,154.5156 468.15,154.875 Q468.15,155.2188 467.8063,155.625 Q467.3063,156.2188 466.5094,156.5469 Q465.4625,157 464.1813,157 Q462.6813,157 461.4781,156.4063 Q460.5094,155.9375 459.8219,154.9219 Q459.15,153.9063 459.15,152.7031 L459.15,151.6094 Q459.15,150.3594 459.7438,149.2656 Q460.3531,148.1719 461.4,147.5938 Q462.4625,147 463.65,147 Q464.3688,147 464.9938,147.25 Q465.6188,147.5 466.15,148 Z " fill="#000000"/><text fill="#000000" font-family="sans-serif" font-size="12" lengthAdjust="spacing" textLength="31" x="478.85" y="156.4102">Order</text><line style="stroke:#A80036;stroke-width:1.5;" x1="447" x2="515" y1="167.5" y2="167.5"/><rect fill="none" height="6" style="stroke:#C82930;stroke-width:1.0;" width="6" x="454" y="175.5"/><text fill="#000000" font-family="sans-serif" font-size="11" lengthAdjust="spacing" textLength="44" x="466" y="182.9189">Integer id</text><!--MD5=[7f2a9fafcebe4f099f71398fd3e2ed00]
class Pharmacy--><rect codeLine="19" fill="#FEFECE" filter="url(#f7r3o2ct5wyo)" height="81.5078" id="Pharmacy" style="stroke:#A80036;stroke-width:1.5;" width="112" x="211" y="179.5"/><ellipse cx="237.25" cy="195.5" fill="#ADD1B2" rx="11" ry="11" style="stroke:#A80036;stroke-width:1.0;"/><path d="M239.25,192 Q239.4531,191.5 239.6875,191.25 Q239.9219,191 240.1875,191 Q240.6563,191 240.9531,191.2813 Q241.25,191.5625 241.25,192.2188 L241.25,193.7813 Q241.25,194.4375 240.9688,194.7188 Q240.6875,195 240.25,195 Q239.8594,195 239.6094,194.8281 Q239.3594,194.6563 239.25,194.2031 Q239.2031,193.8906 239.0313,193.7188 Q238.7188,193.3906 238.1563,193.2031 Q237.5938,193 237.0313,193 Q236.3281,193 235.7344,193.2813 Q235.1563,193.5625 234.7031,194.1875 Q234.25,194.8125 234.25,195.6719 L234.25,196.5938 Q234.25,197.625 235.0938,198.3125 Q235.9375,199 237.4375,199 Q238.3281,199 238.9531,198.7969 Q239.3125,198.6875 239.7188,198.3281 Q239.9844,198.125 240.125,198.0625 Q240.2656,198 240.4375,198 Q240.7656,198 241,198.2656 Q241.25,198.5156 241.25,198.875 Q241.25,199.2188 240.9063,199.625 Q240.4063,200.2188 239.6094,200.5469 Q238.5625,201 237.2813,201 Q235.7813,201 234.5781,200.4063 Q233.6094,199.9375 232.9219,198.9219 Q232.25,197.9063 232.25,196.7031 L232.25,195.6094 Q232.25,194.3594 232.8438,193.2656 Q233.4531,192.1719 234.5,191.5938 Q235.5625,191 236.75,191 Q237.4688,191 238.0938,191.25 Q238.7188,191.5 239.25,192 Z " fill="#000000"/><text fill="#000000" font-family="sans-serif" font-size="12" lengthAdjust="spacing" textLength="55" x="253.75" y="200.4102">Pharmacy</text><line style="stroke:#A80036;stroke-width:1.5;" x1="212" x2="322" y1="211.5" y2="211.5"/><rect fill="none" height="6" style="stroke:#C82930;stroke-width:1.0;" width="6" x="219" y="219.5"/><text fill="#000000" font-family="sans-serif" font-size="11" lengthAdjust="spacing" textLength="44" x="231" y="226.9189">Integer id</text><rect fill="none" height="6" style="stroke:#C82930;stroke-width:1.0;" width="6" x="219" y="233.3359"/><text fill="#000000" font-family="sans-serif" font-size="11" lengthAdjust="spacing" textLength="86" x="231" y="240.7549">String designation</text><rect fill="none" height="6" style="stroke:#C82930;stroke-width:1.0;" width="6" x="219" y="247.1719"/><text fill="#000000" font-family="sans-serif" font-size="11" lengthAdjust="spacing" textLength="43" x="231" y="254.5908">String nif</text><!--MD5=[0b4e4b4980470ea387cc45de9bd14b5b]
class Application--><rect codeLine="26" fill="#FEFECE" filter="url(#f7r3o2ct5wyo)" height="40" id="Application" style="stroke:#A80036;stroke-width:1.5;" width="92" x="7" y="128.5"/><ellipse cx="22" cy="144.5" fill="#ADD1B2" rx="11" ry="11" style="stroke:#A80036;stroke-width:1.0;"/><path d="M24,141 Q24.2031,140.5 24.4375,140.25 Q24.6719,140 24.9375,140 Q25.4063,140 25.7031,140.2813 Q26,140.5625 26,141.2188 L26,142.7813 Q26,143.4375 25.7188,143.7188 Q25.4375,144 25,144 Q24.6094,144 24.3594,143.8281 Q24.1094,143.6563 24,143.2031 Q23.9531,142.8906 23.7813,142.7188 Q23.4688,142.3906 22.9063,142.2031 Q22.3438,142 21.7813,142 Q21.0781,142 20.4844,142.2813 Q19.9063,142.5625 19.4531,143.1875 Q19,143.8125 19,144.6719 L19,145.5938 Q19,146.625 19.8438,147.3125 Q20.6875,148 22.1875,148 Q23.0781,148 23.7031,147.7969 Q24.0625,147.6875 24.4688,147.3281 Q24.7344,147.125 24.875,147.0625 Q25.0156,147 25.1875,147 Q25.5156,147 25.75,147.2656 Q26,147.5156 26,147.875 Q26,148.2188 25.6563,148.625 Q25.1563,149.2188 24.3594,149.5469 Q23.3125,150 22.0313,150 Q20.5313,150 19.3281,149.4063 Q18.3594,148.9375 17.6719,147.9219 Q17,146.9063 17,145.7031 L17,144.6094 Q17,143.3594 17.5938,142.2656 Q18.2031,141.1719 19.25,140.5938 Q20.3125,140 21.5,140 Q22.2188,140 22.8438,140.25 Q23.4688,140.5 24,141 Z " fill="#000000"/><text fill="#000000" font-family="sans-serif" font-size="12" lengthAdjust="spacing" textLength="60" x="36" y="149.4102">Application</text><line style="stroke:#A80036;stroke-width:1.5;" x1="8" x2="98" y1="160.5" y2="160.5"/><!--MD5=[8c7e2cb836a61414bf9f02282664f603]
link Application to Pharmacy--><path codeLine="29" d="M99.22,163.86 C131.81,174.93 175.98,189.93 210.67,201.71 " fill="none" id="Application-Pharmacy" style="stroke:#A80036;stroke-width:1.0;"/><polygon fill="#000000" points="138.7344,168.2837,131.1149,162.5922,129.2247,168.1578,138.7344,168.2837" style="stroke:#000000;stroke-width:1.0;"/><text fill="#000000" font-family="sans-serif" font-size="13" lengthAdjust="spacing" textLength="21" x="143" y="171.9951">has</text><text fill="#000000" font-family="sans-serif" font-size="13" lengthAdjust="spacing" textLength="7" x="107.1441" y="181.1061">1</text><text fill="#000000" font-family="sans-serif" font-size="13" lengthAdjust="spacing" textLength="20" x="183.0006" y="214.0063">1..*</text><!--MD5=[0b87aa6ace50be10beee1b6515045c69]
link Pharmacy to Order--><path codeLine="30" d="M323.15,205.41 C362.04,194.77 412.9,180.86 446,171.8 " fill="none" id="Pharmacy-Order" style="stroke:#A80036;stroke-width:1.0;"/><polygon fill="#000000" points="384.3228,170.3563,374.8228,169.9085,376.3738,175.578,384.3228,170.3563" style="stroke:#000000;stroke-width:1.0;"/><text fill="#000000" font-family="sans-serif" font-size="13" lengthAdjust="spacing" textLength="21" x="388.5" y="176.9951">has</text><text fill="#000000" font-family="sans-serif" font-size="13" lengthAdjust="spacing" textLength="7" x="331.1655" y="218.0091">1</text><text fill="#000000" font-family="sans-serif" font-size="13" lengthAdjust="spacing" textLength="20" x="417.9844" y="188.4226">1..*</text><!--MD5=[0b87aa6ace50be10beee1b6515045c69]
link Pharmacy to Order--><path codeLine="31" d="M323.13,228.1 C351.73,229.9 386.71,228.69 416,217.5 C431.33,211.64 445.49,200.38 456.58,189.57 " fill="none" id="Pharmacy-Order-1" style="stroke:#A80036;stroke-width:1.0;"/><polygon fill="#000000" points="378.8038,207.2888,369.2984,206.9743,370.9289,212.6214,378.8038,207.2888" style="stroke:#000000;stroke-width:1.0;"/><text fill="#000000" font-family="sans-serif" font-size="13" lengthAdjust="spacing" textLength="32" x="383" y="213.9951">make</text><text fill="#000000" font-family="sans-serif" font-size="13" lengthAdjust="spacing" textLength="7" x="331.1428" y="243.7481">1</text><text fill="#000000" font-family="sans-serif" font-size="13" lengthAdjust="spacing" textLength="20" x="429.0506" y="210.7931">1..*</text><!--MD5=[294ea62bf67de03e8ef172f826877f83]
link Application to Client--><path codeLine="32" d="M99.22,132.93 C127.07,123.34 163.37,110.84 194.99,99.95 " fill="none" id="Application-Client" style="stroke:#A80036;stroke-width:1.0;"/><polygon fill="#000000" points="138.7275,102.0478,129.2184,102.2141,131.1323,107.7716,138.7275,102.0478" style="stroke:#000000;stroke-width:1.0;"/><text fill="#000000" font-family="sans-serif" font-size="13" lengthAdjust="spacing" textLength="21" x="143" y="108.9951">has</text><text fill="#000000" font-family="sans-serif" font-size="13" lengthAdjust="spacing" textLength="7" x="107.1441" y="145.2467">1</text><text fill="#000000" font-family="sans-serif" font-size="13" lengthAdjust="spacing" textLength="20" x="166.9171" y="116.664">1..*</text><!--MD5=[879bec428a80d843af24dc47845bf14c]
link Client to Order--><path codeLine="33" d="M339.18,104.71 C375.15,119.47 417.13,136.7 445.84,148.48 " fill="none" id="Client-Order" style="stroke:#A80036;stroke-width:1.0;"/><polygon fill="#000000" points="378.6257,112.574,371.3735,106.4212,369.142,111.859,378.6257,112.574" style="stroke:#000000;stroke-width:1.0;"/><text fill="#000000" font-family="sans-serif" font-size="13" lengthAdjust="spacing" textLength="32" x="383" y="115.9951">make</text><text fill="#000000" font-family="sans-serif" font-size="13" lengthAdjust="spacing" textLength="7" x="346.9845" y="122.0682">1</text><text fill="#000000" font-family="sans-serif" font-size="13" lengthAdjust="spacing" textLength="20" x="418.0781" y="160.9847">0..*</text><!--MD5=[b225e44c135f1807554af8866dd19a43]
@startuml
hide methods
left to right direction

class Client {
    - Integer id
    - String name
    - String emailAddress
    - String password
    - String cellphone
    - Integer nif
    - Integer numberOfCredits
}

class Order {
    - Integer id
}


class Pharmacy {
    - Integer id
    - String designation
    - String nif
}


class Application {}


Application "1" - - "1..*" Pharmacy: has >
Pharmacy "1" - - "1..*" Order: has >
Pharmacy "1" - - "1..*" Order: make >
Application "1" - - "1..*" Client: has >
Client "1" - - "0..*" Order: make >

@enduml

PlantUML version 1.2021.00(Sun Jan 10 10:25:05 GMT 2021)
(GPL source distribution)
Java Runtime: OpenJDK Runtime Environment
JVM: OpenJDK 64-Bit Server VM
Default Encoding: Cp1252
Language: en
Country: US
--></g></svg>