<?xml version="1.0" encoding="UTF-8" standalone="no"?><svg xmlns="http://www.w3.org/2000/svg" xmlns:xlink="http://www.w3.org/1999/xlink" contentScriptType="application/ecmascript" contentStyleType="text/css" height="179px" preserveAspectRatio="none" style="width:648px;height:179px;" version="1.1" viewBox="0 0 648 179" width="648px" zoomAndPan="magnify"><defs><filter height="300%" id="f1a096fhymjk9r" width="300%" x="-1" y="-1"><feGaussianBlur result="blurOut" stdDeviation="2.0"/><feColorMatrix in="blurOut" result="blurOut2" type="matrix" values="0 0 0 0 0 0 0 0 0 0 0 0 0 0 0 0 0 0 .4 0"/><feOffset dx="4.0" dy="4.0" in="blurOut2" result="blurOut3"/><feBlend in="SourceGraphic" in2="blurOut3" mode="normal"/></filter></defs><g><!--MD5=[110756cc4c4688d1e479206abf504965]
class OrderInvoiceUI--><rect codeLine="4" fill="#FEFECE" filter="url(#f1a096fhymjk9r)" height="48" id="OrderInvoiceUI" style="stroke:#A80036;stroke-width:1.5;" width="113" x="7" y="63"/><ellipse cx="22" cy="79" fill="#ADD1B2" rx="11" ry="11" style="stroke:#A80036;stroke-width:1.0;"/><path d="M24,75.5 Q24.2031,75 24.4375,74.75 Q24.6719,74.5 24.9375,74.5 Q25.4063,74.5 25.7031,74.7813 Q26,75.0625 26,75.7188 L26,77.2813 Q26,77.9375 25.7188,78.2188 Q25.4375,78.5 25,78.5 Q24.6094,78.5 24.3594,78.3281 Q24.1094,78.1563 24,77.7031 Q23.9531,77.3906 23.7813,77.2188 Q23.4688,76.8906 22.9063,76.7031 Q22.3438,76.5 21.7813,76.5 Q21.0781,76.5 20.4844,76.7813 Q19.9063,77.0625 19.4531,77.6875 Q19,78.3125 19,79.1719 L19,80.0938 Q19,81.125 19.8438,81.8125 Q20.6875,82.5 22.1875,82.5 Q23.0781,82.5 23.7031,82.2969 Q24.0625,82.1875 24.4688,81.8281 Q24.7344,81.625 24.875,81.5625 Q25.0156,81.5 25.1875,81.5 Q25.5156,81.5 25.75,81.7656 Q26,82.0156 26,82.375 Q26,82.7188 25.6563,83.125 Q25.1563,83.7188 24.3594,84.0469 Q23.3125,84.5 22.0313,84.5 Q20.5313,84.5 19.3281,83.9063 Q18.3594,83.4375 17.6719,82.4219 Q17,81.4063 17,80.2031 L17,79.1094 Q17,77.8594 17.5938,76.7656 Q18.2031,75.6719 19.25,75.0938 Q20.3125,74.5 21.5,74.5 Q22.2188,74.5 22.8438,74.75 Q23.4688,75 24,75.5 Z " fill="#000000"/><text fill="#000000" font-family="sans-serif" font-size="12" lengthAdjust="spacingAndGlyphs" textLength="81" x="36" y="83.9102">OrderInvoiceUI</text><line style="stroke:#A80036;stroke-width:1.5;" x1="8" x2="119" y1="95" y2="95"/><line style="stroke:#A80036;stroke-width:1.5;" x1="8" x2="119" y1="103" y2="103"/><!--MD5=[1bf07ea41e54de1dc8dcfb835d8e2cbd]
class OrderInvoiceController--><rect codeLine="7" fill="#FEFECE" filter="url(#f1a096fhymjk9r)" height="61.8359" id="OrderInvoiceController" style="stroke:#A80036;stroke-width:1.5;" width="155" x="180" y="56"/><ellipse cx="195" cy="72" fill="#ADD1B2" rx="11" ry="11" style="stroke:#A80036;stroke-width:1.0;"/><path d="M197,68.5 Q197.2031,68 197.4375,67.75 Q197.6719,67.5 197.9375,67.5 Q198.4063,67.5 198.7031,67.7813 Q199,68.0625 199,68.7188 L199,70.2813 Q199,70.9375 198.7188,71.2188 Q198.4375,71.5 198,71.5 Q197.6094,71.5 197.3594,71.3281 Q197.1094,71.1563 197,70.7031 Q196.9531,70.3906 196.7813,70.2188 Q196.4688,69.8906 195.9063,69.7031 Q195.3438,69.5 194.7813,69.5 Q194.0781,69.5 193.4844,69.7813 Q192.9063,70.0625 192.4531,70.6875 Q192,71.3125 192,72.1719 L192,73.0938 Q192,74.125 192.8438,74.8125 Q193.6875,75.5 195.1875,75.5 Q196.0781,75.5 196.7031,75.2969 Q197.0625,75.1875 197.4688,74.8281 Q197.7344,74.625 197.875,74.5625 Q198.0156,74.5 198.1875,74.5 Q198.5156,74.5 198.75,74.7656 Q199,75.0156 199,75.375 Q199,75.7188 198.6563,76.125 Q198.1563,76.7188 197.3594,77.0469 Q196.3125,77.5 195.0313,77.5 Q193.5313,77.5 192.3281,76.9063 Q191.3594,76.4375 190.6719,75.4219 Q190,74.4063 190,73.2031 L190,72.1094 Q190,70.8594 190.5938,69.7656 Q191.2031,68.6719 192.25,68.0938 Q193.3125,67.5 194.5,67.5 Q195.2188,67.5 195.8438,67.75 Q196.4688,68 197,68.5 Z " fill="#000000"/><text fill="#000000" font-family="sans-serif" font-size="12" lengthAdjust="spacingAndGlyphs" textLength="123" x="209" y="76.9102">OrderInvoiceController</text><line style="stroke:#A80036;stroke-width:1.5;" x1="181" x2="334" y1="88" y2="88"/><line style="stroke:#A80036;stroke-width:1.5;" x1="181" x2="334" y1="96" y2="96"/><ellipse cx="191" cy="107" fill="#84BE84" rx="3" ry="3" style="stroke:#038048;stroke-width:1.0;"/><text fill="#000000" font-family="sans-serif" font-size="11" lengthAdjust="spacingAndGlyphs" textLength="65" x="200" y="111.4189">checkOrder()</text><!--MD5=[0b4e4b4980470ea387cc45de9bd14b5b]
class Application--><rect codeLine="11" fill="#FEFECE" filter="url(#f1a096fhymjk9r)" height="61.8359" id="Application" style="stroke:#A80036;stroke-width:1.5;" width="92" x="395" y="7"/><ellipse cx="410" cy="23" fill="#ADD1B2" rx="11" ry="11" style="stroke:#A80036;stroke-width:1.0;"/><path d="M412,19.5 Q412.2031,19 412.4375,18.75 Q412.6719,18.5 412.9375,18.5 Q413.4063,18.5 413.7031,18.7813 Q414,19.0625 414,19.7188 L414,21.2813 Q414,21.9375 413.7188,22.2188 Q413.4375,22.5 413,22.5 Q412.6094,22.5 412.3594,22.3281 Q412.1094,22.1563 412,21.7031 Q411.9531,21.3906 411.7813,21.2188 Q411.4688,20.8906 410.9063,20.7031 Q410.3438,20.5 409.7813,20.5 Q409.0781,20.5 408.4844,20.7813 Q407.9063,21.0625 407.4531,21.6875 Q407,22.3125 407,23.1719 L407,24.0938 Q407,25.125 407.8438,25.8125 Q408.6875,26.5 410.1875,26.5 Q411.0781,26.5 411.7031,26.2969 Q412.0625,26.1875 412.4688,25.8281 Q412.7344,25.625 412.875,25.5625 Q413.0156,25.5 413.1875,25.5 Q413.5156,25.5 413.75,25.7656 Q414,26.0156 414,26.375 Q414,26.7188 413.6563,27.125 Q413.1563,27.7188 412.3594,28.0469 Q411.3125,28.5 410.0313,28.5 Q408.5313,28.5 407.3281,27.9063 Q406.3594,27.4375 405.6719,26.4219 Q405,25.4063 405,24.2031 L405,23.1094 Q405,21.8594 405.5938,20.7656 Q406.2031,19.6719 407.25,19.0938 Q408.3125,18.5 409.5,18.5 Q410.2188,18.5 410.8438,18.75 Q411.4688,19 412,19.5 Z " fill="#000000"/><text fill="#000000" font-family="sans-serif" font-size="12" lengthAdjust="spacingAndGlyphs" textLength="60" x="424" y="27.9102">Application</text><line style="stroke:#A80036;stroke-width:1.5;" x1="396" x2="486" y1="39" y2="39"/><line style="stroke:#A80036;stroke-width:1.5;" x1="396" x2="486" y1="47" y2="47"/><ellipse cx="406" cy="58" fill="#84BE84" rx="3" ry="3" style="stroke:#038048;stroke-width:1.0;"/><text fill="#000000" font-family="sans-serif" font-size="11" lengthAdjust="spacingAndGlyphs" textLength="51" x="415" y="62.4189">getOrder()</text><!--MD5=[34b75dd4d6d4601c280a5b76e9c1a953]
class Receipt--><rect codeLine="15" fill="#FEFECE" filter="url(#f1a096fhymjk9r)" height="61.8359" id="Receipt" style="stroke:#A80036;stroke-width:1.5;" width="92" x="395" y="104"/><ellipse cx="418.1" cy="120" fill="#ADD1B2" rx="11" ry="11" style="stroke:#A80036;stroke-width:1.0;"/><path d="M420.1,116.5 Q420.3031,116 420.5375,115.75 Q420.7719,115.5 421.0375,115.5 Q421.5063,115.5 421.8031,115.7813 Q422.1,116.0625 422.1,116.7188 L422.1,118.2813 Q422.1,118.9375 421.8188,119.2188 Q421.5375,119.5 421.1,119.5 Q420.7094,119.5 420.4594,119.3281 Q420.2094,119.1563 420.1,118.7031 Q420.0531,118.3906 419.8813,118.2188 Q419.5688,117.8906 419.0063,117.7031 Q418.4438,117.5 417.8813,117.5 Q417.1781,117.5 416.5844,117.7813 Q416.0063,118.0625 415.5531,118.6875 Q415.1,119.3125 415.1,120.1719 L415.1,121.0938 Q415.1,122.125 415.9438,122.8125 Q416.7875,123.5 418.2875,123.5 Q419.1781,123.5 419.8031,123.2969 Q420.1625,123.1875 420.5688,122.8281 Q420.8344,122.625 420.975,122.5625 Q421.1156,122.5 421.2875,122.5 Q421.6156,122.5 421.85,122.7656 Q422.1,123.0156 422.1,123.375 Q422.1,123.7188 421.7563,124.125 Q421.2563,124.7188 420.4594,125.0469 Q419.4125,125.5 418.1313,125.5 Q416.6313,125.5 415.4281,124.9063 Q414.4594,124.4375 413.7719,123.4219 Q413.1,122.4063 413.1,121.2031 L413.1,120.1094 Q413.1,118.8594 413.6938,117.7656 Q414.3031,116.6719 415.35,116.0938 Q416.4125,115.5 417.6,115.5 Q418.3188,115.5 418.9438,115.75 Q419.5688,116 420.1,116.5 Z " fill="#000000"/><text fill="#000000" font-family="sans-serif" font-size="12" lengthAdjust="spacingAndGlyphs" textLength="42" x="433.9" y="124.9102">Receipt</text><line style="stroke:#A80036;stroke-width:1.5;" x1="396" x2="486" y1="136" y2="136"/><line style="stroke:#A80036;stroke-width:1.5;" x1="396" x2="486" y1="144" y2="144"/><ellipse cx="406" cy="155" fill="#84BE84" rx="3" ry="3" style="stroke:#038048;stroke-width:1.0;"/><text fill="#000000" font-family="sans-serif" font-size="11" lengthAdjust="spacingAndGlyphs" textLength="66" x="415" y="159.4189">sendInvoice()</text><!--MD5=[7f2a9fafcebe4f099f71398fd3e2ed00]
class Pharmacy--><rect codeLine="18" fill="#FEFECE" filter="url(#f1a096fhymjk9r)" height="48" id="Pharmacy" style="stroke:#A80036;stroke-width:1.5;" width="87" x="547" y="111"/><ellipse cx="562" cy="127" fill="#ADD1B2" rx="11" ry="11" style="stroke:#A80036;stroke-width:1.0;"/><path d="M564,123.5 Q564.2031,123 564.4375,122.75 Q564.6719,122.5 564.9375,122.5 Q565.4063,122.5 565.7031,122.7813 Q566,123.0625 566,123.7188 L566,125.2813 Q566,125.9375 565.7188,126.2188 Q565.4375,126.5 565,126.5 Q564.6094,126.5 564.3594,126.3281 Q564.1094,126.1563 564,125.7031 Q563.9531,125.3906 563.7813,125.2188 Q563.4688,124.8906 562.9063,124.7031 Q562.3438,124.5 561.7813,124.5 Q561.0781,124.5 560.4844,124.7813 Q559.9063,125.0625 559.4531,125.6875 Q559,126.3125 559,127.1719 L559,128.0938 Q559,129.125 559.8438,129.8125 Q560.6875,130.5 562.1875,130.5 Q563.0781,130.5 563.7031,130.2969 Q564.0625,130.1875 564.4688,129.8281 Q564.7344,129.625 564.875,129.5625 Q565.0156,129.5 565.1875,129.5 Q565.5156,129.5 565.75,129.7656 Q566,130.0156 566,130.375 Q566,130.7188 565.6563,131.125 Q565.1563,131.7188 564.3594,132.0469 Q563.3125,132.5 562.0313,132.5 Q560.5313,132.5 559.3281,131.9063 Q558.3594,131.4375 557.6719,130.4219 Q557,129.4063 557,128.2031 L557,127.1094 Q557,125.8594 557.5938,124.7656 Q558.2031,123.6719 559.25,123.0938 Q560.3125,122.5 561.5,122.5 Q562.2188,122.5 562.8438,122.75 Q563.4688,123 564,123.5 Z " fill="#000000"/><text fill="#000000" font-family="sans-serif" font-size="12" lengthAdjust="spacingAndGlyphs" textLength="55" x="576" y="131.9102">Pharmacy</text><line style="stroke:#A80036;stroke-width:1.5;" x1="548" x2="633" y1="143" y2="143"/><line style="stroke:#A80036;stroke-width:1.5;" x1="548" x2="633" y1="151" y2="151"/><!--MD5=[c4909b940c3e78def93e7b741a5f458e]
link OrderInvoiceUI to OrderInvoiceController--><path codeLine="21" d="M120.03,87 C137.04,87 156.12,87 174.5,87 " fill="none" id="OrderInvoiceUI-to-OrderInvoiceController" style="stroke:#A80036;stroke-width:1.0;stroke-dasharray:7.0,7.0;"/><polygon fill="#A80036" points="179.67,87,170.67,83,174.67,87,170.67,91,179.67,87" style="stroke:#A80036;stroke-width:1.0;"/><!--MD5=[8015b2458da08243e8bcc551d7fa1e28]
link OrderInvoiceController to Application--><path codeLine="22" d="M335.21,66.29 C353.62,61.32 372.82,56.14 389.69,51.58 " fill="none" id="OrderInvoiceController-to-Application" style="stroke:#A80036;stroke-width:1.0;stroke-dasharray:7.0,7.0;"/><polygon fill="#A80036" points="394.84,50.19,385.1084,48.6745,390.0129,51.4935,387.194,56.3979,394.84,50.19" style="stroke:#A80036;stroke-width:1.0;"/><!--MD5=[dac86a6ae4f1b090295a812790bfb53f]
link OrderInvoiceController to Receipt--><path codeLine="23" d="M335.21,107.29 C353.62,112.16 372.82,117.23 389.69,121.69 " fill="none" id="OrderInvoiceController-to-Receipt" style="stroke:#A80036;stroke-width:1.0;stroke-dasharray:7.0,7.0;"/><polygon fill="#A80036" points="394.84,123.06,387.1552,116.9001,390.0048,121.7868,385.1181,124.6364,394.84,123.06" style="stroke:#A80036;stroke-width:1.0;"/><!--MD5=[1cc74ad3ffa02131171ea94dae6db618]
link Receipt to Pharmacy--><path codeLine="24" d="M487.06,135 C504.25,135 523.92,135 541.39,135 " fill="none" id="Receipt-to-Pharmacy" style="stroke:#A80036;stroke-width:1.0;stroke-dasharray:7.0,7.0;"/><polygon fill="#A80036" points="546.74,135,537.74,131,541.74,135,537.74,139,546.74,135" style="stroke:#A80036;stroke-width:1.0;"/><!--MD5=[928cb7536177246eca6c519a127e270f]
@startuml

left to right direction

class OrderInvoiceUI {
}

class OrderInvoiceController {
    +checkOrder()
}

class Application {
    +getOrder()
}

class Receipt {
    +sendInvoice()
}
class Pharmacy {
}

OrderInvoiceUI ..> OrderInvoiceController
OrderInvoiceController ..> Application
OrderInvoiceController ..> Receipt
Receipt..>Pharmacy

@enduml

PlantUML version 1.2020.23(Sun Dec 13 19:14:58 GMT 2020)
(GPL source distribution)
Java Runtime: OpenJDK Runtime Environment
JVM: OpenJDK 64-Bit Server VM
Default Encoding: Cp1252
Language: pt
Country: PT
--></g></svg>