<?xml version="1.0" encoding="UTF-8" standalone="no"?><svg xmlns="http://www.w3.org/2000/svg" xmlns:xlink="http://www.w3.org/1999/xlink" contentScriptType="application/ecmascript" contentStyleType="text/css" height="381px" preserveAspectRatio="none" style="width:798px;height:381px;" version="1.1" viewBox="0 0 798 381" width="798px" zoomAndPan="magnify"><defs><filter height="300%" id="f1chr3x1dn2k0c" width="300%" x="-1" y="-1"><feGaussianBlur result="blurOut" stdDeviation="2.0"/><feColorMatrix in="blurOut" result="blurOut2" type="matrix" values="0 0 0 0 0 0 0 0 0 0 0 0 0 0 0 0 0 0 .4 0"/><feOffset dx="4.0" dy="4.0" in="blurOut2" result="blurOut3"/><feBlend in="SourceGraphic" in2="blurOut3" mode="normal"/></filter></defs><g><!--MD5=[ed6624c6556d5e7b1bd23032162d20b7]
class Client--><rect codeLine="4" fill="#FEFECE" filter="url(#f1chr3x1dn2k0c)" height="136.8516" id="Client" style="stroke:#A80036;stroke-width:1.5;" width="144" x="7" y="7"/><ellipse cx="58.75" cy="23" fill="#ADD1B2" rx="11" ry="11" style="stroke:#A80036;stroke-width:1.0;"/><path d="M60.75,19.5 Q60.9531,19 61.1875,18.75 Q61.4219,18.5 61.6875,18.5 Q62.1563,18.5 62.4531,18.7813 Q62.75,19.0625 62.75,19.7188 L62.75,21.2813 Q62.75,21.9375 62.4688,22.2188 Q62.1875,22.5 61.75,22.5 Q61.3594,22.5 61.1094,22.3281 Q60.8594,22.1563 60.75,21.7031 Q60.7031,21.3906 60.5313,21.2188 Q60.2188,20.8906 59.6563,20.7031 Q59.0938,20.5 58.5313,20.5 Q57.8281,20.5 57.2344,20.7813 Q56.6563,21.0625 56.2031,21.6875 Q55.75,22.3125 55.75,23.1719 L55.75,24.0938 Q55.75,25.125 56.5938,25.8125 Q57.4375,26.5 58.9375,26.5 Q59.8281,26.5 60.4531,26.2969 Q60.8125,26.1875 61.2188,25.8281 Q61.4844,25.625 61.625,25.5625 Q61.7656,25.5 61.9375,25.5 Q62.2656,25.5 62.5,25.7656 Q62.75,26.0156 62.75,26.375 Q62.75,26.7188 62.4063,27.125 Q61.9063,27.7188 61.1094,28.0469 Q60.0625,28.5 58.7813,28.5 Q57.2813,28.5 56.0781,27.9063 Q55.1094,27.4375 54.4219,26.4219 Q53.75,25.4063 53.75,24.2031 L53.75,23.1094 Q53.75,21.8594 54.3438,20.7656 Q54.9531,19.6719 56,19.0938 Q57.0625,18.5 58.25,18.5 Q58.9688,18.5 59.5938,18.75 Q60.2188,19 60.75,19.5 Z " fill="#000000"/><text fill="#000000" font-family="sans-serif" font-size="12" lengthAdjust="spacingAndGlyphs" textLength="32" x="79.25" y="27.9102">Client</text><line style="stroke:#A80036;stroke-width:1.5;" x1="8" x2="150" y1="39" y2="39"/><rect fill="none" height="6" style="stroke:#C82930;stroke-width:1.0;" width="6" x="15" y="47"/><text fill="#000000" font-family="sans-serif" font-size="11" lengthAdjust="spacingAndGlyphs" textLength="44" x="27" y="54.4189">Integer id</text><rect fill="none" height="6" style="stroke:#C82930;stroke-width:1.0;" width="6" x="15" y="60.8359"/><text fill="#000000" font-family="sans-serif" font-size="11" lengthAdjust="spacingAndGlyphs" textLength="57" x="27" y="68.2549">String name</text><rect fill="none" height="6" style="stroke:#C82930;stroke-width:1.0;" width="6" x="15" y="74.6719"/><text fill="#000000" font-family="sans-serif" font-size="11" lengthAdjust="spacingAndGlyphs" textLength="97" x="27" y="82.0908">String emailAddress</text><rect fill="none" height="6" style="stroke:#C82930;stroke-width:1.0;" width="6" x="15" y="88.5078"/><text fill="#000000" font-family="sans-serif" font-size="11" lengthAdjust="spacingAndGlyphs" textLength="81" x="27" y="95.9268">String password</text><rect fill="none" height="6" style="stroke:#C82930;stroke-width:1.0;" width="6" x="15" y="102.3438"/><text fill="#000000" font-family="sans-serif" font-size="11" lengthAdjust="spacingAndGlyphs" textLength="77" x="27" y="109.7627">String cellphone</text><rect fill="none" height="6" style="stroke:#C82930;stroke-width:1.0;" width="6" x="15" y="116.1797"/><text fill="#000000" font-family="sans-serif" font-size="11" lengthAdjust="spacingAndGlyphs" textLength="48" x="27" y="123.5986">Integer nif</text><rect fill="none" height="6" style="stroke:#C82930;stroke-width:1.0;" width="6" x="15" y="130.0156"/><text fill="#000000" font-family="sans-serif" font-size="11" lengthAdjust="spacingAndGlyphs" textLength="118" x="27" y="137.4346">Integer numberOfCredits</text><!--MD5=[0b4e4b4980470ea387cc45de9bd14b5b]
class Application--><rect codeLine="13" fill="#FEFECE" filter="url(#f1chr3x1dn2k0c)" height="40" id="Application" style="stroke:#A80036;stroke-width:1.5;" width="92" x="33" y="215.5"/><ellipse cx="48" cy="231.5" fill="#ADD1B2" rx="11" ry="11" style="stroke:#A80036;stroke-width:1.0;"/><path d="M50,228 Q50.2031,227.5 50.4375,227.25 Q50.6719,227 50.9375,227 Q51.4063,227 51.7031,227.2813 Q52,227.5625 52,228.2188 L52,229.7813 Q52,230.4375 51.7188,230.7188 Q51.4375,231 51,231 Q50.6094,231 50.3594,230.8281 Q50.1094,230.6563 50,230.2031 Q49.9531,229.8906 49.7813,229.7188 Q49.4688,229.3906 48.9063,229.2031 Q48.3438,229 47.7813,229 Q47.0781,229 46.4844,229.2813 Q45.9063,229.5625 45.4531,230.1875 Q45,230.8125 45,231.6719 L45,232.5938 Q45,233.625 45.8438,234.3125 Q46.6875,235 48.1875,235 Q49.0781,235 49.7031,234.7969 Q50.0625,234.6875 50.4688,234.3281 Q50.7344,234.125 50.875,234.0625 Q51.0156,234 51.1875,234 Q51.5156,234 51.75,234.2656 Q52,234.5156 52,234.875 Q52,235.2188 51.6563,235.625 Q51.1563,236.2188 50.3594,236.5469 Q49.3125,237 48.0313,237 Q46.5313,237 45.3281,236.4063 Q44.3594,235.9375 43.6719,234.9219 Q43,233.9063 43,232.7031 L43,231.6094 Q43,230.3594 43.5938,229.2656 Q44.2031,228.1719 45.25,227.5938 Q46.3125,227 47.5,227 Q48.2188,227 48.8438,227.25 Q49.4688,227.5 50,228 Z " fill="#000000"/><text fill="#000000" font-family="sans-serif" font-size="12" lengthAdjust="spacingAndGlyphs" textLength="60" x="62" y="236.4102">Application</text><line style="stroke:#A80036;stroke-width:1.5;" x1="34" x2="124" y1="247.5" y2="247.5"/><!--MD5=[3fd616f346a44cd59a91eb10b19e157c]
class User--><rect codeLine="15" fill="#FEFECE" filter="url(#f1chr3x1dn2k0c)" height="81.5078" id="User" style="stroke:#A80036;stroke-width:1.5;" width="123" x="455" y="50.5"/><ellipse cx="498.8" cy="66.5" fill="#ADD1B2" rx="11" ry="11" style="stroke:#A80036;stroke-width:1.0;"/><path d="M500.8,63 Q501.0031,62.5 501.2375,62.25 Q501.4719,62 501.7375,62 Q502.2063,62 502.5031,62.2813 Q502.8,62.5625 502.8,63.2188 L502.8,64.7813 Q502.8,65.4375 502.5188,65.7188 Q502.2375,66 501.8,66 Q501.4094,66 501.1594,65.8281 Q500.9094,65.6563 500.8,65.2031 Q500.7531,64.8906 500.5813,64.7188 Q500.2688,64.3906 499.7063,64.2031 Q499.1438,64 498.5813,64 Q497.8781,64 497.2844,64.2813 Q496.7063,64.5625 496.2531,65.1875 Q495.8,65.8125 495.8,66.6719 L495.8,67.5938 Q495.8,68.625 496.6438,69.3125 Q497.4875,70 498.9875,70 Q499.8781,70 500.5031,69.7969 Q500.8625,69.6875 501.2688,69.3281 Q501.5344,69.125 501.675,69.0625 Q501.8156,69 501.9875,69 Q502.3156,69 502.55,69.2656 Q502.8,69.5156 502.8,69.875 Q502.8,70.2188 502.4563,70.625 Q501.9563,71.2188 501.1594,71.5469 Q500.1125,72 498.8313,72 Q497.3313,72 496.1281,71.4063 Q495.1594,70.9375 494.4719,69.9219 Q493.8,68.9063 493.8,67.7031 L493.8,66.6094 Q493.8,65.3594 494.3938,64.2656 Q495.0031,63.1719 496.05,62.5938 Q497.1125,62 498.3,62 Q499.0188,62 499.6438,62.25 Q500.2688,62.5 500.8,63 Z " fill="#000000"/><text fill="#000000" font-family="sans-serif" font-size="12" lengthAdjust="spacingAndGlyphs" textLength="27" x="519.2" y="71.4102">User</text><line style="stroke:#A80036;stroke-width:1.5;" x1="456" x2="577" y1="82.5" y2="82.5"/><rect fill="none" height="6" style="stroke:#C82930;stroke-width:1.0;" width="6" x="463" y="90.5"/><text fill="#000000" font-family="sans-serif" font-size="11" lengthAdjust="spacingAndGlyphs" textLength="57" x="475" y="97.9189">name String</text><rect fill="none" height="6" style="stroke:#C82930;stroke-width:1.0;" width="6" x="463" y="104.3359"/><text fill="#000000" font-family="sans-serif" font-size="11" lengthAdjust="spacingAndGlyphs" textLength="97" x="475" y="111.7549">emailAddress String</text><rect fill="none" height="6" style="stroke:#C82930;stroke-width:1.0;" width="6" x="463" y="118.1719"/><text fill="#000000" font-family="sans-serif" font-size="11" lengthAdjust="spacingAndGlyphs" textLength="81" x="475" y="125.5908">password String</text><!--MD5=[cf4d6237fcae255cd2e1656cf84a30e2]
class Order--><rect codeLine="21" fill="#FEFECE" filter="url(#f1chr3x1dn2k0c)" height="53.8359" id="Order" style="stroke:#A80036;stroke-width:1.5;" width="70" x="481.5" y="219.5"/><ellipse cx="499.65" cy="235.5" fill="#ADD1B2" rx="11" ry="11" style="stroke:#A80036;stroke-width:1.0;"/><path d="M501.65,232 Q501.8531,231.5 502.0875,231.25 Q502.3219,231 502.5875,231 Q503.0563,231 503.3531,231.2813 Q503.65,231.5625 503.65,232.2188 L503.65,233.7813 Q503.65,234.4375 503.3688,234.7188 Q503.0875,235 502.65,235 Q502.2594,235 502.0094,234.8281 Q501.7594,234.6563 501.65,234.2031 Q501.6031,233.8906 501.4313,233.7188 Q501.1188,233.3906 500.5563,233.2031 Q499.9938,233 499.4313,233 Q498.7281,233 498.1344,233.2813 Q497.5563,233.5625 497.1031,234.1875 Q496.65,234.8125 496.65,235.6719 L496.65,236.5938 Q496.65,237.625 497.4938,238.3125 Q498.3375,239 499.8375,239 Q500.7281,239 501.3531,238.7969 Q501.7125,238.6875 502.1188,238.3281 Q502.3844,238.125 502.525,238.0625 Q502.6656,238 502.8375,238 Q503.1656,238 503.4,238.2656 Q503.65,238.5156 503.65,238.875 Q503.65,239.2188 503.3063,239.625 Q502.8063,240.2188 502.0094,240.5469 Q500.9625,241 499.6813,241 Q498.1813,241 496.9781,240.4063 Q496.0094,239.9375 495.3219,238.9219 Q494.65,237.9063 494.65,236.7031 L494.65,235.6094 Q494.65,234.3594 495.2438,233.2656 Q495.8531,232.1719 496.9,231.5938 Q497.9625,231 499.15,231 Q499.8688,231 500.4938,231.25 Q501.1188,231.5 501.65,232 Z " fill="#000000"/><text fill="#000000" font-family="sans-serif" font-size="12" lengthAdjust="spacingAndGlyphs" textLength="31" x="514.35" y="240.4102">Order</text><line style="stroke:#A80036;stroke-width:1.5;" x1="482.5" x2="550.5" y1="251.5" y2="251.5"/><rect fill="none" height="6" style="stroke:#C82930;stroke-width:1.0;" width="6" x="489.5" y="259.5"/><text fill="#000000" font-family="sans-serif" font-size="11" lengthAdjust="spacingAndGlyphs" textLength="44" x="501.5" y="266.9189">id Integer</text><!--MD5=[34b75dd4d6d4601c280a5b76e9c1a953]
class Receipt--><rect codeLine="25" fill="#FEFECE" filter="url(#f1chr3x1dn2k0c)" height="53.8359" id="Receipt" style="stroke:#A80036;stroke-width:1.5;" width="74" x="710" y="270.5"/><ellipse cx="725" cy="286.5" fill="#ADD1B2" rx="11" ry="11" style="stroke:#A80036;stroke-width:1.0;"/><path d="M727,283 Q727.2031,282.5 727.4375,282.25 Q727.6719,282 727.9375,282 Q728.4063,282 728.7031,282.2813 Q729,282.5625 729,283.2188 L729,284.7813 Q729,285.4375 728.7188,285.7188 Q728.4375,286 728,286 Q727.6094,286 727.3594,285.8281 Q727.1094,285.6563 727,285.2031 Q726.9531,284.8906 726.7813,284.7188 Q726.4688,284.3906 725.9063,284.2031 Q725.3438,284 724.7813,284 Q724.0781,284 723.4844,284.2813 Q722.9063,284.5625 722.4531,285.1875 Q722,285.8125 722,286.6719 L722,287.5938 Q722,288.625 722.8438,289.3125 Q723.6875,290 725.1875,290 Q726.0781,290 726.7031,289.7969 Q727.0625,289.6875 727.4688,289.3281 Q727.7344,289.125 727.875,289.0625 Q728.0156,289 728.1875,289 Q728.5156,289 728.75,289.2656 Q729,289.5156 729,289.875 Q729,290.2188 728.6563,290.625 Q728.1563,291.2188 727.3594,291.5469 Q726.3125,292 725.0313,292 Q723.5313,292 722.3281,291.4063 Q721.3594,290.9375 720.6719,289.9219 Q720,288.9063 720,287.7031 L720,286.6094 Q720,285.3594 720.5938,284.2656 Q721.2031,283.1719 722.25,282.5938 Q723.3125,282 724.5,282 Q725.2188,282 725.8438,282.25 Q726.4688,282.5 727,283 Z " fill="#000000"/><text fill="#000000" font-family="sans-serif" font-size="12" lengthAdjust="spacingAndGlyphs" textLength="42" x="739" y="291.4102">Receipt</text><line style="stroke:#A80036;stroke-width:1.5;" x1="711" x2="783" y1="302.5" y2="302.5"/><rect fill="none" height="6" style="stroke:#C82930;stroke-width:1.0;" width="6" x="718" y="310.5"/><text fill="#000000" font-family="sans-serif" font-size="11" lengthAdjust="spacingAndGlyphs" textLength="44" x="730" y="317.9189">id Integer</text><!--MD5=[7f2a9fafcebe4f099f71398fd3e2ed00]
class Pharmacy--><rect codeLine="28" fill="#FEFECE" filter="url(#f1chr3x1dn2k0c)" height="81.5078" id="Pharmacy" style="stroke:#A80036;stroke-width:1.5;" width="112" x="247" y="285.5"/><ellipse cx="273.25" cy="301.5" fill="#ADD1B2" rx="11" ry="11" style="stroke:#A80036;stroke-width:1.0;"/><path d="M275.25,298 Q275.4531,297.5 275.6875,297.25 Q275.9219,297 276.1875,297 Q276.6563,297 276.9531,297.2813 Q277.25,297.5625 277.25,298.2188 L277.25,299.7813 Q277.25,300.4375 276.9688,300.7188 Q276.6875,301 276.25,301 Q275.8594,301 275.6094,300.8281 Q275.3594,300.6563 275.25,300.2031 Q275.2031,299.8906 275.0313,299.7188 Q274.7188,299.3906 274.1563,299.2031 Q273.5938,299 273.0313,299 Q272.3281,299 271.7344,299.2813 Q271.1563,299.5625 270.7031,300.1875 Q270.25,300.8125 270.25,301.6719 L270.25,302.5938 Q270.25,303.625 271.0938,304.3125 Q271.9375,305 273.4375,305 Q274.3281,305 274.9531,304.7969 Q275.3125,304.6875 275.7188,304.3281 Q275.9844,304.125 276.125,304.0625 Q276.2656,304 276.4375,304 Q276.7656,304 277,304.2656 Q277.25,304.5156 277.25,304.875 Q277.25,305.2188 276.9063,305.625 Q276.4063,306.2188 275.6094,306.5469 Q274.5625,307 273.2813,307 Q271.7813,307 270.5781,306.4063 Q269.6094,305.9375 268.9219,304.9219 Q268.25,303.9063 268.25,302.7031 L268.25,301.6094 Q268.25,300.3594 268.8438,299.2656 Q269.4531,298.1719 270.5,297.5938 Q271.5625,297 272.75,297 Q273.4688,297 274.0938,297.25 Q274.7188,297.5 275.25,298 Z " fill="#000000"/><text fill="#000000" font-family="sans-serif" font-size="12" lengthAdjust="spacingAndGlyphs" textLength="55" x="289.75" y="306.4102">Pharmacy</text><line style="stroke:#A80036;stroke-width:1.5;" x1="248" x2="358" y1="317.5" y2="317.5"/><rect fill="none" height="6" style="stroke:#C82930;stroke-width:1.0;" width="6" x="255" y="325.5"/><text fill="#000000" font-family="sans-serif" font-size="11" lengthAdjust="spacingAndGlyphs" textLength="44" x="267" y="332.9189">Integer id</text><rect fill="none" height="6" style="stroke:#C82930;stroke-width:1.0;" width="6" x="255" y="339.3359"/><text fill="#000000" font-family="sans-serif" font-size="11" lengthAdjust="spacingAndGlyphs" textLength="86" x="267" y="346.7549">String designation</text><rect fill="none" height="6" style="stroke:#C82930;stroke-width:1.0;" width="6" x="255" y="353.1719"/><text fill="#000000" font-family="sans-serif" font-size="11" lengthAdjust="spacingAndGlyphs" textLength="43" x="267" y="360.5908">String nif</text><!--MD5=[9a8dc34b38f85b9f3fcdb440f4bffc6a]
link Client to User--><path codeLine="34" d="M151.43,78.12 C236.01,81.23 375.4,86.35 454.93,89.27 " fill="none" id="Client-User" style="stroke:#A80036;stroke-width:1.0;"/><polygon fill="#000000" points="283.9966,72.8593,275.0655,69.5903,274.8497,75.4642,283.9966,72.8593" style="stroke:#000000;stroke-width:1.0;"/><text fill="#000000" font-family="sans-serif" font-size="13" lengthAdjust="spacingAndGlyphs" textLength="43" x="288" y="77.9951">acts as</text><text fill="#000000" font-family="sans-serif" font-size="13" lengthAdjust="spacingAndGlyphs" textLength="7" x="158.9044" y="92.6851">1</text><text fill="#000000" font-family="sans-serif" font-size="13" lengthAdjust="spacingAndGlyphs" textLength="7" x="439.9996" y="103.5198">1</text><!--MD5=[879bec428a80d843af24dc47845bf14c]
link Client to Order--><path codeLine="35" d="M151.05,95.31 C208.11,112.02 289.84,137.75 359,166.5 C402.39,184.54 450.21,209.82 481.43,227.11 " fill="none" id="Client-Order" style="stroke:#A80036;stroke-width:1.0;"/><polygon fill="#000000" points="283.6441,118.5285,276.3318,112.4472,274.1539,117.9067,283.6441,118.5285" style="stroke:#000000;stroke-width:1.0;"/><text fill="#000000" font-family="sans-serif" font-size="13" lengthAdjust="spacingAndGlyphs" textLength="43" x="288" y="121.9951">creates</text><text fill="#000000" font-family="sans-serif" font-size="13" lengthAdjust="spacingAndGlyphs" textLength="7" x="158.8411" y="111.6988">1</text><text fill="#000000" font-family="sans-serif" font-size="13" lengthAdjust="spacingAndGlyphs" textLength="20" x="453.4019" y="238.6222">0..*</text><!--MD5=[fae869a5e026c729d21735d7cae014a7]
link Application to User--><path codeLine="36" d="M125.36,233.24 C181.76,229.23 280.19,218.24 359,188.5 C395.19,174.84 432.13,152.43 461.03,132.58 " fill="none" id="Application-User" style="stroke:#A80036;stroke-width:1.0;"/><polygon fill="#000000" points="294.7893,178.2396,285.2812,178.0226,286.9696,183.6528,294.7893,178.2396" style="stroke:#000000;stroke-width:1.0;"/><text fill="#000000" font-family="sans-serif" font-size="13" lengthAdjust="spacingAndGlyphs" textLength="21" x="299" y="184.9951">has</text><text fill="#000000" font-family="sans-serif" font-size="13" lengthAdjust="spacingAndGlyphs" textLength="7" x="132.9948" y="247.641">1</text><text fill="#000000" font-family="sans-serif" font-size="13" lengthAdjust="spacingAndGlyphs" textLength="7" x="445.0002" y="153.6551">1</text><!--MD5=[3719c9bf6f78ec9c1d7893b20902bcf8]
link Order to Receipt--><path codeLine="37" d="M551.71,254.14 C594.16,263.61 666.25,279.7 709.67,289.39 " fill="none" id="Order-Receipt" style="stroke:#A80036;stroke-width:1.0;"/><polygon fill="#000000" points="617.88,258.7648,609.6921,253.9264,608.4119,259.6631,617.88,258.7648" style="stroke:#000000;stroke-width:1.0;"/><text fill="#000000" font-family="sans-serif" font-size="13" lengthAdjust="spacingAndGlyphs" textLength="57" x="622" y="262.9951">generates</text><text fill="#000000" font-family="sans-serif" font-size="13" lengthAdjust="spacingAndGlyphs" textLength="7" x="559.6939" y="270.914">1</text><text fill="#000000" font-family="sans-serif" font-size="13" lengthAdjust="spacingAndGlyphs" textLength="7" x="694.8868" y="302.9133">1</text><!--MD5=[0b87aa6ace50be10beee1b6515045c69]
link Pharmacy to Order--><path codeLine="38" d="M359.02,305.69 C397.69,291.06 448.24,271.94 481.27,259.45 " fill="none" id="Pharmacy-Order" style="stroke:#A80036;stroke-width:1.0;"/><polygon fill="#000000" points="398.6766,270.9069,389.1768,271.358,391.2562,276.8557,398.6766,270.9069" style="stroke:#000000;stroke-width:1.0;"/><text fill="#000000" font-family="sans-serif" font-size="13" lengthAdjust="spacingAndGlyphs" textLength="21" x="403" y="277.9951">has</text><text fill="#000000" font-family="sans-serif" font-size="13" lengthAdjust="spacingAndGlyphs" textLength="7" x="367.018" y="317.5205">1</text><text fill="#000000" font-family="sans-serif" font-size="13" lengthAdjust="spacingAndGlyphs" textLength="20" x="453.4961" y="276.5902">0..*</text><!--MD5=[168fe7c44663a873e383733a7f3766cf]
link Pharmacy to Receipt--><path codeLine="39" d="M359.12,323.23 C414.45,319.92 502.15,314.56 578,309.5 C623.51,306.46 675.94,302.67 709.96,300.17 " fill="none" id="Pharmacy-Receipt" style="stroke:#A80036;stroke-width:1.0;"/><polygon fill="#000000" points="508.4892,300.3478,499.2709,298.0085,499.6564,303.8737,508.4892,300.3478" style="stroke:#000000;stroke-width:1.0;"/><text fill="#000000" font-family="sans-serif" font-size="13" lengthAdjust="spacingAndGlyphs" textLength="21" x="512.5" y="305.9951">has</text><text fill="#000000" font-family="sans-serif" font-size="13" lengthAdjust="spacingAndGlyphs" textLength="7" x="367.1314" y="337.4174">1</text><text fill="#000000" font-family="sans-serif" font-size="13" lengthAdjust="spacingAndGlyphs" textLength="22" x="680.0034" y="315.475">0..1</text><!--MD5=[8c7e2cb836a61414bf9f02282664f603]
link Application to Pharmacy--><path codeLine="40" d="M125.19,254.02 C160.31,268.42 209.18,288.45 246.64,303.81 " fill="none" id="Application-Pharmacy" style="stroke:#A80036;stroke-width:1.0;"/><polygon fill="#000000" points="190.6263,270.5724,183.372,264.4221,181.1424,269.8607,190.6263,270.5724" style="stroke:#000000;stroke-width:1.0;"/><text fill="#000000" font-family="sans-serif" font-size="13" lengthAdjust="spacingAndGlyphs" textLength="21" x="195" y="273.9951">has</text><text fill="#000000" font-family="sans-serif" font-size="13" lengthAdjust="spacingAndGlyphs" textLength="7" x="133.1093" y="271.7698">1</text><text fill="#000000" font-family="sans-serif" font-size="13" lengthAdjust="spacingAndGlyphs" textLength="7" x="231.9704" y="315.477">1</text><!--MD5=[b2fb6d6eba1e657ad43fbcd8c99e2adf]
@startuml
hide methods
left to right direction

class Client {
    -Integer id
    -String name
    -String emailAddress
    -String password
    -String cellphone
    -Integer nif
    -Integer numberOfCredits
}
class Application {}

class User {
    -name String
    -emailAddress String
    -password String
}

class Order {
    - id Integer
}

class Receipt {
    - id Integer
}
class Pharmacy {
    -Integer id
    -String designation
    -String nif
}

Client "1" - - - "1" User: acts as >
Client "1" - - - "0..*" Order: creates >
Application "1" - - "1" User: has >
Order "1" - - "1" Receipt: generates >
Pharmacy "1" - - "0..*" Order: has >
Pharmacy "1" - - "0..1" Receipt: has >
Application "1" - - "1" Pharmacy: has >
@enduml

PlantUML version 1.2020.23(Sun Dec 13 19:14:58 GMT 2020)
(GPL source distribution)
Java Runtime: OpenJDK Runtime Environment
JVM: OpenJDK 64-Bit Server VM
Default Encoding: Cp1252
Language: pt
Country: PT
--></g></svg>